<svg xmlns="http://www.w3.org/2000/svg" viewBox="0 0 1000 1000"><defs><style>.cls-1{fill:#6c32ad;}.cls-2{fill:#1d1f1c;}.cls-3{fill:#d9cfff;}.cls-4{fill:#ffcdb2;}.cls-5{fill:#1d1e1b;}.cls-6{fill:#ffad00;}.cls-7{fill:#e89d00;}.cls-8{fill:#ffc140;}.cls-9{fill:#fff;}.cls-10{fill:#1d1d1b;}</style></defs><g id="associate"><g id="hands"><g id="hand"><path class="cls-1" d="M980.68,122.52C973.9,293.37,803.2,449.48,721.44,383L698,406.72,594.32,326.47,611.8,307s-33.21-26-17.21-79.15c24.87-82.68,67.41-102.71,78.26-107.36Z"/><path class="cls-2" d="M698.1,408.72l-106-82.05,17.53-19.53A63,63,0,0,1,595.84,288c-5.86-12.23-11.09-32.67-2.69-60.6,22.35-74.31,59.16-99.75,79.11-108.31l.28-.12h.32l309.38,2-.06,1.55c-2.19,55-22,113.34-55.72,164.26-31,46.78-71.47,83.86-111,101.73-36.58,16.53-69.85,15.26-93.88-3.51ZM596.52,326.27l101.32,78.45,23.5-23.7,1,.86c23.18,18.83,55.79,20.24,91.82,4,75.34-34,159.52-143.65,164.9-261.83l-306-2c-19.53,8.47-55.24,33.51-77.12,106.29-15.5,51.52,16.37,77.29,16.69,77.54l1.26,1Z"/><path class="cls-3" d="M700.46,404,594.32,326.47l18.19-18.79c34.52.62,89,36.38,108.58,74.82Z"/><circle class="cls-3" cx="872.06" cy="255.82" r="11.69"/><circle class="cls-3" cx="643.2" cy="252.63" r="11.69"/><circle class="cls-3" cx="749.24" cy="186.26" r="11.69"/><circle class="cls-3" cx="781.8" cy="346.43" r="11.69"/><path class="cls-4" d="M596.16,325.92S414.29,316,472,412.35l-56.36,76.92s11.17,30.57,49.12,22.37c0,0-7.72,59.62,40.21,47.36,0,0,28.1,22.07,89-17,51.28-32.9,102.87-135.49,102.87-135.49Z"/><path class="cls-5" d="M529.39,567.3c-14.15,0-22.26-4.47-24.79-6.14-12.82,3.09-23,1.4-30.23-5-12.87-11.4-12.42-34.14-11.83-42-37.08,6.5-48.63-23.85-48.75-24.17l-.37-1,56.22-76.72c-12.29-21-14.22-38.79-5.74-52.85,24.64-40.85,128-35.69,132.37-35.45l.64,0,.5.4,102,81.61-.73,1.44c-2.12,4.21-52.43,103.46-103.58,136.27C566.07,562.29,544.35,567.3,529.39,567.3Zm-23.93-10.48.78.61c.06,0,6.93,5.22,20.9,5.74,13,.47,35-3.1,65.78-22.85,46.94-30.12,94.93-120.72,101.43-133.26l-98.94-79.17c-8.8-.38-105.64-3.66-128.08,33.55-7.81,13-5.65,29.74,6.42,49.88l.68,1.14L418,489.54c2.23,5,14,27.15,46.42,20.14l2.77-.6-.36,2.81c0,.29-3.57,29.05,10.25,41.27,6.36,5.63,15.6,6.94,27.47,3.9Z"/><line class="cls-6" x1="493.17" y1="388.48" x2="472.05" y2="412.47"/><path d="M495.13,389.54a2.22,2.22,0,0,0-3.62-2.52l-21.13,24a2.22,2.22,0,0,0,3.33,2.93l21.13-24A2.78,2.78,0,0,0,495.13,389.54Z"/></g><g id="hand-2" data-name="hand"><path class="cls-6" d="M39,670c87,49,288.48,30.76,288.07-74.59L360.23,592l2.56-131-26.12,1.38s.62-42.14-50.83-63.07C205.86,366.73,50.42,376.47,40,382Z"/><path class="cls-5" d="M121.3,376.21c53.08,0,120.34,5.07,164.54,23,51.45,20.93,50.83,63.07,50.83,63.07l26.12-1.38L360.23,592l-33.16,3.42c.27,68.84-85.65,100.48-169.52,100.48C113.07,695.89,69.15,687,39,670l1-288c4.66-2.47,38.34-5.79,81.3-5.79m0-3c-42.54,0-77.11,3.18-82.71,6.14A3,3,0,0,0,37,382L36,670a3,3,0,0,0,1.53,2.62c29.65,16.7,73.39,26.28,120,26.28,63.86,0,119.42-17.51,148.63-46.84,15.26-15.32,23.28-33.45,23.85-53.93L360.54,595a3,3,0,0,0,2.69-2.93L365.79,461a3,3,0,0,0-.91-2.21,3,3,0,0,0-2.08-.84h-.16l-23.14,1.23a66,66,0,0,0-6.24-21.83c-6-12.47-18.82-29.69-46.29-40.86-49.76-20.25-125.16-23.27-165.67-23.27Z"/><path class="cls-7" d="M356.51,592.19l6.28-131.26-26,2.38c-21.18,27.26-27.5,92.09-9.89,131.48Z"/><circle class="cls-8" cx="133.49" cy="632.84" r="11.69"/><circle class="cls-8" cx="274.63" cy="452.65" r="11.69"/><circle class="cls-8" cx="156.41" cy="493.56" r="11.69"/><circle class="cls-8" cx="260.68" cy="619.43" r="11.69"/><path class="cls-4" d="M361.22,462s106.4-147.83,145.18-42.4L601.66,424s16.8,27.89-13.41,52.29c0,0,16.3,27.48-23.32,57.1,0,0-6.33,42.58-75,65.48C432.18,618.14,360.76,591,360.76,591Z"/><path class="cls-5" d="M443.5,607.72c-43.72,0-82.92-14.64-83.45-14.84l-1.3-.49.47-131,.38-.52c2.56-3.56,63.39-87.27,110.66-80.8,16.27,2.22,28.9,14.88,37.55,37.63l95,4.38.55.91c.17.29,16.88,28.88-12.62,53.85a35.17,35.17,0,0,1,2.69,17.08c-.83,10-6.14,25-26.69,40.63-.59,2.84-3.13,12.47-12,24.22-9.44,12.55-28.24,30-64.18,42C475.37,605.84,459.14,607.72,443.5,607.72Zm-80.74-18.11c9.9,3.49,74.36,24.78,126.57,7.36,34.81-11.61,53-28.37,62.08-40.39,9.84-13,11.52-23.38,11.54-23.48l.12-.81.66-.5c37.6-28.11,23.42-53.42,22.79-54.49l-.86-1.48,1.33-1.09c25.79-20.83,16-43.87,13.45-48.78L505,421.55l-.46-1.24c-8.1-22-19.81-34.25-34.8-36.3-43.07-5.87-101.27,71.57-106.5,78.67Z"/><line class="cls-6" x1="474.55" y1="421.1" x2="506.48" y2="419.7"/><path d="M474.15,423.28a2.22,2.22,0,0,1,.31-4.4l31.93-1.39a2.22,2.22,0,0,1,.19,4.43l-31.93,1.4A2.07,2.07,0,0,1,474.15,423.28Z"/><path d="M496.32,497.7c-7.47-.34-12.09-1-12.71-1.1-1.53-.23-2.56-1.4-2.3-2.6a2.75,2.75,0,0,1,3.23-1.77c.52.08,52.15,7.44,101.85-16.55a3.3,3.3,0,0,1,3.87.76,2,2,0,0,1-.87,3.05C552.42,497.33,515.23,498.56,496.32,497.7Z"/><path d="M472.85,553.39c-7.47-.34-12.09-1-12.71-1.09-1.53-.23-2.55-1.4-2.3-2.6a2.75,2.75,0,0,1,3.23-1.77c.52.08,52.16,7.44,101.86-16.55a3.29,3.29,0,0,1,3.86.76,2,2,0,0,1-.87,3.05C529,553,491.76,554.25,472.85,553.39Z"/><path class="cls-9" d="M426.64,598.32C408,594.85,397.45,586.93,397,586.59a2.22,2.22,0,1,1,2.69-3.53c.47.35,43.31,31.78,108.27-7.3a2.22,2.22,0,0,1,2.29,3.81c-35.29,21.23-64.12,22.06-82.09,19Z"/><path class="cls-9" d="M485.84,486.84a2.22,2.22,0,0,1,.54-4.4c.75.05,75.35,4.07,101-24.6a2.22,2.22,0,0,1,3.31,3c-27.06,30.27-101.4,26.26-104.55,26.08Z"/></g><path class="cls-4" d="M505.15,335C467,346,410,387,406,427S459.78,449.89,518.39,404"/><path class="cls-5" d="M425.7,451.42a26.36,26.36,0,0,1-12.79-2.8c-4.79-2.63-10.23-8.56-8.9-21.82,1.85-18.53,15.16-39.2,37.46-58.2,19-16.15,43.16-29.76,63.13-35.52l1.11,3.85c-37.24,10.73-93.82,51.23-97.72,90.27-.89,8.9,1.41,14.93,6.84,17.92,16.28,8.95,59.31-9,102.33-42.75l2.46,3.15C482.6,434.54,447.39,451.42,425.7,451.42Z"/><path class="cls-5" d="M133.5,906.5a2,2,0,0,1-1.35-3.48c62.1-56.45,89.89-119.34,102.26-162.16,13.41-46.43,12.11-79.94,12.09-80.27a2,2,0,0,1,4-.18c0,.34,1.36,34.37-12.2,81.39-12.51,43.36-40.6,107-103.45,164.18A2,2,0,0,1,133.5,906.5Z"/><path class="cls-5" d="M274.5,820.5a2,2,0,0,1-.92-.22,2,2,0,0,1-.86-2.7,216.35,216.35,0,0,0,23.43-118.86c-2.8-31-11.4-51.23-11.49-51.43a2,2,0,1,1,3.68-1.58c.36.84,8.91,20.9,11.78,52.48a220.45,220.45,0,0,1-23.84,121.23A2,2,0,0,1,274.5,820.5Z"/><path class="cls-5" d="M578,632a2,2,0,0,1-.7-3.87C650.8,600.72,690,556.68,710,524.56c21.65-34.83,26-63.56,26-63.84a2,2,0,1,1,4,.56c-.17,1.2-4.44,29.7-26.47,65.21C693.22,559.2,653.36,604,578.7,631.87A1.93,1.93,0,0,1,578,632Z"/></g><g id="line"><line class="cls-6" x1="403.5" y1="120.5" x2="983.5" y2="120.5"/><path class="cls-5" d="M983.5,122h-580a1.5,1.5,0,0,1,0-3h580a1.5,1.5,0,0,1,0,3Z"/><line class="cls-6" x1="333.5" y1="91.5" x2="447.5" y2="91.5"/><path class="cls-5" d="M447.5,93h-114a1.5,1.5,0,0,1,0-3h114a1.5,1.5,0,0,1,0,3Z"/><path class="cls-5" d="M38.5,808a1.5,1.5,0,0,1-1.5-1.5v-580a1.5,1.5,0,0,1,3,0v580A1.5,1.5,0,0,1,38.5,808Z"/><path class="cls-5" d="M67.5,272a1.5,1.5,0,0,1-1.5-1.5v-114a1.5,1.5,0,0,1,3,0v114A1.5,1.5,0,0,1,67.5,272Z"/></g><g id="stars"><path class="cls-6" d="M824.28,572.46,829,568a5.43,5.43,0,0,0,1.62-2.91l1.26-6.38a5.42,5.42,0,0,1,7.94-3.69l5.69,3.15a5.46,5.46,0,0,0,3.27.64l6.45-.77a5.42,5.42,0,0,1,6,6.41L860,570.85a5.46,5.46,0,0,0,.4,3.31l2.73,5.9a5.42,5.42,0,0,1-4.25,7.65l-6.46.8a5.46,5.46,0,0,0-3,1.4l-4.77,4.42a5.41,5.41,0,0,1-8.59-1.68l-2.75-5.89a5.47,5.47,0,0,0-2.27-2.44l-5.68-3.17A5.42,5.42,0,0,1,824.28,572.46Z"/><path class="cls-5" d="M837.23,554.36a5.34,5.34,0,0,1,2.62.68l5.69,3.15a5.5,5.5,0,0,0,2.62.68c.22,0,.43,0,.65,0l6.45-.77a4.87,4.87,0,0,1,.66,0,5.43,5.43,0,0,1,5.31,6.45L860,570.85a5.46,5.46,0,0,0,.4,3.31l2.73,5.9a5.42,5.42,0,0,1-4.25,7.65l-6.46.8a5.46,5.46,0,0,0-3,1.4l-4.77,4.42a5.41,5.41,0,0,1-8.59-1.68l-2.75-5.89a5.47,5.47,0,0,0-2.27-2.44l-5.68-3.17a5.42,5.42,0,0,1-1.05-8.69L829,568a5.43,5.43,0,0,0,1.62-2.91l1.26-6.38a5.42,5.42,0,0,1,5.32-4.37m0-3h0a8.43,8.43,0,0,0-8.26,6.79l-1.27,6.38a2.38,2.38,0,0,1-.72,1.3l-4.75,4.44a8.42,8.42,0,0,0,1.64,13.5l5.68,3.17a2.48,2.48,0,0,1,1,1.09l2.75,5.89a8.41,8.41,0,0,0,13.35,2.61l4.77-4.42a2.44,2.44,0,0,1,1.35-.62l6.45-.8a8.41,8.41,0,0,0,6.61-11.89l-2.72-5.9a2.37,2.37,0,0,1-.18-1.48l1.23-6.38a8.41,8.41,0,0,0-9.26-10l-6.46.77-.29,0a2.41,2.41,0,0,1-1.17-.31l-5.69-3.14a8.32,8.32,0,0,0-4.07-1.06Z"/><path class="cls-6" d="M415.79,827.76l4.76-4.44a5.41,5.41,0,0,0,1.61-2.91l1.27-6.38a5.42,5.42,0,0,1,7.94-3.69l5.69,3.15a5.43,5.43,0,0,0,3.26.64l6.46-.77a5.41,5.41,0,0,1,6,6.41l-1.23,6.38a5.38,5.38,0,0,0,.4,3.31l2.73,5.9a5.42,5.42,0,0,1-4.26,7.65l-6.45.8a5.46,5.46,0,0,0-3,1.4l-4.77,4.42a5.41,5.41,0,0,1-8.59-1.68l-2.76-5.89a5.45,5.45,0,0,0-2.26-2.44l-5.68-3.17A5.42,5.42,0,0,1,415.79,827.76Z"/><path class="cls-5" d="M428.75,809.66a5.48,5.48,0,0,1,2.62.68l5.69,3.15a5.36,5.36,0,0,0,2.62.68c.21,0,.43,0,.64,0l6.46-.77a4.87,4.87,0,0,1,.66,0,5.41,5.41,0,0,1,5.3,6.45l-1.23,6.38a5.38,5.38,0,0,0,.4,3.31l2.73,5.9a5.42,5.42,0,0,1-4.26,7.65l-6.45.8a5.46,5.46,0,0,0-3,1.4l-4.77,4.42a5.41,5.41,0,0,1-8.59-1.68l-2.76-5.89a5.45,5.45,0,0,0-2.26-2.44l-5.68-3.17a5.42,5.42,0,0,1-1.06-8.69l4.76-4.44a5.41,5.41,0,0,0,1.61-2.91l1.27-6.38a5.41,5.41,0,0,1,5.32-4.37m0-3h0a8.46,8.46,0,0,0-8.27,6.79l-1.26,6.38a2.44,2.44,0,0,1-.72,1.3l-4.75,4.44a8.42,8.42,0,0,0,1.64,13.5l5.67,3.17a2.44,2.44,0,0,1,1,1.09l2.75,5.89a8.41,8.41,0,0,0,13.35,2.61l4.77-4.42a2.41,2.41,0,0,1,1.35-.62l6.45-.8a8.41,8.41,0,0,0,6.61-11.89l-2.73-5.9a2.5,2.5,0,0,1-.18-1.48l1.24-6.38a8.42,8.42,0,0,0-8.25-10,8.72,8.72,0,0,0-1,.06l-6.45.77-.29,0a2.41,2.41,0,0,1-1.17-.31l-5.69-3.14a8.46,8.46,0,0,0-4.07-1.06Z"/><path class="cls-6" d="M747.93,861.44l.62-11.19a9.44,9.44,0,0,0-1.46-5.55L741,835.26a9.34,9.34,0,0,1,5.48-14.06l10.83-2.88a9.34,9.34,0,0,0,4.82-3.1l7.12-8.67a9.33,9.33,0,0,1,15.06.86l6.09,9.42a9.36,9.36,0,0,0,4.44,3.63l10.44,4.08a9.35,9.35,0,0,1,3.84,14.6l-7.08,8.69a9.35,9.35,0,0,0-2.08,5.35l-.66,11.19a9.34,9.34,0,0,1-12.69,8.16l-10.46-4a9.33,9.33,0,0,0-5.72-.33L759.62,871A9.35,9.35,0,0,1,747.93,861.44Z"/><path class="cls-5" d="M776.5,803.14a9.27,9.27,0,0,1,7.85,4.27l6.09,9.42a9.36,9.36,0,0,0,4.44,3.63l10.44,4.08a9.35,9.35,0,0,1,3.84,14.6l-7.08,8.69a9.35,9.35,0,0,0-2.08,5.35l-.66,11.19a9.31,9.31,0,0,1-12.69,8.16l-10.46-4a9.34,9.34,0,0,0-5.72-.33L759.62,871a9.32,9.32,0,0,1-11.69-9.55l.62-11.19a9.44,9.44,0,0,0-1.46-5.55L741,835.26a9.34,9.34,0,0,1,5.48-14.06l10.83-2.88a9.41,9.41,0,0,0,4.83-3.1l7.11-8.67a9.27,9.27,0,0,1,7.21-3.41m0-3a12.26,12.26,0,0,0-9.53,4.51l-7.11,8.66a6.29,6.29,0,0,1-3.28,2.11l-10.83,2.88a12.33,12.33,0,0,0-7.23,18.58l6,9.44a6.27,6.27,0,0,1,1,3.76l-.61,11.2a12.19,12.19,0,0,0,3.35,9.15,12.27,12.27,0,0,0,12.09,3.46l10.84-2.83a6.68,6.68,0,0,1,1.6-.2,6.17,6.17,0,0,1,2.29.43l10.46,4a12.32,12.32,0,0,0,16.77-10.79l.66-11.19a6.3,6.3,0,0,1,1.41-3.63l7.07-8.69a12.33,12.33,0,0,0-5.07-19.28L796,817.66a6.27,6.27,0,0,1-3-2.46l-6.09-9.42a12.3,12.3,0,0,0-10.37-5.64Z"/><path class="cls-10" d="M824.2,846.78a2,2,0,0,1-1.54-3.28c5.94-7.19,8.15-13.79,6.56-19.63-2.74-10.11-16-15-16.14-15.1a2,2,0,0,1,1.37-3.76c.62.23,15.33,5.68,18.63,17.79,1.95,7.17-.52,15-7.34,23.25A2,2,0,0,1,824.2,846.78Z"/><path class="cls-10" d="M746.43,891.82a16.33,16.33,0,0,1-6.84-1.41c-5.33-2.45-8.71-7.92-10-16.26a2,2,0,0,1,4-.64c1.1,7,3.72,11.41,7.76,13.27,7.65,3.51,18.24-2.92,18.35-3a2,2,0,1,1,2.09,3.4C761.31,887.44,754.09,891.82,746.43,891.82Z"/></g></g></svg>