<svg xmlns="http://www.w3.org/2000/svg" viewBox="0 0 1000 1000"><defs><style>.cls-1{fill:#ffad00;}.cls-2{fill:#fff;}.cls-3{fill:#d9cfff;}.cls-4{fill:#58298c;}.cls-5{fill:#ffcdb2;}.cls-6{fill:#6c32ad;}.cls-7{fill:#59298f;}.cls-8{fill:#ffb49f;}.cls-9{fill:#e89d00;}.cls-10{fill:#ffc140;}</style></defs><g id="cart"><g id="arrow"><path class="cls-1" d="M344.35,392.29s28.79-101.05-74.08-104.75l-2.1-12-31.86,30.35,34.26,18.79,3.91-13.07s60.79,11.05,42.67,66.88Z"/><path d="M344.35,393.79a1.48,1.48,0,0,1-.68-.16l-27.2-13.83a1.49,1.49,0,0,1-.74-1.8c5-15.53,4.28-28.95-2.24-39.88-10.34-17.33-32.38-23.46-38-24.77L272,325.09a1.49,1.49,0,0,1-.87,1,1.53,1.53,0,0,1-1.29-.07l-34.26-18.79a1.49,1.49,0,0,1-.31-2.4l31.86-30.36a1.48,1.48,0,0,1,1.5-.33,1.5,1.5,0,0,1,1,1.16l1.89,10.83c29.83,1.31,51.5,11,64.41,28.73,22.75,31.29,10.38,76,9.84,77.89a1.49,1.49,0,0,1-.84,1A1.53,1.53,0,0,1,344.35,393.79ZM319,377.71l24.39,12.4c2-8.64,9.57-46.86-9.84-73.54C321,299.36,299.7,290.1,270.22,289a1.48,1.48,0,0,1-1.42-1.24l-1.62-9.26-28.35,27,30.84,16.91L273,311.16a1.5,1.5,0,0,1,1.71-1.05c1.17.21,28.75,5.45,41.31,26.46C322.88,348,323.85,361.82,319,377.71Z"/><path class="cls-2" d="M339,377.92a1.24,1.24,0,0,1-.27,0,1.5,1.5,0,0,1-1.21-1.74c3.71-20.54.65-37.95-9.07-51.76-16.24-23.06-45.84-28.23-46.14-28.28a1.5,1.5,0,0,1,.49-3c1.27.21,31.15,5.44,48.11,29.51,10.2,14.49,13.42,32.66,9.56,54A1.5,1.5,0,0,1,339,377.92Z"/><path d="M366.65,384.83a2,2,0,0,1-.34,0,1.5,1.5,0,0,1-1.12-1.81c8.78-36.85,1.33-59.16-6.46-71.39-8.42-13.21-19.05-17.83-19.15-17.88a1.5,1.5,0,1,1,1.16-2.76c.47.19,11.48,4.94,20.41,18.85,8.17,12.73,16,35.88,7,73.88A1.51,1.51,0,0,1,366.65,384.83Z"/></g><g id="cart-2" data-name="cart"><path class="cls-3" d="M262.8,452.54H129.16c-6.83,0-12.36-6.51-12.36-14.53-2.28-22-2.11-45.37,0-69.81,0-8,5.53-14.53,12.36-14.53H262.8c6.82,0,12.36,6.51,12.36,14.53a270.09,270.09,0,0,1,0,69.81C275.16,446,269.62,452.54,262.8,452.54Z"/><path d="M262.79,454H129.16c-7.62,0-13.82-7.15-13.86-16-2.18-21.1-2.18-44.64,0-69.94,0-8.81,6.24-16,13.86-16H262.79c7.62,0,13.82,7.14,13.87,15.94a272.37,272.37,0,0,1,0,70C276.61,446.9,270.41,454,262.79,454ZM129.16,355.17c-6,0-10.86,5.85-10.86,13a.53.53,0,0,1,0,.13c-2.17,25.18-2.17,48.57,0,69.52a.81.81,0,0,1,0,.16c0,7.18,4.87,13,10.86,13H262.79c6,0,10.87-5.85,10.87-13a1.34,1.34,0,0,1,0-.2,269.67,269.67,0,0,0,0-69.41,1.34,1.34,0,0,1,0-.2c0-7.18-4.88-13-10.87-13Z"/><path class="cls-4" d="M115.19,409.39q.15,11.3,1,22.17c85.51,8.85,137.49,5.48,159.36,3q1.24-10.56,1.65-21.13A897.23,897.23,0,0,1,115.19,409.39Z"/><path d="M218.51,438.83c-26.37,0-60.34-1.42-102.45-5.78a1.5,1.5,0,0,1-1.34-1.37c-.59-7.18-.93-14.67-1-22.27a1.49,1.49,0,0,1,.5-1.13,1.51,1.51,0,0,1,1.18-.38A899,899,0,0,0,277.12,412a1.47,1.47,0,0,1,1.14.42,1.52,1.52,0,0,1,.46,1.13c-.27,7.06-.83,14.21-1.65,21.24a1.52,1.52,0,0,1-1.33,1.32A516.66,516.66,0,0,1,218.51,438.83Zm-100.9-8.64c82.2,8.43,133,5.59,156.61,3,.68-6,1.16-12.12,1.43-18.16a904,904,0,0,1-158.93-4C116.83,417.59,117.13,424,117.61,430.19Z"/><path d="M148.11,365.46a1.53,1.53,0,0,1-.91-.3c-29.46-22.45-43.86-60.53-50.76-88.51a283.5,283.5,0,0,1-8-55.81,1.5,1.5,0,0,1,3-.05c0,1,2.43,100,57.56,142a1.5,1.5,0,0,1-.91,2.69Z"/><path d="M137.38,385.15a1.1,1.1,0,0,1-.31,0C101,377.62,80.24,357.54,69.17,342c-12-16.83-15.43-31.68-15.57-32.3a1.5,1.5,0,0,1,2.93-.66c0,.15,3.46,15,15.16,31.32,10.76,15.05,30.94,34.51,66,41.8a1.5,1.5,0,0,1-.3,3Z"/><path class="cls-2" d="M251.46,361.79H178.9a1.5,1.5,0,0,1,0-3h72.56a1.5,1.5,0,0,1,0,3Z"/></g><g id="line"><path d="M325.54,897.5a2,2,0,0,1,0-4l561.76-3.41L887,261.8a2,2,0,1,1,4,0l.25,630.27a2,2,0,0,1-2,2L325.55,897.5Z"/><path d="M359.74,917H237.64a1.5,1.5,0,1,1,0-3h122.1a1.5,1.5,0,0,1,0,3Z"/><path d="M921.86,300.74a1.5,1.5,0,0,1-1.5-1.5V214a1.5,1.5,0,0,1,3,0v85.24A1.5,1.5,0,0,1,921.86,300.74Z"/></g><g id="woman"><path class="cls-5" d="M130.28,578.57s3.59-21.83,35.85-13.1c0,0,10.75-17.46,28.67-8.73s35.85,26.19,35.85,26.19l-50.19,26.19H141Z"/><path d="M180.46,610.62H141a1.5,1.5,0,0,1-1.42-1l-10.75-30.55a1.45,1.45,0,0,1-.07-.74,20,20,0,0,1,8.8-12.59c6.73-4.33,16.11-5,27.9-2,2.67-3.65,13.55-16.35,30-8.36,17.93,8.73,35.49,25.74,36.23,26.46a1.49,1.49,0,0,1-.35,2.4l-50.18,26.19A1.54,1.54,0,0,1,180.46,610.62Zm-38.36-3h38l48-25c-4.67-4.33-19.4-17.41-33.93-24.49-16.52-8-26.34,7.5-26.75,8.17a1.49,1.49,0,0,1-1.66.66c-11.38-3.08-20.29-2.64-26.47,1.31a17.47,17.47,0,0,0-7.43,10.24Z"/><path class="cls-5" d="M285.2,659.34s-4.26-3.69-47.48-11.08C197.3,641.35,132.43,640.2,116,578.57c0,0,10.75-13.1,43,8.73s90.49-7,73.44-28.89-34-45.31-12.51-62.77c0,0,35.85,4.36,86,82.93Z"/><path d="M285.2,660.84a1.52,1.52,0,0,1-.92-.31c-.34-.23-6.24-3.85-46.81-10.79-4.87-.83-10.06-1.57-15.56-2.36-39.1-5.61-92.66-13.28-107.41-68.42a1.47,1.47,0,0,1,.29-1.34c.47-.58,12-13.9,45,8.44,22.52,15.23,56.43,5.07,69-8.34,4.17-4.45,8-11.26,2.44-18.38C216.17,540,195.55,513.46,219,494.47a1.46,1.46,0,0,1,1.12-.32c1.5.18,37.13,5.35,87.11,83.61a1.45,1.45,0,0,1,.19,1.18l-20.72,80.77a1.49,1.49,0,0,1-1,1.06A1.41,1.41,0,0,1,285.2,660.84ZM117.63,579c14.55,52.45,64.52,59.61,104.71,65.37,5.52.79,10.73,1.53,15.63,2.37,31.22,5.34,42.35,8.79,46.23,10.4l20.1-78.35c-45.54-71.09-79.14-80.57-84-81.59-18.74,15.8-5.08,36.64,13.27,60.25,5.26,6.77,4.31,14.89-2.61,22.28-13.25,14.15-49.05,24.87-72.85,8.77C131.4,570.47,120.1,577.05,117.63,579Z"/><circle class="cls-6" cx="763.95" cy="296.07" r="39.09"/><path d="M764,257a39.09,39.09,0,0,1,1,78.16h-1.05a39.08,39.08,0,0,1-1-78.15l1.05,0m0-3h0l-1.13,0a42.08,42.08,0,0,0,1.09,84.15h1.13A42.09,42.09,0,0,0,764,254Z"/><path class="cls-6" d="M750.44,421.39s1,40,29.61,33.09,89.8-22.32,104.14,20.41,9.52,50.94,41.25,51.75,86.27,57.57,15.55,111.55S693.22,459.46,693.22,459.46l5.48-24.2Z"/><path d="M750.44,421.39s.82,33.89,23.28,33.89a27,27,0,0,0,6.33-.8c13.57-3.29,34.44-8.47,54.17-8.47,21.92,0,42.42,6.39,50,28.88,14.33,42.74,9.52,50.94,41.25,51.75s86.27,57.57,15.55,111.55c-7.35,5.61-15.86,8.12-25.18,8.12-80.43,0-222.59-186.85-222.59-186.85l5.48-24.2,51.74-13.87m0-3a2.86,2.86,0,0,0-.77.1l-51.74,13.88a3,3,0,0,0-2.15,2.23l-5.49,24.2a3,3,0,0,0,.54,2.48A1151.22,1151.22,0,0,0,772.21,555c26.59,27.25,51.21,49,73.15,64.58,27.77,19.74,51.47,29.75,70.45,29.75,10.32,0,19.4-2.94,27-8.74,15.9-12.13,26.65-25.23,32-38.93a52.55,52.55,0,0,0,1.22-36c-7.94-24.53-32.5-41.5-50.47-42-23.61-.6-24.74-4.4-32-29.08-1.75-5.89-3.73-12.58-6.43-20.62C880.15,453.42,862.38,443,834.22,443c-19.56,0-40.15,5-53.77,8.28l-1.1.27a24,24,0,0,1-5.63.72c-19.3,0-20.27-30.66-20.28-31a3,3,0,0,0-3-2.92Z"/><path class="cls-7" d="M948.46,632.05c-6.62-65.78-111.75-133.31-145.32-143.26s-74.09-26.1-80.19-40.27,17.71-20.73,17.71-20.73l-7.14-1.86-34.82,9.33-5.48,24.2S870.27,692.17,941,638.19C943.66,636.15,946.14,634.1,948.46,632.05Z"/><path class="cls-6" d="M613.4,359.42s-14.52-32.93,6.35-50.06,25.74-12.53,36.14-22.29,37.61-11.65,54.59,3.3c0,0,33-6.79,52.38,9.28s22.12,30.22,20.29,50.41.81,30.79,0,45-9.42,51.24-67.94,54S613.4,359.42,613.4,359.42Z"/><path d="M679.85,279.45c10.47,0,21.9,3.23,30.63,10.92A89.81,89.81,0,0,1,726.77,289c11.09,0,25.59,2,36.09,10.7,19.38,16.08,22.12,30.22,20.29,50.41s.81,30.79,0,45-9.42,51.24-67.94,54c-.84,0-1.69.06-2.53.06-57.24,0-99.28-89.68-99.28-89.68s-14.52-32.93,6.35-50.06,25.74-12.53,36.14-22.29c5.06-4.73,14.08-7.62,24-7.62m0-3c-10.65,0-20.38,3.15-26,8.44-4.24,4-7.34,5.28-11.62,7.09-5.55,2.35-12.46,5.27-24.37,15.06-9.35,7.67-13.53,19.45-12.09,34.07a70,70,0,0,0,4.9,19.52l0,.07a260.38,260.38,0,0,0,28.53,45.42c10.44,13.24,21.23,23.82,32.08,31.42,13.78,9.66,27.7,14.56,41.38,14.56.89,0,1.79,0,2.67-.06,26.1-1.21,45.54-9.19,57.77-23.72a56.82,56.82,0,0,0,13-33.06,154.63,154.63,0,0,0-.23-17.43,175.78,175.78,0,0,1,.21-27.5c1.89-20.77-1-36.1-21.36-53-11.35-9.42-26.93-11.39-38-11.39a96.93,96.93,0,0,0-15.44,1.22c-8.42-6.92-19.54-10.72-31.49-10.72Z"/><path class="cls-5" d="M666,445.57l-17.78,44.31s2,28.25,71.18-13c0,0-7.28-16.83-3.2-59.92,0,0,19.1,5.42,24.58-11.32s-5.43-25.92-14.9-25.67c0,0-39,4.59-36.21-70.13,0,0-36.83-3.77-59.79,24.09s-36.14,67.3-17.75,90.52S666,445.57,666,445.57Z"/><path d="M685.15,309.71c2.85,0,4.52.17,4.52.17-2.46,66.55,28.19,70.19,34.92,70.19a11.08,11.08,0,0,0,1.29-.06h.38c9.38,0,19.93,9.16,14.52,25.67-3.33,10.16-11.67,12.15-17.72,12.15a28,28,0,0,1-6.86-.83c-4.08,43.09,3.2,59.92,3.2,59.92-29.19,17.38-46.42,22.41-56.59,22.41-13.94,0-14.59-9.45-14.59-9.45L666,445.57s-.84.05-2.35.05c-8.21,0-36-1.51-51.52-21.13-18.39-23.22-5.21-62.66,17.75-90.52C648,312,674.62,309.71,685.15,309.71m0-3c-11,0-38.73,2.47-57.59,25.35-12.24,14.86-21.12,32-25,48.22-4.43,18.6-1.94,34.53,7.2,46.07,15.21,19.21,41.34,21.95,51.78,22.24l-16.13,40.17a3,3,0,0,0-.21,1.33c.3,4.23,4.35,12.24,17.59,12.24s32.68-7.68,58.12-22.83a3,3,0,0,0,1.22-3.77c-.06-.15-6.53-16-3.26-55.17a33.42,33.42,0,0,0,4.17.27c10.26,0,17.57-5,20.57-14.21,2.73-8.34,2-16.07-2.17-21.77a18.87,18.87,0,0,0-15.2-7.84h-.46l-.27,0h0a9.17,9.17,0,0,1-.94,0c-3,0-10.67-.8-17.78-8.18-10.28-10.67-15.17-31-14.14-58.9a3,3,0,0,0-2.7-3.1c-.07,0-1.85-.18-4.82-.18Z"/><path d="M663.94,448.24c-.75,0-1.51,0-2.25-.08a1.5,1.5,0,1,1,.21-3c10.67.76,23.39-5,23.51-5a1.5,1.5,0,1,1,1.25,2.72C686.15,443.09,674.77,448.24,663.94,448.24Z"/><path d="M720.71,410.08a1.51,1.51,0,0,1-1.29-.73,1.5,1.5,0,0,1,.52-2.05c5.51-3.3,8.34-6.73,8.42-10.2.11-4.93-5.43-8.63-5.48-8.67a1.5,1.5,0,0,1,1.64-2.51c.29.19,7,4.64,6.84,11.23-.1,4.58-3.42,8.86-9.88,12.72A1.42,1.42,0,0,1,720.71,410.08Z"/><path class="cls-8" d="M663.75,355.82c16.42,11.65,44.21,14.24,45.62,22.49s-5.52,15.55-16.23,13.47-20.32-6.58-39.55-16.73-37.29-21.53-30.44-31.19S639.6,338.69,663.75,355.82Z"/><path d="M651.23,336.09a1.5,1.5,0,0,1-.68-2.84,24.51,24.51,0,0,1,13.91-1.87,1.49,1.49,0,0,1,1.23,1.73,1.52,1.52,0,0,1-1.73,1.23,22,22,0,0,0-12.07,1.59A1.43,1.43,0,0,1,651.23,336.09Z"/><path d="M697.67,360.08a1.5,1.5,0,0,1-1.45-1.12h0c-.1-.36-2.38-8.69-9.8-8.69h-.19a1.5,1.5,0,0,1,0-3h.22c7.8,0,11.71,7.13,12.7,10.93a1.5,1.5,0,0,1-1.07,1.83A1.73,1.73,0,0,1,697.67,360.08Z"/><path d="M667.75,416.19a20.63,20.63,0,0,1-13.19-4.8,1.5,1.5,0,0,1,2.06-2.18c.42.39,10.27,9.35,24.13-.8a1.5,1.5,0,1,1,1.78,2.42C677,414.86,672,416.19,667.75,416.19Z"/><path d="M728.17,380.05a37.36,37.36,0,0,1-16.25-3.28,1.5,1.5,0,1,1,1.31-2.7c14.57,7.08,36.66-.78,36.88-.86a1.5,1.5,0,0,1,1,2.82A75.26,75.26,0,0,1,728.17,380.05Z"/><path class="cls-2" d="M729.18,372a1.39,1.39,0,0,1-.4-.06c-35.5-10-29.65-49.11-29.59-49.51a1.5,1.5,0,0,1,3,.48c-.24,1.5-5.46,36.88,27.44,46.14a1.5,1.5,0,0,1-.41,2.95Z"/><path d="M816.92,284.32l-.3,0a1.49,1.49,0,0,1-1.17-1.77c1.73-8.53.58-15.88-3.41-21.87-7.14-10.7-21.14-13.56-21.28-13.59a1.5,1.5,0,1,1,.58-2.94c.62.12,15.33,3.1,23.18,14.85,4.46,6.67,5.76,14.8,3.86,24.15A1.49,1.49,0,0,1,816.92,284.32Z"/><path d="M644.15,385.89a1.52,1.52,0,0,1-1-.39,1.49,1.49,0,0,1-.08-2.12l22.09-23.9a1.5,1.5,0,1,1,2.2,2l-22.09,23.9A1.5,1.5,0,0,1,644.15,385.89Z"/><path class="cls-2" d="M792.46,300.37h-.07A1.5,1.5,0,0,1,791,298.8c.44-9.21-1.85-16.35-6.79-21.22-8.07-7.95-20.72-7.26-20.85-7.25a1.5,1.5,0,0,1-.19-3c.57,0,14.08-.81,23.13,8.09,5.59,5.49,8.18,13.4,7.7,23.51A1.51,1.51,0,0,1,792.46,300.37Z"/><circle cx="642.03" cy="353.95" r="4.18"/><circle cx="683.03" cy="376.95" r="4.18"/><path class="cls-5" d="M544.22,552.91s3.88-109.64-112.47-143.66c0,0-19.39,22.68,15.51,56.71,0,0-23.27,11.34-15.51,30.24,0,0-15.52,18.91,0,30.25S451,552.12,476.26,562,544.22,552.91,544.22,552.91Z"/><path d="M493.75,566.33a50,50,0,0,1-18-3c-16.48-6.42-24-14.75-31.31-22.8-4.15-4.58-8.06-8.9-13.55-12.91-4.29-3.14-6.77-7.12-7.37-11.83C422.38,507,428.18,498.45,430,496c-6-16.24,9.33-27.1,14.75-30.34-17.18-17.34-20.32-31.74-19.87-40.85.5-10.32,5.48-16.25,5.69-16.5a1.48,1.48,0,0,1,1.56-.46c60.66,17.74,88.31,56.25,100.83,85.44,13.55,31.61,12.73,59.44,12.72,59.72a1.52,1.52,0,0,1-.89,1.32C543.44,554.9,517.3,566.33,493.75,566.33ZM432.31,411c-2.92,4.13-14.32,24.35,16,53.9a1.49,1.49,0,0,1,.43,1.31,1.46,1.46,0,0,1-.82,1.11c-.9.44-21.91,11-14.78,28.33a1.52,1.52,0,0,1-.23,1.52c-.08.1-7.58,9.39-6.44,18.31a14.18,14.18,0,0,0,6.16,9.78c5.73,4.19,9.94,8.83,14,13.32,7.06,7.79,14.35,15.85,30.18,22,22.45,8.74,59.73-6.06,65.92-8.65,0-5.07-.61-29.84-12.54-57.6C518,465.92,491.11,428.5,432.31,411ZM544.22,552.92h0Z"/><path d="M213,590.65h-.08c-20.27-1.15-46.47-22.86-47.58-23.79a1.5,1.5,0,1,1,1.93-2.3c.26.22,26.54,22,45.81,23.1a1.5,1.5,0,0,1-.08,3Z"/><path d="M459.77,522.29a1.48,1.48,0,0,1-1.42-1h0c-.05-.14-4.92-14.32-27.65-24.07a1.5,1.5,0,0,1,1.18-2.76C456,504.75,461,519.7,461.2,520.33a1.5,1.5,0,0,1-1,1.89A1.43,1.43,0,0,1,459.77,522.29Z"/><path d="M484.46,494.52a1.5,1.5,0,0,1-1.37-.9c-8.15-18.53-35.76-25.92-36-26a1.5,1.5,0,0,1,.76-2.91c1.19.31,29.29,7.82,38,27.7a1.49,1.49,0,0,1-.77,2A1.46,1.46,0,0,1,484.46,494.52Z"/><path class="cls-1" d="M568.76,521.78c68.76-39.2,153.64-71.46,218.8-24.42S890.19,625.28,890.19,625.28V893.44l-297.78.17s-19.68-104.79-11-217.7c0,0-36.51,15.83-79.95,30s-167.27,46.44-189-38.24l-34.75-9.41s21.72-51.75,26.06-89.38l34.75,9.4s4.34-42.34,52.12-23.52S486.23,568.83,568.76,521.78Z"/><path d="M592.41,895.11a1.51,1.51,0,0,1-1.48-1.22c-.19-1-19.33-104.74-11.19-215.64-8.67,3.67-40.92,17-77.81,29-20.56,6.69-61,18-99.62,18-20.74,0-40.94-3.25-57.26-12.22-17.12-9.42-28.49-24.28-33.8-44.18l-33.91-9.18a1.49,1.49,0,0,1-1-2c.21-.51,21.68-52,25.95-89a1.49,1.49,0,0,1,1.88-1.27l33.13,9c.83-4.59,4-17,15-23.7,9.7-5.9,22.79-5.68,38.89.67a137.57,137.57,0,0,0,51.23,10c35.43,0,74.49-13.78,125.57-42.89,42.06-24,78.44-38.6,111.22-44.72,42.69-8,79.43-1.11,109.2,20.39,64.73,46.73,102.74,127.69,103.12,128.5a1.52,1.52,0,0,1,.14.63V893.44a1.5,1.5,0,0,1-1.5,1.5Zm-11-220.7a1.46,1.46,0,0,1,.87.28,1.48,1.48,0,0,1,.62,1.33c-8.07,104.91,8.61,204,10.75,216.09l295-.17V625.62c-2.57-5.4-39.9-82.19-102-127C735,461.24,663.93,469.26,569.5,523.08l-.75-1.3.75,1.3c-41,23.38-73.61,36.52-102.57,41.34-26.7,4.45-51.11,1.81-76.81-8.31-15.19-6-27.39-6.29-36.24-.9-12.09,7.36-13.83,23-13.85,23.18a1.49,1.49,0,0,1-1.88,1.29l-33.08-8.95c-4.29,33.53-21.71,77.63-25.31,86.48l33.11,9a1.52,1.52,0,0,1,1.06,1.08c5,19.49,16,34,32.57,43.14,45.64,25.1,123.26,4.19,154.51-6,42.86-13.93,79.45-29.74,79.81-29.9A1.57,1.57,0,0,1,581.42,674.41Z"/><path class="cls-9" d="M338.57,579.6,305,570.51c-4.22,36.55-25.31,86.82-25.31,86.82l33,8.92c.16-.23.33-.45.49-.69,18.59-28,25.82-85,25.82-85Z"/><path class="cls-5" d="M486.05,481.08s-54.3,7.56-42.67,45.37c0,0,11.64,7.56,42.67-11.34"/><path d="M450.94,529.44c-5.58,0-8.15-1.59-8.37-1.73a1.46,1.46,0,0,1-.62-.82c-2.94-9.53-2.07-18.07,2.58-25.36,11.17-17.55,40.08-21.76,41.31-21.94a1.5,1.5,0,0,1,.41,3c-.28,0-28.77,4.19-39.2,20.58-4.05,6.36-4.86,13.84-2.42,22.25,2.33,1,14.26,4.49,40.64-11.57a1.5,1.5,0,1,1,1.56,2.56C469.4,527,457.86,529.43,450.94,529.44Z"/><circle class="cls-10" cx="566.95" cy="550.86" r="8.76"/><ellipse class="cls-10" cx="504.54" cy="608.46" rx="8.08" ry="8.76"/><circle class="cls-10" cx="580.77" cy="641.86" r="8.76"/><ellipse class="cls-10" cx="424.78" cy="682.18" rx="8.08" ry="8.76"/><ellipse class="cls-10" cx="386.49" cy="600.39" rx="8.08" ry="8.76"/><circle class="cls-10" cx="707.48" cy="545.1" r="8.76"/><circle class="cls-10" cx="829.58" cy="609.61" r="8.76"/><circle class="cls-10" cx="732.82" cy="757.05" r="8.76"/><circle class="cls-10" cx="829.58" cy="814.64" r="8.76"/><circle class="cls-10" cx="645.28" cy="851.5" r="8.76"/><circle class="cls-10" cx="713.24" cy="649.92" r="8.76"/><path d="M192.16,657.93c-39.87,0-64.78-19.78-78.83-36.79a119.4,119.4,0,0,1-21.69-39.28,1.5,1.5,0,1,1,2.88-.82,119.1,119.1,0,0,0,21.19,38.27c20.67,25,48.13,36.94,81.53,35.52a1.5,1.5,0,1,1,.13,3C195.61,657.9,193.87,657.93,192.16,657.93Z"/><path d="M580.9,677.41a1.5,1.5,0,0,1-.41-2.94c.35-.11,36-10.47,65.63-19.58a1.5,1.5,0,1,1,.88,2.87c-29.61,9.11-65.32,19.48-65.68,19.59A1.52,1.52,0,0,1,580.9,677.41Z"/><path class="cls-2" d="M520.61,505.78a1.5,1.5,0,0,1-1.49-1.39c-3.09-39-64.53-72.18-65.15-72.51a1.5,1.5,0,1,1,1.41-2.65c2.59,1.38,63.51,34.26,66.73,74.93a1.5,1.5,0,0,1-1.38,1.61Z"/><path class="cls-2" d="M213.26,632.48h0c-50.15-1.15-73.27-32.56-73.5-32.87a1.5,1.5,0,0,1,2.44-1.76c.22.31,22.54,30.51,71.13,31.63a1.5,1.5,0,0,1,0,3Z"/><path class="cls-2" d="M802.07,527.66a1.52,1.52,0,0,1-1.17-.55c-31-38.13-79-41.35-113.87-37.33A265.72,265.72,0,0,0,617.8,508a1.5,1.5,0,0,1-1.22-2.74,269,269,0,0,1,70-18.41c22.6-2.61,43.21-1.51,61.25,3.27,22.64,6,41.27,17.82,55.37,35.15a1.49,1.49,0,0,1-1.16,2.44Z"/><path d="M540,457.5a1.5,1.5,0,0,1-1.46-1.14c-15.61-62.45-107-90.65-108-90.92a1.5,1.5,0,0,1,.86-2.88,248.14,248.14,0,0,1,48.84,22.15c23.28,13.83,52.79,37.36,61.19,70.93a1.51,1.51,0,0,1-1.1,1.82A1.47,1.47,0,0,1,540,457.5Z"/><path class="cls-2" d="M420,709.65a148.39,148.39,0,0,1-31.46-3.31c-23.64-5.13-37.33-14.21-37.9-14.6a1.5,1.5,0,1,1,1.68-2.49c.13.1,13.88,9.2,37,14.19,21.31,4.6,55.2,6.55,95.58-10.32a1.5,1.5,0,1,1,1.16,2.76C461.19,706.28,438.71,709.65,420,709.65Z"/><path class="cls-1" d="M472.91,78.76l130.32,22.55C620.18,104.25,631.78,118,630,133l-6.09,50.37c-1.8,14.85-16.14,26.12-33.23,26.12H580.19l-22.76,32.66-24.2-32.66H472.49c-17.52,0-32.06-11.81-33.33-27.07l-6.07-72.93C431.49,90.29,451.27,75,472.91,78.76Z"/><path d="M557.43,243.66a1.48,1.48,0,0,1-1.21-.61L532.48,211h-60c-18.2,0-33.49-12.49-34.82-28.44l-6.07-72.93c-.74-8.8,2.68-17.13,9.61-23.48,8.28-7.58,20.22-10.9,32-8.87L603.48,99.83c17.87,3.1,29.9,17.43,28,33.36l-6.09,50.37C623.46,199.2,608.54,211,590.64,211H581l-22.31,32a1.51,1.51,0,0,1-1.21.64Zm-91.08-164a34.24,34.24,0,0,0-23.12,8.67c-6.23,5.7-9.3,13.16-8.64,21l6.07,72.93c1.2,14.4,15.18,25.69,31.83,25.69h60.74a1.51,1.51,0,0,1,1.21.61l22.95,31,21.57-31a1.5,1.5,0,0,1,1.23-.64h10.45c16.38,0,30-10.66,31.74-24.8l6.09-50.37c1.73-14.31-9.23-27.23-25.5-30L472.65,80.24A36.3,36.3,0,0,0,466.35,79.7Z"/><path class="cls-2" d="M573.73,148.85h-.1l-98.76-3.35a3,3,0,0,1,.21-6l98.75,3.34a3,3,0,0,1-.1,6Z"/><path class="cls-2" d="M569.89,174h-.14l-70-3.35a3,3,0,0,1,.28-6L570,168a3,3,0,0,1-.14,6Z"/><path d="M581.85,114.56a145.16,145.16,0,0,1-26.61-2.41,1.49,1.49,0,1,1,.54-2.94C631,123.15,699.64,70.67,700.32,70.13a1.52,1.52,0,0,1,2.11.27,1.5,1.5,0,0,1-.27,2.1c-.17.14-17.71,13.65-44.43,25.21C638.62,106,611.63,114.56,581.85,114.56Z"/><path d="M616.43,165.86a79.77,79.77,0,0,1-25.93-4.35,1.5,1.5,0,0,1,1-2.84c42.75,14.61,76.82-13.67,77.16-14a1.5,1.5,0,1,1,1.94,2.29C670.29,147.23,647.91,165.86,616.43,165.86Z"/><path class="cls-2" d="M445.5,122a1.49,1.49,0,0,1-1.49-1.36c-.92-9.44,1.22-16.83,6.35-22,8.95-9,23.66-7.72,24.28-7.66a1.5,1.5,0,0,1-.28,3c-.14,0-13.94-1.18-21.89,6.81-4.46,4.47-6.3,11-5.48,19.56a1.49,1.49,0,0,1-1.35,1.63Z"/><ellipse class="cls-1" cx="718.12" cy="420.63" rx="5.39" ry="5.9"/><path d="M718.12,414.73a5,5,0,0,1,2.9.93,6.23,6.23,0,0,1,1.64,8.14,5.28,5.28,0,0,1-4.55,2.73,5,5,0,0,1-2.89-.93,6.22,6.22,0,0,1-1.64-8.14,5.25,5.25,0,0,1,4.54-2.73m0-2.73a7.71,7.71,0,0,0-6.65,4,9.13,9.13,0,0,0,2.4,11.91,7.37,7.37,0,0,0,4.24,1.36,7.7,7.7,0,0,0,6.65-4,9.13,9.13,0,0,0-2.4-11.91,7.37,7.37,0,0,0-4.24-1.36Z"/><polygon class="cls-2" points="891.91 657.48 891.91 467.42 994.43 560.72 965.63 656.33 891.91 657.48"/><polygon class="cls-2" points="891.91 657.48 891.91 467.42 994.43 560.72 965.63 656.33 891.91 657.48"/><polygon class="cls-2" points="891.91 657.48 891.91 467.42 994.43 560.72 965.63 656.33 891.91 657.48"/></g></g></svg>