<svg xmlns="http://www.w3.org/2000/svg" viewBox="0 0 1000 1000"><defs><style>.cls-1{fill:#1d1d1b;}.cls-2{fill:#1d1e1b;}.cls-3{fill:#6c32ad;}.cls-4{fill:#d9cfff;}.cls-5{fill:#fff;}.cls-6{fill:#ffad00;}.cls-7{fill:#e89d00;}.cls-8{fill:#ffc140;}.cls-9{fill:#ffcdb2;}</style></defs><g id="closed"><g id="line"><path class="cls-1" d="M889,882H185a2,2,0,0,1,0-4H889a2,2,0,0,1,0,4Z"/><path class="cls-1" d="M271,907H134a2,2,0,0,1,0-4H271a2,2,0,0,1,0,4Z"/><path class="cls-1" d="M943,918H835a2,2,0,0,1,0-4H943a2,2,0,0,1,0,4Z"/><path class="cls-2" d="M943.5,624a1.5,1.5,0,0,1-1.5-1.5V42.5a1.5,1.5,0,0,1,3,0v580A1.5,1.5,0,0,1,943.5,624Z"/><path class="cls-2" d="M904.5,691a1.5,1.5,0,0,1-1.5-1.5v-114a1.5,1.5,0,0,1,3,0v114A1.5,1.5,0,0,1,904.5,691Z"/></g><g id="lock"><path class="cls-3" d="M692.41,555H353.59l-.08-20.4c0-.33,0-.66,0-1,0-69.35,16.58-134.83,46.69-184.4,32-52.69,75.62-81.7,122.81-81.7s90.8,29,122.81,81.7c30.11,49.57,46.69,115.05,46.69,184.4,0,.34,0,.67,0,1v.48ZM393.94,515H652.06c-2.6-55.06-16.73-106-40.44-145C587.15,329.68,555.68,307.5,523,307.5S458.85,329.68,434.38,370C410.67,409,396.54,459.94,393.94,515Z"/><path class="cls-2" d="M693.9,556.5H352.1L352,534.61c0-.33,0-.67,0-1,0-69.62,16.66-135.38,46.91-185.18C431.2,295.27,475.27,266,523,266s91.8,29.27,124.09,82.42C677.34,398.22,694,464,694,533.6c0,.34,0,.68,0,1v.48Zm-338.81-3H690.91l.08-18.91c0-.33,0-.66,0-1,0-69.07-16.51-134.29-46.48-183.62C612.8,297.76,569.64,269,523,269s-89.8,28.76-121.52,81C371.51,399.31,355,464.53,355,533.6c0,.33,0,.66,0,1Zm298.54-37H392.37l.07-1.57c2.6-55.11,17-106.86,40.66-145.74C457.85,328.44,489.78,306,523,306s65.15,22.44,89.9,63.19c23.62,38.88,38.06,90.63,40.66,145.74Zm-258.12-3h255c-2.78-54-17-104.67-40.15-142.76C586.15,330.93,555.13,309,523,309s-63.15,21.93-87.34,61.74C412.53,408.83,398.29,459.47,395.51,513.5Z"/><path class="cls-4" d="M434.67,499H610.33A157.67,157.67,0,0,1,768,656.67V832.85A47.15,47.15,0,0,1,720.85,880H324.15A47.15,47.15,0,0,1,277,832.85V656.67A157.67,157.67,0,0,1,434.67,499Z"/><path class="cls-2" d="M720.85,881.5H324.15a48.7,48.7,0,0,1-48.65-48.65V656.67c0-87.77,71.4-159.17,159.17-159.17H610.33c87.77,0,159.17,71.4,159.17,159.17V832.85A48.7,48.7,0,0,1,720.85,881.5Zm-286.18-381c-86.11,0-156.17,70.06-156.17,156.17V832.85a45.7,45.7,0,0,0,45.65,45.65h396.7a45.7,45.7,0,0,0,45.65-45.65V656.67c0-86.11-70.06-156.17-156.17-156.17Z"/><path class="cls-3" d="M542.32,667.34V623H501.4v45.24a46.25,46.25,0,1,0,40.92-.88Z"/><path class="cls-2" d="M522.75,757a47.75,47.75,0,0,1-22.85-89.68V621.48h43.92V666.4A47.75,47.75,0,0,1,522.75,757ZM502.9,624.48v44.65l-.8.42a44.75,44.75,0,1,0,39.58-.85l-.86-.4V624.48Z"/><path class="cls-5" d="M747.5,774.5h-.26a6,6,0,0,1-5.73-6.25c7.56-174-42.6-186.73-43.11-186.84l.15,0,1.9-11.84c1.74.28,17.4,3.51,31.38,30.67,17.74,34.45,25,91.15,21.66,168.51A6,6,0,0,1,747.5,774.5Z"/><path class="cls-5" d="M288,686l-.49,0a6,6,0,0,1-5.5-6.46c4.82-60.65,24.78-106.3,59.32-135.68,45.21-38.45,98.47-34.57,100.72-34.39a6,6,0,0,1-1,12c-.55,0-34.14-2.39-68.75,15.87C326,561.76,299.59,609.94,294,680.48A6,6,0,0,1,288,686Z"/><path class="cls-1" d="M605.91,796H440.09A32.12,32.12,0,0,1,408,763.91V615.09A32.12,32.12,0,0,1,440.09,583H605.91A32.12,32.12,0,0,1,638,615.09V763.91A32.12,32.12,0,0,1,605.91,796ZM440.09,587A28.12,28.12,0,0,0,412,615.09V763.91A28.12,28.12,0,0,0,440.09,792H605.91A28.12,28.12,0,0,0,634,763.91V615.09A28.12,28.12,0,0,0,605.91,587Z"/><path class="cls-1" d="M699,438a2,2,0,0,1-2-1.66C682.15,349.65,647.94,306,621.86,284.67,593.78,261.7,569.05,259,568.8,259a2,2,0,0,1,.4-4c1,.1,26.18,2.83,55.19,26.57,17,13.88,31.71,32.11,43.82,54.19,15.08,27.52,26.11,61.12,32.76,99.89a2,2,0,0,1-1.63,2.31Z"/><path class="cls-1" d="M423,467h-.09a2,2,0,0,1-1.91-2.09c2.09-44.94,16.87-73.4,28.9-89.36,13.12-17.42,25.65-24.05,26.18-24.32a2,2,0,1,1,1.84,3.54c-.15.08-12.4,6.63-25,23.38C441.32,393.65,427,421.32,425,465.09A2,2,0,0,1,423,467Z"/><path class="cls-2" d="M340.17,784a302.07,302.07,0,0,1-132.71-66.51c-30.82-26.49-57.82-59.87-80.26-99.21C89,551.3,77.14,489.39,77,488.78l2.94-.56c.12.62,11.92,62.1,49.88,128.62,35,61.29,100,139.53,211,164.2Z"/><path class="cls-2" d="M293.49,819.48A199.42,199.42,0,0,1,230,809.17C205.5,801,181.92,788,159.94,770.42c-37.4-29.82-57.53-62.82-57.72-63.15l2.56-1.54c.2.32,20.1,32.92,57.11,62.41C196,795.29,252,825.29,325.27,814l.46,3A211.31,211.31,0,0,1,293.49,819.48Z"/></g><g id="hand"><path class="cls-6" d="M943,110c-151,5-289.92,154.91-231.7,227.54l-21,20.6,70.3,92.05,17.3-15.33s22.75,29.49,69.84,15.66c73.2-21.49,91.14-59,95.31-68.52Z"/><path class="cls-2" d="M943,110V382c-4.17,9.55-22.11,47-95.31,68.52a85.63,85.63,0,0,1-24.2,3.69c-30.7,0-45.64-19.35-45.64-19.35l-17.3,15.33-70.3-92.05,21-20.6C653.08,264.91,792,115,943,110m0-3h-.1a264.84,264.84,0,0,0-77.23,14.63,311.21,311.21,0,0,0-69.09,33.92c-41.77,27.29-75,63.08-91.14,98.2-7.39,16.08-11,31.44-10.69,45.65a64.8,64.8,0,0,0,12.55,37.85L688.15,356a3,3,0,0,0-.29,4L758.16,452a3,3,0,0,0,2.1,1.16l.29,0a3,3,0,0,0,2-.76l15.07-13.34c5.27,5.43,20.33,18.12,45.88,18.12a89.07,89.07,0,0,0,25-3.81C915,433.9,938,401.05,945.75,383.2A3.11,3.11,0,0,0,946,382V110a3,3,0,0,0-3-3Z"/><path class="cls-7" d="M692.71,356l67.84,94.23,16.71-16c-.35-30.5-31.63-78.81-65.48-96.36Z"/><circle class="cls-8" cx="824.58" cy="205.19" r="10.33"/><circle class="cls-8" cx="826.07" cy="407.43" r="10.33"/><circle class="cls-8" cx="885.34" cy="314.12" r="10.33"/><circle class="cls-8" cx="744" cy="284.42" r="10.33"/><path class="cls-9" d="M761,448.57S768.76,609.32,684,557.74l-68.29,49.35s-46-14.29-6-69.93c0,0-20.28-23.95-14-52.25,0,0-23.86-12.46,1.06-60.17s93.68-65.63,93.68-65.63Z"/><path class="cls-2" d="M616,609.3l-.95-.3c-.68-.21-16.74-5.36-22.08-21.31-4.56-13.64.21-30.61,14.18-50.46-4-5.25-18.6-26.35-13.74-51.38-5-3.56-20.87-19.15,1.53-62,25-47.95,92.1-65.89,94.95-66.63l1.26-.33,71.83,91,0,.64c.19,3.89,4.15,95.36-32.21,117-12.52,7.44-28.25,5.66-46.77-5.3Zm73.65-247.9c-9.38,2.71-68.78,21.4-91.17,64.26-23.57,45.14-2.79,57-1.89,57.48l1.33.72-.32,1.48c-6,27,13.38,50.3,13.58,50.53l1,1.19-.91,1.27c-13.85,19.26-18.73,35.42-14.53,48,4,12,15.29,17.18,18.58,18.47l68.5-49.51L685,556c17.65,10.73,32.38,12.74,43.79,6,32.79-19.48,30.58-104.47,30.28-112.69Z"/><line class="cls-6" x1="705.17" y1="539.2" x2="683.85" y2="557.73"/><path d="M704.25,537.47a2,2,0,0,1,2.2,3.21l-21.31,18.53a2,2,0,0,1-2.57-3l21.31-18.52A1.72,1.72,0,0,1,704.25,537.47Z"/><path d="M656.27,488.63a72.7,72.7,0,0,1,8.09-3.77,2,2,0,1,1,1.37,3.67c-.34.13-34.49,13.24-53.63,49.62a2,2,0,1,1-3.47-1.83A115.68,115.68,0,0,1,656.27,488.63Z"/><path d="M637.71,441.25c3.73-2,6.23-3.05,6.61-3.21a2,2,0,1,1,1.53,3.61c-.37.16-37.63,16.26-48.69,45.74a2,2,0,1,1-3.67-1.37C602.32,462.47,626,447.44,637.71,441.25Z"/><path class="cls-5" d="M640.84,390.29c14.81-7.86,26.45-8.18,26.95-8.19a2,2,0,0,1,.08,3.92c-.52,0-47.43,1.84-70.86,64.59a2,2,0,0,1-3.68-1.37c12.73-34.09,32.21-50.52,46.31-58.3Z"/><path class="cls-5" d="M644.39,449.44c1.6-.85,2.64-1.36,2.9-1.49a2,2,0,0,1,2.63.91,1.93,1.93,0,0,1-.91,2.62c-.48.24-47.7,23.56-46.36,47.51a2,2,0,1,1-3.92.22C597.44,476.11,633.63,455.15,644.39,449.44Z"/><path class="cls-5" d="M661.2,499.94a2,2,0,0,1,2,3.34c-.54.38-54.34,38.63-56.3,72.55a2,2,0,0,1-3.92-.23c2.07-35.81,55.68-73.92,58-75.53Z"/><path class="cls-2" d="M694.5,194a1.39,1.39,0,0,1-.44-.07,1.5,1.5,0,0,1-1-1.87c.09-.28,9-28.69,37.64-56.88A188.23,188.23,0,0,1,791,95.77c28.89-12,62.38-18.31,99.52-18.77a1.5,1.5,0,1,1,0,3c-83.09,1-131.57,31.67-157.6,57.2-28.21,27.66-36.9,55.46-37,55.74A1.52,1.52,0,0,1,694.5,194Z"/></g></g></svg>