<svg xmlns="http://www.w3.org/2000/svg" viewBox="0 0 1000 1000"><defs><style>.cls-1{fill:#1d1d1b;}.cls-2{fill:#ffcdb2;}.cls-3{fill:#6c32ad;}.cls-4{fill:#1d1f1c;}.cls-5{fill:#ffad00;}.cls-6{fill:#e89d00;}.cls-7{fill:#59298f;}.cls-8{fill:#fff;}.cls-9{fill:#ffb49f;}.cls-10{fill:#ffc140;}.cls-11{fill:#d9cfff;}.cls-12{fill:#1d1e1b;}.cls-13{fill:#835d07;}</style></defs><g id="cup"><g id="line"><path class="cls-1" d="M833,859H129a2,2,0,0,1,0-4H833a2,2,0,0,1,0,4Z"/><path class="cls-1" d="M887,895H779a2,2,0,0,1,0-4H887a2,2,0,0,1,0,4Z"/></g><g id="woman"><path class="cls-1" d="M748.82,470.84c-20.48,0-33.31-2.49-33.51-2.53a2,2,0,1,1,.78-3.92c.33.07,33.95,6.55,79.45-1.84,41.93-7.73,102.85-30.05,154.94-92.47a2,2,0,0,1,3.07,2.56c-23.35,28-50.41,50.44-80.4,66.73a259.65,259.65,0,0,1-77.06,27.15A263.42,263.42,0,0,1,748.82,470.84Z"/><path class="cls-2" d="M299,351s10,8,9,21-45,6-45,6Z"/><path class="cls-1" d="M299,351s10,8,9,21c-.48,6.26-10.93,7.88-21.64,7.88A171.38,171.38,0,0,1,263,378l36-27m.06-3.79-1.86,1.39-36,27-5.67,4.25,7,1.11a172.06,172.06,0,0,0,23.83,1.92c5.89,0,23.81,0,24.63-10.65,1.11-14.42-9.66-23.21-10.12-23.57l-1.81-1.45Z"/><path class="cls-3" d="M240.26,857S223.81,822.51,387,778l285.5,72.5-.68,6.5Z"/><path class="cls-4" d="M673.17,858.5H239.31l-.41-.85c-.08-.17-1.86-4,1.12-10.56,6-13.05,33-39.55,146.59-70.54l.38-.1.38.1,286.76,72.82Zm-431.78-3H670.47l.4-3.87L387,779.55c-112.09,30.62-138.5,56.24-144.26,68.79C241.13,851.87,241.19,854.3,241.39,855.5Z"/><path class="cls-5" d="M246.34,373.58l-1.42,17.36s-32,13.82-21.35,59.91,33.62,141.5,188.86,140.86c0,0-60.49,113.46-25.43,186.29q133.77,62.76,286.5,73.5s24.8-83.94,25-124,43.63-8,47.08-37.57S724.5,543.5,584.5,491.5c0,0-31.72,23.34-59-20,0,0-35-5-150.71,27.71-33.57,9.49-35-12.11-30.51-41.55s-3.56-56.82-35.23-71.74l-.95-13.44S292.8,383.56,246.34,373.58Z"/><path class="cls-1" d="M308.1,372.48l.95,13.44c31.67,14.92,39.7,42.3,35.23,71.74-3.74,24.66-3.37,43.82,16.58,43.82a51.81,51.81,0,0,0,13.93-2.27c88.63-25,129.9-28,144.37-28a52,52,0,0,1,6.34.27c13.13,20.87,27.29,26.28,38.45,26.28a37.67,37.67,0,0,0,20.55-6.28c140,52,164.53,168.91,161.08,198.43s-46.88-2.49-47.08,37.57-25,124-25,124Q520.67,841,387,778c-35.06-72.83,25.43-186.29,25.43-186.29h-1.55c-153.83,0-176.74-94.93-187.31-140.86-10.61-46.09,21.35-59.91,21.35-59.91l1.42-17.36c14.43,3.1,25.84,4.17,34.73,4.17,19.75,0,27-5.27,27-5.27m2.61-5.6L306.36,370c-.25.17-7.3,4.72-25.29,4.72a165.15,165.15,0,0,1-34.1-4.1l-3.34-.72-.28,3.41L242.07,389a44.73,44.73,0,0,0-14.24,12.83c-6.44,8.91-12.92,24.77-7.19,49.67,5,21.89,13.48,58.54,40.63,89C276,557.07,294.81,570,317.09,579c25.24,10.14,55.67,15.43,90.47,15.75a392.3,392.3,0,0,0-23.88,62c-6.3,22-9.83,42.63-10.5,61.34-.83,23.58,2.91,44.19,11.12,61.24l.46,1,1,.46a793.5,793.5,0,0,0,139,50A823.49,823.49,0,0,0,673.3,854.49l2.4.17.68-2.31c1-3.44,24.92-84.8,25.12-124.84.09-18.75,9.81-19.26,22.12-19.9,10.27-.54,23.06-1.2,24.94-17.33,1.82-15.61-3.9-53.17-27.14-92.66A235.58,235.58,0,0,0,671.16,538c-24.08-20.57-52.89-37.17-85.62-49.32l-1.51-.57-1.31,1a34.92,34.92,0,0,1-18.77,5.7c-13.44,0-25.52-8.37-35.91-24.88l-.74-1.17-1.38-.2a53.75,53.75,0,0,0-6.76-.3c-13.77,0-55.47,2.73-145.19,28.1a49.77,49.77,0,0,1-13.11,2.15c-5.11,0-8.77-1.38-11.2-4.2-5.92-6.88-4.54-22.15-2.41-36.17,5.23-34.47-7-60.07-35.33-74.14l-.83-11.71-.38-5.38Z"/><path class="cls-6" d="M311.28,387c-.73-.37-1.47-.75-2.23-1.1l-.95-13.44s-15.3,11.08-61.76,1.1l-1.42,17.36s-.5.21-1.35.68C262.36,397.22,291.1,401.86,311.28,387Z"/><path class="cls-5" d="M676.89,545.84c52.6,45.85,154.42,161.88,154.43,193.78s-22.05,37.66-22.05,37.66L814.08,801,737,835l-6.67-14.9s-32.85,1.66-41.61-26.56-28.34-138.17-51.27-158.4"/><path class="cls-1" d="M737,836.51a1.51,1.51,0,0,1-1.37-.88l-6.26-14c-5.79,0-34-1.53-42.09-27.64-2.25-7.26-5.25-20-8.73-34.86-10.11-43-25.38-108.11-42.09-122.86a1.5,1.5,0,1,1,2-2.25c17.43,15.38,32.84,81,43,124.43,3.46,14.75,6.46,27.5,8.68,34.65,8.31,26.76,38.82,25.58,40.11,25.52a1.49,1.49,0,0,1,1.44.88L737.74,833l74.63-32.94-4.57-22.52a1.5,1.5,0,0,1,1.09-1.75c.85-.23,21-5.94,20.93-36.21,0-31.42-103.24-148.48-153.92-192.65a1.5,1.5,0,0,1,2-2.26c52.35,45.63,154.94,162.15,155,194.91,0,28-16.86,36.7-21.82,38.64l4.55,22.43a1.5,1.5,0,0,1-.86,1.67l-77.1,34A1.62,1.62,0,0,1,737,836.51Z"/><path class="cls-6" d="M808,777.2a19.77,19.77,0,0,0,3.55-1.47c-19.23-2.49-63.28-2.7-81.09,42.88.78,0,1.23,0,1.23,0l6.44,14.4,74.52-32.89Z"/><path class="cls-2" d="M714.72,853.18s-7.31-31.82,24.36-45.68,65.33-16.83,86.11,0S848,845.11,842,859s-20.79,16.83-36.62,5.94c0,0-14.85,21.77-41.57,1,0,0-34.65,23.75-35.64-13.86Z"/><path d="M788.37,796c14.12,0,26.93,3.52,36.82,11.53C846,824.33,848,845.11,842,859c-3.5,8.16-10.09,12.55-18.15,12.55-5.62,0-12-2.14-18.47-6.61,0,0-6.81,10-19.49,10-6.06,0-13.45-2.28-22.08-9,0,0-10.8,7.4-20.5,7.4-7.69,0-14.7-4.64-15.14-21.26l-13.47,1.14s-7.31-31.82,24.36-45.68c16.6-7.26,33.74-11.53,49.29-11.53m0-2.68c-15.36,0-32.78,4.07-50.36,11.76-17.39,7.61-23.52,20.47-25.6,29.91a47,47,0,0,0-.3,18.82,2.67,2.67,0,0,0,2.61,2.07h.22l10.72-.9c1.32,17.29,10.22,21,17.67,21,8.19,0,16.83-4.67,20.37-6.82,7.62,5.58,15.09,8.41,22.21,8.41a27.25,27.25,0,0,0,20-9.1c6.07,3.76,12.23,5.73,17.92,5.73,9.24,0,16.75-5.16,20.61-14.17a41,41,0,0,0,1.74-26.34c-2.72-10.45-9.41-20.21-19.34-28.26s-22.9-12.13-38.51-12.13Z"/><path class="cls-3" d="M612.54,409.55s9.43,26.53,27.06,15.62,55.13-34.62,74.09-9.2,17.54,32,38.93,25.55,76.84,50.42,24.07,84.09C690.21,580.81,568,449.72,568,449.72l13-19.55Z"/><path d="M777,450.3c20.42,16.55,36.78,51.65-.3,75.31-57.21,36.52-130.06-8.49-172.82-43.15A386,386,0,0,1,568,449.72l13-19.55,31.54-20.62s3.4,9.55,9.92,14.83c4.35,3.53,10.09,5.16,17.14.79,16.15-10,49-30.75,69-14.57a29.54,29.54,0,0,1,5.11,5.37c9.71,13,14.08,21.1,18.9,25,4.59,3.72,9.6,3.67,20,.54,6.36-1.91,15.73,1.78,24.37,8.78m1.21-1.49c-9.57-7.76-19.33-11.17-26.13-9.13-10.08,3-14.35,3-18.27-.2-2.85-2.31-5.74-6.49-9.75-12.28-2.46-3.56-5.26-7.59-8.82-12.37a31.94,31.94,0,0,0-5.44-5.72c-9-7.33-21.57-8.35-37.23-3-12.77,4.33-25.13,12-33.3,17.05l-.67.42c-5.39,3.33-10.27,3.12-14.92-.65-6-4.89-9.28-13.9-9.32-14a2,2,0,0,0-.6-.85,1.77,1.77,0,0,0-.59-.32,1.94,1.94,0,0,0-1.67.21L580,428.57a1.89,1.89,0,0,0-.55.54l-13,19.55a1.93,1.93,0,0,0,.19,2.37A393.9,393.9,0,0,0,602.66,484c19.51,15.81,49.5,37.07,81.56,48.57,36.19,13,67.65,11.21,93.5-5.3,7.47-4.76,13.22-10.25,17.07-16.31a37,37,0,0,0,5.88-18c.45-8-1.71-16.6-6.24-24.83a67.36,67.36,0,0,0-16.23-19.3Z"/><path class="cls-7" d="M717.94,538.57c-53-74.66-132.91-94-132.91-94a34.69,34.69,0,0,0-10.56,11.75C594.29,475.74,656.53,532.15,717.94,538.57Z"/><circle class="cls-3" cx="617.07" cy="333.21" r="31.33"/><path d="M631.07,305.18a31.33,31.33,0,1,1-17.25-3.13,31.29,31.29,0,0,1,17.25,3.13m1.07-2.13a33.71,33.71,0,1,0,18.45,26.67,33.72,33.72,0,0,0-18.45-26.67Z"/><path class="cls-3" d="M500.68,393.16s-13.65-25.41,2-40.4,19.79-11.61,27.5-20.05S559.49,321.07,574,332c0,0,25.95-7.48,42.44,4.17s19.55,22.78,19.33,39,2.56,24.55,2.79,36-4.35,41.54-50.95,47.32S500.68,393.16,500.68,393.16Z"/><path d="M612.49,333.79a30.91,30.91,0,0,1,3.93,2.35c16.48,11.64,19.55,22.78,19.33,39s2.56,24.55,2.79,36-4.35,41.54-50.95,47.32c-10.36,1.29-20.42-1.23-29.79-5.92-32.75-16.41-57.12-59.39-57.12-59.39s-13.65-25.41,2-40.4,19.79-11.61,27.5-20.05c6.87-7.51,24.77-10.88,38.85-3.83a31.92,31.92,0,0,1,5,3.09s22.14-6.38,38.51,1.82m1.06-2.12c-15-7.54-34.21-3.51-39.08-2.29a35.33,35.33,0,0,0-4.41-2.62c-15.24-7.63-34.18-3.83-41.66,4.35-3.15,3.44-5.54,4.68-8.85,6.4-4.29,2.22-9.63,5-18.54,13.53-7,6.71-9.59,16.37-7.54,27.95a56,56,0,0,0,5.12,15.29l0,.05a202.43,202.43,0,0,0,16.48,23.85c9.44,11.86,24.33,27.82,41.63,36.49,10.65,5.33,21.13,7.41,31.15,6.16,20.78-2.58,35.81-10.16,44.68-22.52a45.43,45.43,0,0,0,8.36-27.21,122.65,122.65,0,0,0-1.26-13.91,142.05,142.05,0,0,1-1.53-22c.22-16.71-3-28.78-20.34-41a32.51,32.51,0,0,0-4.24-2.53Z"/><path d="M580.39,400.86l.1.05c13,5.12,30.54-2.69,31.28-3a1.19,1.19,0,0,0-1-2.17c-.17.08-17.35,7.73-29.43,3a1.19,1.19,0,0,0-1,2.16Z"/><path class="cls-8" d="M523.32,471.9s-20.82,6.6-7.82,24.6,31,9,31,9,30,29,42-11Z"/><path class="cls-1" d="M568.05,517.16c-9.93,0-19.2-7.54-21.85-9.9-4.07,1.61-20.09,6.5-31.92-9.88-4.16-5.77-5.48-11.11-3.92-15.85,2.59-7.84,12.1-10.93,12.5-11.06l.48-.15,67,23.23-.41,1.38c-3.7,12.34-9.52,19.62-17.29,21.65A18.24,18.24,0,0,1,568.05,517.16Zm-21.27-13.47.76.73c.13.12,12.88,12.27,24.36,9.26,6.41-1.68,11.36-7.81,14.74-18.24l-63.32-21.95c-1.77.67-8.3,3.47-10.11,9-1.24,3.78-.06,8.2,3.51,13.14,12.07,16.72,28.42,8.88,29.11,8.54Z"/><path class="cls-8" d="M584.68,393a35.46,35.46,0,0,0,9,3,1.17,1.17,0,0,0,1.39-.93,1.19,1.19,0,0,0-.93-1.4c-26.88-5.37-24.89-34-24.8-35.19a1.18,1.18,0,1,0-2.36-.19C566.93,358.53,565.18,383.18,584.68,393Z"/><path d="M658,320.4a1.27,1.27,0,0,0,.39.12,1.18,1.18,0,0,0,1.32-1c.94-7.59-.6-14-4.58-19.06-7-8.89-18.93-10.36-19.44-10.42a1.18,1.18,0,0,0-1.31,1,1.19,1.19,0,0,0,1,1.32c.11,0,11.48,1.43,17.86,9.55,3.56,4.53,4.93,10.35,4.07,17.27A1.19,1.19,0,0,0,658,320.4Z"/><path class="cls-8" d="M639.49,334.74a1.18,1.18,0,0,0,1.72-1.1c-.24-8.1-2.8-14.26-7.6-18.3-7.78-6.54-18.52-5.09-19-5a1.2,1.2,0,0,0-1,1.35,1.18,1.18,0,0,0,1.34,1c.1,0,10.17-1.35,17.12,4.51,4.26,3.59,6.52,9.15,6.75,16.55A1.16,1.16,0,0,0,639.49,334.74Z"/><path class="cls-2" d="M537.47,459.43,525,472s5,44,60,22c0,0-4.41-25.27,1.39-61.2,0,0,15.6,3.15,19-10.56s-5.94-20.38-13.5-19.59c0,0-30.86,6.08-33.28-53.81,0,0-29.66-.72-46.29,23s-24.71,56-8.58,73.43S537.47,459.43,537.47,459.43Z"/><path class="cls-1" d="M558.27,348.84h.29c2,49.78,23.68,54,30.93,54a13.68,13.68,0,0,0,2.35-.17c.4,0,.81-.06,1.21-.06,7.29,0,15.46,6.67,12.29,19.65-2.29,9.4-10.34,10.88-15.18,10.88a20.58,20.58,0,0,1-3.77-.32C580.59,468.73,585,494,585,494c-11,4.4-20,6.16-27.36,6.16C528.2,500.16,525,472,525,472l12.47-12.57a21.92,21.92,0,0,1-3.48.23c-5.94,0-18.52-1.72-30.3-14.42-16.13-17.42-8-49.76,8.58-73.44,15.66-22.31,42.9-23,46-23m0-3c-3.22,0-31.92.68-48.45,24.24-8.92,12.7-15,27-17.08,40.32-2.42,15.33.61,28.08,8.75,36.87,10.41,11.24,21.44,14.45,28.74,15.2l-7.36,7.42-1,1,.16,1.43a39.92,39.92,0,0,0,5.73,15.35c4.49,7.06,13.32,15.47,29.89,15.47,8.32,0,17.9-2.14,28.47-6.37l2.26-.91-.41-2.4c-.05-.24-4-23.93,1-57.39.39,0,.8,0,1.24,0,9.46,0,16.05-4.8,18.09-13.17,2.11-8.65-.36-14.19-2.82-17.31a15.86,15.86,0,0,0-12.38-6.05c-.5,0-1,0-1.52.07l-.13,0-.14,0h0a11.09,11.09,0,0,1-1.77.12c-3.2,0-9.44-.95-15.2-7.33-7.62-8.42-11.9-23.15-12.73-43.77l-.12-2.8-2.81-.07Z"/><path d="M536,461.41a1.09,1.09,0,0,0,.36.12c13.23,1.9,27.42-5.91,28-6.25a1.19,1.19,0,1,0-1.16-2.07c-.14.08-14.09,7.75-26.52,6a1.18,1.18,0,0,0-.7,2.23Z"/><path d="M589,426.86a1.19,1.19,0,0,0,1.22-.09c4.92-3.48,7.31-7.1,7.1-10.76-.3-5.27-5.91-8.41-6.15-8.54a1.18,1.18,0,0,0-1.62.47,1.2,1.2,0,0,0,.47,1.61c.08.05,4.71,2.66,4.93,6.6.15,2.79-1.9,5.71-6.1,8.68a1.18,1.18,0,0,0,.15,2Z"/><path class="cls-9" d="M540.69,387.17c13.85,8.29,36.22,8.63,37.85,15.14s-3.44,12.77-12.14,11.77-16.64-4-32.63-10.92-31.14-14.89-26.26-23S520.33,375,540.69,387.17Z"/><path d="M526.71,371.55a1.14,1.14,0,0,0,1,0h0c.07,0,6.57-2.72,11.54.27a1.2,1.2,0,0,0,1.63-.41,1.19,1.19,0,0,0-.41-1.63c-6-3.59-13.37-.55-13.68-.42a1.18,1.18,0,0,0-.63,1.56A1.12,1.12,0,0,0,526.71,371.55Z"/><path d="M526.27,412.28a1.2,1.2,0,0,0,1.46-.33l16.18-20.47A1.19,1.19,0,0,0,542,390l-16.17,20.47a1.19,1.19,0,0,0,.19,1.67Z"/><circle class="cls-5" cx="592.42" cy="434.89" r="5.13"/><path d="M594.72,430.3a5.12,5.12,0,1,1-2.83-.52,5.13,5.13,0,0,1,2.83.52m1.06-2.13a7.51,7.51,0,1,0,4.11,5.94,7.47,7.47,0,0,0-4.11-5.94Z"/><path d="M556.71,378.71a1.15,1.15,0,0,0,.93.05h0c1.05-.37,4.32-1.16,5.57.15a1.19,1.19,0,0,0,1.71-1.66c-2.54-2.62-7.53-.93-8.09-.72a1.19,1.19,0,0,0-.12,2.18Z"/><path class="cls-1" d="M543,439.5a1.5,1.5,0,0,1-.19-3,11,11,0,0,0,5.75-2.52c-8.88,2.77-18.75-2.39-19.27-2.67a1.5,1.5,0,0,1,1.42-2.64c.14.07,14.13,7.36,22.23-.74a1.5,1.5,0,0,1,2.46,1.59c-.13.36-3.42,8.86-12.21,10Z"/><path class="cls-1" d="M530,394.5a1.49,1.49,0,0,1-1.49-1.36,7.05,7.05,0,0,0-2.72-5.41c-3.54-2.57-9.4-1.28-9.46-1.27a1.5,1.5,0,0,1-.67-2.92c.3-.07,7.22-1.62,11.88,1.76a9.92,9.92,0,0,1,4,7.56,1.49,1.49,0,0,1-1.35,1.63Z"/><path class="cls-1" d="M566,410.5a1.49,1.49,0,0,1-1.49-1.36,7.05,7.05,0,0,0-2.72-5.41c-3.54-2.57-9.4-1.28-9.46-1.27a1.5,1.5,0,0,1-.67-2.92c.3-.07,7.22-1.62,11.88,1.76a9.92,9.92,0,0,1,4,7.56,1.49,1.49,0,0,1-1.35,1.63Z"/><path class="cls-1" d="M805.5,866a1.67,1.67,0,0,1-.49-.08,1.51,1.51,0,0,1-.93-1.91c9.57-27.74-9.39-45.22-9.58-45.39a1.5,1.5,0,1,1,2-2.24c.21.19,20.62,19,10.42,48.61A1.51,1.51,0,0,1,805.5,866Z"/><path class="cls-1" d="M763.5,867a1.4,1.4,0,0,1-.56-.11,1.5,1.5,0,0,1-.83-1.95c5.72-14.29-2-36.72-2-37a1.5,1.5,0,0,1,2.84-1c.33,1,8.11,23.7,2,39A1.5,1.5,0,0,1,763.5,867Z"/><path class="cls-1" d="M728.26,855.15a1.49,1.49,0,0,1-1.42-1c-.16-.48-3.93-11.88.36-19.37a1.5,1.5,0,1,1,2.6,1.48c-3.62,6.35-.15,16.83-.12,16.93a1.51,1.51,0,0,1-.94,1.91A1.59,1.59,0,0,1,728.26,855.15Z"/><circle class="cls-10" cx="321.13" cy="432.96" r="5.43"/><circle class="cls-10" cx="266.13" cy="476.96" r="5.43"/><circle class="cls-10" cx="311.13" cy="550.96" r="5.43"/><circle class="cls-10" cx="416.13" cy="508.96" r="5.43"/><circle class="cls-10" cx="402.13" cy="567.96" r="5.43"/><circle class="cls-10" cx="520.13" cy="538.96" r="5.43"/><circle class="cls-10" cx="464.13" cy="609.96" r="5.43"/><circle class="cls-10" cx="563.13" cy="634.96" r="5.43"/><circle class="cls-10" cx="428.13" cy="720.96" r="5.43"/><circle class="cls-10" cx="514.13" cy="701.96" r="5.43"/><circle class="cls-10" cx="597.13" cy="792.96" r="5.43"/><circle class="cls-10" cx="509.13" cy="782.96" r="5.43"/><circle class="cls-10" cx="620.13" cy="701.96" r="5.43"/><circle class="cls-10" cx="629.13" cy="563.96" r="5.43"/><circle class="cls-10" cx="761.13" cy="653.96" r="5.43"/><circle class="cls-10" cx="693.13" cy="621.96" r="5.43"/><circle class="cls-10" cx="706.13" cy="738.96" r="5.43"/><circle class="cls-10" cx="795.13" cy="736.96" r="5.43"/><path class="cls-8" d="M834.5,863.5a3.19,3.19,0,0,1-1-.15,3,3,0,0,1-1.9-3.8c4-12,3.74-22.55-.75-31.46-7.26-14.38-23.17-19.68-23.33-19.74a3,3,0,1,1,1.86-5.7c.75.24,18.45,6.15,26.82,22.74,5.24,10.38,5.61,22.51,1.1,36.06A3,3,0,0,1,834.5,863.5Z"/><path class="cls-1" d="M405.08,606.33a1.65,1.65,0,0,1-.57-.11,1.51,1.51,0,0,1-.82-2c9-22,33.82-58.73,34.07-59.1a1.5,1.5,0,1,1,2.48,1.68c-.25.37-24.86,36.79-33.77,58.56A1.5,1.5,0,0,1,405.08,606.33Z"/><path class="cls-8" d="M795.5,704.5a3,3,0,0,1-2.58-1.47c-25.53-43.21-88-109.81-88.61-110.48a3,3,0,1,1,4.38-4.1c.63.67,63.52,67.74,89.39,111.52a3,3,0,0,1-1.05,4.11A2.94,2.94,0,0,1,795.5,704.5Z"/><path class="cls-1" d="M808,513.53l-2.66,0c-31.89-.41-52.81-7.59-53.68-7.9a2,2,0,0,1,1.32-3.78c.21.08,21.29,7.31,52.57,7.68a210.25,210.25,0,0,0,116.68-33.74,2,2,0,0,1,2.17,3.36A214.16,214.16,0,0,1,808,513.53Z"/><path class="cls-1" d="M263,602a1.91,1.91,0,0,1-.74-.14c-33.18-13.17-49.16-36.88-56.72-54.44-8.19-19-8.53-34.73-8.54-35.39a2,2,0,0,1,2-2h0a2,2,0,0,1,2,2,100,100,0,0,0,8.28,34c7.27,16.82,22.62,39.53,54.46,52.16A2,2,0,0,1,263,602Z"/><path class="cls-1" d="M848,765a2,2,0,0,1-1.79-2.89c20-40-24-74.18-24.42-74.52a2,2,0,0,1,2.42-3.18,97.21,97.21,0,0,1,20.85,23.27c12,18.94,13.65,38.38,4.73,56.21A2,2,0,0,1,848,765Z"/><path class="cls-1" d="M204,819a2,2,0,0,1-1.23-.43,2,2,0,0,1-.35-2.8c.38-.48,9.41-11.9,27-23.32A139.78,139.78,0,0,1,308,770a2,2,0,0,1,0,4h0c-66.19-.94-102,43.78-102.4,44.23A2,2,0,0,1,204,819Z"/></g><g id="stars"><path class="cls-11" d="M562.28,228.48l-4.38-4.8A5.42,5.42,0,0,0,555,222l-6.37-1.33a5.43,5.43,0,0,1-3.6-8l3.22-5.65a5.45,5.45,0,0,0,.67-3.26l-.7-6.46a5.42,5.42,0,0,1,6.48-5.89l6.37,1.3a5.38,5.38,0,0,0,3.31-.36l5.93-2.66a5.42,5.42,0,0,1,7.61,4.34l.72,6.46a5.51,5.51,0,0,0,1.37,3l4.37,4.82a5.42,5.42,0,0,1-1.78,8.57l-5.92,2.69a5.42,5.42,0,0,0-2.47,2.24L571,227.53A5.42,5.42,0,0,1,562.28,228.48Z"/><path class="cls-12" d="M566.26,231.75a6.84,6.84,0,0,1-5.08-2.25l-4.39-4.81a3.9,3.9,0,0,0-2.09-1.19l-6.36-1.34a6.92,6.92,0,0,1-4.6-10.19l3.21-5.65a3.89,3.89,0,0,0,.49-2.36l-.7-6.46A6.92,6.92,0,0,1,555,190l6.37,1.3a3.88,3.88,0,0,0,2.4-.26l5.93-2.66a6.92,6.92,0,0,1,9.71,5.54l.72,6.47a4,4,0,0,0,1,2.19l4.37,4.82a6.93,6.93,0,0,1-2.27,11L577.31,221a3.91,3.91,0,0,0-1.79,1.62l-3.23,5.64a6.87,6.87,0,0,1-5.25,3.44A6.79,6.79,0,0,1,566.26,231.75Zm-2.87-4.28a3.93,3.93,0,0,0,6.3-.69l3.23-5.64a6.88,6.88,0,0,1,3.15-2.86l5.92-2.69a3.91,3.91,0,0,0,1.28-6.2l-4.36-4.82a6.92,6.92,0,0,1-1.75-3.87l-.72-6.46a3.92,3.92,0,0,0-5.5-3.14L565,193.76a6.91,6.91,0,0,1-4.23.46l-6.37-1.3a3.91,3.91,0,0,0-4.68,4.25l.69,6.47a6.87,6.87,0,0,1-.86,4.16l-3.21,5.66a3.92,3.92,0,0,0,2.6,5.77l6.37,1.33a6.89,6.89,0,0,1,3.69,2.11Z"/><path class="cls-11" d="M870.28,609.48l-4.38-4.8A5.42,5.42,0,0,0,863,603l-6.37-1.33a5.43,5.43,0,0,1-3.6-8l3.22-5.65a5.45,5.45,0,0,0,.67-3.26l-.7-6.46a5.42,5.42,0,0,1,6.48-5.89l6.37,1.3a5.38,5.38,0,0,0,3.31-.36l5.93-2.66a5.42,5.42,0,0,1,7.61,4.34l.72,6.46a5.51,5.51,0,0,0,1.37,3l4.37,4.82a5.42,5.42,0,0,1-1.78,8.57l-5.92,2.69a5.42,5.42,0,0,0-2.47,2.24L879,608.53A5.42,5.42,0,0,1,870.28,609.48Z"/><path class="cls-12" d="M874.26,612.75a6.84,6.84,0,0,1-5.08-2.25l-4.39-4.81a3.9,3.9,0,0,0-2.09-1.19l-6.36-1.34a6.92,6.92,0,0,1-4.6-10.19l3.21-5.65a3.89,3.89,0,0,0,.49-2.36l-.7-6.46A6.92,6.92,0,0,1,863,571l6.37,1.3a3.88,3.88,0,0,0,2.4-.26l5.93-2.66a6.92,6.92,0,0,1,9.71,5.54l.72,6.47a4,4,0,0,0,1,2.19l4.37,4.82a6.93,6.93,0,0,1-2.27,11L885.31,602a3.91,3.91,0,0,0-1.79,1.62l-3.23,5.64a6.87,6.87,0,0,1-5.25,3.44A6.79,6.79,0,0,1,874.26,612.75Zm-2.87-4.28a3.82,3.82,0,0,0,3.32,1.25,3.86,3.86,0,0,0,3-1.94l3.23-5.64a6.88,6.88,0,0,1,3.15-2.86l5.92-2.69a3.91,3.91,0,0,0,1.28-6.2l-4.36-4.82a6.92,6.92,0,0,1-1.75-3.87l-.72-6.46a3.92,3.92,0,0,0-5.5-3.14L873,574.76a6.91,6.91,0,0,1-4.23.46l-6.37-1.3a3.91,3.91,0,0,0-4.68,4.25l.69,6.47a6.87,6.87,0,0,1-.86,4.16l-3.21,5.66a3.92,3.92,0,0,0,2.6,5.77l6.37,1.33a6.89,6.89,0,0,1,3.69,2.11Z"/><path class="cls-11" d="M881.8,183.45l-11.19-.74a9.38,9.38,0,0,0-5.56,1.39L855.54,190a9.34,9.34,0,0,1-14-5.63l-2.75-10.87a9.34,9.34,0,0,0-3-4.86l-8.58-7.21a9.34,9.34,0,0,1,1-15.05l9.49-6a9.32,9.32,0,0,0,3.68-4.4l4.2-10.39A9.34,9.34,0,0,1,860.19,122l8.61,7.17a9.4,9.4,0,0,0,5.32,2.14l11.19.79a9.33,9.33,0,0,1,8,12.78l-4.16,10.41a9.41,9.41,0,0,0-.39,5.72l2.71,10.88A9.34,9.34,0,0,1,881.8,183.45Z"/><path class="cls-12" d="M850.62,193a10.92,10.92,0,0,1-10.54-8.19l-2.75-10.87a7.78,7.78,0,0,0-2.56-4.08l-8.58-7.21a10.84,10.84,0,0,1,1.19-17.47l9.49-6a7.8,7.8,0,0,0,3.09-3.69l4.2-10.39a10.85,10.85,0,0,1,17-4.27l8.61,7.18a7.81,7.81,0,0,0,4.47,1.79l11.18.79a10.85,10.85,0,0,1,9.31,14.84l-4.16,10.41a7.73,7.73,0,0,0-.33,4.8l2.71,10.88a10.84,10.84,0,0,1-11.24,13.43l-11.19-.74a7.87,7.87,0,0,0-4.67,1.18l-9.5,5.93A10.79,10.79,0,0,1,850.62,193Zm3.62-71.66a8.11,8.11,0,0,0-1.94.24,7.73,7.73,0,0,0-5.36,4.66l-4.2,10.39a10.79,10.79,0,0,1-4.27,5.11l-9.49,6a7.84,7.84,0,0,0-.86,12.64l8.58,7.2a10.79,10.79,0,0,1,3.54,5.64L843,184a7.85,7.85,0,0,0,11.76,4.73l9.51-5.94a10.78,10.78,0,0,1,6.45-1.62l11.19.74a7.83,7.83,0,0,0,8.12-9.72l-2.7-10.87a10.74,10.74,0,0,1,.45-6.65l4.16-10.41a7.85,7.85,0,0,0-6.73-10.73L874,132.79a10.76,10.76,0,0,1-6.18-2.49l-8.61-7.17A7.75,7.75,0,0,0,854.24,121.31Z"/><path class="cls-1" d="M828,119a1.93,1.93,0,0,1-.7-.13,2,2,0,0,1-1.17-2.57c.23-.62,5.85-15.26,18-18.43,7.2-1.87,15,.68,23.16,7.6a2,2,0,1,1-2.58,3.06c-7.12-6-13.7-8.31-19.56-6.79-10.14,2.63-15.23,15.83-15.28,16A2,2,0,0,1,828,119Z"/><path class="cls-1" d="M894,202a2,2,0,0,1-.29-4c6.95-1,11.44-3.59,13.34-7.6,3.59-7.58-2.7-18.29-2.77-18.39a2,2,0,0,1,3.43-2.06c.31.51,7.46,12.63,3,22.15-2.51,5.3-8,8.62-16.38,9.86Z"/></g><g id="cup-2" data-name="cup"><path class="cls-11" d="M295.49,233.8a4.5,4.5,0,0,1-4.43-3.76c-5.66-34.12.6-65.86,15.23-77.17,5.55-4.3,12-5.18,18-2.48,21,9.34,15.52,39.18,15.28,40.44a4.5,4.5,0,0,1-8.84-1.7c.05-.27,4.38-24.08-10.1-30.52-3-1.35-5.94-.9-8.88,1.37-10,7.73-17.53,34.39-11.85,68.58a4.5,4.5,0,0,1-3.7,5.18A4.74,4.74,0,0,1,295.49,233.8Z"/><path class="cls-12" d="M295.49,235.3a6,6,0,0,1-5.91-5c-5.75-34.64.74-67,15.79-78.6,6-4.65,13-5.6,19.57-2.66,22.12,9.83,16.4,40.79,16.14,42.1a6,6,0,0,1-7,4.75,6,6,0,0,1-4.75-7c0-.22,4.12-22.93-9.24-28.87-2.52-1.12-4.85-.74-7.35,1.19-9.64,7.46-16.87,33.53-11.29,67.15a6,6,0,0,1-4.94,6.9A6.61,6.61,0,0,1,295.49,235.3Zm21.84-84.94a16.48,16.48,0,0,0-10.13,3.69c-14.21,11-20.24,42.14-14.66,75.74a3,3,0,0,0,3.45,2.47,3,3,0,0,0,2.47-3.45c-5.77-34.77,2.09-62,12.41-70,3.37-2.61,6.88-3.13,10.41-1.56,15.57,6.92,11,31.92,11,32.18a3,3,0,0,0,4.62,3.05,3,3,0,0,0,1.27-1.92c.23-1.22,5.54-29.92-14.42-38.79A15.63,15.63,0,0,0,317.33,150.36Z"/><path class="cls-11" d="M395.28,336.27a4.51,4.51,0,0,0,3.53,4.63c33.77,7.46,65.79,2.89,77.86-11.12,4.59-5.32,5.81-11.68,3.43-17.89-8.22-21.49-38.3-17.58-39.58-17.4a4.5,4.5,0,0,0,1.23,8.92c.28,0,24.29-3.1,29.95,11.7,1.19,3.1.58,6-1.84,8.79-8.24,9.56-35.26,15.69-69.11,8.21a4.51,4.51,0,0,0-5.37,3.42A6.55,6.55,0,0,0,395.28,336.27Z"/><path class="cls-12" d="M430.07,345.93a147.48,147.48,0,0,1-31.59-3.57,6,6,0,0,1-4.69-6.17,5.38,5.38,0,0,1,.13-1,6,6,0,0,1,7.15-4.57c33.28,7.35,59.69,1.5,67.65-7.73,2.06-2.39,2.56-4.7,1.58-7.28C465.07,302,442.18,304.86,442,304.89a6,6,0,0,1-6.75-5.12,5.9,5.9,0,0,1,1.15-4.44,6,6,0,0,1,4-2.32c1.32-.19,32.54-4.26,41.18,18.35,2.59,6.75,1.27,13.64-3.69,19.4C469.34,340.58,451.46,345.93,430.07,345.93Zm-30.3-12.43a2.94,2.94,0,0,0-1.61.48,3,3,0,0,0-1.31,1.88,2.63,2.63,0,0,0-.07.49h0a3,3,0,0,0,2.35,3.08c33.26,7.35,64.68,3,76.41-10.63,4.21-4.88,5.33-10.7,3.16-16.37C470.9,292,442,295.81,440.73,296a3,3,0,1,0,.82,5.94c.25,0,25.46-3.27,31.55,12.65,1.38,3.62.67,7.09-2.11,10.31-8.52,9.89-36.15,16.3-70.57,8.7A2.82,2.82,0,0,0,399.77,333.5Z"/><path class="cls-5" d="M258.45,436.73l-20-20.16a167.56,167.56,0,0,0-29.65-29.93l-20-20.16-8.43,8.35,0,0a4.22,4.22,0,0,0-.51.42c-5.43,5.38,5.74,25.47,25,44.87s39.19,30.76,44.62,25.38A4.15,4.15,0,0,0,250,445l0,.05Z"/><path class="cls-1" d="M245.66,448.38c-3.51,0-8.23-1.66-14-4.93-8.55-4.86-18.42-12.76-27.81-22.24s-17.19-19.42-22-28-6-15-3.53-18.33h0l0,0a4.31,4.31,0,0,1,.52-.6l.26-.24.21-.23,9.5-9.4,21,21.15a170.94,170.94,0,0,1,29.79,30.07l20.95,21.16L250,447.19l-.05,0A7.12,7.12,0,0,1,245.66,448.38Zm-63.1-73.55.19.19-1.41,1.07a3.88,3.88,0,0,0-.31.26c-2,2-.68,7.9,3.48,15.39,4.66,8.36,12.28,18.08,21.48,27.36s18.85,17,27.16,21.74c7.45,4.24,13.34,5.63,15.35,3.63a2.73,2.73,0,0,0,.27-.31l1-1.43.23.23,6.3-6.24-19-19.25a160.18,160.18,0,0,0-13.76-15.74,161.35,161.35,0,0,0-15.61-13.91l-.15-.13L188.86,368.6Z"/><ellipse class="cls-11" cx="224.13" cy="401.14" rx="13.84" ry="49.44" transform="translate(-217.41 273.88) rotate(-44.73)"/><path class="cls-12" d="M255,439.1c-3.51,0-8.23-1.66-14-4.93-8.54-4.86-18.42-12.76-27.8-22.23s-17.19-19.43-22-28c-5.14-9.25-6.18-15.81-3-19s9.74-2.07,18.94,3.16c8.54,4.86,18.42,12.75,27.81,22.23s17.19,19.43,22,28c5.14,9.24,6.17,15.8,3,19h0A6.77,6.77,0,0,1,255,439.1Zm-61.82-72.92a3.91,3.91,0,0,0-2.82.9c-2,2-.68,7.89,3.49,15.38,4.65,8.36,12.28,18.08,21.48,27.36s18.84,17,27.16,21.74c7.45,4.24,13.33,5.63,15.35,3.64h0c2-2,.67-7.89-3.5-15.39-4.65-8.35-12.27-18.07-21.47-27.36s-18.85-17-27.16-21.73C200.53,367.76,196.1,366.18,193.21,366.18Z"/><path class="cls-11" d="M245.22,426.47c-17.51-10.92-33.8-23.83-45.34-44.41a4.52,4.52,0,0,1,4.4-6.7c23.3,1.94,60.29-21.38,76.23-68.11l41.76,40.28c-50.59,14.92-72.37,48.22-70.72,75.16A4.14,4.14,0,0,1,245.22,426.47Z"/><path class="cls-12" d="M247.42,428.61a5.69,5.69,0,0,1-3-.86h0C228.72,418,211,405,198.57,382.8a5.93,5.93,0,0,1,.18-6.17,6.13,6.13,0,0,1,5.66-2.77c24.2,2,59.66-23.06,74.68-67.1l.76-2.23,45.32,43.71-2.48.73c-50.31,14.84-71.23,47.67-69.64,73.63a5.66,5.66,0,0,1-5.63,6ZM246,425.2a2.6,2.6,0,0,0,2.75,0,2.63,2.63,0,0,0,1.29-2.46c-1.64-26.71,19.2-60.3,69.33-75.94L281.15,310c-15.3,42.32-49.31,67-74.06,67-1,0-2,0-2.93-.12a3.08,3.08,0,0,0-2.88,1.4,2.94,2.94,0,0,0-.09,3.08c12.09,21.56,29.44,34.27,44.83,43.87Z"/><path class="cls-5" d="M276.81,195.43h150.3a0,0,0,0,1,0,0v92.29A75.15,75.15,0,0,1,352,362.87h0a75.15,75.15,0,0,1-75.15-75.15V195.43A0,0,0,0,1,276.81,195.43Z" transform="translate(302.59 -167.35) rotate(45.27)"/><path class="cls-1" d="M345.87,361.79a76.38,76.38,0,0,1-54.45-22.67h0a76.63,76.63,0,0,1,.51-108.39l66.63-66L466.44,273.63l-66.63,66A76.4,76.4,0,0,1,345.87,361.79ZM293.55,337a73.12,73.12,0,0,0,52,21.82h.36A73.16,73.16,0,0,0,397.7,337.5l64.5-63.89L358.54,169,294,232.86A73.73,73.73,0,0,0,293.55,337Z"/><ellipse class="cls-5" cx="414.48" cy="216.28" rx="30.65" ry="94.27" transform="translate(-32.19 354.32) rotate(-44.73)"/><path class="cls-1" d="M471,288.15c-6.73,0-15.44-2.66-25.65-7.92-16.78-8.65-35.84-23.32-53.67-41.32s-32.32-37.19-40.8-54c-8.74-17.35-10.07-30.35-3.75-36.61s19.3-4.8,36.57,4.09c16.78,8.65,35.84,23.32,53.67,41.32s32.32,37.19,40.8,54.05c8.73,17.35,10.07,30.35,3.75,36.61C479.3,286.88,475.6,288.15,471,288.15ZM358,147.42c-3.82,0-6.82,1-8.82,3-5.24,5.19-3.67,17.27,4.32,33.13,8.34,16.59,22.64,35.51,40.25,53.29s36.4,32.26,52.91,40.76c15.79,8.13,27.84,9.82,33.09,4.63h0c5.24-5.19,3.67-17.27-4.32-33.13-8.35-16.59-22.64-35.51-40.25-53.29S398.79,163.51,382.29,155C372.53,150,364.2,147.42,358,147.42Z"/><ellipse class="cls-13" cx="416.59" cy="214.2" rx="11.87" ry="72.56" transform="translate(-30.12 355.2) rotate(-44.73)"/><path class="cls-1" d="M465.76,267.85c-10.8,0-39.86-25.27-58.66-44.25-13.7-13.82-25.7-27.7-33.8-39.08-13.22-18.58-9.92-21.86-8.83-22.94s4.4-4.35,22.86,9c11.3,8.2,25.06,20.34,38.76,34.16,21,21.15,49.59,55.12,42.62,62h0A4,4,0,0,1,465.76,267.85ZM367.57,163.44a1.44,1.44,0,0,0-1,.27c-.89.89-.13,6,9.17,19.07,8,11.25,19.89,25,33.48,38.71s27.22,25.74,38.39,33.85c13,9.42,18.08,10.23,19,9.34s.13-6-9.16-19.07c-8-11.25-19.9-25-33.48-38.71s-27.22-25.73-38.4-33.84C375,165.42,369.69,163.44,367.57,163.44Z"/><path class="cls-8" d="M357.1,348.83a31.4,31.4,0,0,1-11.16-2,3,3,0,1,1,2.12-5.62c34.29,13,77-55.08,77.39-55.77a3,3,0,0,1,5.1,3.16C428.88,291.28,392.76,348.83,357.1,348.83Z"/><path class="cls-1" d="M295,243a2,2,0,0,1-1.26-.45c-24.59-20-38.37-57.35-39.86-108A363.62,363.62,0,0,1,259,63.62a2,2,0,1,1,3.92.76,360.13,360.13,0,0,0-5.08,70.13c1,34.46,8.51,80.63,38.38,104.94A2,2,0,0,1,295,243Z"/><path class="cls-1" d="M289,263l-.35,0c-21.47-3.79-40.67-20.18-55.53-47.39a189.44,189.44,0,0,1-16.06-40.1,2,2,0,1,1,3.88-1c.19.76,19.29,75.84,68.41,84.51a2,2,0,0,1-.35,4Z"/></g><g id="hand"><path class="cls-2" d="M216,372s-17.24-4.37-11.1-34.72,21.27-56.56,44.3-63.14,39.29,2.65,46.39,14.14,1.65,23.89-14.48,29.91c0,0,8.33,22.08-20.66,31,0,0-.41,37.62-28.49,19Z"/><path class="cls-1" d="M264,271.94c15.21,0,26.09,7.5,31.55,16.34,7.11,11.48,1.65,23.89-14.48,29.91,0,0,8.33,22.08-20.66,31,0,0-.26,24.17-14.83,24.17-3.61,0-8.09-1.48-13.66-5.17L216,372s-17.24-4.37-11.1-34.72,21.27-56.56,44.3-63.14a54,54,0,0,1,14.84-2.2m0-3a57.36,57.36,0,0,0-15.67,2.31c-11.69,3.34-21.84,11.38-30.16,23.88-7.38,11.1-13,25.47-16.25,41.55-2.72,13.45-1.45,23.91,3.76,31.1a18.26,18.26,0,0,0,9.54,7.13l.72.18.72-.17,14.71-3.53c5.24,3.29,10,5,14.21,5,5.16,0,12.08-2.46,15.74-14.19a49.66,49.66,0,0,0,2-10.77c9.54-3.31,16.07-8.44,19.42-15.28A25.39,25.39,0,0,0,284.68,320c8.11-3.59,13.72-9,15.93-15.46,2-5.82,1.14-12-2.46-17.81-6.88-11.12-19.63-17.76-34.11-17.76Z"/><path d="M281,319.5a1.49,1.49,0,0,1-1.25-.67c-15.24-22.85-42.12-16.44-42.39-16.37a1.5,1.5,0,0,1-.72-2.92c.29-.07,29.21-7,45.61,17.63a1.5,1.5,0,0,1-.42,2.08A1.47,1.47,0,0,1,281,319.5Z"/><path d="M260.5,351l-.26,0c-28.45-5.08-34.84-18.29-35.1-18.85a1.5,1.5,0,0,1,2.72-1.26c.09.19,6.26,12.39,32.9,17.15a1.5,1.5,0,0,1-.26,3Z"/><path class="cls-8" d="M295.5,300a2.5,2.5,0,0,1-2.18-1.28c-17.59-31.48-47.36-15.71-48.62-15a2.5,2.5,0,0,1-2.4-4.38c.35-.2,35.41-18.78,55.38,17a2.49,2.49,0,0,1-1,3.4A2.45,2.45,0,0,1,295.5,300Z"/></g></g></svg>