<?xml version="1.0" encoding="utf-8"?>
<!-- Generator: Adobe Illustrator 24.1.2, SVG Export Plug-In . SVG Version: 6.00 Build 0)  -->
<svg version="1.1" id="goods_1_" xmlns="http://www.w3.org/2000/svg" xmlns:xlink="http://www.w3.org/1999/xlink" x="0px" y="0px"
	 viewBox="0 0 1000 1000" style="enable-background:new 0 0 1000 1000;" xml:space="preserve">
<style type="text/css">
	.st0{fill:#1D1D1B;}
	.st1{fill:#6C32AD;}
	.st2{fill:#1D1E1B;}
	.st3{fill:#D9CFFF;}
	.st4{fill:#FFAD00;}
	.st5{fill:#FFCDB2;}
	.st6{fill:#E89D00;}
	.st7{fill:#59298F;}
	.st8{fill:#FFFFFF;}
	.st9{fill:#FFB49F;}
	.st10{fill:#FFC140;}
	.st11{fill:none;}
</style>
<g id="line">
	<path class="st0" d="M924.4,853.2H184.6c-1.1,0-2-0.9-2-2s0.9-2,2-2h739.8c1.1,0,2,0.9,2,2S925.5,853.2,924.4,853.2z"/>
	<path class="st0" d="M981.2,891H867.7c-1.1,0-2-0.9-2-2s0.9-2,2-2h113.5c1.1,0,2,0.9,2,2S982.3,891,981.2,891z"/>
	<path class="st0" d="M241.3,817.4H127.8c-1.1,0-2-0.9-2-2s0.9-2,2-2h113.5c1.1,0,2,0.9,2,2S242.4,817.4,241.3,817.4z"/>
</g>
<g id="woman">
	<path class="st1" d="M876.1,851.7V256.9c0-29.3-23.8-53.1-53.1-53.1H513c-29.3,0-53.1,23.8-53.1,53.1l0,0v594.8H876.1z"/>
	<path class="st2" d="M877.6,853.2H458.4V256.9c0-30.1,24.4-54.6,54.6-54.6h310c30.1,0,54.6,24.5,54.6,54.6L877.6,853.2z
		 M461.4,850.2h413.1V256.9c0-28.5-23.1-51.5-51.6-51.6H513c-28.5,0-51.6,23.1-51.6,51.6L461.4,850.2z"/>
	<path class="st3" d="M860.9,851.7c0.3-2.2,0.5-4.5,0.5-6.7V278.3c0-27.2-22.1-49.3-49.3-49.3l0,0h-55.8c0,0.2,0,0.4,0,0.5
		c0,14.2-11.5,25.8-25.8,25.8H607.6c-14.2,0-25.8-11.5-25.8-25.8c0-0.2,0-0.4,0-0.5h-57.9c-27.2,0-49.3,22.1-49.3,49.3c0,0,0,0,0,0
		V845c0,2.2,0.2,4.5,0.5,6.7L860.9,851.7z"/>
	<path class="st2" d="M862.2,853.2H473.8l-0.2-1.3c-0.3-2.3-0.5-4.6-0.5-6.9V278.3c0-28,22.7-50.7,50.8-50.8h59.5v2
		c0,13.4,10.9,24.2,24.2,24.3h122.9c13.4,0,24.2-10.9,24.3-24.3v-2h57.4c28,0,50.7,22.7,50.8,50.8V845c0,2.3-0.2,4.6-0.5,6.9
		L862.2,853.2z M476.4,850.2h383.1c0.2-1.7,0.3-3.5,0.3-5.2V278.3c0-26.4-21.4-47.7-47.8-47.8h-54.3c-0.5,14.7-12.6,26.3-27.2,26.3
		h-123c-14.7,0-26.7-11.6-27.2-26.3h-56.4c-26.4,0-47.7,21.4-47.8,47.8V845C476.1,846.7,476.2,848.5,476.4,850.2L476.4,850.2z"/>
	<path class="st1" d="M687.5,850.6h172.4c0.3-2.2,0.5-4.4,0.5-6.7V637.5c-13.4-13.1-50.3-40.6-128.9-48
		c-104.5-9.9-143.1,54-123.8,108C607.6,697.5,651.3,788.2,687.5,850.6z"/>
	<path class="st2" d="M861.2,852.1H686.6l-0.4-0.7c-35.8-61.8-79.5-152.3-79.9-153.2l-0.1-0.2c-9.3-26-5.3-53,10.9-73.8
		c22-28.3,62.6-41.1,114.5-36.2c80.2,7.6,117.5,36.4,129.8,48.4l0.5,0.4V844c0,2.3-0.2,4.6-0.5,6.8L861.2,852.1z M688.4,849.1h170.2
		c0.2-1.7,0.3-3.4,0.3-5.2V638.1c-12.5-12.1-49.2-39.7-127.5-47.2c-50.8-4.8-90.5,7.6-111.8,35c-15.6,20-19.4,45.9-10.5,70.9
		C610.5,699.9,653.1,788.2,688.4,849.1z"/>
	<path class="st4" d="M475.7,491.8C505,446,638.4,370.4,696,382.1s124.2,92.2,124.2,92.2s-46.6,36.8-33.9,60.7
		c12.5,23.5,23,43.5,31.4,75c0,0-144.3,128.2-181.6,144.5c0,0-87-37.4-110.7-128.4c0,0-39.5,77.1-74,87s-124.8-31-105.6-59
		l-19.2-12.8l20.3-54.9l16.9,3.5c0,0,0-25.7,18.1-22.2s50.8,14,50.8,14S431.6,560.7,475.7,491.8z"/>
	<path class="st0" d="M636.1,756c-0.2,0-0.4,0-0.6-0.1c-0.2-0.1-22.2-9.7-46.8-30.3c-22.1-18.5-50.8-50-63.7-95.4
		c-8.2,15.2-42.2,75.5-73.1,84.4c-4.1,1.1-8.3,1.6-12.6,1.5c-30,0-77.7-19.8-92.7-40.8c-5.4-7.4-6.3-14.6-2.8-20.8l-18-12
		c-0.6-0.4-0.8-1.1-0.6-1.8l20.3-54.9c0.2-0.7,1-1.1,1.7-1l15.2,3.1c0.3-4.1,1.5-14.1,7.7-19.2c3.2-2.7,7.3-3.6,12.1-2.6
		c15.5,3,42,11.2,49.2,13.5c0.8-6.8,6.2-31.1,43-88.7c14.3-22.4,53.6-52.6,100.1-76.9c50.1-26.3,95.6-38.8,121.8-33.5
		c57.5,11.6,124.4,91.9,125.1,92.7c0.5,0.6,0.4,1.6-0.2,2.1c0,0,0,0,0,0c-0.5,0.4-45.5,36.3-33.5,58.8c12.3,23.2,23,43.2,31.5,75.3
		c0.2,0.5,0,1.1-0.5,1.5c-5.9,5.2-145,128.5-182,144.7C636.5,755.9,636.3,756,636.1,756z M525.4,624.6h0.2c0.6,0.1,1.1,0.5,1.3,1.1
		c12.1,46.6,41.3,78.8,63.7,97.5c22,18.5,41.9,28,45.6,29.6c36.2-16.5,169.1-133.8,180-143.4c-8.4-31.2-18.9-51-31-73.8
		s25.6-55.4,33.1-61.6c-8.4-9.9-69.7-79.9-122.4-90.5c-25.5-5.2-70.3,7.2-119.8,33.2c-46.1,24.1-84.9,53.9-98.9,75.9l-1.3-0.8
		l1.3,0.8c-43,67.3-42.7,88.8-42.7,89c0,0.5-0.2,1-0.6,1.3c-0.4,0.3-0.9,0.4-1.4,0.2c-0.3-0.1-32.9-10.5-50.7-14
		c-3.9-0.8-7.1-0.1-9.6,2c-6.6,5.4-6.7,18.6-6.7,18.7c0,0.8-0.7,1.5-1.5,1.5c-0.1,0-0.2,0-0.3,0l-15.7-3.2l-19.5,52.5l18.2,12.2
		c0.3,0.2,0.6,0.6,0.6,1c0.1,0.4,0,0.8-0.2,1.1c-3.7,5.4-3.1,11.7,1.9,18.6c16.9,23.5,76,45.6,102,38.1
		c33.4-9.6,72.7-85.5,73.1-86.3C524.3,624.9,524.8,624.6,525.4,624.6z"/>
	<path class="st5" d="M817.6,358.5c0,0-12.8-73.9,39.6-96.9l3.2,32.6c0,0,7.9-17.3,18.4-17.3s15.8,12.9,1.6,28.9s-1.6,28.9-7.9,39.4
		S860.3,372,860.3,372L817.6,358.5z"/>
	<path class="st0" d="M857.2,261.6l3.2,32.6c0,0,7.9-17.3,18.4-17.3s15.8,12.9,1.6,28.9s-1.6,28.9-7.9,39.4S860.3,372,860.3,372
		l-42.7-13.5C817.6,358.5,804.8,284.6,857.2,261.6 M859.7,257.2l-3.7,1.6c-22.4,9.8-36.6,30.3-41.2,59.3
		c-2.1,13.5-2.1,27.3-0.1,40.8l0.3,1.8l1.7,0.5l42.7,13.5l2.8,0.9l1-2.7c0.1-0.2,5.8-16.1,11.8-26.3c3.1-5.2,2.4-10.6,1.8-16
		c-0.9-7.1-1.8-14.5,5.8-23c8.3-9.4,11.4-19.3,8.1-26.5c-2.1-4.7-6.8-7.6-12-7.4c-7,0-12.6,5.6-16.3,10.8l-2.3-23.4L859.7,257.2
		L859.7,257.2z"/>
	<path class="st4" d="M783.1,529.1c67.3,38.9,95.5-91.3,95.3-113.8s-15.3-24.7-15.3-24.7l3.1-17.1l-52.8-17.4l-4.5,11.1
		c0,0-22.4,1.6-28.2,22.3s-8.3,27.2-11.4,41.9"/>
	<path class="st0" d="M807.1,537.8c-8,0-16.2-2.5-24.8-7.4c-0.7-0.4-1-1.3-0.5-2s1.3-1,2-0.5c14.9,8.6,29,9.3,41.7,1.8
		c19.2-11.2,31.8-38.1,39.1-58.6c8.5-24.1,12.3-47.5,12.3-55.7c-0.2-20.8-13.4-23.1-14-23.2c-0.4-0.1-0.8-0.3-1-0.6
		c-0.2-0.3-0.3-0.7-0.3-1.1l2.9-15.9l-50.2-16.5l-3.9,9.8c-0.2,0.5-0.7,0.9-1.3,0.9c-0.9,0.1-21.4,1.8-26.9,21.2
		c-1.9,6.7-3.4,11.9-4.7,16.4c-2.8,9.3-4.6,15.5-6.7,25.4c-0.1,0.8-0.9,1.4-1.7,1.2c-0.8-0.1-1.4-0.9-1.2-1.7c0,0,0-0.1,0-0.1
		c2.1-10,4-16.2,6.7-25.6c1.3-4.5,2.8-9.7,4.7-16.4c5.3-18.9,24.1-22.7,28.6-23.3l4.1-10.3c0.3-0.7,1.1-1.1,1.9-0.9l52.8,17.4
		c0.7,0.2,1.1,1,1,1.7l-2.9,15.8c4,1.3,14.9,6.6,15,25.8c0.2,17.6-15.8,95.4-52.8,116.9C821,535.8,814.1,537.7,807.1,537.8z"/>
	<path class="st6" d="M862.3,390.8c0.8,0.2,1.6,0.4,2.4,0.7c-13.1,3.4-43.1,7.3-55.5-23.3c0.5-0.1,0.8-0.1,0.8-0.1l4.3-10.7l51,16.8
		L862.3,390.8z"/>
	<path class="st0" d="M380,364.5h-0.2c-0.4,0-38.9-3.6-85.5-27c-27.2-13.6-52.1-31.5-73.7-52.9c-26.9-26.7-48.8-59-64.9-96.1
		c-0.4-1,0-2.2,1-2.6c1-0.4,2.2,0,2.6,1c36.2,82.8,94.2,125.6,136.6,146.9c45.9,23.1,83.8,26.6,84.2,26.7c1.1,0,2,1,1.9,2.1
		C382,363.7,381.1,364.6,380,364.5L380,364.5z"/>
	<path class="st1" d="M507.6,334c0,0-18.3,25.4-33.7,8.3s-48-54-76.1-32.8s-28.6,28.6-49.5,15.1s-97.6,29.9-51.8,82.2
		c75.1,85.7,246.1-16.1,246.1-16.1l-7.8-24.9L507.6,334z"/>
	<path d="M381.6,442.6c-5.2,0-10.2-0.2-15.1-0.7c-29.8-2.8-53.7-14.3-71.1-34.2c-18.5-21.2-19.5-44.5-2.7-63.9
		c15.7-18.1,44.1-28.4,56.4-20.5c16,10.4,18.8,8.1,34.5-4.6c3.7-3,8-6.5,13.2-10.4c28.9-21.8,61.8,14.8,77.6,32.4l0.6,0.7
		c3.4,3.8,7.3,5.6,11.5,5.4c10.4-0.6,19.8-13.4,19.9-13.5l1.1-1.5l28.7,33.5l8.2,26.3l-1,0.6c-0.4,0.3-43.5,25.7-95.3,40.3
		C423.9,439.1,401.6,442.6,381.6,442.6z M338.3,323.6c-12.5,0-31.1,8-43.3,22.1c-9.3,10.7-21.2,32.7,2.6,60
		c38.3,43.7,102.5,37,149.7,23.6c47-13.3,86.7-35.5,93.5-39.4l-7.3-23.4l-25.8-30.2c-3,3.7-11.4,12.8-21,13.3
		c-5.1,0.3-9.8-1.9-13.8-6.4l-0.6-0.7c-15.2-16.9-46.9-52.1-73.5-32c-5.2,4-9.4,7.4-13.1,10.4c-15.9,12.9-20.2,16.4-38,4.8
		C344.7,324.2,341.5,323.5,338.3,323.6L338.3,323.6z"/>
	<path class="st7" d="M355.1,438.8c79.7-63.1,170.9-59,170.9-59c3.7,4.6,6.3,10,7.6,15.8C506.5,410.3,422.6,451.1,355.1,438.8z"/>
	<circle class="st1" cx="567.1" cy="262.1" r="29.3"/>
	<path d="M565,232.9c16.1-1.2,30.1,10.9,31.3,27c1.2,16.1-10.9,30.1-27,31.3c-16.1,1.2-30.1-10.9-31.3-27
		c-0.7-10,3.7-19.6,11.7-25.6C554.1,235.3,559.4,233.4,565,232.9 M564.8,230.7c-17.3,1.3-30.3,16.4-29.1,33.7
		c1.3,17.3,16.4,30.3,33.7,29.1c17.3-1.3,30.3-16.4,29.1-33.7c-0.4-6-2.6-11.7-6.2-16.5C586,234.7,575.6,229.9,564.8,230.7z"/>
	<path class="st1" d="M502.5,365.8c0,0-23.1-13.8-17.7-33.3s10.3-18.8,12.5-29.2s18-23.4,34.8-21.6c0,0,17.2-18.4,36-16.9
		s26.6,8.9,34.2,22s13.8,18.5,19.4,27.5s16.4,35.4-18.2,62.3S502.5,365.8,502.5,365.8z"/>
	<path d="M571.2,387.8c-10.7-0.2-21.4-1.9-31.6-5c-13.1-3.9-25.8-9.1-37.8-15.6l0,0c-1-0.6-24-14.7-18.4-35c3-11,6-15.7,8.3-19.5
		c2-2.9,3.4-6.2,4.1-9.6c2.4-11.6,18.7-24.2,35.7-22.8c3.1-3.1,19-18.3,36.7-16.9c19.4,1.5,27.7,9.5,35.3,22.8
		c3.5,6,7.4,11.7,11.8,17c2.7,3.4,5.3,6.9,7.6,10.5c4.9,7.9,18.1,35.8-18.6,64.3C595.8,384.4,584.6,387.8,571.2,387.8z M503.2,364.5
		c1.4,0.8,66,36.8,99.2,10.9c34.7-27,22.5-53,17.9-60.3c-2.3-3.5-4.8-7-7.4-10.2c-4.4-5.5-8.4-11.3-12-17.3
		c-7.4-12.7-14.8-19.9-33-21.3c-17.8-1.4-34.6,16.3-34.8,16.5l-0.5,0.5l-0.8-0.1c-16.5-1.8-31.2,10.9-33.1,20.4
		c-0.8,3.8-2.3,7.4-4.5,10.6c-2.3,3.6-5,8.1-8,18.7C481.2,350.9,502.6,364.1,503.2,364.5L503.2,364.5z"/>
	<path d="M570.1,333.9L570.1,333.9c13-2.1,23.3-16.8,23.7-17.4c0.4-0.5,0.3-1.2-0.2-1.6c-0.5-0.4-1.2-0.3-1.6,0.2
		c0,0-0.1,0.1-0.1,0.1c-0.1,0.1-10.2,14.5-22.2,16.5c-0.6,0.1-1,0.7-0.9,1.3C569,333.5,569.5,333.9,570.1,333.9L570.1,333.9z"/>
	<path class="st8" d="M558.3,418.1c0,0-13.5,15.2,5.5,23.5s29.2-7.6,29.2-7.6s60.9,6.8,29.4-37.3L558.3,418.1z"/>
	<path class="st0" d="M574.3,445.5c-3.8,0-7.6-0.9-11.2-2.5c-6.1-2.6-9.8-6.3-10.8-10.9c-1.7-7.6,4.5-14.6,4.8-14.9l0.3-0.3l0.4-0.1
		l65.1-21.8l0.6,0.9c9,12.6,11.5,22.6,7.4,29.5c-7.2,12.3-32.2,10.7-37.3,10.2C591.7,438,585.1,445.5,574.3,445.5z M559.1,419.5
		c-1,1.3-5,6.7-3.8,12c0.8,3.6,3.8,6.5,9,8.8c17.6,7.6,26.9-6.4,27.3-7l0.5-0.8l0.9,0.1c0.3,0,28.4,3,35.3-8.7
		c3.3-5.7,1.1-14.2-6.6-25.4L559.1,419.5z"/>
	<path class="st8" d="M569.7,325.5c3-0.2,5.9-0.9,8.6-1.9c0.6-0.2,0.8-0.9,0.6-1.4c-0.2-0.5-0.8-0.8-1.3-0.6
		c-24.1,8.5-36.2-15.3-36.7-16.4c-0.3-0.6-0.9-0.8-1.5-0.5c0,0,0,0,0,0c-0.5,0.3-0.8,0.9-0.5,1.5c0,0,0,0,0,0
		C539,306.4,549.4,327,569.7,325.5z"/>
	<path class="st8" d="M567.6,326.1c-19.3,0-29.1-19.5-29.2-19.7c-0.4-0.8-0.1-1.8,0.6-2.2s1.8-0.1,2.2,0.6c0,0,0.1,0.1,0.1,0.2
		c0.5,1,12.4,24.5,36.1,16.1c0.8-0.3,1.7,0.2,2,1c0.3,0.8-0.2,1.7-1,2c-2.8,1-5.8,1.7-8.8,1.9l0,0C569,326,568.3,326.1,567.6,326.1z
		 M539.9,305.1c-0.1,0-0.2,0-0.3,0.1c-0.3,0.1-0.4,0.5-0.3,0.8c0.1,0.2,10.3,20.6,30.3,19.1l0,0c2.9-0.2,5.8-0.8,8.5-1.8
		c0.3-0.1,0.5-0.5,0.4-0.8c-0.1-0.2-0.2-0.3-0.3-0.4c-0.1-0.1-0.3-0.1-0.5,0c-24.5,8.7-36.8-15.6-37.3-16.6
		C540.4,305.2,540.2,305.1,539.9,305.1L539.9,305.1z"/>
	<path class="st8" d="M585.8,252.6c0.2,0,0.4-0.1,0.5-0.2c0.5-0.3,0.7-1,0.3-1.5c0,0,0,0,0,0c-4.1-6.4-9.1-10.1-14.8-11
		c-9.4-1.5-17.3,4.8-17.6,5c-0.5,0.4-0.5,1.1-0.1,1.6c0.4,0.5,1,0.5,1.5,0.2c0.1-0.1,7.5-5.9,15.9-4.6c5.1,0.9,9.6,4.2,13.3,10.1
		C585,252.4,585.4,252.6,585.8,252.6z"/>
	<path class="st8" d="M585.8,253.1c-0.5,0-1.1-0.3-1.4-0.7c-3.6-5.7-8-9-13-9.8c-8.1-1.3-15.4,4.4-15.5,4.4
		c-0.7,0.5-1.7,0.3-2.2-0.4c-0.4-0.7-0.3-1.5,0.2-2.1c0.3-0.3,8.5-6.7,18-5.1c5.9,1,11,4.8,15.2,11.3c0.5,0.7,0.3,1.7-0.5,2.2
		c0,0,0,0,0,0c-0.2,0.1-0.5,0.2-0.7,0.2L585.8,253.1z M568.9,241.4c0.9,0,1.8,0.1,2.7,0.2c5.3,0.9,9.9,4.3,13.7,10.3
		c0.1,0.2,0.3,0.3,0.6,0.3l0,0c0.3,0,0.5-0.2,0.5-0.5c0-0.2,0-0.3-0.1-0.5c-4-6.3-8.9-9.9-14.5-10.8c-9.1-1.5-16.9,4.7-17.2,4.9
		c-0.3,0.2-0.3,0.6-0.1,0.9c0.2,0.3,0.6,0.3,0.9,0.1l0,0C555.4,246.2,561.5,241.4,568.9,241.4z"/>
	<path class="st5" d="M563.6,401.4l-4,16c0,0,34.8,30.2,56.8-20.2c0,0-13.8-9-26.3-40.6c0,0,14-4.9,10.1-17.5s-14.5-13.5-20.2-9.3
		c0,0-21.8,19.6-52.4-27.2c0,0-24.1,13.6-26.1,40.5s7,56.7,28.2,63S563.6,401.4,563.6,401.4z"/>
	<path class="st0" d="M527.7,302.6c16.6,25.5,30.7,31.3,40,31.3c4.5,0.1,8.8-1.3,12.4-4.1c2-1.5,4.5-2.3,7-2.3
		c5.1,0,10.6,3.2,13.2,11.5c3.9,12.6-10.1,17.5-10.1,17.5c12.5,31.6,26.3,40.6,26.3,40.6c-10,23-22.7,29.2-33.5,29.2
		c-13,0-23.3-9-23.3-9l4-16c0,0-7.7,6.7-21.1,6.7c-4.3,0-8.6-0.7-12.8-1.9c-21.3-6.3-30.2-36-28.2-63S527.6,302.6,527.7,302.6
		 M528.6,298.6l-2.4,1.4c-1,0.6-25.5,14.7-27.7,42.9c-1.1,14.5,0.9,28.9,5.6,40.6c5.4,13.5,14,22.3,24.8,25.5c4.4,1.3,9,2,13.6,2
		c5.7,0,11.3-1.1,16.4-3.4l-2.3,9.1l-0.5,1.8l1.4,1.2c0.5,0.4,11.3,9.7,25.3,9.7c6.9,0,13.5-2.3,18.9-6.6
		c6.7-5.2,12.6-13.4,17.4-24.4l1-2.3l-2.1-1.4c-0.1-0.1-12.5-8.6-24.1-36.5c5.6-3,12.3-9.7,9.1-20c-2.6-8.5-8.6-13.7-16-13.7
		c-3.2,0-6.3,1-8.8,2.9l-0.1,0.1l-0.1,0.1c-3,2.2-6.6,3.4-10.4,3.3c-8.2,0-21.4-5.2-37.5-30L528.6,298.6L528.6,298.6z"/>
	<path d="M563.4,403.7c0.1,0,0.2,0,0.3-0.1c11.5-4.8,19.2-17.9,19.5-18.4c0.3-0.5,0.2-1.2-0.3-1.5c-0.5-0.3-1.2-0.2-1.5,0.3
		c0,0,0,0.1-0.1,0.1c-0.1,0.1-7.6,13-18.4,17.5c-0.6,0.2-0.8,0.9-0.6,1.5C562.5,403.4,563,403.7,563.4,403.7L563.4,403.7z"/>
	<path d="M589.4,350.6c0.4,0,0.8-0.3,0.9-0.7c2.3-5.1,2.5-9.2,0.5-12c-2.8-4.1-8.8-3.9-9-3.9c-0.6,0-1.1,0.5-1.1,1.1c0,0,0,0,0,0
		c0,0.6,0.5,1.1,1.1,1.1c0,0,0,0,0,0c0.1,0,5-0.1,7.1,2.9c1.5,2.2,1.2,5.5-0.7,9.9c-0.2,0.6,0,1.2,0.6,1.5c0,0,0,0,0,0
		C589,350.6,589.2,350.7,589.4,350.6z"/>
	<path class="st9" d="M531.7,341.9c15.1,0,33.2-10.4,37.6-6s3.3,11.9-4.1,15.2s-15.3,4.8-31.4,6.9s-32.1,3-32.1-5.9
		S509.5,341.8,531.7,341.9z"/>
	<path d="M513,336.1c0.3,0,0.6-0.2,0.8-0.5l0,0c0-0.1,4-5.3,9.4-5.3c0.6,0.1,1.2-0.4,1.2-1c0.1-0.6-0.4-1.2-1-1.2
		c-0.1,0-0.1,0-0.2,0c-6.5,0-11,6-11.2,6.2c-0.4,0.5-0.2,1.2,0.3,1.6C512.5,336,512.8,336.1,513,336.1L513,336.1z"/>
	<path d="M532.1,368.9c0.5-0.1,0.9-0.5,1-1l3.2-24.1c0.1-0.6-0.4-1.2-1-1.2c-0.6-0.1-1.1,0.3-1.2,0.9l-3.2,24.1
		c-0.1,0.6,0.3,1.2,0.9,1.2c0,0,0,0,0,0L532.1,368.9z"/>
	<circle class="st4" cx="596" cy="355.4" r="4.8"/>
	<path d="M595.6,350.6c2.6-0.2,4.9,1.8,5.1,4.4c0.1,1.6-0.6,3.2-1.9,4.2c-0.7,0.6-1.6,0.9-2.5,0.9c-2.6,0.2-4.9-1.8-5.1-4.4
		c-0.1-1.6,0.6-3.2,1.9-4.2C593.8,351,594.7,350.7,595.6,350.6 M595.5,348.4c-3.9,0.3-6.8,3.6-6.5,7.5s3.6,6.8,7.5,6.5
		c3.9-0.3,6.8-3.6,6.5-7.5c-0.1-1.3-0.6-2.6-1.4-3.7C600.1,349.3,597.8,348.3,595.5,348.4L595.5,348.4z"/>
	<path d="M540.5,327.4c0.3,0,0.6-0.2,0.8-0.4l0,0c0.7-0.8,2.9-3,4.5-2.5c0.6,0.2,1.2-0.2,1.4-0.8c0.2-0.6-0.2-1.2-0.8-1.4
		c-3.3-0.9-6.5,2.9-6.8,3.3c-0.4,0.5-0.3,1.2,0.2,1.6C539.9,327.4,540.2,327.5,540.5,327.4L540.5,327.4z"/>
	<path class="st0" d="M325.8,393.1c-8.1,0-29.1-0.9-56-8.3c-45.1-12.6-85.5-38.1-116.1-73.6c-0.6-0.9-0.4-2.1,0.4-2.8
		c0.8-0.6,1.9-0.5,2.6,0.2c30.1,34.8,69.7,60,114.1,72.3c33.5,9.3,58.3,8.2,58.5,8.2c1.1-0.1,2,0.8,2.1,1.9c0.1,1.1-0.8,2-1.9,2.1
		C329.2,393,328,393.1,325.8,393.1z"/>
	<path class="st0" d="M808.3,852.1c-0.4,0-0.8-0.2-1.1-0.5c-0.3-0.3-30.4-32.8-51.3-79.2l-36.7,6.1c-0.8,0.1-1.6-0.4-1.7-1.3
		s0.4-1.6,1.3-1.7l37.8-6.3c0.7-0.1,1.3,0.2,1.6,0.9c20.7,46.5,50.9,79.1,51.2,79.5c0.6,0.6,0.5,1.5,0,2.1
		C809.1,852,808.7,852.1,808.3,852.1L808.3,852.1z"/>
	<circle class="st10" cx="695.4" cy="570.4" r="5.7"/>
	<circle class="st10" cx="553.6" cy="562" r="5.7"/>
	<circle class="st10" cx="583" cy="663.9" r="5.7"/>
	<circle class="st10" cx="618.7" cy="610.3" r="5.7"/>
	<circle class="st10" cx="653.4" cy="702.8" r="5.7"/>
	<circle class="st10" cx="766.9" cy="610.3" r="5.7"/>
	<circle class="st10" cx="700.7" cy="651.3" r="5.7"/>
	<circle class="st10" cx="678.6" cy="476.9" r="5.7"/>
	<circle class="st10" cx="641.8" cy="532.6" r="5.7"/>
	<circle class="st10" cx="533.6" cy="487.4" r="5.7"/>
	<circle class="st10" cx="468.5" cy="651.3" r="5.7"/>
	<circle class="st10" cx="401.2" cy="610.3" r="5.7"/>
	<circle class="st10" cx="383.3" cy="656.6" r="5.7"/>
	<circle class="st10" cx="815.2" cy="498.9" r="5.7"/>
	<circle class="st10" cx="817.3" cy="443.2" r="5.7"/>
	<circle class="st10" cx="683.9" cy="415.9" r="5.7"/>
	<path class="st6" d="M329.1,640.5l18.9-52.5l16.8,3.2c0,0,10.5,33.6-17.9,62L329.1,640.5z"/>
	<path class="st5" d="M852.4,320c0,0-1-8.4,9.5-31.5"/>
	<path class="st0" d="M852.4,321.4c-0.8,0-1.4-0.6-1.5-1.3c0-0.4-1-9.1,9.6-32.3c0.3-0.8,1.2-1.1,2-0.8c0.8,0.3,1.1,1.2,0.8,2
		c0,0,0,0.1,0,0.1c-10.1,22.2-9.3,30.6-9.3,30.7c0.1,0.8-0.5,1.6-1.3,1.7L852.4,321.4z"/>
	<path class="st5" d="M345.6,586.4c0,0-21.5-88.8-57.2-48.7l-43.1-14.8c0,0-21.5,14.6,7.9,37.1c0,0-6.7,15.6,1,29.2
		c0,0-11.6,15,10,31c23.4,17.3,63.2,18.9,63.2,18.9L345.6,586.4z"/>
	<path class="st0" d="M328.5,640.6l-1.1,0c-1.6-0.1-40.5-1.8-64.1-19.2c-8-5.9-12.6-12.4-13.6-19.3c-0.6-4.5,0.3-9,2.7-12.9
		c-6.3-12-2.4-24.8-1-28.7c-10.3-8.1-15.4-16.2-15.2-24c0.3-9.3,7.9-14.6,8.2-14.8l0.6-0.4l42.9,14.7c7.6-8.3,15.3-11.5,22.9-9.6
		c22.9,5.8,35.7,57.5,36.2,59.7l0.1,0.4l-0.1,0.4L328.5,640.6z M245.5,524.5c-1.6,1.3-6.2,5.6-6.4,12c-0.2,7,4.8,14.5,14.9,22.2
		l0.9,0.7l-0.5,1.1c-0.1,0.2-6.3,15.1,0.9,27.9l0.5,0.9l-0.6,0.8c-2.3,3.4-3.2,7.5-2.6,11.5c0.9,6.1,5,11.9,12.4,17.3
		c20.6,15.2,54.7,18.1,61.3,18.5l17.6-51.2c-1.3-5-13.8-52-34-57.1c-6.6-1.7-13.5,1.5-20.6,9.4l-0.7,0.8L245.5,524.5z"/>
	<path class="st5" d="M268.3,623.8c11.6,6.2,30.2-0.2,25.8-12.2c-3.7-10-10-12.1-10-12.1s22.1,0,15.8-18.9s-45.2-21-45.2-21"/>
	<path class="st0" d="M278.5,627.7c-3.8,0-7.5-0.8-10.9-2.6c-0.7-0.4-0.9-1.4-0.5-2.1c0.4-0.6,1.2-0.9,1.9-0.6
		c7.3,3.9,16.9,2.3,21.4-1.6c2.6-2.1,3.5-5.7,2.3-8.7c-3.4-9.2-9-11.2-9-11.2c-0.8-0.3-1.2-1.1-0.9-1.9c0.2-0.6,0.8-1,1.4-1
		c0.1,0,9.8-0.1,13.7-5.6c2-2.8,2.2-6.6,0.6-11.4c-5.9-17.7-43.5-20-43.8-20c-0.8,0-1.5-0.8-1.4-1.6s0.8-1.5,1.6-1.4
		c1.6,0.1,40,2.4,46.5,22c1.9,5.7,1.6,10.5-1,14.1c-2.9,4-8,5.7-11.7,6.3c3.2,2.8,5.6,6.5,6.9,10.5c1.7,4.2,0.5,9.1-3.1,12
		C289,626.1,283.8,627.7,278.5,627.7z"/>
	<line class="st11" x1="254.2" y1="589.5" x2="286.3" y2="599.3"/>
	<path class="st0" d="M286.3,600.8c-0.1,0-0.3,0-0.4-0.1l-32.1-9.8c-0.8-0.2-1.2-1.1-1-1.9s1.1-1.2,1.9-1l32.1,9.8
		c0.8,0.3,1.2,1.1,1,1.9C287.5,600.5,286.9,600.9,286.3,600.8L286.3,600.8z"/>
	<path class="st5" d="M288.4,537.7c0,0-22.1,17.7-13.7,31.4s43.1-13.7,43.1-13.7"/>
	<path class="st0" d="M282.3,574.3c-0.8,0-1.6-0.1-2.4-0.2c-2.7-0.4-5.1-2-6.5-4.3c-9-14.6,13.1-32.6,14-33.3
		c0.6-0.5,1.6-0.4,2.1,0.2c0.5,0.6,0.4,1.6-0.2,2.1c-0.2,0.2-21,17-13.4,29.4c1,1.6,2.6,2.7,4.5,3c0.7,0.1,1.3,0.2,2,0.2
		c12.4,0,34.1-17,34.4-17.2c0.7-0.5,1.6-0.4,2.1,0.3s0.4,1.6-0.3,2.1C317.7,557.3,295.9,574.3,282.3,574.3z"/>
	<path class="st4" d="M529,759.2h143.4c13.5,0,24.5,11,24.5,24.5v24.6c0,13.5-11,24.5-24.5,24.5H529c-13.5,0-24.5-11-24.5-24.5
		v-24.6C504.6,770.2,515.5,759.2,529,759.2z"/>
	<path class="st0" d="M672.4,834.3H529c-14.4,0-26-11.6-26-26l0,0v-24.6c0-14.4,11.6-26,26-26h143.4c14.4,0,26,11.6,26,26v24.6
		C698.4,822.7,686.8,834.3,672.4,834.3z M529,760.7c-12.7,0-23,10.3-23,23l0,0v24.6c0,12.7,10.3,23,23,23h143.4
		c12.7,0,23-10.3,23-23v-24.7c0-12.7-10.3-23-23-23l0,0L529,760.7z"/>
	<path class="st3" d="M628,685.7h203c11.8,0,21.4,9.6,21.4,21.4v1.3c0,11.8-9.6,21.4-21.4,21.4H628c-11.8,0-21.4-9.6-21.4-21.4v-1.3
		C606.5,695.3,616.1,685.7,628,685.7z"/>
	<path class="st2" d="M831,731.3H628c-12.7,0-23-10.2-23-22.9v-1.3c0-12.7,10.3-22.9,23-22.9h203c12.7,0,22.9,10.3,22.9,22.9v1.3
		C853.9,721,843.7,731.3,831,731.3z M628,687.2c-11,0-20,8.9-20,19.9v1.3c0,11,9,19.9,20,19.9h203c11,0,19.9-8.9,19.9-19.9v-1.3
		c0-11-8.9-19.9-19.9-19.9H628z"/>
	<path class="st3" d="M628,625.8h203c11.8,0,21.4,9.6,21.4,21.4v1.3c0,11.8-9.6,21.4-21.4,21.4H628c-11.8,0-21.4-9.6-21.4-21.4v-1.3
		C606.5,635.4,616.1,625.8,628,625.8z"/>
	<path class="st2" d="M831,671.4H628c-12.7,0-23-10.2-23-22.9v-1.3c0-12.7,10.3-22.9,23-22.9h203c12.7,0,22.9,10.3,22.9,22.9v1.3
		C853.9,661.1,843.7,671.4,831,671.4z M628,627.3c-11,0-20,8.9-20,19.9v1.3c0,11,9,19.9,20,19.9h203c11,0,19.9-8.9,19.9-19.9v-1.3
		c0-11-8.9-19.9-19.9-19.9H628z"/>
	<path class="st8" d="M733.2,224.7L733.2,224.7l-134.5-1c-1.7,0-3-1.3-3-3s1.3-3,3-3l0,0l134.5,1c1.7,0,3,1.3,3,3
		S734.8,224.7,733.2,224.7z"/>
	<path class="st2" d="M529.3,640.5c-0.6,0-1.1-0.3-1.4-0.9c-11-24.5-17.3-81.7-17.5-84.2c-0.1-0.8,0.5-1.6,1.3-1.7
		c0.8-0.1,1.6,0.5,1.7,1.3c0.1,0.6,6.5,59.2,17.3,83.2c0.3,0.8,0,1.7-0.8,2c0,0,0,0,0,0C529.8,640.5,529.5,640.6,529.3,640.5z"/>
	<path class="st4" d="M738.9,466c0,0,31.5,39.9,47.3,70.4"/>
	<path class="st0" d="M786.2,537.9c-0.6,0-1.1-0.3-1.3-0.8c-15.5-30-46.8-69.8-47.1-70.2c-0.5-0.7-0.4-1.6,0.3-2.1s1.6-0.4,2.1,0.3
		c0.3,0.4,31.8,40.4,47.4,70.6c0.4,0.7,0.1,1.6-0.6,2C786.7,537.9,786.5,537.9,786.2,537.9z"/>
	<ellipse transform="matrix(0.1602 -0.9871 0.9871 0.1602 86.5988 803.7045)" class="st0" cx="515.6" cy="351" rx="5.8" ry="5.8"/>
	<circle class="st0" cx="554" cy="345.2" r="5.8"/>
	<circle class="st8" cx="516.2" cy="348.3" r="1.6"/>
	<circle class="st8" cx="518.8" cy="352" r="1"/>
	<circle class="st8" cx="552.9" cy="343.1" r="1.6"/>
	<circle class="st8" cx="555.5" cy="346.7" r="1"/>
	<path d="M562.2,387.3c-0.8,0-1.5-0.7-1.5-1.5c0-0.6,0.3-1.1,0.8-1.3c2.7-1.4,3.3-6,3.3-9.6c-7.7,7.6-21.4,6-22.1,5.9
		c-0.8-0.1-1.4-0.9-1.3-1.7s0.9-1.4,1.7-1.3c0.2,0,15.9,1.9,21.7-7.7c0.4-0.7,1.3-0.9,2-0.5c0.4,0.2,0.7,0.6,0.7,1.1
		c0.1,0.5,1.9,13.1-4.6,16.5C562.7,387.3,562.5,387.3,562.2,387.3z"/>
	<path d="M909.2,254.2H909c-0.8-0.1-1.4-0.8-1.4-1.6c0,0,0,0,0,0c2.9-30.2-4-53.5-20.4-69.1c-31.4-29.8-87.7-21.9-88.2-21.8
		c-0.8,0.1-1.6-0.5-1.7-1.3c-0.1-0.8,0.4-1.6,1.2-1.7c0,0,0,0,0,0c0.6-0.1,58.3-8.2,90.7,22.6c17.1,16.3,24.3,40.3,21.3,71.5
		C910.6,253.6,909.9,254.2,909.2,254.2z"/>
	<path class="st8" d="M658.1,787.4H549.8c-1.7,0-3-1.3-3-3s1.3-3,3-3h108.4c1.7,0,3,1.3,3,3S659.8,787.4,658.1,787.4z"/>
	<path class="st8" d="M613.3,810h-63.2c-1.7,0-3-1.3-3-3s1.3-3,3-3h63.2c1.7,0,3,1.3,3,3S615,810,613.3,810z"/>
	<path class="st0" d="M410.6,749.1c-44.5,0-70.3-17.8-84.2-32.8c-15.3-16.6-19.6-33.1-19.8-33.8c-0.3-1.1,0.4-2.2,1.4-2.4
		s2.2,0.4,2.4,1.4c0,0.2,4.3,16.4,19,32.3c13.3,14.4,38.1,31.4,81.1,31.4h2c1.1,0,2,0.9,2,2s-0.9,2-2,2L410.6,749.1z"/>
	<path class="st8" d="M823.5,355c-1.4,0-2.7-1-2.9-2.5c-7.5-39.7,13.3-69.4,14.2-70.6c1-1.4,2.8-1.7,4.2-0.7c1.4,1,1.7,2.8,0.7,4.2
		c-0.2,0.3-20.2,28.9-13.2,66c0.3,1.6-0.8,3.2-2.4,3.5C823.9,355,823.7,355,823.5,355z"/>
	<path class="st8" d="M453.6,575.7c-0.2,0-0.5,0-0.7-0.1c-1.6-0.4-2.6-2-2.2-3.6c11-45.8,33.7-74.2,50.8-89.9
		c18.6-17.1,34.5-23.3,35.1-23.6c1.5-0.6,3.3,0.1,3.9,1.6c0.6,1.5-0.1,3.3-1.6,3.9c0,0-0.1,0-0.1,0c-0.3,0.1-15.7,6.2-33.4,22.6
		c-16.4,15.2-38.2,42.5-48.8,86.7C456.2,574.7,455,575.7,453.6,575.7z"/>
</g>
<g id="ball">
	<path class="st3" d="M376,80.4h73.4c9.6,0,17.4,7.8,17.4,17.4v73.4c0,9.6-7.8,17.4-17.4,17.4H376c-9.6,0-17.4-7.8-17.4-17.4V97.8
		C358.5,88.2,366.3,80.4,376,80.4z"/>
	<path class="st2" d="M449.3,190.1H376c-10.5,0-19-8.5-19-18.9V97.8c0-10.5,8.5-18.9,19-18.9h73.4c10.4,0.1,18.9,8.5,18.9,18.9v73.4
		C468.2,181.6,459.8,190.1,449.3,190.1z M376,81.9c-8.8,0-16,7.1-16,15.9v73.4c0,8.8,7.2,15.9,16,15.9h73.4
		c8.8,0,15.9-7.2,15.9-15.9V97.8c0-8.8-7.2-15.9-15.9-15.9H376z"/>
	<circle class="st1" cx="412.1" cy="133.9" r="37.8"/>
	<path d="M412.1,173.3c-21.7,0-39.3-17.6-39.3-39.3s17.6-39.3,39.3-39.3c21.7,0,39.3,17.6,39.3,39.3c0,0,0,0,0,0
		C451.4,155.7,433.8,173.3,412.1,173.3z M412.1,97.6c-20.1,0-36.3,16.3-36.3,36.3s16.3,36.3,36.3,36.3c20,0,36.3-16.2,36.3-36.3
		C448.4,113.9,432.2,97.6,412.1,97.6z"/>
	<path class="st1" d="M414.4,96.2c0,0-40.7,38.7-4.2,75.5"/>
	<path d="M409.2,172.8c-10.6-10.6-15.8-22.5-15.6-35.3c0.4-23.6,19.1-41.7,19.9-42.4l2.1,2.2c-0.2,0.2-18.6,18-18.9,40.3
		c-0.2,11.9,4.8,23,14.8,33.1L409.2,172.8z"/>
	<path d="M413.5,151c-3.6,0-7.3-0.3-10.9-0.9c-10-1.6-19.6-4.7-28.6-9.2l1.4-2.6c0.5,0.3,49.2,25.6,73.3-6.9l2.4,1.8
		C442.4,144.9,429.5,151,413.5,151z"/>
	<path d="M485.1,104.6l-3-0.2c1-19.4-3.5-33-13.1-40.4c-14.8-11.4-37.2-4.4-37.5-4.3l-0.9-2.9c1-0.3,24.1-7.5,40.2,4.8
		C481.3,69.7,486.1,84.1,485.1,104.6z"/>
	<path d="M379.5,206.9c-21.7,0-36.9-5-45.3-14.8c-4.9-5.6-7.3-13.1-6.6-20.5l3,0.5l-1.5-0.2l1.5,0.2c-0.5,6.6,1.6,13.2,6,18.2
		c7.8,9.1,22.3,13.7,43,13.7L379.5,206.9z"/>
</g>
<g id="t-shirt">
	<path class="st3" d="M83.3,386.2h111.1c14.6,0,26.4,11.8,26.4,26.4v111.1c0,14.6-11.8,26.4-26.4,26.4H83.3
		c-14.6,0-26.4-11.8-26.4-26.4V412.6C56.9,398,68.7,386.2,83.3,386.2z"/>
	<path class="st2" d="M194.4,551.6H83.3c-15.4,0-27.9-12.5-27.9-27.9V412.6c0-15.4,12.5-27.9,27.9-27.9h111.1
		c15.4,0,27.9,12.5,27.9,27.9v111.1C222.3,539.1,209.8,551.6,194.4,551.6z M83.3,387.7c-13.8,0-24.9,11.2-24.9,24.9v111.1
		c0,13.8,11.2,24.9,24.9,24.9h111.1c13.8,0,24.9-11.2,24.9-24.9V412.6c0-13.7-11.2-24.9-24.9-24.9L83.3,387.7z"/>
	<path class="st4" d="M150.3,411.2c0.8,1.7,1.2,3.5,1.2,5.4c0,7-5.6,12.6-12.6,12.6s-12.6-5.6-12.6-12.6c0-1.9,0.5-3.8,1.3-5.6
		C99.9,414.8,79,432.6,79,453.9c0,24.1,27.1,26.8,59.9,26.8s58.9-2.7,58.9-26.8C197.7,432.8,177.3,415.2,150.3,411.2z"/>
	<path class="st0" d="M138.9,482.2c-31.1,0-61.4-2.2-61.4-28.3c0-21.8,21-40.5,49.9-44.4c0.8-0.1,1.6,0.5,1.7,1.3
		c0,0.3,0,0.6-0.1,0.9c-0.8,1.5-1.2,3.2-1.2,4.9c0,6.1,5,11.1,11.1,11.1s11.1-5,11.1-11.1c0-1.7-0.4-3.3-1.1-4.8
		c-0.4-0.7,0-1.6,0.7-2c0.3-0.1,0.6-0.2,0.9-0.1c28.3,4.2,48.8,22.8,48.8,44.2C199.2,480.1,170.7,482.2,138.9,482.2z M125.3,412.9
		c-26.1,4.4-44.8,21.3-44.8,41c0,21.2,21.4,25.3,58.4,25.3c36.3,0,57.4-4.1,57.4-25.3c0-19.3-18.2-36.1-43.7-40.8
		c0.3,1.1,0.5,2.3,0.4,3.5c0,7.8-6.3,14.1-14.1,14.1s-14.1-6.3-14.1-14.1l0,0C124.8,415.4,124.9,414.1,125.3,412.9z"/>
	<polyline class="st4" points="165.2,434.5 178.8,514.4 98.9,514.4 109.5,434.5 	"/>
	<path class="st0" d="M178.8,515.9H99c-0.4,0-0.8-0.2-1.1-0.5c-0.3-0.3-0.4-0.8-0.4-1.2l10.5-79.9c0.1-0.8,0.9-1.4,1.7-1.3
		s1.4,0.9,1.3,1.7l-10.3,78.2H177l-13.4-78.1c-0.2-0.8,0.3-1.6,1.1-1.8c0.8-0.2,1.6,0.3,1.8,1.1c0,0.1,0,0.1,0,0.2l13.7,79.9
		c0.1,0.4,0,0.9-0.3,1.2C179.6,515.7,179.2,515.9,178.8,515.9z"/>
	<path class="st0" d="M81.5,575.4c-23.3,0-40-5.9-49.7-17.6c-13.3-16-8.5-36.7-8.3-37.6c0.2-1.1,1.2-1.8,2.3-1.6
		c1.1,0.2,1.8,1.2,1.6,2.3c0,0.1,0,0.2-0.1,0.2c-0.1,0.3-4.5,19.7,7.6,34.1c10,12,28.4,17.4,54.5,16c1.1-0.1,2,0.8,2.1,1.9
		c0.1,1.1-0.8,2-1.9,2.1C86.8,575.4,84.1,575.4,81.5,575.4z"/>
	<path class="st8" d="M211.9,437h-0.2c-1.7-0.1-2.9-1.5-2.8-3.1c0.6-10.7-2.1-19.1-7.9-25c-10.4-10.4-27.6-9.7-27.8-9.7
		c-1.7,0.1-3.1-1.2-3.2-2.8s1.2-3.1,2.8-3.2l0,0c0.8,0,20-0.9,32.3,11.4c7.1,7.1,10.4,17.1,9.7,29.5
		C214.9,435.7,213.5,437,211.9,437z"/>
</g>
</svg>
