<?xml version="1.0" encoding="utf-8"?>
<!-- Generator: Adobe Illustrator 24.1.2, SVG Export Plug-In . SVG Version: 6.00 Build 0)  -->
<svg version="1.1" id="image_1_" xmlns="http://www.w3.org/2000/svg" xmlns:xlink="http://www.w3.org/1999/xlink" x="0px" y="0px"
	 viewBox="0 0 1000 1000" style="enable-background:new 0 0 1000 1000;" xml:space="preserve">
<style type="text/css">
	.st0{fill:#6C32AD;}
	.st1{fill:#1D1F1C;}
	.st2{fill:#1D1D1B;}
	.st3{fill:#D9CFFF;}
	.st4{fill:#1D1E1B;}
	.st5{fill:#FFFFFF;}
	.st6{fill:#FFAD00;}
	.st7{fill:#E89D00;}
	.st8{fill:#FFC140;}
	.st9{fill:#FFCDB2;}
	.st10{fill:none;}
</style>
<g id="video-2">
	<path class="st0" d="M652.1,531.4h177.2c22.5,0,40.8,18.3,40.8,40.8V661c0,22.5-18.3,40.8-40.8,40.8H652.1
		c-22.5,0-40.8-18.3-40.8-40.8v-88.8C611.3,549.6,629.6,531.4,652.1,531.4z"/>
	<path class="st1" d="M829.3,703.3H652.1c-23.3,0-42.3-18.9-42.3-42.3v-88.8c0-23.3,18.9-42.3,42.3-42.3h177.2
		c23.3,0,42.3,18.9,42.3,42.3V661C871.5,684.3,852.6,703.3,829.3,703.3z M652.1,532.9c-21.7,0-39.3,17.6-39.3,39.3V661
		c0,21.7,17.6,39.3,39.3,39.3h177.2c21.7,0,39.3-17.6,39.3-39.3v-88.8c0-21.7-17.6-39.3-39.3-39.3L652.1,532.9z"/>
	<path class="st2" d="M635.8,725.6h-0.1c-26.5-2.1-47-24.2-47.1-50.8V559.6c0-0.8,0.7-1.5,1.5-1.5s1.5,0.7,1.5,1.5v115.2
		c0.1,25.1,19.4,45.9,44.3,47.8c0.8,0,1.5,0.7,1.4,1.6S636.6,725.6,635.8,725.6L635.8,725.6z"/>
	<path class="st2" d="M843.5,725.7h-3c-0.8,0-1.5-0.7-1.5-1.5s0.7-1.5,1.5-1.5h3c26.5,0,48-21.5,48-48V559.6c0-26.5-21.5-48-48-48
		H667.7c-0.8,0-1.5-0.7-1.5-1.5s0.7-1.5,1.5-1.5h175.9c28.2,0,51,22.8,51,51v115.2C894.5,702.9,871.7,725.7,843.5,725.7z"/>
	<path class="st3" d="M756.9,569.9l-68.8,45.4c-3.2,2.1-4,6.3-1.9,9.5c0.6,0.8,1.3,1.5,2.1,2.1l68.8,41.7c3.2,2,7.4,0.9,9.4-2.3
		c0.7-1.1,1-2.3,1-3.6v-87.1c0-3.8-3.1-6.8-6.8-6.8C759.3,568.8,758,569.2,756.9,569.9z"/>
	<path class="st4" d="M760.7,671.1c-1.5,0-3-0.4-4.3-1.2l-68.7-41.7c-3.9-2.4-5.2-7.5-2.8-11.4c0.6-1.1,1.5-2,2.6-2.7l68.7-45.4
		c3.8-2.5,9-1.5,11.6,2.4c0.9,1.4,1.4,3,1.4,4.6v87.2c0,3-1.6,5.8-4.3,7.3C763.5,670.8,762.1,671.2,760.7,671.1z M757.7,571.1
		L689,616.6c-2.5,1.6-3.1,5-1.5,7.4c0.4,0.6,1,1.2,1.6,1.6l68.7,41.7c2.5,1.5,5.8,0.7,7.3-1.8c0.5-0.8,0.8-1.8,0.8-2.8v-87.1
		c0-3-2.4-5.3-5.4-5.3C759.6,570.3,758.6,570.6,757.7,571.1L757.7,571.1z"/>
</g>
<g id="image-2">
	<path class="st3" d="M299.5,317.4h301.8c32.9,0,59.7,26.7,59.7,59.6v209c0,32.9-26.7,59.7-59.7,59.7H299.5
		c-32.9,0-59.6-26.7-59.6-59.7V377C239.8,344.1,266.5,317.4,299.5,317.4z"/>
	<path class="st4" d="M601.2,317.4c32.9,0,59.7,26.7,59.7,59.6l0,0v209c0,32.9-26.7,59.7-59.6,59.7c0,0,0,0,0,0H299.5
		c-32.9,0-59.7-26.7-59.7-59.7V377c0-32.9,26.7-59.6,59.7-59.6H601.2 M601.2,314.4H299.5c-34.6,0-62.6,28.1-62.7,62.6v209
		c0,34.6,28.1,62.6,62.7,62.7h301.8c34.6,0,62.6-28.1,62.7-62.7V377C663.9,342.5,635.8,314.4,601.2,314.4z"/>
	<path class="st5" d="M239.8,586.1V544L343,463.1l71.9,44.5l88-109.8l158,126.1v62.2c0,32.9-26.7,59.7-59.6,59.7c0,0,0,0,0,0H299.5
		C266.5,645.7,239.8,619,239.8,586.1z"/>
	<path class="st1" d="M601.2,647.2H299.5c-33.8,0-61.1-27.4-61.2-61.2v-42.8l0.6-0.5l104-81.5l71.7,44.3l88.1-109.9l1.2,0.9
		l158.5,126.5v62.9C662.4,619.8,635,647.2,601.2,647.2z M241.3,544.7v41.4c0,32.1,26.1,58.1,58.2,58.2h301.8
		c32.1,0,58.1-26,58.2-58.2v-61.5L503.1,399.9l-87.9,109.6l-72.1-44.6L241.3,544.7z"/>
	<circle class="st5" cx="380.8" cy="388.4" r="24.6"/>
	<path class="st1" d="M380.8,414.5c-14.4,0-26.1-11.7-26.1-26.1s11.7-26.1,26.1-26.1c14.4,0,26.1,11.7,26.1,26.1c0,0,0,0,0,0
		C406.9,402.8,395.2,414.5,380.8,414.5z M380.8,365.3c-12.8,0-23.1,10.3-23.1,23.1s10.3,23.1,23.1,23.1s23.1-10.3,23.1-23.1
		c0,0,0,0,0,0C403.9,375.6,393.6,365.3,380.8,365.3z"/>
	<path class="st4" d="M333.9,368.4c-0.6,0-1.1-0.3-1.4-0.8c-33.9-69.7-100-117.9-149.5-146.1c-53.6-30.6-99.8-44.9-100.3-45
		c-0.8-0.2-1.3-1-1.1-1.8c0.2-0.8,1-1.3,1.8-1.1c0.1,0,0.1,0,0.2,0.1c0.5,0.1,47,14.5,100.9,45.3c31.7,18.1,59.7,38.2,83.3,59.8
		c29.5,27,52.2,56.5,67.3,87.6c0.4,0.8,0,1.7-0.7,2C334.4,368.3,334.2,368.4,333.9,368.4L333.9,368.4z"/>
	<path class="st4" d="M299.1,375.6c-0.6,0-1.1-0.3-1.3-0.8c-23.4-44.5-108.7-75.7-109.5-76c-0.8-0.3-1.2-1.1-0.9-1.9
		c0.3-0.8,1.1-1.2,1.9-0.9c3.6,1.3,87.2,31.9,111.2,77.5c0.4,0.7,0.1,1.6-0.6,2c0,0,0,0,0,0C299.6,375.5,299.4,375.6,299.1,375.6z"
		/>
	<path class="st5" d="M640.1,486.9c-2.2,0-4-1.8-4-4l-0.6-100.1c0-2.2,1.8-4,4-4l0,0c2.2,0,4,1.8,4,4l0.6,100.1
		C644.1,485.1,642.3,486.9,640.1,486.9L640.1,486.9z"/>
</g>
<g id="hand">
	<path class="st6" d="M595.1,890.6C617.6,860,590,715,519.4,723.8l-5-22l-88.1,8.9l3,17.4c0,0-28.3,3-38.2,39.2
		c-15.4,56.3,0,118,4.5,124.6L595.1,890.6z"/>
	<path class="st4" d="M514.4,701.8l5,22c2-0.2,4.1-0.4,6.1-0.4c66.1,0,91.4,137.5,69.5,167.1l-199.4,1.3
		c-4.5-6.5-19.9-68.3-4.5-124.6c9.9-36.2,38.2-39.2,38.2-39.2l-3-17.4L514.4,701.8 M514.5,698.9h-0.3l-88.2,8.8
		c-1.6,0.2-2.8,1.6-2.7,3.3c0,0.1,0,0.1,0,0.2l2.5,14.5c-4.8,1.2-9.4,3.2-13.5,5.9c-8,5.1-18.7,15.3-24.1,34.9
		c-8.3,30.6-7.5,61.5-5.3,82c2.5,23.3,7.5,41.1,10.3,45c0.6,0.8,1.5,1.3,2.5,1.3l0,0l199.4-1.3c0.9,0,1.8-0.5,2.4-1.2
		c7.1-9.6,9.8-29.3,7.5-54c-2.4-24.9-9.7-50.9-19.9-71.3c-7.1-14-15.4-25.1-24.7-33c-10.6-9-22.3-13.6-34.8-13.6
		c-1.3,0-2.5,0-3.8,0.1l-4.4-19.4C517,699.8,515.8,698.8,514.5,698.9L514.5,698.9z"/>
	<path class="st7" d="M514.9,704.3l-88.6,6.4L430,728c20,12,64,11,89-4L514.9,704.3z"/>
	<circle class="st8" cx="560.2" cy="850.6" r="7.9"/>
	<circle class="st8" cx="427.9" cy="770.5" r="7.9"/>
	<circle class="st8" cx="464.9" cy="846.5" r="7.9"/>
	<circle class="st8" cx="540.9" cy="766.4" r="7.9"/>
	<path class="st9" d="M427.2,711.7c0,0-107.8-59.4-40.2-94l-4.8-64.3c0,0,27.7-24.2,47.9,24.1c0,0,23.7-3.6,39.6,11.8
		c0,0,17.7-10.5,38.8,24.8s5.2,87.3,5.2,87.3L427.2,711.7z"/>
	<path class="st4" d="M426.8,713.7l-0.6-0.3c-2.6-1.4-64-35.7-63.5-68.3c0.2-11.3,7.6-20.9,22.2-28.6l-4.7-63.9l0.8-0.7
		c0.4-0.4,10.4-8.9,23.1-5.9c10.8,2.5,20,12.4,27.4,29.4c5.6-0.5,24.6-1.2,38.8,11.6c3.7-1.3,7.8-1.5,11.6-0.4
		c9.9,2.5,19.5,11.4,28.5,26.6c21.3,35.7,6,86.8,5.4,88.9l-0.4,1.3L426.8,713.7z M384.3,554.4l4.8,64.5l-1.2,0.6
		c-13.9,7.1-21,15.8-21.2,25.7c-0.5,28.7,54.7,60.9,60.9,64.4l84.6-9.9c2.2-8.1,13.3-53.3-5.3-84.5c-19.7-33-35.4-24.5-36-24.1
		l-1.3,0.8l-1.1-1c-15-14.5-37.7-11.3-38-11.3l-1.5,0.2l-0.6-1.4c-6.9-16.6-15.4-26.2-25.1-28.4
		C394.3,547.8,386.7,552.7,384.3,554.4z"/>
	<line class="st10" x1="390.5" y1="639" x2="387" y2="617.7"/>
	<path d="M392,639.1c0,0.8-0.6,1.5-1.4,1.6s-1.5-0.6-1.6-1.4l-3.5-21.3c-0.1-0.8,0.4-1.6,1.3-1.7s1.6,0.4,1.7,1.3l3.5,21.3
		C392,638.8,392,639,392,639.1z"/>
	<path d="M443.1,627.4c-0.1,2.3-0.4,4.5-0.8,6.8c-0.1,0.8-0.9,1.4-1.7,1.3c-0.8-0.1-1.4-0.9-1.3-1.7c0,0,0-0.1,0-0.1
		c0-0.3,5.2-27.8-10.8-54.8c-0.4-0.7-0.2-1.6,0.5-2.1c0.7-0.4,1.6-0.2,2.1,0.5C440,592.4,444.2,609.9,443.1,627.4z"/>
	<path d="M481.4,634.3c-0.2,3.2-0.5,5.3-0.6,5.6c-0.1,0.8-0.9,1.4-1.7,1.3c-0.8-0.1-1.4-0.9-1.3-1.7c0-0.3,4.5-31-10.3-50
		c-0.5-0.7-0.4-1.6,0.3-2.1c0.7-0.5,1.6-0.4,2.1,0.3l0,0C481.8,602.8,482,624.2,481.4,634.3z"/>
	<path class="st5" d="M513.3,656.8c-0.8,12.8-5.3,20.5-5.5,20.8c-0.4,0.7-1.3,1-2.1,0.5c-0.7-0.4-1-1.3-0.5-2.1
		c0.2-0.3,17.8-31.6-13.6-72c-0.5-0.7-0.4-1.6,0.3-2.1c0.7-0.5,1.6-0.4,2.1,0.3c17.1,22,20,41.2,19.4,53.5L513.3,656.8z"/>
	<path class="st5" d="M473.4,635.4c-0.1,1.4-0.2,2.3-0.2,2.5c-0.1,0.8-0.8,1.4-1.6,1.3c-0.8-0.1-1.4-0.8-1.4-1.6c0,0,0,0,0,0
		c0-0.4,3.8-40.5-12.4-49.2c-0.7-0.4-1-1.3-0.6-2c0.4-0.7,1.3-1,2-0.6l0,0C474.8,594.1,474,626.1,473.4,635.4z"/>
	<path class="st5" d="M433.7,626.1c0,0.8-0.6,1.4-1.4,1.4c-0.8,0.1-1.5-0.6-1.6-1.4c0-0.5-3.4-50.9-24.7-65.8
		c-0.7-0.4-0.9-1.4-0.5-2.1c0.4-0.7,1.4-0.9,2.1-0.5c0,0,0.1,0.1,0.1,0.1c22.5,15.7,25.8,65.9,26,68
		C433.7,625.9,433.7,626,433.7,626.1z"/>
</g>
<g id="line">
	<path class="st2" d="M829,894H125c-1.1,0-2-0.9-2-2s0.9-2,2-2h704c1.1,0,2,0.9,2,2S830.1,894,829,894z"/>
	<path class="st2" d="M211,919H74c-1.1,0-2-0.9-2-2s0.9-2,2-2h137c1.1,0,2,0.9,2,2S212.1,919,211,919z"/>
	<path class="st2" d="M883,930H775c-1.1,0-2-0.9-2-2s0.9-2,2-2h108c1.1,0,2,0.9,2,2S884.1,930,883,930z"/>
</g>
<g id="okey">
	<path class="st6" d="M701,179.1H770c16.5,0,29.8,13.4,29.8,29.8v60.2c0,16.5-13.4,29.8-29.8,29.8H701c-16.5,0-29.8-13.4-29.8-29.8
		v-60.2C671.2,192.4,684.5,179.1,701,179.1z"/>
	<path d="M770,300.7h-69c-17.5,0-31.6-14.2-31.6-31.6v-60.2c0-17.5,14.2-31.6,31.6-31.6h69c17.5,0,31.6,14.2,31.6,31.6v60.2
		C801.6,286.6,787.5,300.7,770,300.7z M701,180.9c-15.4,0-28,12.6-28,28v60.2c0,15.4,12.6,28,28,28h69c15.4,0,28-12.6,28-28v-60.1
		c0-15.4-12.6-28-28-28L701,180.9z"/>
	<path class="st5" d="M736,275h-0.3c-1.4-0.1-2.7-0.9-3.4-2.2l-32.7-59c-1.1-2-0.4-4.6,1.6-5.7c2-1.1,4.6-0.4,5.7,1.6l29.5,53.3
		l23.8-32.7c1.4-1.9,4-2.3,5.9-0.9s2.3,4,0.9,5.9l0,0l-27.7,38C738.6,274.3,737.3,275,736,275z"/>
	<path d="M658.1,212.3L658.1,212.3c-1,0-1.8-0.8-1.8-1.8c0.4-22.5,6.5-38.1,18.1-46.3c15.1-10.7,33.7-4.6,34.5-4.4
		c1,0.3,1.5,1.2,1.3,2.2c-0.3,1-1.2,1.5-2.2,1.3c-0.1,0-0.2,0-0.2-0.1c-0.2-0.1-17.7-5.7-31.3,3.9c-10.6,7.5-16.1,22.1-16.5,43.4
		C659.9,211.5,659.1,212.3,658.1,212.3z"/>
	<path class="st2" d="M768,210c-1.1,0-2-0.9-2-2c0-0.9,0.6-1.7,1.5-1.9c50.4-12.7,81.3-48.3,98.3-75.9c18.5-30,25.1-57.4,25.2-57.6
		c0.3-1.1,1.3-1.7,2.4-1.5s1.7,1.3,1.5,2.4c-0.1,0.3-6.8,28.2-25.6,58.7c-17.4,28.3-49,64.7-100.8,77.8C768.3,210,768.2,210,768,210
		z"/>
	<path class="st2" d="M791,221.3c-3.3,0-6.6-0.1-10.1-0.3c-1.1-0.1-1.9-1-1.9-2.1s1-1.9,2.1-1.9c41.2,2.6,68.9-11.2,84.9-23.1
		c17.4-13,25.2-26.7,25.2-26.9c0.5-1,1.8-1.3,2.7-0.8c1,0.5,1.3,1.8,0.8,2.7l0,0c-0.3,0.6-8.2,14.5-26.2,28
		C853.3,208.4,827.9,221.3,791,221.3z"/>
</g>
</svg>
