<svg xmlns="http://www.w3.org/2000/svg" viewBox="0 0 1000 1000"><defs><style>.cls-1{fill:#1d1d1b;}.cls-2{fill:#d9cfff;}.cls-3{fill:#1d1e1b;}.cls-4{fill:#fff;}.cls-5{fill:#ffcdb2;}.cls-6{fill:#ffad00;}.cls-7{fill:#6c32ad;}.cls-8{fill:#59298f;}.cls-9{fill:#e89d00;}.cls-10{fill:#ffb49f;}.cls-11{fill:#ffc140;}</style></defs><g id="like"><g id="line"><path class="cls-1" d="M838.37,916.69H164.09a2,2,0,1,1,0-4H838.37a2,2,0,0,1,0,4Z"/><path class="cls-1" d="M224.22,961H93a2,2,0,1,1,0-4H224.22a2,2,0,1,1,0,4Z"/><path class="cls-1" d="M899.67,882.21H796.23a2,2,0,0,1,0-4H899.67a2,2,0,1,1,0,4Z"/></g><g id="like-2" data-name="like"><path class="cls-2" d="M719.93,297.73S709,312.58,710,325.55s55.44,3.88,50.56-7.79-16-25.39-16-25.39Z"/><path class="cls-3" d="M725.72,333.41a35.1,35.1,0,0,1-11.37-1.55c-4.59-1.63-5.72-4.27-5.87-6.2-1-13.37,9.79-28.2,10.25-28.82l.33-.46,26-5.67.59.72c.46.57,11.33,14,16.24,25.75.64,1.52.88,3.88-1.57,6.46C755,329.28,738.6,333.41,725.72,333.41Zm-4.9-34.34c-1.76,2.55-10.17,15.34-9.35,26.36.12,1.52,1.42,2.73,3.88,3.61,10.5,3.74,36.52-.8,42.83-7.46,1.45-1.53,1.25-2.58,1-3.24C755,308.5,746.24,297,743.92,294Z"/><path class="cls-2" d="M634.43,213.59c-8.29,3.93-9.42,10.16-9.12,18.56.42,11.6,5.43,14.73,13.28,22.26-5.5,7.25-1.3,24.39,4.1,30.89,5.18,6.24,15.13,9.81,22.61,11.92,18.52,5.23,34.23,1.8,55.2-.49,18.17-2,39.64-8.43,53.12-23.46a21.66,21.66,0,0,0,3.28-4.94,21.75,21.75,0,0,0,6.68,6.31c.11.17-.3.05-.17.17,6.73,5.71,14.08,4.25,20.65-.55a50.49,50.49,0,0,0,19.45-33.14c2.52-19.65,2.07-53-15.86-66.74-6.08-4.67-17.3-5.47-24.41-1.49-2.76-7.43-8.88-12.93-15.43-16.91-14-8.54-38.78-12.5-37.48-33.8.38-6.22,2-12.09-1.76-18.34-3.31-5.52-7.88-7-14-6.46-13.15,1.05-22.89,12.78-27.22,24.3-8.17,21.77-3.8,51.23-1.19,55.41-.7-.41-24.56-9.23-40.47-3.09-7,2.7-14.06,13.55-15.59,21.59C628.94,201.5,630.29,209.55,634.43,213.59Z"/><path class="cls-3" d="M686,301.46a76.28,76.28,0,0,1-21.12-2.8c-11.48-3.24-19.12-7.29-23.36-12.4-5.57-6.72-9.72-23.29-4.88-31.63L634.86,253c-6.42-6-10.66-9.93-11.05-20.76-.31-8.6,1-14.88,8.24-19.06-3.59-4.79-4.51-12.31-3.45-17.83,1.59-8.34,8.76-19.72,16.52-22.71,12.88-5,31-.48,38.45,2-2.71-9.67-4.72-34.58,2.35-53.39,4.1-10.94,14-24.12,28.5-25.28,7.33-.59,12.1,1.63,15.43,7.18s2.78,10.71,2.27,15.76c-.11,1.13-.23,2.3-.3,3.45-.91,15.06,12.23,20.92,24.94,26.59a104.33,104.33,0,0,1,11.83,5.84c7.51,4.57,12.7,10,15.43,16.13,7.52-3.34,18.36-2.39,24.54,2.35,16.89,13,19.57,43.7,16.44,68.13a51.68,51.68,0,0,1-20,34.16c-8.12,5.93-15.9,6.09-22.51.49l-.78-.67,0-.08a22.63,22.63,0,0,1-4.58-4.15,22,22,0,0,1-2.37,3.21c-15.62,17.41-40.59,22.48-54.08,24-3.46.38-6.78.79-10,1.19C702,300.47,694,301.46,686,301.46ZM659,173.32a35.76,35.76,0,0,0-12.76,2.08c-6.54,2.52-13.25,13.07-14.66,20.47-1,5.24,0,12.85,3.93,16.65L637,214l-1.95.93c-7.34,3.47-8.56,8.71-8.26,17.15.35,9.58,3.81,12.81,10.1,18.67.86.8,1.77,1.65,2.72,2.56l1,.92-.81,1.07c-4.93,6.5-1.06,22.85,4.06,29,3.84,4.63,11,8.37,21.87,11.44,15.17,4.28,28.15,2.68,44.59.65,3.22-.4,6.56-.81,10-1.19,13.07-1.43,37.22-6.31,52.18-23a19.79,19.79,0,0,0,3-4.59l1.11-2.26,1.46,2.06a20.51,20.51,0,0,0,6.23,5.88l.33.2.41.69c5.31,4.08,11.41,3.69,18.09-1.19,9.87-7.21,17.27-19.81,18.84-32.12,3-23.61.6-53.18-15.29-65.36-5.66-4.35-16.3-5-22.76-1.37l-1.53.85-.61-1.64c-2.27-6.13-7.25-11.56-14.8-16.15a105.24,105.24,0,0,0-11.49-5.67c-13-5.79-27.75-12.36-26.71-29.5.07-1.21.19-2.41.31-3.57.47-4.77.92-9.27-1.86-13.91s-6.4-6.23-12.62-5.74c-13.07,1-22.14,13.23-25.94,23.34-8.08,21.52-3.69,50.29-1.31,54.08l3.24,5.18-5.27-3.09C685.27,178.34,672.11,173.32,659,173.32Zm124.4,99.93h0Z"/><path class="cls-2" d="M783.19,172.54s23.06,46.46-6.42,95.73"/><path class="cls-3" d="M778.06,269l-2.58-1.54c28.69-48,6.6-93.83,6.37-94.29l2.69-1.33C784.77,172.35,807.61,219.64,778.06,269Z"/><path class="cls-4" d="M695.71,174.46a3,3,0,0,1-2.88-2.18c-6.72-23.68-1.46-40.38,4.13-50.22,6.12-10.75,13.86-15.81,14.18-16a3,3,0,0,1,3.26,5h0c-1.13.73-27.46,18.45-15.8,59.56a3,3,0,0,1-2.07,3.71A2.89,2.89,0,0,1,695.71,174.46Z"/><path class="cls-4" d="M801.2,268.72a3,3,0,0,1-1.7-.53,3,3,0,0,1-.76-4.18c24.69-35.62,7.48-66.17,6.74-67.45a3,3,0,0,1,5.18-3c.21.36,5.15,8.93,6.76,22.35,1.48,12.33.3,31.29-13.75,51.55A3,3,0,0,1,801.2,268.72Z"/><path class="cls-4" d="M728.78,325.16a48.34,48.34,0,0,1-13.56-1.73,3,3,0,1,1,1.8-5.72,52.17,52.17,0,0,0,31.9-2.45,3,3,0,1,1,2.22,5.57A60.24,60.24,0,0,1,728.78,325.16Z"/><path d="M730.76,296.57a84.39,84.39,0,0,1,15.94-11.79c1.45-.83,2.93-1.62,4.42-2.36.72-.36,1.44-.7,2.16-1s1.37-.62,2-.85a14.76,14.76,0,0,1,7.29-1.23c-.28,0,.22,0,.22,0l.37.08a7.32,7.32,0,0,1,.8.23c.45.16-.24-.12.19.08l.39.2.25.15s.48.35.3.2a3.91,3.91,0,0,1,1.53,2.7c0-.27,0,.25,0,.24s0,.22,0,.32a4.42,4.42,0,0,1-.07.73A6.58,6.58,0,0,1,766,286a7.91,7.91,0,0,1-2.23,2.7c-2.47,1.83-5.78,2.07-8.75,2.08-3.62,0-7.23-.17-10.85-.16-7.44,0-14.89.4-22.3,1.1q-5.7.54-11.37,1.34c-3.39.48-6.8,1-10.14,1.71-5.52,1.26-11.45,3.94-13.31,9.75-1.54,4.81.24,11.1,5.78,12.18,3.35.66,6.64-.74,9.42-2.51,3.07-1.94,5.9-4.3,8.8-6.49l18.24-13.76,4.49-3.38a1.54,1.54,0,0,0,.54-2,1.51,1.51,0,0,0-2-.54l-18.35,13.84-9.17,6.91c-2.57,1.94-5.24,4.13-8.42,4.93a5.9,5.9,0,0,1-3.87-.18,5.7,5.7,0,0,1-.76-.43s-.39-.29-.15-.1l-.27-.23a5.53,5.53,0,0,1-.53-.55c-.29-.33.15.24-.1-.13-.08-.12-.16-.23-.23-.35a5.22,5.22,0,0,1-.39-.74c-.19-.41.09.27-.07-.16a3.38,3.38,0,0,1-.11-.34,6.53,6.53,0,0,1-.2-.76c0-.14-.06-.28-.09-.43-.06-.35,0,.15,0-.18a12.2,12.2,0,0,1,0-1.71,7,7,0,0,1,.26-1.46,8,8,0,0,1,1.34-2.92,5.46,5.46,0,0,1,.42-.51c.24-.26.49-.51.74-.75a12.14,12.14,0,0,1,1.56-1.22,23.27,23.27,0,0,1,8.09-3c3.41-.72,6.88-1.2,10.34-1.67q5.52-.75,11.07-1.24c7.49-.66,15-1,22.55-1,3.54,0,7.11.27,10.65.12,3.28-.14,6.7-.79,9.32-2.9a9.84,9.84,0,0,0,3.77-7.27,7.05,7.05,0,0,0-4.1-6.46,12.6,12.6,0,0,0-8-.39,36.58,36.58,0,0,0-8.3,3.33,87.21,87.21,0,0,0-16.83,11.1c-1.28,1.07-2.53,2.19-3.75,3.33-1.41,1.33.72,3.45,2.12,2.12Z"/><path d="M751.82,328.07c2.63-.75,5.15.6,6.9,2.52a11.62,11.62,0,0,1,2.76,8.64c-.37,7.41-5.25,13.52-8.42,19.91-2.92,5.91-4.66,13.06-1.6,19.29a14.87,14.87,0,0,0,2.12,3.05c.19.21.36.44.54.66s.28.36.08.1l.42.55c1.18,1.57,2.32,3.18,3.46,4.78q4.09,5.79,8.06,11.67a103.16,103.16,0,0,1,6.27,9.9c5.63,10.73,8,23.06,8.52,35.08a111.45,111.45,0,0,1-4.8,37.85q-.68,2.13-1.44,4.23a1.5,1.5,0,0,0,2.9.79A111.67,111.67,0,0,0,784,448.71c0-12.73-2.07-25.7-7.25-37.39a74.68,74.68,0,0,0-6.57-11.41q-3.94-5.85-8-11.63a112,112,0,0,0-6.67-9.08c-4.23-4.91-2.9-12.16-.4-17.53,3.13-6.75,8-12.8,9.1-20.36a16,16,0,0,0-1.68-10.49,12.12,12.12,0,0,0-7.1-5.7,8.69,8.69,0,0,0-4.47.05,1.51,1.51,0,0,0,.8,2.9Z"/><path d="M737.38,298.27a50.23,50.23,0,0,1,28.6,15.9,47.28,47.28,0,0,1,5.52,7.51,1.5,1.5,0,0,0,2.59-1.52A53.21,53.21,0,0,0,747.53,298a50.5,50.5,0,0,0-9.36-2.58,1.54,1.54,0,0,0-1.84,1.05,1.5,1.5,0,0,0,1,1.84Z"/><path d="M662.46,222.72c-17.64,0-28.92-7.76-29.4-8.09a1.5,1.5,0,0,1,1.72-2.46c.11.08,11.48,7.88,28.77,7.54a1.5,1.5,0,0,1,.06,3Z"/><path d="M659.35,262.58c-11.76,0-22.62-6.68-23.17-7a1.5,1.5,0,1,1,1.58-2.54c.16.09,15.38,9.45,28.3,5.65a1.5,1.5,0,1,1,.85,2.88A26.93,26.93,0,0,1,659.35,262.58Z"/><path class="cls-4" d="M642.52,210.74a3,3,0,0,1-2.21-1c-3.55-3.87-5.06-8.18-4.52-12.8,1.23-10.26,12.61-18.05,13.09-18.38a3,3,0,0,1,3.36,5h0c-.1.07-9.6,6.6-10.49,14.14-.33,2.84.64,5.46,3,8a3,3,0,0,1-2.22,5Z"/><path class="cls-4" d="M638.83,248.62a3,3,0,0,1-2.39-1.19c-9.08-12-5-22.73-1.59-26.7a3,3,0,0,1,4.56,3.9c-.31.37-6.51,8.14,1.82,19.18a3,3,0,0,1-2.4,4.81Z"/><path class="cls-4" d="M653.85,288.61a3,3,0,0,1-1.8-.6c-8-6-11.93-11.58-11.77-16.64a8.45,8.45,0,0,1,3.53-6.69l3.29,5,.07,0a2.52,2.52,0,0,0-.89,2c0,1.35.91,5.19,9.37,11.54a3,3,0,0,1-1.8,5.4Z"/><path class="cls-1" d="M663.23,138a1.51,1.51,0,0,1-1.5-1.44c-1.18-30,9.62-46,18.88-54.08C690.71,73.66,701,72.05,701.43,72a1.5,1.5,0,0,1,.44,3,42.56,42.56,0,0,0-19.41,9.9c-12.49,11-18.63,28.84-17.73,51.59a1.5,1.5,0,0,1-1.44,1.56Z"/><path class="cls-1" d="M811.63,146.28c6.87-1.5,14.1,1.38,19.25,6,5.64,5,9.17,12,11.83,18.91a131.8,131.8,0,0,1,6.61,23.95,133.76,133.76,0,0,1,2.06,24.63,132.14,132.14,0,0,1-2.52,24.69c-.2,1-.41,2-.64,3a1.5,1.5,0,0,0,2.9.8,136.86,136.86,0,0,0,3.2-25.66,138.43,138.43,0,0,0-1.68-25.8A133.69,133.69,0,0,0,846.23,172c-2.73-7.49-6.22-14.95-11.91-20.67-5.3-5.33-12.9-9.06-20.56-8.42a22.1,22.1,0,0,0-2.92.43,1.5,1.5,0,0,0,.79,2.9Z"/></g><g id="woman"><path class="cls-5" d="M759.14,465.84s-25.37,8.37-28.93,42.19-8.5,66.45-8.5,66.45l52.42-2.25Z"/><path class="cls-1" d="M720,576.06l.27-1.8c0-.33,5-33,8.5-66.38,3.62-34.39,29.69-43.38,29.95-43.47l1.7-.56,15.48,109.81Zm38-108.12c-5.63,2.5-23.3,12.5-26.21,40.25-3.05,29-7.17,57.41-8.25,64.72l49-2.1Z"/><path class="cls-5" d="M767.13,571.91s30.75,5.39,42.39-25.54,12.8-63.21-4.3-82.21-37.05-19.85-50-13.49-15,20.69-3.84,35.26c0,0-20,15.26,1.14,39.73,0,0-20.95,34.26,15,33.33Z"/><path d="M818.07,498.74c.77,14.84-2.45,31.42-8.55,47.63-11.64,30.93-42.39,25.54-42.39,25.54l.42-12.92c-15.89.41-20.67-6-21-13.39-.49-9.26,6-19.94,6-19.94-6.85-7.9-9.39-14.85-9.69-20.63-.63-12.11,8.55-19.1,8.55-19.1-4.6-6-6.95-11.94-7.23-17.31-.4-7.69,3.45-14.2,11.07-17.95,12.93-6.36,32.87-5.51,50,13.49,8.14,9,12.14,21.1,12.85,34.58m2.55-.13c-.78-14.91-5.33-27.07-13.51-36.16s-17.83-15-27.93-17.05a39.2,39.2,0,0,0-25.07,3c-8.4,4.13-13,11.56-12.49,20.38.28,5.43,2.48,11.21,6.37,16.82a26,26,0,0,0-7.69,19.59c.36,6.8,3.43,13.78,9.14,20.78-1.88,3.48-5.91,12-5.5,19.79.38,7.11,4.39,15.42,21,15.81l-.33,10.28V572a2.56,2.56,0,0,0,2.11,2.39,45,45,0,0,0,17.95-1.23c8.91-2.46,20.88-9,27.27-25.93,6.47-17.17,9.48-34,8.71-48.66Z"/><path class="cls-1" d="M797.15,494.51a1.53,1.53,0,0,1-1.06-.44h0c-.71-.71-17.84-17.35-43.74-6.87a1.5,1.5,0,0,1-1.13-2.78c27.79-11.24,46.81,7.34,47,7.53a1.5,1.5,0,0,1-1.06,2.56Z"/><path class="cls-1" d="M789.31,527.47a1.52,1.52,0,0,1-.42-.06c-.22-.07-22-6.26-35.33-.09a1.5,1.5,0,0,1-1.26-2.73c14.37-6.63,36.49-.34,37.43-.06a1.5,1.5,0,0,1-.42,2.94Z"/><path class="cls-4" d="M808,483a3,3,0,0,1-2.8-1.92c-.1-.27-6-15.12-20-21.23-8.68-3.81-18.75-3.52-29.92.87a3,3,0,0,1-2.19-5.59c12.74-5,24.37-5.25,34.58-.75,16.3,7.18,22.85,23.84,23.12,24.54A3,3,0,0,1,809,482.8,3.17,3.17,0,0,1,808,483Z"/><path class="cls-6" d="M479.1,541.47s31.92,153,161.43,210.3c97.51,43.18,92.85,34.09,129.9,6.62,32.43-24,78.69-117.64,68.09-145.65S806.62,587,806.62,587L803,564.6l-79-4.22-.9,15.31s-29.39,9.48-27.7,37.17-2.48,65.52,5.95,79.19c0,0-29.31-109.84-200.13-133.62"/><path class="cls-1" d="M727.5,783.09c-15.88,0-39.43-8.63-87.58-29.94-67.29-29.8-107.83-85.69-130-127.33-24-45.07-32.21-83.66-32.29-84.05l2.93-.61c.08.38,8.24,38.62,32.05,83.33,21.93,41.2,62,96.48,128.51,125.91,87.29,38.65,91.47,35.39,118.69,14.22,2.88-2.24,6.13-4.77,9.72-7.43,15-11.08,34.47-38.87,49.72-70.78,15.67-32.8,22.51-60.83,17.85-73.14C827,586.66,807,588.49,806.78,588.5l-1.41.16L801.67,566,725.35,562l-.87,14.84-1,.31c-1.15.38-28.26,9.48-26.66,35.66.55,8.86.49,18.86.43,28.52-.08,15-.17,30.4,2.07,41a79.49,79.49,0,0,1,3.4,9.4l2.63,9.85L700,692.84a31.1,31.1,0,0,1-3.51-9.45c-4.47-10.51-14.07-28.89-32.44-48.34-26-27.54-75.41-62.93-163.11-75.14l.41-3c39.13,5.45,74.06,15.9,103.81,31.06,23.84,12.15,44.43,27.33,61.2,45.13A176.27,176.27,0,0,1,695,673c-.83-9.31-.77-20.35-.71-31.72.06-9.61.11-19.55-.42-28.32-1.57-25.58,22.54-36.32,27.75-38.33l.93-15.81,81.71,4.35,3.65,22.32c5.12.08,22.74,2.2,32,26.73,5,13.25-1.7,41.47-18,75.49-15.44,32.33-35.32,60.55-50.63,71.9-3.56,2.64-6.81,5.16-9.66,7.38C748.92,776.9,741,783.09,727.5,783.09Z"/><path class="cls-7" d="M403.67,478.36s-3.3,39.55-31.24,31-72.49-19.14-89.17,22.32-24.15,70.65-55.6,69.6-71.16,93.62,12.85,120.52c137.67,44.09,238.3-204.75,238.3-204.75l-24.75-22Z"/><path d="M403.67,478.36l50.39,16.76,24.75,22S396,721.78,277.9,727a106.42,106.42,0,0,1-37.39-5.14c-82.93-26.56-45.3-119.15-14.07-120.51.41,0,.81,0,1.22,0,1.23,0,2.42,0,3.59,0,28.45-1.25,36-29.76,52-69.59,8.84-22,25.51-29.32,43.38-30.1,15.86-.69,32.66,3.77,45.79,7.78a24.86,24.86,0,0,0,8.36,1.19c20.27-.89,22.88-32.21,22.88-32.21m-.11-2.53a2.5,2.5,0,0,0-1.29.42,2.53,2.53,0,0,0-1.13,1.9c0,.39-2.7,29.1-20.46,29.88a22.67,22.67,0,0,1-7.51-1.07c-14.07-4.3-30.62-8.59-46.64-7.89-22.2,1-37.55,11.63-45.62,31.69-1.84,4.56-3.56,9-5.22,13.22-12.65,32.36-21,53.74-44.55,54.77-1.1,0-2.24.06-3.4,0-.46,0-.94,0-1.41,0-8.23.36-16.81,6.09-24.15,16.12a78,78,0,0,0-13.82,35.19c-2.08,15.5.66,30.16,7.91,42.39,8.65,14.61,23.28,25.3,43.46,31.76A109.43,109.43,0,0,0,278,729.49c27.51-1.21,55.34-13.17,82.72-35.55,21.75-17.78,43.29-42.15,64-72.44A618.83,618.83,0,0,0,481.16,518a2.55,2.55,0,0,0-.67-2.85l-24.74-21.95a2.72,2.72,0,0,0-.89-.51L404.47,476a2.61,2.61,0,0,0-.91-.13Z"/><path class="cls-8" d="M454.06,495.12l-50.39-16.76S402,497.85,391.4,506.52l35.73,34.3s-44.95,28.83-61.92,61.91c-11.4,22.24-54.87,122-25.15,103.08C366.48,689,390,664.14,409.84,637.89c20.57-52.25,44.29-112.57,53-135Z"/><path class="cls-6" d="M630.07,681.41C703.59,773,695.86,914,695.86,914H323.66s3.39-363.84,153.7-357.47"/><path class="cls-1" d="M695.86,915.49H323.66a1.5,1.5,0,0,1-1.07-.44,1.49,1.49,0,0,1-.43-1.07,1052.49,1052.49,0,0,1,12-135.4c6.62-42.3,15.53-79.48,26.5-110.49,13.75-38.88,30.79-68.16,50.66-87,19.3-18.32,41.55-27.07,66.14-26a1.49,1.49,0,0,1,1.43,1.56A1.52,1.52,0,0,1,477.3,558c-23.74-1-45.26,7.48-63.94,25.22-44.29,42-65.92,129.67-76.26,195.77a1059.51,1059.51,0,0,0-11.92,133.48H694.42A447.16,447.16,0,0,0,689,832.22c-6.59-42.4-22.38-102.82-60.14-149.87a1.5,1.5,0,1,1,2.34-1.88C669.43,728.05,685.37,789,692,831.83c7.2,46.31,5.36,81.89,5.34,82.25A1.49,1.49,0,0,1,695.86,915.49Z"/><circle class="cls-7" cx="450.19" cy="384.65" r="35.68"/><path d="M443.38,349.62a35.69,35.69,0,1,1-26.38,22,35.58,35.58,0,0,1,26.38-22m-.49-2.49a38.24,38.24,0,1,0,21.3,2,38.09,38.09,0,0,0-21.3-2Z"/><path class="cls-7" d="M559.59,486s22.73-23.71,10.17-44.93-18.17-18.77-24.06-30.39-28.63-21.72-47.86-14.19c0,0-26.19-16.12-47.83-8.38s-28.4,19-33.13,36.92-10.29,26.16-14,38.63-7.9,46.9,41.46,67.47S559.59,486,559.59,486Z"/><path d="M455,386.69c20.46-4,42.8,9.75,42.8,9.75a36.35,36.35,0,0,1,6.42-1.86c17.59-3.44,36.2,5.71,41.44,16.05,5.89,11.62,11.49,9.18,24.06,30.39S559.59,486,559.59,486s-39.86,39.72-80.8,47.73c-11.71,2.29-23.51,2-34.49-2.6-49.36-20.57-45.21-55-41.46-67.47s9.32-20.73,14-38.63,11.49-29.17,33.13-36.92a35.06,35.06,0,0,1,5-1.37m-.49-2.49a36.57,36.57,0,0,0-5.39,1.48c-22.65,8.1-29.89,20.31-34.73,38.66A161.5,161.5,0,0,1,406,448a141.9,141.9,0,0,0-5.62,14.86,51.61,51.61,0,0,0,.86,32.3c5.94,16.22,20.09,29.09,42.05,38.25,10.59,4.41,22.69,5.33,36,2.74,21.6-4.23,42.79-17.18,56.75-27.3a232.54,232.54,0,0,0,25.35-21.12l0,0a64.4,64.4,0,0,0,10.25-15.17c5.76-12,5.86-23.37.27-32.81-7.16-12.08-12.16-16.73-16.18-20.47-3.12-2.91-5.38-5-7.8-9.77-5.68-11.21-25.22-21.11-44.19-17.4a40.48,40.48,0,0,0-5.69,1.55c-4.85-2.76-24.7-13.12-43.53-9.44Z"/><path d="M469.77,470l-.12,0c-15.82,1.64-32.63-12.25-33.33-12.84a1.27,1.27,0,0,1,1.62-1.95c.17.14,16.7,13.8,31.45,12.27a1.27,1.27,0,0,1,.38,2.5Z"/><path class="cls-4" d="M468.64,459a39.64,39.64,0,0,1-10.74.57,1.27,1.27,0,0,1-1.17-1.36,1.25,1.25,0,0,1,1.36-1.16c31.21,2.31,37.77-29.75,38-31.12a1.27,1.27,0,0,1,2.49.48C498.56,426.77,493,454.29,468.64,459Z"/><path class="cls-4" d="M503.8,545.49s65.16,47.93-18.54,49c0,0-13.41,29.33-44.38,18s-21.3-40.16-1.51-49.35C456.53,555.25,503.8,545.49,503.8,545.49Z"/><path d="M458.61,616.15a38.38,38.38,0,0,1-18.17-2.4c-12.92-4.72-20.28-13-20.72-23.4-.48-11.21,7.38-22.84,19.11-28.29,17.1-7.93,62.78-17.41,64.71-17.81a1.3,1.3,0,0,1,1,.22c1.18.88,29,21.53,24.1,36.74-3,9.24-17.3,14.15-42.6,14.58C484.21,599.26,475.46,614,458.61,616.15Zm44.88-69.3C498.11,548,455.73,557,439.9,564.36c-10.65,4.95-18.07,15.83-17.65,25.89.39,9.27,7.16,16.77,19.06,21.12,12.39,4.52,23.35,3,32.57-4.57A40.34,40.34,0,0,0,484.11,594a1.27,1.27,0,0,1,1.14-.74c24.22-.32,38.39-4.76,41-12.83C530.25,567.91,507,549.56,503.49,546.85Z"/><path d="M409.13,358a1.24,1.24,0,0,1-.43,0,1.27,1.27,0,0,1-1.07-1.44c1.28-8.59,4.92-15.13,10.81-19.45,10.36-7.61,23.88-5.58,24.44-5.49a1.27,1.27,0,1,1-.39,2.5c-.13,0-13.07-1.94-22.57,5-5.31,3.91-8.6,9.89-9.78,17.77A1.27,1.27,0,0,1,409.13,358Z"/><path class="cls-9" d="M725.08,576.93s18.83,34.18,81.19,11.51l-4.15-22-75.61-4.23Z"/><path class="cls-4" d="M422.19,377.86a1.33,1.33,0,0,1-1.52-1.69c2.86-9.18,7.73-15.41,14.5-18.49,11-5,22.76.07,23.26.29a1.32,1.32,0,1,1-1.06,2.42c-.11-.05-11.26-4.81-21.12-.3-6,2.77-10.43,8.44-13.05,16.86A1.33,1.33,0,0,1,422.19,377.86Z"/><path class="cls-5" d="M499,547.43l2.72,13.91s-17,40.89-69.22,20.27c0,0,16.35-37.14,20.95-78.32,0,0-18.08-1.31-17.56-17.37s12.73-20.55,20.78-17.38c0,0,32,16.09,52.94-48.88,0,0,32.77,8.26,43.78,39.32s10,69-13,83.19S499,547.43,499,547.43Z"/><path d="M509.61,419.66s32.77,8.26,43.78,39.32,10,69-13,83.19a53.82,53.82,0,0,1-17.88,7.17c-14,2.73-23.51-1.91-23.51-1.91l2.72,13.91s-8.57,20.56-32.16,25.17c-9.68,1.89-21.88,1.1-37.06-4.9,0,0,16.35-37.14,20.95-78.32,0,0-18.08-1.31-17.56-17.37.36-11.24,6.45-16.81,12.83-18.06a14.23,14.23,0,0,1,7.95.68,23.37,23.37,0,0,0,13.94,1.28c11.18-2.19,26.93-12.69,39-50.16m-.48-2.49a2.55,2.55,0,0,0-1.93,1.72c-11.71,36.33-26.62,46.4-37.07,48.44a21.25,21.25,0,0,1-12.33-1.06l-.2-.09a16.93,16.93,0,0,0-9.37-.81c-6.92,1.35-14.46,7.44-14.88,20.46a17.56,17.56,0,0,0,9.95,17,28.23,28.23,0,0,0,7.34,2.56c-4.85,39.34-20.3,74.8-20.46,75.16a2.52,2.52,0,0,0,1.39,3.38c14.1,5.57,27.05,7.26,38.48,5,24.63-4.82,33.64-25.79,34-26.68a2.64,2.64,0,0,0,.15-1.47l-1.88-9.58a45.82,45.82,0,0,0,20.67.56,56.5,56.5,0,0,0,18.72-7.5c11.38-7,18.45-19.85,20.45-37.13,1.74-15.1-.53-32.53-6.39-49.07-4.69-13.25-14.06-24.52-27.07-32.61a71.56,71.56,0,0,0-18.48-8.31,2.57,2.57,0,0,0-1.1,0Z"/><path d="M500,550a1.12,1.12,0,0,1-.41,0c-15.07-2-28.23-14.84-28.78-15.38a1.27,1.27,0,1,1,1.78-1.8c.13.12,13.12,12.82,27.33,14.66a1.27,1.27,0,0,1,1.09,1.42A1.25,1.25,0,0,1,500,550Z"/><path d="M452.44,495.91a1.28,1.28,0,0,1-1.23-.45c-4.31-5.3-5.82-10-4.49-13.89,1.93-5.65,9-7.37,9.3-7.44a1.27,1.27,0,0,1,.58,2.47c-.08,0-6,1.48-7.48,5.79-1,3,.34,6.9,4.06,11.47a1.28,1.28,0,0,1-.74,2.05Z"/><path class="cls-10" d="M517.52,467.16c-17.72,4.88-42.37-1.57-46.15,5.07s-.12,15.06,9.73,16.61,19.47.7,39.13-2S559,480,556.08,469.56,543.58,460,517.52,467.16Z"/><circle class="cls-6" cx="446.2" cy="503.73" r="5.84"/><path d="M445.08,498a5.74,5.74,0,0,1,3.26.3,5.84,5.84,0,0,1-1,11.16,5.71,5.71,0,0,1-3.25-.3,5.83,5.83,0,0,1,1-11.16m-.49-2.49a8.38,8.38,0,1,0,4.68.43,8.36,8.36,0,0,0-4.68-.43Z"/><circle cx="539.31" cy="476.06" r="3.31"/><circle cx="493.34" cy="481.8" r="3.31"/><path class="cls-4" d="M439.87,577.7a1.25,1.25,0,0,1-.88-.14,1.28,1.28,0,0,1-.46-1.74c9.86-17,16.69-50.72,16.76-51.06a1.27,1.27,0,0,1,2.49.5c-.28,1.4-7,34.48-17,51.84A1.25,1.25,0,0,1,439.87,577.7Z"/><path class="cls-1" d="M509.08,530.22H509c-8.83-.07-15.71-8.46-16-8.81a1.5,1.5,0,0,1,2.33-1.89c.07.07,6.31,7.65,13.71,7.7h.08c3.66,0,7.09-1.88,10.19-5.59a1.5,1.5,0,1,1,2.3,1.93C517.87,528,513.67,530.22,509.08,530.22Z"/><circle class="cls-11" cx="374.22" cy="883.53" r="6.9"/><circle class="cls-11" cx="362.35" cy="780.9" r="6.9"/><circle class="cls-11" cx="506.53" cy="787.69" r="6.9"/><circle class="cls-11" cx="471.75" cy="838.57" r="6.9"/><circle class="cls-11" cx="588.98" cy="894.65" r="7.79"/><circle class="cls-11" cx="656.65" cy="816.52" r="6.9"/><circle class="cls-11" cx="607.45" cy="722.38" r="6.9"/><circle class="cls-11" cx="701.6" cy="744.43" r="6.9"/><circle class="cls-11" cx="624.97" cy="663.53" r="6.9"/><circle class="cls-11" cx="705.55" cy="666.85" r="6.9"/><circle class="cls-11" cx="511.62" cy="641.81" r="6.9"/><circle class="cls-11" cx="752.12" cy="614.88" r="6.9"/><circle class="cls-11" cx="820.77" cy="644.27" r="6.9"/><circle class="cls-11" cx="763.19" cy="712.89" r="6.9"/><circle class="cls-11" cx="774.76" cy="657.33" r="6.9"/><circle class="cls-11" cx="400.51" cy="674.89" r="6.9"/><path class="cls-1" d="M224.77,594.47q-7,0-14.08-.7c-21.14-2.06-43.14-8.72-65.4-19.78a274.53,274.53,0,0,1-63.91-44.48,2,2,0,0,1,0-2.82,2,2,0,0,1,2.83,0,270.42,270.42,0,0,0,63,43.79c34.2,17,85.64,31.78,136.57,5.89a2,2,0,0,1,1.81,3.57A132.76,132.76,0,0,1,224.77,594.47Z"/><path class="cls-1" d="M200.65,646.28a152.37,152.37,0,0,1-29-3A216,216,0,0,1,128.61,630a2,2,0,1,1,1.65-3.64c.74.34,74.08,33.09,115.05,3.59a2,2,0,0,1,2.33,3.25C235.58,641.88,219.62,646.28,200.65,646.28Z"/><path class="cls-1" d="M531,501.18a1.5,1.5,0,0,1-1.39-.93l-11-27.14a1.5,1.5,0,1,1,2.78-1.13l11,27.14a1.49,1.49,0,0,1-.82,1.95A1.44,1.44,0,0,1,531,501.18Z"/><path class="cls-6" d="M411.82,582.6c-56.26,49-171.95,174-172,208.12S263.44,831,263.44,831l-5.15,25.35,82.47,36.4,7.13-15.94S383,878.59,392.4,848.4,422.72,700.62,447.24,679"/><path class="cls-1" d="M340.76,894.25a1.62,1.62,0,0,1-.61-.12l-82.46-36.4a1.48,1.48,0,0,1-.86-1.67L261.71,832c-5.17-2-23.37-11.2-23.36-41.27,0-20.79,40.89-71.23,65.26-99.44,34.14-39.54,77.23-83.66,107.22-109.81a1.5,1.5,0,1,1,2,2.26c-29.89,26.06-72.86,70.07-106.92,109.51-41.6,48.17-64.52,82.79-64.53,97.48,0,32.47,21.55,38.59,22.47,38.84a1.49,1.49,0,0,1,1.09,1.74L260,855.48l80,35.3,6.52-14.57a1.51,1.51,0,0,1,1.44-.89c1.4.07,34.1,1.34,43-27.36,2.38-7.66,5.58-21.29,9.29-37.08,10.9-46.43,27.37-116.6,46-133a1.5,1.5,0,1,1,2,2.25c-17.9,15.8-34.24,85.4-45.05,131.46-3.72,15.85-6.93,29.53-9.34,37.29-8.68,28-39,29.46-45,29.48l-6.73,15A1.51,1.51,0,0,1,340.76,894.25Z"/><path class="cls-9" d="M264.79,830.92a21.26,21.26,0,0,1-3.8-1.57c20.57-2.67,67.69-2.9,86.74,45.86-.84,0-1.32,0-1.32,0l-6.89,15.4-79.7-35.17Z"/><path class="cls-5" d="M364.57,912.19s7.82-34-26.06-48.86-69.87-18-92.1,0-24.35,40.23-18,55,22.23,18,39.17,6.35c0,0,15.88,23.29,44.47,1.06,0,0,37.05,25.41,38.11-14.82Z"/><path d="M285.79,851c16.63,0,35,4.57,52.72,12.34,33.88,14.82,26.06,48.86,26.06,48.86L350.16,911c-.47,17.78-8,22.73-16.19,22.73-10.38,0-21.92-7.91-21.92-7.91-9.24,7.18-17.15,9.61-23.62,9.61-13.57,0-20.85-10.67-20.85-10.67-7,4.79-13.74,7.07-19.76,7.07-8.62,0-15.67-4.69-19.41-13.42-6.35-14.82-4.24-37.06,18-55C257,854.76,270.69,851,285.79,851m0-2.86c-16.69,0-30.55,4.37-41.18,13s-17.78,19.06-20.69,30.22a43.83,43.83,0,0,0,1.86,28.18c4.13,9.64,12.16,15.16,22,15.16,6.09,0,12.68-2.11,19.17-6.13a29.11,29.11,0,0,0,21.44,9.73c7.62,0,15.6-3,23.75-9,3.79,2.3,13,7.29,21.79,7.29,8,0,17.49-4,18.89-22.49l11.47,1h.24a2.87,2.87,0,0,0,2.79-2.22A50.23,50.23,0,0,0,367,892.7c-2.22-10.1-8.78-23.85-27.38-32-18.81-8.23-37.43-12.58-53.87-12.58Z"/><path class="cls-1" d="M268.18,929.63a1.49,1.49,0,0,1-1.41-1c-12-34.67,11.94-56.71,12.18-56.93a1.5,1.5,0,1,1,2,2.23c-.23.21-22.65,21-11.36,53.73a1.49,1.49,0,0,1-.93,1.9A1.37,1.37,0,0,1,268.18,929.63Z"/><path class="cls-1" d="M311.2,929.83a1.49,1.49,0,0,1-1.39-.94c-7.53-18.82,2-46.78,2.44-48a1.5,1.5,0,1,1,2.84,1c-.1.28-9.6,28.09-2.49,45.87a1.51,1.51,0,0,1-.84,2A1.54,1.54,0,0,1,311.2,929.83Z"/><path class="cls-1" d="M351.16,915.74a1.61,1.61,0,0,1-.48-.08,1.5,1.5,0,0,1-.94-1.9c.05-.16,5.4-16.38-.25-26.26A1.5,1.5,0,0,1,352.1,886c6.32,11.05.72,28,.48,28.7A1.5,1.5,0,0,1,351.16,915.74Z"/><circle class="cls-11" cx="387.66" cy="664.87" r="5.8"/><circle class="cls-11" cx="373.76" cy="790.02" r="5.8"/><circle class="cls-11" cx="278.56" cy="787.88" r="5.8"/><path class="cls-4" d="M236.45,923a3,3,0,0,1-2.84-2.06c-4.81-14.43-4.42-27.35,1.15-38.41,8.92-17.66,27.78-24,28.58-24.22a3,3,0,1,1,1.85,5.71h0c-.17.06-17.34,5.85-25.09,21.27-4.81,9.56-5.08,20.92-.8,33.76a3,3,0,0,1-1.9,3.79A2.83,2.83,0,0,1,236.45,923Z"/><path class="cls-4" d="M278.17,753a3,3,0,0,1-1.53-.42,3,3,0,0,1-1.06-4.11c27.66-46.81,94.92-118.53,95.6-119.25a3,3,0,0,1,4.37,4.11c-.67.71-67.48,72-94.8,118.19A3,3,0,0,1,278.17,753Z"/><path d="M747.09,519.85a81.37,81.37,0,0,0-17.76,46.46,94.08,94.08,0,0,0,.95,18.06c1.7,12.24,5.09,24.16,6.92,36.38,1.45,9.64,1.62,19.53-.68,29.06-2.1,8.65-6.3,17-13.41,22.57a29,29,0,0,1-2.67,1.87c-1.63,1-.13,3.62,1.51,2.59,8-5,13.28-13,16.2-21.83A69.66,69.66,0,0,0,741,626.93c-1.13-12.34-4.44-24.34-6.67-36.5a114.32,114.32,0,0,1-2.06-18.26,76.47,76.47,0,0,1,1.46-16.6,79.06,79.06,0,0,1,13.08-30.36c.79-1.11,1.6-2.19,2.45-3.24a1.56,1.56,0,0,0,0-2.12,1.51,1.51,0,0,0-2.13,0Z"/><path d="M546,453.83a1.5,1.5,0,0,1-1-.4c-.11-.1-11.48-10.42-18-3.87a1.5,1.5,0,0,1-2.12-2.12c8.58-8.58,21.64,3.28,22.19,3.79a1.5,1.5,0,0,1-1,2.6Z"/><path d="M479.47,462.93a1.47,1.47,0,0,1-.91-.31,1.49,1.49,0,0,1-.27-2.1c3.68-4.79,7.7-7.5,11.95-8a11.86,11.86,0,0,1,8.35,2,1.5,1.5,0,0,1-1.83,2.37c-.33-.24-7.62-5.55-16.1,5.48A1.5,1.5,0,0,1,479.47,462.93Z"/><path d="M837.83,584.09c8.35,3.18,14.43,10.76,17.57,18.93,4.06,10.54,3.61,22.17,2.23,33.18a246,246,0,0,1-6.4,32.5,260.65,260.65,0,0,1-10.53,31.36,253.3,253.3,0,0,1-14.46,29.62c-.67,1.18-1.35,2.35-2,3.52a1.5,1.5,0,0,0,2.59,1.51,255.76,255.76,0,0,0,15.29-30.24,262,262,0,0,0,11.22-32,256.69,256.69,0,0,0,6.9-33.06c1.62-11.59,2.52-23.79-1.15-35.1-2.89-8.89-8.7-17.29-17.13-21.69a29.57,29.57,0,0,0-3.3-1.47,1.52,1.52,0,0,0-1.84,1,1.54,1.54,0,0,0,1.05,1.85Z"/><path class="cls-4" d="M614.24,684a334,334,0,0,1,18.5,28.42,337.6,337.6,0,0,1,15.46,30c1.16,2.57,2.3,5.16,3.4,7.77-.23-.54.19.46.24.56.12.3.24.6.37.9.27.64.53,1.29.79,1.93.54,1.33,1.08,2.66,1.6,4q3.1,7.91,5.81,15.94,5.37,16,9.14,32.51,1.88,8.28,3.34,16.63c.49,2.78.94,5.58,1.35,8.37.2,1.38.4,2.75.59,4.13.06.48-.06-.45,0,0,0,.19,0,.37.07.55s.09.65.13,1l.27,2.21q.26,2.07.48,4.14a3.08,3.08,0,0,0,3,3c1.48-.07,3.18-1.33,3-3a342.53,342.53,0,0,0-5.46-34.14,336.35,336.35,0,0,0-8.78-32.9,345.79,345.79,0,0,0-12.3-32.44,333.66,333.66,0,0,0-15.12-30.35,329.92,329.92,0,0,0-18.27-28.9q-1.2-1.69-2.43-3.39a3.07,3.07,0,0,0-4.1-1.07c-1.26.81-2.07,2.74-1.08,4.1Z"/></g><g id="dislike"><path class="cls-7" d="M144.93,383.13s-10.06,13.68-9.17,25.61,51.05,3.58,46.56-7.17-14.76-23.37-14.76-23.37Z"/><path class="cls-1" d="M150.24,416.09a32.61,32.61,0,0,1-10.49-1.42c-4.29-1.52-5.35-4-5.48-5.82-.92-12.34,9-26,9.45-26.61l.34-.46,24.08-5.24.58.71c.43.53,10.45,12.93,15,23.74.6,1.44.83,3.65-1.47,6.08C177.3,412.28,162.13,416.09,150.24,416.09Zm-4.42-31.62c-1.67,2.42-9.31,14.1-8.56,24.16.1,1.34,1.28,2.42,3.49,3.21,9.64,3.43,33.51-.72,39.3-6.83,1.29-1.36,1.12-2.28.88-2.86-3.75-9-11.76-19.48-14-22.29Z"/><path class="cls-4" d="M153.07,407.63a43.65,43.65,0,0,1-12.25-1.56,2,2,0,0,1,1.2-3.81A48.83,48.83,0,0,0,171.9,400a2,2,0,1,1,1.48,3.71A54.64,54.64,0,0,1,153.07,407.63Z"/><rect class="cls-7" x="84.39" y="232.13" width="149.99" height="149.99" rx="43.38"/><path class="cls-1" d="M191,383.62H127.77a44.93,44.93,0,0,1-44.88-44.88V275.51a44.93,44.93,0,0,1,44.88-44.88H191a44.93,44.93,0,0,1,44.88,44.88v63.23A44.93,44.93,0,0,1,191,383.62Zm-63.23-150a41.93,41.93,0,0,0-41.88,41.88v63.23a41.93,41.93,0,0,0,41.88,41.88H191a41.93,41.93,0,0,0,41.88-41.88V275.51A41.93,41.93,0,0,0,191,233.63Z"/><path class="cls-2" d="M208.35,303.37c4.5-2.2,5.08-5.6,4.86-10.18-.29-6.32-3-8-7.37-12.07,3-4,.57-13.31-2.42-16.82s-8.31-5.27-12.4-6.37c-10.14-2.74-18.69-.78-30.11.59-9.91,1.19-21.58,4.84-28.84,13.12a11.35,11.35,0,0,0-1.76,2.71,12,12,0,0,0-3.69-3.41c-.05-.09.17,0,.09-.09-3.7-3.07-7.7-2.23-11.26.42A27.57,27.57,0,0,0,105,289.47c-1.26,10.73-.82,28.92,9,36.31,3.34,2.51,9.47,2.88,13.32.67,1.55,4,4.92,7,8.52,9.13,7.72,4.58,21.23,6.59,20.65,18.22-.17,3.4-1,6.61,1.07,10,1.84,3,4.33,3.74,7.69,3.44,7.16-.66,12.41-7.11,14.7-13.42,4.33-11.93,1.77-28,.32-30.24.39.22,13.45,4.89,22.1,1.45,3.81-1.51,7.59-7.47,8.37-11.87C211.41,309.93,210.63,305.54,208.35,303.37Z"/><path class="cls-3" d="M164,368.8a8.24,8.24,0,0,1-7.67-4.22c-2-3.17-1.69-6.13-1.43-9,.05-.62.11-1.24.14-1.86.39-7.75-6.28-10.64-13.35-13.7a58.24,58.24,0,0,1-6.57-3.16,21.35,21.35,0,0,1-8.49-8.41c-4.28,1.69-10,1.13-13.48-1.48-9.52-7.14-11.22-24.15-9.64-37.69a28.92,28.92,0,0,1,11-19.22c4.6-3.44,9.26-3.57,13.11-.37l.79.65a13.32,13.32,0,0,1,1.62,1.4,11.58,11.58,0,0,1,.86-1.1c8.57-9.76,22.34-12.72,29.79-13.62,1.88-.22,3.69-.47,5.43-.7,8.85-1.19,16.5-2.22,25.25.15,6.42,1.74,10.72,4,13.15,6.85,3.18,3.74,5.54,12.52,3.18,17.51l.6.55c3.53,3.22,6.08,5.55,6.37,11.73.18,3.73,0,7.87-4.1,10.67a14.37,14.37,0,0,1,1.7,9.64c-.85,4.73-4.88,11.24-9.3,13-6.79,2.71-15.69.82-20.31-.51,1.41,6,2.28,18.7-1.25,28.42-2.24,6.18-7.77,13.65-16,14.4A14.1,14.1,0,0,1,164,368.8Zm-35.85-44.52.62,1.63c1.23,3.19,3.88,6,7.88,8.38a58.65,58.65,0,0,0,6.23,3c7.34,3.17,15.65,6.77,15.16,16.6,0,.66-.1,1.32-.15,2-.23,2.6-.43,4.84,1,7.16s3.13,3,6.27,2.73c6.81-.62,11.49-7.08,13.43-12.43,4.13-11.37,1.71-27,.47-28.92l-3.29-5.13,5.23,3c1.69.71,13.42,4.35,20.86,1.39,3.35-1.34,6.76-6.87,7.46-10.74.49-2.73-.14-6.63-2-8.45L205.76,303l1.94-.94c3.66-1.79,4.22-4.35,4-8.76-.24-4.94-2-6.52-5.4-9.65l-1.51-1.39-1-.92.79-1.07c2.44-3.29.28-11.86-2.35-15-2-2.39-5.84-4.32-11.65-5.89-8.18-2.22-15.19-1.27-24.07-.08-1.76.24-3.58.48-5.48.71-7,.84-20,3.61-27.89,12.62a10.11,10.11,0,0,0-1.53,2.36l-1.09,2.28-1.48-2a10.57,10.57,0,0,0-3.22-3l-.33-.19-.25-.41c-2.62-1.9-5.64-1.63-8.94.84a26.15,26.15,0,0,0-9.82,17.16c-1.49,12.71,0,28.57,8.46,34.94,2.93,2.2,8.38,2.46,11.68.57Zm-1.37-51.9h0Zm-.26-3h0Z"/><path class="cls-2" d="M127.44,326.64a57.5,57.5,0,0,1,2.94-52.26"/><path class="cls-3" d="M126.1,327.32c-.13-.26-13-26.25,3-53.69l2.59,1.51c-15.16,26-3,50.57-2.89,50.82Z"/><path d="M208.63,305a1.44,1.44,0,0,1-.84-.26h0a28.09,28.09,0,0,0-15.34-3.83h0a1.5,1.5,0,0,1,0-3,30.48,30.48,0,0,1,17.12,4.35,1.5,1.5,0,0,1-.85,2.74Z"/><path d="M206.72,282.68a1.51,1.51,0,0,1-.78-.22c-.08,0-8.19-4.9-14.91-2.84a1.5,1.5,0,1,1-.88-2.87c8-2.45,17,2.92,17.35,3.15A1.5,1.5,0,0,1,208,282,1.47,1.47,0,0,1,206.72,282.68Z"/><path class="cls-4" d="M90,294.75a2,2,0,0,1-2-1.95c-.62-24.78,7.68-37.59,14.76-44,7.79-7,15.74-8,16.08-8.06a2,2,0,0,1,.46,4c-1.16.14-28.4,4-27.3,47.95a2,2,0,0,1-2,2.05Z"/><path class="cls-1" d="M96.76,206.59a66,66,0,0,0-28.15,19,65.13,65.13,0,0,0-15.13,32.77,66.5,66.5,0,0,0,.21,21.35,2,2,0,0,0,2.46,1.4,2,2,0,0,0,1.39-2.46c-.27-1.58-.4-2.54-.56-4.14s-.23-3-.27-4.5a64.29,64.29,0,0,1,.42-9c.09-.8.12-1.05.26-1.92s.24-1.48.39-2.22c.28-1.47.61-2.94,1-4.39s.82-2.89,1.31-4.31c.24-.71.5-1.42.77-2.12.12-.33.25-.67.39-1,.06-.16.13-.33.2-.49,0,0,.25-.6.13-.32a61.57,61.57,0,0,1,4.08-7.91q1.07-1.76,2.25-3.42c.39-.56.8-1.11,1.21-1.65l.29-.39c-.19.26.06-.07.11-.13l.67-.84a63.1,63.1,0,0,1,5.56-6c1-.94,2-1.84,3.06-2.72q.78-.66,1.59-1.29l.13-.1.39-.3.86-.63A63.07,63.07,0,0,1,89.63,214q2-1.08,4.13-2l.45-.19c.13-.06.12,0,0,0l.36-.15,1.08-.43c.73-.28,1.46-.55,2.2-.81a2,2,0,1,0-1.06-3.85Z"/><path d="M216.46,269.66a294.81,294.81,0,0,0,56.76-12,310.64,310.64,0,0,0,53.26-22.56A317.93,317.93,0,0,0,374.86,203a309.58,309.58,0,0,0,41.5-40.25,295.51,295.51,0,0,0,33.13-47.37c1.16-2.06,2.28-4.13,3.38-6.21.91-1.7-1.68-3.22-2.59-1.51a290.12,290.12,0,0,1-31.74,47.82,308.05,308.05,0,0,1-40.07,40.68A312.74,312.74,0,0,1,331.3,229a308,308,0,0,1-52.17,23.56,294.37,294.37,0,0,1-55.7,13.25q-3.48.48-7,.85c-1.89.21-1.91,3.22,0,3Z"/><path d="M228,290.5a189.59,189.59,0,0,0,31.59,1.64A158.05,158.05,0,0,0,315.42,280a200.47,200.47,0,0,0,25.92-13.1,289.85,289.85,0,0,0,25.46-17.22c1.07-.8,2.13-1.6,3.19-2.42a1.54,1.54,0,0,0,.54-2,1.51,1.51,0,0,0-2-.54,308.34,308.34,0,0,1-25.39,17.66,206.15,206.15,0,0,1-25.57,13.54,160.51,160.51,0,0,1-26.31,8.94A155.2,155.2,0,0,1,263,289a182.19,182.19,0,0,1-30.89-1c-1.36-.15-2.73-.32-4.09-.5-.81-.11-1.5.77-1.5,1.5a1.54,1.54,0,0,0,1.5,1.5Z"/><path class="cls-1" d="M154.47,380.77a54.65,54.65,0,0,0-27.54-11.65,32.65,32.65,0,0,0-10.44,0,12.54,12.54,0,0,0-8.25,5.33,8.67,8.67,0,0,0-.29,9.17,11.39,11.39,0,0,0,7.72,5.1c3.84.69,7.66-.07,11.42-.86a157.21,157.21,0,0,0,23.85-7,2,2,0,0,0,1.39-2.46,2,2,0,0,0-2.46-1.39A158.12,158.12,0,0,1,130,383.12a63.8,63.8,0,0,1-9.72,1.84,13.15,13.15,0,0,1-4.59-.33c-.32-.09-.63-.2-.94-.31-.07,0-.35-.15,0,0l-.49-.23c-.26-.14-.53-.29-.78-.45s-.3-.2-.45-.31c-.35-.23.17.18-.17-.12s-.44-.4-.65-.61l-.36-.4c-.38-.4.13.19-.07-.08a8.48,8.48,0,0,1-.51-.81c0-.1-.1-.21-.16-.31s-.09-.21,0,0a2.55,2.55,0,0,1-.11-.33,6.21,6.21,0,0,1-.21-.85c.07.4,0,0,0-.11s0-.3,0-.45,0-.37,0-.55c0,.09-.08.38,0,0a9,9,0,0,1,.28-1.05c.18-.55-.18.31.08-.2l.21-.41c.16-.3.35-.58.54-.87,0-.05.23-.29,0,0,.12-.15.24-.29.37-.43a8.55,8.55,0,0,1,.81-.78,2.17,2.17,0,0,1,.29-.24c-.32.24.18-.12.2-.14.26-.17.52-.33.8-.48a7.77,7.77,0,0,1,1.9-.76,11.19,11.19,0,0,1,1.27-.31l.43-.08s.68-.09.33,0a21.65,21.65,0,0,1,2.41-.15,41.81,41.81,0,0,1,4.74.25l1,.11.42.06.31,0c.76.11,1.53.24,2.29.39,1.52.29,3,.65,4.52,1.08s3.22,1,4.8,1.62c.87.34,1.23.49,2.05.86s1.53.72,2.28,1.1c1.51.77,3,1.6,4.4,2.51q1.06.69,2.1,1.41l1.11.81c.42.31.42.31.85.66a2.05,2.05,0,0,0,2.83,0,2,2,0,0,0,0-2.83Z"/><path class="cls-1" d="M150.05,385.06c5.18-2.74,11.32-1.24,15.86,2.08,5.37,3.92,7.83,10.36,8.11,16.84.67,15.61-9.09,28.83-13.77,43.1-2.21,6.76-3.31,14-2.12,21.08s5.4,12.5,9.86,17.95a39.89,39.89,0,0,1,8.8,18,55.53,55.53,0,0,1-.37,20.44c-5.36,28.63-27.43,53.17-23.92,83.51,1.67,14.42,7.81,27.73,11,41.8a58.75,58.75,0,0,1,1.21,21.38,79.48,79.48,0,0,1-6.5,20.7c-5.65,12.62-13.15,24.49-17,37.85-3.45,11.87-4.53,25.36,1.09,36.75a33.62,33.62,0,0,0,5,7.33c1.71,1.93,4.53-.91,2.82-2.83-8.68-9.81-9-23.71-6.18-35.87,3.18-13.88,10.67-26,16.64-38.79a97.3,97.3,0,0,0,7.3-20.24,59.37,59.37,0,0,0,.59-21.55c-2.19-14.57-8.68-28.05-11.32-42.52a59.46,59.46,0,0,1,.14-22.21A112.93,112.93,0,0,1,164.4,568c5.73-13.53,12.67-26.62,15.63-41.14,2.66-13.07,2.25-27.45-5.54-38.8-4.12-6-9.85-10.93-11.87-18.15s-.79-14.84,1.49-21.78c4.72-14.39,14.18-27.48,13.94-43.19-.11-6.65-2.07-13.43-6.73-18.34a21.94,21.94,0,0,0-15.22-7,16.8,16.8,0,0,0-8.07,2c-2.28,1.21-.26,4.66,2,3.46Z"/></g></g></svg>