<?xml version="1.0" encoding="utf-8"?>
<!-- Generator: Adobe Illustrator 24.1.2, SVG Export Plug-In . SVG Version: 6.00 Build 0)  -->
<svg version="1.1" id="love_1_" xmlns="http://www.w3.org/2000/svg" xmlns:xlink="http://www.w3.org/1999/xlink" x="0px" y="0px"
	 viewBox="0 0 1000 1000" style="enable-background:new 0 0 1000 1000;" xml:space="preserve">
<style type="text/css">
	.st0{fill:#1D1D1B;}
	.st1{fill:#D9CFFF;}
	.st2{fill:#1D1E1B;}
	.st3{fill:#FFFFFF;}
	.st4{fill:#6C32AD;}
	.st5{fill:#59298F;}
	.st6{fill:#FFAD00;}
	.st7{fill:#E89D00;}
	.st8{fill:#FFCDB2;}
	.st9{fill:#FFB49F;}
	.st10{fill:#FFC140;}
</style>
<g id="line">
	<path class="st0" d="M872,856H168c-1.1,0-2-0.9-2-2s0.9-2,2-2h704c1.1,0,2,0.9,2,2S873.1,856,872,856z"/>
	<path class="st0" d="M254,881H117c-1.1,0-2-0.9-2-2s0.9-2,2-2h137c1.1,0,2,0.9,2,2S255.1,881,254,881z"/>
	<path class="st0" d="M926,892H818c-1.1,0-2-0.9-2-2s0.9-2,2-2h108c1.1,0,2,0.9,2,2S927.1,892,926,892z"/>
</g>
<g id="harts">
	<path class="st1" d="M375.2,127.8c13.3,27.5-25.7,73.9-25.7,73.9s-60.6,1.8-73.9-25.7c-9-18.6-9.1-40.5,6.5-49.2
		c20.3-11.2,34.5,9.9,34.5,9.9s-0.2-25.3,15.3-33.5C348.9,94,366.3,109.5,375.2,127.8z"/>
	<path class="st2" d="M346.8,203.2c-12.1,0-60.5-1.6-72.5-26.6c-8.7-17.9-10.1-41.6,7.1-51.1c16.1-8.9,28.7,1.6,33.9,7.2
		c0.6-7.7,3.4-24.2,15.9-30.9c5.7-3.2,12.5-3.7,18.7-1.6c10.2,3.3,20.2,13.4,26.7,26.9c13.6,28-24.3,73.5-25.9,75.5l-0.4,0.5h-0.7
		C349.2,203.1,348.3,203.2,346.8,203.2z M294,125c-3.9,0.1-7.8,1.1-11.2,3.1c-15.5,8.6-13.9,30.5-5.8,47.2
		c12,24.8,65.1,25,71.8,24.9c4.2-5.1,37.1-46.9,25.1-71.7l0,0c-6.2-12.8-15.5-22.3-25-25.4c-5.4-1.9-11.3-1.3-16.3,1.4
		c-14.5,7.7-14.5,31.9-14.5,32.2v5l-2.8-4.1C314.9,136.8,306.7,125,294,125z"/>
	<path class="st0" d="M261,154.4c-35.5,0-61.1-16.1-77.3-31.2c-13-12.1-23.7-26.4-31.5-42.4c-0.4-1,0-2.2,1-2.6c1-0.4,2.2,0,2.6,1
		c7.6,15.5,18,29.4,30.6,41.2c27.7,25.7,60.7,35,98.1,27.7c1.1-0.3,2.2,0.4,2.4,1.4c0.3,1.1-0.4,2.2-1.4,2.4c-0.1,0-0.2,0-0.2,0
		C277.4,153.6,269.2,154.4,261,154.4z"/>
	<path class="st0" d="M244.7,192.2c-8.4,0-16.8-0.7-25.1-2.2c-1.1-0.2-1.8-1.2-1.7-2.3c0.2-1.1,1.2-1.8,2.3-1.7c0.1,0,0.1,0,0.2,0
		c0.5,0.1,49.2,9.5,70.2-12.4c0.8-0.8,2-0.8,2.8-0.1c0.8,0.8,0.8,2,0.1,2.8C281.2,189.2,260.9,192.2,244.7,192.2z"/>
	<path class="st3" d="M365,150h-0.2c-1.7-0.1-2.9-1.5-2.8-3.2c0,0,0,0,0,0c0.6-10.7-1.7-18.5-6.8-23.1c-7.1-6.4-17.6-4.8-17.7-4.8
		c-1.6,0.3-3.2-0.8-3.5-2.5c-0.3-1.6,0.8-3.2,2.5-3.5c0.5-0.1,13.4-2.1,22.6,6.2c6.6,5.9,9.6,15.3,8.9,27.9
		C367.9,148.7,366.6,150,365,150z"/>
	<path class="st1" d="M181.6,411.9c12.8,20-13,59.4-13,59.4s-46.6,7-59.4-13c-8.7-13.6-10.8-30.5,0.4-38.6
		c14.6-10.5,27.5,4.4,27.5,4.4s-2.5-19.5,8.7-27.3C158.1,388.3,173,398.6,181.6,411.9z"/>
	<path class="st2" d="M150.4,474c-14.9,0-34.6-2.5-42.5-14.9c-8.4-13.2-11.8-31.5,0.8-40.6c11.3-8.2,21.8-2,26.7,2
		c-0.1-6.3,0.8-18.7,9.6-24.9c4.2-3,9.5-4.1,14.5-3c8.3,1.6,17,8.5,23.4,18.5c13.2,20.6-11.9,59.4-13,61l-0.4,0.6l-0.7,0.1
		C162.7,473.7,156.5,474.1,150.4,474z M120.5,417.5c-3.6,0.1-7.2,1.3-10,3.5c-11,8-7.8,24.5,0,36.5c11.3,17.7,51.5,13.1,57.2,12.4
		c3.1-4.9,24-39.5,12.6-57.2l0,0c-5.9-9.2-13.9-15.6-21.4-17.1c-4.3-0.9-8.7,0-12.2,2.5c-10.3,7.2-8.1,25.7-8.1,25.9l0.6,5l-3.3-3.8
		C135.6,424.8,129.2,417.5,120.5,417.5L120.5,417.5z"/>
	<path class="st3" d="M123,463c-0.7,0-1.4-0.3-1.9-0.7c-22-18.7-6.5-38-6.4-38.2c1.1-1.3,2.9-1.5,4.2-0.4c1.3,1.1,1.5,2.9,0.4,4.2
		c-0.5,0.6-11.8,15,5.6,29.8c1.3,1.1,1.4,3,0.4,4.2C124.7,462.6,123.9,463,123,463z"/>
	<path class="st1" d="M872,338.1c-18.2,15.3-60.6-5.3-60.6-5.3s-12.9-45.3,5.3-60.6c12.3-10.4,28.8-14.6,38.3-4.5
		c12.3,13.1-0.9,27.9-0.9,27.9s19-5,28.2,5.1C892.4,311.9,884.1,328,872,338.1z"/>
	<path class="st2" d="M853.2,345.3c-19.2,0-41.1-10.5-42.4-11.1l-0.6-0.3l-0.2-0.6c-0.5-1.9-13-46.4,5.8-62.1
		c12-10.1,29.7-15.7,40.3-4.4c9.6,10.2,4.8,21.4,1.5,26.7c6.3-1,18.7-1.6,25.9,6.3c3.5,3.8,5.3,8.9,4.9,14
		c-0.6,8.4-6.3,18-15.3,25.5C867.7,343.7,860.7,345.3,853.2,345.3z M812.7,331.8c5.2,2.4,42.3,18.7,58.3,5.2l1,1.1l-1-1.1
		c8.4-7,13.7-15.8,14.3-23.4c0.4-4.3-1.1-8.6-4.1-11.8c-8.5-9.3-26.5-4.7-26.7-4.7l-4.8,1.3l3.3-3.7c0.5-0.6,12.1-13.9,0.9-25.9
		c-9.3-9.9-25.3-4.5-36.2,4.6C801.6,286.9,811.2,326.2,812.7,331.8z"/>
	<path class="st0" d="M834,278c-0.8,0-1.5-0.5-1.8-1.2c-11-24-12.1-58.5-3.4-102.6c4-20,9.4-39.7,16.3-59c0.4-1,1.5-1.6,2.6-1.2
		s1.6,1.5,1.2,2.6c-0.4,1-38.4,102.9-13,158.5c0.5,1,0,2.2-1,2.6c0,0,0,0,0,0C834.6,277.9,834.3,278,834,278z"/>
	<path class="st0" d="M821,291c-0.4,0-0.8-0.1-1.1-0.4c-35.5-24.3-34-86.1-33.9-88.7c0-1.1,1-2,2.1-1.9s2,1,1.9,2.1
		c0,0.6-1.5,62.2,32.1,85.3c0.9,0.6,1.1,1.9,0.5,2.8C822.3,290.7,821.7,291,821,291z"/>
	<path class="st3" d="M847,339c-1.7,0-3-1.3-3-3c0-1.4,0.9-2.6,2.3-2.9c18.6-4.6,23.7-10.7,25.1-13.9c0.9-1.8,0.9-3.9,0-5.7
		c-0.8-1.4-0.4-3.2,1-4.1c1.4-0.9,3.3-0.4,4.1,1c0,0,0,0,0,0c1.8,3.4,1.9,7.4,0.4,10.9c-3.2,7.6-13,13.5-29.2,17.6
		C847.4,338.9,847.2,339,847,339z"/>
</g>
<g id="woman">
	<path class="st4" d="M495.9,302.7c0,0-5.8,33.2-28.8,23.9s-72.1-29.7-89.4,4.1s-14.2,41.3-40.8,38s-79.1,37.3-26.8,91.1
		s228.7-118.3,228.7-118.3l-1.6-20.9L495.9,302.7z"/>
	<path d="M495.9,302.7l41.4,18l1.6,20.9c0,0-145,141.5-211.1,127.8c-6.7-1.3-12.8-4.6-17.6-9.5c-52.3-53.8,0.2-94.3,26.8-91.1
		s23.6-4.2,40.8-38c10.1-19.8,30.9-21,51.2-16.8c14.5,3,28.6,8.8,38.2,12.7c1.3,0.5,2.7,1,4.1,1.3
		C490.8,332,495.9,302.8,495.9,302.7 M496.5,299.8c-0.7-0.1-1.4,0-2,0.3c-0.8,0.4-1.4,1.2-1.5,2.1c0,0.2-2.7,15.2-11.2,20.9
		c-2.9,2-6.6,2.7-10,1.8c-1.2-0.3-2.4-0.6-3.6-1.1l-0.9-0.4c-9.3-3.9-23.5-9.6-37.8-12.6c-27-5.6-45.4,0.6-54.4,18.4
		c-3.3,6.4-5.7,11.7-7.9,16.4c-9.2,19.8-10.4,22.4-29.8,20c-15.2-1.9-38,9.4-47.8,29c-5.9,11.9-11.4,36.5,18.5,67.1
		c5.2,5.3,11.9,8.9,19.1,10.3c28.3,5.9,72.9-14.1,132.7-59.3c28.3-21.6,55.4-44.7,81.1-69.3c0.6-0.6,1-1.5,0.9-2.4l-1.6-20.9
		c-0.1-1.1-0.8-2.1-1.8-2.5l-41.4-18c-0.2-0.1-0.4-0.1-0.6-0.2L496.5,299.8z"/>
	<path class="st5" d="M304.7,453.8c13.6-54,109.7-97.3,138.9-101.5s65-12.6,71.9-23.7c6.9-11.1-12.2-19.5-12.2-19.5l6.2-0.7
		l27.9,12.1l1.6,20.9c0,0-176.4,172.1-228.7,118.4C308.2,457.9,306.4,455.8,304.7,453.8z"/>
	<path class="st6" d="M298,853c0,0-28.5-478.6,237-462c351,22,235,462,235,462H298z"/>
	<path class="st0" d="M771.5,855H296.1l-0.1-1.9c0-0.7-4.3-74.5,6.3-162c6.2-51.4,16.2-97.4,29.7-136.7
		c16.9-49.3,39.5-88.2,67-115.6c36.6-36.4,82.4-53.2,136.2-49.8c89,5.6,155.8,38.6,198.8,98.1c22.5,31.2,38.6,69.9,47.6,115.1
		c7.2,36,10,76.2,8.4,119.5c-2.8,73.6-17.8,131.3-18,131.9L771.5,855z M299.9,851h468.5c2.3-9.5,15-63,17.5-129.6
		c2.6-67.4-5-162.3-55.3-232c-42.2-58.5-108.1-90.9-195.8-96.4c-52.6-3.3-97.4,13.1-133.1,48.7c-61.5,61.3-85.9,169.8-95.5,250
		C296.7,771,299.3,839,299.9,851z"/>
	<path class="st7" d="M300,782c0,0,120,40,249-83c0,0,125.4,191,237,22v-19l-272-38l-215,71L300,782z"/>
	<path class="st6" d="M493,394c0,0-238,29.7-233,270c2.9,138,115.8,112.3,159.4,93.3s123.8-47.3,140.9-78.2s-1.2-48.3-1.2-48.3
		l17.3-20.4l-56.5-74.2l-14.4,10.9c0,0-31-19.2-54.5,3.5s-51.7,53.7-66.6,65.8"/>
	<path class="st0" d="M350.3,774.1c-17.1,0-34.9-3.4-50.4-13.3c-26.5-16.9-40.4-49.5-41.3-96.7c-1.1-55.1,10.5-103.6,34.5-144.3
		c19.2-32.6,46.4-60.2,80.8-82c58.5-37.2,118.4-45,119-45.1l0.4,3c-0.6,0.1-59.9,7.8-117.9,44.7C322,474.2,258.9,540.6,261.5,664
		c1,46.2,14.4,77.9,40,94.2c43.2,27.7,105.3,3,117.4-2.3c7.3-3.2,15.6-6.6,24.5-10.3c42.9-17.7,101.7-42,115.7-67.3
		c16.3-29.5-0.3-45.8-1-46.5l-1-1l0.9-1.1l16.5-19.5l-54.9-72.1l-14.1,10.6l-0.9-0.5c-1.2-0.8-30.3-18.3-52.7,3.3
		c-9.7,9.3-20,19.9-30.1,30.2c-14.3,14.6-27.8,28.5-36.6,35.7l-1.9-2.3c8.7-7.1,22.1-20.9,36.4-35.5c10.1-10.3,20.5-21,30.1-30.3
		c21.9-21,50.1-7.2,55.5-4.2l14.8-11.2l0.9,1.2l57.3,75.2l-17.3,20.3c3.6,4.3,15.6,21.8,0.6,49.1c-14.5,26.2-71.4,49.7-117.2,68.6
		c-8.8,3.6-17.2,7.1-24.4,10.3C412,762.2,382.3,774.1,350.3,774.1z"/>
	<path class="st3" d="M481.3,396.8c0,0-10.8,12.7,4.2,29.7s42.3-7.3,42.3-7.3L481.3,396.8z"/>
	<path class="st0" d="M499,434c-0.5,0-0.9,0-1.4,0c-5.1-0.2-9.9-2.6-13.2-6.5c-15.7-17.8-4.4-31.5-4.3-31.7l0.8-0.9l49.6,23.9
		l-1.7,1.5C528.2,420.9,513.2,434,499,434z M481.8,398.7c-2,3.1-7,13.4,4.9,26.8c2.8,3.3,6.8,5.3,11.1,5.5
		c10.8,0.6,22.8-8,27.3-11.5L481.8,398.7z"/>
	<circle class="st4" cx="597.4" cy="189.5" r="39.5"/>
	<path d="M629.1,166c13,17.5,9.3,42.3-8.2,55.3s-42.3,9.3-55.3-8.2c-13-17.5-9.3-42.3,8.2-55.3C591.3,144.8,616.1,148.5,629.1,166
		C629.1,166,629.1,166,629.1,166 M631.7,164.1c-14.1-19-40.8-22.9-59.8-8.8s-22.9,40.8-8.8,59.8c14.1,18.9,40.8,22.9,59.8,8.8
		C641.8,209.8,645.7,183,631.7,164.1z"/>
	<path class="st4" d="M640.8,348.8c0,0,35.2-9,35.9-36.3s-6.1-28.3-4.8-42.6c1.3-14.4-14.2-37.2-36.7-41.4c0,0-15.2-30.5-40-35.9
		s-37.8,1.2-52.7,15.3s-25,18.5-35.8,28.1s-34.9,39.4-0.6,87.7S640.8,348.8,640.8,348.8z"/>
	<path d="M663.8,247.1c5.6,7.6,8.6,16.1,8,22.7c-1.3,14.4,5.4,15.4,4.8,42.6s-35.9,36.3-35.9,36.3s-99.2,22.9-134.1-24.2l-0.6-0.9
		c-34.3-48.2-10.3-78.1,0.6-87.7c10.8-9.5,20.9-14,35.8-28.1s27.9-20.7,52.7-15.3c14.5,3.1,25.7,14.8,32.5,24
		c2.8,3.7,5.3,7.7,7.5,11.9C647.2,230.7,657.3,238.3,663.8,247.1 M666.4,245.2c-7.4-10-17.9-17.1-29-19.6c-2.1-3.8-4.4-7.4-7-10.9
		c-7.2-9.7-19-21.9-34.4-25.3c-26.2-5.7-40.3,1.6-55.6,16.1c-6.8,6.3-14,12.1-21.7,17.3c-4.9,3.3-9.5,6.9-14,10.7
		c-9.2,8.1-15.6,19-18.2,31.1c-3.9,18.8,1.8,39.3,17.2,60.9c0.2,0.3,0.5,0.6,0.7,0.9c8.4,11.3,20.9,19.6,37.3,24.8
		c12.9,4,28.2,6.2,45.4,6.3c18.4,0.1,36.7-1.8,54.7-5.6h0.1c6.6-1.9,12.9-4.6,18.6-8.3c12.6-8,19.4-18.7,19.7-31
		c0.4-15.6-1.6-22.9-3.2-28.8c-1.2-4.5-2.1-7.8-1.6-13.6c0.7-7.4-2.6-16.7-8.7-24.9L666.4,245.2z"/>
	<path class="st8" d="M552,375l2,34c0,0-48,30-69-13c0,0,31-45,46-93.1c0,0-16.2-11.8-6.3-26.6s24-11.9,29.7-4.2
		c0,0,20.7,33.9,78.3-14.9c0,0,26,26.9,18.1,62.6s-31,70.7-60.9,70.5S552,375,552,375z"/>
	<path class="st0" d="M632.7,257.2c0,0,26,26.9,18.1,62.6s-30.9,70.6-60.7,70.6h-0.2C560,390.2,552,375,552,375l2,34
		c0,0-16.3,10.2-34,10.2c-12.7,0-26.2-5.2-35-23.2c0,0,31-45,46-93.1c0,0-16.2-11.8-6.3-26.6c5.1-7.6,11.3-10.5,16.9-10.5
		c5,0,9.8,2.4,12.8,6.4c0,0,7,11.4,24.2,11.4C590.9,283.6,608.5,277.6,632.7,257.2 M632.9,253.1l-2.2,1.8
		c-20.1,17-37.7,25.6-52.3,25.6c-15.3,0-21.5-9.9-21.6-10l-0.1-0.1l-0.1-0.1c-3.6-4.8-9.3-7.6-15.3-7.6c-7.4,0-14.3,4.2-19.4,11.9
		c-4.7,7.1-5,14.7-0.6,22c1.6,2.7,3.6,5.2,6,7.3c-14.9,46.4-44.7,89.9-45,90.4l-1,1.4l0.8,1.6c8,16.3,21,24.9,37.7,24.9
		c18.4,0,34.9-10.2,35.6-10.6l1.5-0.9l-0.1-1.8l-1.5-25.6c5.8,4.7,16.4,10,34.4,10.1h0.2c14.8,0,29-8,41-23.1
		c10.5-13.2,18.5-30.9,22.7-49.8c3.4-15.2,1.2-31.4-6.3-46.6c-3.3-6.8-7.5-13.1-12.5-18.7L632.9,253.1L632.9,253.1z"/>
	<path d="M560.4,386.7c0.9,0.6,1.9,1.1,2.8,1.6c0.8,0.4,1.8,0,2.1-0.8c0.3-0.8,0-1.7-0.7-2.1c-9.7-4.8-17.7-16.3-17.8-16.4
		c-0.5-0.8-1.5-1-2.2-0.6s-1,1.5-0.6,2.2c0,0.1,0.1,0.1,0.1,0.2C544.5,371.3,551.4,381.1,560.4,386.7z"/>
	<path d="M533.5,295c0.5,0.7,1.6,0.9,2.3,0.3c0.5-0.3,0.7-0.9,0.6-1.5c-0.8-6.4,0.1-10.8,2.8-13c3.8-3.1,10.1-1,10.2-1
		c0.8,0.3,1.7-0.2,2-1c0.3-0.8-0.2-1.8-1-2c-0.3-0.1-8.1-2.7-13.3,1.6c-3.6,3-5,8.3-4,15.9C533.2,294.5,533.4,294.8,533.5,295z"/>
	<path class="st9" d="M612.3,306.5c-19.5-5.8-38.9-26.3-46.3-22.3s-8.9,14.1-0.6,21.3s17.9,12.1,38,21s40.4,16.2,43.8,4.8
		S641,315,612.3,306.5z"/>
	<path d="M614.7,316.8c0.5,0.6,1.4,0.8,2.1,0.4c4.2-2.4,8.3-3,12.2-1.8c7.8,2.3,12.3,11,12.4,11.1c0.5,0.8,1.5,1,2.2,0.6
		c0.7-0.4,1-1.3,0.7-2c-0.2-0.4-5.2-10-14.3-12.7c-4.7-1.4-9.7-0.7-14.7,2.1c-0.8,0.4-1,1.4-0.6,2.2L614.7,316.8z"/>
	<path d="M568.1,296.5c0.4,0.5,1.1,0.8,1.8,0.6c18-5.2,24.3,10,24.6,10.7c0.4,0.8,1.4,1.1,2.2,0.7c0.7-0.4,1-1.2,0.8-1.9
		c-0.1-0.2-7.6-18.6-28.5-12.6c-0.9,0.2-1.4,1.1-1.1,2C567.9,296.1,568,296.3,568.1,296.5z"/>
	<path d="M629.1,297.8c1.9,2.6,4.3,4.9,7.1,6.8c0.7,0.5,1.7,0.3,2.3-0.4c0.5-0.7,0.3-1.7-0.4-2.3c-0.1,0-0.1-0.1-0.2-0.1
		c-3.4-2.4-6.3-5.5-8.2-9.2c-0.4-0.8-1.4-1.1-2.2-0.7c-0.8,0.4-1.1,1.4-0.7,2.2l0,0C627.4,295.4,628.2,296.6,629.1,297.8z"/>
	<path d="M561.4,340.6c3,4.1,7.5,6.9,12.4,8c0.9,0.1,1.7-0.6,1.8-1.5c0.1-0.8-0.5-1.6-1.3-1.7c-0.6-0.1-13.8-2.3-14.3-19.6
		c0-0.9-0.7-1.6-1.6-1.7s-1.6,0.7-1.7,1.6c0,0.1,0,0.2,0,0.2C557,332.5,558.9,337.2,561.4,340.6z"/>
	<path d="M551.9,269.2c3.6,4.8,8.1,9.4,13.7,12.1c0.8,0.4,1.8,0.1,2.2-0.7c0.4-0.8,0.1-1.8-0.7-2.2c-14.7-7.1-22.2-29.6-22.3-29.8
		c-0.3-0.8-1.3-1.2-2.1-0.9c-0.7,0.3-1.1,1.1-0.9,1.9C544.1,256.6,547.6,263.2,551.9,269.2z"/>
	<path class="st3" d="M558.6,264.5c0.1,0.1,0.2,0.3,0.3,0.4c30.2,22,57.7-7,58-7.4c0.6-0.7,0.6-1.7-0.1-2.3
		c-0.7-0.6-1.7-0.6-2.3,0.1c-1,1.1-25.9,27.3-53.7,6.9c-0.7-0.5-1.7-0.4-2.3,0.3C558.2,263.1,558.2,263.9,558.6,264.5L558.6,264.5z"
		/>
	<path d="M573.6,140.1c0.1,0.1,0.2,0.2,0.3,0.3c0.7,0.6,1.7,0.5,2.3-0.2c5.7-6.7,12.2-10.3,19.4-10.9c12.9-1,23.9,8.3,24,8.4
		c0.7,0.6,1.7,0.5,2.3-0.2c0.6-0.7,0.5-1.7-0.2-2.3c0,0,0,0,0,0c-0.5-0.4-12.1-10.3-26.3-9.2c-8.1,0.6-15.4,4.7-21.7,12
		C573.2,138.7,573.1,139.5,573.6,140.1z"/>
	<path d="M600.5,340.8c0.5,0.7,1.5,0.9,2.3,0.3c0.3-0.3,0.6-0.6,0.6-1l5.2-32.5c0.2-0.9-0.3-1.7-1.2-2c-0.9-0.2-1.7,0.3-2,1.2
		c0,0.1,0,0.2,0,0.2l-5.2,32.5C600.1,340,600.2,340.5,600.5,340.8z"/>
	<circle class="st6" cx="523.9" cy="299.1" r="6.5"/>
	<path d="M529.1,295.2c2.1,2.9,1.5,6.9-1.3,9c-2.9,2.1-6.9,1.5-9-1.3c-2.1-2.9-1.5-6.9,1.3-9c0,0,0,0,0,0
		C522.9,291.8,527,292.4,529.1,295.2 M531.7,293.3c-3.2-4.3-9.3-5.2-13.6-2c-4.3,3.2-5.2,9.3-2,13.6c3.2,4.3,9.3,5.2,13.6,2
		c0,0,0,0,0,0C534,303.7,534.9,297.6,531.7,293.3z"/>
	<path class="st3" d="M576.1,169.6L576.1,169.6c0.7,0.8,1.7,0.8,2.4,0.3c7-6.1,14.1-8.7,21-7.8c11.3,1.5,18.6,11.9,18.7,12
		c0.4,0.8,1.4,1,2.2,0.6c0.8-0.4,1-1.4,0.6-2.2c0-0.1-0.1-0.1-0.1-0.2c-0.3-0.5-8.2-11.7-20.9-13.4c-7.9-1-15.8,1.9-23.6,8.6
		C575.7,167.9,575.6,168.9,576.1,169.6z"/>
	<path class="st9" d="M641.8,346.6c0,0-43.5,2.8-46.4,43.4C595.4,390,618.2,390.7,641.8,346.6z"/>
	<path class="st1" d="M701.4,399.5c25.3,48.7-42.3,134-42.3,134s-108.7,6.4-134-42.3c-17.2-33-18.5-72.3,9-88.6
		c35.8-21.2,62.4,15.9,62.4,15.9s-1.7-45.4,25.7-61C652.4,340.3,684.5,367.1,701.4,399.5z"/>
	<path class="st2" d="M646.9,535.3c-15.2,0-30.4-1-45.5-3.2c-40.8-6-66.9-19.6-77.6-40.2c-16.3-31.3-20.2-73,9.6-90.6
		c30-17.7,53.9,4.3,61.7,13.1c0.3-11.8,3.3-44.9,26.4-58.1c9.8-5.8,21.6-7.2,32.5-3.8c18.2,5.4,36.4,22.7,48.7,46.4
		c10.7,20.6,6.8,49.8-11.6,86.6c-8.8,17.2-19.1,33.6-30.8,49l-0.4,0.5h-0.7C659.1,535,654.4,535.3,646.9,535.3z M556.5,397.5
		c-7.2,0-14.4,2.1-21.6,6.4c-28.1,16.6-24.1,56.6-8.5,86.6c23.6,45.3,122.7,41.9,131.9,41.5c5.6-7.3,65.3-86.5,41.7-131.8
		c-12-23-29.5-39.7-46.9-44.9c-10.1-3.1-21.1-1.9-30.2,3.5c-26.3,15-24.9,59.2-24.9,59.6l0.2,5l-2.9-4c-4.8-6.2-10.7-11.5-17.4-15.6
		C571.5,399.8,564.1,397.6,556.5,397.5z"/>
	<path class="st3" d="M690,436c-1.7,0-3-1.3-3-3c0-20.1-8-36.6-23.7-49.1c-7.2-5.7-15.4-10.1-24.1-13c-1.6-0.4-2.5-2.1-2.1-3.7
		c0.4-1.6,2.1-2.5,3.7-2.1c9.5,3,18.3,7.7,26,13.9c11.9,9.4,26.1,26.4,26.1,54C693,434.7,691.7,436,690,436z"/>
	<path class="st8" d="M523.8,545.8c0,0-3.7-119.4,62.5-90.8l19.3-16.5c0,0,31.7-4.9,14.8,27.3c0,0,27.7-7.2,9,33.9
		c0,0,23.8-3.6-5.3,49.1c-16.7,30.3-61.5,53.1-61.5,53.1L523.8,545.8z"/>
	<path class="st0" d="M562.6,603.4c-0.5,0-1-0.2-1.2-0.7l-38.8-56.1c-0.2-0.2-0.3-0.5-0.3-0.8c-0.1-2.9-1.8-71.5,27.5-91.5
		c9.8-6.7,22-7.1,36.2-1.2l18.6-15.9c0.2-0.2,0.5-0.3,0.7-0.4c0.6-0.1,13.8-2.1,19.3,5.5c3.4,4.7,2.8,11.9-1.6,21.4
		c3.2-0.3,8.3,0.1,11.5,3.9c4.5,5.4,3.5,15.6-2.9,30.4c2.5,0.3,4.8,1.6,6.3,3.7c5.1,7.3,0.8,23.3-12.5,47.5
		c-16.7,30.3-60.3,52.8-62.2,53.7C563.1,603.3,562.9,603.4,562.6,603.4z M525.3,545.3l37.8,54.6c7.1-3.8,45-25.1,59.8-51.9
		c16.8-30.4,15.2-40.9,12.7-44.4c-1.4-1.8-3.6-2.8-5.9-2.5c-0.5,0.1-1.1-0.1-1.4-0.6c-0.3-0.4-0.4-1-0.2-1.5
		c8.4-18.4,6.9-26.1,4.2-29.3c-3.7-4.4-11.4-2.5-11.5-2.5c-0.8,0.2-1.6-0.3-1.8-1.1c-0.1-0.4,0-0.7,0.1-1c5-9.7,6.1-16.7,3.1-20.8
		c-3.9-5.5-13.9-4.6-16-4.4l-19,16.2c-0.4,0.4-1,0.5-1.6,0.2c-13.6-5.9-25.1-5.7-34.2,0.5C524.7,475.1,525.2,539.3,525.3,545.3z"/>
	<path class="st8" d="M548.9,490c0,0,8.6-15.1,37.5-35.1"/>
	<path class="st0" d="M548.9,492c-0.4,0-0.7-0.1-1-0.3c-1-0.5-1.3-1.8-0.8-2.7c0.4-0.6,9.1-15.8,38.1-35.8c0.9-0.6,2.2-0.4,2.8,0.5
		c0.6,0.9,0.4,2.2-0.5,2.8c-28.1,19.4-36.8,34.3-36.8,34.4C550.2,491.6,549.6,492,548.9,492z"/>
	<path class="st8" d="M570.3,523.1c0,0,20.1-21.8,50.2-57.4"/>
	<path class="st0" d="M570.3,524.6c-0.4,0-0.7-0.1-1-0.4c-0.6-0.6-0.7-1.5-0.1-2.1c0,0,0,0,0,0c0.2-0.2,20.4-22.2,50.1-57.3
		c0.5-0.6,1.5-0.7,2.1-0.2c0,0,0,0,0,0c0.6,0.5,0.7,1.5,0.2,2.1c-29.8,35.2-50,57.2-50.2,57.4C571.1,524.5,570.7,524.7,570.3,524.6z
		"/>
	<path class="st8" d="M582.6,552.4c0,0,21.7-9.1,46.6-51.9"/>
	<path class="st0" d="M582.6,553.9c-0.8,0-1.5-0.7-1.5-1.5c0-0.6,0.4-1.1,0.9-1.4l0,0c0.2-0.1,21.6-9.5,45.9-51.3
		c0.4-0.7,1.3-1.1,2-0.7c0.7,0.4,1,1.3,0.7,2c0,0.1-0.1,0.1-0.1,0.2c-24.8,42.8-46.4,52.2-47.3,52.6
		C583,553.9,582.8,553.9,582.6,553.9z"/>
	<path class="st8" d="M586.6,533.8c0,0,3.7-119.4-62.5-90.8l-19.3-16.5c0,0-31.6-4.9-14.8,27.3c0,0-27.7-7.2-9,33.9
		c0,0-23.8-3.6,5.3,49.1c16.7,30.3,61.6,53.1,61.6,53.1L586.6,533.8z"/>
	<path class="st0" d="M547.8,591.4c-0.2,0-0.5-0.1-0.7-0.2c-1.8-0.9-45.5-23.4-62.2-53.7c-13.4-24.3-17.6-40.3-12.5-47.5
		c1.5-2.1,3.8-3.4,6.3-3.7c-6.4-14.8-7.4-25-2.9-30.4c3.2-3.8,8.3-4.1,11.5-3.9c-4.5-9.5-5-16.6-1.6-21.4c5.4-7.6,18.7-5.6,19.3-5.5
		c0.3,0.1,0.5,0.2,0.7,0.4l18.6,15.9c14.2-5.9,26.4-5.5,36.2,1.2c29.3,19.9,27.6,88.5,27.5,91.5c0,0.3-0.1,0.6-0.3,0.8L549,590.7
		C548.7,591.1,548.3,591.4,547.8,591.4z M480.1,489.1c-2.1-0.1-4,0.9-5.2,2.6c-2.4,3.5-4,14,12.7,44.3
		c14.8,26.8,52.7,48.1,59.8,51.9l37.8-54.6c0.1-6,0.6-70.2-26.2-88.4c-9.1-6.2-20.6-6.4-34.2-0.5c-0.5,0.2-1.1,0.1-1.6-0.2l-19-16.2
		c-2.1-0.3-12.1-1.1-16,4.4c-3,4.1-1.9,11.2,3.1,20.8c0.4,0.7,0.1,1.7-0.7,2c-0.3,0.2-0.7,0.2-1,0.1c-0.1,0-7.8-1.9-11.5,2.5
		c-2.7,3.2-4.1,10.9,4.2,29.3c0.2,0.5,0.2,1.1-0.2,1.5c-0.3,0.4-0.9,0.7-1.4,0.6C480.5,489.1,480.3,489.1,480.1,489.1z"/>
	<path class="st8" d="M561.6,478c0,0-8.6-15.1-37.5-35.1"/>
	<path class="st0" d="M561.6,479.5c-0.5,0-1-0.3-1.3-0.8l0,0c-0.1-0.1-8.8-15.1-37-34.6c-0.7-0.4-0.9-1.4-0.5-2.1
		c0.4-0.7,1.4-0.9,2.1-0.5c0,0,0.1,0.1,0.1,0.1c28.8,19.9,37.5,35,37.9,35.6c0.4,0.7,0.2,1.6-0.6,2
		C562.1,479.5,561.8,479.5,561.6,479.5L561.6,479.5z"/>
	<path class="st8" d="M540.1,511.1c0,0-20.1-21.8-50.1-57.4"/>
	<path class="st0" d="M540.1,512.6c-0.4,0-0.8-0.2-1.1-0.5c-0.2-0.2-20.5-22.3-50.2-57.4c-0.5-0.6-0.5-1.6,0.2-2.1
		c0.6-0.5,1.6-0.5,2.1,0.2c0,0,0,0,0,0c29.7,35.1,49.9,57.1,50.1,57.3c0.6,0.6,0.5,1.6-0.1,2.1c0,0,0,0,0,0
		C540.9,512.5,540.5,512.7,540.1,512.6z"/>
	<path class="st8" d="M527.8,540.4c0,0-21.7-9.1-46.6-51.9"/>
	<path class="st0" d="M527.8,541.9c-0.2,0-0.4,0-0.6-0.1c-0.9-0.4-22.4-9.8-47.3-52.6c-0.4-0.7-0.2-1.6,0.5-2.1
		c0.7-0.4,1.6-0.2,2.1,0.6c24.3,41.8,45.6,51.2,45.8,51.3c0.8,0.3,1.1,1.2,0.8,2C529,541.6,528.4,541.9,527.8,541.9L527.8,541.9z"/>
	<path class="st6" d="M725,478c0,0,50,38.2,67,136c28.5,164.5-116.3,174.1-154.4,145.6s-109.7-74.3-119.3-108.3s12.2-46.7,12.2-46.7
		l-12.2-23.8l72-59.3l11.6,13.9c0,0,34.5-11.6,52.3,15.9s38.1,64,49.8,79.3"/>
	<path class="st0" d="M685.4,773.6h-0.2c-19.7,0-37.8-4.8-48.4-12.7c-6.4-4.8-13.7-10-21.5-15.6c-40.3-28.9-90.3-64.8-98.4-93.6
		c-8.4-30,7.2-44.3,11.8-47.6l-12.2-23.7l74.1-61l11.9,14.3c5.9-1.7,36.6-8.7,53,16.8c7.3,11.3,15,24,22.4,36.3
		c10.5,17.5,20.5,33.9,27.3,42.8l-2.4,1.8c-6.9-9-16.9-25.6-27.5-43.1c-7.4-12.3-15.1-25-22.4-36.3c-16.9-26.1-49.2-15.7-50.6-15.3
		l-1,0.3l-11.3-13.5l-69.9,57.6l12.3,24l-1.2,0.7c-0.8,0.5-20.7,12.6-11.6,45c7.8,27.8,59.5,64.9,97.3,92
		c7.8,5.6,15.1,10.8,21.5,15.6c10.2,7.6,27.6,12.1,46.6,12.2h0.2c21.7,0,43-5.8,60.2-16.3c28.5-17.5,59.5-56,45-140
		c-16.7-96.2-65.9-134.7-66.4-135.1l1.8-2.4c0.5,0.4,12.9,9.9,27.5,31.7c13.4,20,31.3,54.5,40.1,105.3c6.3,36.3,4.6,67.5-5.1,92.7
		c-8.3,21.7-22.2,38.6-41.3,50.3C729.5,767.6,707.6,773.6,685.4,773.6z"/>
	<path class="st7" d="M533,605c0,0,58-13,68-68l-11-14l-69,58L533,605z"/>
	<circle class="st10" cx="337.1" cy="583.4" r="8.1"/>
	<circle class="st10" cx="428.1" cy="537.4" r="8.1"/>
	<circle class="st10" cx="413.1" cy="482.4" r="8.1"/>
	<circle class="st10" cx="454.1" cy="433.4" r="8.1"/>
	<circle class="st10" cx="337.1" cy="707.4" r="8.1"/>
	<circle class="st10" cx="472.1" cy="693.4" r="8.1"/>
	<circle class="st10" cx="422.1" cy="637.4" r="8.1"/>
	<circle class="st10" cx="544.2" cy="659.4" r="8.1"/>
	<circle class="st10" cx="642.2" cy="608.4" r="8.1"/>
	<circle class="st10" cx="638.2" cy="699.4" r="8.1"/>
	<circle class="st10" cx="721.2" cy="725.4" r="8.1"/>
	<circle class="st10" cx="774.2" cy="630.4" r="8.1"/>
	<circle class="st10" cx="686.2" cy="556.4" r="8.1"/>
	
		<ellipse transform="matrix(0.1602 -0.9871 0.9871 0.1602 -365.6836 1168.9902)" class="st10" cx="504.1" cy="799.4" rx="8.1" ry="8.1"/>
	<circle class="st10" cx="329.1" cy="826.4" r="8.1"/>
	<circle class="st10" cx="576.2" cy="766.4" r="8.1"/>
	<circle class="st10" cx="733.2" cy="820.4" r="8.1"/>
	<path class="st0" d="M269,452c-0.7,0-1.4-0.4-1.8-1.1c-15.9-30.8-18.8-56.9-8.8-77.6c14.7-30.4,51.6-37.9,53.2-38.2
		c1.1-0.1,2.1,0.6,2.2,1.7c0.1,1-0.5,2-1.5,2.2c-0.4,0-36.5,7.5-50.4,36c-9.4,19.6-6.5,44.5,8.8,74c0.5,1,0.1,2.2-0.9,2.7
		c0,0,0,0,0,0C269.6,451.9,269.3,452,269,452z"/>
	<path class="st3" d="M278,662c-1.6,0-3-1.3-3-2.9c-1.6-51.8,12.6-90.6,24.7-114.1c13.2-25.5,26.6-38.6,27.2-39.2
		c1.2-1.1,3.1-1,4.2,0.2c1.1,1.2,1,3-0.1,4.1c-0.2,0.2-13.5,13.2-26.2,37.8c-11.8,22.8-25.4,60.5-23.9,110.9
		C281.1,660.6,279.7,661.9,278,662C278.1,662,278.1,662,278,662L278,662z"/>
	<path class="st3" d="M690,640c-1.2,0-2.2-0.7-2.7-1.7c-38-80.7-58.5-90.8-65.6-91.4c-3.7-0.3-5.3,1.8-5.3,1.8
		c-0.9,1.4-2.8,1.8-4.1,0.9c-1.4-0.9-1.8-2.8-0.9-4.1c0-0.1,0.1-0.1,0.1-0.2c1.3-1.8,5-4.8,10.7-4.4c17.6,1.4,42,34.2,70.5,94.8
		c0.7,1.5,0.1,3.3-1.4,4c0,0,0,0,0,0C690.9,639.9,690.4,640,690,640z"/>
	<path class="st0" d="M813,624h-0.2c-1.1-0.1-1.9-1.1-1.8-2.2c0,0,0,0,0,0c6.1-53.5-15.7-96.9-35.1-123.9
		c-21.1-29.3-43.9-46.1-44.1-46.3c-0.9-0.7-1.1-1.9-0.4-2.8s1.9-1.1,2.8-0.4l0,0c0.2,0.2,23.5,17.3,44.9,47.1
		C799,523,821.3,567.3,815,622.2C814.9,623.2,814,624,813,624z"/>
</g>
</svg>
