<?xml version="1.0" encoding="utf-8"?>
<!-- Generator: Adobe Illustrator 24.1.2, SVG Export Plug-In . SVG Version: 6.00 Build 0)  -->
<svg version="1.1" id="magnifying_1_" xmlns="http://www.w3.org/2000/svg" xmlns:xlink="http://www.w3.org/1999/xlink" x="0px"
	 y="0px" viewBox="0 0 1000 1000" style="enable-background:new 0 0 1000 1000;" xml:space="preserve">
<style type="text/css">
	.st0{fill:#FFCDB2;}
	.st1{fill:#1D1D1B;}
	.st2{fill:#FFFFFF;}
	.st3{fill:#D9CFFF;}
	.st4{fill:#1D1E1B;}
	.st5{fill:#FFC140;}
	.st6{fill:#FFAD00;}
	.st7{fill:#6C32AD;}
	.st8{fill:#FFB49F;}
	.st9{fill:#E89D00;}
</style>
<g id="line">
	<path d="M763.5,905.2L763.5,905.2l-548.7-3.3c-1.1,0-2-0.9-2-2s0.9-2,2-2l0,0l548.7,3.3c1.1,0,2,0.9,2,2S764.6,905.2,763.5,905.2z"
		/>
	<path d="M235.1,876.1h-78.9c-0.8,0-1.5-0.7-1.5-1.5s0.7-1.5,1.5-1.5h78.9c0.8,0,1.5,0.7,1.5,1.5S235.9,876.1,235.1,876.1z"/>
</g>
<g id="hand">
	<path class="st0" d="M704,402.6c0,0-4.1-27.4,23.5-37s56.3-10,72.7,5.6s16.8,33.2,10.9,44.6s-18.6,12.9-31.3,2.6
		c0,0-13.9,17.4-35.2-1.9c0,0-30.8,17.8-29.2-14L704,402.6z"/>
	<path d="M769.9,359.1c11.9,0.9,22.5,4.7,30.4,12.1c16.5,15.5,16.8,33.2,10.9,44.6c-3.5,6.7-9.3,10-16.1,9.4
		c-4.8-0.4-10-2.6-15.2-6.8c0,0-6.4,8-17.1,7.2c-5.1-0.4-11.2-2.8-18.1-9c0,0-9.6,5.6-17.8,4.9c-6.5-0.5-12.1-4.9-11.4-18.9
		l-11.5,0.1c0,0-4.1-27.4,23.5-37C742,360.6,756.8,358.1,769.9,359.1 M770.1,356.9c-13-1-28,1.3-43.3,6.7
		c-15.2,5.3-21.2,15.8-23.5,23.6c-1.6,5.1-2.1,10.5-1.5,15.9c0.2,1,1,1.8,2.1,1.9h0.2l9.1-0.1c0,14.7,7.3,18.4,13.6,18.9
		c6.9,0.5,14.5-2.9,17.7-4.5c6.1,5.2,12.2,8.1,18.2,8.5c6.5,0.4,12.8-1.9,17.5-6.4c4.9,3.6,10,5.6,14.8,6
		c7.8,0.6,14.5-3.3,18.3-10.6c3.5-6.8,4.6-14.6,3.2-22.1c-1.6-9-6.6-17.7-14.5-25.1S783.3,357.8,770.1,356.9L770.1,356.9z"/>
	<path class="st1" d="M779.2,422.6c-0.2,0-0.4,0-0.6-0.1c-0.8-0.3-1.1-1.2-0.8-2c0,0,0,0,0,0c10.8-25-5-42.1-5.7-42.8
		c-0.6-0.6-0.5-1.6,0.1-2.1c0.6-0.5,1.5-0.5,2.1,0c0.2,0.2,17.9,19.2,6.3,46C780.3,422.2,779.8,422.5,779.2,422.6z"/>
	<path class="st1" d="M745.2,420.1c-0.2,0-0.5,0-0.7-0.1c-0.7-0.4-1-1.3-0.7-2c6.6-13.5,0.8-35.9,0.8-36.1c-0.2-0.8,0.3-1.6,1.1-1.8
		c0.8-0.2,1.6,0.3,1.8,1.1c0.3,1,6.2,23.7-1,38.3C746.3,419.8,745.8,420.1,745.2,420.1z"/>
	<path class="st1" d="M714.5,406.6c-0.7,0-1.3-0.5-1.5-1.1c-0.2-0.6-3.6-14.4,2.2-22.9c0.4-0.7,1.3-0.9,2.1-0.5s0.9,1.3,0.5,2.1
		c0,0-0.1,0.1-0.1,0.1c-5,7.3-1.8,20.3-1.7,20.5c0.2,0.8-0.3,1.6-1.1,1.8c0,0,0,0,0,0C714.7,406.6,714.6,406.6,714.5,406.6z"/>
	<path class="st2" d="M804.7,419.6c-1.7,0-3-1.4-3-3c0-0.4,0.1-0.8,0.2-1.1c4.1-9.7,4.6-18.5,1.4-26.2c-5.1-12.4-18.1-17.9-18.2-18
		c-1.5-0.6-2.3-2.4-1.6-3.9s2.4-2.3,3.9-1.6c0.6,0.3,15.4,6.5,21.4,21.2c3.8,9.2,3.3,19.6-1.4,30.9
		C807.1,418.8,805.9,419.6,804.7,419.6z"/>
</g>
<g id="gear">
	<path class="st3" d="M929.4,584.7h-37.5c-1.1,0-2.3,0.1-3.4,0.2c-7.4-32.3-21.3-62.7-40.9-89.4l21.8-24.4
		c10.3-11.5,9.3-29.2-2.2-39.5l-44-39.4c-11.5-10.3-29.2-9.3-39.5,2.2l-24.2,27c-17.8-8.8-36.6-15.4-56-19.6V368
		c0-15.5-12.5-28-28-28h-59c-15.5,0-28,12.5-28,28v36.8c-23.5,6.3-46,16.2-66.5,29.2l-27.3-24.4c-11.5-10.3-29.2-9.3-39.5,2.2
		l-39.4,44c-10.3,11.5-9.3,29.2,2.2,39.5l24,21.5c-12.3,21.1-21.4,44-26.9,67.8h-35.6c-15.5,0-28,12.5-28,28v59
		c0,15.5,12.5,28,28,28h37.1c6.4,25,16.9,48.9,30.9,70.6l-24.1,26.9c-10.3,11.5-9.3,29.2,2.2,39.5l44,39.3
		c11.5,10.3,29.2,9.3,39.5-2.2l21.8-24.2c21,12.1,43.6,20.9,67.3,26.2c-0.1,0.7-0.1,1.5-0.1,2.2v23.5h115V878c0-1.3-0.1-2.7-0.3-4
		c26.7-6.9,51.9-18.3,74.8-33.8c0.6,0.7,1.3,1.4,2,2l28,25c11.5,10.2,29.1,9.2,39.4-2.2l39.3-44c10.3-11.5,9.3-29.2-2.2-39.5l-28-25
		c-0.4-0.4-0.9-0.8-1.4-1.1c9.7-17.7,17.2-36.5,22.2-56.1c1.6,0.3,3.3,0.4,4.9,0.4h37.5c15.5,0,28-12.5,28-28v-59
		C957.4,597.2,944.8,584.7,929.4,584.7C929.4,584.7,929.4,584.7,929.4,584.7z M652.3,812c-95.8,0-173.4-77.6-173.4-173.4
		s77.6-173.4,173.4-173.4c95.8,0,173.4,77.6,173.4,173.4C825.8,734.3,748.2,812,652.3,812C652.4,812,652.4,812,652.3,812z"/>
	<path class="st4" d="M714.6,903h-118v-25c0-0.3,0-0.7,0-1.1c-22.9-5.3-44.9-13.9-65.4-25.5l-20.9,23.3
		c-10.9,12.1-29.5,13.2-41.6,2.3l-44-39.3c-12.1-10.8-13.2-29.5-2.4-41.6c0,0,0,0,0,0l23.3-26.1c-13.6-21.3-23.7-44.5-30.1-68.9h-36
		c-16.3,0-29.4-13.2-29.5-29.5v-59c0-16.3,13.2-29.5,29.5-29.5H414c5.4-23.2,14.2-45.4,26.1-66L417,496.6
		c-12.1-10.8-13.2-29.5-2.3-41.6l39.4-44c10.9-12.1,29.5-13.2,41.6-2.3l26.4,23.6c20.1-12.6,41.9-22.3,64.8-28.5V368
		c0-16.3,13.2-29.4,29.5-29.5h59c16.3,0,29.5,13.1,29.6,29.4c0,0,0,0,0,0v32.7c18.7,4.2,36.9,10.5,54.2,19l23.4-26.2
		c10.9-12.1,29.5-13.2,41.6-2.3l44,39.4c12.1,10.8,13.2,29.5,2.3,41.6l-21,23.5c19.1,26.2,32.8,56.1,40.2,87.7
		c0.8-0.1,1.5-0.1,2.3-0.1h37.5c16.3,0,29.4,13.2,29.5,29.5v59c0,16.3-13.2,29.5-29.5,29.5h-37.5c-1.3,0-2.5-0.1-3.8-0.3
		c-4.9,18.8-12.1,36.9-21.3,54l0.5,0.4l28,25c12.1,10.9,13.2,29.5,2.3,41.6l-39.3,44c-10.8,12.1-29.5,13.2-41.6,2.4c0,0,0,0,0,0
		l-28-25c-0.4-0.4-0.8-0.8-1.2-1.2c-22.3,14.9-46.9,26.1-72.9,32.9c0.1,1,0.1,1.9,0.2,2.9L714.6,903z M599.6,900h112v-22
		c0-1.3-0.1-2.5-0.3-3.8l-0.2-1.3l1.3-0.3c26.5-6.9,51.6-18.2,74.3-33.5l1.1-0.7l0.9,1c0.6,0.7,1.3,1.3,1.9,1.9l28,25
		c10.9,9.7,27.6,8.8,37.4-2.1l39.3-44c9.7-10.9,8.8-27.6-2.1-37.4l-28-25c-0.4-0.4-0.8-0.7-1.3-1.1l-1-0.8l0.6-1.1
		c9.6-17.6,17-36.3,22-55.8l0.3-1.3l1.4,0.2c1.5,0.3,3.1,0.4,4.6,0.4h37.5c14.6,0,26.4-11.9,26.5-26.5v-59
		c0-14.6-11.9-26.4-26.5-26.5h-37.5c-1.1,0-2.2,0.1-3.3,0.2l-1.3,0.2l-0.3-1.3c-7.3-32.1-21.1-62.4-40.7-88.9l-0.7-1l22.6-25.3
		c9.7-10.9,8.8-27.6-2.1-37.4l-44-39.4c-10.9-9.7-27.6-8.8-37.4,2.1l-24.9,27.8l-1-0.5c-17.7-8.8-36.4-15.3-55.7-19.5l-1.2-0.3V368
		c0-14.6-11.9-26.5-26.5-26.5h-59c-14.6,0-26.5,11.8-26.5,26.4c0,0,0,0,0,0v37.9l-1.1,0.3c-23.4,6.3-45.6,16.1-66.1,29.1l-1,0.6
		l-28.1-25.1c-10.9-9.7-27.6-8.8-37.4,2.1l-39.4,44c-9.7,10.9-8.8,27.6,2.1,37.4l25,22.3l-0.6,1.1c-12.3,21-21.3,43.7-26.7,67.4
		l-0.3,1.2h-36.8c-14.6,0-26.4,11.9-26.5,26.5v59c0,14.6,11.9,26.4,26.5,26.5h38.3l0.3,1.1c6.4,24.9,16.8,48.6,30.7,70.1l0.6,1
		l-24.8,27.8c-9.7,10.9-8.8,27.6,2.1,37.4l44,39.3c10.9,9.7,27.6,8.8,37.4-2.1l22.5-25.2l1.1,0.6c20.8,12,43.4,20.8,66.8,26.1
		l1.3,0.3l-0.1,1.3c-0.1,0.8-0.1,1.5-0.1,2.1L599.6,900z M652.3,813.4c-96.5,0-174.9-78.5-174.9-174.9s78.5-174.9,174.9-174.9
		s174.9,78.5,174.9,174.9S748.8,813.4,652.3,813.4L652.3,813.4z M652.3,466.6c-94.8,0-171.9,77.1-171.9,171.9
		s77.1,171.9,171.9,171.9s171.9-77.1,171.9-171.9S747.2,466.6,652.3,466.6L652.3,466.6z"/>
	<circle class="st5" cx="731.7" cy="535.2" r="8.1"/>
	<circle class="st5" cx="718.5" cy="622" r="8.1"/>
	<path class="st2" d="M877,595c-1.5,0-2.8-1.2-3-2.7c-6.8-64.9-49.4-97.6-49.8-97.9c-1.3-1-1.6-2.9-0.6-4.2c1-1.3,2.9-1.6,4.2-0.6
		c1.8,1.4,45.1,34.6,52.2,102.1c0.2,1.6-1,3.1-2.7,3.3C877.2,595,877.1,595,877,595z"/>
	<path class="st2" d="M852,857c-0.7,0-1.5-0.3-2-0.8c-1.2-1.1-1.3-3-0.2-4.2c0,0,0,0,0,0c0.2-0.3,23.2-25.2,36-39
		c2.5-2.5,3.9-5.9,3.7-9.5c-0.5-8.5-9.4-16.1-9.5-16.2c-1.2-1.1-1.3-3-0.2-4.2c1.1-1.2,2.8-1.3,4.1-0.3c0.5,0.4,10.9,9.3,11.6,20.4
		c0.3,5.2-1.6,10.3-5.3,14c-12.8,13.8-35.8,38.7-36,39C853.6,856.7,852.8,857,852,857z"/>
	<path class="st2" d="M946,667c-1.7,0-3-1.3-3-3v-25c0-0.4,0.1-0.8,0.3-1.2c0.1-0.9,0.5-4.7-0.3-19.7c-0.3-5.2-1.9-9.1-4.9-11.4
		c-5.3-4.2-13.5-2.8-13.5-2.8c-1.6,0.3-3.2-0.8-3.5-2.4s0.8-3.2,2.4-3.5c0.4-0.1,10.9-2,18.4,3.9c4.4,3.5,6.8,8.8,7.2,15.9
		c0.7,14.8,0.5,19.7,0,21.7V664C949,665.7,947.7,667,946,667z M946,636c-0.6,0-1.3,0.2-1.8,0.6C944.7,636.2,945.4,636,946,636z"/>
	<path class="st2" d="M550,435c-1.7,0-3-1.3-3-3c0-1,0.5-2,1.4-2.5c1.4-0.9,35.3-22.5,79.8-20.5c1.7,0.1,2.9,1.5,2.9,3.1
		c0,0,0,0,0,0c-0.1,1.6-1.5,2.9-3.1,2.9c-42.5-2-75.9,19.3-76.2,19.5C551.1,434.8,550.6,435,550,435z"/>
	<path class="st1" d="M615,376c-0.2,0-0.4,0-0.5-0.1c-1.1-0.3-1.7-1.4-1.4-2.5c0.1-0.4,11.8-40.2,52-92.7
		c23.5-30.8,52.1-59.8,84.9-86.4c41-33.2,88.8-62.5,142.2-87.2c1-0.4,2.2,0.1,2.6,1.1c0.4,0.9,0,2-0.9,2.5
		c-120,55.6-188.9,124.5-225.6,172.4c-39.7,51.9-51.2,90.9-51.3,91.3C616.7,375.4,615.9,376,615,376z"/>
	<path class="st1" d="M646,379c-0.3,0-0.5,0-0.7-0.1c-1-0.4-1.5-1.6-1.1-2.6c0.1-0.3,10.9-27.4,34.9-57.6
		c22.2-28,60.6-64.4,117.4-79.6c1.1-0.2,2.1,0.5,2.3,1.6c0.2,1-0.4,1.9-1.3,2.2c-55.7,14.8-93.4,50.6-115.2,78.1
		c-23.7,29.8-34.3,56.5-34.4,56.7C647.5,378.5,646.8,379,646,379z"/>
	<path class="st1" d="M914,838c-0.5,0-1-0.2-1.3-0.5c-0.8-0.7-0.9-2-0.1-2.8c11.9-13.2,17.2-25.9,15.7-37.8
		c-2-15.4-15.2-24.2-15.3-24.2c-0.9-0.6-1.2-1.8-0.6-2.8c0.6-0.9,1.8-1.2,2.8-0.6c0.6,0.4,14.8,9.8,17.1,27c1.7,13-3.9,26.8-16.7,41
		C915.1,837.7,914.6,838,914,838z"/>
</g>
<g id="woman">
	<path class="st6" d="M798.5,543.7c-41.5-60.8-99.5-74.9-125.5-78.2c-6.5,7.1-9.5,16.7-8.3,26.3c3.2,27.6,1.2,65.6,10.3,78.7
		c0,0-50-36.8-160.1-47.5c-3.4-0.6-6.9-1.1-10.4-1.5l-70.8-5.7c0,0-79.5-6.6-148,32S115.5,671.5,140.5,734.5c22.6,57,50,64,90,58
		c23.7-3.5,78.4-40.7,78.4-40.7s-21.6,54.3,0,147l361.6,2.7c0,0,12-117-8-205l0,0C773.5,735.5,779.2,600.8,798.5,543.7z"/>
	<path class="st1" d="M671.8,903h-1.4l-362.8-2.7l-0.3-1.2c-18.1-77.6-5.8-129.1-1.3-143.7c-12.7,8.4-54.9,35.5-75.4,38.5
		c-40.8,6.1-68.9-1.6-91.6-58.9c-11.3-28.4,1.8-64.4,37.9-104c27.6-30.3,68-61.9,108.1-84.5c68.1-38.4,148.1-32.3,148.9-32.2
		l70.8,5.7c3.4,0.4,6.9,0.9,10.5,1.5c90.4,8.8,140.9,35.5,156,44.7c-4.2-10.6-5-27.9-5.9-46c-0.5-9.6-1-19.5-2-28.3
		c-1.3-10,1.8-20,8.6-27.4l0.5-0.6l0.8,0.1c20,2.6,39.4,8.6,57.4,17.6c27.7,13.9,50.9,34.5,69.1,61.2l0.4,0.6l-0.2,0.7
		c-3.5,10.2-6.5,23.1-9.8,36.7c-10.2,43-23,96.5-59.2,116.2c-17.9,9.8-40.3,10.3-66.5,1.6c19,86.9,7.6,201.7,7.4,202.9L671.8,903z
		 M310.1,897.3l359.1,2.7c1.2-13.3,10.5-121.5-8.1-203.2l-0.6-2.7l2.6,0.9c26.8,9.4,48.6,9.3,66.6-0.5c35-19.1,47.6-71.9,57.7-114.3
		c3.2-13.4,6.2-26.1,9.6-36.3c-41.3-60-99.3-73.7-123.2-76.8c-5.9,6.7-8.5,15.6-7.4,24.5c1,8.8,1.5,18.8,2,28.5
		c1,20.2,2.1,41,8.1,49.6l5.2,7.4l-7.3-5.4c-0.5-0.4-51-36.7-159.3-47.2h-0.1c-3.5-0.6-7-1.1-10.4-1.5l-70.7-5.7
		c-0.8-0.1-79.8-6.1-147.1,31.8C217.7,587.9,117.4,672.3,141.9,734c22.1,55.8,48.1,63,88.4,57c23.1-3.5,77.2-40.1,77.8-40.5l4-2.7
		l-1.8,4.5C310,752.9,289.3,807,310.1,897.3z"/>
	<path class="st7" d="M374,411.4c0,0-19.9,37-43.4,16.9s-73.3-63.6-107.1-30.5s-33.1,43.1-63.2,28.8s-108,12.8-67.6,96.9
		s316.7-49.2,316.7-49.2l6.4-25.3L374,411.4z"/>
	<path d="M252.4,385.8c29,0,60.8,27.6,78.2,42.5c5,4.3,9.9,6,14.4,6c16.7,0,29-22.8,29-22.8l41.8,37.5l-6.4,25.2
		c0,0-159.7,77.1-254,77.1c-29.8,0-53-7.7-62.7-27.8C59.1,453.5,107.5,423,142,423c6.3-0.1,12.6,1.1,18.4,3.6
		c8.9,4.3,15.1,6.4,20.4,6.4c12.4,0,19.1-11.8,42.8-35.1C232.3,389.2,242.2,385.8,252.4,385.8 M252.5,382.8
		c-11.8,0-22.3,4.4-31,12.9c-6.3,6.2-11.4,11.5-15.8,16.2c-11.4,12-17.1,18-24.9,18c-4.4,0-10.1-1.8-19.1-6.1
		c-6.2-2.7-12.9-4.1-19.6-3.9c-17,0-41.7,7.5-55,28.8c-8.7,13.7-15.2,38.1,3,76c9.4,19.6,31.4,29.5,65.4,29.5
		c39.5,0,94.5-13,163.4-38.7c51.3-19.1,91.5-38.5,91.9-38.7c0.8-0.4,1.4-1.1,1.6-2l6.4-25.2c0.3-1.1-0.1-2.2-0.9-3L376,409.1
		c-0.5-0.5-1.3-0.8-2-0.8c-0.2,0-0.3,0-0.5,0c-0.9,0.2-1.7,0.7-2.1,1.5c-0.1,0.2-11.7,21.3-26.4,21.3c-4.2,0-8.4-1.8-12.5-5.3
		l-0.9-0.8c-17.3-14.8-49.6-42.5-79.2-42.5L252.5,382.8z"/>
	<path class="st0" d="M295.5,505.5c0,0,9.6,20.5-7.7,60.3s-65.3-11.4-65.3-11.4L295.5,505.5z"/>
	<path class="st4" d="M267.8,582.4c-20.8,0-45.2-25.8-46.3-27l-1.2-1.3l75.9-50.8l0.7,1.6c0.4,0.9,9.7,21.6-7.7,61.5
		c-4,9.1-9.8,14.4-17.5,15.7C270.4,582.3,269.1,582.4,267.8,582.4z M224.9,554.6c5.6,5.6,28.8,27.5,46.3,24.5
		c6.6-1.1,11.7-5.8,15.2-13.9c14.1-32.3,10-51.8,8.3-57.4L224.9,554.6z"/>
	<path class="st6" d="M284.9,718.6c6.6-20.4,32.1-38.3,44.5-81.1s-42.6-57.8-42.6-57.8l1.9-14.2c0,0-36.3,10.5-75.2-16.9l-10.8,17.1
		c0,0-45.2,13.3-45.5,52s-35.8,73.5-15.7,118.7"/>
	<path d="M141.6,737.9c-0.6,0-1.2-0.3-1.5-0.9c-12.7-28.5-3.7-52.9,5-76.5c5.4-14.6,10.5-28.4,10.6-42.8c0.3-36.9,40.8-51.5,46-53.2
		l10.6-16.7c0.2-0.4,0.6-0.6,1-0.7c0.4-0.1,0.8,0,1.1,0.2c37.9,26.6,73.6,16.8,73.9,16.7c0.5-0.1,1,0,1.4,0.3
		c0.4,0.3,0.6,0.8,0.5,1.3l-1.7,13c5.8,1.8,29.2,10,39.5,28.4c5.2,9.3,6.2,19.7,2.9,30.9c-7.5,26-19.9,42.9-29.9,56.6
		c-6.5,8.9-12.1,16.6-14.7,24.6c-0.3,0.8-1.2,1.2-1.9,0.9c-0.7-0.3-1.1-1-0.9-1.8c2.7-8.4,8.5-16.3,15.1-25.4
		c9.8-13.4,22-30.2,29.4-55.6c3-10.5,2.1-20.1-2.6-28.6c-10.9-19.5-38.6-27.3-38.9-27.3c-0.7-0.2-1.2-0.9-1.1-1.6l1.6-12.1
		c-8.4,1.7-39.9,5.9-73-16.7l-10,15.8c-0.2,0.3-0.5,0.5-0.8,0.6c-0.4,0.1-44.2,13.5-44.4,50.5c-0.1,15-5.5,29.7-10.7,43.8
		c-8.5,23-17.3,46.9-5.1,74.3c0.3,0.8,0,1.7-0.8,2c0,0,0,0,0,0C141.9,737.9,141.7,737.9,141.6,737.9z"/>
	<path class="st2" d="M509.6,522.2c0,0,13.2,26.6-17.8,33.6s-37-9-37-9s-21,20-40,3s4-35,4-35L509.6,522.2z"/>
	<path d="M477.4,559.1c-14.8,0-20.9-6.6-23-9.9c-5.3,4.2-23.7,16.8-40.5,1.8c-5.5-4.9-8.2-10.5-8-16.4c0.4-11.6,11.6-20.5,12.1-20.9
		c0.3-0.2,0.6-0.3,1-0.3l90.8,7.4c0.5,0,1,0.4,1.2,0.8c0.2,0.5,5.9,12.1,1,22.5c-3.1,6.6-9.8,11.1-19.8,13.3
		C487.3,558.4,482.4,559,477.4,559.1z M454.9,545.3c0.1,0,0.2,0,0.3,0c0.5,0.1,0.9,0.5,1.1,0.9c0.2,0.6,6.1,14.7,35.3,8.1
		c9-2,15-6,17.7-11.7c3.6-7.6,0.5-16.5-0.6-19.1l-89.3-7.2c-2,1.7-10.2,9.3-10.5,18.3c-0.2,5,2.2,9.8,7,14.1
		c17.7,15.9,37.1-2.2,38-3C454.1,545.4,454.5,545.3,454.9,545.3z"/>
	<circle class="st7" cx="434.8" cy="322" r="37.8"/>
	<path d="M434.8,284.3c20.9,0,37.8,16.9,37.8,37.7s-16.9,37.8-37.7,37.8c-20.9,0-37.8-16.9-37.8-37.7c0-12.9,6.6-24.9,17.4-31.9
		C420.5,286.4,427.6,284.3,434.8,284.3 M434.8,281.3L434.8,281.3L434.8,281.3c-22.5,0-40.7,18.3-40.7,40.8
		c0,22.5,18.3,40.7,40.8,40.7c22.5,0,40.7-18.3,40.7-40.8c0-7.8-2.2-15.3-6.4-21.9C461.7,288.4,448.7,281.3,434.8,281.3z"/>
	<path class="st7" d="M341.8,449.5c0,0-28.4-20-19.7-44.6s15.1-23.2,18.8-36.5s25.3-28.4,46.8-24.5c0,0,23.9-22,48-18.4
		s33.4,14,41.9,31.6s16,25.1,22.4,37.3s17.7,47.1-29.4,78.5S341.8,449.5,341.8,449.5z"/>
	<path d="M430.2,325.1c1.8,0,3.7,0.1,5.5,0.4c24,3.6,33.4,14,41.9,31.6s16,25.1,22.4,37.3s17.7,47.1-29.4,78.5
		c-10.5,7-22.7,9.7-35.3,9.7c-44.1,0-93.6-33.2-93.6-33.2s-28.4-20-19.7-44.6s15.1-23.2,18.8-36.5c3.3-11.8,20.8-25.1,39.8-25.1
		c2.3,0,4.7,0.2,7,0.6C387.7,344,408.1,325.1,430.2,325.1 M430.1,322.1L430.1,322.1c-20.2,0-38.7,14.6-43.4,18.6
		c-2-0.3-4.1-0.4-6.1-0.4c-20.6,0-39,14.4-42.7,27.3c-1.5,5.4-3.4,8-6.1,11.6c-3.4,4.7-7.7,10.6-12.7,24.6c-3.9,11-1.5,22.9,7,34.3
		c3.9,5.2,8.6,9.8,13.8,13.7l0,0c9.8,6.3,20,11.9,30.6,16.8c16.6,7.7,41.3,16.9,64.6,16.9c14.4,0,26.8-3.4,37-10.2
		c21-14,33.1-30.3,36-48.5c1.8-11.6-0.2-23.5-5.7-33.9c-2.7-4.9-5.6-9.7-8.9-14.3c-5.1-7.3-9.6-14.9-13.5-22.9
		c-8.8-18.2-18.8-29.4-44.1-33.3C434.1,322.3,432.1,322.1,430.1,322.1L430.1,322.1z"/>
	<path d="M431.8,414.8c-0.8,0-1.5-0.6-1.6-1.4s0.6-1.5,1.4-1.6c15.6-1.4,29.9-18.9,30.1-19.1c0.5-0.6,1.5-0.7,2.1-0.2
		c0.6,0.5,0.7,1.5,0.2,2.1l0,0c-0.6,0.8-15.3,18.6-32.1,20.2L431.8,414.8z"/>
	<path class="st2" d="M432.1,404c-26.3,0-37.8-27.5-37.9-27.9c-0.4-0.7-0.2-1.6,0.5-2.1s1.6-0.2,2.1,0.5c0.1,0.1,0.1,0.3,0.2,0.4
		c0.6,1.4,13.8,33.2,45.6,24.5c0.8-0.3,1.6,0.2,1.9,1c0.3,0.8-0.2,1.6-1,1.9c0,0-0.1,0-0.1,0C439.8,403.4,436,404,432.1,404z"/>
	<path d="M472,286.2c-0.6,0-1.2-0.4-1.4-1c-2.8-7.9-7.4-13.4-13.7-16.4c-11.2-5.3-24.2-0.7-24.3-0.6c-0.8,0.2-1.6-0.3-1.8-1
		c-0.2-0.7,0.2-1.5,0.8-1.8c0.6-0.2,14.3-5.1,26.6,0.8c7,3.3,12.2,9.4,15.3,18.1c0.3,0.8-0.1,1.6-0.9,1.9c0,0,0,0,0,0
		C472.4,286.2,472.2,286.2,472,286.2z"/>
	<path class="st2" d="M459.8,311.7c-0.6,0-1.1-0.3-1.3-0.8c-4.2-7.8-9.6-12.6-16.1-14.2c-10.6-2.5-20.7,4.3-20.8,4.4
		c-0.7,0.4-1.6,0.2-2.1-0.5c-0.4-0.7-0.3-1.5,0.4-2c0.5-0.3,11.3-7.7,23.2-4.8c7.4,1.8,13.5,7,18.1,15.6c0.4,0.7,0.1,1.6-0.6,2
		C460.3,311.6,460,311.7,459.8,311.7z"/>
	<path class="st0" d="M417.2,501v15c0,0,26,39,76,7c0,0-24.5-35.3-37.7-77.1c0,0,18.5-5,14.7-21.6s-17.4-18.8-25.1-13.8
		c0,0-30,23.2-64.9-40c0,0-32.4,15.2-37.5,49.7s3.6,73.7,30.4,83.8C399.9,514,417.2,501,417.2,501z"/>
	<path d="M380.2,370.5c20.1,36.5,38.6,44.2,50.7,44.2c5.1,0.1,10-1.3,14.2-4.2c2.4-1.5,5.3-2.3,8.1-2.3c6.9,0,14.3,4.5,17,16.1
		c3.8,16.6-14.7,21.6-14.7,21.6c13.1,41.8,37.6,77.1,37.6,77.1c-14.5,9.3-27.1,12.6-37.5,12.6c-25.4,0-38.5-19.6-38.5-19.6v-15
		c0,0-9,6.8-24,6.8c-6.8-0.1-13.6-1.3-20-3.8c-26.8-10-35.5-49.3-30.4-83.8S380.3,370.5,380.2,370.5 M380.3,367.5
		c-0.4,0-0.9,0.1-1.3,0.3c-6.4,3.3-12.3,7.5-17.6,12.4c-12,11.1-19.4,24.8-21.7,39.5c-2.7,18.4-1.5,37,3.3,52.4
		c5.6,17.6,15.6,29.6,29,34.6c6.7,2.6,13.9,3.9,21.1,4c7.3,0,14.4-1.5,21-4.6v9.8c0,0.6,0.2,1.2,0.5,1.7c0.6,0.8,14.3,20.9,41,20.9
		c12.4,0,25.5-4.4,39.1-13.1c1.4-0.9,1.8-2.7,0.9-4.1c0,0,0-0.1-0.1-0.1c-0.2-0.3-23.4-33.8-36.4-73.6c2.5-1,4.8-2.4,6.9-4.1
		c6.4-5.1,8.8-12.1,7-20c-3.2-13.7-12.3-18.5-19.9-18.5c-3.4,0-6.8,1-9.7,2.8l-0.2,0.2c-3.7,2.4-8,3.6-12.4,3.5
		c-11.2,0-28.6-7.4-48-42.6C382.3,368.1,381.3,367.5,380.3,367.5L380.3,367.5z"/>
	<path d="M416.7,504c-0.8,0-1.5-0.7-1.5-1.5c0-0.6,0.4-1.2,1-1.4c14.3-4.8,25.2-20.6,25.3-20.7c0.5-0.7,1.4-0.9,2.1-0.4
		c0.7,0.5,0.9,1.4,0.4,2.1l0,0c-0.5,0.7-11.5,16.8-26.9,21.9C417,504,416.8,504,416.7,504z"/>
	<path d="M455.1,438.2c-0.2,0-0.5-0.1-0.7-0.2c-0.7-0.4-1-1.3-0.6-2c2.9-5.5,3.5-9.7,1.9-12.6c-2.4-4.1-8.8-4.4-8.8-4.4
		c-0.8,0-1.5-0.7-1.4-1.6c0-0.8,0.7-1.5,1.5-1.4c0.3,0,8.1,0.4,11.3,5.9c2.2,3.9,1.6,9.1-1.8,15.5
		C456.1,437.9,455.6,438.2,455.1,438.2z"/>
	<path class="st8" d="M381.6,421.4c19.4,1.5,43.7-10.2,49-4.1s3.2,15.6-6.7,19.2s-20.1,4.7-41,5.9s-41.6,0.8-40.7-10.6
		S353.1,419.2,381.6,421.4z"/>
	<path d="M358.1,412.2c-0.8,0-1.5-0.7-1.5-1.5c0-0.4,0.1-0.7,0.4-1c0.3-0.3,6.6-7.6,15-7c0.8,0.1,1.5,0.8,1.4,1.6
		c-0.1,0.8-0.8,1.5-1.6,1.4c-6.9-0.5-12.5,5.9-12.5,5.9C359,412,358.6,412.2,358.1,412.2z"/>
	<path d="M379.6,456.3c-0.1,0-0.2,0-0.3,0c-0.8-0.2-1.3-1-1.2-1.8c0,0,0,0,0,0l6.4-30.8c0.2-0.8,1-1.3,1.8-1.2s1.3,1,1.2,1.8
		l-6.4,30.8C381,455.8,380.4,456.3,379.6,456.3z"/>
	<circle class="st6" cx="463.1" cy="444.9" r="6.2"/>
	<path d="M463.1,438.7c3.4,0,6.2,2.8,6.2,6.2c0,2.1-1.1,4.1-2.9,5.2c-2.9,1.8-6.7,1-8.5-1.9c-1.8-2.9-1-6.7,1.9-8.5
		C460.8,439,461.9,438.7,463.1,438.7 M463.1,435.7L463.1,435.7c-5.1,0-9.2,4.1-9.2,9.2c0,5.1,4.1,9.2,9.2,9.2c5.1,0,9.2-4.1,9.2-9.2
		c0-1.7-0.5-3.4-1.4-4.9C469.2,437.3,466.3,435.7,463.1,435.7z"/>
	<circle cx="413.6" cy="427.8" r="3.5"/>
	<circle cx="362.4" cy="431.3" r="3.5"/>
	<path d="M398,481.3c-1.2,0-2.4-0.2-3.5-0.5c-0.8-0.2-1.3-1-1.1-1.8s1-1.3,1.8-1.1c9.7,2.6,16.2-10.1,16.2-10.3
		c0.3-0.8,1.2-1.1,2-0.8c0.8,0.3,1.1,1.2,0.8,2c0,0.1-0.1,0.1-0.1,0.2C414,469.6,408,481.3,398,481.3z"/>
	<path d="M394.3,403.7c-0.4,0-0.7-0.2-1-0.4c-0.6-0.6-0.6-1.5-0.1-2.1c0.5-0.5,5-5.1,9.2-3.6c0.8,0.3,1.2,1.1,0.9,1.9
		c-0.3,0.8-1.1,1.2-1.9,0.9l0,0c-2-0.7-5.1,1.9-6,2.8C395.1,403.6,394.7,403.7,394.3,403.7z"/>
	<path class="st9" d="M203.9,566.7c-0.1-0.1,10.3-16.2,10.3-16.2c38.9,27.4,73,16.6,73,16.6l-1.5,14.3l0.3-0.6
		C286,580.7,250.5,609.9,203.9,566.7z"/>
	<circle class="st5" cx="558.4" cy="572.8" r="8.1"/>
	<path class="st3" d="M328.2,464.3l6.7,7.4c2.6,2.8,2.4,7.2-0.5,9.8l-103.5,93.9c-2.8,2.6-7.2,2.4-9.8-0.5l-6.7-7.4
		c-2.6-2.8-2.4-7.2,0.5-9.8l103.5-93.9C321.3,461.2,325.7,461.4,328.2,464.3z"/>
	<path class="st4" d="M226.3,578.6h-0.4c-2.2-0.1-4.3-1.1-5.8-2.7l0,0l-6.7-7.4c-3.1-3.4-2.9-8.8,0.6-11.9l103.5-93.9
		c3.4-3.1,8.7-2.8,11.9,0.6l6.7,7.4c3.1,3.4,2.9,8.7-0.6,11.9c0,0,0,0,0,0L232,576.4C230.5,577.8,228.4,578.6,226.3,578.6z
		 M323.1,463.5c-1.3,0-2.6,0.5-3.6,1.4L216,558.8c-2.2,2-2.4,5.4-0.4,7.6l6.7,7.4c2,2.2,5.4,2.4,7.6,0.4c0,0,0,0,0,0l103.5-93.9
		c2.2-2,2.4-5.4,0.4-7.6l-6.7-7.4C326.1,464.1,324.6,463.5,323.1,463.5z"/>
	<path class="st6" d="M398.5,439.6l-6.1-1.4c-0.2,0-0.4-0.1-0.6-0.1c0-5.5-1.1-10.9-3.3-16l4.5-3.1c2.1-1.5,2.6-4.4,1.1-6.5l-5.6-8
		c-1.5-2.1-4.4-2.6-6.5-1.1l-4.9,3.5c-2.5-2.1-5.3-3.9-8.3-5.3l1.3-5.5c0.6-2.5-1-5-3.5-5.6c0,0,0,0,0,0l-9.5-2.2
		c-2.5-0.6-5,1-5.6,3.5c0,0,0,0,0,0l-1.4,6c-4,0.1-8,0.9-11.9,2.3l-3.5-5c-1.5-2.1-4.4-2.6-6.5-1.1c0,0,0,0,0,0l-8,5.6
		c-2.1,1.5-2.6,4.4-1.1,6.5l3.1,4.4c-2.8,3-5.1,6.3-6.9,10l-5.8-1.3c-2.5-0.6-5,1-5.6,3.5c0,0,0,0,0,0l-2.2,9.5
		c-0.6,2.5,1,5,3.5,5.6l6,1.4c0.1,4.3,0.9,8.5,2.4,12.6l-4.9,3.5c-2.1,1.5-2.6,4.4-1.1,6.5c0,0,0,0,0,0l5.6,8
		c1.5,2.1,4.4,2.6,6.5,1.1c0,0,0,0,0,0l4.4-3.1c2.9,2.7,6.3,5,9.9,6.8c0,0.1-0.1,0.2-0.1,0.4l-1.4,6.1c-0.6,2.5,1,5,3.5,5.6
		c0,0,0,0,0,0l9.6,2.2c2.5,0.6,5-1,5.6-3.5c0,0,0,0,0,0l1.4-6.1c0-0.2,0.1-0.4,0.1-0.7c4.6-0.1,9.1-1,13.4-2.6
		c0.1,0.1,0.2,0.3,0.3,0.4l3.6,5.1c1.5,2.1,4.4,2.6,6.5,1.1l8-5.6c2.1-1.5,2.6-4.4,1.1-6.5l-3.6-5.1l-0.2-0.2
		c2.2-2.5,4.1-5.3,5.7-8.3c0.2,0.1,0.5,0.2,0.8,0.3l6.1,1.4c2.5,0.6,5-1,5.6-3.5c0,0,0,0,0,0l2.2-9.5
		C402.6,442.6,401,440.2,398.5,439.6z M345.2,466c-15.5-3.6-25.2-19.1-21.6-34.6c3.6-15.5,19.1-25.2,34.6-21.6
		c15.5,3.6,25.2,19.1,21.6,34.6c0,0,0,0,0,0C376.2,459.9,360.7,469.6,345.2,466C345.2,466,345.2,466,345.2,466z"/>
	<path class="st1" d="M346.6,490.1c-0.5,0-0.9-0.1-1.4-0.2l-9.6-2.2c-3.3-0.8-5.4-4.1-4.6-7.4l1.2-5.3c-3-1.5-5.8-3.4-8.3-5.6
		l-3.4,2.4c-2.8,1.9-6.6,1.3-8.6-1.5l-5.6-8c-0.9-1.3-1.3-3-1-4.6c0.3-1.6,1.2-3.1,2.5-4l4-2.8c-1.1-3.5-1.8-7.1-2-10.8L305,439
		c-3.3-0.8-5.4-4.1-4.6-7.4l2.2-9.6c0.8-3.3,4.1-5.4,7.4-4.6l4.6,1.1c1.6-3,3.5-5.8,5.8-8.4l-2.4-3.4c-2-2.8-1.3-6.6,1.5-8.6
		c0,0,0,0,0,0l8-5.6c2.8-1.9,6.6-1.3,8.6,1.5l2.9,4c3.3-1,6.6-1.7,10.1-1.9l1.1-4.9c0.8-3.3,4.1-5.4,7.4-4.6l9.5,2.2
		c3.3,0.8,5.4,4,4.6,7.3c0,0,0,0,0,0l-1,4.3c2.3,1.2,4.6,2.6,6.7,4.2l4-2.8c2.8-1.9,6.6-1.3,8.6,1.5l5.6,8c2,2.8,1.3,6.6-1.5,8.6
		l-3.5,2.5c1.8,4.5,2.8,9.4,2.9,14.2l5.5,1.3c3.3,0.8,5.4,4.1,4.6,7.4l-2.2,9.5c-0.8,3.3-4.1,5.4-7.4,4.6l-5.8-1.3
		c-1.3,2.3-2.8,4.5-4.5,6.5l3.1,4.4c2,2.8,1.3,6.6-1.5,8.6l-8,5.6c-2.8,2-6.6,1.3-8.6-1.5c0,0,0,0,0,0l-3.2-4.5
		c-3.7,1.3-7.6,2.1-11.5,2.3l-1.3,5.6C352,488.1,349.5,490.1,346.6,490.1z M324.3,465.6l0.9,0.8c2.8,2.6,6,4.8,9.5,6.5l1.2,0.6
		l-0.4,1.2c0,0.1-0.1,0.2-0.1,0.2l-1.4,6c-0.4,1.7,0.7,3.4,2.4,3.8l9.5,2.2c1.7,0.4,3.4-0.7,3.8-2.4l1.4-6.1c0-0.1,0-0.3,0.1-0.5
		l0.1-1.3h1.3c4.4-0.1,8.8-1,12.9-2.6l1.2-0.5l0.6,1.1l0.2,0.3l3.6,5.1c1,1.4,3,1.8,4.4,0.8c0,0,0,0,0,0l8-5.6c1.4-1,1.8-3,0.8-4.4
		c0,0,0,0,0,0l-3.6-5.1l-0.1-0.2l-0.8-1l0.8-1c2.2-2.4,4-5.1,5.5-7.9l0.6-1.2l1.3,0.5c0.2,0.1,0.3,0.1,0.5,0.2l6.1,1.4
		c1.7,0.4,3.4-0.7,3.8-2.4l2.2-9.6c0.4-1.7-0.7-3.4-2.4-3.8l-6.1-1.4l-0.4-0.1l-1.3-0.1V438c0-5.3-1-10.5-3.1-15.4l-0.5-1.1l5.4-3.8
		c1.4-1,1.8-3,0.8-4.4l-5.6-8c-1-1.4-3-1.8-4.4-0.8c0,0,0,0,0,0l-5.9,4.1l-0.9-0.7c-2.4-2-5.1-3.7-8-5.1l-1.1-0.5l1.5-6.7
		c0.2-0.8,0-1.7-0.4-2.4c-0.4-0.7-1.1-1.2-2-1.4l-9.6-2.2c-1.7-0.4-3.4,0.7-3.8,2.4l-1.6,7.1h-1.1c-3.9,0.1-7.7,0.9-11.4,2.2
		l-1.1,0.4l-4.1-5.9c-1-1.4-3-1.8-4.4-0.8l-8,5.6c-0.7,0.5-1.1,1.2-1.3,2c-0.1,0.8,0,1.7,0.5,2.3l3.8,5.4l-0.8,0.9
		c-2.7,2.8-4.9,6.1-6.6,9.6l-0.5,1.1l-6.9-1.6c-1.7-0.4-3.4,0.7-3.8,2.4l-2.2,9.5c-0.4,1.7,0.7,3.4,2.4,3.8l7.1,1.6v1.2
		c0.1,4.1,0.8,8.3,2.2,12.2l0.4,1.1l-5.8,4.1c-1.4,1-1.8,3-0.8,4.4c0,0,0,0,0,0l5.6,8c1,1.4,3,1.7,4.4,0.8L324.3,465.6z
		 M351.7,468.2c-2.3,0-4.6-0.3-6.9-0.8l0,0c-16.3-3.8-26.4-20.1-22.6-36.4c3.8-16.3,20.1-26.4,36.4-22.6
		c16.3,3.8,26.4,20.1,22.6,36.4C378,458.5,365.8,468.2,351.7,468.2z M345.5,464.5c14.7,3.4,29.4-5.7,32.8-20.4
		c3.4-14.7-5.7-29.4-20.4-32.8c-14.7-3.4-29.4,5.7-32.8,20.4c0,0,0,0,0,0c-3.5,14.6,5.5,29.2,20.1,32.7
		C345.3,464.4,345.4,464.5,345.5,464.5z"/>
	<path class="st0" d="M219.9,550.4c0,0-22.4-17.7-8.4-44.5c14-26.8,35.4-47.3,58.8-47.2s36.2,13.2,39.7,25.9s-5,22.9-21.7,24.1
		c0,0,1.8,23-27.8,23.5c0,0-10.6,35.2-31.9,10.1L219.9,550.4z"/>
	<path class="st4" d="M270.1,458.7h0.1c23.4,0.1,36.2,13.2,39.7,25.9s-5,22.9-21.7,24.1c0,0,1.8,23-27.8,23.5
		c0,0-5.8,19.1-17.3,19.1c-4.1,0-9-2.4-14.6-9l-8.6,8.2c0,0-22.4-17.7-8.4-44.5C225.5,479.1,246.7,458.7,270.1,458.7 M270.1,455.7
		c-11.9,0-23.6,4.8-34.8,14.3c-9.9,8.4-19.1,20.4-26.5,34.5c-7.8,15-4.9,27.3-1.1,35c2.5,5.1,6,9.6,10.3,13.2l2.1,1.6l1.9-1.8l6.3-6
		c5,5.1,9.9,7.7,14.8,7.7c11.2,0,17.5-13.8,19.5-19.2c9.9-0.5,17.4-3.6,22.4-9.1c3.6-4.1,5.8-9.2,6.2-14.6
		c8.6-1.2,15.3-4.7,19.1-10.2c3.5-4.9,4.3-11,2.5-17.4c-2.3-7.7-7-14.5-13.5-19.3c-7.7-5.7-17.7-8.8-29.1-8.8L270.1,455.7z"/>
	<path class="st1" d="M289.5,512.7c-0.6,0-1.2-0.4-1.4-1c-9.5-26.5-33.5-28.2-34.5-28.3c-0.8,0-1.5-0.8-1.4-1.6
		c0-0.8,0.8-1.5,1.6-1.4l0,0c0.3,0,27,1.8,37.2,30.2c0.3,0.8-0.1,1.6-0.9,1.9C289.9,512.6,289.7,512.7,289.5,512.7z"/>
	<path class="st1" d="M262.2,534.9c-0.7,0-1.2-0.4-1.4-1.1c-4.5-14.9-24.8-27.7-25-27.8c-0.7-0.4-1-1.3-0.6-2c0.4-0.7,1.3-1,2-0.6
		c0,0,0.1,0,0.1,0.1c0.9,0.5,21.4,13.5,26.3,29.5c0.2,0.8-0.2,1.6-1,1.9c0,0,0,0,0,0C262.5,534.9,262.4,534.9,262.2,534.9z"/>
	<path class="st1" d="M229.5,546.4c-0.3,0-0.6-0.1-0.8-0.2c-0.5-0.3-12.9-8.3-14.5-18.7c-0.1-0.8,0.4-1.6,1.3-1.7s1.6,0.4,1.7,1.3
		c1.4,9.1,13.1,16.6,13.2,16.7c0.7,0.4,0.9,1.4,0.5,2.1C230.5,546.1,230.1,546.4,229.5,546.4L229.5,546.4z"/>
	<path class="st2" d="M305.6,492.7c-1.3,0-2.4-0.8-2.8-2c-3.8-10.2-9.7-17.2-17.5-20.8c-12.6-5.8-26.4-0.7-26.5-0.7
		c-1.5,0.6-3.3-0.2-3.9-1.7s0.2-3.3,1.7-3.9l0,0c0.6-0.3,16.1-6,31.1,0.8c9.4,4.3,16.3,12.4,20.7,24.2c0.6,1.6-0.3,3.3-1.8,3.8
		C306.3,492.6,306,492.7,305.6,492.7L305.6,492.7z"/>
	<circle class="st5" cx="536.4" cy="663.8" r="8.1"/>
	<circle class="st5" cx="366.4" cy="580.8" r="8.1"/>
	<circle class="st5" cx="435.4" cy="625.8" r="8.1"/>
	<circle class="st5" cx="350.4" cy="798.8" r="8.1"/>
	<circle class="st5" cx="536.4" cy="784.8" r="8.1"/>
	<circle class="st5" cx="366.4" cy="690.8" r="8.1"/>
	<circle class="st5" cx="387.4" cy="873.8" r="8.1"/>
	<circle class="st5" cx="615.4" cy="770.8" r="8.1"/>
	<circle class="st5" cx="298.4" cy="660.9" r="8.1"/>
	<circle class="st5" cx="222.7" cy="625.1" r="8.1"/>
	<circle class="st5" cx="172.2" cy="691.8" r="8.1"/>
	<circle class="st5" cx="224.3" cy="762.4" r="8.1"/>
	<circle class="st5" cx="482.4" cy="866.8" r="8.1"/>
	<path d="M166.7,476c-0.2,0-0.4,0-0.5-0.1c-26.3-9.4-49.5-26-66.9-47.9c-14.1-17.6-25.2-39.1-33-63.8c-13.2-42-12.1-79.4-12.1-79.8
		c0.1-0.8,0.7-1.4,1.6-1.4c0.8,0,1.5,0.7,1.4,1.5c0,0.4-1.1,37.3,12,78.8c12,38.2,38.7,88.2,98.1,109.7c0.8,0.3,1.2,1.1,0.9,1.9
		C167.9,475.6,167.3,476,166.7,476L166.7,476z"/>
	<path d="M122.5,484.9h-0.1c-30-2.7-51.8-21.3-64.9-36.4c-8.5-9.8-15.6-20.7-21.2-32.4c-0.2-0.8,0.2-1.6,1-1.9
		c0.6-0.2,1.3,0.1,1.7,0.6c0.3,0.6,28,62.1,83.6,67c0.8,0,1.5,0.7,1.4,1.6C124,484.3,123.3,484.9,122.5,484.9L122.5,484.9z"/>
	<path d="M303.7,772.7c-0.1,0-0.2,0-0.3,0c-0.8-0.2-1.3-1-1.1-1.8c0.1-0.5,11.6-48.8,30.4-86.6c0.3-0.8,1.2-1.1,2-0.8s1.1,1.2,0.8,2
		c0,0,0,0.1-0.1,0.1c-18.7,37.4-30.1,85.4-30.2,85.9C305,772.3,304.4,772.7,303.7,772.7z"/>
	<path class="st6" d="M628.5,630.5c0,0,28,34,34,68"/>
	<path class="st1" d="M661,698.8c-5.9-33.2-33.4-67-33.7-67.3l2.3-1.9c0.3,0.3,28.3,34.7,34.3,68.7L661,698.8z"/>
	<path class="st2" d="M652,876c-0.2,0-0.4,0-0.6,0c-1.6-0.3-2.7-1.9-2.4-3.5c0,0,0,0,0,0c23.5-121.5-18.2-193.2-18.6-193.9
		c-0.9-1.4-0.4-3.3,1-4.1s3.3-0.4,4.1,1c0.4,0.8,11.1,18.8,18.8,52.4c7.1,30.8,13,81.2,0.5,145.8C654.7,875,653.4,876,652,876z"/>
	<path class="st2" d="M152,743c-1.2,0-2.3-0.8-2.8-1.9c-15.4-38.9,4.3-74.1,5.2-75.6c0.8-1.4,2.7-1.9,4.1-1.1
		c1.4,0.8,1.9,2.7,1.1,4.1c-0.3,0.4-19.1,34.3-4.8,70.4c0.6,1.5-0.2,3.3-1.7,3.9C152.7,742.9,152.4,743,152,743z"/>
	<path class="st1" d="M127,775c-0.5,0-1.1-0.2-1.4-0.6c-19.7-20.2-21.4-43.2-19.4-58.9c1.3-10.3,4.4-20.3,9.1-29.5
		c0.6-1,1.8-1.3,2.7-0.7c1,0.6,1.3,1.8,0.7,2.7c-4.5,8.8-7.4,18.3-8.7,28.2c-2.7,21.5,3.5,40.2,18.3,55.5c0.8,0.8,0.7,2.1-0.1,2.8
		C128,774.8,127.5,775,127,775z"/>
</g>
</svg>
