<?xml version="1.0" encoding="utf-8"?>
<!-- Generator: Adobe Illustrator 24.1.2, SVG Export Plug-In . SVG Version: 6.00 Build 0)  -->
<svg version="1.1" id="message_1_" xmlns="http://www.w3.org/2000/svg" xmlns:xlink="http://www.w3.org/1999/xlink" x="0px" y="0px"
	 viewBox="0 0 1000 1000" style="enable-background:new 0 0 1000 1000;" xml:space="preserve">
<style type="text/css">
	.st0{fill:#D9CFFF;}
	.st1{fill:#FFFFFF;}
	.st2{fill:#6C32AD;}
	.st3{fill:#59298F;}
	.st4{fill:#FFAD00;}
	.st5{fill:#E89D00;}
	.st6{fill:#FFCDB2;}
	.st7{fill:#FFB49F;}
	.st8{fill:#FFC140;}
</style>
<g id="line">
	<path d="M169.7,872.6c-1.1,0-2-0.9-2-2s0.9-2,2-2l548.7-3.3l0,0c1.1,0,2,0.9,2,2s-0.9,2-2,2L169.7,872.6L169.7,872.6z"/>
	<path d="M746.9,844.5h-78.9c-0.8,0-1.5-0.7-1.5-1.5s0.7-1.5,1.5-1.5h78.9c0.8,0,1.5,0.7,1.5,1.5S747.8,844.5,746.9,844.5z"/>
	<path d="M196.4,891.2h-82.2c-0.8,0-1.5-0.7-1.5-1.5s0.7-1.5,1.5-1.5h82.2c0.8,0,1.5,0.7,1.5,1.5S197.2,891.2,196.4,891.2z"/>
</g>
<g id="message_2">
	<path class="st0" d="M157.6,494.3c-46-100.1,0.4-225.4,103.5-279.8s224-17.5,270,82.6s-0.4,225.4-103.5,279.9
		c-12.6,6.7-25.8,12.1-39.4,16.2l-18,75.5L317,626C245.1,625.6,189,562.7,157.6,494.3z"/>
	<path d="M360.3,189.3c72.2,0,139.2,39,170.7,107.7c46,100.1-0.4,225.4-103.5,279.9c-12.6,6.7-25.8,12.1-39.4,16.2l-18,75.5L317,626
		c-71.9-0.4-128-63.3-159.4-131.7c-46-100.1,0.4-225.4,103.5-279.8C293.4,197.4,327.4,189.3,360.3,189.3 M360.3,186.3L360.3,186.3
		c-34.3,0-69.1,8.8-100.6,25.5c-50.4,26.7-89.3,71-109.1,124.4c-9.5,25.5-14.2,52.6-13.8,79.8c0.4,27.5,6.6,54.5,18,79.5
		c17.2,37.4,39.7,69.3,65.3,92.4c14.3,12.9,29.4,22.9,44.9,29.7c16.1,7.2,33.4,11.1,51,11.4l52.4,41.9c1.3,1,3.2,0.8,4.2-0.5
		c0.3-0.3,0.5-0.7,0.6-1.2l17.6-73.8c13.2-4.1,26-9.4,38.2-15.9c50.4-26.7,89.3-71,109.1-124.4c9.5-25.5,14.2-52.6,13.8-79.8
		c-0.4-27.5-6.6-54.5-18-79.5C502.8,228.2,436.3,186.3,360.3,186.3L360.3,186.3z"/>
	<path d="M252.9,418.5c-0.8,0-1.5-0.7-1.5-1.5c0-0.6,0.3-1.1,0.8-1.3l183.5-96.2c0.8-0.3,1.6,0.1,2,0.8c0.3,0.7,0,1.4-0.6,1.8
		l-183.4,96.2C253.3,418.5,253.1,418.5,252.9,418.5z"/>
	<path d="M287.4,469.1c-0.8,0-1.5-0.7-1.5-1.5c0-0.6,0.3-1.1,0.8-1.3l106.9-56c0.8-0.3,1.6,0,2,0.8c0.3,0.7,0,1.5-0.6,1.9l-106.9,56
		C287.9,469,287.6,469.1,287.4,469.1z"/>
	<path class="st1" d="M252,532.6c-11.9-5.2-23-12.2-32.7-20.8c-20.4-18-34.7-41.9-41-68.3c-6.9-29.3-4.5-60.1,6.9-88
		c0.7-1.6,1.4-3.3,2.1-4.9c0.5-1,0.2-2.2-0.7-2.7c-1-0.6-2.2-0.2-2.7,0.7c0,0,0,0,0,0c-12.9,28.3-16.6,59.8-10.7,90.3
		c5.4,27.6,19.3,52.9,39.6,72.4c9.6,9.2,20.7,16.9,32.7,22.7c1.5,0.7,3,1.4,4.5,2c1,0.5,2.2,0.2,2.7-0.7
		C253.3,534.4,252.9,533.2,252,532.6C252,532.6,252,532.6,252,532.6L252,532.6z"/>
	<path d="M491.5,215c-0.5,0-1-0.3-1.3-0.7c-27-41.8-73.2-52.2-107.2-53.6c-22.9-0.8-45.9,1.6-68.2,7.2c-0.8,0.2-1.6-0.3-1.8-1.1
		c-0.2-0.7,0.3-1.5,1-1.7c22.6-5.6,45.8-8.1,69.1-7.3c49.7,2,87.6,21,109.6,54.9c0.4,0.7,0.2,1.6-0.5,2.1
		C492.1,214.9,491.8,215,491.5,215z"/>
</g>
<g id="message-2">
	<path class="st0" d="M868.5,144.6l-124.8,24.7c-16.2,3.2-27.3,18.3-25.6,34.8l5.8,55.2c1.7,16.3,15.4,28.6,31.8,28.6h10l21.8,35.8
		l23.2-35.8h58.2c16.8,0,30.7-13,31.9-29.7l5.8-80c1.3-17.6-12-32.9-29.6-34.2C874.1,143.9,871.3,144.1,868.5,144.6z"/>
	<path d="M874.8,144c17.7,0,32,14.4,31.9,32.1c0,0.7,0,1.5-0.1,2.2l-5.8,80c-1.2,16.7-15.1,29.7-31.9,29.7h-58.2l-23.2,35.8
		L765.7,288h-10c-16.4,0-30.1-12.4-31.8-28.6l-5.8-55.2c-1.7-16.5,9.4-31.5,25.6-34.8l124.8-24.7C870.6,144.2,872.7,144,874.8,144
		 M874.8,141c-2.3,0-4.6,0.2-6.9,0.7l-124.8,24.7c-17.8,3.5-29.9,20-28,38l5.8,55.2c1.9,17.8,16.9,31.4,34.8,31.3h8.3l21,34.4
		c0.5,0.9,1.5,1.4,2.5,1.4l0,0c1,0,2-0.5,2.5-1.4l22.3-34.4h56.5c18.3-0.1,33.5-14.2,34.9-32.5l5.8-80c0.8-9.7-2.6-19.3-9.3-26.4
		C893.8,145.1,884.5,141,874.8,141L874.8,141z"/>
	<path d="M771.9,219.7c-0.8,0-1.5-0.6-1.5-1.5c0-0.8,0.6-1.5,1.5-1.5l94.6-3.7c0.8,0,1.5,0.6,1.5,1.4c0,0,0,0,0,0.1
		c0,0.8-0.6,1.5-1.4,1.6c0,0,0,0,0,0L771.9,219.7L771.9,219.7z"/>
	<path d="M775.6,247.3c-0.8,0-1.5-0.6-1.5-1.5c0-0.8,0.6-1.5,1.5-1.5l67-3.7c0.8,0,1.5,0.6,1.6,1.4c0,0,0,0,0,0
		c0,0.8-0.6,1.5-1.4,1.6L775.6,247.3L775.6,247.3z"/>
	<path class="st1" d="M891.2,260.3H891c-1.4-0.1-2.4-1.3-2.3-2.7c0-0.3,2.5-34.3,5-70.2c0.8-11.9-1.3-20.1-6.4-24.3
		c-5.7-4.8-13.5-2.9-13.6-2.9c-1.3,0.3-2.7-0.5-3-1.9c-0.3-1.3,0.5-2.6,1.8-3c0.4-0.1,10.3-2.6,18,3.8c6.4,5.3,9.2,14.9,8.2,28.5
		c-2.5,36-4.9,69.9-5,70.3C893.5,259.3,892.5,260.3,891.2,260.3z"/>
	<path d="M764.1,183.8c-28.6,0-54.4-9.4-72.8-18.5c-15.2-7.5-29.5-16.8-42.6-27.7c-0.6-0.6-0.7-1.5-0.1-2.1c0.6-0.6,1.5-0.7,2.1-0.1
		c12.9,10.7,27,19.9,42,27.3c23.2,11.5,58.8,23.5,96.3,15.6c0.8-0.2,1.6,0.3,1.8,1.2c0.2,0.8-0.3,1.6-1.2,1.8
		C781.3,182.9,772.7,183.8,764.1,183.8z"/>
	<path d="M731,240c-30.2,0-51.7-20.5-52-20.7c-0.6-0.6-0.6-1.5,0-2.1c0.6-0.5,1.5-0.6,2.1,0c0.3,0.3,32.9,31.3,73.7,15.3
		c0.8-0.3,1.6,0,2,0.8c0.3,0.8,0,1.6-0.8,2c0,0,0,0-0.1,0C748,238.4,739.5,240,731,240z"/>
</g>
<g id="moman">
	<path class="st2" d="M393.5,322.5c51,11,52.5,91.5,171.5,55.5s195.5-50.5,263,12c74.9,69.3,48,243-62,304c-93.6,51.9-235,58-235,58
		L393.5,322.5z"/>
	<path d="M393.5,322.5c41.8,9,50.4,64.7,117.6,64.7c14.8,0,32.5-2.7,53.9-9.2c60.3-18.2,109.6-30.9,152.4-30.9
		c41.7,0,77.3,12.1,110.6,42.9c74.9,69.3,48,243-62,304c-93.6,51.9-235,58-235,58L393.5,322.5 M393.5,319.5c-1.7,0-3,1.3-3,3
		c0,0.3,0,0.6,0.1,0.9l137.5,429.5c0.4,1.2,1.6,2.1,2.9,2.1h0.1c27.7-1.6,55.4-4.8,82.8-9.6c43.2-7.3,104.8-21.8,153.6-48.8
		c28.6-15.9,53.5-40.5,71.9-71.2c17.3-29.1,28.3-61.4,32.3-95c3.4-28,1.6-55.6-5.1-79.8c-7.1-25.5-19.7-47.3-36.5-62.9
		c-32.2-29.8-68-43.7-112.6-43.7c-42.1,0-89.9,11.9-153.3,31.1c-20.2,6.1-37.5,9.1-53.1,9.1c-38.3,0-56.6-18.4-74.3-36.1
		c-12.6-12.7-24.5-24.6-42.6-28.5C393.9,319.5,393.7,319.5,393.5,319.5L393.5,319.5z"/>
	<path class="st3" d="M479.5,408.5c0,0-2,16,62,28s200,67,211,149s-8,140-122,142S421,408.5,421,408.5H479.5z"/>
	<path class="st4" d="M335.8,482.5c-22.3,23-76.3,109-92.3,210s66,179,66,179l312-6c0,0,18-92-17-207c-13.4-44.2,111.5-90.6,76-117
		c-49.3-36.7-285-92-285-92"/>
	<path d="M309.5,873c-0.4,0-0.7-0.2-1-0.4c-0.2-0.2-20.9-20-39.3-52c-17-29.5-35.5-75.8-27.2-128.4C257.4,595,310,507,334.7,481.5
		c0.6-0.6,1.5-0.6,2.1,0s0.6,1.5,0,2.1c-24.5,25.3-76.6,112.5-91.9,209.2c-8.2,51.7,10,97.2,26.8,126.3c10.6,18.5,23.5,35.6,38.3,51
		l310.1-6c1.9-11.1,15.2-98.8-17.2-205.1c-7-23,21.5-46.3,46.7-66.7c18.4-15,35.8-29.2,35.6-40.1c-0.1-3.5-2-6.5-5.8-9.4
		c-48.5-36.1-282.1-91.2-284.4-91.7c-0.8-0.2-1.3-0.9-1.2-1.8s0.9-1.3,1.8-1.2c0,0,0.1,0,0.1,0c9.6,2.3,236.5,55.8,285.6,92.3
		c4.5,3.4,6.9,7.3,7,11.7c0.3,12.4-16.9,26.4-36.7,42.5c-24.5,19.9-52.2,42.4-45.7,63.5c34.7,114,17.2,206.8,17,207.7
		c-0.1,0.7-0.7,1.2-1.4,1.2L309.5,873L309.5,873z"/>
	<path class="st5" d="M426.3,706.2c-12.4,1.9-48.7-9.6-84.1,20.1s-26.8,74.5-26.8,74.5l15.3,60.2l73.2,8.8l74.3,1
		c6.2-9.3,16.3-25,18.8-32.7c3.8-11.5-2.9-34.4,9.6-47.8C519,777,479.8,709,479.8,709S438.7,704.2,426.3,706.2z"/>
	<path class="st4" d="M386.6,447.2c41.6-13.2,194.7-13.3,304.2,74.7s23.5,185.8-18.5,189.3s-85.9-11.3-90.6-36.3L564.3,664l32-75.9
		l18.7,7.7c0,0,15.1-48.2,66.7-36"/>
	<path d="M660.1,713.1c-16.9,0-33.7-2.8-47.6-8.1c-18.2-6.9-29.5-17.3-32.1-29.3l-16.9-10.5c-0.6-0.4-0.9-1.2-0.6-1.8l32-75.9
		c0.3-0.8,1.2-1.1,1.9-0.8c0,0,0,0,0,0l17.3,7.1c3.2-8.1,7.9-15.4,13.9-21.6c9.6-9.9,26.8-20.3,54.1-13.9c0.8,0.2,1.3,1,1.1,1.8
		s-1,1.3-1.8,1.1c-20.8-4.9-38-0.5-51.2,13c-6.1,6.3-10.8,13.8-13.7,22.1c-0.1,0.4-0.4,0.7-0.8,0.9c-0.4,0.2-0.8,0.2-1.2,0
		l-17.3-7.2l-31,73.4l16.4,10.2c0.4,0.2,0.6,0.6,0.7,1c4.7,25,49.8,38.3,89,35c22.3-1.9,55.1-29.8,66.4-67
		c9-29.5,7.9-74.2-48.8-119.6c-59.5-47.8-129-67.1-176.9-74.9c-56.4-9.2-104.8-6.2-125.9,0.5c-0.8,0.3-1.6-0.2-1.9-1
		c-0.3-0.8,0.2-1.6,1-1.9l0,0c21.5-6.8,70.5-9.9,127.3-0.6c48.2,7.9,118.2,27.3,178.3,75.5c24.5,19.7,40.9,41.2,48.7,63.8
		c6.7,19,7,39.7,1,59c-11.7,38.3-45.8,67.1-69,69.1C668.4,713,664.2,713.1,660.1,713.1z"/>
	<path class="st6" d="M546.3,611.4c-14.9-13-34.2-18.4-58.1-27.5c-19.3-7.4-33.3-13.2-34-24.2c-1.2-17.8,17.1-7.3,31.4-3.3
		s18.2-14.8,8.6-33.6c-9.6-18.8-10.5-45.2,4.7-56.8c17-13,26.8,43.2,26.8,43.2s18.6-8.3,34.7,5.5c0,0,28-10.9,35.4,6.8
		c7.4,17.7,5.2,26,0,58.2S559.5,623,546.3,611.4z"/>
	<path d="M504,464c13.9,0,21.8,45.1,21.8,45.1c4.2-1.7,8.6-2.5,13.2-2.5c7.9-0.1,15.6,2.8,21.5,8c5.6-2,11.4-3.1,17.4-3.3
		c7.2,0,14.7,2.2,18,10.1c7.4,17.7,5.2,26,0,58.2c-3.8,23.9-22.1,36.2-36.6,36.2c-4.7,0.1-9.3-1.4-13-4.5
		c-14.9-13-34.2-18.4-58.1-27.5c-19.3-7.4-33.3-13.2-34-24.2c-0.5-7.6,2.5-10,7.3-10c6.4,0,16,4.4,24.1,6.7c1.2,0.3,2.4,0.5,3.6,0.5
		c11.3,0,13.7-17.1,5-34.2c-9.6-18.8-10.5-45.2,4.7-56.8C500.4,464.8,502.2,464.1,504,464 M504,461c-2.5,0.1-4.9,1-6.9,2.6
		c-16.5,12.6-15.8,40.7-5.6,60.6c6.1,11.9,5.8,22.2,3,26.7c-1.1,1.9-3.1,3.1-5.4,3.1c-1,0-1.9-0.2-2.8-0.4c-2.7-0.7-5.6-1.7-8.4-2.7
		c-6.1-2.1-11.8-4.1-16.6-4.1c-3.3,0-5.8,1-7.6,2.9c-2.1,2.3-3,5.6-2.7,10.3c0.9,13.3,17.1,19.5,35.9,26.8c4.5,1.7,8.8,3.3,12.9,4.8
		c18.2,6.7,32.6,12,44.3,22.2c4.2,3.5,9.5,5.4,15,5.2c16.2,0,35.5-13.6,39.6-38.7c0.4-2.5,0.8-4.9,1.2-7.2
		c4.3-26.6,5.8-35.5-1.3-52.6c-3.3-7.8-10.5-12-20.8-12c-5.7,0.1-11.4,1.1-16.8,2.9c-6.3-5-14.1-7.7-22.1-7.6
		c-3.7,0-7.4,0.5-10.9,1.5c-1.3-6.6-3-13.1-5.1-19.5C517.5,469.1,511.3,461,504,461L504,461z"/>
	<path d="M577.2,567c-2.1,0-4.1-0.4-6-1.3c-7.9-3.6-11.6-13.7-13-19.5c-3.8,5.4-9.6,9.1-16.2,10.2c-6.1,1-12.2-1.4-16-6.2
		c-7.5-9.2-3.9-27.7-1.8-38.7c0.3-1.7,0.6-3.2,0.8-4.4c0.1-0.8,0.9-1.4,1.7-1.2c0.8,0.1,1.4,0.9,1.2,1.7c-0.2,1.2-0.5,2.7-0.8,4.4
		c-1.9,9.8-5.5,28.1,1.2,36.2c3.2,4,8.3,6,13.3,5.1c7-1.1,12.9-5.7,15.9-12.1c0.3-0.6,0.9-1,1.6-0.9c0.7,0.1,1.2,0.6,1.3,1.3
		c0,0.2,2.6,16.9,12.2,21.2c4.6,2,10.2,1,16.6-3.3c19.3-12.5,1.4-44.8,1.2-45.1c-0.4-0.7-0.1-1.6,0.6-2s1.6-0.1,2,0.6l0,0
		c0.8,1.4,19.4,35-2.2,49.1C585.8,565.4,581.3,567,577.2,567z"/>
	<path d="M559.6,543.3h-0.1c-0.8-0.1-1.4-0.8-1.4-1.6c0,0,0,0,0,0l2.1-27.7c0.1-0.8,0.8-1.4,1.6-1.4s1.4,0.8,1.4,1.6l0,0l-2.1,27.6
		C561.1,542.7,560.4,543.3,559.6,543.3z"/>
	<path class="st6" d="M449.5,745.4c0,0-8.1-88.7,12.1-104.8s32.1-6.5,28.1,20.9"/>
	<path d="M449.5,746.9c-0.8,0-1.4-0.6-1.5-1.4c-0.3-3.7-7.9-89.6,12.6-106.1c12.2-9.8,19.7-9,23.8-6.7c6.5,3.7,9,14,6.8,29
		c-0.1,0.8-0.9,1.4-1.7,1.3c-0.8-0.1-1.4-0.9-1.3-1.7c1.9-13.5,0-22.9-5.3-26c-4.6-2.7-11.9-0.4-20.4,6.4
		c-19.3,15.5-11.6,102.6-11.5,103.5c0.1,0.8-0.5,1.6-1.4,1.6L449.5,746.9z"/>
	<path class="st6" d="M595.2,589.9l6.3,2.6l-36,70.1c0,0-43-36.1-45-66.1"/>
	<path d="M565.5,664.1c-0.4,0-0.7-0.1-1-0.3c-1.7-1.5-43.5-36.8-45.5-67.1c-0.1-0.8,0.6-1.5,1.4-1.6c0.8-0.1,1.5,0.6,1.6,1.4
		c1.7,26,35.6,57.2,43,63.8l34.4-66.9l-4.8-2c-0.8-0.3-1.1-1.2-0.8-2s1.2-1.1,2-0.8l6.3,2.6c0.4,0.2,0.7,0.5,0.8,0.9
		c0.1,0.4,0.1,0.8-0.1,1.2l-36,70.1c-0.2,0.4-0.6,0.7-1,0.8C565.7,664.1,565.6,664.1,565.5,664.1z"/>
	<path class="st0" d="M455.6,566.3l58.7-13.1c9.5-2.1,18.9,3.9,21,13.4l31.1,139.3c2.1,9.5-3.9,18.9-13.4,21L494.4,740
		c-9.5,2.1-18.9-3.9-21-13.4l-31.1-139.3C440.1,577.8,446.1,568.4,455.6,566.3z"/>
	<path d="M518.2,552.8c8.2,0,15.4,5.7,17.2,13.8l31.1,139.3c2.1,9.5-3.9,18.9-13.4,21L494.4,740c-9.5,2.1-18.9-3.9-21-13.4
		l-31.1-139.3c-2.1-9.5,3.9-18.9,13.4-21l58.7-13.1C515.6,553,516.9,552.9,518.2,552.8 M518.2,549.8L518.2,549.8
		c-1.5,0-3,0.2-4.5,0.5l-58.7,13.1c-11.1,2.5-18.1,13.5-15.6,24.5l31.1,139.3c2.5,11.1,13.5,18.1,24.6,15.7l58.7-13.1
		c11.1-2.5,18.1-13.5,15.6-24.6L538.3,566C536.1,556.6,527.8,549.9,518.2,549.8L518.2,549.8z"/>
	<path class="st3" d="M523,584c4.6-4.8,4.4-12.4-0.4-17s-12.4-4.4-17,0.4c-4.6,4.8-4.4,12.4,0.4,17c1.1,1.1,2.5,1.9,4,2.5
		c-4.6,4.8-4.4,12.4,0.4,17c4.8,4.6,12.4,4.4,17-0.4c4.6-4.8,4.4-12.4-0.4-17C525.8,585.5,524.5,584.6,523,584z"/>
	<ellipse transform="matrix(0.976 -0.2177 0.2177 0.976 -112.9879 125.76)" class="st0" cx="514.3" cy="575.7" rx="7" ry="7"/>
	<ellipse transform="matrix(0.976 -0.2177 0.2177 0.976 -117.1314 127.1742)" class="st0" cx="518.7" cy="595.2" rx="7" ry="7"/>
	<path class="st6" d="M463.5,685.5c16-24.8,39.7-52.9,67.1-52.9c47.9,0,26.2,36.3,26.2,36.3s26.2,12.1,17.4,36.3
		c0,0,8.7,48.3-26.2,64.5s-61,0-61,0l-43.6-48.3"/>
	<path d="M516.9,778.2c-18.4,0-30.4-7.2-30.6-7.3c-0.1-0.1-0.2-0.2-0.3-0.3l-43.6-48.4c-0.6-0.6-0.6-1.5-0.1-2.1
		c0.6-0.6,1.5-0.6,2.1-0.1c0.1,0.1,0.1,0.1,0.2,0.2l43.4,48.2c2.3,1.3,27.2,14.7,59.4-0.2c33.4-15.5,25.4-62.4,25.3-62.8
		c0-0.3,0-0.5,0.1-0.8c8.2-22.6-15.6-33.9-16.7-34.4c-0.8-0.3-1.1-1.2-0.7-2c0-0.1,0.1-0.1,0.1-0.2c0.1-0.1,8.4-14.2,2.8-24
		c-3.8-6.7-13.1-10-27.7-10c-21.4,0-43.5,17.6-65.9,52.2c-0.5,0.7-1.4,0.8-2.1,0.3c-0.6-0.4-0.8-1.3-0.4-2
		c22.9-35.6,46-53.6,68.4-53.6c15.8,0,26,3.9,30.3,11.6c5.3,9.5,0,21.5-2.1,25.6c5.5,3.1,24.4,15.5,16.9,37
		c0.7,4.8,6.7,50.1-27.1,65.7C538.8,775.6,527.9,778.1,516.9,778.2z"/>
	<path class="st4" d="M315,783c6-17,42-40,65-61s52-2,52-2l14-10l52,72l-17,19c0,0,17,17,0,46s-94,54-136,71s-100,11-125-146
		s103-276,103-276"/>
	<path d="M314.5,926c-10.3,0.1-20.4-2.6-29.4-7.7c-31.6-17.9-54.1-67-66.6-146.1c-5.7-36-3.9-73,5.6-110
		c7.5-29.5,19.9-59.1,36.7-87.9c28.7-49,60.8-79.2,61.1-79.5c0.7-0.5,1.6-0.3,2.1,0.4c0.4,0.6,0.3,1.3-0.1,1.8
		c-0.3,0.3-32.2,30.2-60.6,78.9c-26.2,44.8-54.7,115.2-41.9,195.8c12.4,78.1,34.4,126.6,65.2,144c16.6,9.4,36.1,9.7,57.8,0.9
		c7-2.8,15.1-5.9,23.6-9.2c41.3-15.8,97.8-37.5,111.7-61.2c16.2-27.6,0.9-43.5,0.2-44.2c-0.6-0.6-0.6-1.5-0.1-2.1l16.2-18.1
		l-50.4-69.8l-12.8,9.1c-0.5,0.4-1.2,0.4-1.7,0c-1.1-0.7-28.3-18.1-50.2,1.9c-7.4,6.7-16.1,13.7-24.6,20.5
		c-17.7,14.1-36,28.8-40,39.9c-0.2,0.8-1,1.3-1.8,1c-0.8-0.2-1.3-1-1-1.8c0-0.1,0-0.1,0.1-0.2c4.2-12,22.1-26.2,41-41.3
		c8.4-6.7,17.2-13.7,24.5-20.3c21.3-19.4,47.8-5.7,52.9-2.7l13.2-9.4c0.7-0.5,1.6-0.3,2.1,0.3l52,72c0.4,0.6,0.4,1.4-0.1,1.9
		L483,801c3.4,4.3,14.3,21.2-0.7,46.7c-14.4,24.6-69.2,45.6-113.2,62.5c-8.5,3.3-16.5,6.3-23.5,9.2C334.7,923.8,324.3,926,314.5,926
		z"/>
	<path class="st1" d="M334,477c-14.1,7.5-17.7,37.2-5,47c5.6,4.3,23.8,10.1,33,11c31,3,36.5-18.5,42.5-29.5c0,0,71.5-15.5-7.5-49.5
		L334,477z"/>
	<path d="M397,456c79,34,7.5,49.5,7.5,49.5c-5.6,10.3-10.8,29.8-36.8,29.8c-1.8,0-3.7-0.1-5.7-0.3c-9.2-0.9-27.4-6.7-33-11
		c-12.7-9.8-9.1-39.5,5-47L397,456 M397,453c-0.3,0-0.6,0.1-1,0.1l-63,21c-0.2,0.1-0.3,0.1-0.5,0.2c-7.8,4.1-13.2,14.2-14.2,26.2
		c-1,11.2,2.4,20.9,8.8,25.9c6.2,4.8,25,10.7,34.5,11.6c2,0.2,4,0.3,6,0.3c24.3,0,32.1-16.1,37.2-26.8c0.6-1.2,1.1-2.4,1.7-3.4
		c6.4-1.6,29.3-8,30.6-21.5c1-10.7-11.7-21.6-38.9-33.4C397.8,453.1,397.4,453,397,453z"/>
	<circle class="st2" cx="388.5" cy="295.3" r="38.8"/>
	<path d="M388.5,256.4c21.4,0,38.8,17.4,38.8,38.9c0,21.4-17.4,38.8-38.9,38.8c-21.4,0-38.8-17.4-38.8-38.9c0-7.2,2-14.2,5.8-20.3
		C362.5,263.4,375,256.4,388.5,256.4 M388.5,253.4c-23.1,0-41.9,18.7-41.9,41.8c0,23.1,18.7,41.9,41.8,41.9
		c23.1,0,41.9-18.7,41.9-41.8c0-14.5-7.5-28.1-19.9-35.7C403.9,255.6,396.3,253.4,388.5,253.4L388.5,253.4z"/>
	<path class="st2" d="M486.4,424.7c0,0,28.9-21.1,19.5-46.2s-15.9-23.6-20-37.2s-26.5-28.8-48.5-24.4c0,0-25-22.3-49.6-18.1
		s-34.1,15-42.5,33.2s-16,26-22.4,38.7s-17.4,48.7,31.5,80.2S486.4,424.7,486.4,424.7z"/>
	<path d="M394,298.4c22.4,0,43.3,18.6,43.3,18.6c2.6-0.5,5.3-0.8,7.9-0.8c19.3,0,37,13.2,40.6,25.1c4.1,13.6,10.6,12,20,37.2
		s-19.5,46.2-19.5,46.2s-51.4,35.7-97.2,35.7c-12.5,0-24.5-2.6-35-9.4c-49-31.5-37.9-67.6-31.5-80.2s14-20.4,22.4-38.7
		s17.9-29.1,42.5-33.2C389.8,298.5,391.9,298.4,394,298.4 M394,295.4c-2.3,0-4.6,0.2-6.8,0.6c-25.9,4.4-36,16.1-44.8,34.9
		c-3.9,8.2-8.4,16.2-13.5,23.7c-3.3,4.8-6.2,9.7-8.9,14.9c-5.4,10.8-7.3,23-5.3,34.9c3.3,18.6,16,35.1,37.9,49.2
		c10.2,6.5,22.5,9.9,36.6,9.9c24.2,0,49.8-9.9,67-18.1c11-5.3,21.7-11.3,31.8-18.1h0c5.3-4.1,10-8.9,13.9-14.4
		c8.5-11.9,10.8-24.1,6.6-35.3c-5.4-14.3-9.9-20.3-13.5-25.1c-2.8-3.7-4.8-6.4-6.5-11.9c-3.9-12.9-22.7-27.3-43.5-27.3
		c-2.4,0-4.7,0.2-7,0.6c-4.8-4-23.6-18.4-44.2-18.4L394,295.4z"/>
	<path d="M369.6,415c-0.5,0-1-0.3-1.3-0.8c-3.6-6.5-4.4-11.9-2.1-15.9c3.2-5.7,11.1-6.2,11.5-6.3c0.8,0,1.5,0.6,1.6,1.4
		c0.1,0.8-0.6,1.5-1.4,1.6c0,0,0,0,0,0c-0.1,0-6.7,0.5-9,4.7c-1.7,3-0.9,7.4,2.1,12.9c0.4,0.7,0.1,1.6-0.6,2
		C370.1,414.9,369.9,415,369.6,415z"/>
	<path class="st6" d="M398.2,472.6l-3,20.6c-3.5,23.9-51.5,16.8-59.2-4.2c0,0,19-19,33.3-66c0,0-19.1-4.9-15.5-22
		s17.6-19.6,25.6-14.6c0,0,31.2,23.4,66.1-42.2c0,0,33.5,15.1,39.4,50.5s-2.4,75.9-29.8,86.7S398.2,472.6,398.2,472.6z"/>
	<path d="M445.5,344.1c0,0,33.5,15.1,39.4,50.5s-2.5,75.9-29.9,86.6c-5.7,2.2-11.7,3.3-17.8,3.3c-21,0-39-12-39-12l-3,20.6
		c-1.5,10.5-11.6,15-23.1,15c-14.7,0-31.8-7.4-36.1-19.2c0,0,19-19,33.3-66c0,0-19.1-4.9-15.5-22c2.6-12.1,10.3-16.9,17.5-16.9
		c2.9,0,5.7,0.8,8.1,2.3c4.2,2.7,9.2,4.1,14.2,4C406,390.3,425.1,382.3,445.5,344.1 M445.5,341.1c-1.1,0-2.1,0.6-2.6,1.6
		c-19.6,36.9-37.6,44.7-49.2,44.7c-4.4,0.1-8.7-1.1-12.4-3.3l-0.2-0.2c-2.9-1.8-6.3-2.7-9.7-2.7c-7.9,0-17.4,5.1-20.4,19.3
		c-1.7,8.2,0.9,15.3,7.5,20.4c2.2,1.7,4.6,3.1,7.2,4.1c-13.8,43.8-31.5,61.8-31.7,62c-0.8,0.8-1.1,2.1-0.7,3.2
		c5.1,13.7,23.9,21.1,39,21.1c14.7,0,24.5-6.6,26.1-17.6l2.3-16.2c6.6,3.6,20.8,10.1,36.7,10.1c6.4,0,12.8-1.1,18.9-3.5
		c13.6-5.4,23.7-17.8,29.1-36c4.8-15.9,5.7-35,2.5-53.9c-2.5-15.1-10.4-29.1-22.8-40.3c-5.5-5-11.6-9.2-18.3-12.5
		c-0.4-0.2-0.8-0.3-1.2-0.3L445.5,341.1z"/>
	<path class="st7" d="M444.9,396.5c-19.9,1.8-45.1-9.8-50.4-3.4s-3,16.1,7.3,19.6s20.7,4.5,42.3,5.3s42.8,0.1,41.7-11.6
		S474.2,393.8,444.9,396.5z"/>
	<path d="M466.2,386h-0.3c-4.6-1-8.8-3.1-12.4-6.1c-0.6-0.6-0.7-1.5-0.1-2.1s1.5-0.7,2.1-0.1c3.1,2.7,6.9,4.5,10.9,5.4
		c0.8,0.1,1.4,0.8,1.4,1.6S467.1,386.1,466.2,386L466.2,386z"/>
	<path d="M393.1,390.6H393c-17.3-1.3-32.7-19.4-33.4-20.2c-0.5-0.7-0.4-1.6,0.3-2.1c0.6-0.5,1.5-0.4,2,0.2
		c0.1,0.2,15.2,17.9,31.3,19.1c0.8,0,1.5,0.7,1.4,1.6S393.9,390.6,393.1,390.6L393.1,390.6L393.1,390.6z"/>
	<path class="st1" d="M392,379.4c-3.7,0-7.4-0.5-11-1.4c-0.8-0.1-1.4-0.9-1.2-1.7s0.9-1.4,1.7-1.2c0.1,0,0.1,0,0.2,0.1
		c32.9,8.4,46-24.6,46.6-26c0.3-0.8,1.2-1.2,1.9-0.9c0.8,0.3,1.2,1.2,0.9,1.9l0,0C430.9,350.5,419.5,379.4,392,379.4z"/>
	<path d="M349.6,259c-0.2,0-0.3,0-0.5-0.1c-0.8-0.3-1.2-1.1-0.9-1.9c0,0,0,0,0,0c3-9,8.2-15.3,15.4-18.8c12.6-6.2,26.7-1.4,27.3-1.2
		c0.8,0.3,1.2,1.1,0.9,1.9c-0.3,0.8-1.1,1.2-1.9,0.9c-0.1,0-13.6-4.6-25,1.1c-6.4,3.1-11,8.9-13.8,17.1
		C350.8,258.6,350.2,259,349.6,259z"/>
	<path d="M447.5,432.4c-0.7,0-1.3-0.5-1.5-1.2l-7.1-31.5c-0.2-0.8,0.3-1.6,1.1-1.8c0.8-0.2,1.6,0.3,1.8,1.1l7.1,31.5
		c0.2,0.8-0.3,1.6-1.1,1.8c0,0,0,0,0,0C447.7,432.3,447.6,432.4,447.5,432.4z"/>
	<circle class="st4" cx="361.5" cy="422.1" r="6.4"/>
	<path d="M361.5,415.7c3.5,0,6.4,2.9,6.3,6.4s-2.9,6.4-6.4,6.3s-6.4-2.9-6.3-6.4c0-1.2,0.3-2.3,1-3.3
		C357.2,416.8,359.3,415.7,361.5,415.7 M361.5,412.7c-5.2,0-9.4,4.2-9.4,9.3c0,5.2,4.2,9.4,9.3,9.4s9.4-4.2,9.4-9.3
		c0-3.3-1.7-6.3-4.5-8C364.9,413.2,363.2,412.7,361.5,412.7z"/>
	<path class="st1" d="M362.6,285c-0.2,0-0.5-0.1-0.7-0.2c-0.7-0.4-1-1.3-0.6-2c4.6-8.9,10.8-14.5,18.3-16.4
		c12.2-3.1,23.4,4.3,23.9,4.6c0.7,0.5,0.8,1.4,0.3,2.1c-0.5,0.6-1.3,0.8-2,0.4c-0.1-0.1-10.6-7-21.5-4.1
		c-6.7,1.7-12.2,6.7-16.4,14.9C363.7,284.7,363.2,285,362.6,285z"/>
	<circle cx="408.5" cy="404.5" r="4"/>
	<circle cx="467" cy="408" r="4"/>
	<path d="M438.5,462.2c-2.6,0.1-5.2-0.9-7.1-2.6c-0.6-0.6-0.5-1.6,0.1-2.1c0.6-0.5,1.5-0.5,2,0c0.2,0.2,4.4,4.1,11.2-0.2
		c0.7-0.5,1.6-0.3,2.1,0.3s0.3,1.6-0.3,2.1c-0.1,0-0.1,0.1-0.2,0.1C444,461.3,441.3,462.1,438.5,462.2z"/>
	<path d="M410.5,381c-0.8,0-1.5-0.7-1.5-1.5c0-0.5,0.3-1,0.8-1.3c0.6-0.4,15.2-8.6,21-0.6c0.5,0.7,0.4,1.6-0.3,2.1s-1.6,0.4-2.1-0.3
		c0,0-0.1-0.1-0.1-0.1c-4.1-5.7-16.9,1.4-17,1.4C411.1,380.9,410.8,381,410.5,381z"/>
	<path d="M401.7,477.7c-0.1,0-0.3,0-0.4-0.1c-10.3-3-19.8-12.5-20.2-12.9c-0.6-0.6-0.6-1.5,0-2.1s1.5-0.6,2.1,0
		c0.1,0.1,9.4,9.3,19,12.1c0.8,0.2,1.3,1.1,1,1.9C402.9,477.2,402.4,477.7,401.7,477.7z"/>
	<path class="st4" d="M234.5,633.5c0,0,63-97,123,8"/>
	<path d="M357.5,643c-0.5,0-1-0.3-1.3-0.8c-17.9-31.3-37.7-47.5-58.9-48.1c-34.4-1-61.3,39.7-61.5,40.1c-0.5,0.7-1.4,0.9-2.1,0.4
		c-0.7-0.5-0.9-1.4-0.4-2.1c1.1-1.7,28-42.5,64.1-41.5c22.3,0.6,43,17.3,61.4,49.6c0.4,0.7,0.1,1.6-0.6,2
		C358,642.9,357.8,643,357.5,643z"/>
	<path class="st6" d="M519.5,692.5c0,0,30.5-11.9,38.3-25.5l7.7-13.5"/>
	<path d="M519.5,694c-0.8,0-1.5-0.7-1.5-1.5c0-0.6,0.4-1.2,1-1.4c0.3-0.1,30.1-11.9,37.5-24.8l7.7-13.5c0.4-0.7,1.3-1,2-0.5
		s1,1.3,0.5,2l-7.7,13.5c-7.9,13.8-37.8,25.6-39,26.1C519.9,694,519.7,694,519.5,694z"/>
	<path class="st6" d="M527.5,737.5c0,0,37-9,47-32"/>
	<path d="M527.5,739c-0.8,0.1-1.6-0.5-1.7-1.3s0.5-1.6,1.3-1.7l0,0c0.4-0.1,36.4-9.1,46-31.1c0.3-0.8,1.2-1.1,2-0.8
		c0.8,0.3,1.1,1.2,0.8,2c-10.2,23.4-46.5,32.5-48,32.9C527.8,739,527.6,739,527.5,739z"/>
	<path d="M554.5,610c-0.5,0-1.1-0.3-1.3-0.8c-12.2-22.5-0.5-45.5,0-46.4c0.4-0.7,1.3-1,2.1-0.5c0.7,0.4,0.9,1.2,0.6,1.9
		c-0.1,0.2-11.5,22.6,0,43.6c0.4,0.7,0.1,1.6-0.6,2C555,609.9,554.8,610,554.5,610z"/>
	<path class="st1" d="M463,653c-0.9,0-1.7-0.6-1.9-1.5l-15-61c-0.3-1.1,0.4-2.2,1.4-2.4s2.2,0.4,2.4,1.4l15,61
		c0.3,1.1-0.4,2.2-1.5,2.4C463.3,653,463.2,653,463,653z"/>
	<path class="st1" d="M514.6,768.6c-5.7,0-11.4-0.5-17-1.6c-1.1-0.2-1.7-1.3-1.5-2.4c0.2-1.1,1.3-1.7,2.4-1.5
		c0.5,0.1,46.6,10.2,61.7-22.9c0.5-1,1.6-1.4,2.7-1c1,0.5,1.4,1.6,1,2.7C553.5,764.3,530.6,768.6,514.6,768.6z"/>
	<path class="st1" d="M308,909c-0.2,0-0.4,0-0.6-0.1c-26.8-9.2-47.5-36.7-59.8-79.6c-5.7-20.3-9.2-41.2-10.6-62.2
		c0-1.1,0.8-2,1.9-2.1c1.1,0,2,0.8,2.1,1.9c1.3,20.8,4.8,41.3,10.4,61.3c8.3,28.9,25,65.8,57.2,76.8c1,0.4,1.6,1.5,1.2,2.5
		C309.6,908.5,308.9,909,308,909z"/>
	<path class="st1" d="M720,660c-1.1,0-2-0.9-2-2c0-0.2,0-0.5,0.1-0.7c11.8-32.9,9-63.2-8.3-90c-7.8-12.1-17.9-22.5-29.8-30.6
		c-0.9-0.6-1.2-1.9-0.5-2.8c0.6-0.9,1.7-1.1,2.6-0.6c12.4,8.4,22.9,19.2,31,31.7c12.5,19.2,24.1,51,8.8,93.6
		C721.6,659.5,720.9,660,720,660z"/>
	<path d="M813.5,529c-0.8,0-1.5-0.7-1.5-1.5c0-0.5,0.3-1,0.8-1.3c72.4-42.1,100.4-105.8,111.2-151.8c11.7-49.9,6.2-90.3,6.1-90.7
		c-0.1-0.8,0.5-1.6,1.3-1.7c0.8-0.1,1.6,0.5,1.7,1.3l0,0c0,0.4,5.7,41.4-6.2,91.8c-6.9,29.6-18.4,56.7-34.2,80.5
		c-19.7,29.7-46,54.4-78.4,73.2C814,528.9,813.8,529,813.5,529z"/>
	<path d="M830.5,573c-0.8,0-1.5-0.7-1.5-1.5c0-0.6,0.4-1.2,1-1.4c47.7-16.9,78.6-43.5,96.2-62.9c19-21,26.9-38.2,27-38.3
		c0.3-0.8,1.2-1.1,2-0.8c0.8,0.3,1.1,1.2,0.8,2c-0.3,0.7-8.1,17.7-27.4,39c-17.8,19.6-49.2,46.6-97.5,63.8
		C830.9,573,830.7,573,830.5,573z"/>
	<path d="M531,492L531,492c-1.2,0-2-1-2-2.1c0,0,0,0,0,0c0.9-31.6-19.3-33.9-20.2-34c-1.1-0.1-1.9-1.1-1.8-2.2
		c0.1-1.1,1.1-1.9,2.2-1.8c0.3,0,24.9,2.6,23.8,38C533,491.1,532.1,492,531,492z"/>
	<path d="M239,730c-0.3,0-0.7-0.1-0.9-0.2c-38.2-20.4-61.8-62.5-74.8-94.1c-8.5-20.7-15-42.3-19.3-64.3c-0.1-1.1,0.7-2.1,1.8-2.2
		c1-0.1,2,0.6,2.2,1.6c4.2,21.7,10.6,43,19,63.5c12.8,31,35.8,72.2,72.9,92c1,0.5,1.4,1.7,1,2.7C240.5,729.6,239.8,730,239,730z"/>
	<path d="M224,762c-0.2,0-0.4,0-0.6-0.1c-31-10.5-48.5-28.8-57.6-42.3c-10-14.7-12.6-26.7-12.7-27.2c-0.2-1.1,0.5-2.1,1.6-2.4
		c1.1-0.2,2.1,0.5,2.4,1.5l0,0c0.1,0.5,10.5,47.1,67.7,66.5c1,0.4,1.6,1.5,1.2,2.5C225.6,761.5,224.8,762,224,762z"/>
	<circle class="st8" cx="410.8" cy="588.1" r="8.1"/>
	<circle class="st8" cx="322.8" cy="556.1" r="8.1"/>
	<circle class="st8" cx="269.8" cy="663.1" r="8.1"/>
	<circle class="st8" cx="402.8" cy="687.1" r="8.1"/>
	<circle class="st8" cx="278.8" cy="796.1" r="8.1"/>
	<circle class="st8" cx="386.8" cy="759.1" r="8.1"/>
	<circle class="st8" cx="426.8" cy="837.1" r="8.1"/>
	<circle class="st8" cx="332.8" cy="851.1" r="8.1"/>
	<circle class="st8" cx="542.8" cy="822.1" r="8.1"/>
	<circle class="st8" cx="604.8" cy="765.1" r="8.1"/>
	<circle class="st8" cx="604.8" cy="838.1" r="8.1"/>
	<circle class="st8" cx="639.8" cy="677.1" r="8.1"/>
	<circle class="st8" cx="680.8" cy="608.1" r="8.1"/>
	<circle class="st8" cx="631.8" cy="527.1" r="8.1"/>
	<circle class="st8" cx="453.8" cy="508.1" r="8.1"/>
</g>
</svg>
