<?xml version="1.0" encoding="utf-8"?>
<!-- Generator: Adobe Illustrator 24.1.2, SVG Export Plug-In . SVG Version: 6.00 Build 0)  -->
<svg version="1.1" id="moneybox_1_" xmlns="http://www.w3.org/2000/svg" xmlns:xlink="http://www.w3.org/1999/xlink" x="0px"
	 y="0px" viewBox="0 0 1000 1000" style="enable-background:new 0 0 1000 1000;" xml:space="preserve">
<style type="text/css">
	.st0{fill:#FFFFFF;}
	.st1{fill:#FFAD00;}
	.st2{fill:#FFCDB2;}
	.st3{fill:#6C32AD;}
	.st4{fill:#59298F;}
	.st5{fill:#FFB49F;}
	.st6{fill:#E89D00;}
	.st7{fill:#FFC140;}
	.st8{fill:#D9CFFF;}
</style>
<g id="line">
	<path d="M222.9,890.9c-1.1,0-2-0.9-2-2s0.9-2,2-2l548.7-3.3l0,0c1.1,0,2,0.9,2,2s-0.9,2-2,2L222.9,890.9L222.9,890.9z"/>
	<path d="M239.6,909.5h-82.2c-0.8,0-1.5-0.7-1.5-1.5s0.7-1.5,1.5-1.5h82.2c0.8,0,1.5,0.7,1.5,1.5S240.4,909.5,239.6,909.5z"/>
	<path d="M822.5,861h-78.9c-0.8,0-1.5-0.7-1.5-1.5s0.7-1.5,1.5-1.5h78.9c0.8,0,1.5,0.7,1.5,1.5S823.3,861,822.5,861z"/>
</g>
<g id="money_1">
	<circle class="st0" cx="672.5" cy="388.5" r="24"/>
	<path d="M672.5,414c-14.1,0-25.5-11.4-25.5-25.5s11.4-25.5,25.5-25.5s25.5,11.4,25.5,25.5C698,402.6,686.6,414,672.5,414z
		 M672.5,366c-12.4,0-22.5,10.1-22.5,22.5s10.1,22.5,22.5,22.5s22.5-10.1,22.5-22.5C695,376.1,684.9,366,672.5,366z"/>
	<path d="M655.3,380.9c-3.4,6.8-1.1,15,5.3,19.1c0.7,0.4,1.6,0.2,2.1-0.5c0.4-0.7,0.2-1.6-0.5-2.1l0,0c-5-3.2-6.7-9.6-4.2-15
		c0.4-0.7,0.2-1.6-0.5-2C656.7,380,655.8,380.3,655.3,380.9L655.3,380.9z"/>
	<path d="M681.1,377.2c2.7,1.7,4.8,4.3,5.7,7.4c0.5,1.5,0.7,3.1,0.6,4.7c-0.1,1.6-0.4,3.1-1.1,4.6c-0.4,0.7-0.2,1.6,0.5,2
		c0.7,0.4,1.6,0.2,2-0.5c2.6-5.8,1.6-12.6-2.4-17.5c-1.1-1.3-2.4-2.5-3.9-3.3c-0.7-0.4-1.6-0.1-2,0.6
		C680.2,375.9,680.5,376.8,681.1,377.2L681.1,377.2z"/>
	<path d="M668.3,378.2l-5,12.9c-0.2,0.8,0.2,1.6,1,1.9l13.7,3.5c0.8,0.2,1.6-0.3,1.8-1.1c0.1-0.4,0-0.8-0.1-1.1l-8-15.6
		c-0.4-0.7-1.4-0.9-2.1-0.5c-0.7,0.4-0.9,1.3-0.5,2l8,15.6l1.7-2.2l-13.7-3.5l1,1.8l5-12.9c0.2-0.8-0.3-1.6-1-1.8
		C669.3,376.9,668.5,377.4,668.3,378.2L668.3,378.2z"/>
	<path d="M662.2,350.6c7.2-2.8,15.3-2.5,22.4,0.7c2,0.9,3.8,2,5.5,3.4c0.6,0.6,1.5,0.6,2.1,0c0.6-0.6,0.6-1.5,0-2.1
		c-6.7-5.3-15.3-7.7-23.9-6.7c-2.4,0.3-4.7,0.9-7,1.7c-0.8,0.3-1.2,1.1-1,1.8C660.6,350.4,661.4,350.8,662.2,350.6L662.2,350.6z"/>
</g>
<g id="woman">
	<path class="st1" d="M552.5,501.5c0,0,79.5-6.6,148,32S872.7,632.3,847,688s-72.5,70.5-109.7,70.5c-23.9,0-59.8-21-59.8-21
		s21.6,51.3,0,144l-372.8,7.7c0,0-23.2-280.2,84.8-361.8"/>
	<path d="M304.7,890.6c-0.8,0-1.4-0.6-1.5-1.4c-3.3-50.2-2.7-100.5,1.9-150.6c4.5-46.7,12.6-87.4,24.2-120.9
		c14.5-42,34.5-72.9,59.3-91.7c0.7-0.5,1.6-0.3,2.1,0.4c0.5,0.6,0.3,1.5-0.3,2c-24.4,18.4-44,48.8-58.3,90.2
		c-11.5,33.3-19.5,73.7-24,120.2c-7,73-2.8,138.4-2,148.7l370.2-7.6c20.8-90.3,0-141.4-0.2-141.9c-0.3-0.8,0-1.6,0.8-2
		c0.4-0.2,1-0.2,1.4,0.1c0.3,0.2,35.8,20.8,59.1,20.8l0,0c28.5,0,80.3-9,108.3-69.6c11-24-1.2-50.7-37.5-81.9
		c-30.3-26-71.8-50.1-108.4-70.7c-67.3-37.9-146.3-31.9-147.1-31.8c-0.8,0.1-1.6-0.6-1.6-1.4s0.6-1.6,1.4-1.6
		c0.8-0.1,80.7-6.1,148.9,32.2c36.7,20.6,78.4,44.8,108.8,71c17.1,14.7,29.2,28.8,35.9,41.9c7.8,15.4,8.7,30,2.4,43.5
		c-28.7,62.1-81.8,71.4-111,71.4l0,0c-20,0-47.4-14-57.1-19.2c4.4,13.6,16.9,63.1-1.3,141.1c-0.2,0.7-0.7,1.1-1.4,1.2L304.7,890.6
		L304.7,890.6z"/>
	<path class="st2" d="M549.4,724.2c0,0,28.5,3.2,43,4.7s12.7-25.3-21.8-30"/>
	<path d="M593.6,730.5c-0.4,0-0.9,0-1.3-0.1c-14.5-1.6-43-4.7-43-4.7l0.3-3c0,0,28.5,3.2,43,4.7c3.9,0.4,6.4-1.5,6.9-5
		c0.9-7.4-7.5-19.1-29-22c-0.8-0.1-1.4-0.9-1.3-1.7c0,0,0,0,0,0c0.1-0.8,0.9-1.4,1.7-1.3c23.5,3.2,32.7,16.8,31.6,25.4
		C602.1,727.4,598.1,730.8,593.6,730.5z"/>
	<path class="st2" d="M443.4,694.9c0,0,60.3-34.7,74.1-43.4c27.4-17.3,87,22.1,55.5,48.2c0,0,2.5,5.8-5.5,11.8c-1.7,1.3-8,4-8,4
		s2.2,21.5-34.3,17.7c0,0-12.7,15.3-43.6,30.8l-31.4,26.1L443.4,694.9z"/>
	<path d="M450.1,791.6c-0.2,0-0.4,0-0.6-0.1c-0.5-0.2-0.9-0.7-0.9-1.3l-6.7-95.2c0-0.6,0.3-1.1,0.8-1.4c0.6-0.3,60.5-34.8,74-43.3
		c17.9-11.3,48.7,0.3,61.3,17.7c8.3,11.5,7.1,23.2-3.3,32.3c0.4,2.2,0.5,7.4-6.3,12.5c-2.4,1.4-4.8,2.7-7.4,3.8
		c-0.1,4.3-1.9,8.5-5,11.5c-5.9,5.8-16,8.1-30.2,6.7c-2.7,3.1-15.7,16.6-43.4,30.5l-31.3,26C450.8,791.4,450.5,791.6,450.1,791.6z
		 M445,695.7l6.4,91.3l29.2-24.2c0.1-0.1,0.2-0.1,0.3-0.2c30.3-15.2,43-30.3,43.1-30.4c0.3-0.4,0.8-0.6,1.3-0.5
		c13.4,1.4,23.3-0.6,28.5-5.7c2.8-2.7,4.3-6.4,4.1-10.3c-0.1-0.6,0.3-1.3,0.9-1.5c2.6-1.1,5.2-2.4,7.7-3.8c6.9-5.2,5.1-9.9,5-10.1
		c-0.2-0.6-0.1-1.3,0.4-1.7c13.3-11,7.9-22.8,3.5-28.8c-11.6-16-40.9-27.2-57.3-16.9C505.6,660.8,452.2,691.5,445,695.7z"/>
	<path class="st2" d="M683.3,391.4c13.5-16.9,45.5-9.5,56.9,9.5s13.3,55-3.8,85.4l-17.1,30.4l11.4,7.6l-64.5,43.6
		c0,0-19-22.8-22.8-49.3c-3.8-26.6-7.5-45.9,0.1-61s7.3-50,13-50s26,16,23,28c0,0,21-8,32.2-0.4c0,0,5.7-19-3.8-26.6
		S675.7,400.9,683.3,391.4z"/>
	<path d="M666.2,569.3c-0.4,0-0.9-0.2-1.2-0.5c-0.8-0.9-19.3-23.4-23.1-50.1c-0.3-2.2-0.7-4.4-1-6.6c-3.5-23.8-6-41,1.2-55.4
		c3.6-7.3,5.4-19.2,7-29.7c2.1-14.3,3.3-21.1,7.3-21.1c4.3,0,13.7,6.7,19.3,13.9c3.7,4.8,5.6,9.4,5.5,13.4
		c5.6-1.8,19.8-5.5,29.5-0.5c1.1-4.8,3.2-17.5-3.8-23.1c-3.4-2.7-8.9-4.5-13.7-6.1c-6.3-2-11.7-3.8-12.8-7.4c-0.5-1.8,0-3.7,1.7-5.7
		c5.7-7.1,14.8-10.6,25.6-9.9c13.8,0.9,27.3,8.8,33.8,19.5c11.3,18.8,13.8,55.6-3.8,86.9l-16.3,29.1l10.2,6.8
		c0.7,0.5,0.9,1.4,0.4,2.1c-0.1,0.2-0.2,0.3-0.4,0.4L667,569.1C666.8,569.3,666.5,569.3,666.2,569.3z M656.5,409
		c-1.7,0.7-3.3,11-4.4,18.6c-1.6,10.7-3.4,22.9-7.3,30.6c-6.7,13.5-4.3,30.3-0.9,53.6c0.3,2.1,0.6,4.3,1,6.6
		c3.2,22.7,17.9,42.8,21.6,47.5l61.5-41.6l-9.5-6.3c-0.7-0.4-0.9-1.3-0.5-2l17.1-30.4c17-30.3,14.7-65.8,3.8-83.9
		c-6-10-18.6-17.2-31.4-18.1c-9.8-0.7-18,2.5-23,8.8c-1,1.2-1.3,2.2-1.1,3c0.6,2.1,5.8,3.8,10.9,5.4s10.9,3.5,14.7,6.6
		c10.2,8.1,4.5,27.4,4.3,28.2c-0.1,0.5-0.5,0.8-0.9,1c-0.4,0.2-0.9,0.1-1.3-0.2c-10.4-7-30.6,0.5-30.8,0.6c-0.5,0.2-1.1,0.1-1.5-0.3
		c-0.4-0.4-0.6-0.9-0.5-1.5c1.2-4.7-1.9-9.9-4.6-13.4C667.8,414.5,659.3,409,656.5,409z"/>
	<path class="st3" d="M446.7,449.9c0,0-0.8,34.7-25.7,28.7s-78-19.4-90.4,17.7c-12.4,37.1-8.3,44.2-35.8,44.9s-74.9,50-13.5,96.8
		s215.1-155.2,215.1-155.2l-4.8-21L446.7,449.9z"/>
	<path d="M446.7,449.9l44.9,12l4.8,21c0,0-123.4,162.2-193.2,162.2c-7.9,0.2-15.6-2.3-21.9-7c-61.4-46.9-14-96.1,13.5-96.8
		s23.4-7.8,35.8-44.9c6.5-19.5,24.4-25.1,43.4-25.1c17.1,0,35.3,4.5,47,7.4c1.8,0.5,3.6,0.7,5.5,0.7
		C446,479.4,446.7,449.9,446.7,449.9 M446.7,446.9c-1.6,0-3,1.3-3,2.9c0,0.4-0.9,26.5-17.2,26.5c-1.6,0-3.2-0.2-4.8-0.6l-0.9-0.2
		c-11.9-2.9-29.8-7.2-46.8-7.2c-24.6,0-40.2,9.1-46.2,27.1c-2.3,7-4.1,12.8-5.6,17.9c-6.4,21.7-7.3,24.4-27.5,25
		c-15.7,0.4-37.2,15.3-44.2,36.7c-4.2,13-6.1,38.8,28.9,65.5c6.8,5.1,15.1,7.8,23.7,7.7c16.6,0,37.2-8.7,61.4-25.9
		c19.1-13.6,40.5-32.4,63.6-56.1c25-25.8,48.6-53,70.7-81.4c0.5-0.7,0.7-1.6,0.5-2.5l-4.8-21c-0.2-1.1-1.1-2-2.1-2.2l-44.9-12
		C447.2,447.1,447,447,446.7,446.9L446.7,446.9z"/>
	<path class="st4" d="M274.8,632.8c5.8-57.1,97-115.8,126.2-124.4c29.2-8.6,64.3-22.7,69.6-35s-15.4-18-15.4-18l6.2-1.6l30.2,8.1
		l4.8,21c0,0-153.7,202.1-215.1,155.2C279,636.3,276.9,634.5,274.8,632.8z"/>
	<path class="st2" d="M685.2,434.4c0,0-20.9,10.1-7.6,23.4c0,0-20.9,15.2-7.6,28.5c0,0,7.6,9.5,15.2,1.9l11.4,5.7"/>
	<path d="M696.5,495.4c-0.2,0-0.5-0.1-0.7-0.2l-10.5-5.2c-1.9,1.8-4.5,2.7-7.1,2.6c-5.1-0.3-8.9-4.7-9.5-5.3
		c-3.5-3.5-5.1-7.5-4.8-11.8c0.6-8.2,8.1-15.2,11.3-17.8c-3-3.4-4.2-7-3.6-10.6c1.4-8.4,12.3-13.7,12.7-14c0.7-0.4,1.6-0.1,2,0.7
		s0.1,1.6-0.7,2c-0.1,0-9.9,4.9-11.1,11.8c-0.5,3,0.8,6.1,3.9,9.2c0.3,0.3,0.5,0.7,0.4,1.2c0,0.4-0.3,0.8-0.6,1.1
		c-0.1,0.1-10.7,7.9-11.4,16.7c-0.3,3.4,1.1,6.6,3.9,9.5l0.1,0.1c0,0,3.3,4.1,7.3,4.3c2.1,0,4.2-0.9,5.6-2.5
		c0.5-0.5,1.2-0.6,1.7-0.3l11.4,5.7c0.7,0.4,1,1.3,0.7,2C697.6,495,697.1,495.3,696.5,495.4L696.5,495.4z"/>
	<path class="st2" d="M723.1,469.2c0,0-22.8-15.2-45.5-11.4"/>
	<path d="M723.1,470.7c-0.3,0-0.6-0.1-0.8-0.3c-0.2-0.1-22.5-14.8-44.5-11.1c-0.8,0.1-1.6-0.4-1.7-1.3s0.4-1.6,1.3-1.7
		c23.1-3.9,45.7,11,46.6,11.6c0.7,0.5,0.9,1.4,0.4,2.1c0,0,0,0,0,0C724.1,470.4,723.6,470.7,723.1,470.7z"/>
	<path class="st1" d="M495,507.9c0,0-81.5,0.6-147.5,58.6c-55,48.4-115.9,168.4-111.4,219.8s36.3,70.7,104.5,60
		s122.6-25.7,113.5-62.1l18.2-10.7l-29.5-79.3l-11.4,4.3c0,0-13.6-25.7-52.2-8.6s-68.1,27.8-68.1,27.8"/>
	<path d="M307.8,850.6c-21.7,0-38.2-4.6-50.1-13.8c-13.5-10.5-21-27-23.1-50.4c-2.1-24.4,10.4-66.2,33.5-111.9s52.4-86.4,78.4-109.2
		c34.3-30.2,72.8-44.6,99.1-51.4c28.5-7.4,49.2-7.6,49.4-7.6c0.8,0,1.5,0.6,1.5,1.5c0,0,0,0,0,0c0,0.8-0.7,1.5-1.5,1.5c0,0,0,0,0,0
		c-0.8,0-81.7,1.3-146.5,58.3c-25.7,22.6-54.8,63.1-77.7,108.3s-35.3,86.4-33.2,110.2c2,22.5,9.2,38.3,21.9,48.3
		c16.5,12.9,43,16.3,80.8,10.4c45.9-7.2,94.7-17.5,109-39.1c4.2-6.3,5.3-13.3,3.3-21.2c-0.2-0.6,0.1-1.3,0.7-1.7l17.1-10.1
		l-28.6-76.7l-9.9,3.8c-0.7,0.3-1.5,0-1.9-0.7c-0.5-1-13.5-24.2-50.3-7.9c-38.2,17-67.9,27.8-68.2,27.9c-0.8,0.3-1.6,0-2-0.8
		c-0.3-0.8,0-1.6,0.8-2c0.1,0,0.1-0.1,0.2-0.1c0.3-0.1,29.9-10.9,68-27.8c34.6-15.4,50.1,3.2,53.5,8.1l10.2-3.8
		c0.4-0.2,0.8-0.2,1.1,0c0.4,0.2,0.7,0.5,0.8,0.8l29.5,79.3c0.2,0.7,0,1.4-0.6,1.8L455.8,785c1.9,7.7,0.4,15.9-4,22.5
		c-15,22.6-64.5,33.1-111.1,40.4C329.9,849.6,318.8,850.6,307.8,850.6z"/>
	<path class="st1" d="M709.5,698.5c-12.8-17.1-42.8-25.7-68.5-62.1s21.4-68.5,21.4-68.5l-6.4-12.9c0,0,37.7-1.9,65.6-40.5l15.8,12.7
		c0,0,47.1-2.1,60,34.3s57.8,57.8,53.5,107.1"/>
	<path d="M709.5,700c-0.5,0-0.9-0.2-1.2-0.6c-5-6.7-12.8-12.1-21.9-18.4c-13.8-9.6-31.1-21.6-46.7-43.7c-6.8-9.6-9.2-19.7-7.3-30.2
		c3.8-20.7,23.2-36.1,28.1-39.7l-5.8-11.7c-0.2-0.4-0.2-1,0-1.4c0.3-0.4,0.7-0.7,1.2-0.8c0.4,0,37.4-2.4,64.4-39.9
		c0.2-0.3,0.6-0.5,1-0.6c0.4-0.1,0.8,0.1,1.1,0.3l15.4,12.3c5.5-0.1,48.6,0.5,60.9,35.3c4.8,13.6,14.1,25,24,37
		c15.9,19.5,32.4,39.6,29.7,70.7c-0.1,0.8-0.8,1.4-1.6,1.4s-1.4-0.8-1.4-1.6c2.6-29.9-13.5-49.5-29-68.5
		c-9.6-11.7-19.5-23.8-24.5-37.9c-12.3-35-58-33.3-58.5-33.3c-0.4,0-0.7-0.1-1-0.3l-14.6-11.7c-24,32.2-55,38.5-63.5,39.6l5.5,10.9
		c0.3,0.7,0.1,1.5-0.5,1.9c-0.2,0.2-23.9,16.5-27.9,38.5c-1.7,9.6,0.6,19,6.8,27.9c15.3,21.7,32.3,33.5,45.9,43
		c9.3,6.5,17.3,12,22.6,19.1c0.5,0.7,0.4,1.6-0.3,2.1C710.1,699.9,709.8,700,709.5,700z"/>
	<path class="st2" d="M520.9,709.8c0,0-17.1-8.6-17.1,0s6.4,21.4,19.3,21.4"/>
	<path d="M523,732.7c-13.6,0-20.8-13.3-20.8-22.9c-0.1-1.8,0.7-3.5,2.2-4.4c4.8-2.9,15.8,2.4,17.1,3.1c0.8,0.3,1.1,1.2,0.8,2
		s-1.2,1.1-2,0.8c0,0-0.1,0-0.1-0.1c-4.4-2.2-11.8-4.7-14.2-3.2c-0.3,0.2-0.8,0.6-0.8,1.9c0,8.3,6.2,19.9,17.8,19.9
		c0.8,0,1.5,0.7,1.5,1.5S523.8,732.7,523,732.7z"/>
	<g id="money_2">
		<circle class="st0" cx="608.5" cy="721.5" r="32"/>
		<path d="M608.5,755c-18.5,0-33.5-15-33.5-33.5s15-33.5,33.5-33.5s33.5,15,33.5,33.5l0,0C642,740,627,755,608.5,755z M608.5,691
			c-16.8,0-30.5,13.7-30.5,30.5s13.7,30.5,30.5,30.5s30.5-13.7,30.5-30.5l0,0C639,704.7,625.3,691,608.5,691z"/>
	</g>
	<path d="M582,727.3c1.3,8.8,8.9,16,17.5,17.9c2.5,0.5,5.1,0.6,7.6,0.2c0.8-0.2,1.2-1.1,1-1.8c-0.3-0.8-1.1-1.2-1.8-1
		c-0.4,0.1-0.8,0.1-1.2,0.1c-0.5,0-1,0-1.5,0c-0.9,0-1.8-0.1-2.7-0.3c-1.9-0.4-3.7-1-5.5-1.9c-3.4-1.8-6.3-4.5-8.3-7.8
		c-1.1-1.9-1.8-4-2.1-6.2c-0.2-0.8-1.1-1.2-1.8-1C582.2,725.8,581.8,726.6,582,727.3L582,727.3z"/>
	<path d="M621.2,703.1c7.4,4.1,11.5,12.3,10.4,20.7c-0.4,2.5-1.2,5-2.5,7.2c-0.4,0.7-0.1,1.6,0.6,2c0.7,0.4,1.6,0.1,2-0.5
		c5-8.8,3.8-19.7-3-27.2c-1.7-1.9-3.8-3.5-6-4.8C621,699.6,619.5,702.2,621.2,703.1L621.2,703.1z"/>
	<path d="M602.3,706.5l-3.6,21.9c-0.2,0.8,0.3,1.6,1.1,1.8c0.2,0.1,0.5,0.1,0.8,0l16.4-5c0.8-0.2,1.3-1.1,1-1.9
		c0-0.1-0.1-0.2-0.1-0.3l-13-18.3c-0.4-0.7-1.3-0.9-2-0.5c-0.7,0.4-0.9,1.3-0.5,2l13,18.3l0.9-2.2l-16.4,5l1.8,1.8l3.6-21.9
		c0.2-0.8-0.3-1.6-1-1.8c-0.8-0.2-1.6,0.2-1.8,1L602.3,706.5z"/>
	<path d="M560.5,714.6c-1.3-8.4-5.3-16.1-11.3-22c-10.2-9.9-24.9-13.5-38.6-9.5c-1.9,0.5-1.1,3.5,0.8,2.9c8.1-2.4,16.9-1.9,24.7,1.4
		c11.5,5,19.6,15.6,21.5,28c0.3,0.8,1.1,1.2,1.8,1C560.3,716.1,560.7,715.3,560.5,714.6L560.5,714.6z"/>
	<path class="st2" d="M531.5,647.5c38.8-5.7,85.1,24.4,84.5,58.3c-0.1,3.2-2.7,5.8-6,5.7c-0.2,0-0.4,0-0.6,0
		c-6.9-0.8-13.2-3.9-18-8.9c-10.5-11-10.7-10.5-10.7-10.5s4.2,14.1-18.8,22"/>
	<path d="M562,715.5c-0.8,0-1.5-0.7-1.5-1.5c0-0.6,0.4-1.2,1-1.4c21.3-7.3,18-19.6,17.9-20.2c-0.1-0.3-0.1-0.7,0.1-1
		c0.2-0.5,0.6-0.8,1.1-0.9c0.9-0.2,1.4-0.2,12,11c4.5,4.7,10.6,7.7,17.1,8.4c1.2,0.1,2.5-0.2,3.4-1c0.9-0.8,1.4-1.9,1.5-3.1
		c0.2-12.7-6.5-25.7-18.8-36.6c-17.5-15.4-42.6-23.3-64-20.2c-0.8,0.1-1.6-0.5-1.7-1.3c-0.1-0.8,0.5-1.6,1.3-1.7l0,0
		c22.2-3.3,48.2,5,66.4,20.9c13,11.5,20.1,25.3,19.9,38.9c0,2-0.9,4-2.5,5.3c-1.6,1.4-3.6,2-5.7,1.8c-7.2-0.8-13.9-4.1-18.9-9.4
		c-3.9-4.1-6.4-6.6-7.9-8c-0.3,5.2-3.5,14.3-20.1,19.9C562.3,715.5,562.1,715.5,562,715.5z"/>
	<path d="M583,694.1c-1.3-7.4-6.5-13.1-12.7-17c-6.6-4-14.2-6.4-21.8-7.6c-3.9-0.7-7.9-1.1-11.9-1.1c-0.8,0-1.5,0.7-1.5,1.5
		s0.7,1.5,1.5,1.5c1.6,0,3.2,0.1,4.8,0.2c0.9,0.1,1.8,0.2,2.6,0.3l1.2,0.2c0.3,0-0.4,0,0.1,0h0.3l0.7,0.1c3.7,0.6,7.3,1.4,10.9,2.5
		c3.5,1,6.9,2.5,10.1,4.3c0.8,0.4,1.5,0.9,2.3,1.4l1.1,0.7l0.6,0.4l0.2,0.2c0,0,0.4,0.3,0.2,0.1c1.4,1,2.6,2.2,3.8,3.5
		c0.3,0.3,0.6,0.7,0.9,1s0.1,0.1,0,0l0.2,0.3c0.2,0.2,0.3,0.4,0.4,0.6c0.5,0.8,1,1.6,1.4,2.4c0.1,0.2,0.2,0.4,0.3,0.6
		s0.1,0.2,0.1,0.3c0,0.1,0.1,0.1,0.1,0.2c0-0.1-0.1-0.1,0,0c0.2,0.4,0.3,0.9,0.5,1.3c0.3,0.9,0.5,1.9,0.7,2.8
		c0.1,0.8,0.9,1.4,1.8,1.2c0,0,0,0,0,0C582.7,695.8,583.2,694.9,583,694.1z"/>
	<path class="st0" d="M476.7,507.9c0,0-13.2,26.6,17.8,33.6s37-9,37-9s21,20,40,3s-4-35-4-35L476.7,507.9z"/>
	<path d="M509,544.8c-5,0-10-0.6-14.8-1.8c-10-2.3-16.6-6.7-19.8-13.3c-4.9-10.4,0.7-22,1-22.4c0.2-0.5,0.7-0.8,1.2-0.8l90.7-7.4
		c0.4,0,0.7,0.1,1,0.3c0.5,0.4,11.7,9.3,12.1,20.9c0.2,6-2.5,11.5-8,16.4c-16.8,15.1-35.3,2.5-40.5-1.8
		C529.8,538.2,523.8,544.8,509,544.8z M477.8,509.3c-1.1,2.6-4.2,11.4-0.6,19.1c2.7,5.7,8.7,9.6,17.7,11.7c29.2,6.6,35-7.5,35.3-8.1
		c0.3-0.8,1.2-1.2,1.9-0.9c0.2,0.1,0.3,0.2,0.5,0.3c0.8,0.8,20.2,18.8,38,3c4.8-4.3,7.2-9,7-14.1c-0.3-9-8.5-16.6-10.5-18.3
		L477.8,509.3z"/>
	<circle class="st3" cx="435.9" cy="326.8" r="37.8"/>
	<path d="M436,289.1c20.8,0,37.8,16.9,37.8,37.7c0,19.7-15.2,36.1-34.9,37.7c-1,0.1-2,0.1-3,0.1c-20.9-0.1-37.7-17-37.6-37.9
		c0.1-19.6,15.2-36,34.8-37.5C434,289.1,435,289.1,436,289.1 M436,286.1c-1.1,0-2.1,0-3.2,0.1c-22.4,1.8-39.2,21.4-37.4,43.9
		c1.7,21.1,19.3,37.4,40.5,37.5c1.1,0,2.1,0,3.2-0.1c22.4-1.7,39.2-21.3,37.5-43.8C475,302.5,457.3,286.1,436,286.1L436,286.1z"/>
	<path class="st3" d="M586.9,372.6c0,0,10.7-33.1-11.1-47.5s-26-9.5-37-17.8s-37.3-7.4-52.1,8.6c0,0-32.4-3.2-49.4,14.2
		s-18.2,31.3-14.4,50.5s2.3,29.7,4.5,43.3s14.2,48.3,70.7,45S586.9,372.6,586.9,372.6z"/>
	<path d="M520,302.2c7.6,0,14.4,1.9,18.8,5.2c11,8.3,15.2,3.4,37,17.8s11.1,47.5,11.1,47.5s-32.3,93-88.8,96.3
		c-2.5,0.1-5,0.2-7.3,0.2c-50.2,0-61.3-32.2-63.4-45.2c-2.2-13.6-0.7-24-4.5-43.3s-2.6-33.1,14.4-50.5c12.4-12.7,33-14.4,43.2-14.4
		c3.8,0,6.1,0.2,6.1,0.2C495.6,306.3,508.7,302.2,520,302.2 M520,299.2c-13.2,0-26,5.1-34.5,13.7c-1.1-0.1-2.8-0.1-5-0.1
		c-11.4,0-32.4,2-45.4,15.3c-17.9,18.3-19.1,33.3-15.2,53.1c1.7,8.7,2.7,17.5,3,26.4c0.2,5.6,0.7,11.2,1.5,16.8
		c1.8,11.2,12,47.8,66.3,47.8c2.4,0,4.9-0.1,7.5-0.2c13.5-0.8,26.8-6.5,39.5-17.1c9.9-8.3,19.5-19.6,28.5-33.6
		c9.5-15,17.4-30.9,23.5-47.6c0,0,0,0,0-0.1c1.8-6.3,2.8-12.8,2.8-19.3c-0.1-14.2-5.3-25.1-15.1-31.6c-12.4-8.2-19.4-10.3-25-12
		c-4.3-1.3-7.4-2.3-11.8-5.6C535.7,301.3,528.2,299.2,520,299.2L520,299.2z"/>
	<path d="M472.6,404.3c-5.5,0-11-0.6-16.4-1.9c-0.8-0.2-1.3-1.1-1-1.9c0.2-0.8,1-1.2,1.7-1.1c0.2,0,22.2,5.4,35.5-2.9
		c0.7-0.4,1.6-0.2,2.1,0.5c0.4,0.7,0.2,1.6-0.5,2.1C487.6,403.2,479.6,404.3,472.6,404.3z"/>
	<path class="st0" d="M476.8,396.3c-0.8,0-1.5-0.6-1.5-1.5c0-0.6,0.4-1.2,1-1.4c30.6-12.2,22.1-45.6,21.7-47
		c-0.2-0.8,0.3-1.6,1.1-1.8s1.6,0.3,1.8,1.1c0.1,0.4,9.6,37.4-23.5,50.6C477.2,396.3,477,396.3,476.8,396.3z"/>
	<path d="M383.7,320.9c-0.7,0-1.2-0.4-1.4-1c-2.8-8.8-2.3-16.8,1.3-23.6c6.4-12.1,20.2-16.4,20.8-16.6c0.8-0.2,1.6,0.2,1.9,1
		s-0.2,1.6-1,1.9c-0.1,0-13.3,4.2-19,15.2c-3.2,6.1-3.6,13.3-1.1,21.3c0.2,0.8-0.2,1.6-1,1.9c0,0,0,0,0,0
		C384,320.9,383.9,320.9,383.7,320.9z"/>
	<path class="st0" d="M408.8,333.9c-0.7,0-1.4-0.5-1.5-1.3c-1.5-9.7,0.2-17.5,5-23.4c7.8-9.5,20.9-10.1,21.4-10.1
		c0.8,0,1.5,0.6,1.6,1.4s-0.6,1.5-1.4,1.6l0,0c-0.1,0-12.3,0.6-19.3,9c-4.3,5.2-5.7,12.2-4.4,21c0.1,0.8-0.4,1.6-1.3,1.7
		L408.8,333.9z"/>
	<path class="st2" d="M545,460.6l21.5,40.8c0,0-22.8,46.5-84.5,5.4c0,0,26.6-27.3,11.9-68.6c0,0-17.8,7.1-24.8-8.4
		s2.6-25.5,11.7-26.2c0,0,37.9,0.5,27.8-71c0,0,35-7.3,59.9,17.1s41.5,61,26.1,85.2S545,460.6,545,460.6z"/>
	<path d="M521,331.6c12.4,0,32,2.9,47.5,18.2c24.8,24.5,41.5,61,26.1,85.2S545,460.6,545,460.6l21.5,40.8c0,0-11,22.4-38.3,22.4
		c-12.1,0-27.3-4.4-46.2-17c0,0,26.6-27.3,11.9-68.6c-2.9,1.1-6,1.6-9.1,1.6c-5.5,0-12-1.9-15.7-10c-7-15.5,2.6-25.5,11.7-26.2l0,0
		c1,0,37.8-0.5,27.7-71C512.7,332,516.8,331.6,521,331.6 M521,328.7L521,328.7c-4.4-0.1-8.7,0.3-13,1.1c-1.5,0.3-2.6,1.8-2.4,3.4
		c5,34.9-2,51.4-8.6,59.1c-7.3,8.4-15.8,8.5-16.1,8.5h-0.3c-5.9,0.5-11.2,3.9-14.2,8.9c-3.5,6-3.5,13.6,0,21.4
		c3.5,7.7,9.8,11.8,18.4,11.8c2.4,0,4.8-0.3,7.2-0.9c11.9,37.6-11.9,62.6-12.1,62.8c-1.2,1.2-1.1,3.1,0.1,4.2
		c0.1,0.1,0.3,0.2,0.4,0.3c17.4,11.6,33.5,17.5,47.9,17.5c17.1,0.2,32.8-9.1,41-24.1c0.4-0.9,0.4-1.9,0-2.7l-19.4-36.8
		c10.2-1.3,34.7-6.6,47.4-26.6c7.6-12,8.4-27.6,2.3-45.1c-5.3-15.2-15.6-30.8-28.9-43.8C554.6,332,534.8,328.7,521,328.7L521,328.7z
		"/>
	<path d="M543.4,463.2c-6.3-0.1-12.5-1.2-18.5-3.1c-0.8-0.3-1.2-1.1-0.9-1.9c0.3-0.8,1.1-1.2,1.9-0.9c0.1,0,12.9,4.3,23.1,2.5
		c0.8-0.2,1.6,0.3,1.8,1.1s-0.3,1.6-1.1,1.8c0,0-0.1,0-0.1,0C547.5,463.1,545.4,463.3,543.4,463.2z"/>
	<path d="M488.8,432.1c-0.2,0-0.4,0-0.6-0.1c-6.6-3.1-10.2-6.9-10.8-11.3c-0.8-6.4,5.2-11.3,5.5-11.5c0.6-0.6,1.6-0.5,2.1,0.1
		s0.5,1.6-0.1,2.1c-0.1,0-0.1,0.1-0.2,0.1c-0.1,0.1-5,4.1-4.4,8.8c0.4,3.3,3.5,6.3,9.1,8.9c0.8,0.3,1.1,1.2,0.7,2
		C489.9,431.8,489.3,432.1,488.8,432.1L488.8,432.1z"/>
	<path class="st5" d="M538.2,374.2c-14.6,12.8-41,18.1-41.6,26.2s6.9,14.4,17,11.3s18.9-8.4,36.3-20s33.7-24.4,26.1-33
		S559.7,355.3,538.2,374.2z"/>
	<path d="M535.6,356.1c-0.4,0-0.8-0.2-1.1-0.5c-0.5-0.6-0.5-1.6,0.1-2.1c0,0,0,0,0,0c6.4-5.6,15.8-3.6,16.2-3.5
		c0.8,0.2,1.2,1.1,1,1.9c-0.2,0.7-0.9,1.2-1.7,1c-0.1,0-8.4-1.7-13.6,2.8C536.3,356,536,356.1,535.6,356.1z"/>
	<path d="M559.9,401.2c-0.4,0-0.7-0.1-1-0.4l-23.6-20.7c-0.6-0.6-0.7-1.5-0.1-2.1s1.5-0.7,2.1-0.1l23.6,20.7
		c0.6,0.5,0.7,1.5,0.1,2.1C560.7,401,560.3,401.2,559.9,401.2z"/>
	<circle class="st1" cx="487.2" cy="442" r="6.2"/>
	<path d="M487.3,435.8c3.4,0,6.2,2.8,6.2,6.2c0,3.2-2.5,5.9-5.7,6.1h-0.5c-3.4,0-6.2-2.8-6.2-6.2c0-3.2,2.5-5.9,5.7-6.1H487.3
		 M487.3,432.8c-0.2,0-0.5,0-0.7,0c-5.1,0.4-8.8,4.8-8.4,9.9c0.4,4.8,4.3,8.4,9.1,8.4c0.2,0,0.5,0,0.7,0c5.1-0.4,8.8-4.8,8.4-9.9
		C496,436.5,492,432.8,487.3,432.8z"/>
	<circle cx="516.5" cy="398.5" r="3.5"/>
	<circle cx="559.5" cy="370.5" r="3.5"/>
	<path d="M552.3,434.6c-4-0.1-7.9-1.1-11.5-2.8c-0.8-0.3-1.1-1.2-0.8-2s1.2-1.1,2-0.8c0,0,0.1,0,0.1,0.1c0.1,0.1,13,6.3,19.2-1.6
		c0.5-0.7,1.4-0.9,2.1-0.4c0.7,0.5,0.9,1.4,0.4,2.1c0,0.1-0.1,0.1-0.1,0.2C561,432.9,556.7,434.8,552.3,434.6z"/>
	<path d="M508.5,370c-0.3,0-0.6-0.1-0.8-0.3c-0.7-0.5-0.9-1.4-0.4-2.1c0,0,0,0,0,0c2.5-3.7,8.8-2.8,9.5-2.6c0.8,0.1,1.4,0.9,1.3,1.7
		s-0.9,1.4-1.7,1.3l0,0c-1.3-0.2-5.3-0.4-6.5,1.4C509.5,369.8,509,370,508.5,370z"/>
	<path class="st6" d="M736.5,528.5c0.1-0.1-15-12-15-12c-27.8,38.6-63.6,39.5-63.6,39.5l6.1,13l-0.5-0.5
		C663.5,568.5,706.5,584.5,736.5,528.5z"/>
	<path class="st6" d="M430.5,700.5c0,0-12,38,22,82l18-10l-29-76L430.5,700.5z"/>
	<circle class="st7" cx="428" cy="558.5" r="8.1"/>
	<circle class="st7" cx="324" cy="646.5" r="8.1"/>
	<circle class="st7" cx="450" cy="649.5" r="8.1"/>
	<circle class="st7" cx="620" cy="566.5" r="8.1"/>
	<circle class="st7" cx="551" cy="611.5" r="8.1"/>
	<circle class="st7" cx="303" cy="753.5" r="8.1"/>
	<circle class="st7" cx="340" cy="808.5" r="8.1"/>
	<circle class="st7" cx="398" cy="742.5" r="8.1"/>
	<circle class="st7" cx="684" cy="627.5" r="8.1"/>
	<circle class="st7" cx="757" cy="586.5" r="8.1"/>
	<circle class="st7" cx="812" cy="649.5" r="8.1"/>
	<circle class="st7" cx="765" cy="723.5" r="8.1"/>
	
		<ellipse transform="matrix(0.1602 -0.9871 0.9871 0.1602 -418.2392 1213.3984)" class="st7" cx="504" cy="852.5" rx="8.1" ry="8.1"/>
	<path d="M845.1,610.7c5.3,5.7,9.9,12.1,13.5,19c3.7,6.8,6.5,14.1,8.4,21.7c1.9,7.7,2.8,15.6,2.7,23.5c-0.2,8.1-1.4,16.1-3.7,23.9
		c-2.3,7.8-5.5,15.3-9.8,22.3c-0.5,0.9-1.1,1.7-1.6,2.5c-0.4,0.7-0.2,1.6,0.5,2.1c0.7,0.4,1.6,0.2,2.1-0.5c0,0,0-0.1,0.1-0.1
		c4.6-7,8.2-14.7,10.8-22.7c2.6-7.9,4.1-16.2,4.5-24.5c0.4-8.2-0.3-16.4-2-24.4c-1.7-7.9-4.4-15.5-8-22.8c-3.6-7.2-8.1-13.9-13.3-20
		c-0.7-0.8-1.3-1.5-2-2.2C845.9,607.2,843.8,609.3,845.1,610.7L845.1,610.7z"/>
	<path d="M93.5,407.2c8.5,12.7,18.3,24.5,29.4,35c11,10.5,23.1,19.8,36,27.7c13,8,26.7,14.7,41,19.9c14.3,5.2,29,9,44.1,11.1
		c15,2.2,30.2,2.7,45.3,1.6c1.9-0.1,3.8-0.3,5.7-0.5c0.8,0,1.5-0.7,1.5-1.5c0-0.8-0.7-1.5-1.5-1.5c-15,1.6-30.1,1.5-45-0.3
		c-14.9-1.8-29.6-5.1-43.8-9.9c-14.2-4.8-28-11-40.9-18.6c-13-7.6-25.1-16.5-36.2-26.5c-11.1-10-21.1-21.2-29.7-33.5
		c-1.1-1.5-2.1-3.1-3.1-4.6C95.1,404.1,92.5,405.6,93.5,407.2L93.5,407.2z"/>
	<path d="M157,532c8.1,2.4,16.3,4.3,24.6,5.7c8.4,1.4,16.9,2.3,25.4,2.7c8.4,0.4,16.9,0.3,25.3-0.3c8.5-0.6,17-1.7,25.4-3.2
		c8.3-1.6,16.5-3.6,24.5-6.1l3-1c0.8-0.3,1.2-1.1,1-1.8c-0.2-0.8-1.1-1.2-1.8-1c-15.9,5.3-32.4,8.6-49.1,10
		c-8.4,0.7-16.8,0.9-25.2,0.6c-16.7-0.5-33.3-3.1-49.4-7.5c-1-0.3-2-0.6-3-0.9C155.9,528.6,155.1,531.4,157,532L157,532z"/>
	<path class="st0" d="M250.2,752.7c-3.2,7.5-4.9,15.6-4.9,23.7c-0.1,8,1.4,16,4.3,23.4c2.9,7.4,7.2,14.1,12.7,19.8
		c5.3,5.5,11.6,9.9,18.6,13.1c7,3.3,14.6,5.2,22.3,5.7c0.9,0.1,1.9,0.1,2.8,0.1c1.1,0,2-0.9,2-2s-0.9-2-2-2c-1.8,0-3.6-0.1-5.4-0.3
		l-0.7-0.1h-0.4h-0.1h-0.2h-0.3l-0.8-0.1c-0.9-0.2-1.8-0.3-2.7-0.5c-3.6-0.7-7-1.8-10.4-3.2l-0.3-0.1l-0.6-0.3l-1.3-0.6
		c-0.8-0.4-1.6-0.8-2.4-1.2c-1.6-0.9-3.2-1.8-4.8-2.8c-3-1.9-5.8-4-8.3-6.5c-1.3-1.3-2.6-2.6-3.9-4c-0.6-0.7-1.2-1.3-1.7-2l-0.4-0.5
		c0-0.1-0.1-0.2-0.2-0.2c0.2,0.3,0,0,0,0c-0.3-0.4-0.6-0.8-0.9-1.2c-2.2-3.1-4.1-6.3-5.7-9.8c-0.2-0.4-0.4-0.9-0.6-1.3
		c-0.1-0.2,0,0,0,0c0-0.1-0.1-0.2-0.2-0.4s-0.2-0.5-0.3-0.7c-0.4-0.9-0.7-1.8-1-2.7c-0.6-1.8-1.1-3.7-1.6-5.5s-0.8-3.7-1.1-5.6
		c-0.1-0.3,0,0.3,0-0.1v-0.3l-0.1-0.7l-0.1-1.5c-0.1-0.9-0.1-1.9-0.2-2.8c-0.1-1.9-0.1-3.9,0-5.8c0-0.9,0.1-1.9,0.2-2.8
		c0-0.5,0.1-0.9,0.1-1.4c0-0.1,0-0.3,0.1-0.4c0,0,0,0.3,0,0s0.1-0.5,0.1-0.8c0.6-3.9,1.5-7.7,2.8-11.3c0.1-0.4,0.3-0.8,0.5-1.2
		c0.1-0.2,0.2-0.4,0.3-0.7l0.1-0.4c0,0,0.1-0.3,0-0.1c0.5-1,0.2-2.2-0.7-2.7C251.9,751.4,250.7,751.7,250.2,752.7
		C250.2,752.6,250.2,752.6,250.2,752.7L250.2,752.7z"/>
</g>
<g id="moneybox-2">
	<path class="st8" d="M658.3,775.7c0,0,12.6-17.2,25.5-15c0,0-12.4,16.5-6.2,25.4"/>
	<path d="M677.6,787.5c-0.5,0-1-0.2-1.2-0.6c-5.3-7.7,1.4-19.9,4.7-24.9c-10.9,0.4-21.4,14.5-21.5,14.6c-0.5,0.7-1.4,0.8-2.1,0.3
		c-0.7-0.5-0.8-1.4-0.3-2.1l0,0c0.5-0.7,13.3-17.9,26.9-15.6c0.5,0.1,0.9,0.4,1.2,0.9c0.2,0.5,0.1,1-0.2,1.5
		c-0.1,0.2-11.7,15.7-6.2,23.6c0.5,0.7,0.3,1.6-0.4,2.1c0,0,0,0,0,0C678.1,787.4,677.9,787.5,677.6,787.5z"/>
	<path class="st8" d="M667,872.1l6.9-3.6c3.7-2,8.3-0.5,10.3,3.2l8.2,15.7c2,3.7,0.5,8.3-3.2,10.3l-6.9,3.6c-3.7,2-8.3,0.5-10.3-3.2
		l-8.2-15.7C661.8,878.7,663.2,874,667,872.1z"/>
	<path d="M678.7,903.8c-3.4,0-6.5-1.9-8.1-4.9l-8.2-15.7c-2.3-4.5-0.6-10,3.9-12.3c0,0,0,0,0,0l6.9-3.6c4.5-2.3,10-0.6,12.3,3.9
		l8.2,15.7c2.3,4.5,0.6,10-3.9,12.3c0,0,0,0,0,0l-6.9,3.6C681.6,903.4,680.2,903.8,678.7,903.8z M677.3,869.2c-1,0-1.9,0.2-2.8,0.7
		l-6.9,3.6c-3,1.6-4.2,5.3-2.6,8.3l8.2,15.7c1.6,3,5.3,4.2,8.3,2.6l6.9-3.6l0,0c3-1.6,4.2-5.3,2.6-8.3l-8.2-15.7
		C681.7,870.5,679.6,869.2,677.3,869.2L677.3,869.2z"/>
	<path class="st8" d="M586.5,876.1l7.9,1.1c4.1,0.6,7,4.4,6.4,8.5l-2.6,17.8c-0.6,4.1-4.4,7-8.5,6.4l-7.9-1.1
		c-4.1-0.6-7-4.4-6.4-8.5l2.6-17.8C578.6,878.3,582.4,875.5,586.5,876.1z"/>
	<path d="M590.7,911.5c-0.4,0-0.9,0-1.3-0.1l0,0l-7.9-1.1c-4.9-0.7-8.3-5.3-7.6-10.2c0,0,0,0,0-0.1l2.6-17.8
		c0.7-4.9,5.3-8.3,10.2-7.6c0,0,0,0,0.1,0l7.9,1.1c4.9,0.7,8.3,5.3,7.6,10.2c0,0,0,0,0,0.1l-2.6,17.8
		C598.9,908.2,595.1,911.5,590.7,911.5z M589.8,908.4c3.3,0.5,6.3-1.8,6.8-5.1l2.6-17.8c0.5-3.3-1.8-6.3-5-6.8c0,0,0,0-0.1,0
		l-7.9-1.2c-3.3-0.5-6.3,1.8-6.8,5.1l-2.6,17.8c-0.5,3.3,1.8,6.3,5,6.8c0,0,0,0,0.1,0L589.8,908.4z"/>
	<path class="st8" d="M697.6,807.7c-13.1-22.8-41.7-38.5-74.9-38.5c-45.5,0-82.5,29.7-82.5,66.4c0,14,5.4,27,14.6,37.7L544.5,885
		c-2.8,3.1-2.5,7.9,0.6,10.6l6,5.4c3.1,2.8,7.9,2.5,10.6-0.6l10.8-12.2c13.9,8.7,31.4,13.8,50.3,13.8c6.7,0,13.4-0.7,19.9-2l1.6,8.8
		c0.7,4.1,4.6,6.8,8.7,6.1l7.8-1.4c4.1-0.7,6.8-4.6,6.1-8.7l-2.2-12.1c21.3-10.2,36.5-27.9,39.8-48.6h9.3v-36.4H697.6z"/>
	<path d="M651.6,916.6c-4.4,0-8.1-3.1-8.9-7.5l-1.3-7.3c-6.2,1.1-12.4,1.7-18.7,1.7c-17.6,0.2-34.9-4.5-50-13.4l-10,11.2
		c-3.3,3.7-9,4.1-12.7,0.8c0,0,0,0,0,0l-5.9-5.3c-3.7-3.3-4.1-9-0.8-12.7c0,0,0,0,0,0l9.6-10.7c-9.3-11.2-14.1-24.2-14.1-37.7
		c0-37.4,37.7-67.9,84-67.9c32.2,0,61.8,15.1,75.7,38.5h15.3c0.8,0,1.5,0.7,1.5,1.5v36.4c0,0.8-0.7,1.5-1.5,1.5h-8
		c-3.7,20-17.9,37.3-39.3,47.9l2,11c0.8,4.9-2.4,9.6-7.3,10.4c0,0-0.1,0-0.1,0l-7.8,1.4C652.7,916.5,652.2,916.5,651.6,916.6z
		 M642.6,898.6c0.7,0,1.4,0.5,1.5,1.2l1.6,8.8c0.6,3.3,3.7,5.5,6.9,4.9c0,0,0,0,0.1,0l7.8-1.4c3.3-0.6,5.5-3.7,4.9-6.9
		c0,0,0,0,0-0.1l-2.1-12.1c-0.1-0.7,0.2-1.3,0.8-1.6c21.5-10.3,35.7-27.6,38.9-47.5c0.1-0.7,0.7-1.3,1.5-1.3h7.8v-33.4h-14.7
		c-0.5,0-1-0.3-1.3-0.8c-13.2-23-42.1-37.8-73.6-37.8c-44.7,0-81,29.1-81,64.9c0,13.2,4.9,25.9,14.3,36.8c0.5,0.6,0.5,1.4,0,2
		L545.6,886c-2.2,2.5-2,6.3,0.4,8.5c0,0,0,0,0,0l5.9,5.3c2.5,2.2,6.3,2,8.5-0.4c0,0,0,0,0,0l10.8-12.1c0.5-0.5,1.3-0.7,1.9-0.3
		c14.3,8.9,31.4,13.6,49.5,13.6c6.6,0,13.2-0.6,19.7-1.9C642.5,898.5,642.6,898.5,642.6,898.6L642.6,898.6z"/>
	<path class="st3" d="M580.3,779.8c0,0-4,2-5.4,8.2c0,0,29.1-12.1,57-7.2c0,0-2.2-7.1,9.7-8.3C641.6,772.4,612,765,580.3,779.8z"/>
	<path d="M622.8,770.6c6.3-0.1,12.6,0.5,18.8,1.9c-12,1.2-9.7,8.3-9.7,8.3c-4.6-0.8-9.3-1.2-13.9-1.2c-22.9,0-43,8.4-43,8.4
		c1.4-6.1,5.4-8.2,5.4-8.2C593.7,773.7,608.2,770.5,622.8,770.6 M622.9,767.6c-15.1,0-30.1,3.2-43.8,9.6H579
		c-0.5,0.3-5.3,2.9-6.9,10.1c-0.4,1.6,0.6,3.2,2.2,3.6c0.2,0.1,0.5,0.1,0.7,0.1c0.4,0,0.8-0.1,1.2-0.2c0.2-0.1,19.9-8.2,41.9-8.2
		c4.5,0,9,0.4,13.4,1.1c0.2,0,0.4,0,0.6,0c1.6,0,2.9-1.2,3-2.8c0-0.3,0-0.7-0.2-1c-0.1-0.7,0-1.3,0.4-1.9c0.5-0.8,2.1-2.1,6.7-2.6
		c1.6-0.2,2.8-1.6,2.7-3.3c-0.1-1.2-1-2.3-2.2-2.6C636,768.1,629.5,767.4,622.9,767.6L622.9,767.6z"/>
	<ellipse class="st3" cx="712.7" cy="826.5" rx="6.9" ry="16.5"/>
	<path d="M712.7,810c3.8,0,6.9,7.4,6.9,16.5s-3.1,16.5-6.9,16.5s-6.9-7.4-6.9-16.5S708.9,810,712.7,810 M712.7,807
		c-6.5,0-9.9,9.8-9.9,19.5s3.4,19.5,9.9,19.5s9.9-9.8,9.9-19.5S719.2,807,712.7,807z"/>
	<path class="st8" d="M653.8,794.9c0,0-12.8-10.7-23.6-15c0,0-6.4,17.1,0,32.1"/>
	<path d="M630.2,813.5c-0.6,0-1.1-0.4-1.4-0.9c-6.6-15.4-0.3-32.5,0-33.3c0.1-0.4,0.4-0.7,0.8-0.8c0.4-0.2,0.8-0.2,1.2,0
		c10.8,4.3,23.4,14.8,24,15.2c0.7,0.5,0.8,1.4,0.3,2.1s-1.4,0.8-2.1,0.3c0,0-0.1-0.1-0.1-0.1c-0.1-0.1-11.6-9.6-21.7-14.1
		c-1.3,4.4-4.6,17.8,0.5,29.5c0.3,0.8,0,1.6-0.7,2c0,0,0,0,0,0C630.7,813.5,630.5,813.6,630.2,813.5z"/>
	<circle class="st3" cx="668.8" cy="824.9" r="6.4"/>
	<path d="M668.8,818.5c3.6,0,6.4,2.9,6.4,6.4s-2.9,6.4-6.4,6.4c-3.6,0-6.4-2.9-6.4-6.4l0,0C662.4,821.3,665.2,818.5,668.8,818.5
		 M668.8,815.5c-5.2,0-9.4,4.2-9.4,9.4s4.2,9.4,9.4,9.4c5.2,0,9.4-4.2,9.4-9.4l0,0C678.2,819.7,674,815.5,668.8,815.5z"/>
	<path d="M550,805.1c1.3-1.9,1.6-4.2,1-6.3c-0.6-2.1-1.9-4-3.6-5.3c-3.2-2.6-7.1-4.2-11.2-4.6c-3.9-0.4-7.9,0.1-11.5,1.7
		c-3.7,1.5-7.3,4.1-9.2,7.7c-1.1,1.9-1.4,4.1-1,6.3c0.5,2,1.9,3.6,3.8,4.4c1.8,0.8,3.9,0.9,5.7,0.2c1.9-0.8,3.5-2.2,4.4-4.1
		c1.8-4.1,0.7-8.8-2.7-11.7c-3.4-3.1-8.3-4.1-12.7-3.6c-4.6,0.5-8.9,2.4-12.4,5.5c-3.2,2.9-5.5,6.8-6.6,11c-0.3,1.1-0.4,2.2-0.5,3.4
		c0,0.8,0.7,1.5,1.5,1.5s1.5-0.7,1.5-1.5c0.8-7.4,5.8-13.7,12.9-16.1c3.6-1.3,7.6-1.3,11.2,0c3,1.2,5.7,4,5.7,7.3
		c0,1.5-0.5,2.9-1.4,4c-0.5,0.6-1.1,1-1.8,1.3c-0.6,0.2-1.2,0.3-1.8,0.3c-1.3,0-2.5-0.5-3.3-1.5c-0.8-1.2-1-2.7-0.5-4
		c1-3.2,3.9-5.5,6.7-7c2.9-1.5,6-2.3,9.3-2.3c3.2-0.1,6.4,0.7,9.3,2.2c2.8,1.5,6,4.2,5.5,7.7c-0.1,0.7-0.4,1.4-0.8,2
		c-0.4,0.7-0.1,1.6,0.5,2C548.6,806,549.5,805.7,550,805.1L550,805.1z"/>
	<path class="st0" d="M550.3,836.7c2.2,10.8,7.1,20.8,14.3,29.1c11.9,13.6,29,21.5,47,21.7c1.1,0,2-0.9,2-2s-0.9-2-2-2
		c-5.4,0-10.8-0.9-16-2.4c-1.3-0.4-2.6-0.8-3.9-1.3c-0.6-0.2-1.2-0.5-1.9-0.7l-0.7-0.3l-1-0.4c-2.5-1.1-5-2.4-7.3-3.9
		c-1.2-0.7-2.3-1.5-3.4-2.3s-1.9-1.4-3.1-2.4c-2-1.7-3.9-3.5-5.6-5.4c-7.4-8.1-12.5-18.1-14.6-28.8c-0.3-1.1-1.4-1.7-2.5-1.4
		c0,0,0,0,0,0C550.6,834.5,550,835.6,550.3,836.7L550.3,836.7z"/>
</g>
<g id="message">
	<path class="st8" d="M549.2,173.9c0-46,49.7-83.4,111.1-83.4s111.1,37.3,111.1,83.4s-49.7,83.4-111.1,83.4c-7.5,0-15-0.6-22.4-1.7
		L612.6,280l-5.9-33C572.4,232.8,549.2,205.4,549.2,173.9z"/>
	<path d="M660.3,90.5c61.4,0,111.1,37.3,111.1,83.4s-49.7,83.4-111.1,83.4c-7.5,0-15-0.6-22.4-1.7L612.6,280l-5.9-33
		c-34.3-14.2-57.6-41.6-57.6-73.1C549.2,127.9,598.9,90.5,660.3,90.5 M660.3,87.5c-30.3,0-58.9,8.9-80.4,25
		c-21.8,16.3-33.7,38.1-33.7,61.4c0,31.2,22.1,59.9,57.9,75.2l5.6,31.4c0.2,1.1,1,2,2,2.3c0.3,0.1,0.6,0.1,0.9,0.1
		c0.8,0,1.5-0.3,2.1-0.9l24.1-23.4c7.1,1,14.2,1.5,21.4,1.5c30.3,0,58.9-8.9,80.4-25c21.8-16.3,33.7-38.1,33.7-61.4
		s-12-45-33.7-61.4C719.1,96.4,690.6,87.6,660.3,87.5L660.3,87.5z"/>
	<path d="M718.4,168.7h-109c-0.8,0-1.5-0.7-1.5-1.5s0.7-1.5,1.5-1.5h109c0.8,0,1.5,0.7,1.5,1.5S719.3,168.7,718.4,168.7z"/>
	<path d="M678.4,197H615c-0.8,0-1.5-0.7-1.5-1.5s0.7-1.5,1.5-1.5h63.5c0.8,0,1.5,0.7,1.5,1.5S679.3,197,678.4,197L678.4,197z"/>
	<path class="st0" d="M584.3,213.7c-1.2-1.3-2.4-2.6-3.5-3.9c-0.3-0.3-0.5-0.6-0.8-1l-0.4-0.5c-0.1-0.2,0,0,0,0l-0.2-0.3
		c-0.5-0.7-1-1.4-1.5-2.1c-1.9-2.8-3.6-5.8-5.1-8.9c-0.2-0.4-0.3-0.7-0.5-1.1l-0.2-0.6c0,0-0.1-0.3-0.1-0.1s-0.1-0.2-0.1-0.2
		c-0.3-0.8-0.7-1.6-0.9-2.4c-0.6-1.6-1.1-3.1-1.5-4.8c-0.4-1.6-0.8-3.2-1.1-4.9c-0.1-0.4-0.1-0.8-0.2-1.2c0-0.2-0.1-0.4-0.1-0.6
		s0-0.2,0-0.3c0-0.3,0,0.3,0,0c-0.1-0.8-0.2-1.6-0.3-2.5c-0.3-3.3-0.3-6.7,0.1-10c0-0.4,0.1-0.8,0.1-1.2c0-0.2,0-0.4,0.1-0.6
		c0,0.4,0-0.2,0-0.3c0.1-0.8,0.3-1.6,0.4-2.3c0.3-1.6,0.7-3.1,1.1-4.6s0.9-3.1,1.5-4.6c0.1-0.4,0.3-0.7,0.4-1.1l0.2-0.5
		c0-0.1,0.3-0.6,0.1-0.3c0.3-0.8,0.7-1.5,1-2.3c1.4-2.9,3-5.7,4.9-8.4c0.5-0.7,0.9-1.3,1.4-2c0.1-0.2,0.2-0.3,0.3-0.5
		s0.3-0.4,0.2-0.2l0.8-1c1.1-1.3,2.2-2.6,3.3-3.8c2.3-2.4,4.7-4.6,7.3-6.6l0.4-0.3l0.5-0.4l1.1-0.8c1-0.6,1.3-1.8,0.7-2.7
		c0,0,0,0,0,0c-0.6-0.9-1.8-1.3-2.7-0.7c-5.8,4.1-10.9,9.1-15.2,14.8c-4,5.4-7.2,11.4-9.3,17.9c-2.1,6.4-3.1,13.2-2.8,20
		c0.3,7,1.8,13.8,4.5,20.3c2.8,6.7,6.7,12.9,11.6,18.3c0.6,0.7,1.2,1.3,1.8,2c0.8,0.8,2,0.8,2.8,0c0,0,0,0,0,0
		C585,215.7,585,214.4,584.3,213.7L584.3,213.7z"/>
	<path d="M697.7,126.4c-0.8,0-1.5-0.6-1.5-1.5c0-0.8,0.6-1.5,1.5-1.5c46.4-3.1,83.8-28.9,107.1-49.9c15.1-13.6,28.5-28.9,39.9-45.6
		c0.4-0.7,1.3-1,2-0.6s1,1.3,0.6,2c0,0-0.1,0.1-0.1,0.1c-0.1,0.2-14.8,23-40.4,46.2c-23.7,21.4-61.8,47.6-109,50.8L697.7,126.4z"/>
	<path d="M753.3,162.7c-2.7,0-5.5-0.1-8.4-0.4c-0.8-0.1-1.4-0.8-1.4-1.6c0.1-0.8,0.8-1.4,1.6-1.4l0,0c53,5.1,80.8-41.8,81-42.2
		c0.4-0.7,1.3-1.1,2-0.7c0.7,0.4,1,1.3,0.7,2c0,0.1-0.1,0.1-0.1,0.2c-5.7,9.1-12.8,17.1-21.1,23.9
		C796.2,152,777.8,162.7,753.3,162.7z"/>
</g>
</svg>
