<?xml version="1.0" encoding="utf-8"?>
<!-- Generator: Adobe Illustrator 24.1.2, SVG Export Plug-In . SVG Version: 6.00 Build 0)  -->
<svg version="1.1" id="phone_1_" xmlns="http://www.w3.org/2000/svg" xmlns:xlink="http://www.w3.org/1999/xlink" x="0px" y="0px"
	 viewBox="0 0 1000 1000" style="enable-background:new 0 0 1000 1000;" xml:space="preserve">
<style type="text/css">
	.st0{fill:#1D1D1B;}
	.st1{fill:#FFCDB2;}
	.st2{fill:#FFAD00;}
	.st3{fill:#6C32AD;}
	.st4{fill:#59298F;}
	.st5{fill:#FFFFFF;}
	.st6{fill:#E89D00;}
	.st7{fill:#FFB49F;}
	.st8{fill:#FFC140;}
	.st9{fill:#D9CFFF;}
	.st10{fill:#1D1E1B;}
	.st11{fill:#FC611F;}
	.st12{fill:#1D1F1C;}
</style>
<g id="line">
	<path class="st0" d="M783.5,905.4H109.2c-1.1,0-2-0.9-2-2s0.9-2,2-2h674.3c1.1,0,2,0.9,2,2S784.6,905.4,783.5,905.4z"/>
	<path class="st0" d="M169.4,949.7H38.2c-1.1,0-2-0.9-2-2s0.9-2,2-2h131.2c1.1,0,2,0.9,2,2S170.5,949.7,169.4,949.7z"/>
	<path class="st0" d="M844.8,870.9H741.4c-1.1,0-2-0.9-2-2s0.9-2,2-2h103.4c1.1,0,2,0.9,2,2S845.9,870.9,844.8,870.9z"/>
</g>
<g id="woman">
	<path class="st1" d="M726.5,471.5c0,0-49.6,20.4-53.1,54.2s-8.5,66.5-8.5,66.5l52.4-2.3L726.5,471.5z"/>
	<path class="st0" d="M663.1,593.7l0.3-1.8c0-0.3,5-33,8.5-66.4c3.6-34.3,52-54.6,54.1-55.5l2.3-0.9l-9.5,122.2L663.1,593.7z
		 M724.8,473.9c-9.7,4.5-47,23.5-50,52c-3,29-7.2,57.4-8.3,64.7l49.3-2.1L724.8,473.9z"/>
	<path class="st2" d="M424.3,530.1c0,0,31.9,153,161.4,210.3c97.5,43.2,92.9,34.1,129.9,6.6c32.4-24,78.7-117.7,68.1-145.7
		s-31.9-25.7-31.9-25.7l-3.7-22.4l-79-4.2l-0.9,15.3c0,0-29.4,9.5-27.7,37.2s-2.5,65.5,5.9,79.2c0,0-29.3-109.8-200.1-133.6"/>
	<path class="st0" d="M672.7,771.8c-15.9,0-39.4-8.6-87.6-30c-67.3-29.8-107.8-85.7-130-127.3c-24-45.1-32.2-83.7-32.3-84l2.9-0.6
		c0.1,0.4,8.2,38.6,32,83.3c21.9,41.2,62,96.5,128.5,125.9c87.3,38.7,91.5,35.4,118.7,14.2c2.9-2.2,6.1-4.8,9.7-7.4
		c15-11.1,34.5-38.9,49.7-70.8c15.7-32.8,22.5-60.8,17.8-73.1c-10.1-26.6-30.1-24.8-30.3-24.8l-1.4,0.2l-3.7-22.6l-76.3-4.1
		l-0.9,14.8l-1,0.3c-1.2,0.4-28.3,9.5-26.7,35.7c0.5,8.9,0.5,18.8,0.4,28.5c-0.1,15-0.2,30.4,2.1,41c1.3,3.1,2.5,6.2,3.4,9.4
		l2.6,9.8l-5.3-8.7c-1.7-2.9-2.9-6.1-3.5-9.5c-4.5-10.5-14.1-28.9-32.4-48.3c-26-27.5-75.4-62.9-163.1-75.1l0.4-3
		c39.1,5.4,74.1,15.9,103.8,31.1c23.8,12.1,44.4,27.3,61.2,45.1c11.3,11.9,21,25.3,28.6,39.9c-0.8-9.3-0.8-20.3-0.7-31.7
		c0-9.6,0.1-19.5-0.4-28.3c-1.6-25.6,22.5-36.3,27.8-38.3l0.9-15.8l81.7,4.4l3.7,22.3c5.1,0.1,22.8,2.2,32,26.7
		c5,13.3-1.7,41.5-18,75.5c-15.5,32.3-35.3,60.5-50.6,71.9c-3.6,2.6-6.8,5.2-9.7,7.4C694.1,765.6,686.1,771.8,672.7,771.8z"/>
	<path class="st3" d="M348.8,467c0,0-3.3,39.5-31.2,31s-72.5-19.1-89.2,22.3S204.3,591,172.8,590s-71.2,93.6,12.8,120.5
		C323.3,754.6,424,505.7,424,505.7l-24.8-22L348.8,467z"/>
	<path d="M348.8,467l50.4,16.8l24.8,22c0,0-82.8,204.7-201,209.9c-12.7,0.5-25.3-1.2-37.4-5.1c-82.9-26.5-45.3-119.2-14-120.5
		c0.4,0,0.8,0,1.2,0c1.2,0,2.4,0,3.6,0c28.4-1.3,36-29.8,52-69.6c8.8-22,25.5-29.3,43.4-30.1c15.9-0.7,32.6,3.8,45.8,7.8
		c2.7,0.9,5.5,1.3,8.4,1.2C346.2,498.4,348.8,467.1,348.8,467 M348.7,464.5c-1.3,0.1-2.3,1-2.4,2.3c0,0.4-2.7,29.1-20.5,29.9
		c-2.5,0.1-5.1-0.3-7.5-1.1c-14.1-4.3-30.6-8.6-46.6-7.9c-22.2,1-37.6,11.6-45.6,31.7c-1.8,4.6-3.6,9-5.2,13.2
		c-12.6,32.4-21,53.7-44.6,54.8c-1.1,0-2.2,0.1-3.4,0c-0.5,0-0.9,0-1.4,0c-8.2,0.4-16.8,6.1-24.1,16.1
		c-7.4,10.4-12.2,22.5-13.8,35.2c-2.1,15.5,0.7,30.2,7.9,42.4c8.7,14.6,23.3,25.3,43.5,31.8c12.3,4,25.3,5.8,38.3,5.3
		c27.5-1.2,55.3-13.2,82.7-35.5c21.8-17.8,43.3-42.1,64-72.4c22.1-32.6,41-67.3,56.4-103.5c0.4-1,0.1-2.1-0.7-2.8l-24.7-22
		c-0.3-0.2-0.6-0.4-0.9-0.5l-50.4-16.8C349.3,464.5,349,464.5,348.7,464.5L348.7,464.5z"/>
	<path class="st4" d="M399.2,483.8L348.8,467c0,0-1.6,19.5-12.3,28.2l35.7,34.3c0,0-45,28.8-61.9,61.9
		c-11.4,22.2-54.9,122-25.1,103.1c26.4-16.8,49.9-41.7,69.8-67.9c20.6-52.3,44.3-112.6,53-135L399.2,483.8z"/>
	<path class="st2" d="M575.2,670.1c73.5,91.6,65.8,232.6,65.8,232.6H268.8c0,0,3.4-363.9,153.7-357.5"/>
	<path class="st0" d="M641,904.2H268.8c-0.4,0-0.8-0.2-1.1-0.5c-0.3-0.3-0.4-0.7-0.4-1.1c1.1-45.3,5.1-90.6,12-135.4
		c6.6-42.3,15.5-79.5,26.5-110.5c13.8-38.9,30.8-68.2,50.7-87c19.3-18.3,41.6-27.1,66.1-26c0.8,0,1.5,0.7,1.4,1.6s-0.7,1.5-1.6,1.4
		c-23.7-1-45.3,7.5-63.9,25.2c-44.3,42-65.9,129.6-76.3,195.7c-6.8,44.2-10.8,88.8-11.9,133.5h369.3c0.6-26.9-1.2-53.7-5.4-80.3
		c-6.6-42.4-22.4-102.8-60.2-149.9c-0.5-0.6-0.4-1.6,0.2-2.1c0.6-0.5,1.6-0.4,2.1,0.2c38.2,47.6,54.1,108.6,60.8,151.4
		c7.2,46.3,5.4,81.9,5.3,82.3C642.4,903.5,641.8,904.2,641,904.2z"/>
	<circle class="st3" cx="395.3" cy="373.3" r="35.7"/>
	<path d="M388.5,338.3c19.3-3.8,38.1,8.9,41.8,28.2s-8.9,38.1-28.2,41.8s-38.1-8.9-41.8-28.2c-1.3-6.7-0.7-13.6,1.8-19.9
		C366.6,348.9,376.5,340.6,388.5,338.3 M388,335.8c-20.7,4-34.2,24.1-30.2,44.8c4,20.7,24.1,34.2,44.8,30.2
		c20.7-4,34.2-24.1,30.2-44.8c-2.5-12.8-11.4-23.5-23.5-28.2C402.6,335.1,395.2,334.4,388,335.8z"/>
	<path class="st3" d="M504.7,474.6c0,0,22.7-23.7,10.2-44.9s-18.2-18.8-24.1-30.4s-28.6-21.7-47.9-14.2c0,0-26.2-16.1-47.8-8.4
		s-28.4,19-33.1,36.9s-10.3,26.1-14,38.6s-7.9,46.9,41.5,67.5S504.7,474.6,504.7,474.6z"/>
	<path d="M400.2,375.4c20.5-4,42.8,9.8,42.8,9.8c2.1-0.8,4.2-1.4,6.4-1.9c17.6-3.4,36.2,5.7,41.4,16.1c5.9,11.6,11.5,9.2,24.1,30.4
		c12.6,21.2-10.2,44.9-10.2,44.9s-39.9,39.7-80.8,47.7c-11.7,2.3-23.5,2-34.5-2.6c-49.4-20.6-45.2-55-41.5-67.5s9.3-20.7,14-38.6
		s11.5-29.2,33.1-36.9C396.7,376.2,398.4,375.7,400.2,375.4 M399.6,372.9c-1.8,0.4-3.6,0.8-5.4,1.5c-22.6,8.1-29.9,20.3-34.7,38.7
		c-2.2,8.1-5,16-8.4,23.7c-2.1,4.8-4,9.8-5.6,14.9c-3.2,10.6-2.9,21.9,0.9,32.3c5.9,16.2,20.1,29.1,42.1,38.3
		c10.6,4.4,22.7,5.3,36,2.7c21.6-4.2,42.8-17.2,56.8-27.3c8.9-6.4,17.4-13.5,25.4-21.1l0,0c4.1-4.5,7.6-9.6,10.3-15.2
		c5.8-12,5.9-23.4,0.3-32.8c-7.1-12.1-12.2-16.7-16.2-20.5c-3.1-2.9-5.4-5-7.8-9.8c-5.7-11.2-25.2-21.1-44.2-17.4
		c-1.9,0.4-3.8,0.9-5.7,1.5C438.3,379.6,418.4,369.2,399.6,372.9L399.6,372.9z"/>
	<path d="M414.9,458.7h-0.1c-15.8,1.6-32.6-12.3-33.3-12.8c-0.6-0.4-0.6-1.3-0.2-1.8s1.3-0.6,1.8-0.2c0.2,0.1,16.7,13.8,31.5,12.3
		c0.7,0,1.3,0.5,1.3,1.2C415.9,457.9,415.5,458.5,414.9,458.7L414.9,458.7z"/>
	<path class="st5" d="M413.8,447.7c-3.5,0.7-7.2,0.9-10.8,0.6c-0.7-0.1-1.2-0.7-1.2-1.4c0-0.7,0.6-1.2,1.3-1.2c0,0,0,0,0,0
		c31.2,2.3,37.8-29.8,38-31.1c0.1-0.7,0.7-1.2,1.4-1.1c0.7,0.1,1.2,0.7,1.1,1.4c0,0,0,0.1,0,0.1C443.7,415.4,438.1,443,413.8,447.7z
		"/>
	<path class="st5" d="M448.9,534.2c0,0,65.2,47.9-18.5,49c0,0-13.4,29.3-44.4,18s-21.3-40.2-1.5-49.3
		C401.7,543.9,448.9,534.2,448.9,534.2z"/>
	<path d="M403.8,604.8c-6.2,0.7-12.4-0.1-18.2-2.4c-12.9-4.7-20.3-13-20.7-23.4c-0.5-11.2,7.4-22.8,19.1-28.3
		c17.1-7.9,62.8-17.4,64.7-17.8c0.3-0.1,0.7,0,1,0.2c1.2,0.9,29,21.5,24.1,36.7c-3,9.3-17.3,14.2-42.6,14.6
		C429.4,587.9,420.6,602.7,403.8,604.8z M448.6,535.5c-5.4,1.1-47.8,10.2-63.6,17.5c-10.6,4.9-18,15.8-17.6,25.9
		c0.4,9.3,7.2,16.8,19.1,21.1c12.4,4.5,23.4,3,32.6-4.6c4.2-3.5,7.7-7.9,10.2-12.8c0.2-0.4,0.6-0.7,1.1-0.7
		c24.2-0.3,38.4-4.8,41-12.8C475.4,556.6,452.2,538.2,448.6,535.5L448.6,535.5z"/>
	<path d="M354.3,346.7c-0.1,0-0.3,0-0.4,0c-0.7-0.1-1.2-0.7-1.1-1.4c1.3-8.6,4.9-15.1,10.8-19.5c10.4-7.6,23.9-5.6,24.5-5.5
		c0.7,0.1,1.2,0.8,1,1.5c-0.1,0.7-0.8,1.2-1.5,1.1c-0.1,0-13.1-2-22.6,5c-5.3,3.9-8.6,9.9-9.8,17.8
		C355.2,346.1,354.8,346.6,354.3,346.7z"/>
	<path class="st6" d="M670.2,565.6c0,0,18.8,34.2,81.2,11.5l-4.2-22l-75.6-4.2L670.2,565.6z"/>
	<path class="st5" d="M367.3,366.5c-0.2,0-0.4,0-0.6,0c-0.7-0.2-1.1-1-0.9-1.7c2.9-9.2,7.7-15.4,14.5-18.5c11-5,22.8,0.1,23.3,0.3
		c0.7,0.3,1,1.1,0.7,1.7c-0.3,0.7-1.1,1-1.7,0.7c-0.1,0-11.3-4.8-21.1-0.3c-6,2.8-10.4,8.4-13,16.9
		C368.2,366.1,367.8,366.5,367.3,366.5z"/>
	<path class="st1" d="M444.1,536.1l2.7,13.9c0,0-17,40.9-69.2,20.3c0,0,16.4-37.2,21-78.3c0,0-18.1-1.3-17.6-17.4
		s12.7-20.5,20.8-17.4c0,0,32,16.1,52.9-48.9c0,0,32.8,8.3,43.8,39.3s10,69-13,83.2S444.1,536.1,444.1,536.1z"/>
	<path d="M454.8,408.3c0,0,32.8,8.3,43.8,39.3s10,69-13,83.2c-5.5,3.4-11.5,5.9-17.9,7.2c-14,2.7-23.5-1.9-23.5-1.9l2.7,13.9
		c0,0-8.6,20.6-32.2,25.2c-9.7,1.9-21.9,1.1-37.1-4.9c0,0,16.4-37.2,21-78.3c0,0-18.1-1.3-17.6-17.4c0.4-11.2,6.5-16.8,12.8-18.1
		c2.7-0.5,5.4-0.3,8,0.7c4.4,1.8,9.3,2.3,14,1.3C426.9,456.3,442.7,445.8,454.8,408.3 M454.3,405.8c-0.9,0.2-1.6,0.8-1.9,1.7
		c-11.7,36.4-26.6,46.5-37.1,48.5c-4.1,0.9-8.4,0.5-12.3-1l-0.2-0.1c-3-1.1-6.2-1.4-9.4-0.8c-6.9,1.4-14.5,7.4-14.9,20.5
		c-0.5,7.2,3.5,13.9,10,17c2.3,1.2,4.8,2.1,7.3,2.6c-4.9,39.3-20.3,74.8-20.5,75.2c-0.3,0.6-0.3,1.4,0,2c0.3,0.6,0.8,1.1,1.4,1.4
		c14.1,5.6,27,7.3,38.5,5c24.6-4.8,33.6-25.8,34-26.7c0.2-0.5,0.2-1,0.1-1.5l-1.9-9.6c6.8,1.8,13.8,2,20.7,0.6
		c6.6-1.4,13-3.9,18.7-7.5c11.4-7,18.5-19.8,20.5-37.1c1.7-15.1-0.5-32.5-6.4-49.1c-4.7-13.2-14-24.5-27.1-32.6
		c-5.7-3.6-12-6.4-18.5-8.3c-0.4-0.1-0.7-0.1-1.1,0L454.3,405.8z"/>
	<path d="M445.1,538.7c-0.1,0-0.3,0-0.4,0c-15.1-2-28.2-14.8-28.8-15.4c-0.5-0.5-0.6-1.3-0.2-1.8s1.3-0.6,1.8-0.2
		c0.1,0,0.1,0.1,0.1,0.1c0.1,0.1,13.1,12.8,27.3,14.7c0.7,0.1,1.2,0.7,1.1,1.4C446.1,538.1,445.7,538.5,445.1,538.7L445.1,538.7z"/>
	<path d="M397.6,484.6c-0.5,0.1-0.9-0.1-1.2-0.5c-4.3-5.3-5.8-10-4.5-13.9c1.9-5.6,9-7.4,9.3-7.4c0.7-0.1,1.4,0.3,1.5,1
		c0.1,0.6-0.3,1.3-0.9,1.5c-0.1,0-6,1.5-7.5,5.8c-1,3,0.3,6.9,4.1,11.5c0.4,0.5,0.4,1.3-0.2,1.8C398,484.5,397.8,484.5,397.6,484.6z
		"/>
	<path class="st7" d="M462.7,455.8c-17.7,4.9-42.4-1.6-46.1,5.1s-0.1,15.1,9.7,16.6s19.5,0.7,39.1-2s38.7-6.8,35.8-17.3
		S488.7,448.7,462.7,455.8z"/>
	<circle class="st2" cx="391.3" cy="492.4" r="5.8"/>
	<path d="M390.2,486.7c3.2-0.6,6.2,1.5,6.8,4.6c0.6,3.2-1.5,6.2-4.6,6.8c-3.2,0.6-6.2-1.5-6.8-4.6c-0.2-1.1-0.1-2.2,0.3-3.3
		C386.6,488.4,388.3,487.1,390.2,486.7 M389.7,484.2c-4.5,0.9-7.5,5.3-6.6,9.8c0.9,4.5,5.3,7.5,9.8,6.6c4.5-0.9,7.5-5.3,6.6-9.8
		c-0.5-2.8-2.5-5.1-5.2-6.2C392.9,484,391.3,483.9,389.7,484.2z"/>
	<circle cx="484.5" cy="464.7" r="3.3"/>
	<circle cx="438.5" cy="470.5" r="3.3"/>
	<path class="st5" d="M385,566.4c-0.3,0.1-0.6,0-0.9-0.2c-0.6-0.3-0.8-1.1-0.5-1.7c0,0,0,0,0,0c9.9-17,16.7-50.7,16.8-51.1
		c0.1-0.7,0.8-1.1,1.5-1c0.7,0.1,1.1,0.8,1,1.5c-0.3,1.4-7,34.5-17,51.8C385.7,566.1,385.4,566.3,385,566.4z"/>
	<path class="st0" d="M454.2,518.9h-0.1c-8.8-0.1-15.7-8.5-16-8.8c-0.5-0.6-0.4-1.6,0.2-2.1c0.6-0.5,1.6-0.4,2.1,0.2
		c0.1,0.1,6.3,7.7,13.7,7.7h0.1c3.7,0,7.1-1.9,10.2-5.6c0.5-0.7,1.4-0.8,2.1-0.3c0.7,0.5,0.8,1.4,0.3,2.1c0,0-0.1,0.1-0.1,0.1
		C463,516.7,458.8,518.9,454.2,518.9z"/>
	<circle class="st8" cx="319.4" cy="872.2" r="6.9"/>
	<circle class="st8" cx="307.5" cy="769.6" r="6.9"/>
	<circle class="st8" cx="451.7" cy="776.4" r="6.9"/>
	<circle class="st8" cx="416.9" cy="827.3" r="6.9"/>
	<circle class="st8" cx="534.1" cy="883.3" r="7.8"/>
	<circle class="st8" cx="601.8" cy="805.2" r="6.9"/>
	<circle class="st8" cx="552.6" cy="711.1" r="6.9"/>
	<circle class="st8" cx="646.7" cy="733.1" r="6.9"/>
	<circle class="st8" cx="570.1" cy="652.2" r="6.9"/>
	<circle class="st8" cx="650.7" cy="655.5" r="6.9"/>
	<circle class="st8" cx="456.8" cy="630.5" r="6.9"/>
	<circle class="st8" cx="697.3" cy="603.6" r="6.9"/>
	<circle class="st8" cx="765.9" cy="632.9" r="6.9"/>
	<circle class="st8" cx="708.3" cy="701.6" r="6.9"/>
	<circle class="st8" cx="719.9" cy="646" r="6.9"/>
	<circle class="st8" cx="345.6" cy="663.6" r="6.9"/>
	<path class="st0" d="M169.9,583.1c-4.7,0-9.4-0.2-14.1-0.7c-21.1-2.1-43.1-8.7-65.4-19.8C67.1,551,45.6,536,26.5,518.2
		c-0.8-0.8-0.8-2,0-2.8s2-0.8,2.8,0c18.8,17.5,40,32.3,63,43.8c34.2,17,85.6,31.8,136.6,5.9c1-0.5,2.2-0.1,2.7,0.9s0.1,2.2-0.9,2.7
		C211.9,578.2,191,583.2,169.9,583.1z"/>
	<path class="st0" d="M145.8,635c-9.7-0.1-19.5-1.1-29-3c-14.8-2.9-29.2-7.4-43.1-13.3c-1-0.5-1.5-1.7-1-2.7c0.5-1,1.7-1.5,2.7-1
		c0.7,0.3,74.1,33.1,115,3.6c0.9-0.7,2.1-0.5,2.8,0.3c0.7,0.9,0.5,2.1-0.3,2.8c0,0-0.1,0.1-0.1,0.1C180.7,630.6,164.8,635,145.8,635
		z"/>
	<path class="st0" d="M476.2,489.9c-0.6,0-1.2-0.4-1.4-0.9l-11-27.1c-0.3-0.8,0.1-1.6,0.8-2c0.8-0.3,1.6,0.1,2,0.8l0,0l11,27.1
		c0.3,0.8,0,1.6-0.8,1.9c0,0,0,0,0,0C476.6,489.8,476.4,489.9,476.2,489.9z"/>
	<path class="st2" d="M357,571.3c-56.3,49-172,174-172,208.1s23.6,40.3,23.6,40.3l-5.1,25.3l82.5,36.4l7.1-15.9
		c0,0,35.1,1.8,44.5-28.4s30.3-147.8,54.8-169.4"/>
	<path class="st0" d="M285.9,882.9c-0.2,0-0.4,0-0.6-0.1l-82.5-36.4c-0.6-0.3-1-1-0.9-1.7l4.9-24.1c-5.2-2-23.4-11.2-23.4-41.3
		c0-20.8,40.9-71.2,65.3-99.4c34.1-39.5,77.2-83.7,107.2-109.8c0.6-0.6,1.6-0.5,2.1,0.1s0.5,1.6-0.1,2.1
		c-29.9,26.1-72.9,70.1-106.9,109.5c-41.6,48.2-64.5,82.8-64.5,97.5c0,32.5,21.6,38.6,22.5,38.8c0.8,0.2,1.2,1,1.1,1.8l-4.9,24.2
		l80,35.3l6.5-14.6c0.3-0.6,0.8-0.9,1.5-0.9c1.4,0.1,34.1,1.3,43-27.4c2.4-7.7,5.6-21.3,9.3-37.1c10.9-46.4,27.4-116.6,46-133
		c0.6-0.6,1.6-0.5,2.1,0.1s0.5,1.6-0.1,2.1c-17.9,15.8-34.3,85.4-45.1,131.5c-3.7,15.8-6.9,29.5-9.3,37.3c-8.7,28-39,29.5-45,29.5
		l-6.7,15C287.1,882.6,286.5,883,285.9,882.9z"/>
	<path class="st6" d="M209.9,819.6c-1.3-0.4-2.6-0.9-3.8-1.6c20.6-2.7,67.7-2.9,86.7,45.9c-0.8,0-1.3,0-1.3,0l-6.9,15.4L205,844.1
		L209.9,819.6z"/>
	<path class="st1" d="M309.7,900.9c0,0,7.8-34-26-48.9s-69.9-18-92.1,0s-24.4,40.2-18,55s22.2,18,39.2,6.3c0,0,15.9,23.3,44.5,1.1
		c0,0,37,25.4,38.1-14.8L309.7,900.9z"/>
	<path d="M230.9,839.7c16.6,0,35,4.6,52.7,12.3c33.9,14.8,26,48.9,26,48.9l-14.4-1.2c-0.5,17.8-8,22.7-16.2,22.7
		c-10.4,0-21.9-7.9-21.9-7.9c-9.2,7.2-17.1,9.6-23.6,9.6c-13.6,0-20.9-10.7-20.9-10.7c-7,4.8-13.7,7.1-19.8,7.1
		c-8.6,0-15.7-4.7-19.4-13.4c-6.4-14.8-4.2-37,18-55C202.1,843.5,215.8,839.7,230.9,839.7 M230.9,836.9c-16.7,0-30.6,4.4-41.2,13
		s-17.7,19-20.6,30.1c-2.5,9.3-1.9,19.2,1.9,28.2c4.1,9.6,12.2,15.2,22,15.2c6.1,0,12.7-2.1,19.2-6.1c5.5,6.1,13.2,9.7,21.4,9.7
		c7.6,0,15.6-3,23.8-9c3.8,2.3,13,7.3,21.8,7.3c8,0,17.5-4,18.9-22.5l11.5,1h0.3c1.3,0,2.5-0.9,2.8-2.2c1.3-6.7,1.2-13.5-0.3-20.1
		c-2.2-10.1-8.8-23.8-27.4-32C266,841.1,247.3,836.8,230.9,836.9L230.9,836.9z"/>
	<path class="st0" d="M213.3,918.3c-0.6,0-1.2-0.4-1.4-1c-12-34.7,11.9-56.7,12.2-56.9c0.6-0.6,1.5-0.6,2.1,0s0.6,1.5,0,2.1
		c0,0-0.1,0.1-0.1,0.1c-0.2,0.2-22.6,21-11.4,53.7c0.3,0.8-0.1,1.6-0.9,1.9C213.7,918.3,213.5,918.3,213.3,918.3z"/>
	<path class="st0" d="M256.4,918.5c-0.6,0-1.2-0.4-1.4-1c-7.5-18.8,2-46.8,2.5-48c0.3-0.8,1.1-1.2,1.9-0.9c0.8,0.3,1.2,1.1,0.9,1.9
		c-0.1,0.3-9.6,28.1-2.5,45.9c0.3,0.8-0.1,1.6-0.8,1.9c0,0,0,0,0,0C256.7,918.5,256.5,918.5,256.4,918.5z"/>
	<path class="st0" d="M296.3,904.4c-0.2,0-0.3,0-0.5-0.1c-0.8-0.3-1.2-1.1-0.9-1.9c0-0.2,5.4-16.4-0.2-26.3
		c-0.4-0.7-0.2-1.6,0.5-2.1s1.6-0.2,2.1,0.5c0,0,0,0.1,0.1,0.1c6.3,11,0.7,28,0.5,28.7C297.5,904,296.9,904.4,296.3,904.4z"/>
	<circle class="st8" cx="332.8" cy="653.6" r="5.8"/>
	<circle class="st8" cx="318.9" cy="778.7" r="5.8"/>
	<circle class="st8" cx="223.7" cy="776.6" r="5.8"/>
	<path class="st5" d="M181.6,911.7c-1.3,0-2.4-0.8-2.9-2c-4.8-14.4-4.4-27.4,1.2-38.4c8.9-17.7,27.8-24,28.6-24.2
		c1.5-0.6,3.3,0.2,3.9,1.7c0.6,1.5-0.2,3.3-1.7,3.9c-0.1,0-0.2,0.1-0.3,0.1c-0.3,0.1-17.4,5.9-25.1,21.3c-4.8,9.6-5.1,20.9-0.8,33.8
		c0.5,1.6-0.3,3.3-1.9,3.8C182.2,911.6,181.9,911.7,181.6,911.7z"/>
	<path class="st5" d="M223.3,741.6c-0.5,0-1.1-0.1-1.5-0.4c-1.4-0.8-1.9-2.7-1.1-4.1c27.7-46.8,94.9-118.5,95.6-119.3
		c1.2-1.2,3.1-1.2,4.2-0.1c1.2,1.1,1.2,3,0.1,4.2c-0.7,0.7-67.5,72-94.8,118.2C225.3,741.1,224.4,741.6,223.3,741.6z"/>
	<path d="M491.2,442.5c-0.4,0-0.7-0.1-1-0.4c-0.1-0.1-11.5-10.4-18-3.9c-0.6,0.6-1.6,0.5-2.1-0.1c-0.5-0.6-0.5-1.5,0-2
		c8.6-8.6,21.6,3.3,22.2,3.8c0.6,0.6,0.6,1.5,0.1,2.1C492.1,442.3,491.7,442.5,491.2,442.5L491.2,442.5z"/>
	<path d="M424.6,451.6c-0.3,0-0.7-0.1-0.9-0.3c-0.7-0.5-0.8-1.4-0.3-2.1c3.7-4.8,7.7-7.5,12-8c2.9-0.4,5.9,0.3,8.4,2
		c0.7,0.5,0.8,1.5,0.3,2.1c-0.5,0.7-1.5,0.8-2.1,0.3l0,0c-0.3-0.3-7.6-5.6-16.1,5.5C425.5,451.4,425.1,451.6,424.6,451.6z"/>
	<path d="M783,572.8c8.4,3.2,14.4,10.8,17.6,18.9c4.1,10.5,3.6,22.2,2.2,33.2c-1.4,11-3.5,21.8-6.4,32.5
		c-2.8,10.7-6.4,21.1-10.5,31.4c-4.2,10.2-9,20.1-14.5,29.6c-0.7,1.2-1.4,2.3-2,3.5c-0.4,0.7-0.2,1.6,0.5,2.1
		c0.7,0.4,1.6,0.2,2.1-0.5c5.8-9.7,10.9-19.8,15.3-30.3c4.4-10.4,8.2-21.1,11.2-32c3-10.9,5.3-21.9,6.9-33.1
		c1.6-11.6,2.5-23.8-1.2-35.1c-2.9-8.9-8.7-17.3-17.1-21.7c-1.1-0.5-2.2-1-3.3-1.5c-0.8-0.2-1.6,0.2-1.8,1
		C781.8,571.6,782.3,572.5,783,572.8L783,572.8z"/>
	<path class="st9" d="M466.5,893c0,3.3-2.6,5.9-5.9,5.9c0,0,0,0,0,0h-12.3c-3.3,0-5.9-2.6-5.9-5.9c0,0,0,0,0,0l0,0
		c0-3.3,2.6-5.9,5.9-5.9c0,0,0,0,0,0h12.3C463.8,887.1,466.5,889.7,466.5,893L466.5,893z"/>
	<path class="st10" d="M460.6,887.1c3.3,0,5.9,2.6,5.9,5.9s-2.6,5.9-5.9,5.9c0,0,0,0,0,0h-12.3c-3.3,0-5.9-2.6-5.9-5.9
		s2.6-5.9,5.9-5.9c0,0,0,0,0,0H460.6 M460.6,884.1h-12.3c-4.9,0-8.9,4-8.9,8.9c0,4.9,4,8.9,8.9,8.9c0,0,0,0,0,0h12.3
		c4.9,0,8.9-4,8.9-8.9C469.5,888.1,465.5,884.1,460.6,884.1C460.6,884.1,460.6,884.1,460.6,884.1z"/>
	<path class="st9" d="M663.1,893c0,3.3-2.6,5.9-5.9,5.9h-12.3c-3.3,0-5.9-2.6-5.9-5.9c0,0,0,0,0,0l0,0c0-3.3,2.6-5.9,5.9-5.9h0h12.3
		C660.4,887.1,663.1,889.7,663.1,893L663.1,893z"/>
	<path class="st10" d="M657.2,887.1c3.3,0,5.9,2.6,5.9,5.9c0,3.3-2.6,5.9-5.9,5.9c0,0,0,0,0,0h-12.3c-3.3,0-5.9-2.7-5.9-5.9
		c0-3.3,2.6-5.9,5.9-5.9H657.2 M657.2,884.1h-12.3c-4.9,0-8.9,4-8.9,8.9c0,4.9,4,8.9,8.9,8.9h12.3c4.9,0,8.9-4,8.9-8.9
		C666.1,888.1,662.1,884.1,657.2,884.1C657.2,884.1,657.2,884.1,657.2,884.1z"/>
</g>
<g id="phone_2">
	<path class="st9" d="M673.3,564.2c39.6-34,74.8-72.7,104.8-115.4c7.7-10.8,13-30.5,7.6-41.6c-4.3-9-10.4-17.1-17.9-23.8
		c-3.5-3-8.7-1.6-11.1,2.4c-7.8,12.8-16,25.2-24.7,37.3c-2.7,3.8-1.5,8.3,2.1,11.3c6.4,5.3,13.5,15.6,1.3,30.5
		c-15.6,19.4-32.4,37.9-50.3,55.3c-12.9,12.2-24,6.7-30.1,1.3c-3.5-3-8.3-3.7-11.8-0.6c-11.2,9.8-22.8,19.2-34.7,28.1
		c-3.7,2.8-4.6,8.1-1.3,11.3c7.3,6.8,16,12.1,25.4,15.5C644.2,580,663.3,572.9,673.3,564.2z"/>
	<path class="st10" d="M763.5,381.9c1.6,0,3.1,0.6,4.3,1.6c7.5,6.7,13.6,14.8,17.9,23.8c5.4,11.1,0.1,30.8-7.6,41.6
		c-30.1,42.6-65.3,81.4-104.8,115.4c-7.9,6.9-21.6,12.8-32.7,12.8c-2.7,0-5.4-0.4-8-1.3c-9.4-3.4-18.1-8.7-25.4-15.5
		c-3.3-3.2-2.4-8.5,1.3-11.3c12-8.9,23.5-18.3,34.7-28.1c1.4-1.3,3.3-2,5.3-2c2.4,0.1,4.8,1,6.5,2.6c3.4,3,8.3,6,14.3,6
		c4.7,0,10.1-1.9,15.8-7.4c17.9-17.4,34.7-35.9,50.3-55.3c12.2-14.9,5.1-25.2-1.3-30.5c-3.5-2.9-4.8-7.5-2.1-11.3
		c8.7-12.1,16.9-24.5,24.7-37.3C758.1,383.4,760.7,381.9,763.5,381.9 M763.5,378.8L763.5,378.8c-3.8,0.1-7.4,2.1-9.3,5.4
		c-7.7,12.6-15.9,25.1-24.6,37.1c-3.5,4.8-2.4,11.1,2.6,15.3c8.9,7.3,9.2,16.1,0.8,26.3c-15.5,19.4-32.2,37.8-50,55.1
		c-4.5,4.3-9.2,6.5-13.7,6.5c-5.2,0-9.5-2.9-12.3-5.3c-2.3-2.1-5.4-3.3-8.5-3.4c-2.7,0-5.2,1-7.2,2.7c-11.1,9.8-22.8,19.2-34.6,28
		c-2.6,2-4.3,5-4.5,8.2c-0.2,2.9,0.9,5.6,3,7.6c7.7,7.1,16.7,12.6,26.5,16.2c2.9,1,5.9,1.5,9,1.5c11,0,25.6-5.7,34.6-13.5
		c39.7-34.2,75.1-73.1,105.3-115.9c8.5-11.8,13.7-32.6,7.8-44.6c-4.5-9.4-10.8-17.8-18.6-24.8C768,379.7,765.8,378.9,763.5,378.8
		L763.5,378.8z"/>
	<path class="st11" d="M710.4,492.7"/>
	<path class="st9" d="M674.3,564.2c39.6-34,74.8-72.7,104.8-115.4c7.7-10.8,13-30.5,7.6-41.6c-4.3-9-10.4-17.1-17.9-23.8
		c-3.5-3-8.7-1.6-11.1,2.4c-7.8,12.8-16,25.2-24.7,37.3c-2.7,3.8-1.5,8.3,2.1,11.3c6.4,5.3,13.5,15.6,1.3,30.5
		c-15.6,19.4-32.4,37.9-50.3,55.3c-12.9,12.2-24,6.7-30.1,1.3c-3.5-3-8.3-3.7-11.8-0.6c-11.2,9.8-22.8,19.2-34.7,28.1
		c-3.7,2.8-4.6,8.1-1.3,11.3c7.3,6.8,16,12.1,25.4,15.5C645.2,580,664.3,572.9,674.3,564.2z"/>
	<path class="st10" d="M764.5,381.9c1.6,0,3.1,0.6,4.3,1.6c7.5,6.7,13.6,14.8,17.9,23.8c5.4,11.1,0.1,30.8-7.6,41.6
		c-30.1,42.6-65.3,81.4-104.8,115.4c-7.9,6.9-21.6,12.8-32.7,12.8c-2.7,0-5.4-0.4-8-1.3c-9.4-3.4-18.1-8.7-25.4-15.5
		c-3.3-3.2-2.4-8.5,1.3-11.3c12-8.9,23.5-18.3,34.7-28.1c1.4-1.3,3.3-2,5.3-2c2.4,0.1,4.8,1,6.5,2.6c3.4,3,8.3,6,14.3,6
		c4.7,0,10.1-1.9,15.8-7.4c17.9-17.4,34.7-35.9,50.3-55.3c12.2-14.9,5.1-25.2-1.3-30.5c-3.5-2.9-4.8-7.5-2.1-11.3
		c8.7-12.1,16.9-24.5,24.7-37.3C759.1,383.4,761.7,381.9,764.5,381.9 M764.5,378.8L764.5,378.8c-3.8,0.1-7.4,2.1-9.3,5.4
		c-7.7,12.6-15.9,25.1-24.6,37.1c-3.5,4.8-2.4,11.1,2.6,15.3c8.9,7.3,9.2,16.1,0.8,26.3c-15.5,19.4-32.2,37.8-50,55.1
		c-4.5,4.3-9.2,6.5-13.7,6.5c-5.2,0-9.5-2.9-12.3-5.3c-2.3-2.1-5.4-3.3-8.5-3.4c-2.7,0-5.2,1-7.2,2.7c-11.1,9.8-22.8,19.2-34.6,28
		c-2.6,2-4.3,5-4.5,8.2c-0.2,2.9,0.9,5.6,3,7.6c7.7,7.1,16.7,12.6,26.5,16.2c2.9,1,5.9,1.5,9,1.5c11,0,25.6-5.7,34.6-13.5
		c39.7-34.2,75.1-73.1,105.3-115.9c8.5-11.8,13.7-32.6,7.8-44.6c-4.5-9.4-10.8-17.8-18.6-24.8C769,379.7,766.8,378.9,764.5,378.8
		L764.5,378.8z"/>
	<path class="st11" d="M711.4,492.7"/>
	<path class="st9" d="M675.3,564.2c39.6-34,74.8-72.7,104.8-115.4c7.7-10.8,13-30.5,7.6-41.6c-4.3-9-10.4-17.1-17.9-23.8
		c-3.5-3-8.7-1.6-11.1,2.4c-7.8,12.8-16,25.2-24.7,37.3c-2.7,3.8-1.5,8.3,2.1,11.3c6.4,5.3,13.5,15.6,1.3,30.5
		c-15.6,19.4-32.4,37.9-50.3,55.3c-12.9,12.2-24,6.7-30.1,1.3c-3.5-3-8.3-3.7-11.8-0.6c-11.2,9.8-22.8,19.2-34.7,28.1
		c-3.7,2.8-4.6,8.1-1.3,11.3c7.3,6.8,16,12.1,25.4,15.5C646.2,580,665.3,572.9,675.3,564.2z"/>
	<path class="st10" d="M765.5,381.9c1.6,0,3.1,0.6,4.3,1.6c7.5,6.7,13.6,14.8,17.9,23.8c5.4,11.1,0.1,30.8-7.6,41.6
		c-30.1,42.6-65.3,81.4-104.8,115.4c-7.9,6.9-21.6,12.8-32.7,12.8c-2.7,0-5.4-0.4-8-1.3c-9.4-3.4-18.1-8.7-25.4-15.5
		c-3.3-3.2-2.4-8.5,1.3-11.3c12-8.9,23.5-18.3,34.7-28.1c1.4-1.3,3.3-2,5.3-2c2.4,0.1,4.8,1,6.5,2.6c3.4,3,8.3,6,14.3,6
		c4.7,0,10.1-1.9,15.8-7.4c17.9-17.4,34.7-35.9,50.3-55.3c12.2-14.9,5.1-25.2-1.3-30.5c-3.5-2.9-4.8-7.5-2.1-11.3
		c8.7-12.1,16.9-24.5,24.7-37.3C760.1,383.4,762.7,381.9,765.5,381.9 M765.5,378.8L765.5,378.8c-3.8,0.1-7.4,2.1-9.3,5.4
		c-7.7,12.6-15.9,25.1-24.6,37.1c-3.5,4.8-2.4,11.1,2.6,15.3c8.9,7.3,9.2,16.1,0.8,26.3c-15.5,19.4-32.2,37.8-50,55.1
		c-4.5,4.3-9.2,6.5-13.7,6.5c-5.2,0-9.5-2.9-12.3-5.3c-2.3-2.1-5.4-3.3-8.5-3.4c-2.7,0-5.2,1-7.2,2.7c-11.1,9.8-22.8,19.2-34.6,28
		c-2.6,2-4.3,5-4.5,8.2c-0.2,2.9,0.9,5.6,3,7.6c7.7,7.1,16.7,12.6,26.5,16.2c2.9,1,5.9,1.5,9,1.5c11,0,25.6-5.7,34.6-13.5
		c39.7-34.2,75.1-73.1,105.3-115.9c8.5-11.8,13.7-32.6,7.8-44.6c-4.5-9.4-10.8-17.8-18.6-24.8C770,379.7,767.8,378.9,765.5,378.8
		L765.5,378.8z"/>
	<path class="st11" d="M712.4,492.7"/>
	<path class="st5" d="M643.9,570.9h-0.4c-10.5-0.1-20.5-4.1-28.2-11.3c-1.1-1.2-1-3.1,0.2-4.2c1.2-1.1,3-1,4.1,0.1
		c6.6,6,15.1,9.3,24,9.5h0.2c12.6,0,25.5-6.6,38.5-19.5c1.2-1.1,3.1-1.1,4.2,0.1c1.1,1.2,1.1,2.9,0,4.1
		C672.5,563.7,658.2,570.9,643.9,570.9z"/>
	<path d="M618.8,570.4c-10.3-3.6-23.1,0.6-28.3,10.3c-2.7,4.9-2.9,11,0.9,15.4c3.3,3.7,9,5.1,12.9,1.5c2.9-2.7,4.3-8.4,1-11.3
		c-1-0.7-2.1-1.3-3.3-1.6c-1.2-0.4-2.5-0.7-3.8-0.9c-2.5-0.4-5.1-0.3-7.6,0.1c-5,0.8-9.5,3.4-12.8,7.2c-3.3,4-5.1,9.1-5.1,14.3
		c-0.1,5.2,1.8,10.3,5.2,14.3c3.4,3.7,9.3,6.5,14,3.5c3.9-2.4,6-8.3,2.3-11.8c-3.5-3.3-9.1-1.7-12.5,0.9c-4.2,3.3-6.4,8.9-6.7,14
		c-0.6,11.2,7.9,20.8,19.2,21.6c2.8,0.2,5.6-0.7,7.8-2.5c1.9-1.7,2.8-4.2,2.4-6.7c-0.3-2.3-1.9-4.2-4.2-4.8
		c-2.1-0.4-4.2,0.2-5.9,1.5c-1.8,1.3-3.1,3.3-3.5,5.5c-0.3,2.6,0.3,5.1,1.7,7.3c1.5,2.2,3.3,4.2,5.5,5.9c2.2,1.9,4.5,3.6,7,5.1
		c4.6,2.7,10.5,3.7,14.6-0.5c3.2-3.3,3.9-9.2-0.9-11.4c-4.4-2-9.8,1-11.6,5.2c-1.1,2.8-1.4,5.8-1,8.8c0.3,3,0.7,6,1.4,9
		c1.2,5.6,4,11.2,9.7,13.3c4.5,1.8,9.6-0.4,11.4-5c0.1-0.2,0.2-0.5,0.3-0.7c1-3.5-1-7.1-4.5-8.1c-0.8-0.2-1.6-0.3-2.4-0.2
		c-4.7,0.3-8.6,3.9-9.2,8.6c-0.9,6,2.3,12.2,5.3,17.2c2.9,4.8,7,9.2,12.8,10.2c5,0.8,10.3-1.1,12.1-6.2c1.5-4.2-0.2-9.5-4.7-10.8
		c-4.8-1.4-9.6,2.7-11.1,7c-1.9,5.5,1.4,11.2,4.8,15.3c3.6,4.3,8.3,8.8,13.9,10.3c4.9,1.3,11,0.2,13.8-4.5c2.3-4,1.6-10-2.9-12.1
		s-10,0.5-12,4.7c-2.5,5.1-0.9,11.3,2.3,15.8c5.1,7.3,14.5,11,23.3,9.9c4.4-0.5,8.5-2.2,11.9-5c0.6-0.6,0.6-1.5,0-2.1
		c-7.7-7.5-22.5-4.4-25.4,6.4c-1.2,5.1,0,10.5,3.4,14.6c3.5,4.1,9.1,5.9,14.3,4.5c5.8-1.5,10.9-6.3,11.9-12.3c0.2-1.1-1-2.6-2.2-1.7
		c-7.7,5.7-11.9,15.1-11,24.7c0.5,4.6,2.2,10,6.7,12.2c4.1,2.1,9.7,1,11.3-3.7c1.2-4-0.6-8.3-4.2-10.4c-4.4-2.4-10.1-1.2-14,1.7
		c-6.9,5.4-9.3,14.8-5.6,22.7c4.3,8.8,16,12.2,24.5,7.9c0.6-0.3,0.9-1,0.7-1.7c-2.1-5.5-6.3-10-11.6-12.5
		c-5.5-2.6-11.8-2.8-17.4-0.7c-3.3,1.2-6.2,3.2-8.6,5.7c-1.3,1.4,0.8,3.5,2.1,2.1c7.3-8,19.6-8.5,27.6-1.2c2.2,2,3.9,4.6,5,7.4
		l0.7-1.7c-6.1,3.1-14.1,1.3-18.5-3.8s-4.1-13.3-0.2-18.7c2.1-3.1,5.5-5,9.2-5.4c3.6-0.3,7.1,1.6,7.6,5.4c0.3,1.4-0.2,2.8-1.1,3.9
		c-1.3,1.1-3.2,1.5-4.8,0.9c-4-1.1-5.7-5.6-6.3-9.3c-1.2-8.7,2.4-17.4,9.4-22.7l-2.2-1.7c-1.3,8.7-13,14.2-19.9,7.9
		c-3.2-2.9-4.8-7.2-4.3-11.5c0.5-4.1,3.4-7.6,7.3-9c4.5-1.6,9.8-1,13.3,2.5v-2.1c-5.4,4.5-13.1,5.2-19.7,3.1
		c-7-2.2-13.6-8.3-13.8-16.1c-0.1-3.9,2.3-7.9,6.5-8.1c3.8-0.2,5.6,3.6,4.6,6.9c-1.2,4-5.7,5.4-9.5,4.9c-4.7-0.6-8.5-3.9-11.7-7.2
		s-6.5-7.1-6.9-11.8c-0.3-3.6,2.1-7.6,5.8-8.3c3.5-0.7,5.4,2.7,5,5.8c-0.6,4-4.4,5.9-8.2,5.6c-4.6-0.4-8.1-3.7-10.6-7.3
		c-1.3-1.9-2.4-4-3.4-6.1c-1.2-2.3-2-4.8-2.5-7.4c-0.5-3.8,0.8-7.7,4.7-9c2.7-0.9,6.3,0.2,5.7,3.7c-0.4,1.7-1.5,3.2-3,4
		c-1.7,0.8-3.7,0.8-5.4,0c-4.5-1.9-6.4-6.7-7.3-11.1c-0.5-2.5-0.9-4.9-1.2-7.5c-0.4-2.4-0.3-4.8,0.3-7.2c0.5-1.8,1.7-3.4,3.3-4.3
		c1.4-0.8,3-1,4.6-0.5c3.6,1.5,1.5,5.9-0.8,7.5c-3.8,2.7-8.5,0.2-11.8-2c-3.5-2.4-7.5-5.3-9.7-9c-1.1-1.6-1.5-3.5-1.1-5.3
		c0.5-1.5,1.5-2.8,2.9-3.6c1.1-0.7,2.6-1,3.7-0.2c1.3,1.1,1.3,3.1,0.6,4.5c-2,4.2-7.8,3.5-11.4,2.3c-8.3-3-13.1-11.7-11.2-20.4
		c0.9-4,3.1-8,6.8-10c2.5-1.3,7.2-2,7.9,1.7c0.7,3.5-3,6.3-6.1,6.1c-4.3-0.3-7.7-4-9.5-7.7c-3.6-7.3-1.9-16.9,4.1-22.4
		c3-2.6,6.7-4.3,10.6-4.8c2-0.3,4.1-0.2,6.1,0.2c0.9,0.2,1.8,0.4,2.7,0.7c0.9,0.2,1.8,0.6,2.5,1.3c1.9,2.3-0.1,6.2-2.4,7.4
		c-3.6,1.9-7.7-1.3-9.1-4.5c-1.8-4.2,0.2-9.2,3-12.5c2.8-3.2,6.6-5.5,10.8-6.5c4-1,8.3-0.8,12.2,0.5
		C619.8,573.9,620.6,571,618.8,570.4L618.8,570.4z"/>
</g>
<g id="phone-2">
	<path class="st3" d="M674.5,836c-7.7-32.4-25.8-61.3-51.6-82.3l-8.1-6.6v69.3c9.9,18.9,29.5,30.7,50.8,30.7h11.6L674.5,836z"/>
	<path class="st10" d="M679,848.6h-13.5c-21.9,0-42-12.1-52.1-31.5l-0.2-0.3v-72.8l10.6,8.6c26.1,21.2,44.4,50.5,52.2,83.2
		L679,848.6z M616.2,816c9.7,18.2,28.7,29.6,49.3,29.6h9.7l-2.2-9.2c-7.6-32.1-25.6-60.7-51.1-81.5l-5.7-4.6L616.2,816z"/>
	<path class="st3" d="M491.6,746.4l-8.9,7.3c-25.8,21-43.9,49.9-51.6,82.3l-2.6,11.1H440c22,0,42-12.6,51.6-32.4L491.6,746.4z"/>
	<path class="st10" d="M440,848.6h-13.5l3.1-13c7.8-32.7,26.1-61.9,52.1-83.2l11.4-9.3V815l-0.1,0.3
		C483,835.6,462.5,848.5,440,848.6z M430.3,845.6h9.7c21.3-0.1,40.6-12.2,50.1-31.3v-64.8l-6.5,5.3c-25.5,20.8-43.5,49.5-51.1,81.5
		L430.3,845.6z"/>
	<path class="st9" d="M616.9,782.7v-53.2H488.6v53.2c0,31.2-25.3,56.5-56.5,56.5l0,0h-3.2c-1.7,0-3,1.3-3,3v41.2c0,1.7,1.3,3,3,3
		h247.7c1.7,0,3-1.3,3-3v-41.3c0-1.7-1.3-3-3-3h-3.2C642.2,839.2,616.9,813.9,616.9,782.7z"/>
	<path class="st10" d="M616.9,729.5v53.2c0,31.2,25.3,56.5,56.5,56.5h3.2c1.7,0,3,1.3,3,3v41.2c0,1.7-1.3,3-3,3H428.9
		c-1.7,0-3-1.3-3-3v-41.3c0-1.7,1.3-3,3-3h3.2c31.2,0,56.5-25.3,56.5-56.5l0,0v-53.2H616.9 M619.9,726.5H485.6v56.2
		c0,29.5-24,53.5-53.5,53.5h-3.2c-3.3,0-6,2.7-6,6v41.2c0,3.3,2.7,6,6,6h247.7c3.3,0,6-2.7,6-6v-41.3c0-3.3-2.7-6-6-6h-3.2
		c-29.5,0-53.5-24-53.5-53.5L619.9,726.5L619.9,726.5z"/>
	<path class="st5" d="M552.8,846.1c-25.8,0-46.8-20.9-46.8-46.8c0-25.8,20.9-46.8,46.8-46.8s46.8,20.9,46.8,46.8c0,0,0,0,0,0
		C599.5,825.1,578.6,846,552.8,846.1z"/>
	<path class="st12" d="M552.8,847.6c-26.7,0-48.3-21.6-48.3-48.2S526,751,552.7,751s48.3,21.6,48.3,48.2c0,0,0,0,0,0
		C601,825.9,579.4,847.5,552.8,847.6z M552.8,754c-25,0-45.3,20.2-45.3,45.2s20.2,45.3,45.2,45.3s45.3-20.2,45.3-45.2c0,0,0,0,0,0
		C598,774.3,577.7,754,552.8,754L552.8,754z"/>
	<path class="st3" d="M519.6,731.6c0,6.2-5,11.2-11.1,11.2c0,0,0,0,0,0l0,0c-6.2,0-11.2-5-11.2-11.1c0,0,0,0,0,0v-21.4
		c0-6.2,5-11.2,11.1-11.2c0,0,0,0,0,0l0,0c6.2,0,11.2,5,11.2,11.2c0,0,0,0,0,0L519.6,731.6z"/>
	<path class="st10" d="M508.4,744.2c-7,0-12.7-5.7-12.7-12.7v-21.4c-0.2-7,5.3-12.8,12.3-13c7-0.2,12.8,5.3,13,12.3
		c0,0.2,0,0.5,0,0.7v21.4C521.1,738.6,515.4,744.2,508.4,744.2z M508.4,700.5c-5.3,0-9.7,4.3-9.7,9.7v21.4c0.2,5.3,4.6,9.5,10,9.4
		c5.1-0.2,9.2-4.3,9.4-9.4v-21.4C518.1,704.8,513.8,700.5,508.4,700.5z"/>
	<path class="st3" d="M608.2,731.6c0,6.2-5,11.2-11.2,11.2l0,0c-6.2,0-11.2-5-11.2-11.1c0,0,0,0,0,0v-21.4c0-6.2,5-11.2,11.2-11.2
		c0,0,0,0,0,0l0,0c6.2,0,11.2,5,11.2,11.2V731.6z"/>
	<path class="st10" d="M597.1,744.2c-7,0-12.6-5.7-12.7-12.7v-21.4c0-7,5.7-12.7,12.7-12.7c7,0,12.7,5.7,12.7,12.7v21.4
		C609.7,738.6,604.1,744.2,597.1,744.2z M597.1,700.5c-5.3,0-9.7,4.3-9.7,9.7v21.4c0,5.3,4.3,9.7,9.7,9.7c5.3,0,9.7-4.3,9.7-9.7
		v-21.4C606.7,704.8,602.4,700.5,597.1,700.5z"/>
	<path class="st3" d="M558.7,797.8c0,3-2.4,5.4-5.3,5.4s-5.4-2.4-5.4-5.3s2.4-5.4,5.3-5.4h0C556.3,792.5,558.7,794.9,558.7,797.8z"
		/>
	<path class="st10" d="M553.3,804.7c-3.8,0-6.9-3.1-6.9-6.8c0-3.8,3.1-6.9,6.8-6.9c3.8,0,6.9,3.1,6.9,6.8c0,0,0,0,0,0
		C560.2,801.6,557.1,804.7,553.3,804.7z M553.3,794c-2.1,0-3.9,1.7-3.9,3.8s1.7,3.9,3.8,3.9s3.9-1.7,3.9-3.8c0,0,0,0,0,0
		C557.2,795.7,555.5,794,553.3,794L553.3,794z"/>
	<circle class="st3" cx="554.2" cy="769.8" r="8.7"/>
	<path class="st10" d="M554.2,780c-5.6,0-10.2-4.6-10.2-10.2s4.6-10.2,10.2-10.2c5.6,0,10.2,4.6,10.2,10.2c0,0,0,0,0,0
		C564.4,775.4,559.9,780,554.2,780z M554.2,762.6c-4,0-7.2,3.2-7.2,7.2c0,4,3.2,7.2,7.2,7.2c4,0,7.2-3.2,7.2-7.2c0,0,0,0,0,0
		C561.4,765.8,558.2,762.6,554.2,762.6C554.2,762.6,554.2,762.6,554.2,762.6L554.2,762.6z"/>
	<circle class="st3" cx="523.4" cy="797.5" r="8.7"/>
	<path class="st10" d="M523.4,807.7c-5.6,0-10.2-4.6-10.2-10.2c0-5.6,4.6-10.2,10.2-10.2c5.6,0,10.2,4.6,10.2,10.2
		S529,807.7,523.4,807.7L523.4,807.7z M523.4,790.3c-4,0-7.2,3.2-7.2,7.2c0,4,3.2,7.2,7.2,7.2c4,0,7.2-3.2,7.2-7.2
		C530.6,793.5,527.3,790.3,523.4,790.3L523.4,790.3z"/>
	<circle class="st3" cx="529.7" cy="818.8" r="8.7"/>
	<path class="st10" d="M529.7,829c-5.6,0-10.2-4.6-10.2-10.2c0-5.6,4.6-10.2,10.2-10.2c5.6,0,10.2,4.6,10.2,10.2
		C539.9,824.4,535.3,829,529.7,829z M529.7,811.6c-4,0-7.2,3.2-7.2,7.2c0,4,3.2,7.2,7.2,7.2c4,0,7.2-3.2,7.2-7.2
		C536.9,814.8,533.7,811.6,529.7,811.6L529.7,811.6z"/>
	<circle class="st3" cx="552.6" cy="829.9" r="8.7"/>
	<path class="st10" d="M552.6,840.1c-5.6,0-10.2-4.6-10.2-10.2s4.6-10.2,10.2-10.2c5.6,0,10.2,4.6,10.2,10.2
		C562.8,835.5,558.3,840.1,552.6,840.1z M552.6,822.7c-4,0-7.2,3.2-7.2,7.2s3.2,7.2,7.2,7.2c4,0,7.2-3.2,7.2-7.2c0,0,0,0,0,0
		C559.8,825.9,556.6,822.7,552.6,822.7z"/>
	<circle class="st3" cx="574.8" cy="820.4" r="8.7"/>
	<path class="st10" d="M574.8,830.6c-5.6,0-10.2-4.6-10.2-10.2c0-5.6,4.6-10.2,10.2-10.2c5.6,0,10.2,4.6,10.2,10.2
		C585,826,580.4,830.6,574.8,830.6z M574.8,813.2c-4,0-7.2,3.2-7.2,7.2c0,4,3.2,7.2,7.2,7.2c4,0,7.2-3.2,7.2-7.2
		C582,816.4,578.8,813.2,574.8,813.2L574.8,813.2z"/>
	<circle class="st3" cx="584.3" cy="799" r="8.7"/>
	<path class="st10" d="M584.3,809.2c-5.6,0-10.2-4.6-10.2-10.2c0-5.6,4.6-10.2,10.2-10.2c5.6,0,10.2,4.5,10.2,10.2
		C594.5,804.6,589.9,809.2,584.3,809.2C584.3,809.2,584.3,809.2,584.3,809.2z M584.3,791.8c-4,0-7.2,3.2-7.2,7.2s3.2,7.2,7.2,7.2
		s7.2-3.2,7.2-7.2c0,0,0,0,0,0C591.5,795.1,588.3,791.8,584.3,791.8z"/>
	<circle class="st3" cx="578" cy="778.5" r="8.7"/>
	<path class="st10" d="M578,788.7c-5.6,0-10.2-4.6-10.2-10.2c0-5.6,4.6-10.2,10.2-10.2c5.6,0,10.2,4.6,10.2,10.2
		C588.2,784.1,583.6,788.7,578,788.7z M578,771.3c-4,0-7.2,3.2-7.2,7.2c0,4,3.2,7.2,7.2,7.2c4,0,7.2-3.2,7.2-7.2
		C585.2,774.5,582,771.3,578,771.3L578,771.3z"/>
	<circle class="st3" cx="531.3" cy="776.1" r="8.7"/>
	<path class="st10" d="M531.3,786.3c-5.6,0-10.2-4.6-10.2-10.2c0-5.6,4.6-10.2,10.2-10.2c5.6,0,10.2,4.6,10.2,10.2
		S536.9,786.3,531.3,786.3L531.3,786.3z M531.3,768.9c-4,0-7.2,3.2-7.2,7.2c0,4,3.2,7.2,7.2,7.2c4,0,7.2-3.2,7.2-7.2
		C538.5,772.1,535.3,768.9,531.3,768.9L531.3,768.9z"/>
	<path class="st5" d="M601.5,832.5c-1.7,0-3-1.3-3-3c0-0.5,0.1-0.9,0.3-1.3c21.6-45.1-8.8-68.3-10.1-69.3c-1.3-1-1.6-2.9-0.6-4.2
		s2.9-1.6,4.2-0.6c6.5,5.3,11.6,12,15.1,19.7c5.4,11.8,9.2,31.2-3.1,57C603.7,831.8,602.7,832.5,601.5,832.5z"/>
	<path class="st5" d="M534,879h-99c-1.7,0-3-1.3-3-3s1.3-3,3-3h99c1.7,0,3,1.3,3,3S535.7,879,534,879z"/>
</g>
<g id="message-2">
	<path class="st9" d="M529.6,185.8c0-46,49.7-83.4,111.1-83.4s111.1,37.3,111.1,83.4s-49.7,83.4-111.1,83.4c-7.5,0-15-0.6-22.4-1.7
		L593.1,292l-5.9-33C552.9,244.7,529.6,217.3,529.6,185.8z"/>
	<path d="M640.7,102.5c61.4,0,111.1,37.3,111.1,83.4s-49.7,83.4-111.1,83.4c-7.5,0-15-0.6-22.4-1.7L593.1,292l-5.9-33
		c-34.3-14.2-57.6-41.6-57.6-73.1C529.6,139.9,579.4,102.5,640.7,102.5 M640.7,99.5c-30.3,0-58.8,8.9-80.3,25
		c-21.8,16.3-33.7,38.1-33.7,61.4c0,31.2,22.1,59.9,57.9,75.2l5.6,31.4c0.2,1.1,1,2,2,2.3c0.3,0.1,0.6,0.1,0.9,0.1
		c0.8,0,1.5-0.3,2.1-0.8l24.1-23.4c7.1,1,14.2,1.5,21.4,1.5c30.3,0,58.9-8.9,80.4-25c21.8-16.3,33.7-38.1,33.7-61.4
		s-12-45-33.7-61.4C699.5,108.4,671,99.5,640.7,99.5L640.7,99.5z"/>
	<path d="M698.9,180.7h-109c-0.8,0-1.5-0.7-1.5-1.5s0.7-1.5,1.5-1.5h109c0.8,0,1.5,0.7,1.5,1.5S699.7,180.7,698.9,180.7z"/>
	<path d="M658.9,208.9h-63.5c-0.8,0-1.5-0.7-1.5-1.5s0.7-1.5,1.5-1.5h63.5c0.8,0,1.5,0.7,1.5,1.5S659.7,208.9,658.9,208.9z"/>
	<path class="st5" d="M564.8,225.6c-1.2-1.3-2.4-2.6-3.5-3.9l-0.8-1c-0.1-0.2-0.3-0.3-0.4-0.5s0,0,0,0l-0.3-0.3
		c-0.5-0.7-1-1.4-1.5-2.1c-1.9-2.8-3.6-5.8-5.1-8.9l-0.5-1.1l-0.2-0.6c0,0-0.1-0.3,0-0.1s-0.1-0.2-0.1-0.2c-0.3-0.8-0.6-1.6-0.9-2.4
		c-0.6-1.6-1.1-3.1-1.5-4.8s-0.8-3.3-1.1-4.9c-0.1-0.4-0.1-0.8-0.2-1.2l-0.1-0.6c0-0.1,0-0.2,0-0.3c0-0.3,0,0.3,0-0.1
		c-0.1-0.8-0.2-1.6-0.3-2.5c-0.3-3.3-0.3-6.7,0.1-10c0-0.4,0.1-0.8,0.1-1.2c0-0.2,0-0.4,0.1-0.6c0,0.4,0-0.2,0-0.3
		c0.1-0.8,0.3-1.6,0.4-2.3c0.3-1.5,0.7-3.1,1.1-4.6s0.9-3.1,1.5-4.6c0.1-0.4,0.3-0.7,0.4-1.1l0.2-0.5c0-0.1,0.3-0.6,0.1-0.3
		c0.3-0.8,0.7-1.5,1-2.3c1.4-2.9,3-5.8,4.9-8.4c0.5-0.7,0.9-1.3,1.4-2l0.3-0.5c0-0.1,0.3-0.4,0.2-0.2c0.3-0.3,0.5-0.7,0.8-1
		c1-1.3,2.2-2.6,3.3-3.8c2.3-2.4,4.7-4.6,7.3-6.6l0.3-0.3l0.5-0.4l1.1-0.8c1-0.5,1.4-1.7,0.9-2.7c-0.5-1-1.7-1.4-2.7-0.9
		c-0.1,0-0.2,0.1-0.3,0.2c-5.8,4.1-10.9,9.1-15.2,14.8c-4.1,5.4-7.2,11.4-9.3,17.8c-2.1,6.4-3.1,13.2-2.8,20
		c0.3,7,1.8,13.8,4.5,20.3c2.8,6.7,6.7,12.9,11.6,18.3c0.6,0.7,1.2,1.3,1.8,2c0.8,0.8,2,0.8,2.8,0
		C565.6,227.7,565.6,226.4,564.8,225.6L564.8,225.6z"/>
	<path d="M678.2,138.4c-0.8,0-1.5-0.6-1.5-1.5s0.6-1.5,1.5-1.5c46.4-3.1,83.8-28.9,107.1-50c15.1-13.6,28.5-28.9,39.9-45.6
		c0.5-0.7,1.4-0.9,2.1-0.4c0.7,0.4,0.9,1.3,0.4,2c-11.6,16.9-25.1,32.4-40.4,46.2c-23.6,21.4-61.8,47.6-109,50.8H678.2z"/>
	<path d="M733.8,174.6c-2.7,0-5.5-0.1-8.4-0.4c-0.8-0.1-1.4-0.8-1.4-1.6c0.1-0.8,0.8-1.4,1.6-1.4l0,0c53,5.1,80.8-41.8,81-42.3
		c0.4-0.7,1.3-1,2-0.5s1,1.3,0.5,2c-5.7,9.1-12.8,17.1-21.1,23.9C776.7,163.9,758.3,174.6,733.8,174.6z"/>
</g>
<g id="hand">
	<path class="st1" d="M697.8,547.9c0,0,22.6,21.6,49.4,2.3s45.8-45.4,42.1-70.7s-19.8-37.1-34-39s-24,8.9-22.8,27.2
		c0,0-25.2,1.5-21.1,33.7c0,0-36.5,16.8-6,36L697.8,547.9z"/>
	<path d="M780.8,515.4c-7.6,12.8-19.5,24.8-33.6,34.8c-26.9,19.2-49.4-2.3-49.4-2.3l7.5-10.5c-13.4-8.5-13.8-16.5-10.1-22.8
		c4.7-8,16.1-13.2,16.1-13.2c-1.3-10.4,0.5-17.6,3.4-22.5c6.2-10.4,17.7-11.1,17.7-11.1c-0.5-7.5,0.8-13.8,3.6-18.4
		c3.9-6.6,10.8-9.9,19.2-8.8c14.3,1.9,30.4,13.7,34,39C791.1,491.5,787.7,503.8,780.8,515.4 M783,516.7c7.6-12.8,10.6-25.5,8.9-37.6
		s-6.5-22.4-13.8-29.7c-6-6.2-13.9-10.2-22.5-11.5c-9.3-1.2-17.2,2.4-21.7,10c-2.8,4.7-4.2,10.7-4.1,17.5c-7.2,1.4-13.5,5.7-17.3,12
		c-3.5,5.9-4.8,13.4-4,22.4c-3.5,1.9-11.6,6.7-15.6,13.4c-3.6,6.1-4.9,15.3,8.6,24.8l-6,8.4l-0.1,0.2c-0.6,1-0.4,2.3,0.4,3.2
		c4.5,4,9.8,7.1,15.6,9c8.8,2.9,22.3,4.2,37.1-6.4C763.6,541.7,775.4,529.4,783,516.7L783,516.7z"/>
	<path class="st0" d="M766.6,500.5c-0.7,0-1.3-0.5-1.5-1.2l0,0c-0.2-1-5.2-24.3-32.5-30c-0.8-0.2-1.3-1-1.2-1.8c0,0,0,0,0,0
		c0.2-0.8,1-1.3,1.8-1.2c0,0,0,0,0,0c29.3,6.1,34.8,32.1,34.9,32.4c0.2,0.8-0.4,1.6-1.2,1.8L766.6,500.5z"/>
	<path class="st0" d="M741.8,523.6c-0.4,0-0.9-0.2-1.1-0.5c-0.2-0.2-14.8-17.4-29.3-19.7c-0.8-0.1-1.4-0.9-1.3-1.7s0.9-1.4,1.7-1.3
		c15.6,2.5,30.5,20,31.2,20.7c0.5,0.6,0.5,1.6-0.2,2.1C742.5,523.4,742.1,523.6,741.8,523.6z"/>
	<path class="st5" d="M781.8,497.2c-0.2,0-0.4,0-0.7-0.1c-1.6-0.4-2.6-2-2.3-3.6l0,0c0-0.1,3.4-15.9-4.8-28.8
		c-5.1-8-13.6-13.3-25.4-15.9c-1.6-0.4-2.7-2-2.3-3.6c0.4-1.6,2-2.7,3.6-2.3c13.4,2.9,23.2,9.2,29.2,18.6c9.6,15,5.8,32.5,5.6,33.3
		C784.5,496.2,783.2,497.2,781.8,497.2z"/>
</g>
</svg>
