<?xml version="1.0" encoding="utf-8"?>
<!-- Generator: Adobe Illustrator 24.1.2, SVG Export Plug-In . SVG Version: 6.00 Build 0)  -->
<svg version="1.1" id="present_1_" xmlns="http://www.w3.org/2000/svg" xmlns:xlink="http://www.w3.org/1999/xlink" x="0px" y="0px"
	 viewBox="0 0 1000 1000" style="enable-background:new 0 0 1000 1000;" xml:space="preserve">
<style type="text/css">
	.st0{fill:#FFAD00;}
	.st1{fill:#E89D00;}
	.st2{fill:#FFCDB2;}
	.st3{fill:#FFC140;}
	.st4{fill:#D9CFFF;}
	.st5{fill:#FFFFFF;}
	.st6{fill:#6C32AD;}
	.st7{fill:#FFB49F;}
	.st8{fill:#58298C;}
</style>
<g id="hand">
	<path class="st0" d="M465.4,388.8c0,0-67.3,27.4-95.9,57.1S307,483.5,284,490.4c-34.2,10.3-45.6,51.4-35.4,51.4s16,27.4,45.6,26.3
		s38.8-17.1,62.8-18.3s65-49.1,65-49.1L465.4,388.8z"/>
	<path d="M465.4,388.8L465.4,388.8 M465.4,388.8l-43.4,111.8c0,0-41.1,47.9-65.1,49.1s-33.1,17.1-62.8,18.3h-1.8
		c-28.1,0-33.8-26.3-43.9-26.3c-10.3,0,1.1-41.1,35.4-51.4c23.1-6.9,57.1-14.8,85.6-44.5S465.4,388.8,465.4,388.8 M465.4,385.4h-0.2
		c-0.4,0-0.8,0.1-1.1,0.3c-3.7,1.5-68.5,28.2-97,57.8c-25.5,26.5-55.8,35.3-77.9,41.8c-2.1,0.6-4.2,1.2-6.2,1.8
		c-13.2,4.1-24.6,12.7-32.3,24.2c-6.4,9.4-10,20.2-9,27c0.8,5.1,4.1,6.9,6.9,6.9c2.2,0,5.1,3.5,8.3,7.1c6.9,8.1,16.4,19.2,35.6,19.2
		c0.6,0,1.3,0,1.9,0c16.4-0.6,27-5.7,36.4-10.2c8.1-3.9,15.8-7.5,26.4-8c25.1-1.2,65.8-48.3,67.5-50.3c0.3-0.3,0.5-0.6,0.6-1
		l43.3-111.7c0.2-0.4,0.3-0.9,0.3-1.4C468.9,387,467.3,385.5,465.4,385.4L465.4,385.4z M465.4,392.2L465.4,392.2z"/>
	<path class="st1" d="M417.1,412.1c-21.2,20-54.7,56.5-60.1,91.9c-4.3,27.9-6.2,40.7-7.2,46.5c2.4-0.4,4.8-0.7,7.2-0.8
		c23.1-1.1,62.1-45.7,64.9-48.9l41.5-111.2C447.6,396.4,432.2,403.9,417.1,412.1z"/>
	<path class="st2" d="M243.4,535.1c0,0-41.3-3.2-40.5,19.8s6.6,52,31.9,40s35.2-32.5,35.2-32.5S278,539.3,243.4,535.1z"/>
	<path d="M224,599.3c-3,0-5.9-0.8-8.4-2.3c-8.8-5.3-13.6-19.5-14.4-42.1c-0.3-4.9,1.6-9.6,5.1-12.9c11-10.6,36.1-8.8,37.2-8.7h0.1
		c12.9,1.6,21.7,5.9,26,12.9c3,5,3.7,11.1,2,16.7c0,0.1,0,0.1-0.1,0.2c-0.4,0.9-10.3,21.2-35.9,33.3C232,598.2,228,599.2,224,599.3z
		 M238.4,536.6c-7.7,0-22.5,1-29.7,7.9c-2.8,2.6-4.3,6.4-4.1,10.3c0.5,14.7,3.1,33.5,12.8,39.3c4.4,2.7,10,2.4,16.7-0.8
		c23.6-11.2,33.5-30.2,34.3-31.6c0.3-0.8,2.1-7.5-1.7-13.7c-3.8-6-11.6-9.8-23.4-11.2C243,536.7,241.1,536.6,238.4,536.6
		L238.4,536.6z"/>
	<circle class="st3" cx="295.3" cy="507.2" r="3.7"/>
	<circle class="st3" cx="295.3" cy="544.9" r="3.7"/>
	<circle class="st3" cx="341" cy="524.3" r="3.7"/>
	<circle class="st3" cx="360.4" cy="471.8" r="3.7"/>
</g>
<g id="present_2">
	<path class="st4" d="M543.7,541c0,0,34.9-28,139-3.5c0,0,9.2,95.6-5.1,132.4l-112.9-4C564.7,666,538,584.4,543.7,541z"/>
	<path d="M606,527.5c19.8,0,45.1,2.6,76.8,10c0,0,9.2,95.6-5.1,132.4L564.7,666c0,0-26.7-81.6-21-125
		C543.7,541,560.6,527.4,606,527.5 M605.9,524L605.9,524c-46,0-63.6,13.7-64.4,14.3c-0.7,0.6-1.1,1.4-1.3,2.2
		c-5.7,43.7,20,123.1,21.1,126.5c0.5,1.4,1.7,2.3,3.1,2.4l112.9,3.9h0.1c1.4,0,2.7-0.9,3.2-2.2c14.5-37.2,5.7-130.1,5.3-134
		c-0.1-1.5-1.2-2.7-2.6-3C654.9,527.4,628.8,524,605.9,524L605.9,524z"/>
	<path class="st4" d="M614.9,526.1c0,0-17.3,60.4,5.5,141.9"/>
	<path d="M620.3,669.7c-0.8,0-1.4-0.5-1.7-1.3c-22.6-81-5.6-142.2-5.5-142.8c0.3-0.9,1.2-1.4,2.1-1.2s1.4,1.2,1.2,2.1l0,0
		c-0.2,0.6-16.8,60.9,5.5,141c0.2,0.9-0.3,1.9-1.2,2.1C620.6,669.7,620.5,669.7,620.3,669.7z"/>
	<path d="M549.3,608.8c-0.9,0-1.7-0.7-1.7-1.7c0-0.7,0.4-1.3,1.1-1.6c0.8-0.3,76.1-31.4,140-0.1c0.8,0.5,1.1,1.5,0.6,2.4
		c-0.4,0.7-1.3,1-2.1,0.7c-62.4-30.6-136.4-0.1-137.1,0.2C549.8,608.8,549.6,608.8,549.3,608.8z"/>
	<path d="M604.9,524c-7.6-4.1-15.1-8.6-21.2-14.7c-5.7-5.7-10-13.1-10.9-21.3c-0.7-7.2,1.4-16.1,8.5-19.4c1.5-0.7,3.1-0.9,4.7-0.7
		c1.9,0.4,3.6,1.2,5,2.5c3.3,2.8,4.9,6.9,6.2,10.9c3.2,9.5,6.1,19.1,8.8,28.8c0.3,1.2,0.7,2.4,1,3.6c0.3,0.9,1.2,1.4,2.2,1.1
		c0.7-0.2,1.2-0.8,1.2-1.6l0.7-14.1c0.2-4.6,0.3-9.2,0.8-13.8c0.3-4,1.4-7.9,3.3-11.4c1.6-2.9,4.2-5.7,7.2-6.9
		c2.9-1.2,6.1-1.1,8.8,0.3c2.7,1.6,4.4,4.5,4.3,7.6c-0.1,3.5-1,7-2.7,10.1c-1.8,3.7-3.9,7.2-6.1,10.6c-4.5,6.8-9.8,13.1-15.8,18.7
		c-0.8,0.7-1.5,1.4-2.3,2.1l2.4,2.4c4.3-4.9,9.4-9.1,15-12.4c2.7-1.6,5.5-3,8.5-4.1c2.7-1,5.8-1.7,8.5-0.8c0.6,0.2,1.1,0.5,1.6,0.8
		c0.2,0.1,0.4,0.3,0.5,0.4l0.3,0.3c0,0,0.3,0.4,0.2,0.2c0.2,0.2,0.3,0.5,0.5,0.7c0.1,0.1,0.2,0.3,0.2,0.5s0.1,0.3,0,0.1
		c0.2,0.6,0.4,1.2,0.5,1.8c0-0.3,0,0.1,0,0.2v0.4c0,0.3,0,0.6,0,0.9c0,0.1,0,0.2,0,0.4s-0.1,0.6,0,0.3c-0.1,0.4-0.1,0.7-0.2,1.1
		c-0.3,1.1-0.7,2.2-1.3,3.2c-0.6,1-1.5,1.9-2.4,2.6c-1.2,0.9-2.5,1.6-3.9,2.1c-2.9,1-5.9,1.7-8.9,2c-8.6,1.1-17.3,2-25.9,3
		c-0.9,0-1.7,0.8-1.7,1.7c0,0.9,0.8,1.7,1.7,1.7c8.3-1,16.7-1.9,25-2.9c6.4-0.7,14-1.8,18.2-7.2c3.5-4.4,4.5-12-0.4-15.8
		c-5.8-4.5-13.8-1-19.5,1.9c-7.1,3.6-13.5,8.6-18.8,14.6c-0.7,0.7-0.7,1.8,0,2.4s1.8,0.7,2.4,0c6.6-5.9,12.4-12.5,17.4-19.8
		c2.5-3.6,4.7-7.3,6.7-11.1c2-3.6,3.2-7.5,3.7-11.5c0.3-3.9-0.8-8-3.9-10.6c-3-2.5-6.9-3.5-10.7-2.9c-8.4,1.2-13.4,9.5-15.1,17.1
		c-0.9,4.7-1.4,9.5-1.5,14.3l-0.8,15.1l-0.2,3.7l3.4-0.5c-2.8-10.3-5.8-20.5-9.2-30.6c-1.5-4.6-3.1-9.3-6.4-13
		c-3-3.4-7.4-5.5-12-4.7c-4.2,0.7-7.6,3.7-9.8,7.1c-2.3,3.7-3.6,7.9-3.7,12.3c-0.4,9,3.4,17.7,9.1,24.5c5.9,7.1,13.8,12.3,21.8,16.8
		c1,0.5,2,1.1,3,1.6C605.2,527.9,606.9,525,604.9,524L604.9,524z"/>
	<path d="M611,520.7c-7.3,1.6-13.9,5.5-18.9,11.1c-8.5,9.7-10.9,23.3-6.5,35.4c0.3,0.7,1.4,0.4,1.1-0.3c-2.8-7.6-2.9-15.9-0.2-23.5
		c4-10.9,13.4-19.1,24.8-21.6C612,521.6,611.7,520.5,611,520.7L611,520.7z"/>
	<path class="st0" d="M593.8,557.1c0,0,30.6-24.5,121.7-3.1c0,0,8,83.7-4.5,115.9l-98.8-3.5C612.1,666.5,588.8,595.1,593.8,557.1z"
		/>
	<path d="M648.2,545.3c17.4,0,39.5,2.3,67.2,8.8c0,0,8,83.7-4.5,115.9l-98.8-3.5c0,0-23.3-71.4-18.3-109.4
		C593.8,557.1,608.6,545.3,648.2,545.3 M648.2,541.8L648.2,541.8c-40.4,0-56,12.1-56.6,12.6c-0.7,0.6-1.1,1.4-1.3,2.2
		c-5,38.3,17.5,107.9,18.5,110.9c0.4,1.4,1.7,2.4,3.1,2.4l98.8,3.4h0.1c1.4,0,2.7-0.9,3.2-2.2c12.7-32.6,5-114,4.7-117.5
		c-0.1-1.5-1.2-2.7-2.6-3C691.2,544.9,668.3,541.9,648.2,541.8L648.2,541.8z"/>
	<path d="M660.8,669.9c-0.8,0-1.4-0.5-1.7-1.3c-19.8-71-4.9-124.6-4.8-125.1c0.3-0.9,1.2-1.4,2.1-1.2s1.4,1.2,1.2,2.1l0,0
		c-0.1,0.5-14.7,53.3,4.8,123.3c0.2,0.9-0.3,1.9-1.2,2.1C661.1,669.9,661,669.9,660.8,669.9z"/>
	<path d="M598.7,616.6c-0.9,0-1.7-0.8-1.7-1.7c0-0.7,0.4-1.3,1.1-1.6c0.7-0.3,66.7-27.5,122.7-0.1c0.8,0.5,1.1,1.5,0.6,2.4
		c-0.4,0.7-1.3,1-2.1,0.7c-54.5-26.7-119.2-0.1-119.8,0.2C599.1,616.6,598.9,616.6,598.7,616.6z"/>
	<path d="M658.8,542c-6.6-3.6-13.2-7.5-18.6-12.9c-5-5-8.7-11.5-9.4-18.6c-0.6-6.2,1.3-13.9,7.5-16.6c1.3-0.6,2.7-0.7,4.1-0.5
		c1.5,0.3,2.9,1,4,2.1c2.8,2.5,4.2,6.1,5.4,9.6c3.2,9.3,6,18.8,8.5,28.3c0.3,0.9,1.2,1.4,2.1,1.2c0.7-0.2,1.2-0.9,1.2-1.6l0.6-12.5
		c0.2-4,0.3-8.1,0.8-12.1c0.7-6,3.1-13.2,9-15.6c2.5-1.1,5.3-1,7.7,0.3c2.3,1.4,3.7,3.9,3.6,6.6c-0.1,3.1-1,6.1-2.5,8.8
		c-1.6,3.1-3.4,6.2-5.3,9.1c-4.4,6.6-9.7,12.7-15.7,18l2.4,2.4c3.7-4.3,8.1-7.9,13-10.8c2.4-1.4,4.9-2.7,7.5-3.6
		c2.3-0.8,4.9-1.5,7.3-0.7c0.5,0.2,1,0.4,1.4,0.7c0,0,0.3,0.3,0.4,0.4l0.2,0.3l0.2,0.2c-0.1-0.1-0.1-0.1,0,0c0.5,0.7,0.9,1.5,1,2.4
		c0.2,2-0.3,3.9-1.4,5.5c-0.5,0.8-1.2,1.6-2,2.2c-1.1,0.8-2.2,1.4-3.5,1.9c-2.6,0.9-5.2,1.4-7.9,1.7c-7.5,0.9-15,1.7-22.4,2.6
		c-0.9,0-1.7,0.8-1.7,1.7c0,0.9,0.8,1.7,1.7,1.7c7.2-0.8,14.5-1.7,21.7-2.5c5.8-0.7,12.6-1.7,16.4-6.7c3-3.9,3.7-10.4-0.4-13.8
		c-5.1-4.2-12.3-1.1-17.4,1.5c-6.4,3.2-12,7.6-16.7,12.9c-0.7,0.7-0.7,1.8,0,2.4s1.8,0.7,2.4,0c5.8-5.2,10.9-11,15.3-17.4
		c2.2-3.1,4.1-6.4,5.9-9.7c1.7-3.1,2.8-6.6,3.2-10.2c0.4-3.5-0.9-7-3.5-9.4c-2.7-2.2-6.2-3.1-9.6-2.5c-7.3,1.1-11.7,8.2-13.2,14.9
		c-1,4.6-1.1,9.5-1.4,14.2l-0.8,15.1l3.4-0.5c-2.5-9.1-5.2-18.1-8.1-27c-1.3-4-2.7-8.1-5.5-11.3c-2.6-3.1-6.6-4.7-10.6-4.2
		c-3.7,0.5-6.7,3.1-8.8,6.1c-2.1,3.2-3.3,7-3.4,10.9c-0.4,7.9,2.9,15.7,7.9,21.7c5.2,6.3,12.1,10.9,19.2,14.8c0.9,0.5,1.8,1,2.7,1.5
		C659,545.9,660.8,543,658.8,542L658.8,542z"/>
	<path d="M660,547.1c13.1,6.8,28.1,11,42.9,10.3c6.5-0.2,12.9-1.7,18.8-4.4c5.4-2.5,10.1-6.3,13.7-11c4-5.3,6.5-11.7,7.1-18.3
		c0-0.9-0.8-1.7-1.7-1.7c-0.9,0-1.7,0.8-1.7,1.7c-0.3,2.7-0.9,5.4-1.9,8c-0.4,1.2-1,2.4-1.6,3.5c-0.6,1.2-1.3,2.4-2.1,3.5
		c-3.1,4.4-7.2,8-11.9,10.4c-5.2,2.6-10.9,4.2-16.7,4.6c-6.7,0.5-13.4,0-19.9-1.4c-8.1-1.7-15.9-4.5-23.2-8.3
		c-0.8-0.4-1.8-0.2-2.3,0.6C658.9,545.5,659.2,546.6,660,547.1L660,547.1z"/>
	<path class="st5" d="M617.2,651.9c-1,0-2-0.6-2.5-1.4c-18.5-32.4-12-84-11.8-86.2c0.2-1.6,1.5-2.7,3.1-2.6s2.7,1.5,2.6,3.1
		c0,0.1,0,0.1,0,0.2c-0.1,0.5-6.5,51.9,11.1,82.7c0.8,1.4,0.3,3.1-1,3.9c0,0,0,0,0,0C618.2,651.7,617.7,651.9,617.2,651.9z"/>
	<path class="st4" d="M764.5,522.9c0,0-13.6,11.5-21.3,7.5s-8.6-15.5,6-24.1l14.6-8.6l12.5,14.6L764.5,522.9z"/>
	<path d="M763.8,497.7l12.5,14.6l-11.7,10.5c0,0-10,8.4-17.7,8.4c-1.3,0-2.6-0.3-3.7-0.8c-7.7-3.9-8.6-15.5,6-24.1L763.8,497.7
		 M763.8,494.3c-0.6,0-1.2,0.2-1.7,0.5l-14.6,8.6c-8.6,5-13.4,11.9-13.2,18.7c0.1,4.9,3,9.3,7.3,11.4c1.6,0.8,3.4,1.2,5.3,1.2
		c8.7,0,18.7-8.2,19.8-9.2l0.1-0.1l11.7-10.5c1.4-1.2,1.5-3.4,0.3-4.8l-12.5-14.6C765.7,494.8,764.8,494.3,763.8,494.3L763.8,494.3z
		"/>
	<path d="M769.6,537.1c13.1-7.9,24.6-18.1,34-30.2c2.7-3.4,5.1-6.9,7.5-10.6c1.2-1.9-1.8-3.6-3-1.7c-7.9,12.6-18,23.6-29.9,32.6
		c-3.3,2.5-6.8,4.8-10.4,7C765.9,535.3,767.6,538.3,769.6,537.1L769.6,537.1z"/>
</g>
<g>
	<circle class="st6" cx="148" cy="860.9" r="76.3"/>
	<path d="M148,784.6c42.1,0,76.3,34.2,76.3,76.3s-34.2,76.3-76.3,76.3S71.7,903,71.7,860.9l0,0C71.7,818.7,105.9,784.6,148,784.6
		 M148,781.2c-44,0-79.7,35.7-79.7,79.7c0,44,35.7,79.7,79.7,79.7s79.7-35.7,79.7-79.7c0,0,0,0,0,0C227.7,816.9,192,781.2,148,781.2
		L148,781.2z"/>
	
		<ellipse transform="matrix(0.9985 -5.530038e-02 5.530038e-02 0.9985 -47.1969 9.4962)" class="st4" cx="148" cy="857.6" rx="48.1" ry="48.1"/>
	<path d="M148,809.5c26.6,0,48.1,21.5,48.1,48.1c0,26.6-21.5,48.1-48.1,48.1s-48.1-21.5-48.1-48.1l0,0
		C99.9,831,121.4,809.5,148,809.5 M148,806c-28.5,0-51.5,23.1-51.5,51.5c0,28.5,23.1,51.5,51.5,51.5s51.5-23.1,51.5-51.5
		c0,0,0,0,0,0C199.5,829.1,176.5,806,148,806L148,806z"/>
	<circle class="st5" cx="148.8" cy="853.4" r="20.7"/>
	<path d="M148.8,832.7c11.5,0,20.7,9.3,20.7,20.7c0,11.5-9.3,20.7-20.7,20.7s-20.7-9.3-20.7-20.7c0,0,0,0,0,0
		C128.1,842,137.4,832.7,148.8,832.7C148.8,832.7,148.8,832.7,148.8,832.7 M148.8,829.3c-13.3,0-24.2,10.8-24.1,24.2
		c0,13.3,10.8,24.2,24.2,24.1c13.3,0,24.1-10.8,24.1-24.2C173,840.1,162.2,829.3,148.8,829.3L148.8,829.3z"/>
	<circle class="st6" cx="562.7" cy="860.9" r="76.3"/>
	<path d="M562.7,784.6c42.1,0,76.3,34.2,76.3,76.3s-34.2,76.3-76.3,76.3s-76.3-34.2-76.3-76.3l0,0
		C486.4,818.7,520.5,784.6,562.7,784.6 M562.7,781.2c-44,0-79.7,35.7-79.7,79.7s35.7,79.7,79.7,79.7s79.7-35.7,79.7-79.7v0
		C642.3,816.9,606.7,781.2,562.7,781.2z"/>
	<circle class="st4" cx="562.7" cy="857.6" r="48.1"/>
	<path d="M562.7,809.5c26.6,0,48.1,21.5,48.1,48.1s-21.5,48.1-48.1,48.1s-48.1-21.5-48.1-48.1v0C514.6,831,536.1,809.5,562.7,809.5
		 M562.7,806c-28.5,0-51.5,23.1-51.5,51.5s23.1,51.5,51.5,51.5s51.5-23.1,51.5-51.5c0,0,0,0,0,0C614.2,829.1,591.1,806,562.7,806
		L562.7,806z"/>
	<circle class="st5" cx="563.5" cy="853.4" r="20.7"/>
	<path class="st4" d="M232.6,590.5c-5,34.8-26.5,69.7-48.1,91.2s-26.5,68-23.2,101.2s16.6,71.3,16.6,71.3h512.5
		c0,0-8.3-107.8-63-144.3s-147.6-39.8-147.6-39.8L376.9,695c0,0,46.4,63,29.9,97.9s-131,29.9-136-5s-3.3-205.7-3.3-205.7
		L232.6,590.5z"/>
	<path d="M267.4,578.8c-0.3,0-0.5,0-0.8,0.1l-34.8,8.3c-1.4,0.3-2.4,1.4-2.6,2.8c-5.2,36.3-28.6,70.8-47.1,89.3
		c-21.7,21.7-27.8,67.9-24.2,103.9c3.3,33.2,16.2,70.5,16.8,72.1c0.5,1.4,1.8,2.3,3.2,2.3h512.5c1.9,0,3.4-1.5,3.4-3.4
		c0-0.1,0-0.2,0-0.2c-2-20-5.7-39.8-11.1-59.1c-5.3-18.5-11.8-34.9-19.4-48.6c-9.6-17.3-21.1-30.5-34-39.1
		c-28.8-19.2-67.9-29.1-95.7-34.1c-17.8-3.2-35.7-5.3-53.8-6.3h-0.1c-0.3,0-0.5,0-0.8,0.1l-102.8,24.9c-1.1,0.3-2,1.1-2.4,2.2
		c-0.4,1.1-0.2,2.3,0.5,3.2c0.5,0.6,45,61.8,29.5,94.4c-6.3,13.3-30.9,21.8-62.6,21.8c-36.1,0-64.9-11.1-67-25.8
		c-4.9-34.2-3.3-203.5-3.3-205.2C270.9,580.4,269.3,578.8,267.4,578.8C267.4,578.8,267.4,578.8,267.4,578.8L267.4,578.8z
		 M267.4,582.2c0,0-1.7,170.8,3.3,205.7c2.7,18.7,36.7,28.7,70.3,28.7c29.1,0,58-7.6,65.7-23.8c16.6-34.9-29.9-97.9-29.9-97.9
		l102.8-24.9c0,0,92.9,3.3,147.6,39.8s63,144.3,63,144.3H177.8c0,0-13.3-38.2-16.6-71.3s1.7-79.6,23.2-101.2s43.1-56.4,48.1-91.2
		L267.4,582.2"/>
	<path d="M563.5,832.7c11.5,0,20.7,9.3,20.8,20.7c0,11.5-9.3,20.7-20.7,20.8c-11.5,0-20.7-9.3-20.8-20.7c0,0,0,0,0,0
		C542.8,842,552,832.7,563.5,832.7 M563.5,829.3c-13.3,0-24.2,10.8-24.2,24.2s10.8,24.2,24.2,24.2s24.2-10.8,24.2-24.2c0,0,0,0,0,0
		C587.6,840.1,576.8,829.3,563.5,829.3z"/>
	<polygon class="st4" points="199.4,602.1 267.4,597.1 267.4,554 202.7,545.7 	"/>
	<ellipse class="st0" cx="201.1" cy="573.9" rx="13.3" ry="28.2"/>
	<path class="st1" d="M355.3,700H722c7.4,0,13.3-5.1,13.3-11.4v-87.3c0-4.1-3.9-7.5-8.7-7.5l0,0c-4.8,0-8.7,3.3-8.7,7.5v63.9H564.7
		v-12.9c0-4.8-4.5-8.7-10.2-8.7H372.8L355.3,700z"/>
	<path d="M146.3,761.4c49.5,0,89.6,40.1,89.6,89.6l0,0c0,1.1-0.1,2.2-0.1,3.3h-179c0-1.1-0.1-2.2-0.1-3.3
		C56.7,801.5,96.8,761.4,146.3,761.4L146.3,761.4 M146.3,757.9c-51.3,0-93,41.7-93,93c0,1.1,0,2.2,0.1,3.2v0.3
		c0.1,1.8,1.6,3.3,3.4,3.3h179c1.8,0,3.4-1.5,3.4-3.3v-0.3c0-1,0.1-2.1,0.1-3.2C239.2,799.6,197.6,758,146.3,757.9z"/>
	<path class="st4" d="M688.2,854.2c0.4-3.3,0.6-6.7,0.6-10c0-59.5-56.8-107.8-126.9-107.8s-126.9,48.3-126.9,107.9
		c0,3.3,0.2,6.7,0.6,10L688.2,854.2z"/>
	<path class="st6" d="M250.8,562.3h66.4c3.7,0,6.6,3,6.6,6.6v0c0,3.7-3,6.6-6.6,6.6h-66.4c-3.7,0-6.6-3-6.6-6.6v0
		C244.2,565.3,247.2,562.3,250.8,562.3z"/>
	<path class="st5" d="M656,790c-0.7,0-1.4-0.3-1.9-0.8c-33.9-31.1-73-43.2-116.2-36c-32.3,5.4-54.7,20.1-55,20.3
		c-1.4,0.8-3.1,0.4-3.9-1c-0.8-1.3-0.4-2.9,0.8-3.8c1-0.6,23.7-15.5,57.2-21.1c31-5.2,77.1-2.9,121,37.4c1.1,1.1,1.2,2.8,0.2,4
		C657.6,789.6,656.8,790,656,790z"/>
	<path class="st5" d="M200.7,598.7c-0.9,0-1.7-0.4-2.3-1.1c-17.1-22.6-0.2-45.9,0-46.2c1-1.2,2.8-1.4,4-0.4c1.1,0.9,1.4,2.6,0.6,3.8
		c-0.6,0.8-14.5,20.2,0,39.3c0.9,1.3,0.7,3-0.6,4C201.9,598.5,201.3,598.7,200.7,598.7L200.7,598.7z"/>
	<path d="M173.9,569.7h-18.3c-0.6,0-1.1-0.5-1.1-1.1s0.5-1.1,1.1-1.1h18.3c0.6,0,1.1,0.5,1.1,1.1S174.5,569.7,173.9,569.7
		L173.9,569.7z"/>
	<path d="M160.2,597.1c-0.6,0-1.2-0.5-1.2-1.1c0-0.5,0.3-0.9,0.7-1.1l17.1-8c0.6-0.3,1.3,0,1.5,0.5c0.3,0.6,0,1.3-0.5,1.5l-17.1,8
		C160.5,597,160.3,597.1,160.2,597.1z"/>
	<path d="M317.2,562.3c3.7,0.1,6.5,3.2,6.4,6.9c-0.1,3.5-2.9,6.2-6.4,6.4h-66.4c-3.7-0.1-6.5-3.2-6.4-6.9c0.1-3.5,2.9-6.2,6.4-6.4
		H317.2 M317.2,558.9h-66.4c-5.6,0.2-9.9,4.8-9.7,10.4c0.2,5.3,4.4,9.6,9.7,9.7h66.4c5.6,0.2,10.2-4.2,10.4-9.7
		c0.2-5.6-4.2-10.2-9.7-10.4C317.6,558.9,317.4,558.9,317.2,558.9z"/>
	<path class="st5" d="M203,793.4c-0.6,0-1.2-0.2-1.7-0.5c-23.9-17.5-49.2-22.8-75.2-15.8c-11.6,3.1-22.5,8.4-32,15.7
		c-1.2,1-3,0.9-4-0.3c-1-1.2-0.9-3,0.3-4c10.1-7.9,21.8-13.6,34.2-16.8c19.1-5.1,48.5-6.3,80,16.7c1.3,0.9,1.6,2.7,0.6,4
		c0,0,0,0,0,0C204.7,792.9,203.9,793.4,203,793.4z"/>
	<path d="M561.8,736.5c70.1,0,126.9,48.3,126.9,107.8c0,3.3-0.2,6.7-0.6,10H435.5c-0.4-3.3-0.6-6.7-0.6-10
		C434.9,784.7,491.7,736.5,561.8,736.5 M561.8,733.1c-34.7,0-67.4,11.5-91.9,32.4s-38.4,49-38.4,78.8c0,3.4,0.2,6.9,0.6,10.3
		c0.2,1.7,1.7,3.1,3.4,3.1h252.7c1.7,0,3.2-1.3,3.4-3.1c0.4-3.4,0.6-6.9,0.6-10.3c0-29.8-13.6-57.8-38.4-78.8
		C629.2,744.6,596.5,733.1,561.8,733.1L561.8,733.1z"/>
	<path class="st4" d="M235.8,854.2c0-1.1,0.1-2.2,0.1-3.3c0-49.5-40.1-89.6-89.6-89.6s-89.6,40.1-89.6,89.6c0,1.1,0,2.2,0.1,3.3
		H235.8z"/>
	<path d="M726.6,593.8c4.8,0,8.7,3.3,8.7,7.5v87.3c0,6.3-6,11.4-13.3,11.4H355.3l17.5-56.4h181.8c5.6,0,10.2,3.9,10.2,8.7v12.9
		h153.2v-63.9C717.9,597.2,721.8,593.8,726.6,593.8 M726.6,590.4c-6.7,0-12.2,4.9-12.2,10.9v60.4H568.1v-9.5
		c0-6.7-6.1-12.1-13.6-12.1H370.2l-0.7,2.4L352,699l-1.4,4.4H722c9.3,0,16.8-6.7,16.8-14.8v-87.3
		C738.8,595.3,733.3,590.4,726.6,590.4L726.6,590.4z"/>
	<path d="M202.7,545.7l64.7,8.3v43.1l-68,5L202.7,545.7 M202.7,542.3c-0.8,0-1.6,0.3-2.2,0.8c-0.7,0.6-1.2,1.5-1.2,2.4l-3.3,56.4
		c-0.1,1.9,1.3,3.5,3.2,3.6c0.1,0,0.2,0,0.2,0h0.3l68-5c1.8-0.1,3.2-1.6,3.2-3.4V554c0-1.7-1.3-3.2-3-3.4l-64.7-8.3
		C203,542.3,202.9,542.3,202.7,542.3L202.7,542.3z"/>
	<path d="M201.1,545.7c7.3,0,13.3,12.6,13.3,28.2s-5.9,28.2-13.3,28.2s-13.3-12.6-13.3-28.2S193.7,545.7,201.1,545.7 M201.1,542.3
		c-9.5,0-16.7,13.6-16.7,31.6s7.2,31.6,16.7,31.6s16.7-13.6,16.7-31.6S210.6,542.3,201.1,542.3z"/>
</g>
<g id="line">
	<path d="M107.4,947c-1.3,0-2.3-1-2.3-2.3c0-1.3,1-2.3,2.3-2.3l626.2-3.8c1.3,0.1,2.2,1.2,2.1,2.4c-0.1,1.1-1,2.1-2.1,2.1L107.4,947
		L107.4,947z"/>
	<path d="M907.7,915.5H674.3c-1.3,0-2.3-1-2.3-2.3c0-1.3,1-2.3,2.3-2.3c0,0,0,0,0,0h233.4c1.3,0,2.3,1,2.3,2.3
		C909.9,914.5,908.9,915.5,907.7,915.5z"/>
	<path d="M802.7,884.7H655.5c-1.3-0.1-2.2-1.2-2.1-2.4c0.1-1.1,1-2.1,2.1-2.1h147.2c1.3,0.1,2.2,1.2,2.1,2.4
		C804.7,883.7,803.8,884.6,802.7,884.7z"/>
</g>
<g id="present_1">
	<path class="st4" d="M941.7,240.8c0,0-3.1-28.1-60.5-63.7c0,0-46.9,38.6-56.9,61.4l52.2,48.7C876.5,287.2,924.8,262.7,941.7,240.8z
		"/>
	<path d="M881.2,177.1c57.4,35.6,60.5,63.7,60.5,63.7c-16.9,21.9-65.3,46.4-65.3,46.4l-52.2-48.7
		C834.4,215.6,881.2,177.1,881.2,177.1 M881.2,173.6c-0.8,0-1.6,0.3-2.2,0.8c-1.9,1.6-47.6,39.3-57.9,62.7c-0.6,1.3-0.2,2.9,0.8,3.9
		l52.2,48.7c1,1,2.6,1.2,3.9,0.5c2-1,49.3-25.1,66.4-47.4c0.5-0.7,0.8-1.6,0.7-2.5c-0.1-1.2-3.9-30.2-62.1-66.3
		C882.5,173.8,881.9,173.7,881.2,173.6L881.2,173.6z"/>
	<path class="st4" d="M916.7,202.3c0,0-19.3,34.7-65.9,60.9"/>
	<path d="M850.8,264.9c-0.9,0-1.7-0.8-1.7-1.7c0-0.6,0.3-1.2,0.9-1.5c45.6-25.7,65-59.9,65.2-60.2c0.5-0.8,1.5-1.1,2.3-0.7
		c0.8,0.5,1.1,1.5,0.7,2.3c-0.2,0.4-20.1,35.4-66.5,61.6C851.3,264.8,851,264.9,850.8,264.9z"/>
	<path d="M909.7,269.5c-0.7,0-1.3-0.4-1.6-1.1c-0.2-0.5-19.5-46.9-60.8-61.1c-0.9-0.3-1.4-1.3-1.1-2.2c0.3-0.9,1.3-1.4,2.2-1.1
		c42.8,14.7,62.6,62.5,62.8,63c0.4,0.9-0.1,1.9-0.9,2.2C910.1,269.4,909.9,269.5,909.7,269.5z"/>
	<path d="M959.2,190.6c-1.1-2.5-3.4-4.3-6.2-4.6c-3.2-0.5-6.3,0.7-8.6,1.8c-4.9,2.3-9.7,4.9-14.2,7.3l1.8-2l1.3-1.5
		c1.5-1.7,3.1-3.4,4.5-5.2c2-2.6,6.3-9.2,3.3-15.3c-1.1-2.1-2.9-3.7-5.1-4.5c-2.2-0.7-4.6-0.2-6.5,1.1c-4,2.9-5.4,8.5-6.4,12.6
		c-0.5,2.1-0.9,4.2-1.2,6.4l-0.1-0.4c-1.2-4.1-2.9-8.5-6.7-9.9c-1.4-0.5-3-0.4-4.4,0.3c-1.9,1.1-3.3,2.8-3.9,4.9
		c-1.2,4.3,1.4,8.5,3.8,11.7s4.9,6.2,7.3,9.2c1,1.2,1.9,2.4,2.9,3.6c-0.1,0.1-0.1,0.2-0.1,0.3c-0.2,0.5,0.1,1.1,0.6,1.3
		c0,0,0.1,0,0.1,0c5.3,1.6,10.9,3,16.5,3c1,0,2.1,0,3.1-0.1c5.3-0.4,10.3-2.7,14.1-6.3C958.4,201.3,961.3,195.8,959.2,190.6z
		 M914.3,194.5l-0.7-0.9c-2.2-2.8-4.7-5.9-4.8-9.5c0-1.8,0.7-3.5,2-4.8c0.8-0.7,1.8-1.1,2.9-1c3.5,0.4,5.1,5.3,6,8
		c0.9,2.7,1.4,5.4,1.7,8.2c-0.1,2.1,0,4.1,0.1,6.2v0.5h0.2c0.2,0.3,0.5,0.6,0.9,0.6l0,0c0.4,0,0.8-0.2,0.9-0.6h0.2v-0.5
		c0.1-2.1,0.1-4.2-0.1-6.3c0.1-3.4,0.5-6.8,1.1-10.2c0.5-2.6,1.2-5.2,2-7.8c0.6-1.9,1.5-3.7,2.7-5.3c1-1.5,2.7-2.4,4.5-2.6
		c2,0,3.9,1,5,2.7c3.6,5-0.6,11.5-2,13.4c-1.4,1.9-3,3.7-4.6,5.4l-1.4,1.5l-6.4,7.1l-0.4,0.2l0.1,0.1c-0.2,0.4-0.2,0.9,0.1,1.2
		c0.2,0.3,0.7,0.5,1.1,0.4l0.1,0.1l0.3-0.3c5.3-3.1,10.8-6,16.2-8.7l1-0.5c2.2-1.3,4.6-2.2,7.1-2.8c2.1-0.4,4.9,0,6.5,2
		c3,3.8,0.3,9.3-2.2,12.1c-3.2,3.4-7.6,5.6-12.2,6.2c-6.5,1-13.1-0.6-18.9-2.3c0-0.2-0.1-0.5-0.2-0.7L914.3,194.5z"/>
	<path d="M818.5,336.4c-5.4,0-10.7-0.4-16.1-1.2c-0.9-0.1-1.6-1-1.5-1.9s1-1.6,1.9-1.5c59,8.6,106.9-35.2,107.4-35.6
		c0.7-0.7,1.7-0.7,2.4,0c0.7,0.7,0.7,1.7,0,2.4c0,0-0.1,0.1-0.1,0.1C912.2,299.1,871.5,336.4,818.5,336.4z"/>
	<path d="M827.8,353.4c-5.1,0.1-10.2-0.5-15.1-1.9c-0.9-0.3-1.4-1.2-1.1-2.1c0.3-0.9,1.2-1.4,2.1-1.1c20,6.1,57.7-5.8,58-5.9
		c0.9-0.3,1.9,0.1,2.2,1c0.3,0.9-0.1,1.9-1,2.2c-0.1,0-0.2,0.1-0.3,0.1C871.5,346,848,353.4,827.8,353.4z"/>
</g>
<g id="woman">
	<path class="st6" d="M547,331.2c0,0,22.8,22.8,36.5-9.1c7.2-16.8,40.3-54.2,65-41.1s40.6-6.6,59.3-12.5c21.7-6.9,58.5,21.6,20.5,65
		c-89.9,103.1-207.7,34.2-207.7,34.2l9.4-37.9L547,331.2z"/>
	<path d="M714.8,267.4c21.4,0,47.8,26.9,13.7,66.1c-38.5,44.1-82.1,56.8-119.4,56.8c-49.8,0-88.3-22.5-88.3-22.5l9.4-37.9l16.8,1.3
		c0,0,7.9,7.9,17.2,7.9c6.5,0,13.7-3.9,19.3-17c6.2-14.4,31.3-43.8,53.9-43.8c3.9,0,7.7,0.9,11.2,2.7c5,2.8,10.7,4.3,16.5,4.4
		c16,0,28.6-12.5,42.9-17C710.2,267.7,712.5,267.4,714.8,267.4 M714.8,264c-2.7,0-5.3,0.4-7.9,1.2c-5.8,1.8-11.2,4.9-16.5,7.8
		c-8.4,4.6-16.3,9-25.3,9c-5.2-0.1-10.3-1.4-14.9-4c-3.9-2.1-8.3-3.1-12.7-3.1c-24.2,0-50.4,30.3-57.1,45.9c-4.3,9.9-9.7,15-16.2,15
		c-7.7,0-14.7-6.8-14.8-6.9c-0.6-0.6-1.3-0.9-2.2-1l-16.9-1.3h-0.3c-1.6,0-2.9,1.1-3.3,2.6l-9.4,37.9c-0.4,1.5,0.3,3,1.6,3.8
		c1.6,0.9,39.9,23,90.1,23c20.8,0.1,41.4-4,60.6-12.1c22.6-9.6,43.3-25,61.4-45.8c21.7-24.9,18.3-43.2,14.3-51.9
		C740,272.1,727.5,264,714.8,264L714.8,264z"/>
	<circle class="st6" cx="542.2" cy="292.8" r="21.2"/>
	<path d="M542.1,271.6c11.7,0,21.2,9.5,21.2,21.2c0,11.7-9.5,21.2-21.2,21.2s-21.2-9.5-21.2-21.2c0-0.9,0.1-1.7,0.2-2.6
		C522.4,279.5,531.4,271.5,542.1,271.6 M542.1,268.2L542.1,268.2L542.1,268.2c-13.6-0.1-24.7,10.8-24.8,24.4
		c-0.1,12.6,9.3,23.2,21.8,24.6c1,0.1,2,0.2,3,0.2c13.6,0,24.6-11,24.6-24.6c0-12.4-9.3-22.9-21.6-24.4
		C544.1,268.3,543.1,268.2,542.1,268.2L542.1,268.2z"/>
	<path class="st6" d="M455.4,318.9c0,0-5.1-18.8,7.4-26.3s14.8-4.6,21.1-9s21.1-3.2,29,6.1c0,0,18.2-1,27.3,9.2s9.4,18,6.8,28.6
		s-2,16.5-3.6,24.1s-9.2,26.7-40.7,23.4S455.4,318.9,455.4,318.9z"/>
	<path d="M493.5,281.1c6.6,0,14.4,2.6,19.4,8.6c0,0,0.5,0,1.3,0c4.4,0,18.4,0.7,26,9.2c9.1,10.2,9.4,18,6.8,28.6s-2,16.5-3.6,24.1
		c-1.5,7-8,23.8-33.8,23.8c-2.3,0-4.6-0.1-6.9-0.4c-31.5-3.3-47.3-56.2-47.3-56.2s-5.1-18.8,7.4-26.3s14.8-4.6,21.1-9
		C486.8,281.9,490.1,281.1,493.5,281.1 M493.5,277.8L493.5,277.8c-4-0.2-8,0.9-11.5,3c-1.9,1.3-4,2.2-6.2,2.6
		c-3.3,0.8-7.3,1.9-14.7,6.3c-14.6,8.7-9.2,29.3-9,30.1c0,0,0,0.1,0,0.1c0.7,2.3,16.8,55.1,50.2,58.6c2.4,0.3,4.8,0.4,7.2,0.4
		c29.3,0,35.9-20.3,37.2-26.5c0.6-3.2,1.1-6.3,1.3-9.5c0.4-4.9,1.1-9.7,2.3-14.5c2.8-11.6,2.5-20.5-7.6-31.7
		c-8.3-9.2-22.5-10.3-28.3-10.3C508.8,280.7,501.3,277.6,493.5,277.8L493.5,277.8z"/>
	<path class="st0" d="M485.1,383.9c0,0-34,14.5-51.1,29.4c-32.6,28.2-48.6,48-61.2,105.9c-5.2,24-6.6,54-6.6,54L508.8,604
		c0,0,25.3-9,40.3-79.6c10.3-48.5-15.8-114.9-30-125.2C519,399.2,484.4,401.4,485.1,383.9z"/>
	<path d="M485.1,383.9c-0.6,14,21.3,15.4,30.2,15.4c2.3,0,3.7-0.1,3.7-0.1c14.3,10.3,40.3,76.7,30,125.2
		c-15,70.5-40.3,79.6-40.3,79.6l-142.5-30.8c0,0,1.4-30,6.6-54c12.6-57.9,28.6-77.7,61.2-105.9C451.1,398.4,485.1,383.8,485.1,383.9
		 M485.1,380.4c-0.5,0-0.9,0.1-1.4,0.3c-1.4,0.6-34.7,14.9-52,29.9c-16.6,14.4-28.9,26.6-38.8,42.6c-10,16.3-17.3,36.4-23.5,65.2
		c-5.2,24-6.7,53.3-6.7,54.5c-0.1,1.7,1.1,3.1,2.7,3.5L508,607.3c0.2,0.1,0.5,0.1,0.7,0.1c0.4,0,0.8-0.1,1.1-0.2
		c1.1-0.4,27.3-10.5,42.5-82.1c10.3-48.4-15-116.9-31.4-128.7c-0.6-0.4-1.3-0.7-2-0.6h-0.2c0,0-1.4,0.1-3.5,0.1
		c-11.7,0-21-2.3-24.7-6.3c-1.5-1.5-2.2-3.5-2.1-5.6c0.1-1.9-1.4-3.5-3.3-3.6C485.2,380.4,485.2,380.4,485.1,380.4L485.1,380.4z
		 M485.1,387.2L485.1,387.2z"/>
	<path class="st5" d="M496.3,398.5c0,0-0.7,0.4-1.9,1.2c-7.1,4.2-32,18.1-39.8,10.3c-9.1-9.1,8-16,8-16"/>
	<path d="M461.5,413.9c-3.3,0-6.2-0.8-8.2-2.8c-2.6-2.6-3.6-5.3-3-8.1c1.3-6.4,10.5-10.2,11.6-10.7c0.9-0.4,1.9,0.1,2.2,0.9
		c0.4,0.9-0.1,1.9-1,2.2c-2.4,1-8.7,4.3-9.5,8.2c-0.3,1.6,0.4,3.3,2.1,5c5.5,5.5,23.8-2.3,37.7-10.5c1.2-0.7,1.9-1.1,1.9-1.1
		c0.8-0.5,1.9-0.3,2.4,0.5s0.3,1.9-0.5,2.4l0,0c0,0-0.7,0.5-2,1.2C487.8,405.6,472.2,413.9,461.5,413.9z"/>
	<path class="st2" d="M476.6,369.2l-13.1,22.3c0,0-9.7,13.7,44.3,6.3c0,0-9.7-17.4-2.1-39.9c0,0,9.8,4.4,14.1-4.1S519,339.6,514,339
		c0,0-21.2-0.7-13.8-40.5c0,0-19.4-5-33.9,8.1s-24.8,33.1-16.8,47S476.6,369.2,476.6,369.2z"/>
	<path d="M491.3,297.6c3,0,6,0.3,8.9,0.9C492.7,338.3,514,339,514,339c5.1,0.6,10.2,6.4,5.9,14.9c-1.5,3.3-4.8,5.4-8.5,5.2
		c-1.9,0-3.9-0.4-5.6-1.2c-7.6,22.5,2.1,39.9,2.1,39.9c-8.8,1.3-17.6,2-26.5,2.2c-23.9,0-17.9-8.5-17.9-8.5l13.1-22.3
		c0,0-19.2-1.7-27.1-15.6s2.2-34,16.8-47C474.5,299.2,484.3,297.6,491.3,297.6 M491.3,294.2c-7.4,0-18.2,1.7-27.3,9.9
		c-14.9,13.4-26.7,35.2-17.5,51.3c6.1,10.7,17.9,14.9,24.7,16.4l-10.5,17.9c-1.4,2.2-1.6,4.9-0.4,7.2c2.3,4.5,9,6.5,21.2,6.5
		c9-0.2,18-0.9,26.9-2.2c1.9-0.3,3.2-2,2.9-3.9c-0.1-0.4-0.2-0.8-0.4-1.1c-4.9-10.6-5.9-22.7-2.8-34c1.1,0.2,2.2,0.3,3.3,0.3
		c4.9,0.1,9.4-2.7,11.5-7.1c2.4-4.8,2.6-9.7,0.5-13.6c-1.8-3.4-5.2-5.7-9-6.3h-0.3c-3-0.4-5.8-2.1-7.6-4.6
		c-3.3-4.2-6.5-13.1-2.9-31.8c0.3-1.8-0.8-3.5-2.5-4c-3.2-0.7-6.5-1-9.8-1L491.3,294.2z"/>
	<path d="M479,369.2c-1.6,0-3.3-0.1-4.9-0.5c-0.6-0.1-1-0.7-0.9-1.4c0.1-0.6,0.7-1,1.3-0.9c0,0,0,0,0,0c5.9,1.3,13.6-0.8,13.6-0.9
		c0.6-0.2,1.2,0.2,1.4,0.8c0.2,0.6-0.2,1.2-0.8,1.4C485.7,368.7,482.3,369.2,479,369.2z"/>
	<path d="M508.9,355c-0.6,0-1.1-0.5-1.2-1.1c0-0.5,0.3-0.9,0.7-1.1c2.1-0.9,4.7-2.4,5.1-4.5c0.4-2.4-2.1-4.8-2.1-4.8
		c-0.5-0.4-0.5-1.1-0.1-1.6c0.4-0.5,1.1-0.5,1.6-0.1c0,0,0,0,0,0c0.2,0.1,3.5,3.2,2.9,6.9c-0.4,2.6-2.6,4.7-6.5,6.3
		C509.2,355,509,355,508.9,355z"/>
	<path class="st7" d="M482.6,321c7.9,7.5,22.5,11.2,22.6,15.7s-4.2,7.9-9.8,5.9s-10.4-5.1-19.8-12.1s-18.2-14.5-13.8-19.1
		S471.1,309.9,482.6,321z"/>
	<path d="M477.3,322.9c-0.6,0-1.1-0.5-1.1-1.1c0.1-2.2-0.7-4.4-2.3-6c-3-2.9-8.2-2.8-8.3-2.8c-0.6,0-1.2-0.5-1.2-1.1
		s0.5-1.2,1.1-1.2c0.3,0,6.2-0.2,9.9,3.4c2,2,3.1,4.8,3,7.6C478.5,322.4,478,322.9,477.3,322.9L477.3,322.9L477.3,322.9z"/>
	<path d="M499.1,339.2c-0.5,0-1-0.4-1.1-0.9c-2.3-9.5-10.8-8.5-11.2-8.4c-0.6,0.1-1.2-0.4-1.3-1s0.4-1.2,1-1.3
		c0.1,0,10.9-1.4,13.7,10.1c0.1,0.6-0.2,1.2-0.8,1.4c0,0,0,0,0,0C499.3,339.2,499.2,339.2,499.1,339.2z"/>
	<path d="M484,311.3c-2.4,0-4.8-0.6-6.9-1.7c-0.6-0.3-0.8-1-0.4-1.5c0.3-0.6,1-0.8,1.5-0.5l0,0c2,1,4.1,1.4,6.3,1.4
		c0.6,0,1.2,0.5,1.2,1.1c0,0.6-0.5,1.2-1.1,1.2c0,0,0,0,0,0L484,311.3z"/>
	<path d="M481.6,354.1c-3.3,0-6.4-1.4-8.6-3.9c-0.4-0.5-0.3-1.2,0.2-1.6c0.5-0.4,1.2-0.3,1.6,0.2c0.2,0.3,4.6,5.6,12.6,1.4
		c0.6-0.3,1.2-0.1,1.5,0.5c0.3,0.6,0.1,1.2-0.5,1.5c0,0,0,0,0,0C486.3,353.4,484,354.1,481.6,354.1z"/>
	<path class="st2" d="M761,384c18.1,0.6,35.7-0.4,31.1,6c-4.9,6.8-15.1,11.3-36.9,6.2c-20.8-4.9-21.1-9.8-21.1-9.8"/>
	<path d="M771.8,400.2c-5.7-0.1-11.4-0.8-17-2.2c-20.4-4.8-22.3-9.9-22.5-11.3c-0.1-0.9,0.6-1.8,1.6-1.8c0.9-0.1,1.6,0.5,1.8,1.4
		c0.2,0.4,2.4,4.3,19.9,8.4c17.7,4.2,29.5,2.3,35.1-5.5c0.4-0.6,0.4-0.9,0.4-0.9c-0.9-1.8-12.9-2.1-20.8-2.2c-3-0.1-6.2-0.1-9.4-0.2
		c-0.9,0-1.7-0.8-1.7-1.8c0-0.9,0.8-1.7,1.8-1.6l0,0c3.2,0.1,6.3,0.2,9.3,0.2c14.4,0.3,22,0.6,23.8,4.1c0.5,0.9,0.7,2.4-0.7,4.4
		C789.1,397.1,781.8,400.2,771.8,400.2z M735.8,386.4L735.8,386.4z"/>
	<path class="st2" d="M722.9,356c0,0,24.8-28,30.8-21.8s-12.1,20.5-11.5,30.9S722.9,356,722.9,356z"/>
	<path d="M740.3,369.8c-5.2,0-14.5-8.6-18.6-12.7c-0.6-0.6-0.7-1.7-0.1-2.4c2.1-2.4,20.6-23,29.6-23.3c1.4-0.1,2.7,0.4,3.7,1.4
		c4.2,4.3,0,10.6-4.4,17.3c-3.2,4.9-6.9,10.5-6.7,14.8c0.2,2.9-1.1,4.1-2.1,4.6C741.3,369.8,740.8,369.8,740.3,369.8z M725.3,355.8
		c6.5,6.2,13.5,11.1,15,10.6c0.1-0.4,0.1-0.8,0.1-1.3c-0.3-5.4,3.5-11.2,7.3-16.8s7-10.7,4.8-13c-0.3-0.3-0.7-0.4-1.2-0.4
		C746,335.1,733,347.4,725.3,355.8L725.3,355.8z"/>
	<path class="st2" d="M707.9,366c0,0,12.9-20.9,29.6-10.5s21,18.9,33.7,13.4c21.2-9.3,33-5.3,9.5,14.7s-67.6,5.8-67.6,5.8"/>
	<path d="M745.5,396c-11.2-0.1-22.3-1.8-33-5c-0.9-0.3-1.4-1.3-1.1-2.2c0.3-0.9,1.3-1.4,2.2-1.1c0.4,0.1,43.4,13.7,65.9-5.4
		c11.3-9.6,12.9-14.3,12.2-15.5c-1-1.6-7.8-1.6-19.9,3.7c-10.2,4.5-15.8,0.3-24.3-5.9c-3.1-2.3-6.6-4.9-11-7.6
		c-3.5-2.3-7.8-3.2-11.9-2.2c-9,2.1-15.3,12.1-15.4,12.2c-0.6,0.8-1.6,0.9-2.4,0.4c-0.7-0.5-0.9-1.4-0.5-2.2
		c0.3-0.5,7.1-11.3,17.5-13.8c5-1.2,10.3-0.3,14.5,2.6c4.5,2.8,8.1,5.4,11.2,7.7c8.3,6.1,12.5,9.2,20.9,5.5
		c4.7-2.1,20.4-8.3,24.1-2.4c2.5,4-1.7,10.5-12.8,19.9C771.6,393.4,758,396,745.5,396z"/>
	<path d="M469.9,335.9c-0.6,0-1.1-0.5-1.1-1.2c0-0.3,0.2-0.6,0.4-0.8l13.8-11c0.5-0.4,1.2-0.3,1.6,0.2c0.4,0.5,0.3,1.2-0.2,1.6
		l-13.8,11C470.4,335.8,470.1,335.9,469.9,335.9z"/>
	<ellipse transform="matrix(0.1602 -0.9871 0.9871 0.1602 77.2263 808.7684)" class="st0" cx="513.9" cy="359" rx="3.7" ry="3.7"/>
	<path d="M513.9,355.3c0.1,0,0.3,0,0.5,0c2,0.3,3.4,2.1,3.2,4.1c-0.2,1.8-1.8,3.2-3.6,3.2h-0.5c-2-0.2-3.5-2-3.3-4
		C510.4,356.7,512,355.3,513.9,355.3 M513.9,353L513.9,353c-3.3,0.2-5.8,3-5.6,6.3c0.2,3.3,3,5.8,6.3,5.6c3.3-0.2,5.8-3,5.6-6.3
		c-0.2-3-2.6-5.4-5.6-5.6C514.4,353,514.2,353,513.9,353z"/>
	<path class="st8" d="M366.2,568c0,0-65.1,2.3-82.2,30.8s20.5,172.3,20.5,172.3l70.8-3.4V681"/>
	<path d="M304.5,772.8c-0.8,0-1.5-0.5-1.7-1.3c-1.5-5.9-37.6-144.8-20.4-173.6c17.4-29,80.9-31.5,83.6-31.6c0.9,0,1.7,0.7,1.8,1.6
		c0,0.9-0.7,1.7-1.6,1.8c-0.6,0-64.4,2.5-80.8,30c-15.7,26.2,16.6,155,20.4,169.7l67.7-3.3V681c0.1-0.9,0.9-1.7,1.8-1.6
		c0.8,0.1,1.5,0.7,1.6,1.6v86.7c0,0.9-0.7,1.7-1.6,1.7L304.5,772.8L304.5,772.8z"/>
	<path class="st0" d="M531.6,464.1c30.8,3.4,46.5-8,88.2-11.7s61.6-11.3,77.1-21.7c19.3-13,13.7-27.6,13.7-27.6l9.5-8.3l-14.4-32.1
		l-13.1,6c-9.5-5.6-17.1-11.2-45.4,8.1c-22.5,15.4-54-7.5-101.7,2.6s-63.7,28.1-63.7,28.1"/>
	<path d="M542.7,466.5c-3.8,0-7.5-0.2-11.3-0.6c-0.9-0.2-1.6-1.1-1.4-2c0.2-0.8,0.9-1.4,1.8-1.4c17.4,1.9,29.7-0.9,45.2-4.5
		c11.6-2.6,24.7-5.6,42.6-7.3c45.1-4,63.3-12.7,76.3-21.5c18-12.1,13.1-25.4,13.1-25.5c-0.3-0.7-0.1-1.4,0.5-1.9l8.5-7.5L704.8,365
		l-11.5,5.3c-0.5,0.2-1.1,0.2-1.6-0.1l-0.9-0.5c-8.7-5.1-16.2-9.6-42.7,8.6c-12.1,8.2-26,6.1-43.7,3.4c-16.7-2.5-35.6-5.4-58.6-0.5
		c-46.5,9.8-62.6,27.4-62.7,27.5c-0.6,0.7-1.7,0.8-2.4,0.1c-0.7-0.6-0.8-1.7-0.1-2.4c0.7-0.8,17-18.5,64.6-28.6
		c23.6-5,43.7-1.9,59.8,0.5c16.9,2.6,30.3,4.6,41.3-2.9c28.4-19.4,37.1-14.2,46.4-8.7l0.1,0.1l12.3-5.6c0.4-0.2,0.9-0.2,1.3,0
		c0.4,0.1,0.8,0.5,1,0.9l14.4,32.1c0.3,0.7,0.1,1.5-0.4,2l-8.7,7.6c1,3.9,2.6,16.8-14.7,28.4c-13.4,9-32.1,17.9-77.9,22
		c-17.7,1.6-30.7,4.6-42.1,7.2C565.9,464,555.3,466.5,542.7,466.5z"/>
	<path class="st6" d="M509.2,604.3c0,0,11.1,38.2-17.1,43.2s-111.6,7-138.8,47.3s-132.8,94.5-132.8,94.5L186.4,727
		c27.7-35.1,58.3-67.7,91.5-97.5c46.3-41.2,88.5-56.3,88.5-56.3L509.2,604.3z"/>
	<path d="M366.4,573.2l142.8,31.2c0,0,11.1,38.2-17.1,43.2s-111.6,7-138.8,47.3s-132.7,94.5-132.7,94.5L186.4,727
		c27.7-35.1,58.3-67.7,91.5-97.5C324.2,588.2,366.4,573.1,366.4,573.2 M366.4,569.7c-0.4,0-0.8,0.1-1.1,0.2
		c-1.8,0.6-43.4,15.8-89.6,57c-33.4,30-64.2,62.8-92,98c-0.8,1.1-0.9,2.5-0.3,3.7l34.2,62.4c0.6,1.1,1.7,1.8,3,1.8
		c0.5,0,1.1-0.1,1.6-0.4c4.3-2.2,106.7-55.2,134-95.7c21.5-31.8,81.3-38.9,117-43.2c7.8-0.9,14.5-1.7,19.6-2.6
		c7.8-1.4,13.6-5.2,17.4-11.2c8.7-14.1,2.7-35.5,2.4-36.4c-0.4-1.2-1.3-2.1-2.5-2.4l-142.8-31.2
		C366.9,569.8,366.7,569.8,366.4,569.7L366.4,569.7z"/>
	<path class="st6" d="M184.7,726.6c-14.8-5.3-30.4-8.1-46.2-8.3c-3.2,0-5.7,2.5-5.8,5.7c0,1,0.3,2,0.8,2.9l47.8,83.1
		c0,0,26.3-2.3,38.8-18.3L184.7,726.6z"/>
	<path d="M181.3,811.6c-0.6,0-1.2-0.3-1.5-0.9L132,727.7c-2-3.6-0.8-8.1,2.7-10.1c1.1-0.6,2.4-1,3.7-1h0.1c16,0.2,31.8,3,46.8,8.4
		c0.4,0.1,0.7,0.4,0.9,0.8l35.4,65c0.3,0.6,0.3,1.3-0.1,1.9c-12.9,16.4-38.9,18.8-40,18.9L181.3,811.6z M138.5,720c-2.2,0-4,1.8-4,4
		c0,0.7,0.2,1.4,0.5,2l47.2,82.1c4.9-0.6,25.1-3.9,35.8-16.6L183.5,728C169,723,153.8,720.3,138.5,720L138.5,720z"/>
	<path class="st6" d="M305,775.1c-11.1,10.8-20.3,23.4-27.3,37.2c-1.4,2.8-0.2,6.2,2.5,7.5c0.9,0.4,1.9,0.6,2.9,0.6l94-6.3
		c0,0,9.3-24.2,0.6-42.2L305,775.1z"/>
	<path d="M282.7,822.2c-4.1,0-7.3-3.3-7.3-7.4c0-1.1,0.3-2.2,0.8-3.2c7.1-14,16.4-26.8,27.7-37.7c0.3-0.3,0.7-0.4,1.1-0.5l72.8-3.2
		c0.7,0,1.3,0.4,1.6,1c8.9,18.5-0.2,42.5-0.6,43.5c-0.2,0.6-0.8,1-1.5,1.1l-94,6.3L282.7,822.2z M305.7,776.8
		c-10.7,10.6-19.6,22.9-26.5,36.3c-1,1.9-0.2,4.3,1.8,5.2c0.6,0.3,1.3,0.4,2,0.4l92.9-6.2c1.6-4.6,7.4-23.8,0.8-38.8L305.7,776.8z"
		/>
	<circle class="st3" cx="487" cy="564.3" r="3.7"/>
	<circle class="st3" cx="401.4" cy="534.6" r="3.7"/>
	<circle class="st3" cx="452.8" cy="516.4" r="3.7"/>
	<circle class="st3" cx="415.1" cy="457" r="3.7"/>
	<circle class="st3" cx="533.8" cy="471.8" r="3.7"/>
	<circle class="st3" cx="503" cy="507.2" r="3.7"/>
	<circle class="st3" cx="547.5" cy="431.9" r="3.7"/>
	<circle class="st3" cx="509.9" cy="433" r="3.7"/>
	<circle class="st3" cx="597.7" cy="402.2" r="3.7"/>
	<circle class="st3" cx="645.7" cy="435.3" r="3.7"/>
	<circle class="st3" cx="659.3" cy="398.8" r="3.7"/>
	<circle class="st3" cx="465.3" cy="453.6" r="3.7"/>
	<circle class="st3" cx="442.5" cy="428.5" r="3.7"/>
	<path class="st5" d="M198.2,712.4c-7.6,9.1-11.8,14.6-11.8,14.6l34.2,62.3c0,0,8.3-4.3,20.9-11.3
		C229.9,740,204.6,717.6,198.2,712.4z"/>
	<path d="M220.6,791.1c-0.6,0-1.2-0.3-1.5-0.9l-34.2-62.3c-0.3-0.6-0.3-1.3,0.1-1.9c0-0.1,4.3-5.7,11.8-14.7
		c0.6-0.7,1.7-0.8,2.4-0.2c7.4,6,32.2,28.4,43.8,66.5c0.2,0.8-0.1,1.6-0.8,2c-12.4,7-20.8,11.3-20.9,11.3
		C221.2,791,220.9,791.1,220.6,791.1z M188.5,727.2l32.9,59.9c2.8-1.5,9.4-4.9,18.1-9.8c-7.7-24.2-21.9-45.8-41-62.4
		C193.3,721,189.8,725.4,188.5,727.2L188.5,727.2z"/>
	<path class="st5" d="M180.1,736.3c-0.6,0-1.3-0.2-1.8-0.6c-3.4-2.7-17.7-3.9-26.7-3.9c-1.6,0-2.9-1.3-2.9-2.8
		c0-1.6,1.3-2.9,2.9-2.9c4,0,24.1,0.3,30.3,5.2c1.2,1,1.4,2.8,0.5,4C181.8,735.9,181,736.3,180.1,736.3z"/>
	<path class="st5" d="M300.4,754.3c0,0,48.6-0.5,76-4.4v22.4l-70.8,3.4L300.4,754.3z"/>
	<path d="M305.7,777.4c-0.8,0-1.5-0.5-1.7-1.3l-5.3-21.4c-0.2-0.9,0.3-1.9,1.3-2.1c0.1,0,0.3,0,0.4,0c0.5,0,48.8-0.6,75.8-4.4
		c0.9-0.1,1.8,0.5,1.9,1.5c0,0.1,0,0.2,0,0.2v22.4c0,0.9-0.7,1.7-1.6,1.7L305.7,777.4L305.7,777.4z M302.6,756l4.4,18l67.7-3.3
		v-18.8C350.6,755,312.1,755.8,302.6,756z"/>
	<path class="st5" d="M742.8,388.5c-5.1,0-10.2-0.4-15.2-1.4c-0.9-0.2-1.5-1.1-1.3-2c0.2-0.9,1.1-1.5,2-1.3l0,0
		c0.3,0.1,30.3,6.5,51.1-9.9c0.7-0.6,1.8-0.5,2.4,0.2s0.5,1.8-0.2,2.4c0,0-0.1,0.1-0.1,0.1C769,386.3,753.8,388.5,742.8,388.5z"/>
	<path class="st5" d="M558.4,299.7h-0.2c-0.9-0.1-1.6-1-1.5-1.9c0.6-5.2-0.5-9.4-3.1-12.3c-4.5-5.1-12.3-5.1-12.4-5.1
		c-0.9-0.1-1.7-0.9-1.6-1.8c0.1-0.8,0.7-1.5,1.6-1.6c0.4,0,9.4,0.1,15,6.3c3.3,3.7,4.7,8.8,4,15
		C560.1,299.1,559.3,299.7,558.4,299.7z"/>
	<path d="M575.7,277.1c-0.9,0-1.7-0.7-1.7-1.6c-1-16.3-16.9-15.6-17.6-15.6c-0.9,0.1-1.8-0.7-1.8-1.6c-0.1-0.9,0.7-1.8,1.6-1.8
		c0.2,0,20-0.9,21.2,18.8c0.1,0.9-0.7,1.8-1.6,1.8C575.8,277.1,575.8,277.1,575.7,277.1L575.7,277.1z"/>
	<path class="st5" d="M244.6,684.4c-0.5,0-1-0.1-1.4-0.3c-1.4-0.8-1.9-2.5-1.1-3.9c24.1-43.6,77.6-72.9,79.9-74.2
		c1.4-0.7,3.1-0.1,3.8,1.3c0.6,1.3,0.2,2.9-1.1,3.7c-0.5,0.3-54.3,29.8-77.6,71.9C246.6,683.8,245.6,684.4,244.6,684.4z"/>
	<path class="st5" d="M516.8,406.5c-1.6,0-2.8-1.3-2.8-2.9c0-0.8,0.4-1.6,1-2.1c1-0.9,25.6-20.9,94-13c1.6,0.1,2.7,1.5,2.6,3.1
		c-0.1,1.6-1.5,2.7-3.1,2.6c-0.1,0-0.1,0-0.2,0c-65.6-7.5-89.4,11.5-89.7,11.8C518.1,406.3,517.5,406.5,516.8,406.5z"/>
	<path class="st1" d="M692.6,371c0.5,3.3,2.1,23,15.9,31.5c-0.1-0.3,1-0.5,1-0.5l8.3-7.2L704.5,365L692.6,371z"/>
	<path d="M773.7,411.3c-5.8,0-11.6-0.6-17.2-2c-0.9-0.3-1.4-1.3-1.1-2.2c0.3-0.8,1.1-1.3,2-1.1c0.3,0.1,32.5,8.6,54.3-12.1
		c0.7-0.7,1.8-0.6,2.4,0.1c0.7,0.7,0.6,1.8-0.1,2.4l0,0C801.3,408.5,785.5,411.3,773.7,411.3z"/>
	<path d="M669.8,232.8c8.3-8.4,16.2-17,23.9-26c7.7-9,15-18.2,22-27.6c7-9.4,13.7-19.1,20-29c6.3-9.9,12.3-20,18-30.2
		c5.6-10.3,10.9-20.8,15.7-31.4c0.6-1.3,1.2-2.7,1.8-4c0.4-0.8,0.2-1.8-0.6-2.3c-0.8-0.5-1.9-0.2-2.3,0.6
		c-4.8,10.7-9.9,21.2-15.5,31.6s-11.4,20.5-17.6,30.4c-6.2,9.9-12.8,19.6-19.6,29s-14,18.6-21.4,27.4c-7.5,9-15.4,17.7-23.6,26.1
		c-1,1-2,2.1-3,3.1C665.9,232,668.3,234.4,669.8,232.8L669.8,232.8z"/>
	<path d="M633.8,253.5c12.3-21.4,21.1-44.5,26.2-68.6c1.4-6.8,2.5-13.7,3.4-20.6c0-0.9-0.8-1.7-1.7-1.7c-0.9,0-1.7,0.8-1.7,1.7
		c-2.9,24-9.5,47.3-19.6,69.3c-2.9,6.2-6,12.3-9.4,18.2C629.8,253.7,632.8,255.5,633.8,253.5L633.8,253.5z"/>
</g>
</svg>
