<?xml version="1.0" encoding="utf-8"?>
<!-- Generator: Adobe Illustrator 24.1.2, SVG Export Plug-In . SVG Version: 6.00 Build 0)  -->
<svg version="1.1" id="question_1_" xmlns="http://www.w3.org/2000/svg" xmlns:xlink="http://www.w3.org/1999/xlink" x="0px"
	 y="0px" viewBox="0 0 1000 1000" style="enable-background:new 0 0 1000 1000;" xml:space="preserve">
<style type="text/css">
	.st0{fill:#1D1D1B;}
	.st1{fill:#6C32AD;}
	.st2{fill:#59298F;}
	.st3{fill:#FFFFFF;}
	.st4{fill:#1D1E1B;}
	.st5{fill:#FFCDB2;}
	.st6{fill:#FFAD00;}
	.st7{fill:#FFC140;}
	.st8{fill:#E89D00;}
	.st9{fill:none;}
	.st10{fill:#FFB49F;}
	.st11{fill:#D9CFFF;}
</style>
<g id="question">
	<g id="line">
		<path class="st0" d="M953.7,896.5H213.9c-1.1,0-2-0.9-2-2s0.9-2,2-2h739.8c1.1,0,2,0.9,2,2S954.8,896.5,953.7,896.5z"/>
		<path class="st0" d="M988.5,925.4H875c-1.1,0-2-0.9-2-2s0.9-2,2-2h113.5c1.1,0,2,0.9,2,2S989.6,925.4,988.5,925.4z"/>
		<path class="st0" d="M283.6,929.8H170.2c-1.1,0-2-0.9-2-2s0.9-2,2-2h113.5c1.1,0,2,0.9,2,2S284.8,929.8,283.6,929.8z"/>
	</g>
	<g id="woman">
		<path d="M729.3,547.1c-3.2,0-6.4-0.1-9.6-0.5c-0.8-0.1-1.4-0.9-1.3-1.7c0.1-0.8,0.9-1.4,1.7-1.3c0.2,0,18.4,2.6,43.1-4.6
			c22.8-6.7,55.9-23.3,84.3-64.8c0.5-0.6,1.5-0.8,2.1-0.2c0.6,0.5,0.7,1.3,0.4,1.9c-28.9,42.3-62.8,59.2-86.1,66
			C752.8,545.2,741.1,547,729.3,547.1z"/>
		<path d="M788.9,569.7c-16.8,0-27.9-4.2-28.3-4.4c-0.8-0.3-1.2-1.1-1-1.9c0.3-0.8,1.1-1.2,1.9-1c0.1,0,0.1,0,0.2,0.1
			c0.5,0.2,45.3,17,90.7-18.7c0.6-0.5,1.6-0.4,2.1,0.2c0.5,0.6,0.4,1.6-0.2,2.1c0,0,0,0-0.1,0.1c-24.4,19.2-48.6,23.4-64.5,23.5
			L788.9,569.7z"/>
		<path class="st1" d="M627.8,499.1c0,0-1.1,33.7,23.3,29.3s76.6-14.4,86.6,22.2s5.5,43.3,32.2,45.5s69.8,52.6,7.7,94.6
			S577.8,528.4,577.8,528.4l5.8-20.1L627.8,499.1z"/>
		<path d="M627.8,499.1c0,0-1,29.7,19.1,29.7c1.4,0,2.8-0.1,4.2-0.4c10.2-1.8,25.2-4.7,40-4.7c20.7,0,40.8,5.5,46.7,26.9
			c10,36.7,5.5,43.3,32.2,45.5s69.8,52.6,7.7,94.6c-5.7,3.8-12.3,5.8-19.2,5.7c-67.4,0-180.7-168.1-180.7-168.1l5.8-20.1
			L627.8,499.1 M627.9,496.1c-0.2,0-0.4,0-0.6,0.1l-44.3,9.2c-1.1,0.2-2,1-2.3,2.1l-5.7,20.1c-0.2,0.9-0.1,1.8,0.4,2.5
			c20.2,29.3,42,57.4,65.3,84.3c49.4,56.4,89,85,117.9,85c7.4,0.1,14.7-2.1,20.8-6.2c35.4-24,35.1-49.1,31.7-62
			c-5.5-21.2-25.6-36.8-40.9-38.1c-19.5-1.6-20.1-4.4-25.2-25.7c-1.2-5-2.5-10.8-4.4-17.7c-5.3-19.3-21.9-29.1-49.6-29.1
			c-14.6,0-29.6,2.7-39.6,4.5l-0.9,0.2c-1.2,0.2-2.5,0.4-3.7,0.4c-3.5,0.1-6.9-1.3-9.4-3.8c-7.1-7.4-6.7-22.6-6.7-22.8
			c0.1-1.7-1.2-3-2.9-3.1C627.9,496.1,627.9,496.1,627.9,496.1L627.9,496.1z"/>
		<path class="st2" d="M784.3,686c-2.4-55.7-87.6-117.6-115.4-127.6s-61.1-25.5-65.5-37.8c-4.4-12.2,15.9-16.7,15.9-16.7l-5.9-1.9
			l-29.7,6.2l-5.8,20.1c0,0,137.7,204.4,199.9,162.4C780,689.2,782.2,687.6,784.3,686z"/>
		<path class="st3" d="M520.5,564c0,0-21.1,8.9-8.9,21.1s31,4.1,40.5-1.8c0,0-2.7,15.2,17.3,12.9s35.5-7.8,33.3-32.2L520.5,564z"/>
		<path d="M602.7,564c2.2,24.4-13.3,30-33.3,32.2c-1.3,0.2-2.5,0.2-3.8,0.2c-15.8,0-13.5-13.2-13.5-13.2c-5.9,3.7-15.3,8.2-24.5,8.2
			c-6,0.2-11.8-2.1-16-6.4c-12.2-12.2,8.9-21.1,8.9-21.1L602.7,564 M602.7,561h-82.1c-0.4,0-0.8,0.1-1.2,0.2
			c-1.3,0.5-12.6,5.5-14.3,14.1c-0.8,4.1,0.7,8.1,4.5,11.9c4.8,4.8,11.3,7.4,18.1,7.2c8.3,0,16.4-3.3,21.8-6.1
			c0.4,2.2,1.4,4.2,2.8,5.9c2.9,3.4,7.4,5.2,13.5,5.2c1.4,0,2.8-0.1,4.1-0.2c9-1,19.3-2.8,26.5-8.4c7.5-5.8,10.6-14.7,9.5-27.1
			C605.6,562.2,604.3,561,602.7,561L602.7,561z"/>
		<path d="M693,394.3c-0.1,0-0.2,0-0.3-0.1c-0.7-0.3-1-1.1-0.7-1.8c0,0,0,0,0,0c2.9-6.9,3.2-13.4,0.9-19.1
			c-4.2-10.3-15.6-15.1-15.7-15.2c-0.7-0.3-1-1.1-0.8-1.8s1.1-1,1.8-0.8l0,0c0.5,0.2,12.6,5.3,17.3,16.7c2.7,6.5,2.4,13.6-0.9,21.3
			C694.3,394.1,693.6,394.4,693,394.3z"/>
		<path class="st3" d="M660.5,390h-0.1c-0.8-0.1-1.4-0.8-1.4-1.6c0,0,0,0,0,0c0.6-8.6-1.3-15.3-5.8-20c-7.4-7.6-19.2-7.3-19.3-7.3
			c-0.8,0-1.5-0.6-1.6-1.4s0.6-1.5,1.4-1.6c0.5,0,13.3-0.4,21.5,8.2c5.1,5.3,7.4,12.8,6.7,22.3C661.9,389.4,661.3,390.1,660.5,390z"
			/>
		<path class="st1" d="M825.5,880.8c0,0,3.6-20.5,49.4-30.1s79.6,39.8,79.6,39.8h-129L825.5,880.8z"/>
		<path class="st4" d="M957.4,892H824v-11.4c0.2-0.9,4.3-21.6,50.6-31.3c19.2-4,39.3,1.7,58.2,16.6c8.7,6.8,16.4,14.9,22.9,23.8
			L957.4,892z M827,889h124.5c-7.4-9.6-37.7-45-76.3-36.8c-42.3,8.9-47.9,27.3-48.3,28.8V889z"/>
		<path class="st5" d="M894.2,831.4c9.7-4.8,32.6,0,37.4,9.7s-3.6,16.9-12,19.3s-20.2-9.5-20.2-9.5L894.2,831.4z"/>
		<path class="st0" d="M917.2,862.2c-8.7,0-18.4-9.8-18.9-10.3l-0.3-0.3l-5.6-21l1.1-0.5c10.4-5.2,34.1-0.3,39.4,10.3
			c1.8,3.4,2,7.4,0.5,11c-2.4,5.5-8.6,9-13.5,10.4C919.1,862,918.1,862.1,917.2,862.2z M900.7,850c3.3,3.3,12.4,10.6,18.4,8.9
			c4.3-1.2,9.6-4.2,11.6-8.7c1.2-2.7,1-5.9-0.5-8.5c-4.3-8.6-24.7-13.1-34.3-9.5L900.7,850z"/>
		<circle class="st1" cx="645.9" cy="395.1" r="34"/>
		<path d="M651.7,361.7c18.5,3.2,30.9,20.8,27.7,39.3s-20.8,30.9-39.3,27.7c-18.5-3.2-30.9-20.8-27.7-39.3c0,0,0,0,0-0.1
			C615.7,370.8,633.3,358.5,651.7,361.7 M652.2,358.9c-20-3.5-39,9.9-42.5,29.9c-3.5,20,9.9,39,29.9,42.5c20,3.5,39-9.9,42.5-29.9
			C685.6,381.5,672.2,362.4,652.2,358.9z"/>
		<path class="st5" d="M861.7,849.5c0,0,4.8-20.5,21.7-22.9s31.3,6,30.2,22.9s-21.7,19.3-32.5,15.7S861.7,849.5,861.7,849.5z"/>
		<path class="st0" d="M890.6,868.1c-3.4,0-6.9-0.5-10.2-1.5c-11.2-3.7-19.7-15.7-20-16.2l-0.4-0.5l0.2-0.7
			c0.2-0.9,5.3-21.5,23-24.1c10.2-1.4,19.4,0.9,25.3,6.4c4.8,4.5,7.1,10.8,6.6,18.1c-0.3,5.7-3.3,11-8.1,14.1
			C902.3,866.8,896.3,868.1,890.6,868.1z M863.3,849.2c1.8,2.4,9.2,11.6,18.1,14.6c6.7,2.2,17,2.1,23.8-2.5c4-2.6,6.6-7,6.7-11.8
			c0.5-6.4-1.5-11.8-5.6-15.7c-5.2-4.9-13.5-6.9-22.8-5.6C869.6,830.1,864.3,845.8,863.3,849.2z"/>
		<path class="st5" d="M824.3,865.2c-10.2,5.1-12,15.7-10.8,25.3s13.3,18.1,24.1,13.3s6-16.9,0-22.9s4.8-15.7,10.8-7.2
			s22.9,7.2,32.6,0s2.4-25.3-10.8-30.2s-27.7-7.2-33.8,6S829.1,862.8,824.3,865.2z"/>
		<path class="st0" d="M831,906.7c-3.3,0-6.5-0.9-9.4-2.5c-5.3-3-9-8.1-9.6-13.4c-1.6-12.8,2.5-22.3,11.7-26.9l0.8-0.4
			c3.9-1.9,5.1-2.5,10.6-14.6c6.9-15.2,23.7-11.2,35.6-6.8c8.4,3.2,14.5,10.6,16.1,19.5c0.8,5.6-0.9,10.3-4.8,13.3
			c-6.8,4.8-15.2,6.9-23.4,5.9c-5-0.8-8.9-2.9-11.2-6.2c-1.8-2.6-3.9-2.8-5.2-2.6c-2,0.3-3.7,1.8-4.5,3.7c-0.5,1.5-0.1,3.2,1.1,4.2
			c4.1,4.1,7.8,11,6.7,17c-0.7,3.7-3.2,6.6-7.1,8.4C835.9,906.2,833.5,906.7,831,906.7z M825,866.5c-10.1,5.1-11,15.7-10,23.8
			c0.5,4.4,3.7,8.7,8.1,11.2c4.2,2.5,9.4,2.8,13.9,0.9c3.1-1.4,4.9-3.5,5.4-6.2c0.9-4.9-2.4-10.8-5.9-14.3c-2-1.8-2.7-4.7-1.8-7.3
			c1.1-3,3.7-5.2,6.8-5.8c3.1-0.5,6,0.9,8.1,3.8c2.4,3.3,6.3,4.5,9.3,5c7.5,1,15-0.9,21.2-5.3c3-2.3,4.3-6,3.7-10.5
			c-1.1-7.3-7-14.5-14.1-17.1c-17.3-6.3-27.4-4.6-31.9,5.2c-5.7,12.5-7.3,13.7-12,16L825,866.5z"/>
		<path class="st1" d="M506.8,423.2c0,0-6.7-30.5,14-41.6s24.1-6.2,34.6-12.8s34-3.5,45.9,12.2c0,0,29.3-0.1,43,16.9
			s13.7,29.5,8.7,46.4s-4.6,26.4-7.7,38.4s-16.8,42-67.1,34.3C527.8,509.3,506.8,423.2,506.8,423.2z"/>
		<path d="M576,366.3c9.3,1.6,19,6.4,25.4,14.8c4,0.1,8,0.5,12,1.2c9.7,1.7,23,5.8,31,15.7c13.8,17,13.7,29.5,8.6,46.4
			s-4.6,26.4-7.7,38.4s-16.8,42-67.1,34.3l-0.9-0.2c-49.7-8.7-70.4-93.7-70.4-93.7s-6.7-30.5,14-41.6c20.7-11,24.1-6.2,34.6-12.8
			C560.3,365.9,568,364.9,576,366.3 M576.5,363.6c-8.7-1.5-17.1-0.4-22.5,3c-4.3,2.6-7.1,3.2-11.1,4c-5.1,1-11.5,2.4-23.4,8.6
			c-9.3,5-15,14.3-16.2,27.1c-0.6,5.8-0.3,11.7,0.8,17.5v0.1c4,15.3,9.7,30.1,16.8,44.2c6.7,13.2,14.3,24.1,22.3,32.5
			c10.3,10.6,21.5,17,33.5,19.1l1,0.2c22.5,3.5,40.5,0,53.4-10.3c8.3-6.6,14.2-15.8,16.8-26c1.2-4.9,2.2-9.9,2.8-14.9
			c1-7.9,2.7-15.7,4.9-23.4c5.2-17.4,5.4-31-9.1-49c-8.5-10.6-22.5-14.9-32.7-16.7c-3.7-0.7-7.4-1.1-11.1-1.2
			C596.5,370.7,587,365.4,576.5,363.6L576.5,363.6z"/>
		<path class="st6" d="M386,531.7c61.8-19.3,216.6,10.5,260.1,65.3c24.8,31.2,50,89.3,75,161.9c10.6,30.7,29.6,59.4,65.5,56
			c23.2-2.3,47.4,14,44,29.8c-6.6,31-61.9,51.2-61.9,51.2L331,894c0,0-50.7-100.7-2.5-201.8c0,0-95.1,40-134.1,22.6
			s-90-123.8-51.1-134.7l-7.7-26.4l60.6-34.4l12.8,16.2c0,0,19.7-23.4,33.5-6.4c13.8,17,35.6,51.7,35.6,51.7S293.1,560.8,386,531.7z
			"/>
		<path class="st0" d="M768.8,897.3L768.8,897.3L331,895.5c-0.6,0-1.1-0.3-1.3-0.8c-0.1-0.3-12.8-25.8-19.5-63.4
			c-6-34-8-84.8,15.3-136.3c-14.2,5.7-66.9,25.7-105.6,25.7c-9.9,0-18.9-1.3-26.1-4.5c-30.3-13.5-68.4-80.8-65.8-116.1
			c0.8-10.9,5.4-18,13.5-20.9l-7.3-25c-0.2-0.7,0.1-1.4,0.7-1.7l60.6-34.4c0.6-0.4,1.5-0.2,1.9,0.4l11.7,14.8
			c3.2-3.4,12.1-11.8,21.6-11.8h0.1c4.9,0,9.2,2.3,12.8,6.8c12,14.8,30.1,43.1,34.7,50.2c5.4-5.3,28.4-23.4,107.3-48l0.4,1.4
			l-0.4-1.4c30-9.4,84-7.5,137.7,4.8c58.8,13.5,104,35.7,124.1,60.9c23,28.9,47.6,82,75.2,162.4c13.5,39.3,35,57.8,63.9,55
			c14.7-1.4,31.2,4.5,40,14.5c4.8,5.4,6.8,11.5,5.6,17.1c-6.7,31.4-60.6,51.5-62.9,52.3C769.1,897.3,769,897.3,768.8,897.3z
			 M332,892.5l436.5,1.8c4-1.5,54.6-21.2,60.7-50c1.3-6-2-11.2-4.9-14.5c-8.3-9.3-23.7-14.8-37.5-13.5c-2,0.2-4,0.3-6,0.3
			c-27.4,0-47.9-19.2-61-57.3c-27.6-80.1-52-132.9-74.8-161.5c-19.7-24.7-64.3-46.6-122.4-59.9c-53.2-12.2-106.6-14.1-136.2-4.9
			c-90.9,28.4-107.1,48.3-107.2,48.5c-0.3,0.4-0.8,0.6-1.3,0.6c-0.5,0-0.9-0.3-1.2-0.7c-0.2-0.3-21.9-34.8-35.5-51.6
			c-3-3.7-6.5-5.6-10.5-5.7h-0.1c-10.2,0-20.4,11.9-20.5,12c-0.3,0.4-0.7,0.6-1.2,0.6c-0.5,0-0.9-0.2-1.2-0.6l-12-15.2l-58.4,33.2
			l7.3,25.3c0.1,0.4,0.1,0.8-0.1,1.2c-0.2,0.3-0.5,0.6-0.9,0.7c-7.7,2.1-12,8.4-12.7,18.7c-2.6,34.4,34.5,100,64,113.2
			c38,16.9,132-22.3,132.9-22.7c0.8-0.3,1.6,0.1,2,0.8c0.2,0.4,0.2,0.8,0,1.2c-24.7,51.9-22.7,103.6-16.7,137.8
			C319.1,864.1,329.8,887.9,332,892.5z"/>
		<path class="st3" d="M517.7,527.8c0,0-24,3.5-13,25.6s32.4,15.4,32.4,15.4s42.4,46,55.4-11.5L517.7,527.8z"/>
		<path class="st0" d="M568.5,587.8c-14.3,0-28.7-14-31.9-17.3c-4.4,1-23.1,3.9-33.3-16.4c-3.5-7-4-13.1-1.5-17.9
			c4.2-8.1,15.1-9.7,15.6-9.8l0.4-0.1l76.4,30.1l-0.3,1.3c-3.8,17-10.7,26.9-20.3,29.5C572,587.5,570.3,587.8,568.5,587.8z
			 M537.6,567.1l0.7,0.7c0.2,0.2,19.2,20.5,34.7,16.4c8.2-2.2,14.2-10.9,17.8-26l-73.2-28.8c-1.8,0.4-9.9,2.2-13,8.2
			c-2.1,4-1.6,9.1,1.5,15.2c10.4,20.7,29.8,14.9,30.6,14.6L537.6,567.1z"/>
		<circle class="st7" cx="572" cy="720.2" r="6.8"/>
		<circle class="st7" cx="443.1" cy="610.6" r="6.8"/>
		<circle class="st7" cx="398.1" cy="728.6" r="6.8"/>
		<circle class="st7" cx="470.4" cy="703.2" r="6.8"/>
		<circle class="st7" cx="623" cy="619.2" r="6.8"/>
		<circle class="st7" cx="548.1" cy="645.8" r="6.8"/>
		<circle class="st7" cx="442.2" cy="572" r="6.8"/>
		<circle class="st7" cx="298.2" cy="634.5" r="6.8"/>
		<circle class="st7" cx="227.4" cy="582.7" r="6.8"/>
		<circle class="st7" cx="175.7" cy="611.2" r="6.8"/>
		<circle class="st7" cx="633.9" cy="622" r="6.8"/>
		<path class="st8" d="M138.6,554.9l57.4-33.4l13,15.8c0,0-16.2,38.7-63.8,42.8L138.6,554.9z"/>
		<path class="st4" d="M322.1,708.5c-0.1,0-0.3,0-0.4-0.1c-0.8-0.2-1.2-1.1-1-1.8c8.7-30.7,46.8-87.6,48.5-90
			c0.5-0.7,1.4-0.9,2.1-0.4c0.7,0.5,0.9,1.4,0.4,2.1l0,0c-0.4,0.6-39.4,59-48.1,89.2C323.4,708.1,322.8,708.5,322.1,708.5z"/>
		<path class="st3" d="M306.4,586.8c-1.7,0-3-1.3-3-3c0-0.9,0.5-1.8,1.2-2.4c45-33.2,87.3-41.7,114.9-42.9c30-1.4,49,5.1,49.9,5.4
			c1.6,0.6,2.4,2.3,1.8,3.8c-0.6,1.6-2.3,2.4-3.8,1.8c-0.2-0.1-19-6.4-47.9-5c-26.6,1.3-67.6,9.5-111.3,41.7
			C307.6,586.6,307,586.8,306.4,586.8z"/>
		<line class="st9" x1="455.1" y1="640.5" x2="306.3" y2="639.3"/>
		<path class="st1" d="M774.8,883.7c0,0,4.5-25.8,62.1-37.9s100,50,100,50H774.8V883.7z"/>
		<path class="st4" d="M939.8,897.3H773.3v-13.9c0.2-1.1,5.4-26.9,63.3-39.1c24-5,49.2,2.1,72.8,20.8c10.9,8.6,20.6,18.7,28.7,29.9
			L939.8,897.3z M776.3,894.3H934c-7.7-10-16.6-19.1-26.5-26.9c-16-12.6-41.2-26.3-70.3-20.1c-54.1,11.4-60.5,34.8-60.9,36.6V894.3z
			"/>
		<path class="st5" d="M861.1,821.6c12.1-6.1,40.9,0,47,12.1s-4.6,21.2-15.1,24.2s-25.3-12-25.3-12L861.1,821.6z"/>
		<path class="st0" d="M890,859.8c-10.7,0-22.9-12.3-23.4-12.8l-0.3-0.3l-6.9-26l1.1-0.5c6.1-3,16.3-3.4,26.8-0.9
			c10.9,2.6,19.2,7.7,22.2,13.7c2.3,4.2,2.5,9.2,0.7,13.5c-3,6.8-10.6,11.1-16.8,12.8C892.3,859.7,891.2,859.8,890,859.8z
			 M869,845.2c2,2,14.7,13.9,23.6,11.3c5.5-1.6,12.3-5.3,14.8-11.2c1.5-3.4,1.3-7.1-0.6-11c-2.6-5.2-10.1-9.7-20.2-12.1
			c-9-2.2-18.1-2.1-23.6,0.1L869,845.2z"/>
		<path class="st5" d="M820.2,844.3c0,0,6.1-25.8,27.3-28.8s39.4,7.6,37.9,28.8s-27.3,24.2-40.9,19.7S820.2,844.3,820.2,844.3z"/>
		<path class="st0" d="M856.6,867.3c-4.3,0-8.5-0.6-12.6-1.9c-14-4.7-24.6-19.6-25-20.3l-0.4-0.5l0.2-0.7
			c0.3-1.1,6.5-26.8,28.5-29.9c12.7-1.8,24.1,1.1,31.5,7.9c6,5.6,8.8,13.3,8.2,22.5c-0.3,7.1-4.1,13.6-10,17.5
			C871.1,865.7,863.7,867.3,856.6,867.3z M821.8,844c2,2.7,11.5,14.7,23.1,18.6c8.4,2.8,21.5,2.6,30.3-3.2c5.2-3.4,8.4-9,8.7-15.2
			c0.6-8.2-1.9-15.1-7.2-20.1c-6.7-6.2-17.2-8.8-29-7.1C829.6,819.6,823,840,821.8,844z"/>
		<path class="st5" d="M773.2,864c-12.9,6.4-15.2,19.7-13.6,31.8s16.7,22.7,30.3,16.7s7.6-21.2,0-28.8s6.1-19.7,13.6-9.1
			s28.8,9.1,40.9,0s3-31.8-13.6-37.9s-34.9-9.1-42.4,7.6S779.3,861,773.2,864z"/>
		<path class="st0" d="M781.7,915.7c-4.1,0-8.1-1.1-11.7-3.1c-6.5-3.7-11.1-10-11.9-16.6c-1.4-11.2,0-26.1,14.5-33.3l1-0.5
			c5-2.5,6.6-3.2,13.5-18.5c8.6-18.8,29.4-13.8,44.3-8.4c10.2,3.7,18.4,13.6,19.9,24.2c1,6.9-1.1,12.7-5.9,16.3
			c-8.5,6-18.9,8.6-29.2,7.3c-6.2-1-11-3.6-13.9-7.6c-2.4-3.4-5.1-3.8-7-3.5c-2.7,0.5-5,2.3-5.9,4.9c-0.7,2-0.1,4.3,1.5,5.7
			c5.1,5.1,9.7,13.6,8.3,21c-0.8,4.5-3.9,8.1-8.8,10.3C787.7,915.1,784.7,915.8,781.7,915.7z M773.9,865.3
			c-12.9,6.5-14.1,20-12.8,30.3c0.7,5.6,4.7,11.1,10.4,14.4c5.4,3.2,12,3.6,17.8,1.1c4-1.8,6.4-4.5,7-8.1c1.2-6.3-3.1-13.9-7.5-18.3
			c-2.4-2.2-3.3-5.6-2.2-8.7c1.3-3.7,4.5-6.4,8.3-7c2.2-0.3,6.4-0.2,9.8,4.7c3,4.3,8.1,5.8,11.9,6.4c9.5,1.2,19.1-1.2,26.9-6.8
			c3.9-2.9,5.6-7.7,4.8-13.5c-1.4-9.3-9-18.5-18-21.8c-21.9-8-34.8-5.8-40.5,6.8c-7.1,15.6-8.9,17-14.9,20L773.9,865.3z"/>
		<path class="st5" d="M71.8,467.8c0,0-21.3,51.6,57.7,79.1c0,0,43.4,13.1,64.5-6.9v-5.5c0,0,31.1-18.9,25.6-40
			c0,0-22.2-7.8-47.8,17.8c0,0-13.3-38.9-54.4-38.9c0,0-16.7-10-23.3-1.1C94,472.2,86.3,462.2,71.8,467.8z"/>
		<path d="M80.3,466.1c5.2,0,10.2,2.2,13.7,6.1c2-2.7,5-3.7,8.2-3.7c7.1,0,15.1,4.8,15.1,4.8c41.1,0,54.4,38.9,54.4,38.9
			c15.9-15.9,30.5-18.9,39.3-18.9c2.9-0.1,5.8,0.3,8.5,1.1c5.6,21.1-25.6,40-25.6,40v5.6c-9.1,8.7-22.5,11.1-34.7,11.1
			c-10.1-0.1-20.1-1.5-29.8-4.2c-78.9-27.5-57.7-79.1-57.7-79.1C74.5,466.7,77.4,466.2,80.3,466.1 M80.3,463.1
			c-3.3,0-6.5,0.7-9.5,1.9c-0.8,0.3-1.4,0.9-1.7,1.7c-4.4,12.7-3.7,26.6,1.9,38.9c8.6,19,27.9,33.9,57.6,44.2h0.1
			c10,2.8,20.3,4.2,30.7,4.3c16,0,28.4-4,36.7-12c0.6-0.5,0.9-1.3,0.9-2.1v-3.9c6.4-4.2,30.8-21.9,25.4-42.4c-0.3-1-1-1.7-1.9-2.1
			c-3.1-0.9-6.3-1.3-9.5-1.3c-9.2,0-23.1,3-38.2,16.7c-2.8-5.9-6.4-11.3-10.6-16.2c-11-12.9-27.1-20.4-44.1-20.5
			c-2.3-1.3-9.3-4.8-15.9-4.8c-2.9-0.1-5.8,0.8-8.3,2.4C90.1,464.8,85.3,463.1,80.3,463.1L80.3,463.1z"/>
		<path d="M166.2,531.5L166.2,531.5c-0.9,0-1.5-0.7-1.5-1.6c0-0.2,0.1-4.1-3.9-8c-4.4-4.2-14.3-8.9-36.7-7.1c-0.6,0-1.1-0.2-1.4-0.7
			c-0.2-0.3-15.6-25.6-29.8-40.9c-0.5-0.7-0.3-1.6,0.4-2.1c0.6-0.4,1.3-0.3,1.8,0.1c13,14,26.9,36.1,29.7,40.5
			c18.5-1.3,31.3,1.4,38.2,8.1c4.9,4.8,4.7,10,4.7,10.2C167.7,530.9,167,531.5,166.2,531.5z"/>
		<path d="M145.1,507c-0.6,0-1.2-0.4-1.4-0.9c-0.1-0.2-6.8-16.5-27.3-32.7c-0.7-0.5-0.8-1.4-0.3-2.1s1.4-0.8,2.1-0.3
			c0,0,0.1,0.1,0.1,0.1c21.2,16.7,28,33.3,28.2,33.9c0.3,0.8-0.1,1.6-0.8,1.9c0,0,0,0,0,0C145.5,507,145.3,507,145.1,507z"/>
		<path class="st3" d="M127.8,539.8c-0.1,0-0.2,0-0.3,0C95.8,534.1,79,503.3,78.3,502c-0.5-1-0.2-2.2,0.8-2.7c1-0.5,2.2-0.2,2.7,0.8
			c0.2,0.3,16.6,30.3,46.3,35.6c1.1,0.1,1.9,1.1,1.8,2.2S128.9,539.9,127.8,539.8L127.8,539.8z"/>
		<path class="st5" d="M536.8,505.6L514,540.3c0,0,16.4,43.6,75.2,12.1c0,0-21.5-26.7-4.8-62.5c0,0,15.3,7.9,22.9-5.4
			s-0.2-23-8.3-24.4c0,0-34-2.8-18.8-66c0,0-30.7-9.5-55.1,10.2s-42.4,51.1-30.7,74S536.8,505.6,536.8,505.6z"/>
		<path d="M574.7,392.9c1.9,0.3,3.7,0.7,5.5,1.2c-13.9,57.7,13.3,65,18.1,65.9c0.5,0.1,0.7,0.1,0.7,0.1c8.1,1.4,15.8,11.1,8.3,24.4
			c-4.4,7.8-11.5,8.3-16.6,7.4c-2.2-0.4-4.3-1-6.3-2c-16.7,35.7,4.8,62.5,4.8,62.5c-19.9,10.7-35,12.8-46.2,10.8
			c-21.8-3.8-29-22.9-29-22.9l22.8-34.7c0,0-0.3,0-0.7-0.1c-4.7-0.8-30.9-6.3-41.5-27.1c-11.7-22.9,6.3-54.3,30.7-74.1
			C543.3,389.7,564.8,391.2,574.7,392.9 M575.2,390.1c-11.4-2-33.2-3-51.8,12.1c-13,10.6-23.5,23.6-29.6,36.8
			c-7,15.1-7.6,29.2-1.8,40.6c9.6,18.9,31,25.7,40.1,27.9l-20.5,31.2c-0.5,0.7-0.6,1.7-0.3,2.5c5.5,13,17.3,22.2,31.1,24.6
			c13.7,2.4,29.8-1.3,48-11.1c1.4-0.7,1.9-2.4,1.1-3.7c-0.1-0.2-0.2-0.3-0.3-0.4c-3.7-5.2-6.5-11-8.2-17.1
			c-3.8-13.3-2.9-26.7,2.7-40c1.4,0.5,2.9,0.9,4.4,1.2c8.5,1.5,15.4-1.6,19.5-8.8c3.8-6.8,4.5-13.6,1.8-19.3
			c-2.3-4.8-6.7-8.3-12-9.3h-0.3l-0.5-0.1c-2-0.3-8.7-2-13.8-9.7c-7.1-10.8-7.8-29-2.1-52.8c0.3-1.4-0.5-2.9-1.9-3.3
			C579.2,391,577.3,390.5,575.2,390.1L575.2,390.1z"/>
		<path d="M535.3,507.8c-0.9-0.2-1.8-0.4-2.7-0.6c-0.7-0.2-1.2-1-1-1.7c0.2-0.7,1-1.2,1.7-1c9,2.5,20.7-0.2,20.8-0.3
			c0.7-0.2,1.5,0.3,1.7,1c0.2,0.7-0.3,1.5-1,1.7l0,0C554.4,507.1,544.4,509.4,535.3,507.8z"/>
		<path d="M589.5,484.9c-0.8-0.1-1.3-0.9-1.1-1.6c0.1-0.5,0.4-0.9,0.9-1.1c5.2-1.9,8.2-4.3,8.9-7.2c0.9-4.2-3.1-8.2-3.2-8.2
			c-0.6-0.5-0.6-1.4,0-2c0.5-0.6,1.4-0.6,2,0c0.2,0.2,5.2,5.2,3.9,10.8c-0.9,3.9-4.5,7-10.7,9.2C590,484.9,589.7,484.9,589.5,484.9z
			"/>
		<path class="st10" d="M550.3,428.8c12,12.7,35.2,19.7,35,27s-7.4,12.3-16.1,8.7s-16.2-9.1-30.8-21s-28.1-24.8-20.6-31.8
			S532.7,410,550.3,428.8z"/>
		<path d="M541.4,431c-0.7-0.1-1.2-0.7-1.2-1.4c0.2-4.1-0.9-7.5-3.3-10c-4.8-5.1-13.2-5.2-13.3-5.2c-0.8,0-1.4-0.6-1.4-1.4
			c0-0.8,0.6-1.4,1.4-1.4c0.4,0,9.7,0.1,15.3,6.1c2.9,3.1,4.3,7.2,4.1,12.1c-0.1,0.7-0.7,1.3-1.5,1.2H541.4z"/>
		<path d="M575,458.9c-0.6-0.1-1-0.5-1.1-1.1c-3-15.8-17.1-14.8-17.7-14.8c-0.8,0.1-1.4-0.5-1.5-1.3c-0.1-0.8,0.5-1.4,1.3-1.5l0,0
			c0.2,0,17.2-1.3,20.7,17c0.1,0.7-0.3,1.5-1.1,1.6c0,0,0,0,0,0C575.3,458.9,575.2,458.9,575,458.9z"/>
		<path d="M550.4,412.6c-2.8-0.5-5.5-1.4-7.9-2.8c-0.7-0.4-0.9-1.3-0.5-1.9c0.4-0.7,1.3-0.9,1.9-0.5l0,0c3.1,1.7,6.7,2.7,10.3,2.8
			c0.8,0,1.4,0.6,1.4,1.4c0,0.8-0.6,1.4-1.4,1.4C553,412.9,551.7,412.8,550.4,412.6z"/>
		<path d="M543.7,481.1c-4.3-0.8-8.2-3.1-10.9-6.5c-0.5-0.6-0.4-1.5,0.2-1.9c0.6-0.5,1.5-0.4,1.9,0.2c0,0,0,0.1,0.1,0.1
			c0.3,0.4,7.1,9.7,20.6,3.4c0.7-0.4,1.5-0.1,1.9,0.6c0.4,0.7,0.1,1.5-0.6,1.9c-0.1,0-0.1,0.1-0.2,0.1
			C551.7,481.3,547.3,481.7,543.7,481.1z"/>
		<path d="M602.2,460.8c-5.3-0.8-10.2-2.8-14.6-5.8c-0.6-0.5-0.6-1.4-0.1-2c0.5-0.5,1.2-0.6,1.8-0.2c11.2,8.5,31.3,5.6,31.5,5.6
			c0.8-0.1,1.5,0.4,1.6,1.2c0.1,0.8-0.4,1.5-1.2,1.6C614.9,461.9,608.5,461.9,602.2,460.8z"/>
		<path class="st3" d="M603.3,453.9c-0.1,0-0.3-0.1-0.4-0.1c-28.6-14.6-16.9-47-16.7-47.4c0.3-0.7,1.1-1.1,1.8-0.8s1.1,1.1,0.8,1.8
			c-0.5,1.2-11,30.4,15.4,43.9c0.7,0.3,1,1.2,0.6,1.9C604.5,453.7,603.9,454,603.3,453.9L603.3,453.9z"/>
		<path d="M528.4,451.1c-0.4-0.1-0.7-0.3-0.9-0.5c-0.4-0.6-0.3-1.5,0.3-1.9c0,0,0,0,0,0l22.9-16.6c0.6-0.5,1.5-0.4,2,0.2
			c0.5,0.6,0.4,1.5-0.2,2c-0.1,0-0.1,0.1-0.2,0.1l-22.9,16.6C529.2,451.1,528.8,451.2,528.4,451.1z"/>
		<circle class="st6" cx="590.1" cy="493.9" r="5.6"/>
		<path d="M591,488.4c3,0.5,5.1,3.4,4.5,6.4c-0.5,3-3.4,5.1-6.4,4.5c-3-0.5-5.1-3.4-4.5-6.4c0,0,0,0,0,0
			C585.1,489.9,588,487.9,591,488.4C591,488.4,591,488.4,591,488.4 M591.5,485.7c-4.5-0.8-8.9,2.2-9.7,6.8s2.2,8.9,6.8,9.7
			s8.9-2.2,9.7-6.8c0,0,0,0,0,0C599.1,490.8,596.1,486.5,591.5,485.7z"/>
	</g>
	<g id="computer">
		<circle class="st7" cx="524.4" cy="821.6" r="6"/>
		<circle class="st7" cx="371.7" cy="815.7" r="6"/>
		<circle class="st7" cx="452.6" cy="808.3" r="6"/>
		<path class="st1" d="M639.9,891.1H321.3c-13,0-23.5-10.5-23.5-23.5V675.5c0-13,10.5-23.5,23.5-23.5h318.7
			c13,0,23.5,10.5,23.5,23.5v192.1C663.4,880.6,652.9,891.1,639.9,891.1z"/>
		<path class="st4" d="M639.9,892.6H321.3c-13.8,0-25-11.2-25-25V675.5c0-13.8,11.2-25,25-25h318.7c13.8,0,25,11.2,25,25v192.1
			C664.9,881.4,653.7,892.6,639.9,892.6z M321.3,653.5c-12.2,0-22,9.8-22,22l0,0v192.1c0,12.2,9.8,22,22,22l0,0h318.7
			c12.2,0,22-9.8,22-22l0,0V675.5c0-12.2-9.8-22-22-22l0,0H321.3z"/>
		<path class="st2" d="M676.8,891.6H296.6c-11.5,0-20.8-9.3-20.8-20.8v0l0,0l0,0h422l0,0l0,0C697.7,882.2,688.3,891.6,676.8,891.6z"
			/>
		<path class="st0" d="M676.8,893.1H296.6c-12.3,0-22.3-10-22.3-22.3v-1.5h424.9v1.5C699.2,883.1,689.2,893.1,676.8,893.1z
			 M277.3,872.2c0.8,10.1,9.2,17.8,19.3,17.8h380.3c10.1,0,18.5-7.8,19.3-17.8H277.3z"/>
		<path class="st3" d="M310.9,849.7c-1.7,0-3-1.3-3-3V690.1c0-1.7,1.3-3,3-3s3,1.3,3,3v156.6C313.9,848.4,312.6,849.7,310.9,849.7z"
			/>
		<path class="st2" d="M463.3,754.9h19.8c5.6,0,10.2,4.6,10.2,10.2v19.8c0,5.6-4.6,10.2-10.2,10.2h-19.8c-5.6,0-10.2-4.6-10.2-10.2
			V765C453.1,759.4,457.7,754.9,463.3,754.9z"/>
		<path class="st0" d="M483.1,796.5h-19.8c-6.4,0-11.7-5.2-11.7-11.7V765c0-6.4,5.2-11.7,11.7-11.7h19.8c6.4,0,11.7,5.2,11.7,11.7
			v19.8C494.8,791.3,489.6,796.5,483.1,796.5C483.1,796.5,483.1,796.5,483.1,796.5z M463.3,756.4c-4.8,0-8.6,3.9-8.7,8.6v19.8
			c0,4.8,3.9,8.7,8.7,8.7h19.8c4.8,0,8.7-3.9,8.7-8.7V765c0-4.8-3.9-8.7-8.7-8.7L463.3,756.4z"/>
	</g>
	<g id="question-2">
		<path class="st11" d="M261.5,133.1c-20.6-19.7-43.9-29.7-69.3-29.7c-11.9,0-26.1,4.3-43.3,13.1c-21,10.7-31.2,22.1-31.2,34.8
			c0,6.9,2.6,13.5,7.3,18.5c4.6,5.4,11.4,8.6,18.5,8.6c3.3,0,8-1,25.5-12.6c12.2-8.1,19.4-9.8,23.2-9.8c11.6,0,22.5,4.7,33.2,14.4
			c10.9,9.8,16.2,19.9,16.2,31c0,7.9-6.7,17.9-19.3,28.8l-41.4,31.2l-0.1,0.1c-17.4,13.7-25.5,25.2-25.5,36.2
			c0.3,14.4,11.9,26,26.3,26.3c7.2,0,13.7-3.4,19.4-10c6.5-7.5,18.5-17.6,35.6-30c18.4-13.1,30.8-23.6,37.8-32.1
			c12-14.1,18.4-32,18.3-50.4C292.6,175.8,282.1,152.9,261.5,133.1z"/>
		<path class="st4" d="M181.5,325.4c-15.2-0.4-27.5-12.6-27.8-27.8c0-11.5,8.3-23.3,26.1-37.4l0.2-0.1l41.4-31.1
			c12.3-10.6,18.8-20.2,18.8-27.6c0-10.6-5.1-20.4-15.7-29.9c-10.4-9.4-20.9-14-32.2-14c-3.6,0-10.5,1.7-22.4,9.6
			c-17.9,11.9-22.7,12.9-26.4,12.9c-7.6,0-14.7-3.3-19.7-9.1c-4.9-5.3-7.7-12.3-7.7-19.5c0-13.3,10.5-25.2,32-36.2
			c17.5-8.9,31.9-13.3,44-13.3c25.9,0,49.5,10.1,70.4,30.1l0,0c21,20.1,31.6,43.4,31.6,69.3c0.2,18.8-6.5,37.1-18.6,51.4
			c-7.1,8.6-19.6,19.2-38.1,32.4c-17,12.3-28.9,22.4-35.3,29.8C196.1,321.8,189.1,325.4,181.5,325.4z M192.1,154.4
			c12,0,23.2,4.8,34.2,14.8c11.2,10.1,16.7,20.6,16.7,32.1c0,8.4-6.9,18.7-19.8,29.9l-0.1,0.1l-41.5,31.3
			c-17,13.4-24.9,24.5-24.9,35c0.4,13.6,11.3,24.5,24.8,24.8c6.7,0,12.9-3.2,18.3-9.5c6.6-7.6,18.6-17.8,35.8-30.2
			c18.3-13,30.6-23.4,37.5-31.8c11.7-13.8,18.1-31.4,18-49.5c0-25-10.3-47.6-30.7-67.1l0,0c-20.3-19.4-43.3-29.2-68.3-29.2
			c-11.7,0-25.6,4.2-42.6,12.9c-20.5,10.4-30.4,21.4-30.4,33.5c0,6.5,2.4,12.8,6.9,17.5c4.3,5.1,10.7,8,17.4,8.1
			c2.9,0,7.5-1,24.7-12.4C180.6,156.2,188.1,154.4,192.1,154.4L192.1,154.4z"/>
		<path class="st11" d="M169.2,334.4c-6.7,0-16.2,2.4-23.6,13.5c-4.7,7.1-7.2,15.5-7.1,24.1c0,7.4,3.2,13.9,9.2,18.9
			c5.3,4.6,12.2,7.1,19.2,7.1c6.2,0,15-2.3,21.7-13.2c3.8-6.5,5.8-14,5.7-21.5C194.3,337.2,176.7,334.4,169.2,334.4z"/>
		<path class="st4" d="M166.9,399.5c-7.4,0-14.6-2.6-20.2-7.4c-6.4-5.3-9.8-12.2-9.8-20.1c-0.1-8.9,2.5-17.6,7.4-25
			c7.8-11.7,17.8-14.2,24.8-14.2c8,0,26.6,3,26.6,30.4c0.1,7.8-2,15.5-5.9,22.3C182.8,397.1,173.5,399.5,166.9,399.5z M169.2,335.9
			c-6.3,0-15.3,2.2-22.3,12.9c-4.6,6.9-7,15-6.9,23.3c0,6.9,3,13,8.7,17.8c5.1,4.4,11.6,6.7,18.3,6.7c5.8,0,14.1-2.2,20.4-12.5
			c3.7-6.3,5.6-13.4,5.5-20.7C192.8,338.5,176.3,335.9,169.2,335.9L169.2,335.9z"/>
		<path class="st3" d="M278.5,225.5c-0.2,0-0.4,0-0.6-0.1c-1.6-0.3-2.7-1.9-2.4-3.5c0,0,0,0,0,0c5.2-27.5,1.4-50.1-11.2-67.4
			c-20-27.3-55.8-32-56.2-32c-1.7-0.2-2.8-1.7-2.6-3.4s1.7-2.8,3.4-2.6c1.6,0.2,38.7,5,60.3,34.4c13.7,18.7,17.8,43,12.3,72.2
			C281.2,224.5,279.9,225.5,278.5,225.5z"/>
		<path class="st11" d="M306.2,388.7c-3.4-11.1-9.7-19.3-18.7-24.3c-4.2-2.4-10.1-3.6-18-4c-9.6-0.4-15.5,1.6-18,6.2
			c-1.4,2.4-1.8,5.3-1.1,8c0.6,2.8,2.4,5.3,4.9,6.7c1.2,0.6,3,1.2,11.6,0.6c5.9-0.5,8.8,0.4,10.2,1.1c4.1,2.3,7,6.1,8.9,11.7
			s1.8,10.3-0.4,14.2c-1.6,2.8-5.9,5-12.6,6.4l-20.9,2.9H252c-8.9,1.4-14.1,3.9-16.2,7.8c-2.7,5.2-0.9,11.6,4.1,14.6
			c2.6,1.4,5.6,1.5,8.9,0.3c3.8-1.4,10.1-2.6,18.6-3.6c9.1-1,15.6-2.3,19.8-3.9c7-2.6,12.9-7.7,16.5-14.3
			C308.8,410.1,309.6,399.8,306.2,388.7z"/>
		<path class="st4" d="M244.4,443.3c-1.8,0-3.6-0.4-5.2-1.3c-5.8-3.4-7.8-10.7-4.7-16.6c2.4-4.3,7.9-7,17.3-8.5h0.1l20.8-2.8
			c6.1-1.3,10.2-3.3,11.5-5.6c2-3.5,2.1-7.8,0.3-13s-4.5-8.8-8.3-10.9c-1-0.5-3.5-1.4-9.3-0.9c-9,0.7-11,0-12.4-0.8
			c-2.9-1.6-5-4.4-5.6-7.7c-0.8-3.1-0.3-6.3,1.2-9.1c2.8-5.1,9.2-7.3,19.4-6.9c8.1,0.3,14.2,1.7,18.7,4.1
			c9.4,5.3,15.9,13.7,19.5,25.2l0,0c3.5,11.5,2.6,22.2-2.6,31.6c-3.8,6.9-9.9,12.2-17.3,15c-4.3,1.7-10.9,3-20.2,4
			c-8.4,1-14.6,2.2-18.3,3.5C247.7,442.9,246.1,443.3,244.4,443.3z M270.1,380.3c3.4,0,6,0.5,7.7,1.4c4.5,2.5,7.6,6.6,9.6,12.5
			s1.9,11.1-0.5,15.4c-1.8,3.3-6.4,5.6-13.6,7.1h-0.1l-20.9,2.9c-8.4,1.3-13.3,3.6-15.2,7c-2.3,4.5-0.8,10,3.6,12.5
			c2.1,1.2,4.7,1.3,7.6,0.2c3.9-1.4,10.3-2.6,18.9-3.7c9-1,15.4-2.2,19.4-3.8c6.7-2.5,12.3-7.3,15.8-13.6c4.9-8.7,5.6-18.5,2.4-29.2
			s-9.4-18.6-18-23.4c-4-2.2-9.7-3.5-17.3-3.8c-9-0.4-14.4,1.4-16.6,5.4c-1.2,2.1-1.5,4.6-0.9,7c0.5,2.4,2,4.5,4.2,5.7
			c1,0.6,3,1,10.7,0.4C267.9,380.3,269.1,380.3,270.1,380.3z"/>
		<path class="st11" d="M231.8,447c-2.4-1.3-6.2-2.4-11.1,0.1c-3.1,1.6-5.6,4.1-7.3,7.2c-1.5,2.6-1.6,5.8-0.5,8.5
			c1,2.7,2.9,4.9,5.4,6.3c2.2,1.2,5.8,2.2,10.3-0.4c2.6-1.6,4.8-3.8,6.3-6.5C240.2,453,234.5,448.5,231.8,447z"/>
		<path class="st4" d="M223.1,471.9c-1.9,0-3.7-0.5-5.4-1.4c-2.8-1.6-5-4.1-6.1-7.1c-1.3-3.2-1.1-6.8,0.6-9.8c1.8-3.3,4.6-6,7.9-7.8
			c5.4-2.8,9.8-1.6,12.5-0.1l0,0c2.4,1.3,9.8,6.5,3.8,17.3c-1.6,2.9-4,5.4-6.8,7.1C227.5,471.3,225.3,471.9,223.1,471.9z
			 M226.6,447.2c-1.8,0-3.5,0.5-5.1,1.4c-2.8,1.5-5.2,3.7-6.7,6.5c-1.2,2.2-1.4,4.9-0.4,7.3c0.9,2.4,2.6,4.3,4.8,5.6
			c2.7,1.5,5.7,1.4,8.9-0.4c2.4-1.4,4.4-3.5,5.7-5.9c4.4-7.8,0.2-11.6-2.6-13.2l0,0C229.7,447.6,228.2,447.2,226.6,447.2z"/>
		<path class="st3" d="M298.5,419.5c-1.7,0-3-1.3-3-3c0-0.4,0.1-0.7,0.2-1.1c4.5-11.3,4.8-21,1-28.6c-5.5-10.9-17.8-14.3-17.9-14.4
			c-1.6-0.4-2.6-2.1-2.1-3.7c0.4-1.6,2.1-2.6,3.7-2.1c0.6,0.2,15,4.1,21.7,17.4c4.7,9.3,4.5,20.6-0.7,33.6
			C300.9,418.8,299.8,419.5,298.5,419.5z"/>
	</g>
</g>
</svg>
