<?xml version="1.0" encoding="utf-8"?>
<!-- Generator: Adobe Illustrator 24.1.2, SVG Export Plug-In . SVG Version: 6.00 Build 0)  -->
<svg version="1.1" id="response_1_" xmlns="http://www.w3.org/2000/svg" xmlns:xlink="http://www.w3.org/1999/xlink" x="0px"
	 y="0px" viewBox="0 0 1000 1000" style="enable-background:new 0 0 1000 1000;" xml:space="preserve">
<style type="text/css">
	.st0{fill:#1D1E1B;}
	.st1{fill:#D9CFFF;}
	.st2{fill:#6C32AD;}
	.st3{fill:#FFFFFF;}
	.st4{fill:#1D1D1B;}
	.st5{fill:#FFAD00;}
	.st6{fill:none;}
	.st7{fill:#E89D00;}
	.st8{fill:#FFC140;}
	.st9{fill:#FFCDB2;}
</style>
<g id="response">
	<g id="line">
		<path class="st0" d="M894.5,941c-0.8,0-1.5-0.7-1.5-1.5v-580c0-0.8,0.7-1.5,1.5-1.5s1.5,0.7,1.5,1.5v580
			C896,940.3,895.3,941,894.5,941z"/>
		<path class="st0" d="M923.5,405c-0.8,0-1.5-0.7-1.5-1.5v-114c0-0.8,0.7-1.5,1.5-1.5s1.5,0.7,1.5,1.5v114
			C925,404.3,924.3,405,923.5,405z"/>
	</g>
	<g id="leaf">
		<path class="st1" d="M771.9,621c-58.8,70.3-124.3,126.2-197.9,164.8c-116.9,61.3-261.4,29.8-342.8-74.1
			C146.6,604,98.4,474.6,81.5,326.9c153.6-20.7,257-33,373-159.4C493.9,388.3,557.5,632.5,771.9,621z"/>
		<path class="st0" d="M447.2,818.5c-84.8,0-164.9-39-217.2-105.7c-42.1-54-76-113.9-100.4-177.9c-24.4-63.3-41-133.2-49.6-207.7
			l-0.2-1.5l7.7-1c151.6-20.4,251.8-33.9,365.9-158.1l2-2.2l0.5,3c18.8,105.2,44.6,224.7,93,313.4c53.8,98.6,126.7,144,222.9,138.9
			l3.5-0.2L773,622c-60.5,72.4-127.3,128-198.4,165.2C535.3,807.8,491.6,818.5,447.2,818.5z M83.1,328.2
			c17.4,149.7,67.6,278.5,149.3,382.7c81.2,103.6,224.6,134.6,340.9,73.7c69.9-36.6,135.6-91.1,195.3-161.8
			c-49.7,2-94.1-9.9-132-35.4c-34.5-23.2-64.8-58.6-90.3-105.2c-48.1-88.2-73.9-206.6-92.7-311.4c-52.4,56.6-106.1,93.7-168.5,116.7
			c-58.8,21.6-122.9,30.2-197.1,40.2L83.1,328.2z"/>
		<path class="st2" d="M273,754.6c0,0,107.5,30.9,161.5-34.1c0,0,47,107,122.5,73.5C557,794,411.5,868.7,273,754.6z"/>
		<path class="st0" d="M444.5,819.5c-23.3,0-46.6-3.1-69.1-9.2c-36.8-10.1-71.6-28.4-103.4-54.6l-5.6-4.6l7,2
			c18.8,4.8,38.1,7.2,57.5,7.3h2.6c30.3-0.4,72.3-7.8,99.8-40.9l1.5-1.9l1,2.2c0.3,0.6,25.9,58.1,68.7,74.7
			c16.9,6.5,34.3,5.9,51.8-1.9l1.3,2.7c-0.4,0.2-37.3,18.9-90.6,23.2C459.5,819.2,452,819.5,444.5,819.5z M279.2,757.7
			c69.4,54.7,140,61.8,187.5,58c22.8-1.9,45.3-6.5,67-13.8c-10.3,0.9-20.6-0.6-30.2-4.4c-39.1-15.2-64.1-63.3-69.3-74.1
			c-28.3,32.5-70.2,39.8-100.6,40.2C315.2,763.6,297,761.6,279.2,757.7L279.2,757.7z"/>
		<path class="st0" d="M173.6,419l-0.2-3c0.4,0,39.7-2.9,88.8-17c45.2-13,108.1-38.3,151.2-85.5l2.2,2
			c-43.6,47.8-107.1,73.4-152.7,86.4C213.6,416.1,174,419,173.6,419z"/>
		<path class="st0" d="M221.4,486c-7.3,0.1-14.7-0.3-22-1l0.4-3c0.3,0,33.1,4.1,78.9-4.4c60.3-11.1,116.1-39.3,160.9-81.2l2.1,2.2
			c-45.2,42.3-101.7,70.8-162.6,82C260,484.1,240.7,486,221.4,486z"/>
		<path class="st0" d="M256.6,577.2c-6.4,0-10.1-0.3-10.3-0.3l0.2-3c21.6,0.9,43.1-0.8,64.3-5c32.7-6.3,78.2-21.6,109.4-58.5
			l2.3,1.9c-31.8,37.5-78,53.1-111.2,59.5C293.4,575.4,275,577.2,256.6,577.2z"/>
		<path class="st3" d="M216.5,641.5c-1.6,0-3.2-0.7-4.4-1.9c-56.6-59.6-94-248-95.5-256c-0.6-3.3,1.5-6.4,4.7-7
			c3.3-0.6,6.4,1.5,7,4.7c0.4,1.9,38.3,193,92.5,250c2.3,2.4,2.2,6.2-0.2,8.5C219.5,640.9,218,641.5,216.5,641.5L216.5,641.5z"/>
		<path class="st0" d="M149.5,355c-0.6,0-1.2-0.4-1.4-1c-13.2-40.2-19.7-82.3-19.2-124.6c0.4-33.5,5.3-66.7,14.5-98.9
			c15.7-55,38.7-88.5,39-88.9c0.5-0.7,1.4-0.8,2.1-0.4c0.7,0.5,0.8,1.4,0.4,2.1c-0.2,0.3-23.1,33.5-38.6,88.1
			c-14.3,50.3-25.1,129.6,4.8,221.6c0.2,0.8-0.2,1.6-1,1.9c0,0,0,0,0,0C149.8,354.9,149.6,355,149.5,355z"/>
		<path class="st0" d="M199.5,339c-0.5,0-0.9-0.2-1.2-0.6c-30.3-38.7-28.7-87.9-22-122.4c4.5-22.9,11.8-45.1,21.9-66.1
			c0.4-0.7,1.3-1,2-0.7c0.7,0.4,1,1.3,0.6,2c-9.9,20.8-17.2,42.8-21.6,65.4c-6.5,33.9-8.1,82.2,21.5,120c0.5,0.7,0.4,1.6-0.3,2.1
			C200.2,338.9,199.8,339,199.5,339z"/>
		<path class="st0" d="M361.6,851.7c-20.8,0.1-41.4-4-60.6-12c-21-8.8-40.6-22.4-58.3-40.4c-30.1-30.6-44.4-63.9-44.6-64.2
			c-0.3-0.8,0-1.6,0.8-2c0.8-0.3,1.6,0,2,0.8c0.1,0.3,14.3,33.2,44,63.4c27.4,27.8,73.9,59,140.4,49.7c0.8-0.1,1.6,0.5,1.7,1.3
			c0.1,0.8-0.5,1.6-1.3,1.7l0,0C377.7,851.1,369.6,851.7,361.6,851.7z"/>
		<path class="st1" d="M709.9,287.2c-22,1.7-42.7-0.1-61.7-6.2c-30.3-9.8-49.2-39.8-45.1-71.4c4.3-32.7,18.4-62.8,40.9-90.6
			c29.5,22.9,49,38.6,90.3,37.2C703,200.2,671.8,252.3,709.9,287.2z"/>
		<path class="st0" d="M694.5,289.3c-15.9,0.2-31.7-2.2-46.8-6.9c-31-10-50.3-40.7-46.1-73c4.2-32,18.1-62.8,41.2-91.4l0.9-1.1
			l2.3,1.8c28.9,22.5,48,37.3,88.2,36l3-0.1l-1.8,2.5c-33.9,47.7-60.4,96.3-24.6,129l2.5,2.3l-3.4,0.3
			C704.8,289.1,699.6,289.3,694.5,289.3z M644.3,121c-22.2,27.8-35.6,57.7-39.7,88.7c-4.1,30.8,14.4,60.2,44,69.8
			c17.3,5.6,36.7,7.7,57.8,6.4c-33.2-33.6-8.1-81.3,24.9-128.2C692,158.3,671.9,142.6,644.3,121L644.3,121z"/>
		<path class="st2" d="M602.8,224c0,0,12.8,23.7,33.1,22c0,0-10.5,26.1,8,33.4C643.9,279.5,606.6,267,602.8,224z"/>
		<path class="st0" d="M643.5,280.9c-0.4-0.1-38.3-13.2-42.1-56.7l-0.6-7.1l3.4,6.3c0.1,0.2,12.6,22.8,31.7,21.2l2.4-0.2l-0.9,2.3
			c-0.1,0.1-5.4,13.8-1.3,23.5c1.6,3.7,4.6,6.6,8.4,8L643.5,280.9z M605.2,230.3c4.2,23.1,18.7,36,28.8,42.4c-0.3-0.5-0.5-1-0.7-1.5
			c-3.7-8.5-1-19.2,0.5-23.7C620.2,247.6,610.2,237.1,605.2,230.3L605.2,230.3z"/>
		<path class="st0" d="M700.4,175.6c-29.5,0-56.3-23.4-57.4-24.5l2-2.3c0.3,0.3,28.3,24.7,57.3,23.7l0.1,3
			C701.7,175.6,701.1,175.6,700.4,175.6z"/>
		<path class="st0" d="M692.4,194.1c-36.5-1.6-56.4-27.3-56.6-27.5l2.4-1.8c0.2,0.3,19.2,24.8,54.3,26.3L692.4,194.1z"/>
		<path class="st0" d="M667,210.1c-21.8,0-38.3-19.1-39-19.9l2.3-1.9c0.2,0.2,17.7,20.3,39.3,18.8l0.2,3
			C668.8,210.1,667.9,210.1,667,210.1z"/>
		<path class="st3" d="M613.8,196.7L613.8,196.7c-1.5,0-2.5-1.2-2.5-2.6c0,0,0,0,0,0c0.7-20.1,27-58.5,28.1-60.2
			c0.8-1.2,2.3-1.5,3.5-0.7c1.2,0.8,1.5,2.3,0.7,3.5c0,0,0,0.1-0.1,0.1c-0.3,0.4-26.5,38.9-27.2,57.5
			C616.2,195.6,615.1,196.7,613.8,196.7z"/>
		<path class="st0" d="M590.5,200L590.5,200c-0.8,0-1.5-0.7-1.5-1.5c0,0,0,0,0,0c0.5-43.3,16.7-73.9,30.2-92
			c14.6-19.6,28.9-28.9,29.5-29.2c0.7-0.4,1.6-0.2,2,0.6c0.4,0.7,0.2,1.5-0.4,2c-0.2,0.1-14.5,9.4-28.8,28.6
			c-13.2,17.7-29,47.7-29.5,90.1C592,199.3,591.3,200,590.5,200C590.5,200,590.5,200,590.5,200z"/>
		<path class="st1" d="M699.4,537.7c-7.9-20.6-12-40.9-11.6-60.9c0.8-31.8,24.2-58.5,55.7-63.5c32.6-5.2,65.5-0.2,98.5,13.5
			c-13.6,34.8-23.1,58-10,97.2C780.9,506.4,722,491.2,699.4,537.7z"/>
		<path class="st0" d="M699.2,541.4l-1.2-3.2c-8.2-21.3-12.1-42-11.7-61.5c0.8-32.5,24.8-59.9,56.9-64.9
			c31.9-5.1,65.3-0.5,99.3,13.5l1.4,0.6l-1.1,2.8c-13.3,34.1-22.2,56.6-9.5,94.8l1,2.9l-2.9-1c-55.4-19-109.5-30.5-130.7,13
			L699.2,541.4z M768.8,412.7c-8.4,0-16.8,0.7-25.1,2c-30.7,4.9-53.6,31-54.4,62.1c-0.4,18.1,3,37.4,10.3,57.2
			c22.8-41.4,75.6-30.9,130-12.5c-11.6-37.5-2.3-61.3,10.4-94l0,0C815.9,417.7,792,412.7,768.8,412.7z"/>
		<path class="st2" d="M729.6,417c0,0-19.1,19-11.7,38c0,0-28-2.6-29.8,17.2C688.1,472.2,689.4,432.9,729.6,417z"/>
		<path class="st0" d="M689.6,472.4l-3-0.2c0-0.4,1.8-40.5,42.4-56.5l6.7-2.6l-5.1,5.1c-0.2,0.2-18.3,18.6-11.3,36.4l0.9,2.3
			l-2.4-0.2c-0.2,0-14.8-1.3-22.9,5.5C691.7,464.6,689.8,468.3,689.6,472.4z M724.2,421.1c-20.9,10.5-29.2,28.1-32.5,39.7
			c0.4-0.4,0.8-0.8,1.2-1.1c7.1-5.9,18.1-6.4,22.8-6.3C711.9,440.4,719.1,427.8,724.2,421.1L724.2,421.1z"/>
		<path class="st0" d="M804.3,498.7c-9.6-28.7,5.9-62.5,6.5-63.9l2.7,1.3c-0.2,0.3-15.7,34.1-6.4,61.7L804.3,498.7z"/>
		<path class="st0" d="M783.7,494.4c-8.9-35.5,10.1-61.8,10.3-62l2.4,1.8c-0.2,0.3-18.3,25.5-9.8,59.5L783.7,494.4z"/>
		<path class="st0" d="M762,477.2c-8.2-21.7,6.5-44.7,7.1-45.7l2.5,1.6c-0.1,0.2-14.5,22.7-6.8,43L762,477.2z"/>
		<path class="st3" d="M825.5,431.3c-0.3,0-0.5,0-0.8-0.1c-0.5-0.1-44.8-14.4-62.9-9.7c-1.3,0.3-2.7-0.5-3-1.9
			c-0.3-1.3,0.5-2.6,1.8-3c19.5-5,63.8,9.2,65.7,9.8c1.3,0.4,2,1.8,1.6,3.1C827.6,430.7,826.6,431.4,825.5,431.3L825.5,431.3z"/>
		<path class="st0" d="M662.5,443c-0.1,0-0.3,0-0.4-0.1c-0.8-0.2-1.2-1.1-1-1.9c0.2-0.8,5.8-19.1,24.6-35.1
			c17.3-14.7,49.3-29.9,104.1-19c0.8,0.2,1.3,1,1.1,1.8c-0.2,0.8-0.9,1.2-1.7,1.1c-42.4-8.5-77.5-2.2-101.5,18.2
			c-18.1,15.4-23.7,33.6-23.8,33.8C663.8,442.5,663.2,443,662.5,443z"/>
	</g>
	<g id="pencil">
		<path class="st2" d="M565.2,654.7l-35.6,23.5c-8.4,5.5-19.7,3.2-25.2-5.2l0,0l-96.3-145.9l0,0l65.9-43.5l0,0l96.3,145.9
			C575.9,637.9,573.5,649.1,565.2,654.7L565.2,654.7L565.2,654.7z"/>
		<path class="st0" d="M519.6,682.6c-6.6,0-12.8-3.3-16.5-8.8L406,526.6l68.4-45.2l97.1,147.2c6,9.1,3.5,21.3-5.5,27.3l-35.6,23.5
			C527.2,681.5,523.4,682.7,519.6,682.6z M410.2,527.5l95.5,144.7c5.1,7.7,15.4,9.8,23.1,4.7l35.6-23.5c7.7-5.1,9.8-15.4,4.7-23.1
			l-95.5-144.7L410.2,527.5z"/>
		<polygon class="st3" points="403.1,449.5 474,483.6 408.1,527.1 		"/>
		<path class="st4" d="M406.8,529.7l-5.4-82.7l75.7,36.3L406.8,529.7z M404.8,452l4.7,72.4l61.5-40.6L404.8,452z"/>
		<polygon class="st5" points="438.5,466.5 405.6,488.3 403.2,448.8 		"/>
		<path class="st0" d="M403.2,448.8l35.4,17.7l-33,21.8L403.2,448.8 M403.2,445.8c-0.6,0-1.2,0.2-1.6,0.5c-0.9,0.6-1.4,1.6-1.3,2.7
			l2.4,39.5c0.1,1.1,0.7,2,1.6,2.5c0.4,0.2,0.9,0.3,1.3,0.3c0.6,0,1.2-0.2,1.7-0.5l33-21.8c1.4-0.9,1.8-2.8,0.8-4.2
			c-0.3-0.4-0.7-0.8-1.2-1l-35.4-17.7C404.1,445.9,403.7,445.8,403.2,445.8L403.2,445.8z"/>
		<line class="st6" x1="457.1" y1="494.7" x2="560.5" y2="657.7"/>
		<path class="st0" d="M560.5,659.2c-0.5,0-1-0.3-1.3-0.7l-103.4-163c-0.4-0.7-0.2-1.6,0.5-2.1c0.7-0.4,1.6-0.2,2,0.4l103.4,163
			c0.4,0.7,0.2,1.6-0.5,2.1C561.1,659.1,560.8,659.2,560.5,659.2L560.5,659.2z"/>
		<line class="st6" x1="430.1" y1="512.5" x2="534.1" y2="675.1"/>
		<path class="st0" d="M534.1,676.6c-0.5,0-1-0.3-1.3-0.7l-104-162.6c-0.4-0.7-0.2-1.6,0.5-2.1c0.7-0.4,1.6-0.2,2.1,0.5l104,162.6
			c0.4,0.7,0.2,1.6-0.5,2.1C534.7,676.6,534.4,676.6,534.1,676.6L534.1,676.6z"/>
	</g>
	<g id="sleeve">
		<path class="st5" d="M895.5,890.5c-59.2,18.6-263.2-22.8-288.5-61.3s-3.2-62.9-3.2-62.9l-24.6-24.8l66.1-102l19.8,12.7
			c0,0,38.3-28,71.2-0.9s149.6,23.3,159,46.2"/>
		<path class="st4" d="M853.9,896.6c-31.1,0-72.1-4.8-115.7-13.8c-54.8-11.4-118.4-31.3-132.5-52.7c-22.6-34.4-7.9-58.3-3.9-63.6
			l-24.5-24.7L645,637.4l20.3,13c5.9-3.9,41.5-25.5,72.2-0.2c16.3,13.4,54.6,19.3,88.4,24.5c35.5,5.4,66.1,10.2,71,22.3l-2.8,1.1
			c-4.3-10.5-35.6-15.3-68.7-20.4c-35.9-5.5-73-11.2-89.9-25.1c-31.6-26-69,0.7-69.4,0.9l-0.8,0.6l-19.4-12.5l-64.6,99.8l24.7,25
			l-1,1c-0.9,1-20.9,24.1,3.3,61.1c11.2,17,62.4,37.2,130.6,51.4C806.7,894,868,897.6,895,889.1l0.9,2.9
			C886,895.1,871.5,896.6,853.9,896.6z"/>
		<path class="st7" d="M664.9,655.9c0,0,25.5,54.3-59,111.4l-23.6-25l63-97.8L664.9,655.9z"/>
		<circle class="st8" cx="794.4" cy="712.8" r="10.6"/>
		<circle class="st8" cx="687.7" cy="723.7" r="10.6"/>
		<circle class="st8" cx="662.3" cy="835.7" r="10.6"/>
		<circle class="st8" cx="799.6" cy="826" r="10.6"/>
		<circle class="st8" cx="720.1" cy="790.2" r="10.6"/>
	</g>
	<path class="st9" d="M573,561c-12.1-10.9-34.7-20.1-46-21.4c-5-0.5-10,0.1-14.7,2c0,0,37.1,49.1,36.7,50.4l-112.2-26.3
		c0,0-36,32,23.4,66.2c0,0-8.6,30.2,8.8,53.4c0,0-16.6,21.2,25.8,54.4s112.4,21.1,112.4,21.1L634.6,650C634.6,650,601,582,573,561z"
		/>
	<path class="st0" d="M577,764.9c-24.3,0-58.3-4.2-83.4-23.8c-38.1-29.8-30.1-50.6-27-55.9c-14.8-20.8-10.2-46-8.7-52.5
		c-20.9-12.3-32.3-25.8-33.8-40.1c-1.7-16.7,10.8-28,11.3-28.5l0.8-0.7L544.8,589c-6.2-8.9-22.9-31.4-34-46.1l-1.6-2.1l2.4-1
		c5-2,10.3-2.7,15.6-2.1c12.3,1.4,35,11,47,21.8c28,21.1,60.8,86.9,62.1,89.7l0.3,0.7l-27.9,112.6l-1.3,0.2
		C597.4,764.2,587.2,765,577,764.9z M437.4,567.9c-2.5,2.6-10.6,12-9.3,24.5c1.4,13.2,12.5,26,33.1,37.8l1.4,0.8l-0.4,1.5
		c-0.1,0.3-8.1,29.5,8.5,51.6l0.9,1.2l-1,1.2c-0.6,0.8-14.6,20.2,25.5,51.6c38.1,29.8,99.9,22.3,109.6,20.9l26.9-108.7
		c-3.5-7-34.8-68.3-60.7-87.7l-0.1-0.1c-11.3-10.2-33.3-19.6-44.9-20.9c-3.8-0.4-7.6-0.1-11.2,1c3.1,4.1,10,13.3,16.8,22.5
		c19.1,25.7,18.9,26.2,18.4,27.5l-0.6,1.7L437.4,567.9z"/>
	<line class="st6" x1="546.3" y1="590.6" x2="519.3" y2="582.5"/>
	<path d="M522.7,656.8c3,0.2,5.9,0.2,8.9,0.1c1.1-0.3,1.7-1.4,1.4-2.5c-0.2-0.8-0.9-1.3-1.7-1.4c-0.4,0-36.9,2.2-69.3-23.1
		c-1-0.5-2.2-0.1-2.7,0.9c-0.4,0.7-0.3,1.6,0.3,2.2C477.8,647,499.7,655.3,522.7,656.8z"/>
	<path d="M525.3,707.6c4.2,0.3,6.9,0.2,7.3,0.2c1.1-0.2,1.8-1.3,1.5-2.4c-0.2-0.8-0.8-1.4-1.6-1.5c-0.4,0-41,0.7-63.2-21.6
		c-0.9-0.6-2.2-0.4-2.8,0.6c-0.4,0.7-0.4,1.5,0,2.2C484.3,702.9,512.1,706.8,525.3,707.6z"/>
	<path class="st3" d="M549.2,752.7c16.7,1,27.5-3.5,27.9-3.7c1.1-0.2,1.8-1.3,1.6-2.4c-0.2-1.1-1.3-1.8-2.4-1.6
		c-0.3,0.1-0.5,0.2-0.8,0.3c-0.5,0.2-44,17.9-91.2-29.6c-0.9-0.6-2.2-0.4-2.8,0.5c-0.5,0.7-0.5,1.6,0,2.2
		c25.7,25.8,50.2,32.7,66.3,34L549.2,752.7z"/>
	<path class="st3" d="M528,697.4c1.8,0.1,3,0.2,3.3,0.2c1.1,0,1.9-0.8,2-1.9c0-1.1-0.8-2-1.9-2c0,0,0,0,0,0
		c-0.5,0-53.2-1.8-61.8-24.1c-0.6-0.9-1.8-1.2-2.8-0.6c-0.7,0.4-1,1.2-0.9,2C474.2,692.5,515.8,696.6,528,697.4z"/>
	<path class="st3" d="M522.5,644.5c1.1-0.1,1.9-1.1,1.8-2.2c-0.1-0.8-0.6-1.4-1.3-1.7c-0.7-0.1-65.4-12.8-81.2-42.8
		c-0.3-1.1-1.4-1.7-2.5-1.3c-1.1,0.3-1.7,1.4-1.3,2.5c0.1,0.2,0.2,0.5,0.4,0.7c16.7,31.8,81.2,44.3,84,44.9
		C522.3,644.4,522.4,644.5,522.5,644.5z"/>
	<path class="st3" d="M842.5,885.5h-0.3c-184.4-12-219.5-63.1-220.9-65.3c-1.5-2.3-0.8-5.4,1.6-6.9c2.3-1.4,5.3-0.8,6.8,1.4
		c0.2,0.3,8.8,12.5,39,25.9c28.1,12.6,81.2,28.8,174.2,34.9c2.8,0.1,4.9,2.4,4.8,5.2C847.6,883.4,845.3,885.6,842.5,885.5
		L842.5,885.5z"/>
</g>
</svg>
