<?xml version="1.0" encoding="utf-8"?>
<!-- Generator: Adobe Illustrator 24.1.2, SVG Export Plug-In . SVG Version: 6.00 Build 0)  -->
<svg version="1.1" id="search_1_" xmlns="http://www.w3.org/2000/svg" xmlns:xlink="http://www.w3.org/1999/xlink" x="0px" y="0px"
	 viewBox="0 0 1000 1000" style="enable-background:new 0 0 1000 1000;" xml:space="preserve">
<style type="text/css">
	.st0{fill:#1D1D1B;}
	.st1{fill:#FFAD00;}
	.st2{fill:#E89D00;}
	.st3{fill:#FFC140;}
	.st4{fill:#FFCDB2;}
	.st5{fill:#1D1E1B;}
	.st6{fill:#6C32AD;}
	.st7{fill:#1D1F1C;}
	.st8{fill:#D9CFFF;}
	.st9{fill:#FFFFFF;}
	.st10{fill:none;}
</style>
<g id="search">
	<g id="line">
		<path class="st0" d="M912,938H481.9c-1.1,0-2-0.9-2-2s0.9-2,2-2H912c1.1,0,2,0.9,2,2S913.1,938,912,938z"/>
		<path class="st0" d="M913,937.1c-1.1,0-2-0.9-2-2V480.9c0-1.1,0.9-2,2-2s2,0.9,2,2v454.3C915,936.2,914.1,937.1,913,937.1z"/>
		<path class="st0" d="M537.4,963H449c-1.1,0-2-0.9-2-2s0.9-2,2-2h88.4c1.1,0,2,0.9,2,2S538.5,963,537.4,963z"/>
		<path class="st0" d="M870.2,501.2c-1.1,0-2-0.9-2-2v-88.4c0-1.1,0.9-2,2-2s2,0.9,2,2v88.4C872.2,500.3,871.3,501.2,870.2,501.2
			C870.2,501.2,870.2,501.2,870.2,501.2z"/>
	</g>
	<g id="sleeve">
		<path class="st1" d="M911.9,934.8c10.5-61.1-37.7-214.2-79.2-234s-62.8,5.3-62.8,5.3l-27.9-21l-92.2,79.3l15.3,17.9
			c0,0-22.5,41.8,8.8,70.7s66.9,75.4,90.8,81.6"/>
		<path class="st0" d="M764.3,936.1c-16.7-4.3-38.1-27-60.8-50.9c-10.2-10.7-20.7-21.8-30.6-31c-29.2-27-12.6-65.2-9.5-71.6
			l-15.6-18.3l1.1-1l93.1-80.1l27.8,20.9c4.7-4.6,26.4-22.4,63.5-4.7c19.5,9.3,41.8,47.6,59.9,102.4
			c17.2,52.2,25.1,104.5,20.2,133.2l-3-0.5c4.8-28.3-3-80-20-131.8c-17.5-53.3-39.9-91.8-58.3-100.6c-39.9-19.1-60.1,4-61,5
			l-0.9,1.1l-1.1-0.8L742.2,687L652,764.6l15,17.6l-0.5,0.9c-0.2,0.4-21.6,41.1,8.5,68.9c10,9.2,20.5,20.4,30.7,31.2
			c21.4,22.6,43.5,46,59.4,50.1L764.3,936.1z"/>
		<path class="st2" d="M668.8,781.5c0,0,57.2,17.9,102.4-73.5l-28-20l-88.4,75.6L668.8,781.5z"/>
		<circle class="st3" cx="742.6" cy="902.1" r="10.6"/>
		<circle class="st3" cx="739.1" cy="794.9" r="10.6"/>
		<circle class="st3" cx="846.5" cy="754.6" r="10.6"/>
		<circle class="st3" cx="855.5" cy="892" r="10.6"/>
		<circle class="st3" cx="809.3" cy="818" r="10.6"/>
	</g>
	<path class="st4" d="M588.5,622c0,0-19.3,36.3,12.7,77.6s61.2,82.8,61.2,82.8l55.8-58.2L588.5,622z"/>
	<path class="st0" d="M662.3,784.8l-1-1.5c-0.3-0.4-29.5-41.9-61.1-82.8c-32.2-41.6-13.1-78.8-12.9-79.2l0.8-1.6L720.5,724
		L662.3,784.8z M589.1,624.4c-3.2,7.5-13.8,39.2,13.3,74.3c28.3,36.5,54.7,73.6,60.2,81.4l53.4-55.7L589.1,624.4z"/>
	<path id="finger" class="st4" d="M562,660c-25,6-25,30-15,43s47,34,59,27s-42-70-42-70"/>
	<path class="st5" d="M599.8,732.9c-16.4,0-45.5-17.8-54-29c-6.3-8.2-8.3-19.3-5.1-28.3c2.1-6,7.5-13.8,20.9-17.1l0.7,2.9
		c-9.6,2.3-16.1,7.5-18.8,15.2c-2.8,8-1,18.2,4.6,25.5c8.7,11.3,37.2,27.8,51.6,27.8c1.9,0.1,3.8-0.3,5.5-1.2
		c0.5-0.3,0.9-0.9,0.9-1.5c1.8-10.7-30.7-51.4-43.3-66.2l2.3-2c4.8,5.5,46.4,54.6,44,68.7c-0.2,1.5-1.1,2.8-2.4,3.6
		C604.6,732.4,602.2,732.9,599.8,732.9z"/>
	<g id="magnifying_glass">
		<path class="st6" d="M494.5,539.1L494.5,539.1c18-14.5,44.3-11.6,58.7,6.4l147.5,183.4c14.5,18,11.6,44.3-6.4,58.7l0,0
			c-18,14.5-44.3,11.6-58.7-6.4L488.1,597.8C473.6,579.9,476.5,553.6,494.5,539.1z"/>
		<path class="st7" d="M668.3,798.3c-13.1,0-25.5-5.9-33.8-16.1L487,598.8c-15-18.6-12-45.9,6.6-60.9c18.6-15,45.9-12,60.9,6.6
			l147.5,183.4c15,18.6,12.1,45.8-6.5,60.8C687.7,794.9,678.1,798.3,668.3,798.3z M520.6,531.4c-22.2,0-40.3,18-40.3,40.3
			c0,9.2,3.1,18.1,8.9,25.3l147.6,183.4c13.9,17.3,39.3,20.1,56.6,6.1s20.1-39.3,6.1-56.6L552,546.4
			C544.4,536.9,532.8,531.3,520.6,531.4z"/>
		<path class="st6" d="M500.5,590.3l43.4-34.9c13.4-10.8,33.1-8.7,43.9,4.8l23.5,29.2c10.8,13.4,8.7,33.1-4.8,43.9l-43.4,34.9
			c-13.4,10.8-33.1,8.7-43.9-4.8l-23.5-29.2C485,620.8,487.1,601.2,500.5,590.3z"/>
		<path class="st7" d="M543.7,676.6c-9.9,0-19.3-4.5-25.5-12.2l-23.5-29.3c-11.3-14.1-9.1-34.7,5-46l43.4-34.9
			c14.1-11.3,34.7-9.1,46,5l23.5,29.3c11.3,14.1,9.1,34.7-5,46l-43.3,34.9C558.3,674.1,551.1,676.6,543.7,676.6z M563.4,550
			c-6.8,0-13.3,2.3-18.6,6.5l-43.4,34.9c-12.8,10.3-14.8,29-4.5,41.8l23.5,29.3c10.3,12.8,29,14.8,41.8,4.5l43.3-34.9
			c12.8-10.3,14.8-29,4.5-41.8l-23.5-29.3C581,554.1,572.4,550,563.4,550z"/>
		<circle class="st8" cx="416.2" cy="435.2" r="194.2"/>
		<path class="st5" d="M416.2,630.8c-107.9,0-195.7-87.8-195.7-195.7s87.8-195.7,195.7-195.7s195.7,87.8,195.7,195.7
			S524,630.8,416.2,630.8z M416.2,242.5c-106.2,0-192.7,86.4-192.7,192.7s86.4,192.7,192.7,192.7s192.7-86.4,192.7-192.7
			S522.4,242.5,416.2,242.5z"/>
		<circle class="st9" cx="416.2" cy="435.2" r="125.1"/>
		<path class="st0" d="M416.2,561.7c-69.9,0-126.5-56.7-126.5-126.6s56.7-126.5,126.6-126.5s126.5,56.7,126.5,126.5
			C542.6,505,486,561.6,416.2,561.7z M416.2,311.6c-68.2,0-123.5,55.3-123.5,123.6s55.3,123.6,123.5,123.6s123.6-55.3,123.6-123.6v0
			C539.6,367,484.4,311.7,416.2,311.6L416.2,311.6z"/>
		<line class="st10" x1="406.5" y1="341.5" x2="393.5" y2="519.5"/>
		
			<rect x="310.8" y="429" transform="matrix(7.289007e-02 -0.9973 0.9973 7.289007e-02 -58.5178 798.0456)" class="st7" width="178.5" height="3"/>
		<line class="st10" x1="433.5" y1="414.5" x2="426.5" y2="468.5"/>
		
			<rect x="402.8" y="440" transform="matrix(0.1283 -0.9917 0.9917 0.1283 -63.0121 811.3154)" class="st7" width="54.5" height="3"/>
		<path class="st9" d="M592.5,428c-2.8,0-5.1-2-5.4-4.8c-7.2-53.8-31.7-96-72.6-125.2c-30.7-22-59.7-28-60-28.1
			c-3-0.5-5-3.4-4.4-6.4c0.5-3,3.4-5,6.4-4.4c0.1,0,0.1,0,0.2,0c1.3,0.3,31.3,6.5,63.8,29.7c30.1,21.4,68,61.8,77.5,133
			c0.4,3-1.7,5.8-4.7,6.2c0,0,0,0,0,0C593,428,592.7,428,592.5,428z"/>
		<path class="st9" d="M331.5,593c-0.8,0-1.7-0.2-2.4-0.6c-41.2-20.3-64.3-54.9-76.4-80.3c-13.1-27.4-16.5-49.9-16.6-50.8
			c-0.4-3,1.8-5.7,4.8-6.1c2.9-0.3,5.6,1.6,6.1,4.5l0,0c0,0.2,3.4,22,15.8,48c11.4,23.7,33,56,71.2,74.9c2.7,1.3,3.8,4.6,2.5,7.4
			C335.5,591.8,333.6,593,331.5,593z"/>
		<path class="st0" d="M0,337c-0.7,0-1.3-0.3-1.6-0.9c-0.6-0.9-0.4-2.1,0.5-2.8c0.3-0.2,34.5-23.1,97.8-41
			c58.4-16.5,154.2-32,279.6-12.3c1.1,0.2,1.9,1.2,1.7,2.3s-1.2,1.9-2.3,1.7c-124.5-19.6-219.8-4.3-277.7,12.1
			c-62.8,17.7-96.5,40.3-96.9,40.5C0.8,336.9,0.4,337,0,337z"/>
		<path class="st0" d="M141,361c-1.1,0-2-0.9-2-2c0-0.6,0.3-1.2,0.8-1.6c15.9-10.9,33-19.9,50.9-27c27.9-11.1,69.9-21.8,111.8-10.3
			c1.1,0.3,1.7,1.4,1.4,2.5s-1.4,1.7-2.5,1.4c-40.8-11.2-81.9-0.7-109.2,10.2c-17.6,6.9-34.4,15.8-50.1,26.5
			C141.8,360.9,141.4,361,141,361z"/>
		<path class="st0" d="M658,478c-0.2,0-0.4,0-0.6-0.1c-1.1-0.3-1.6-1.5-1.3-2.5c0,0,0,0,0,0c21-67,10.2-115.6-2.5-144.5
			c-13.8-31.4-32.7-47.2-32.9-47.3c-0.9-0.7-1-2-0.3-2.8c0.7-0.9,2-1,2.8-0.3c0.8,0.7,19.8,16.4,33.9,48.6
			c13,29.6,24.1,79.3,2.7,147.5C659.6,477.4,658.9,478,658,478z"/>
		<path class="st0" d="M382.8,665.7c-59.7,0-99.8-24.1-123.5-45.4c-28.1-25.3-39.6-51.3-40.1-52.4c-0.4-1,0.1-2.2,1.2-2.6
			c1-0.4,2,0.1,2.5,1c0.1,0.3,11.7,26.5,39.3,51.2c25.4,22.7,69.9,48.7,137.8,43.6c1.1-0.1,2.1,0.7,2.1,1.8c0.1,1.1-0.7,2.1-1.9,2.2
			C394.2,665.4,388.4,665.7,382.8,665.7z"/>
	</g>
	<g id="hand">
		<path class="st4" d="M710.1,731.3c0,0,39.9-26.7,19.9-73.4s-53-83.8-92.1-86.7s-62.2,17.3-69.8,38.1s5.3,38.9,33.2,43.2
			c0,0-6,38.3,43.5,42.9c0,0,13.2,60.3,52.1,21L710.1,731.3z"/>
		<path d="M688.9,595.9c16.6,15.7,30.7,37.5,41.1,62c19.9,46.7-19.9,73.4-19.9,73.4l-13.3-14.8c-17.2,17.3-29.4,15.3-37.6,7.5
			c-10.4-9.8-14.5-28.6-14.5-28.6c-16-1.5-26.2-6.5-32.7-12.6c-13.6-12.8-10.8-30.3-10.8-30.3c-11.5-1.8-20.4-5.9-26.4-11.5
			c-8.6-8.1-11.3-19.4-6.8-31.7c7.6-20.8,30.6-41,69.8-38.1C656.5,572.6,673.8,581.7,688.9,595.9 M691.6,593.1
			c-16.7-15.7-34.7-24.4-53.4-25.8s-35.7,2.3-49.1,10.8c-11.3,7-20,17.5-24.6,30c-4.9,13.5-2.1,26.6,7.8,35.9
			c6.1,5.7,14.7,9.8,25,11.9c-0.1,6.4,1.2,19.5,12.3,29.9c7.6,7.2,18.5,11.7,32.2,13.4c1.6,5.9,6.2,19.5,14.9,27.8
			c8,7.5,21.3,12.5,40.1-4.7l10.5,11.8c0.1,0.1,0.2,0.2,0.2,0.2c1.3,1.3,3.4,1.4,4.9,0.4c7.5-5.5,13.9-12.4,18.6-20.4
			c7.3-12.2,13.7-32.1,2.7-57.8c-11.1-25.9-25.6-47.8-42-63.3L691.6,593.1z"/>
		<path class="st0" d="M601.6,653.5c-0.8,0-1.5-0.7-1.5-1.5c0-0.2,0-0.4,0.1-0.6c18.7-41.5,59-41.1,59.4-41.1c0.8,0,1.5,0.7,1.5,1.5
			s-0.7,1.5-1.5,1.5h-0.1c-2.1,0-39.1,0.6-56.5,39.3C602.8,653.2,602.2,653.5,601.6,653.5z"/>
		<path class="st0" d="M645.5,696.9c-0.2,0-0.4,0-0.5-0.1c-0.8-0.3-1.2-1.2-0.9-1.9c0,0,0,0,0-0.1c8.8-22.3,39.8-38.7,41.1-39.4
			c0.7-0.4,1.6-0.1,2,0.6c0.4,0.7,0.1,1.6-0.6,2l0,0c-0.3,0.2-31.3,16.6-39.7,37.9C646.7,696.5,646.2,696.9,645.5,696.9z"/>
		<path class="st9" d="M574.6,621.5c-1.7,0-3-1.3-3-3c0-0.4,0.1-0.9,0.3-1.3c8.6-18.7,21-31,36.7-36.8c25.1-9.1,49.5,2.1,50.5,2.6
			c1.5,0.8,2,2.6,1.3,4.1c-0.7,1.4-2.4,2-3.8,1.4c-0.4-0.2-23.3-10.7-46-2.4c-14.1,5.2-25.3,16.5-33.2,33.6
			C576.8,620.9,575.7,621.5,574.6,621.5z"/>
	</g>
</g>
</svg>
