<?xml version="1.0" encoding="utf-8"?>
<!-- Generator: Adobe Illustrator 24.1.2, SVG Export Plug-In . SVG Version: 6.00 Build 0)  -->
<svg version="1.1" id="shop_1_" xmlns="http://www.w3.org/2000/svg" xmlns:xlink="http://www.w3.org/1999/xlink" x="0px" y="0px"
	 viewBox="0 0 1000 1000" style="enable-background:new 0 0 1000 1000;" xml:space="preserve">
<style type="text/css">
	.st0{fill:#6C32AD;}
	.st1{fill:#D9CFFF;}
	.st2{fill:#FFFFFF;}
	.st3{fill:#FFAD00;}
	.st4{fill:#FFCDB2;}
	.st5{fill:#FFB49F;}
	.st6{fill:#E89D00;}
	.st7{fill:#FFC140;}
	.st8{fill:none;}
</style>
<g id="shop">
	<g id="line">
		<path d="M778.3,863.2L778.3,863.2l-548.7-3.3c-1.1,0-2-0.9-2-2s0.9-2,2-2l0,0l548.7,3.3c1.1,0,2,0.9,2,2S779.4,863.2,778.3,863.2z
			"/>
		<path d="M249.9,834.1h-78.9c-0.8,0-1.5-0.7-1.5-1.5s0.7-1.5,1.5-1.5h78.9c0.8,0,1.5,0.7,1.5,1.5S250.8,834.1,249.9,834.1z"/>
	</g>
	<g id="plane">
		<path d="M783.1,280.6c-6.7,0-13.4-0.4-20-1.2c-34-4.1-68.6-18.5-102.7-43c-0.7-0.5-0.8-1.5-0.3-2.1c0.5-0.6,1.3-0.8,2-0.3
			c76.3,54.7,140,47.9,179.9,32.6c43.3-16.6,68.8-46.5,69.1-46.8c0.5-0.6,1.5-0.7,2.1-0.2s0.7,1.5,0.2,2.1l0,0
			c-0.3,0.3-26.3,30.8-70.3,47.6C824,276.8,803.7,280.6,783.1,280.6z"/>
		<path d="M744.8,250.1c-17.3,0-37.7-3.6-60.8-13.6c-0.8-0.3-1.1-1.2-0.8-2c0.3-0.8,1.2-1.1,2-0.8c48.8,21,84.6,13.4,106.1,3.3
			c23.3-10.9,35.3-27.1,35.4-27.2c0.5-0.7,1.4-0.9,2.1-0.4c0.7,0.5,0.9,1.4,0.4,2.1c0,0,0,0.1-0.1,0.1c-0.5,0.7-12.4,16.8-36.4,28.1
			C777.7,246.7,761.4,250.3,744.8,250.1z"/>
		<polygon class="st0" points="686.8,218.5 582.4,157.4 615.7,156.3 689,180.7 		"/>
		<path d="M615.7,156.3l73.3,24.4l-2.2,37.8l-104.4-61.1L615.7,156.3 M615.7,153.3L615.7,153.3l-33.4,1.1c-1.7,0.1-2.9,1.4-2.9,3.1
			c0,1,0.6,2,1.5,2.5l104.4,61.1c0.5,0.3,1,0.4,1.5,0.4c1.6,0,2.9-1.2,3-2.8l2.2-37.8c0.1-1.3-0.7-2.6-2-3l-73.3-24.4
			C616.4,153.4,616,153.3,615.7,153.3L615.7,153.3z"/>
		<polygon class="st1" points="715.7,161.9 566.9,149.6 630.2,224.1 673.5,191.8 604.6,160.7 689,180.7 		"/>
		<path d="M566.9,149.6l148.8,12.2L689,180.7l-84.4-20l68.9,31.1L630.2,224L566.9,149.6 M566.9,146.6c-1.7,0-3,1.3-3,3
			c0,0.8,0.3,1.5,0.8,2l63.3,74.4c1,1.2,2.8,1.4,4.1,0.5l43.3-32.2c0.9-0.6,1.3-1.7,1.2-2.7c-0.1-1.1-0.8-2-1.8-2.4l-40.4-18.3
			l54,12.8c0.2,0.1,0.5,0.1,0.7,0.1c0.6,0,1.2-0.2,1.7-0.6l26.7-18.9c1.4-1,1.7-2.8,0.7-4.2c-0.5-0.7-1.3-1.2-2.2-1.3l-148.8-12.2
			L566.9,146.6z"/>
		<path class="st2" d="M634.6,214.3c-0.7,0-1.3-0.3-1.8-0.7l-34.4-34.4c-1-1-1-2.6,0-3.5c1-1,2.6-1,3.5,0l34.4,34.4c1,1,1,2.6,0,3.5
			C635.9,214.1,635.3,214.3,634.6,214.3L634.6,214.3z"/>
	</g>
	<g id="woman">
		<path class="st0" d="M388.9,369.4c0,0-19.9,37-43.4,16.9s-73.4-63.6-107.1-30.5s-33.1,43.1-63.2,28.8s-108,12.8-67.6,96.9
			s316.7-49.2,316.7-49.2l6.4-25.3L388.9,369.4z"/>
		<path d="M267.3,343.8c29,0,60.8,27.6,78.2,42.5c5,4.3,9.9,6,14.4,6c16.7,0,29-22.8,29-22.8l41.8,37.5l-6.4,25.2
			c0,0-159.7,77.1-254,77.1c-29.8,0-53-7.7-62.7-27.8c-33.6-70,14.7-100.5,49.3-100.5c6.3-0.1,12.6,1.1,18.4,3.6
			c8.9,4.3,15.1,6.4,20.4,6.4c12.4,0,19.1-11.8,42.8-35.1C247.2,347.2,257.1,343.8,267.3,343.8 M267.3,340.8
			c-11.8,0-22.3,4.4-31,12.9c-6.4,6.2-11.4,11.5-15.8,16.2c-11.4,12-17.1,18-24.9,18c-4.4,0-10.1-1.8-19.1-6.1
			c-6.2-2.7-12.9-4.1-19.7-3.9c-17,0-41.7,7.5-55,28.8c-8.7,13.8-15.2,38.1,3.1,76.1c9.4,19.6,31.4,29.5,65.4,29.5
			c39.5,0,94.5-13,163.4-38.7c51.2-19.1,91.5-38.5,91.9-38.6c0.8-0.4,1.4-1.1,1.6-2l6.4-25.2c0.3-1.1-0.1-2.3-0.9-3l-41.8-37.6
			c-0.5-0.5-1.3-0.8-2-0.8c-0.2,0-0.3,0-0.5,0c-0.9,0.2-1.7,0.7-2.1,1.5c-0.1,0.2-11.7,21.3-26.4,21.3c-4.2,0-8.4-1.8-12.5-5.3
			l-0.9-0.8C329.2,368.4,297,340.7,267.3,340.8L267.3,340.8z"/>
		<path class="st3" d="M448.7,473.8c0,0-79.5-6.5-148,32s-172.2,98.8-146.5,154.5s72.5,70.5,109.7,70.5c24,0,59.8-21,59.8-21
			s-21.6,54.4,0,147l400.8,2.7c0,0,78-348-205-380"/>
		<path d="M724.5,861L724.5,861l-400.8-2.7c-0.7,0-1.3-0.5-1.5-1.2C304,778.7,316.7,726.9,321,713c-9.6,5.2-37.2,19.3-57.2,19.3l0,0
			c-29.2,0-82.3-9.3-111-71.4c-6.2-13.5-5.4-28.1,2.4-43.5c6.7-13.1,18.8-27.2,35.9-41.9c30.5-26.2,72.2-50.4,108.8-71
			c68.2-38.3,148-32.2,148.9-32.2c0.8,0.1,1.4,0.8,1.4,1.6c0,0,0,0,0,0c-0.1,0.8-0.8,1.4-1.6,1.4c-0.8-0.1-79.8-6.1-147.1,31.8
			c-36.5,20.6-78.1,44.7-108.4,70.7c-36.3,31.2-48.6,58-37.5,81.9c28,60.6,79.8,69.6,108.3,69.6l0,0c23.3,0,58.7-20.6,59.1-20.8
			c0.7-0.4,1.6-0.2,2.1,0.5c0.2,0.4,0.3,0.9,0.1,1.3c-0.2,0.5-21,54.6-0.2,145l398.4,2.7c1.5-7.4,9.7-49,9.6-101.6
			c-0.1-53.2-8.9-128.8-50.3-186.9c-36-50.6-90.9-80.4-163.2-88.5c-0.8-0.1-1.4-0.8-1.3-1.7c0.1-0.8,0.8-1.4,1.7-1.3
			c73.2,8.3,128.8,38.5,165.3,89.8c41.8,58.8,50.8,135,50.8,188.7c0.1,58.1-9.8,102.9-9.9,103.3C725.8,860.5,725.2,861,724.5,861z"
			/>
		<path class="st3" d="M299.8,656.4c8-19.9,34.7-35.9,50.1-77.8S311.4,518,311.4,518l2.9-14.1c0,0-36.9,7.9-73.8-22.1l-12,16.3
			c0,0-46.1,10.2-49,48.7s-40.9,70.8-23.9,117.3"/>
		<path d="M155.5,665.6c-0.6,0-1.2-0.4-1.4-1c-10.7-29.3,0-53,10.3-76c6.4-14.2,12.4-27.6,13.5-42c2.8-36.8,44.3-48.5,49.6-49.9
			l11.7-15.9c0.5-0.7,1.4-0.8,2.1-0.3c0,0,0,0,0.1,0.1c35.9,29.2,72.2,21.9,72.6,21.8c0.5-0.1,1,0,1.4,0.4c0.4,0.4,0.5,0.9,0.4,1.4
			l-2.6,12.9c5.6,2.2,28.4,12,37.4,31c4.5,9.6,4.8,20.1,0.8,31.1c-9.3,25.4-22.9,41.4-33.7,54.3c-7.1,8.5-13.3,15.8-16.4,23.5
			c-0.3,0.8-1.2,1.1-1.9,0.8c-0.8-0.3-1.1-1.2-0.8-2c3.3-8.2,9.6-15.6,16.9-24.3c10.8-12.7,24.1-28.5,33.2-53.4
			c3.8-10.2,3.5-19.9-0.6-28.7c-9.5-20.2-36.6-29.9-36.9-30c-0.7-0.2-1.1-1-1-1.7l2.4-12c-8.5,1.1-40.2,3.1-71.6-21.8L229.6,499
			c-0.2,0.3-0.5,0.5-0.9,0.6c-0.4,0.1-45,10.4-47.9,47.3c-1.1,14.9-7.6,29.2-13.8,43c-10.1,22.4-20.5,45.5-10.2,73.7
			c0.3,0.8-0.1,1.6-0.9,1.9C155.8,665.6,155.6,665.6,155.5,665.6z"/>
		<path class="st2" d="M524.5,480.2c0,0,13.2,26.6-17.8,33.6c-31,7-37-9-37-9s-21,20-40,3c-19-17,4-35,4-35L524.5,480.2z"/>
		<path d="M492.2,517.1c-14.8,0-20.9-6.6-23-9.9c-5.3,4.2-23.7,16.8-40.5,1.8c-5.5-4.9-8.2-10.5-8-16.4
			c0.4-11.6,11.6-20.5,12.1-20.9c0.3-0.2,0.7-0.3,1-0.3l90.8,7.4c0.5,0,1,0.4,1.2,0.8c0.3,0.5,5.9,12.1,1,22.4
			c-3.1,6.6-9.8,11.1-19.8,13.3C502.2,516.4,497.2,517,492.2,517.1z M469.7,503.3c0.1,0,0.2,0,0.3,0c0.5,0.1,0.9,0.5,1.1,0.9
			c0.2,0.6,6.1,14.7,35.3,8.1c9-2,15-6,17.7-11.7c3.6-7.6,0.5-16.5-0.6-19.1l-89.3-7.2c-2,1.7-10.2,9.3-10.5,18.3
			c-0.2,5,2.2,9.8,7,14.1c17.7,15.9,37.1-2.2,38-3C469,503.4,469.3,503.3,469.7,503.3z"/>
		<circle class="st0" cx="449.6" cy="280" r="37.8"/>
		<path d="M449.6,242.3c20.8,0,37.8,16.9,37.8,37.7c0,20.8-16.9,37.8-37.7,37.8c-20.8,0-37.8-16.9-37.8-37.7
			c0-12.9,6.6-24.9,17.4-31.9C435.4,244.4,442.4,242.3,449.6,242.3 M449.6,239.3L449.6,239.3L449.6,239.3
			c-22.5,0-40.8,18.3-40.7,40.8c0,22.5,18.3,40.8,40.8,40.7c22.5,0,40.8-18.3,40.7-40.8c0-7.8-2.2-15.4-6.4-21.9
			C476.5,246.4,463.5,239.3,449.6,239.3L449.6,239.3z"/>
		<path class="st0" d="M356.6,407.5c0,0-28.4-20-19.7-44.6s15.1-23.2,18.8-36.4S381,298,402.5,302c0,0,23.9-22.1,48-18.4
			s33.4,14,41.9,31.6s16,25.1,22.4,37.3c6.4,12.2,17.7,47.1-29.4,78.5S356.6,407.5,356.6,407.5z"/>
		<path d="M445,283.1c1.8,0,3.7,0.1,5.5,0.4c24,3.6,33.4,14,41.9,31.6s16,25.1,22.4,37.3c6.4,12.2,17.7,47.1-29.4,78.5
			c-10.5,7-22.7,9.7-35.3,9.7c-44.1,0-93.6-33.2-93.6-33.2s-28.4-20-19.7-44.6s15.1-23.2,18.8-36.4c3.3-11.8,20.8-25.1,39.8-25.1
			c2.3,0,4.7,0.2,7,0.6C402.5,302,423,283.1,445,283.1 M445,280.1L445,280.1c-20.3,0-38.7,14.6-43.4,18.6c-2-0.3-4.1-0.4-6.1-0.4
			c-20.6,0-39,14.4-42.7,27.3c-1.5,5.4-3.4,8-6.1,11.6c-3.4,4.7-7.7,10.6-12.7,24.6c-3.9,11-1.5,22.9,7,34.3
			c3.9,5.2,8.6,9.9,13.8,13.7h0.1c9.8,6.3,20,11.9,30.6,16.8c16.6,7.7,41.3,16.9,64.6,16.9c14.4,0,26.8-3.4,37-10.2
			c21-14,33.2-30.3,36-48.5c1.8-11.6-0.2-23.5-5.7-33.9c-2.7-4.9-5.7-9.7-8.9-14.3c-5.1-7.3-9.6-14.9-13.5-22.9
			c-8.8-18.2-18.9-29.4-44.1-33.3C449,280.3,447,280.1,445,280.1L445,280.1z"/>
		<path d="M446.6,372.8c-0.8,0-1.5-0.6-1.6-1.4s0.6-1.5,1.4-1.6l0,0c15.6-1.4,29.9-18.9,30.1-19.1c0.5-0.6,1.5-0.7,2.1-0.2
			c0.6,0.5,0.7,1.5,0.2,2.1l0,0c-0.6,0.8-15.3,18.6-32.1,20.2L446.6,372.8z"/>
		<path class="st2" d="M447,362c-26.3,0-37.8-27.5-37.9-27.9c-0.3-0.8,0-1.6,0.7-2c0.8-0.3,1.6,0,2,0.7c0,0,0,0.1,0,0.1
			c0.5,1.4,13.8,33.2,45.6,24.5c0.8-0.2,1.6,0.3,1.8,1.1c0.2,0.8-0.3,1.5-1,1.7C454.6,361.4,450.8,362,447,362z"/>
		<path d="M486.9,244.2c-0.6,0-1.2-0.4-1.4-1c-2.8-7.9-7.4-13.4-13.7-16.4c-11.2-5.3-24.2-0.7-24.4-0.6c-0.8,0.3-1.6,0-2-0.8
			c-0.3-0.8,0-1.6,0.8-2c0.1,0,0.1-0.1,0.2-0.1c0.6-0.2,14.3-5.1,26.6,0.7c7,3.3,12.2,9.4,15.3,18.1c0.3,0.8-0.1,1.6-0.9,1.9
			c0,0,0,0,0,0C487.2,244.2,487,244.2,486.9,244.2z"/>
		<path class="st2" d="M474.6,269.7c-0.5,0-1.1-0.3-1.3-0.8c-4.2-7.8-9.6-12.6-16.1-14.2c-10.6-2.6-20.7,4.3-20.8,4.4
			c-0.7,0.5-1.6,0.3-2.1-0.4s-0.3-1.6,0.4-2.1c0.5-0.3,11.3-7.7,23.2-4.8c7.4,1.8,13.5,7,18.1,15.6c0.4,0.7,0.1,1.6-0.6,2
			C475.1,269.6,474.9,269.7,474.6,269.7z"/>
		<path class="st4" d="M432,459v15c0,0,26,39,76,7c0,0-24.5-35.3-37.7-77.1c0,0,18.5-5,14.7-21.6s-17.4-18.8-25.1-13.8
			c0,0-30,23.2-64.9-40c0,0-32.4,15.2-37.5,49.7s3.6,73.7,30.4,83.8S432,459,432,459z"/>
		<path d="M395,328.5c20.1,36.5,38.6,44.2,50.7,44.2c5.1,0.1,10-1.4,14.2-4.2c2.4-1.5,5.2-2.3,8.1-2.3c6.9,0,14.3,4.5,17,16.1
			c3.8,16.6-14.7,21.6-14.7,21.6C483.5,445.7,508,481,508,481c-14.5,9.3-27.1,12.6-37.5,12.6c-25.4,0-38.5-19.6-38.5-19.6v-15
			c0,0-9,6.8-24,6.8c-6.8-0.1-13.6-1.4-20-3.8c-26.8-10-35.5-49.3-30.4-83.8S395,328.5,395,328.5 M395,325.5c-0.4,0-0.9,0.1-1.3,0.3
			c-6.4,3.3-12.3,7.5-17.6,12.4c-11.9,11.1-19.4,24.8-21.6,39.5c-2.7,18.4-1.5,37,3.3,52.4c5.6,17.6,15.6,29.6,29,34.6
			c6.7,2.6,13.9,3.9,21.1,4c7.3,0,14.4-1.5,21-4.6v9.8c0,0.6,0.2,1.2,0.5,1.7c0.6,0.9,14.3,21,41,21c12.4,0,25.5-4.4,39.1-13.1
			c0.7-0.4,1.2-1.1,1.3-1.9c0.2-0.8,0-1.6-0.5-2.3c-0.2-0.3-23.4-33.8-36.4-73.5c2.5-1,4.8-2.4,6.9-4.1c6.4-5.1,8.8-12,7-20
			c-3.1-13.6-12.3-18.5-19.9-18.5c-3.4,0-6.8,1-9.7,2.8l-0.2,0.1c-3.7,2.4-8,3.6-12.4,3.5c-11.2,0-28.6-7.4-48.1-42.6
			C397.1,326.1,396.1,325.5,395,325.5L395,325.5z"/>
		<path d="M431.5,462c-0.8,0-1.5-0.7-1.5-1.5c0-0.6,0.4-1.2,1-1.4c14.3-4.8,25.2-20.6,25.3-20.7c0.5-0.7,1.4-0.9,2.1-0.4
			s0.9,1.4,0.4,2.1l0,0c-0.5,0.7-11.5,16.8-26.9,21.9C431.8,462,431.7,462,431.5,462z"/>
		<path class="st4" d="M315.5,441.4c0,0,13.5,34.9-6,70.1s-56.9-16.8-56.9-16.8L315.5,441.4z"/>
		<path d="M292.2,525.2c-19.2,0-39.9-28.4-40.7-29.7c-0.5-0.6-0.3-1.5,0.3-2l62.9-53.3c0.6-0.5,1.6-0.5,2.1,0.2
			c0.1,0.1,0.2,0.3,0.3,0.4c0.1,0.4,13.5,35.9-6.1,71.4c-4.5,8.2-10.5,12.5-17.5,13C292.9,525.2,292.5,525.2,292.2,525.2z
			 M254.7,494.9c4.1,5.4,22.5,28.2,38.4,27.3c6-0.3,11.1-4.2,15.1-11.4c16.3-29.4,9-58.9,6.6-66.8L254.7,494.9z"/>
		<path d="M469.9,396.2c-0.2,0-0.5-0.1-0.7-0.2c-0.7-0.4-1-1.3-0.6-2c2.9-5.5,3.5-9.7,1.9-12.6c-2.4-4.1-8.8-4.4-8.8-4.4
			c-0.8,0-1.5-0.7-1.4-1.6s0.7-1.5,1.6-1.4c0.3,0,8.1,0.4,11.3,5.9c2.2,3.9,1.6,9.1-1.8,15.5C471,395.9,470.4,396.2,469.9,396.2z"/>
		<path class="st5" d="M396.5,379.4c19.4,1.5,43.7-10.2,49-4.1s3.2,15.6-6.7,19.2s-20.1,4.7-41.1,5.9s-41.6,0.8-40.7-10.6
			S368,377.2,396.5,379.4z"/>
		<path d="M373,370.2c-0.4,0-0.7-0.1-1-0.4c-0.6-0.5-0.7-1.5-0.2-2.1c0,0,0,0,0,0c0.3-0.3,6.6-7.6,15-7c0.8,0.1,1.5,0.8,1.4,1.6
			c-0.1,0.8-0.8,1.5-1.6,1.4c-6.9-0.5-12.5,5.9-12.5,5.9C373.8,370,373.4,370.2,373,370.2z"/>
		<path d="M394.5,414.3h-0.3c-0.8-0.2-1.3-1-1.2-1.8c0,0,0,0,0,0l6.4-30.8c0.2-0.8,1-1.3,1.8-1.2c0.8,0.2,1.3,1,1.2,1.8l-6.3,30.8
			C395.8,413.8,395.2,414.3,394.5,414.3z"/>
		<circle class="st3" cx="478" cy="402.9" r="6.2"/>
		<path d="M478,396.7c3.4,0,6.2,2.7,6.2,6.1c0,3.4-2.7,6.2-6.1,6.2c-3.4,0-6.2-2.7-6.2-6.1c0-2.1,1-4.1,2.8-5.2
			C475.7,397.1,476.8,396.7,478,396.7 M478,393.7L478,393.7c-5.1,0-9.2,4.1-9.1,9.2c0,5.1,4.1,9.2,9.2,9.1c4.3,0,8-3,8.9-7.2
			c1.1-5-2-9.9-7-10.9C479.3,393.8,478.7,393.7,478,393.7z"/>
		<circle cx="428.4" cy="385.8" r="3.5"/>
		<circle cx="377.2" cy="389.3" r="3.5"/>
		<path d="M412.9,439.3c-1.2,0-2.4-0.2-3.5-0.5c-0.8-0.2-1.3-1-1.2-1.8c0.2-0.8,1-1.3,1.8-1.2c0.1,0,0.1,0,0.2,0.1
			c9.7,2.6,16.2-10.1,16.2-10.3c0.4-0.7,1.3-1,2-0.7c0.7,0.4,1,1.3,0.7,2C428.8,427.6,422.8,439.3,412.9,439.3z"/>
		<path d="M409.2,361.7c-0.8,0-1.5-0.6-1.5-1.5c0-0.4,0.1-0.8,0.4-1.1c0.5-0.5,5-5.1,9.2-3.6c0.8,0.3,1.2,1.1,0.9,1.9
			c-0.3,0.8-1.1,1.2-1.9,0.9c-2-0.7-5.1,1.9-6,2.8C410,361.5,409.6,361.7,409.2,361.7z"/>
		<path class="st6" d="M229.6,499.2c-0.1-0.1,11.4-15.5,11.4-15.5c36.9,30,71.6,21.7,71.6,21.7l-2.5,14.1l0.4-0.6
			C310.5,518.9,273.1,545.5,229.6,499.2z"/>
		<circle class="st7" cx="573.2" cy="530.8" r="8.1"/>
		<circle class="st7" cx="677.2" cy="618.8" r="8.1"/>
		<circle class="st7" cx="551.2" cy="621.8" r="8.1"/>
		<circle class="st7" cx="381.2" cy="538.8" r="8.1"/>
		<circle class="st7" cx="450.2" cy="583.8" r="8.1"/>
		<circle class="st7" cx="365.2" cy="756.8" r="8.1"/>
		<circle class="st7" cx="477.2" cy="730.8" r="8.1"/>
		<circle class="st7" cx="381.2" cy="648.8" r="8.1"/>
		<circle class="st7" cx="603.2" cy="714.8" r="8.1"/>
		<circle class="st7" cx="317.2" cy="599.8" r="8.1"/>
		<circle class="st7" cx="244.2" cy="558.8" r="8.1"/>
		<circle class="st7" cx="189.2" cy="621.8" r="8.1"/>
		<circle class="st7" cx="236.2" cy="695.8" r="8.1"/>
		<path d="M154,580.9c-5.5,5.9-10.2,12.5-14,19.6c-3.8,7.1-6.7,14.6-8.7,22.4c-2,7.9-2.9,16.1-2.8,24.2c0.3,16.8,5.1,33.3,13.8,47.7
			c0.5,0.9,1.1,1.8,1.7,2.7c0.4,0.7,1.3,1,2.1,0.5s1-1.3,0.5-2.1l0,0c-4.5-6.8-8.1-14.2-10.6-22c-2.5-7.7-4-15.7-4.4-23.8
			c-0.4-8,0.2-15.9,1.9-23.7c1.6-7.6,4.2-15,7.7-21.9c3.5-7,7.8-13.5,12.9-19.4c0.6-0.7,1.3-1.4,1.9-2.2
			C157.3,581.5,155.2,579.4,154,580.9L154,580.9z"/>
		<path class="st4" d="M307.1,467.7c11.6-17.6,10.7-37.5,0.8-53.7c-16-25.9-8.1-36.2-12.8-54s-26.4-5.9-31.3,24.9
			c0,0-40.5-9-32.8,30.7c0,0-25.4,8.3-6.2,35.6c0,0-15.6,12.4-6.3,29.9s40.7,20.4,53.6,14.5"/>
		<path d="M256.1,499.9c-14.5,0-32-5.1-39-18.1c-8.4-15.5,2.1-27.5,5.6-30.8c-6.1-9-8.1-17.1-5.8-23.9c2.5-7.6,9.4-11.2,12.3-12.5
			c-2-11.5-0.1-20,5.5-25.5c8.6-8.3,23-6.8,27.8-6c3.7-20.1,14.7-32.5,23.5-32.9c5-0.2,8.8,3.2,10.5,9.4s1.8,11.7,1.9,17
			c0.2,9.8,0.4,20,10.7,36.6c10.8,17.5,10.5,38.1-0.8,55.3c-0.5,0.7-1.4,0.9-2.1,0.4c-0.7-0.5-0.9-1.4-0.4-2.1l0,0
			c10.8-16.4,11-35.3,0.7-52c-10.7-17.3-10.9-27.9-11.1-38.1c-0.1-5.3-0.2-10.4-1.8-16.3c-1.3-4.8-3.9-7.3-7.4-7.2
			c-7.7,0.4-17.9,12.7-21,31.9c-0.1,0.4-0.3,0.8-0.6,1c-0.3,0.2-0.8,0.3-1.2,0.2c-0.2,0-17.7-3.8-26.6,4.9c-5.1,4.9-6.6,13-4.4,24
			c0.1,0.7-0.3,1.5-1,1.7c-0.1,0-9,3.1-11.6,11c-2,6.1,0.1,13.6,6.2,22.3c0.4,0.6,0.3,1.5-0.3,2c-0.6,0.5-14.6,11.9-5.9,28
			c9.2,17.1,39.8,19.3,51.6,13.9c0.8-0.3,1.6,0,2,0.7c0.3,0.8,0,1.6-0.7,2l0,0C268.6,498.8,262.7,499.9,256.1,499.9z"/>
		<path class="st4" d="M221.5,484.4c0,0,31.2,14.4,46-2.9c18-21-22-31.1-41.2-31"/>
		<path d="M246.5,491.5c-12.7,0-24.8-5.5-25.6-5.8c-0.8-0.3-1.1-1.2-0.8-2c0.3-0.8,1.2-1.1,2-0.8c0,0,0.1,0,0.1,0
			c0.3,0.1,30.3,13.7,44.2-2.5c4-4.7,5.1-8.9,3.4-12.7c-4.6-9.9-28.4-15.9-43.4-15.8l0,0c-0.8,0-1.5-0.7-1.5-1.5s0.7-1.5,1.5-1.5
			l0,0c13.3-0.1,40.4,4.9,46.2,17.5c2.3,5,1,10.3-3.8,16C262.7,489.4,254.4,491.5,246.5,491.5z"/>
		<path class="st4" d="M230,416.1c0,0,40.2-2.3,48.5,16.4s-19,24-19,24"/>
		<path d="M259.5,458c-0.8,0.1-1.6-0.5-1.6-1.4c-0.1-0.8,0.5-1.6,1.4-1.6c0.1,0,14-2.8,18.2-10.9c1.7-3.2,1.6-6.9-0.2-11
			c-7.8-17.5-46.7-15.5-47-15.5c-0.8,0-1.5-0.6-1.6-1.4s0.6-1.5,1.4-1.6l0,0c1.7-0.1,41.4-2.2,50,17.3c2.2,5,2.3,9.6,0.1,13.6
			c-4.9,9.4-19.6,12.3-20.2,12.4L259.5,458z"/>
		<path class="st4" d="M263.6,385.7c0,0,25.4,3.3,24.9,19.8c-0.5,13-20,17-20,17"/>
		<path d="M268.5,424c-0.8,0.1-1.6-0.5-1.6-1.4s0.5-1.6,1.4-1.6c0.2,0,18.4-3.9,18.8-15.6c0.5-15-23.3-18.2-23.5-18.3
			c-0.8-0.1-1.4-0.9-1.3-1.7s0.9-1.4,1.7-1.3c1.1,0.1,26.8,3.6,26.2,21.4c-0.5,14.1-20.4,18.3-21.2,18.4L268.5,424z"/>
		<path class="st4" d="M277.4,447.4c0,0,28.5,9.5,19.8,26.9"/>
		<path d="M297.2,475.8c-0.8,0-1.5-0.7-1.5-1.5c0-0.2,0.1-0.5,0.2-0.7c1.7-3.1,2-6.8,0.6-10c-3.9-9.4-19.4-14.7-19.6-14.8
			c-0.8-0.3-1.2-1.1-1-1.9c0.3-0.8,1.1-1.2,1.9-0.9c0.7,0.2,17,5.8,21.4,16.5c1.7,4.1,1.4,8.7-0.7,12.5
			C298.3,475.5,297.8,475.8,297.2,475.8z"/>
		<path class="st0" d="M345.5,629.5c0,0-25,68.8-28,104.4"/>
		<path d="M317.5,735.4h-0.1c-0.8-0.1-1.4-0.8-1.4-1.6c3-35.4,27.9-104.1,28.1-104.8c0.3-0.8,1.2-1.1,2-0.8c0.7,0.3,1,1.1,0.8,1.8
			c-0.3,0.7-25,69.1-27.9,104C319,734.8,318.3,735.4,317.5,735.4z"/>
		<path class="st2" d="M228.5,719c-0.2,0-0.5-0.1-0.7-0.2c-34.4-17.7-50.5-38-57.9-51.9c-8.1-15.2-7.9-26-7.9-26.5
			c0-0.8,0.7-1.5,1.5-1.5l0,0c0.8,0,1.5,0.7,1.5,1.5c0,0.2-0.1,10.7,7.7,25.2c7.2,13.4,22.9,33.1,56.5,50.4c0.7,0.4,1,1.3,0.6,2
			C229.5,718.7,229,719,228.5,719L228.5,719z"/>
		<path d="M181.5,434c-0.2,0-0.3,0-0.5-0.1c-26.3-9.4-49.5-26-66.9-47.9c-14.1-17.6-25.2-39.1-33-63.8c-13.2-42-12.1-79.3-12.1-79.7
			c0-0.8,0.7-1.5,1.6-1.4c0.8,0,1.5,0.7,1.5,1.5c0,0,0,0,0,0c0,0.4-1.1,37.3,12,78.8c12,38.2,38.7,88.2,98.1,109.7
			c0.8,0.3,1.2,1.1,0.9,1.9C182.7,433.6,182.2,434,181.5,434L181.5,434z"/>
		<path d="M137.3,442.9h-0.1c-30-2.7-51.8-21.3-64.9-36.4c-8.5-9.8-15.6-20.7-21.2-32.4c-0.3-0.8,0.1-1.6,0.9-1.9
			c0.7-0.2,1.5,0.1,1.8,0.7c0.3,0.6,28,62.1,83.6,67c0.8,0,1.5,0.7,1.4,1.6S138.2,442.9,137.3,442.9L137.3,442.9z"/>
		<circle class="st7" cx="402.2" cy="831.8" r="8.1"/>
		<circle class="st7" cx="698.2" cy="725.8" r="8.1"/>
		<circle class="st7" cx="661.2" cy="780.8" r="8.1"/>
		<circle class="st7" cx="497.2" cy="824.8" r="8.1"/>
	</g>
	<g id="phone">
		<path class="st4" d="M654.9,578.8c-27.8-40.9-53.7-68.5-75.8-52.7c-35.6,25.4,24.4,93.4-9.2,153.5c-19.3,34.5-13,91.5,20.3,114.7
			S688.2,627.8,654.9,578.8z"/>
		<path d="M596.2,797.7c-2.4,0-4.8-0.8-6.8-2.2c-34.9-24.2-39.8-82.6-20.8-116.6c17.1-30.6,9.7-63,3.1-91.5
			c-6.1-26.6-11.4-49.6,6.6-62.5c5.3-4,12.1-5.6,18.7-4.4c15.9,2.9,34.2,20.6,59.3,57.5c12.5,18.3,12.6,59.1,0.4,109.1
			c-11.1,45.4-29.5,86.8-45.9,103C604.9,795.8,600,797.7,596.2,797.7z M592.5,523.1c-4.5,0-8.9,1.5-12.5,4.2
			c-16.4,11.7-11.5,32.7-5.4,59.4c6.7,29.1,14.3,62.1-3.4,93.7c-9.2,16.5-12.7,39.1-9.4,60.6c3.5,22.6,14.2,41.6,29.3,52.1
			c4.8,3.3,10.7,1.6,17.5-5.1c16-15.8,34.1-56.6,45.1-101.6c12-49.2,12-89.1,0-106.7c-16.5-24.3-38-52.7-57.3-56.2
			C595.1,523.2,593.8,523.1,592.5,523.1L592.5,523.1z"/>
		<path class="st0" d="M740.5,931.8l-129.2-3c-38-0.7-78.8-31.8-66.4-65.7l137.5-387.9c12.4-33.9,53.3-60.9,91.3-60.2l162.2,3
			c44.7,4.5,51.7,49.5,29.7,97.5L831.8,878.6C819.4,912.6,812.5,931.5,740.5,931.8z"/>
		<path d="M772.2,415h1.5l162.2,3c44.7,4.5,51.7,49.5,29.7,97.5L831.8,878.6c-12.4,33.9-19.3,52.8-91.3,53.2l-129.2-3
			c-38-0.7-78.8-31.8-66.4-65.7l137.5-387.9C694.6,441.7,734.6,415,772.2,415 M772.2,412c-18.8,0-38.7,6.4-56.1,18
			s-30.4,27.3-36.6,44.1l-137.5,388c-4.6,12.6-2.7,25.7,5.5,37.7c12.6,18.4,38.8,31.5,63.6,32l129.2,3h0.1
			c34.7-0.2,56.3-4.6,69.8-14.5c13-9.5,18-23.2,24.3-40.5v-0.1l133.7-363c14.3-31.3,16.3-60.3,5.3-79.4
			c-7.4-12.9-20.3-20.6-37.5-22.3h-0.3l-162.2-3L772.2,412z"/>
		<path class="st1" d="M735.6,906.7l-140.2-2.6c-34.8-0.7-53.8-26.3-42.4-57.4l135.3-370.1c11.3-31,48.7-55.6,83.5-55l140.2,2.6
			c34.8,0.6,53.8,26.3,42.4,57.4L819.1,851.7C807.7,882.8,770.4,907.4,735.6,906.7z"/>
		<path d="M736.9,908.2h-1.4l-140.2-2.6c-17.9-0.3-32.3-7.1-40.5-19c-7.6-11.1-8.8-25.4-3.3-40.4l135.3-370.1
			c11.5-31.5,49.6-56.7,84.9-56l140.2,2.7c17.9,0.3,32.3,7.1,40.5,19c7.6,11.1,8.8,25.4,3.3,40.4L820.5,852.2
			C809.1,883.4,771.8,908.2,736.9,908.2z M735.6,905.2c34.1,0.7,70.9-23.6,82-54l135.3-370.1c5.1-14,4.1-27.4-3-37.6
			c-7.6-11.1-21.1-17.4-38-17.7l-140.2-2.6h-1.3c-33.7,0-69.8,24-80.7,54L554.4,847.2c-5.1,14-4,27.4,3,37.7
			c7.6,11.1,21.1,17.4,38,17.7L735.6,905.2z"/>
		<polygon class="st0" points="858.9,618.9 685.5,615.6 731.8,489 905.2,492.2 		"/>
		<path d="M731.8,489l173.4,3.3l-46.3,126.6l-173.4-3.3L731.8,489 M731.8,486c-1.3,0-2.4,0.8-2.8,2l-46.3,126.6
			c-0.6,1.6,0.3,3.3,1.8,3.8c0.3,0.1,0.6,0.2,0.9,0.2l173.4,3.3h0c1.3,0,2.4-0.8,2.8-2l46.3-126.7c0.6-1.6-0.3-3.3-1.8-3.8
			c-0.3-0.1-0.6-0.2-0.9-0.2L731.8,486L731.8,486z"/>
		<path d="M775.1,542.2c-0.2,0-0.4,0-0.6-0.1c-0.8-0.3-1.2-1.2-0.8-2c0,0,0,0,0,0c0.6-1.4,14.3-34.8,30.2-40.4
			c6.3-2.2,10.1-0.3,12.2,1.7c6.1,5.8,6.6,20.9,1.2,38.3c-0.2,0.8-1.1,1.2-1.9,1c-0.8-0.2-1.2-1.1-1-1.9c0,0,0,0,0,0
			c4.9-16.1,4.7-30.3-0.5-35.3c-2.2-2.1-5.2-2.5-9.1-1.1c-14.6,5.2-28.3,38.4-28.4,38.7C776.3,541.8,775.8,542.2,775.1,542.2z"/>
		<polygon class="st1" points="763,527.5 715.7,591.1 830.1,593.3 838.8,529 		"/>
		<path d="M830.1,594.8L830.1,594.8l-114.4-2.2c-0.8,0-1.5-0.7-1.5-1.5c0-0.3,0.1-0.6,0.3-0.9l47.3-63.6c0.3-0.4,0.7-0.6,1.2-0.6
			l75.8,1.4c0.8,0,1.5,0.7,1.5,1.5c0,0.1,0,0.1,0,0.2l-8.7,64.3C831.5,594.2,830.9,594.8,830.1,594.8z M718.6,589.7l110.2,2.1
			l8.3-61.3l-73.4-1.4L718.6,589.7z"/>
		<path d="M811.4,566.8c-0.2,0-0.4,0-0.6-0.1c-0.8-0.3-1.1-1.2-0.8-2c0.4-1,9.6-23.2,20.3-27c4.4-1.5,7.1-0.2,8.6,1.3
			c4.2,4,4.6,13.9,1,25.8c-0.2,0.8-1.1,1.2-1.9,1s-1.2-1.1-1-1.9c3.2-10.5,3.1-19.6-0.2-22.8c-1.3-1.3-3.1-1.5-5.5-0.6
			c-9.4,3.3-18.4,25.1-18.5,25.3C812.6,566.4,812,566.8,811.4,566.8z"/>
		<polygon class="st3" points="803.3,556.6 772.1,598.6 847.7,600.1 853.4,557.6 		"/>
		<path d="M847.7,601.6L847.7,601.6l-75.6-1.4c-0.8,0-1.5-0.7-1.5-1.5c0-0.3,0.1-0.6,0.3-0.9l31.3-42c0.3-0.4,0.8-0.6,1.2-0.6
			l50.1,0.9c0.4,0,0.8,0.2,1.1,0.5c0.3,0.3,0.4,0.8,0.3,1.2l-5.7,42.5C849.1,601,848.5,601.6,847.7,601.6z M775,597.2l71.4,1.3
			l5.3-39.5l-47.7-0.9L775,597.2z"/>
		<path class="st0" d="M733.1,708.2l-67-1.3c-9.2-0.2-14.3-7-11.2-15.2l11.2-30.7c3-8.2,12.9-14.8,22.1-14.6l67,1.3
			c9.2,0.2,14.3,7,11.2,15.2l-11.2,30.7C752.3,701.9,742.4,708.4,733.1,708.2z"/>
		<path d="M687.9,646.5h0.4l67,1.3c9.2,0.2,14.3,7,11.2,15.2l-11.2,30.7c-3,8.1-12.7,14.6-21.8,14.6h-0.4l-67-1.3
			c-9.2-0.2-14.3-7-11.2-15.2l11.2-30.7C669.1,652.9,678.8,646.5,687.9,646.5 M687.9,643.5L687.9,643.5c-10.4,0-21.2,7.3-24.6,16.5
			l-11.2,30.7c-1.7,4.8-1.3,9.4,1.2,13.1c2.6,3.8,7.3,6.1,12.8,6.2l67,1.3h0.4c10.4,0,21.2-7.3,24.6-16.5l11.3-30.7
			c1.7-4.8,1.3-9.4-1.2-13.1s-7.3-6.1-12.8-6.2l-67-1.3L687.9,643.5z"/>
		<path class="st1" d="M705.3,784.4l-67-1.3c-9.2-0.2-14.3-7-11.2-15.2l11.2-30.7c3-8.2,12.9-14.8,22.1-14.6l67,1.3
			c9.2,0.2,14.3,7,11.2,15.2l-11.2,30.7C724.4,778,714.5,784.5,705.3,784.4z"/>
		<path d="M705.7,785.9h-0.4l-67-1.3c-5-0.1-9.3-2.1-11.6-5.5c-2.2-3.2-2.6-7.4-1-11.7l11.2-30.7c3.2-8.8,13.8-15.7,23.6-15.6
			l67,1.3c5,0.1,9.3,2.1,11.6,5.5c2.2,3.2,2.6,7.4,1,11.7l-11.2,30.7C725.7,779,715.3,785.9,705.7,785.9z M705.3,782.9
			c8.6,0.2,17.9-5.9,20.7-13.6l11.2-30.7c1.2-3.4,1-6.5-0.7-9c-1.8-2.6-5.1-4.1-9.2-4.2l-67-1.3c-8.6-0.1-17.9,5.9-20.7,13.6
			l-11.2,30.7c-1.2,3.4-1,6.5,0.7,9c1.8,2.6,5.1,4.1,9.2,4.2L705.3,782.9z"/>
		<path class="st2" d="M674.6,868.3l-67-1.3c-9.2-0.2-14.3-7-11.2-15.2l11.2-30.7c3-8.2,12.9-14.8,22.1-14.6l67,1.3
			c9.2,0.2,14.3,7,11.3,15.2l-11.2,30.7C693.8,862,683.8,868.5,674.6,868.3z"/>
		<path d="M675,869.8h-0.4l-67-1.3c-5-0.1-9.3-2.1-11.6-5.5c-2.2-3.2-2.6-7.4-1-11.7l11.2-30.7c3.2-8.8,13.8-15.7,23.6-15.6l67,1.3
			c5,0.1,9.3,2.1,11.6,5.5c2.2,3.2,2.6,7.4,1,11.7l-11.2,30.7C695,862.9,684.7,869.8,675,869.8z M674.7,866.8h0.3
			c8.5,0,17.6-6,20.3-13.6l11.2-30.7c1.2-3.4,1-6.5-0.7-9c-1.8-2.6-5.1-4.1-9.2-4.2l-67-1.3c-8.7-0.1-17.9,5.9-20.7,13.6l-11.2,30.7
			c-1.2,3.4-1,6.5,0.7,9c1.8,2.6,5.1,4.1,9.2,4.2L674.7,866.8z"/>
		
			<ellipse transform="matrix(0.7589 -0.6512 0.6512 0.7589 -243.1889 690.7144)" class="st3" cx="811.3" cy="673.8" rx="31.2" ry="22.1"/>
		<path d="M802.1,701.7h-0.5c-7.1-0.1-12.9-3-16.3-8c-3.8-5.5-4.3-13.1-1.4-20.8c5.5-15.1,22.1-27.1,37-26.8c7.1,0.1,12.8,3,16.3,8
			c3.8,5.5,4.3,13.1,1.4,20.8C833.2,689.8,816.9,701.7,802.1,701.7z M820.4,649c-13.6,0-28.7,11.1-33.7,24.9
			c-2.5,6.8-2.1,13.4,1.1,18.1c2.9,4.2,7.8,6.6,13.9,6.7c13.7,0.3,29.1-10.9,34.2-24.8l0,0c2.5-6.8,2.1-13.4-1.1-18.1
			c-2.9-4.2-7.8-6.6-13.9-6.7L820.4,649z"/>
		
			<ellipse transform="matrix(0.7589 -0.6512 0.6512 0.7589 -303.6832 690.9683)" class="st3" cx="781.4" cy="755.6" rx="31.2" ry="22.1"/>
		<path d="M772.2,783.5h-0.5c-7.1-0.1-12.9-3-16.3-8c-3.8-5.5-4.3-13.1-1.4-20.8c5.5-14.9,21.8-26.8,36.5-26.8h0.5
			c7.1,0.1,12.8,3,16.3,8c3.8,5.5,4.3,13.1,1.4,20.8l0,0C803.3,771.6,787,783.5,772.2,783.5z M790.5,730.9
			c-13.6,0-28.7,11-33.7,24.9c-2.5,6.8-2.1,13.4,1.1,18.1c2.9,4.2,7.8,6.6,13.9,6.7c13.7,0.3,29.1-10.9,34.2-24.9l0,0
			c2.5-6.8,2.1-13.4-1.1-18.1c-2.8-4.2-7.8-6.6-13.8-6.7H790.5z M807.3,756.2L807.3,756.2z"/>
		
			<ellipse transform="matrix(0.7589 -0.6512 0.6512 0.7589 -365.7541 691.2321)" class="st3" cx="750.7" cy="839.6" rx="31.2" ry="22.1"/>
		<path d="M741.5,867.5H741c-7.1-0.1-12.9-3-16.3-8c-3.8-5.5-4.3-13.1-1.4-20.8c5.5-14.9,21.8-26.8,36.5-26.8h0.5
			c7.1,0.1,12.9,3,16.3,8c3.8,5.5,4.3,13.1,1.4,20.8C772.6,855.6,756.3,867.5,741.5,867.5z M759.8,814.8c-13.6,0-28.6,11-33.7,24.9
			c-2.5,6.8-2.1,13.4,1.1,18.1c2.9,4.2,7.8,6.6,13.9,6.7c13.8,0.3,29.1-10.9,34.2-24.9l0,0c2.5-6.8,2.1-13.4-1.1-18.1
			c-2.9-4.2-7.8-6.6-13.9-6.7H759.8z"/>
		<line class="st8" x1="686.3" y1="671.5" x2="734.8" y2="672.4"/>
		<path d="M734.8,674L734.8,674l-48.5-1c-0.8,0-1.5-0.7-1.5-1.5c0-0.8,0.7-1.5,1.5-1.5l48.4,0.9c0.8,0,1.5,0.7,1.5,1.5
			S735.6,673.9,734.8,674L734.8,674z"/>
		<line class="st8" x1="683.8" y1="688" x2="714.7" y2="688.5"/>
		<path d="M714.7,690L714.7,690l-30.9-0.6c-0.8,0-1.5-0.7-1.5-1.5s0.7-1.5,1.5-1.5l0,0l30.9,0.6c0.8,0,1.5,0.7,1.5,1.5
			S715.6,690,714.7,690z"/>
		<line class="st8" x1="656.4" y1="753.4" x2="704.8" y2="754.3"/>
		<path d="M704.8,755.8L704.8,755.8l-48.4-0.9c-0.8,0-1.5-0.7-1.5-1.5c0,0,0,0,0,0c0-0.8,0.7-1.5,1.5-1.5l48.4,0.9
			c0.8,0,1.5,0.7,1.5,1.5S705.7,755.8,704.8,755.8L704.8,755.8z"/>
		<line class="st8" x1="622.3" y1="846.6" x2="653.9" y2="847.2"/>
		<path d="M653.9,848.7L653.9,848.7l-31.6-0.6c-0.8,0-1.5-0.7-1.5-1.5c0-0.8,0.7-1.5,1.5-1.5l31.6,0.6c0.8,0,1.5,0.7,1.5,1.5
			S654.8,848.7,653.9,848.7L653.9,848.7z"/>
		<line class="st8" x1="628" y1="830.9" x2="676.5" y2="831.8"/>
		<path d="M676.5,833.3L676.5,833.3l-48.5-0.9c-0.8,0-1.5-0.7-1.5-1.5c0,0,0,0,0,0c0-0.8,0.7-1.5,1.5-1.5l48.4,0.9
			c0.8,0,1.5,0.7,1.5,1.5S677.3,833.3,676.5,833.3L676.5,833.3z"/>
		<polyline class="st3" points="742.5,833.1 741.7,848.8 764.8,826.3 		"/>
		<path d="M741.7,850.3c-0.8,0-1.5-0.7-1.5-1.5c0,0,0-0.1,0-0.1L741,833c0-0.8,0.8-1.5,1.6-1.4c0.8,0,1.5,0.8,1.4,1.6l0,0l-0.6,11.9
			l20.3-19.8c0.6-0.6,1.6-0.5,2.1,0.1c0.5,0.6,0.5,1.5,0,2.1l-23.1,22.5C742.5,850.2,742.1,850.3,741.7,850.3z"/>
		<polyline class="st3" points="772.7,750.5 776.2,767.8 799.5,746.7 		"/>
		<path d="M776.2,769.3c-0.2,0-0.3,0-0.5-0.1c-0.5-0.2-0.9-0.6-1-1.1l-3.6-17.3c-0.2-0.8,0.4-1.6,1.2-1.8c0.8-0.2,1.6,0.4,1.8,1.2
			l3,14.7l21.3-19.3c0.6-0.6,1.5-0.6,2.1-0.1c0.6,0.6,0.6,1.5,0.1,2.1c-0.1,0.1-0.1,0.1-0.2,0.2l-23.3,21
			C776.9,769.1,776.6,769.3,776.2,769.3z"/>
		<polyline class="st3" points="800.2,669.4 805.1,688.8 823.5,665.5 		"/>
		<path d="M805.1,690.3c-0.1,0-0.2,0-0.3,0c-0.6-0.1-1-0.5-1.1-1.1l-4.9-19.4c-0.3-0.8,0.2-1.6,1-1.9c0.8-0.3,1.6,0.2,1.9,1
			c0,0.1,0,0.1,0.1,0.2l4.2,16.5l16.5-20.9c0.5-0.7,1.4-0.8,2.1-0.3c0.7,0.5,0.8,1.4,0.3,2.1c0,0-0.1,0.1-0.1,0.1l-18.4,23.3
			C806,690.1,805.6,690.3,805.1,690.3z"/>
		<path class="st4" d="M914.8,634.3c0,0-54.6-63.8-5.5-95.2s91.5,21.3,74.9,71.2s-62,56.4-86.9,69.3"/>
		<path d="M897.2,681.1c-0.8,0-1.5-0.7-1.5-1.5c0-0.6,0.3-1.1,0.8-1.3c5.3-2.8,11.5-5.2,18.1-7.8c24.6-9.8,55.2-21.9,68.1-60.7
			c8.7-26,1.3-54.6-18-69.6c-15.7-12.2-35.6-12.1-54.7,0.1c-11.1,7.1-17.6,16.5-19.3,28c-4.4,30,24.9,64.6,25.2,65
			c0.5,0.6,0.5,1.6-0.2,2.1c-0.6,0.5-1.6,0.5-2.1-0.2l0,0c-1.3-1.5-30.5-36.1-25.8-67.4c1.8-12.4,8.8-22.5,20.6-30.1
			c20.2-13,41.4-13,58.2,0c20.2,15.7,28,45.7,19,72.9c-13.4,40.1-44.7,52.5-69.9,62.5c-6.5,2.6-12.6,5-17.8,7.7
			C897.7,681,897.5,681.1,897.2,681.1z"/>
		<path class="st4" d="M896.3,716.6c0,0-54.5-63.8-5.5-95.2s91.5,21.3,74.9,71.2s-62,56.4-86.9,69.3"/>
		<path d="M878.7,763.4c-0.8,0-1.5-0.7-1.5-1.5c0-0.6,0.3-1.1,0.8-1.3c5.3-2.8,11.5-5.2,18.1-7.8c24.6-9.8,55.2-21.9,68.1-60.7
			c8.7-26,1.3-54.6-18-69.6c-15.7-12.2-35.6-12.1-54.7,0.1c-11.1,7.1-17.6,16.5-19.3,28c-4.4,29.9,24.9,64.6,25.2,65
			c0.6,0.6,0.5,1.6-0.1,2.1s-1.6,0.5-2.1-0.1c-1.2-1.5-30.5-36-25.8-67.3c1.8-12.4,8.8-22.5,20.6-30.1c20.2-13,41.4-13,58.2,0
			c20.2,15.7,28,45.7,19,72.9c-13.4,40.1-44.7,52.5-69.9,62.5c-6.5,2.6-12.6,5-17.8,7.7C879.2,763.4,878.9,763.4,878.7,763.4z"/>
		<path class="st4" d="M869.2,782.3c0,0-54.6-63.8-5.5-95.2s91.5,21.3,74.9,71.2s-62,56.4-86.9,69.3"/>
		<path d="M851.7,829.1c-0.8,0-1.5-0.7-1.5-1.5c0-0.6,0.3-1.1,0.8-1.3c5.3-2.8,11.5-5.2,18.1-7.8c24.6-9.8,55.2-21.9,68.1-60.7
			c8.7-26,1.3-54.6-18-69.6c-15.7-12.2-35.6-12.1-54.7,0.1c-11.1,7.1-17.6,16.5-19.3,28c-4.4,30,24.9,64.6,25.2,65
			c0.6,0.6,0.5,1.6-0.1,2.1s-1.6,0.5-2.1-0.1c-1.3-1.5-30.5-36.1-25.8-67.4c1.8-12.4,8.8-22.5,20.6-30.1c20.2-13,41.4-13,58.2,0
			c20.2,15.7,28,45.7,19,72.9c-13.4,40.1-44.7,52.5-69.9,62.5c-6.5,2.6-12.6,5-17.8,7.7C852.1,829,851.9,829.1,851.7,829.1z"/>
		<path class="st2" d="M734.5,580c-0.4,0-0.7-0.1-1-0.3c-0.6-0.5-0.7-1.5-0.2-2.1l33-40c0.5-0.6,1.5-0.7,2.1-0.1
			c0.6,0.5,0.7,1.4,0.2,2l-33,40C735.3,579.8,734.9,580,734.5,580z"/>
		<path class="st2" d="M789.5,592c-0.3,0-0.6-0.1-0.9-0.3c-0.7-0.5-0.8-1.4-0.3-2.1l18-25c0.5-0.7,1.4-0.8,2.1-0.3
			c0.7,0.5,0.8,1.4,0.3,2.1l0,0l-18,25C790.4,591.8,790,592,789.5,592z"/>
		<path class="st2" d="M971.5,627c-0.1,0-0.3,0-0.4-0.1c-0.8-0.2-1.2-1.1-1-1.9c6-21,3.4-38.3-8-51.5c-5.2-6-11.7-10.7-19.1-13.7
			c-0.8-0.3-1.2-1.1-0.9-1.9c0.3-0.8,1.1-1.2,1.9-0.9c7.8,3.1,14.8,8.1,20.3,14.4c8.3,9.6,16.6,26.9,8.7,54.4
			C972.8,626.6,972.2,627,971.5,627z"/>
		<path class="st2" d="M957.5,690h-0.3c-0.8-0.1-1.4-0.9-1.2-1.7c0,0,0,0,0,0c3.2-19-0.9-35.7-12.2-49.7c-5-6.3-11.2-11.5-18.2-15.4
			c-0.7-0.4-1-1.3-0.7-2c0.4-0.7,1.3-1,2-0.7c0.4,0.2,40,20.8,32,68.3C958.9,689.5,958.2,690,957.5,690z"/>
		<path class="st2" d="M928.5,763h-0.3c-0.8-0.2-1.3-0.9-1.2-1.8c4-20.6-1.3-37.6-15.7-50.7c-6.8-6-14.7-10.7-23.3-13.6
			c-0.8-0.2-1.2-1.1-1-1.9s1.1-1.2,1.9-1l0,0c9,3.1,17.2,7.9,24.3,14.2c10.6,9.5,22,26.5,16.7,53.5C929.8,762.5,929.2,763,928.5,763
			z"/>
		<path d="M853.5,449L853.5,449c-0.4,0-36.8-2-76.6-19c-23.4-10-43.4-23.2-59.5-39.2c-20.1-20-34-44.6-41.4-72.9
			c-0.2-0.8,0.2-1.6,1-1.9c0.8-0.2,1.6,0.2,1.9,1c0,0,0,0.1,0,0.1c16.4,62.9,62.9,94.6,99,110.1c39.4,16.8,75.3,18.8,75.6,18.8
			c0.8,0,1.5,0.7,1.5,1.5C855,448.4,854.3,449,853.5,449z"/>
		<path d="M732.9,452.5c-8.3-0.1-16.4-1.8-24-5c-16-6.6-39-23.1-57.8-64.4c-0.3-0.8,0-1.6,0.8-2s1.6,0,2,0.8
			c18.3,40.2,40.6,56.4,56,62.8c16.7,6.9,29.2,4.4,29.3,4.4c0.8-0.2,1.6,0.3,1.8,1.2c0.2,0.8-0.3,1.6-1.2,1.8l0,0
			C737.5,452.4,735.2,452.6,732.9,452.5z"/>
		<path d="M551.5,758c-0.6,0-1.1-0.4-1.4-0.9c-17.1-39.1,3.1-91,4-93.2c0.3-0.8,1.2-1.1,1.9-0.8s1.1,1.2,0.8,1.9
			c-0.2,0.5-20.6,52.9-4,90.8c0.3,0.8,0,1.7-0.8,2c0,0,0,0,0,0C551.9,758,551.7,758,551.5,758z"/>
		<path d="M997.5,485c-0.8,0-1.5-0.7-1.5-1.5c0-0.2,0-0.4,0.1-0.5c9.9-31.1,9-55-2.7-71c-15.1-20.7-43.6-21-43.9-21
			c-0.8,0-1.5-0.7-1.5-1.5s0.7-1.5,1.5-1.5l0,0c1.2,0,30.2,0.3,46.3,22.2c12.3,16.9,13.4,41.7,3.2,73.7
			C998.7,484.6,998.2,485,997.5,485z"/>
	</g>
</g>
</svg>
