<?xml version="1.0" encoding="utf-8"?>
<!-- Generator: Adobe Illustrator 24.1.2, SVG Export Plug-In . SVG Version: 6.00 Build 0)  -->
<svg version="1.1" id="shop-2_1_" xmlns="http://www.w3.org/2000/svg" xmlns:xlink="http://www.w3.org/1999/xlink" x="0px" y="0px"
	 viewBox="0 0 1000 1000" style="enable-background:new 0 0 1000 1000;" xml:space="preserve">
<style type="text/css">
	.st0{fill:#6C32AD;}
	.st1{fill:#FFAD00;}
	.st2{fill:#1D1D1B;}
	.st3{fill:#E89D00;}
	.st4{fill:#1D1E1B;}
	.st5{fill:#FFB49F;}
	.st6{fill:#FFCDB2;}
	.st7{fill:#FFFFFF;}
	.st8{fill:#FFC140;}
	.st9{fill:#D9CFFF;}
</style>
<g id="shop-2">
	<g id="line">
		<path d="M905,861.9L905,861.9l-748.7-4.3c-1.4,0-2.6-1.2-2.6-2.6s1.2-2.6,2.6-2.6l0,0l748.7,4.3c1.4,0,2.6,1.2,2.6,2.6
			S906.4,861.9,905,861.9z"/>
		<path d="M159.6,892.1H52c-1.1,0-1.9-0.9-1.9-1.9s0.9-1.9,1.9-1.9c0,0,0,0,0,0h107.6c1.1,0,1.9,0.9,1.9,1.9
			S160.7,892.1,159.6,892.1C159.6,892.1,159.6,892.1,159.6,892.1z"/>
		<path d="M956.6,907.1H849c-1.1,0-1.9-0.9-1.9-1.9s0.9-1.9,1.9-1.9c0,0,0,0,0,0h107.6c1.1,0,1.9,0.9,1.9,1.9
			S957.7,907.1,956.6,907.1C956.6,907.1,956.6,907.1,956.6,907.1z"/>
	</g>
	<g id="woman">
		<path class="st0" d="M477.3,634.5c0,0-12.4,22.8-26.9,10.4s-45.3-39.4-66.2-18.9s-20.5,26.6-39.1,17.8s-77.2,35-33.9,73.2
			c71,62.6,201-39.5,201-39.5l-9.1-19.7L477.3,634.5z"/>
		<path d="M368.5,738.8c-23.1,0-42.7-6.9-58.3-20.7c-17.6-15.5-20.9-34.8-9.1-52.7c11-16.7,33.5-28.3,44.6-23
			c14.1,6.8,15.9,4.9,27.6-7.5c2.8-2.9,5.9-6.2,9.8-10c21.6-21.2,52.7,5.5,67.7,18.4l0.6,0.5c3.2,2.7,6.5,3.8,9.8,3.2
			c8.4-1.6,14.7-13,14.8-13.2l0.9-1.7l27.5,24.8l9.7,21l-0.9,0.7c-0.3,0.3-33.1,25.9-74.2,43.4c-24.2,10.3-46.5,16-66.3,16.6
			C371.2,738.8,369.8,738.8,368.5,738.8z M339.3,644.1c-10.2,0-26.5,8.9-35.7,22.9c-6.4,9.7-13.9,29,8.5,48.8
			c36.1,31.8,88.1,19.5,125.5,3.5c36.9-15.8,67-38.1,72.7-42.3l-8.5-18.3l-24.2-21.9c-2.2,3.5-8.1,11.6-15.9,13
			c-4.3,0.8-8.4-0.5-12.3-3.8l-0.6-0.5c-14.3-12.3-44-37.8-63.6-18.5c-3.9,3.8-7,7.1-9.7,9.9c-11.8,12.5-15,15.8-31.1,8.1
			C342.8,644.4,341.1,644.1,339.3,644.1L339.3,644.1z"/>
		<path class="st1" d="M360.3,856.2c0,0-20.6-192.8,171.8-186.1c254.5,8.9,170.4,186.1,170.4,186.1L360.3,856.2z"/>
		<path class="st2" d="M703.7,858.2H358.5l-0.2-1.8c-1.3-16.8-0.7-33.7,1.8-50.4c3.8-26.2,13.9-63.5,40.8-92.3
			c30-32.2,74.1-47.5,131.3-45.5c87.3,3,144.7,26.1,170.5,68.6c17.1,28,16.6,59.3,13.2,80.6c-2.1,13.7-6,27.1-11.6,39.8L703.7,858.2
			z M362.1,854.2h339c3.8-8.9,27.3-67.5-1.9-115.5c-25.1-41.2-81.4-63.7-167.2-66.6c-55.9-2-99,12.9-128.2,44.2
			C357.8,765.7,361.2,841.6,362.1,854.2L362.1,854.2z"/>
		<path class="st1" d="M651.5,694.9c0,0,80.9,30.8,93.8,111.8c19,119.6-86.6,112.5-111.9,89s-73.4-62.1-77.6-87.3
			s12.4-32.8,12.4-32.8l-7-18.1l56.5-37.2l7.3,10.9c0,0,25.8-5.7,36.5,15.5s22.5,49.1,29.8,61"/>
		<path class="st2" d="M678.5,911.1c-19.5,0-37.6-6.3-46.2-14.3c-4.2-3.9-9.1-8.3-14.3-12.9c-26.8-24-60.2-53.8-63.8-75.3
			c-3.7-21.9,8.1-31.2,12.1-33.7l-6.5-16.9c-0.3-0.7,0-1.4,0.6-1.8l56.5-37.2c0.7-0.5,1.6-0.3,2.1,0.4c0,0,0,0,0,0l6.7,10.1
			c5-0.8,27.3-3,37.1,16.5c4.4,8.7,9,18.5,13.4,28c6.2,13.4,12.1,26,16.3,33c0.4,0.7,0.1,1.6-0.6,2c-0.7,0.4-1.5,0.2-2-0.5
			c-4.3-7.1-10.2-19.8-16.5-33.2c-4.4-9.4-8.9-19.2-13.3-27.9c-10-19.9-34.6-14.8-34.8-14.7c-0.6,0.1-1.2-0.1-1.6-0.6l-6.4-9.7
			l-54.2,35.7l6.5,17c0.3,0.7-0.1,1.6-0.8,1.9c-0.6,0.3-15.6,7.4-11.6,31.1c3.5,20.5,37.8,51.2,62.8,73.6c5.2,4.6,10.1,9,14.3,12.9
			c13.2,12.3,50.4,20.5,78.5,5.5c19.2-10.2,40.1-34.7,30.9-93.1c-6.5-41.3-31.4-69.2-51.1-85.2c-21.4-17.5-41.5-25.3-41.7-25.3
			c-0.8-0.3-1.1-1.2-0.8-2c0.3-0.7,1.1-1.1,1.9-0.8c0.2,0.1,20.7,8,42.5,25.8c20.1,16.4,45.5,44.9,52.2,87.2
			c9.5,60.1-12.4,85.5-32.4,96.2C703.1,908.6,690.5,911.1,678.5,911.1z"/>
		<path class="st3" d="M569.9,776.1c0,0,42.8-4.9,54.3-43.8l-6.8-11l-54.2,36.5L569.9,776.1z"/>
		<path class="st1" d="M447.2,683.4c0,0-86.1,38.5-93.8,118.2c-11.7,120.5,91.2,117.6,116.6,94.1s73.3-62.1,77.6-87.3
			s-12.4-32.8-12.4-32.8l7-18.1l-56.6-37.2l-7.3,10.9c0,0-25.8-5.7-36.5,15.5s-22.5,49.1-29.8,61"/>
		<path class="st2" d="M428.7,910c-12.4,0.1-24.6-2.6-35.8-8c-14.4-7.1-25.3-18.4-32.4-33.6c-8.3-17.7-11.2-40.2-8.6-67
			c4-41.6,29.6-71.9,50.3-90c13.4-11.7,28.3-21.7,44.4-29.5c0.7-0.4,1.6-0.1,2,0.6c0.4,0.7,0.1,1.6-0.6,2c-0.1,0-0.1,0.1-0.2,0.1
			c-15.8,7.7-30.5,17.5-43.7,29c-20.3,17.7-45.3,47.3-49.2,87.9c-6,61.7,18.1,87.1,39.3,97.6c29.2,14.5,62.7,6.4,74.7-4.8
			c4.2-3.9,9.1-8.3,14.3-12.9c25.1-22.4,59.4-53,62.9-73.6c4-23.8-11.4-31.1-11.6-31.1c-0.7-0.3-1.1-1.2-0.8-1.9l6.5-17L486,722.4
			l-6.4,9.6c-0.3,0.5-1,0.8-1.6,0.6c-1-0.2-24.8-5.2-34.8,14.7c-4.4,8.7-8.9,18.4-13.3,27.9c-6.3,13.5-12.2,26.2-16.5,33.2
			c-0.4,0.7-1.3,1-2,0.6c-0.7-0.4-1-1.3-0.6-2c0,0,0-0.1,0.1-0.1c4.2-6.9,10.1-19.5,16.4-32.9c4.4-9.5,9-19.3,13.4-28
			c9.9-19.5,32.1-17.3,37.1-16.5l6.7-10.1c0.5-0.7,1.4-0.9,2.1-0.4c0,0,0,0,0,0l56.5,37.2c0.6,0.4,0.8,1.1,0.6,1.8l-6.5,16.9
			c4,2.5,15.8,11.7,12.1,33.7c-3.6,21.5-37,51.3-63.8,75.3c-5.2,4.6-10,9-14.3,12.9C462.3,904.8,446.2,910,428.7,910z"/>
		<path class="st3" d="M533.4,776.1c0,0-42.8-4.9-54.3-43.8l6.9-11l54.2,36.5L533.4,776.1z"/>
		<path class="st2" d="M505.8,547.5c-0.9,0-1.7-0.6-1.9-1.5c-6.7-26.2,19.3-38.4,19.6-38.5c1-0.5,2.2,0,2.7,1c0.5,1,0,2.2-1,2.6l0,0
			c-1,0.4-23.2,10.9-17.4,33.8c0.3,1.1-0.4,2.2-1.4,2.4c0,0,0,0,0,0C506.2,547.4,506,547.5,505.8,547.5z"/>
		<circle class="st0" cx="553.2" cy="556.3" r="39.6"/>
		<path class="st4" d="M553.2,597.4h-0.6c-22.7-0.2-40.9-18.7-40.8-41.3c0.2-22.7,18.7-40.9,41.4-40.8h0.6
			c22.7,0.2,40.9,18.7,40.8,41.4C594.4,579.3,575.9,597.6,553.2,597.4z M553.2,518.3c-21-0.2-38.2,16.8-38.3,37.8
			c-0.2,21,16.8,38.2,37.8,38.3l0,0h0.6c20.8-0.1,37.7-16.7,38-37.5l0,0c0.3-21-16.5-38.3-37.5-38.6H553.2z"/>
		<path class="st0" d="M592.5,573.1c-15.8-29-60.4-23.5-71.8-11c-28.3,31.1-55.6,15.8-61,49.5c-2.7,16.9,12.2,23.6,5,54.5
			c-3.8,16,23,40.8,47.5,41.2s107.9,2.5,114.9-15.4s34.5-47.6,12.5-82.1C617.4,574.9,599.4,585.7,592.5,573.1z"/>
		<path class="st4" d="M536.5,709c-7,0-14-0.1-20.9-0.2l-3.3-0.1c-17.2-0.3-33.9-11.8-42.2-22.5c-5.7-7.3-8-14.6-6.6-20.5
			c4.2-17.9,0.9-27.3-2.1-35.7c-2.1-5.8-4-11.4-2.9-18.7c3.1-19.5,13.4-23.4,26.5-28.3c10.5-3.9,22.5-8.4,34.8-22
			c7.1-7.7,24.3-12.1,40-10.2c15.6,1.9,27.7,9.5,34.2,21.4l0,0c2.3,4.3,6.1,5.5,11.4,7.3c9.1,3,21.6,7.2,35.7,29.3
			c17.8,28,4,52.7-6,70.8c-2.4,4.1-4.5,8.3-6.4,12.6C623.1,706.2,579.8,709,536.5,709z M552.1,553.5c-13.5,0-25.5,4.5-30.2,9.7
			c-12.9,14.1-25.7,18.9-36,22.8c-12.6,4.7-21.8,8.2-24.6,25.9c-1,6.5,0.7,11.5,2.7,17.2c3.1,8.8,6.6,18.7,2.2,37.4
			c-1.2,5,1,11.4,6.1,18c7.9,10.1,23.7,21.1,39.9,21.3l3.3,0.1c25.7,0.4,103.8,1.7,110.1-14.5c1.9-4.5,4.1-8.8,6.6-13
			c9.7-17.4,23-41.3,6.1-67.7c-13.5-21.2-25.4-25.2-34.1-28c-5.5-1.8-10.2-3.4-13.1-8.7l0,0c-6-11-17.3-18.1-31.9-19.9
			C556.9,553.6,554.5,553.5,552.1,553.5L552.1,553.5z"/>
		<path class="st5" d="M566.4,638.9c-20.2,3.1-46.6-7.1-51.7-0.3s-2,16.6,8.6,19.6s21.4,3.3,43.5,2.7s43.7-2.6,41.8-14.5
			S596.1,634.3,566.4,638.9z"/>
		<path class="st6" d="M555.5,580.6c-8.3,31.2-40,45.1-57.3,46.4c-3.9,9.5-2.2,22.4-2.3,33.6c-0.6,41.2,21.4,71.3,61,69.2
			c38.7-2.1,59.3-23.9,59.5-69.3c0-10.7,0.6-21.3-2.7-30.6C580.9,629.4,555.5,580.6,555.5,580.6z"/>
		<path class="st2" d="M553.1,731.5c-15.5,0-28.9-5.1-38.9-14.8c-13.1-12.6-20.1-32.5-19.8-56.1c0-2.8,0-5.7-0.1-8.6
			c-0.2-8.9-0.5-18.2,2.6-25.6l0.4-0.8l0.9-0.1c18.6-1.4,48.3-16.4,56-45.3l1-3.7l1.8,3.4c0.3,0.5,25.4,48,56.9,48.6h1l0.3,1
			c3,8.4,2.9,18,2.8,27.3c0,1.3,0,2.5,0,3.8c-0.1,22.7-5.4,40.2-15.7,51.9c-10.1,11.5-25.3,17.8-45.3,18.9
			C555.7,731.5,554.4,731.5,553.1,731.5z M499.3,628.5c-2.5,6.7-2.2,15.2-2,23.5c0.1,2.9,0.2,5.9,0.1,8.7
			c-0.3,22.8,6.4,41.9,18.8,53.9c10.3,9.9,24.3,14.7,40.6,13.8c38.8-2.1,57.8-24.3,58-67.8c0-1.3,0-2.6,0-3.8
			c0.1-9.1,0.2-17.6-2.3-25.3c-28.2-1.4-50.4-36.2-56.7-47C546.3,613.5,516.9,626.7,499.3,628.5z"/>
		<path class="st5" d="M562.3,641.3c-24.1,4-55.7-8-61.6,0.3s-2.3,19.9,10.5,23.3s25.6,3.6,51.9,2.8s52-3.7,49.7-17.8
			S597.6,635.4,562.3,641.3z"/>
		<path d="M554.6,677.9L554.6,677.9c-0.8,0-1.5-0.7-1.5-1.5c0,0,0,0,0,0l0.5-32.4c0-0.8,0.7-1.5,1.5-1.5s1.5,0.7,1.5,1.5l-0.5,32.4
			C556.1,677.2,555.5,677.9,554.6,677.9C554.6,677.9,554.6,677.9,554.6,677.9z"/>
		<path class="st7" d="M526.1,545.4c-0.3,0-0.7-0.1-1-0.2c-1.2-0.6-1.8-2.1-1.2-3.3c0.3-0.7,8.6-18,31-19.1c1.4-0.1,2.6,1,2.6,2.4
			s-1,2.6-2.4,2.6c-19.3,1-26.4,15.6-26.7,16.3C528,544.9,527.1,545.5,526.1,545.4z"/>
		<path d="M549.5,695.4c-1.4,0-2.8-0.2-4.1-0.5c-8.1-2.2-12.6-10.3-12.8-10.7c-0.4-0.7-0.2-1.6,0.5-2.1c0.7-0.4,1.6-0.2,2.1,0.5
			c0,0,0,0.1,0,0.1c0.1,0.1,4.1,7.3,11,9.2c3.7,1,7.5,0.3,11.5-2.1c0.7-0.4,1.6-0.2,2.1,0.5s0.2,1.6-0.5,2.1
			C556.3,694.3,553,695.3,549.5,695.4z"/>
		<path d="M541.6,651.2c-0.4,0-0.7-0.1-1-0.4c-14.3-12.8-30.2-1.5-30.4-1.4c-0.7,0.4-1.6,0.2-2.1-0.5c-0.4-0.6-0.3-1.5,0.3-1.9
			c0.2-0.1,18-12.8,34.1,1.6c0.6,0.5,0.7,1.5,0.1,2.1C542.4,651,542,651.2,541.6,651.2z"/>
		<path d="M566.2,649.7c-0.8,0-1.5-0.7-1.5-1.5c0-0.5,0.3-1,0.8-1.3c0.9-0.5,22.5-12.6,38.4-1.5c0.7,0.4,0.9,1.4,0.5,2.1
			s-1.4,0.9-2.1,0.5c-0.1,0-0.1-0.1-0.2-0.1c-14.4-10.1-35,1.5-35.2,1.6C566.7,649.6,566.4,649.7,566.2,649.7z"/>
		<path d="M512.4,619c-0.4,0-0.7-0.1-1-0.3c-0.6-0.5-0.7-1.5-0.2-2.1c0,0,0,0,0,0c0.6-0.7,13.9-16.2,29.6-11.3c0.8,0.2,1.3,1,1,1.8
			s-1,1.3-1.8,1c0,0-0.1,0-0.1,0c-13.8-4.3-26.3,10.2-26.4,10.4C513.3,618.8,512.9,619,512.4,619z"/>
		<path d="M592.2,617.5c-0.3,0-0.7-0.1-0.9-0.3c-12.8-10-24.3-3-24.4-3c-0.7,0.5-1.6,0.3-2.1-0.4c-0.5-0.7-0.3-1.6,0.4-2.1
			c0,0,0.1-0.1,0.1-0.1c0.1-0.1,13.3-8.1,27.8,3.2c0.7,0.5,0.8,1.5,0.3,2.1C593.1,617.2,592.7,617.5,592.2,617.5L592.2,617.5z"/>
		<path class="st6" d="M549.8,742.7c0,0-11.5,19.1-33.7,10.8s-40-22.8-42.2-41s6.7-29.3,16.2-33.2s18.2,1.6,20.8,14.5
			c0,0,17.6-3.6,20.8,19.3c0,0,28.3,4.8,10.9,23.7L549.8,742.7z"/>
		<path class="st2" d="M496,678c7,0,12.8,5.6,14.9,15.8c0.9-0.2,1.7-0.2,2.6-0.2c5,0,15.8,2.1,18.3,19.5c0,0,28.3,4.8,10.9,23.7
			l7.2,5.8c0,0-7.8,12.9-22.9,12.9c-3.7,0-7.4-0.7-10.8-2.1c-22.1-8.3-40-22.8-42.2-41s6.7-29.3,16.2-33.2
			C492,678.4,494,678,496,678 M496,675c-2.4,0-4.8,0.5-7.1,1.5c-9.9,4.1-20.5,16.1-18,36.4c1.1,9.4,6,18.1,14.6,26
			c7.5,7,17.8,13,29.6,17.4c3.8,1.5,7.8,2.2,11.9,2.3c16.6,0,25.1-13.8,25.4-14.3l1.3-2.2l-2-1.7l-4.8-3.9c4-5.2,5.3-10,3.8-14.4
			c-2.5-7.3-11.9-10.4-16.3-11.5c-3.4-18-15.6-20-20.9-20h-0.3C510.5,680.9,504,675,496,675z"/>
		<path class="st2" d="M493.5,724.6c-0.8,0-1.4-0.6-1.5-1.4c-0.1-13.6,7.7-26.1,20-32c0.7-0.4,1.6-0.1,2,0.7s0.1,1.6-0.7,2
			c-19.4,9.8-18.3,28.9-18.3,29.1c0.1,0.8-0.6,1.5-1.4,1.6c0,0,0,0,0,0H493.5z"/>
		<path class="st2" d="M512.8,735.6c-0.2,0-0.4-0.1-0.6-0.1c-0.7-0.3-1.1-1.2-0.7-2c0,0,0,0,0,0c0.3-0.7,8.5-18,20.5-23.3
			c0.7-0.4,1.6,0,2,0.7c0.4,0.7,0,1.6-0.7,2c0,0,0,0-0.1,0c-11,4.9-18.9,21.7-19,21.9C513.9,735.3,513.3,735.6,512.8,735.6z"/>
		<path class="st2" d="M532.2,749.7c-0.8,0-1.5-0.7-1.5-1.5c0-0.7,0.4-1.3,1.1-1.4c6.7-2,11.4-11.5,11.5-11.6c0.4-0.7,1.3-1.1,2-0.7
			c0.7,0.3,1.1,1.2,0.7,2c0,0,0,0,0,0c-0.2,0.5-5.3,10.9-13.3,13.2C532.4,749.7,532.3,749.7,532.2,749.7z"/>
		<path class="st7" d="M481.1,722.9c-0.6,0-1.1-0.3-1.3-0.8c-0.3-0.5-6-11.6-2.3-23.5c2.3-7.4,7.8-13.5,16.3-17.9
			c0.7-0.4,1.6-0.1,2,0.6c0.4,0.7,0.1,1.6-0.6,2c0,0,0,0,0,0c-7.8,4-12.8,9.5-14.9,16.1c-3.4,10.7,2,21.1,2.1,21.2
			c0.4,0.7,0.1,1.6-0.6,2C481.6,722.8,481.4,722.9,481.1,722.9z"/>
		<path class="st6" d="M553.2,742.7c0,0,11.6,19.1,33.7,10.8s40-22.8,42.2-41s-6.7-29.3-16.2-33.2s-18.2,1.6-20.8,14.5
			c0,0-17.6-3.6-20.9,19.3c0,0-28.3,4.8-10.9,23.7L553.2,742.7z"/>
		<path class="st2" d="M607,678c2,0,4,0.4,5.9,1.3c9.5,4,18.4,15.1,16.2,33.2s-20.1,32.7-42.2,41c-3.4,1.3-7.1,2-10.8,2.1
			c-15.1,0-22.9-12.9-22.9-12.9l7.2-5.8c-17.4-18.9,10.9-23.7,10.9-23.7c2.5-17.4,13.2-19.5,18.3-19.5c0.9,0,1.7,0.1,2.6,0.2
			C594.1,683.7,600,678,607,678 M607,675L607,675c-8,0-14.5,5.9-17.2,15.6h-0.3c-5.3,0-17.5,2-20.9,20c-4.4,1.1-13.8,4.2-16.3,11.5
			c-1.5,4.4-0.2,9.2,3.8,14.4l-4.8,3.9l-2,1.7l1.3,2.2c0.3,0.6,8.9,14.3,25.4,14.3c4.1,0,8.1-0.8,11.9-2.3
			c11.8-4.4,22-10.4,29.6-17.4c8.5-7.9,13.5-16.6,14.6-26c2.4-20.3-8.2-32.3-18.1-36.4C611.8,675.6,609.4,675,607,675L607,675z"/>
		<path class="st2" d="M609.5,724.6L609.5,724.6c-0.9-0.1-1.6-0.8-1.5-1.6c0,0,0,0,0,0c0-0.8,1-19.3-18.4-29.2c-0.7-0.4-1-1.3-0.7-2
			c0.4-0.7,1.3-1,2-0.7l0,0c12.3,5.9,20.1,18.4,20,32C610.9,724,610.3,724.6,609.5,724.6z"/>
		<path class="st2" d="M590.2,735.6c-0.6,0-1.1-0.3-1.4-0.9c-0.1-0.2-8-17-19-21.9c-0.8-0.3-1.1-1.2-0.8-2s1.2-1.1,2-0.8
			c12,5.4,20.1,22.6,20.5,23.3c0.4,0.7,0,1.6-0.7,2c0,0,0,0,0,0C590.6,735.6,590.4,735.6,590.2,735.6z"/>
		<path class="st2" d="M570.8,749.7c-0.1,0-0.3,0-0.4-0.1c-8-2.3-13.1-12.8-13.3-13.2c-0.3-0.8,0.1-1.6,0.8-1.9
			c0.7-0.3,1.5,0,1.9,0.7c0,0.1,4.7,9.7,11.5,11.6c0.8,0.2,1.3,1.1,1,1.9C572.1,749.3,571.5,749.7,570.8,749.7L570.8,749.7z"/>
		<path class="st7" d="M621.9,722.9c-0.2,0-0.5-0.1-0.7-0.2c-0.7-0.4-1-1.3-0.6-2c0-0.1,5.4-10.5,2.1-21.2
			c-2.1-6.6-7.1-12-14.9-16.1c-0.7-0.4-1-1.3-0.5-2.1c0.4-0.7,1.2-0.9,1.9-0.6c8.5,4.4,14,10.4,16.3,17.9c3.7,11.9-2,23-2.3,23.5
			C622.9,722.6,622.4,722.9,621.9,722.9z"/>
		<circle class="st8" cx="447.1" cy="701.4" r="5.7"/>
		<circle class="st8" cx="395.7" cy="758" r="5.7"/>
		<circle class="st8" cx="412.4" cy="853" r="5.7"/>
		<circle class="st8" cx="471.5" cy="863.3" r="5.7"/>
		<circle class="st8" cx="461.2" cy="782.4" r="5.7"/>
		<circle class="st8" cx="583.3" cy="814.5" r="5.7"/>
		<circle class="st8" cx="646.2" cy="808.1" r="5.7"/>
		<circle class="st8" cx="696.3" cy="871" r="5.7"/>
		<circle class="st8" cx="695" cy="765.7" r="5.7"/>
		<path class="st7" d="M408.7,896.5c-0.3,0-0.6-0.1-0.9-0.2c-27.2-10.3-43-32.2-45.6-63.3c-1.1-14.7,0.3-29.6,4.3-43.8
			c0.4-1.3,1.9-2,3.2-1.6c1.3,0.4,2,1.8,1.6,3c-3.7,13.7-5.1,27.9-4.1,42.1c2.5,29.4,16.8,49.2,42.4,58.9c1.3,0.5,1.9,1.9,1.4,3.2
			C410.6,895.9,409.7,896.5,408.7,896.5L408.7,896.5z"/>
		<path class="st7" d="M683,902.3c-1.4,0.1-2.6-0.9-2.7-2.3c-0.1-1.4,0.9-2.6,2.3-2.7l0,0c18.6-3.4,32.2-11.8,40.5-25
			c16.4-26.2,6.5-62.8,6.4-63.1c-0.3-1.3,0.5-2.7,1.9-3c1.3-0.3,2.6,0.4,3,1.7c0.4,1.6,10.6,39.1-6.9,67.1
			c-9,14.4-23.8,23.6-43.8,27.2C683.3,902.3,683.2,902.3,683,902.3z"/>
	</g>
	<g id="shop-3">
		<path d="M244,857.6c-0.1-0.6-15.3-58.5-21-137.6c-3.4-46.5-2.8-91.1,1.6-132.6c5.5-51.9,17.1-99.1,34.4-140.3
			c16.5-39.4,50-70.1,99.5-91.4c44.3-19.1,99.3-29.4,159.3-29.8h3.7c68.2,0,136.8,12.8,193.6,36c62.9,25.7,106,61.9,124.6,104.4
			C856.2,504,867,547.9,871.9,597c3.9,39.2,4,81.8,0.3,126.5c-6.3,76.1-21.5,132.8-21.7,133.4l-2.9-0.8
			c0.2-0.6,15.4-57.1,21.6-132.9c5.7-69.9,4.8-171-32.2-255.6c-18.3-41.8-60.8-77.4-123-102.8c-57.5-23.5-127.2-36.3-196.2-35.8
			c-59.6,0.4-114.3,10.6-158.1,29.5c-48.8,21-81.7,51.2-98,89.8c-39,92.6-41,198.7-35.7,271.5c5.7,78.9,20.8,136.5,21,137.1
			L244,857.6z"/>
		<path class="st1" d="M837,361.8c-14.2-32.1-152.2-54.5-319.7-50.9c-129.9,2.8-241.3,20.5-290.9,43.5c-4-0.5-8-0.7-12-0.6
			c-45.6,1-81.9,36.9-80.9,80.3s38.7,77.7,84.3,76.7c32.4-0.7,60.1-19,73-45.1c14.1,25.5,42.5,42.6,74.9,41.9
			c35.9-0.8,65.9-23.2,76.7-53.8c12.1,30.1,43,51.2,78.9,50.4c33-0.7,61.1-19.8,73.8-46.6c11.1,31.8,43,54.5,80.2,53.6
			c33-0.7,61.1-19.8,73.8-46.6c11.1,31.8,43,54.4,80.2,53.6c45.6-1,81.8-36.9,80.9-80.3C909.3,398.3,877.5,366.1,837,361.8z"/>
		<path class="st2" d="M827.3,519.8c-17.4,0.1-34.4-5.1-48.8-14.9c-13.3-9-23.6-21.7-29.7-36.5c-13.9,26.4-42.4,43.7-73.5,44.4
			c-18,0.5-35.8-4.7-50.7-14.9c-13.3-9-23.6-21.7-29.6-36.5c-13.9,26.4-42.4,43.7-73.5,44.4c-34.1,0.8-65.4-18.4-78.9-47.9
			c-12.3,30.1-42.6,50.5-76.8,51.3c-31.1,0.7-59.6-14.7-74.9-40.3c-14.2,26.2-41.9,42.8-73.1,43.5H216c-45.5,0-83-34.7-83.9-78.2
			c-0.9-44.1,36-80.8,82.4-81.8c3.9-0.1,7.8,0.1,11.7,0.5c51.4-23.7,165.5-40.8,291-43.5c167-3.6,304.2,18.3,320.8,51
			c41.2,4.8,72.8,38,73.7,77.6c0.4,21.5-8,42.1-23.4,57.1c-15.7,15.5-36.8,24.3-58.9,24.7L827.3,519.8z M749.3,460.7l1.2,3.5
			c11.2,32.3,42.9,53.4,78.7,52.6c21.3-0.3,41.7-8.8,56.9-23.8c15-14.9,23-34.4,22.5-54.9c-0.8-38.4-31.7-70.5-71.8-74.8l-0.9-0.1
			l-0.3-0.8c-14-31.6-153.8-53.5-318.3-50c-125.4,2.7-239.3,19.7-290.2,43.4l-0.4,0.2l-0.4,0c-3.9-0.4-7.8-0.6-11.8-0.5
			c-44.7,1-80.4,36.3-79.4,78.7c0.9,41.8,37,75.2,80.9,75.2h1.9c31-0.7,58.5-17.6,71.7-44.3l1.3-2.6l1.4,2.5
			c14.4,26,42.6,41.8,73.5,41.1c34.2-0.7,64.5-21.9,75.3-52.8l1.3-3.8l1.5,3.7c12.1,30.3,43.3,50.2,77.5,49.5
			c31.3-0.7,59.7-18.6,72.4-45.8l1.6-3.3l1.2,3.5c11.2,32.3,42.9,53.4,78.7,52.6c31.2-0.7,59.7-18.6,72.4-45.8L749.3,460.7z"/>
		<path class="st1" d="M240.4,216.1c0,0,329.5-34,577.5,0v54.3l74.7,118.9c0,0-372-73-747.4,0l101.1-118L240.4,216.1z"/>
		<path class="st2" d="M141.3,391.6l103.4-120.8l-6-56.1l1.5-0.1c0.8-0.1,83.7-8.6,195.8-12.8c103.5-3.9,253.8-4.8,382,12.8l1.3,0.2
			V270l76.4,121.5l-3.4-0.7c-0.9-0.2-94.5-18.4-232.8-27.4c-127.5-8.3-320.3-10.3-514,27.4L141.3,391.6z M505.9,355.4
			c50.6,0,102.1,1.7,153.9,5.1c123.7,8.1,211.7,23.5,229.7,26.8l-73.1-116.4v-53.5c-127.7-17.4-277.2-16.4-380.2-12.6
			c-103.8,3.9-182.5,11.4-194.2,12.6l5.9,54.3l-0.4,0.5l-98.3,114.8c84.5-16.2,175.7-26.3,271.1-30
			C448.5,355.9,477,355.4,505.9,355.4L505.9,355.4z"/>
		<path class="st9" d="M326.6,258.4L290,367.9c54.9-5.8,108.6-9,160-10.3l-6.7-108.5l-2.5-45.9c-43.4,1.6-82.4,3.8-114.2,5.9
			L326.6,258.4z"/>
		<path class="st4" d="M287.9,369.6l37.3-111.5v-50.4l1.4-0.1c38-2.6,76.4-4.6,114.2-5.9l1.5-0.1l2.5,47.4l6.8,110H450
			c-54.6,1.4-108.4,4.8-159.8,10.3L287.9,369.6z M328.1,210.5v48.1l-0.1,0.2l-35.9,107.3c50.3-5.3,102.9-8.6,156.2-10l-6.6-106.9
			l-2.4-44.5C402.5,206.1,365.1,208,328.1,210.5L328.1,210.5z"/>
		<path class="st9" d="M743,258.4l0.1-50.4c-42.2-3.5-85.5-5.5-128.2-6.4l-6.1,157.6c61.6,2.7,116.2,7.5,160.7,12.5L743,258.4z"/>
		<path class="st4" d="M771.5,373.4l-2.1-0.2c-52.8-5.9-106.8-10.1-160.6-12.5l-1.5-0.1l6.2-160.6h1.5c45.5,0.9,88.7,3.1,128.3,6.4
			l1.4,0.1l-0.1,51.6L771.5,373.4z M610.5,357.7c52.7,2.4,105.5,6.5,157.2,12.2l-26.1-111.4v-0.2l0.1-49
			c-38.7-3.2-80.8-5.3-125.2-6.2L610.5,357.7z"/>
		<path class="st2" d="M245.8,271.9l-0.6-2.9c0.7-0.1,74.8-13.7,181.9-20.4c98.9-6.2,247-7.7,391,20.4l-0.6,2.9
			c-143.7-28-291.5-26.5-390.3-20.4C320.4,258.3,246.5,271.8,245.8,271.9z"/>
		<path class="st2" d="M115.5,476.6c-0.5,0-1-0.3-1.3-0.7c-19.6-31.2-16.2-58.3-9.9-75.4c4.1-11.2,10.4-21.4,18.6-30.1
			c0.6-0.6,1.5-0.6,2.1,0c0.6,0.6,0.6,1.5,0,2.1c0,0,0,0-0.1,0.1c-7.9,8.4-14,18.3-17.9,29.1c-8.8,24-5.5,48.5,9.7,72.7
			c0.4,0.7,0.2,1.6-0.5,2.1c0,0,0,0,0,0C116.1,476.6,115.8,476.6,115.5,476.6z"/>
		<path class="st2" d="M930.3,492.2c-0.3,0-0.5-0.1-0.7-0.2c-0.7-0.4-1-1.3-0.6-2c22.5-40.4,17.8-74.9,9.9-96.7
			c-8.6-23.7-22.7-38-22.8-38.1c-0.6-0.6-0.6-1.5,0-2.1c0,0,0,0,0,0c0.6-0.6,1.5-0.6,2.1,0c0.6,0.6,14.7,14.8,23.5,39.1
			c8.2,22.4,13,57.8-10,99.3C931.4,491.9,930.9,492.2,930.3,492.2z"/>
		<path class="st7" d="M210.9,500.9c-0.3,0-0.6,0-0.8-0.1c-29.1-10.3-48.2-25.3-57-44.6c-6.1-13.2-6.9-28.3-2.3-42.1
			c0.5-1.3,2-1.8,3.3-1.3c1.2,0.5,1.8,1.9,1.4,3.1l0,0c-4,12.6-3.3,26.3,2.2,38.3c8.2,18,26.4,32.1,54.1,41.9c1.3,0.5,2,1.9,1.5,3.2
			C212.9,500.3,211.9,500.9,210.9,500.9L210.9,500.9z"/>
		<path class="st7" d="M661.8,500.9c-0.2,0-0.4,0-0.6-0.1c-32.1-8.2-47.7-27.6-55.1-42.4c-4.9-9.5-7.7-19.9-8.5-30.6
			c0-1.4,1.1-2.5,2.4-2.5c0,0,0,0,0,0h0.1c1.4,0,2.5,1.1,2.5,2.4l0,0c0.7,10,3.5,19.7,8,28.7c10.1,20.1,27.5,33.4,51.8,39.6
			c1.3,0.3,2.1,1.7,1.8,3C663.8,500.1,662.8,500.9,661.8,500.9L661.8,500.9z"/>
		<path class="st7" d="M747.8,350.6c-1.1,0-2.2-0.8-2.4-1.9l-18-73.2c-0.3-1.3,0.5-2.7,1.8-3c1.3-0.3,2.7,0.5,3,1.8l18,73.2
			c0.3,1.3-0.5,2.7-1.8,3C748.2,350.5,748,350.6,747.8,350.6z"/>
		<path class="st7" d="M433.1,330c-1.4,0-2.5-1.1-2.5-2.5v-52.6c0-1.4,1.1-2.5,2.5-2.5s2.5,1.1,2.5,2.5v52.7
			C435.6,328.9,434.5,330,433.1,330z"/>
		<path class="st2" d="M273.5,822c-0.7,0-1.2-0.4-1.4-1.1c-19.2-64.8-21.4-133.3-19.9-179.4c1.6-49.9,7.8-85,7.9-85.3
			c0.1-0.8,0.9-1.4,1.8-1.2c0.8,0.1,1.4,0.9,1.2,1.8c-0.3,1.4-24.5,140.1,12,263.3c0.2,0.8-0.2,1.6-1,1.9
			C273.9,822,273.7,822,273.5,822z"/>
		<path class="st2" d="M831.5,821c-0.1,0-0.2,0-0.4,0c-0.8-0.2-1.3-1-1.1-1.8c17.5-70,16.6-135.5,12.7-178
			c-4.2-46.1-12.6-75.9-12.7-76.2c-0.2-0.8,0.3-1.6,1.1-1.8c0.7-0.2,1.5,0.3,1.7,1c0.1,0.3,8.6,30.4,12.8,76.8
			c3.9,42.8,4.8,108.5-12.8,179C832.8,820.6,832.2,821,831.5,821z"/>
	</g>
	<g id="message-2">
		<path class="st0" d="M656.3,201.8c0-41.6,44.9-75.2,100.2-75.2s100.2,33.7,100.2,75.2S811.8,277,756.5,277
			c-6.8,0-13.5-0.5-20.2-1.5l-22.7,22l-5.3-29.8C677.3,255,656.3,230.2,656.3,201.8z"/>
		<path class="st4" d="M712.6,300.6l-5.7-31.8c-32.2-13.6-52.1-39.2-52.1-67c0-42.3,45.6-76.7,101.7-76.7s101.7,34.4,101.7,76.7
			s-45.6,76.7-101.7,76.7c-6.6,0-13.2-0.5-19.7-1.4L712.6,300.6z M756.5,128.1c-54.4,0-98.7,33.1-98.7,73.7
			c0,26.8,19.5,51.5,51,64.5l0.8,0.3l5,27.8l21.2-20.6l0.7,0.1c6.6,1,13.3,1.5,20,1.5c54.4,0,98.7-33.1,98.7-73.7
			S810.9,128.1,756.5,128.1z"/>
		<path class="st7" d="M688.1,237.6c-2.2-2.2-4.1-4.5-5.8-7.1c-1.7-2.5-3.2-5.1-4.5-7.9l-0.5-1.1L677,221c0.1,0.3,0,0,0-0.1
			c-0.3-0.7-0.6-1.5-0.9-2.2c-0.5-1.4-1-2.9-1.4-4.4s-0.7-3-1-4.4c-0.1-0.3-0.1-0.6-0.2-1s-0.1-0.4-0.1-0.6c0,0-0.1-0.7,0-0.3
			c-0.1-0.8-0.2-1.5-0.2-2.3c-0.3-3-0.2-6,0.1-9c0-0.3,0.1-0.7,0.1-1c0-0.1,0-0.3,0-0.5c-0.1,0.4,0-0.2,0-0.2
			c0.1-0.7,0.2-1.5,0.4-2.2c0.3-1.4,0.6-2.8,1-4.1s0.8-2.7,1.3-4.1c0.1-0.4,0.3-0.7,0.4-1.1l0.2-0.4c0-0.1,0.2-0.5,0-0.1
			c0.3-0.7,0.6-1.4,0.9-2.1c1.3-2.6,2.7-5.2,4.4-7.6c1.8-2.7,3.9-5.2,6.2-7.4c1.2-1.2,2.4-2.4,3.7-3.5c1.4-1.2,2.4-1.9,3.9-3
			c0.9-0.6,1.3-1.8,0.7-2.7c-0.6-1-1.8-1.3-2.7-0.7c0,0,0,0,0,0c-10.3,7.3-18.1,17.6-22.2,29.6c-3.9,11.9-3.3,24.9,1.5,36.5
			c2.8,6.8,7,13.1,12.1,18.3c0.8,0.8,2,0.8,2.8,0c0,0,0,0,0,0C688.9,239.6,688.9,238.4,688.1,237.6L688.1,237.6z"/>
		<path class="st7" d="M686.7,242c-0.8,0-1.6-0.3-2.2-0.9c-5.3-5.4-9.4-11.7-12.3-18.7c-5-11.8-5.5-25-1.5-37.2
			c4.2-12.2,12.1-22.7,22.6-30.1c0.6-0.4,1.3-0.6,2.1-0.4c0.9,0.2,1.6,0.7,2.1,1.4c0.8,1.4,0.4,3.2-1,4.1c-1.5,1.1-2.4,1.8-3.8,3
			s-2.5,2.2-3.6,3.4c-2.2,2.2-4.2,4.7-6,7.3c-1.6,2.4-3.1,4.9-4.3,7.4c-0.3,0.6-0.6,1.3-0.9,1.9l0,0c0,0,0,0,0,0.1l-0.2,0.6
			c-0.1,0.3-0.3,0.7-0.4,1c-0.5,1.3-0.9,2.6-1.3,4s-0.7,2.7-1,4.1c-0.1,0.7-0.3,1.4-0.4,2.2v0.1c0,0,0,0.1,0,0.1l0,0.4
			c0,0.3-0.1,0.7-0.1,1c-0.3,2.9-0.3,5.9-0.1,8.8c0.1,0.7,0.1,1.4,0.2,2.1l0,0c0,0.1,0,0.2,0,0.4l0.1,0.5c0,0.3,0.1,0.6,0.2,1
			c0.3,1.5,0.6,2.9,1,4.4s0.8,2.9,1.3,4.3c0.3,0.7,0.6,1.5,0.9,2.2l0.3,0.6c0.2,0.4,0.3,0.7,0.5,1.1c1.3,2.7,2.7,5.3,4.4,7.8
			c1.7,2.5,3.6,4.8,5.7,6.9c1.1,1.2,1.1,3,0,4.2C688.3,241.7,687.6,242,686.7,242L686.7,242z M694.7,156.7c-0.1,0-0.2,0-0.3,0.1
			c-10.2,7.1-17.8,17.3-21.8,29.1c-3.8,11.7-3.3,24.4,1.5,35.8c2.8,6.7,6.8,12.8,11.9,18c0.2,0.2,0.5,0.3,0.7,0.3
			c0.2,0,0.5-0.1,0.6-0.3c0.4-0.4,0.4-1,0-1.4c0,0,0,0,0,0l0,0c-2.2-2.2-4.2-4.6-6-7.2c-1.7-2.5-3.3-5.2-4.6-8
			c-0.1-0.2-0.2-0.4-0.3-0.7l0,0l-0.4-1l0,0v-0.1c-0.3-0.8-0.6-1.5-0.9-2.3c-0.5-1.5-1-2.9-1.4-4.4s-0.7-3-1-4.5
			c-0.1-0.3-0.1-0.7-0.2-1l-0.1-0.9l0,0c-0.1-0.8-0.2-1.5-0.3-2.3c-0.3-3-0.2-6.1,0.1-9.2c0-0.4,0.1-0.7,0.1-1l0.1-0.4l0,0l0,0V195
			c0.1-0.8,0.2-1.5,0.4-2.3c0.3-1.4,0.6-2.8,1-4.2s0.8-2.8,1.4-4.1l0.4-1.1l0.2-0.6l0,0c0.3-0.7,0.6-1.4,1-2.1
			c1.3-2.7,2.8-5.3,4.5-7.7c1.9-2.7,4-5.2,6.3-7.6c1.2-1.2,2.5-2.4,3.8-3.5s2.4-2,3.9-3.1c0.4-0.3,0.8-0.9,0.5-1.4
			c-0.2-0.3-0.5-0.5-0.8-0.5L694.7,156.7z"/>
		<path d="M790.3,159.1c-0.8,0-1.5-0.6-1.5-1.5s0.6-1.5,1.5-1.5c41.8-2.8,75.6-26,96.5-45c13.6-12.2,25.7-26,36-41.1
			c0.4-0.7,1.4-0.9,2.1-0.5c0.7,0.4,0.9,1.4,0.5,2.1c-10.5,15.3-22.7,29.3-36.5,41.7c-21.3,19.3-55.8,43-98.4,45.8L790.3,159.1z"/>
		<path d="M840.4,191.9c-2.5,0-5-0.1-7.6-0.4c-0.8-0.1-1.4-0.8-1.4-1.6c0.1-0.8,0.8-1.4,1.6-1.4c47.7,4.6,72.7-37.6,73-38
			c0.4-0.7,1.3-1.1,2-0.7c0.7,0.4,1,1.3,0.7,2c0,0.1-0.1,0.1-0.1,0.2C908.5,152.4,885.2,191.9,840.4,191.9z"/>
	</g>
</g>
</svg>
