<?xml version="1.0" encoding="utf-8"?>
<!-- Generator: Adobe Illustrator 24.1.2, SVG Export Plug-In . SVG Version: 6.00 Build 0)  -->
<svg version="1.1" id="shoppings_1_" xmlns="http://www.w3.org/2000/svg" xmlns:xlink="http://www.w3.org/1999/xlink" x="0px"
	 y="0px" viewBox="0 0 1000 1000" style="enable-background:new 0 0 1000 1000;" xml:space="preserve">
<style type="text/css">
	.st0{fill:#FFAD00;}
	.st1{fill:#E89D00;}
	.st2{fill:#58298C;}
	.st3{fill:#6C32AD;}
	.st4{fill:#FFFFFF;}
	.st5{fill:#59298F;}
	.st6{fill:#FFCDB2;}
	.st7{fill:#FFC140;}
	.st8{fill:#FFB49F;}
	.st9{fill:#D9CFFF;}
</style>
<g id="line">
	<path d="M275.3,908.3c-1.1,0-2-0.9-2-2s0.9-2,2-2l489.4-3l0,0c1.1,0,2,0.9,2,2s-0.9,2-2,2L275.3,908.3L275.3,908.3z"/>
	<path d="M193.4,874.2l57.9-1l57.6-1l32.5-0.6c1.9,0,1.9-3,0-3l-57.9,1l-57.6,1l-32.5,0.6C191.5,871.2,191.5,874.2,193.4,874.2z"/>
	<path d="M291.6,838l31.2,0.8l31.3,0.8l17.6,0.5c1.9,0,1.9-3,0-3l-31.2-0.8l-31.3-0.8l-17.6-0.5C289.7,835,289.7,838,291.6,838z"/>
</g>
<g id="woman">
	<path class="st0" d="M413,482.3c1.2-32.3,17.8-47.4,29.6-90.2s24.5-62.8,40-77.9c19.3-18.8,28-18.2,28-18.2l7.7-15.5l43.3,12.7
		l-2.3,22c5.2,10.4,17.1,23.3-4.5,56.5c-15.5,23.9-15.4,56-36,104.4s-45.3,63.3-45.3,63.3"/>
	<path d="M473.6,540.8c-0.5,0-1-0.3-1.3-0.7c-0.4-0.7-0.2-1.6,0.5-2.1c0.3-0.2,24.6-15.3,44.7-62.6c9.8-23.1,14.8-42.3,19.3-59.1
		c4.8-18.4,8.6-32.9,16.8-45.5c18.8-29,11.6-42,6.3-51.5c-0.7-1.2-1.3-2.4-1.9-3.5c-0.1-0.3-0.2-0.5-0.2-0.8l2.1-20.7l-40.9-12
		l-7.1,14.4c-0.3,0.5-0.8,0.9-1.4,0.8l0,0c-0.2,0-8.8,0.1-26.9,17.8c-13,12.7-26.8,30.8-39.6,77.2c-5.1,18.4-11,31.7-16.3,43.4
		c-7.1,15.8-12.6,28.3-13.3,46.5c0,0.8-0.7,1.5-1.5,1.5c0,0,0,0,0,0c-0.8,0-1.5-0.7-1.5-1.6c0.7-18.8,6.7-32.1,13.6-47.6
		c5.2-11.6,11.1-24.8,16.1-43c13-47.1,27.1-65.6,40.4-78.5c16-15.6,25.2-18.2,28.1-18.6l7.3-14.7c0.3-0.7,1.1-1,1.8-0.8l43.2,12.7
		c0.7,0.2,1.1,0.9,1.1,1.6l-2.2,21.5c0.5,1,1,2,1.6,3c5.7,10.2,13.4,24.2-6.4,54.6c-7.9,12.2-11.7,26.5-16.4,44.6
		c-4.5,17-9.5,36.2-19.4,59.5c-20.5,48.3-44.9,63.4-45.9,64C474.1,540.7,473.8,540.8,473.6,540.8z"/>
	<path class="st1" d="M417.9,461c-2,6.8-3.1,13.9-3.4,21l20.2,19l44.9,30.9c5.3-4.7,13.3-13.1,21.8-26.4
		C465.5,466.6,429.5,461.5,417.9,461z"/>
	<path class="st1" d="M560.3,358.3c-9-25.7-19.5-46.1-28.8-39.8c-22,15-28,82-23,92c3.5,7,17.2,13,25.1,16
		c6.1-22.6,9.8-40.3,19.2-54.9C555.7,367.4,558.1,362.9,560.3,358.3z"/>
	<path class="st0" d="M403.3,463.2c0,0,48.8,22.5,75.5,40.9c52.7,36.3,71.4,77.2,97.1,148.5c7.1,19.8,17.4,38.4,30.4,54.9L371.8,777
		c0,0-5.8-13-27.3-114c-14.8-69.4-11.7-152.1,12.6-179.1C357,483.9,404.3,488.3,403.3,463.2z"/>
	<path d="M403.3,463.2c0,0,48.8,22.5,75.5,40.9c52.7,36.3,71.4,77.2,97.1,148.5c7.1,19.8,17.4,38.4,30.4,54.9L371.8,777
		c0,0-5.8-13-27.3-114c-14.8-69.4-11.7-152.1,12.6-179.1c0,0,3.2,0.3,7.8,0.3C378.2,484.2,404.1,481.8,403.3,463.2 M403.3,460.2
		c-0.6,0-1.2,0.2-1.7,0.5c-0.9,0.6-1.4,1.6-1.3,2.6c0.3,3.5-1,6.9-3.4,9.5c-7.1,7.4-23.1,8.5-32,8.5c-4.4,0-7.5-0.3-7.5-0.3H357
		c-0.9,0-1.7,0.4-2.2,1c-11.9,13.2-19.6,40-21.7,75.5c-2,33.1,1.1,71.8,8.4,106.2c21.3,100.1,27.3,114,27.5,114.6
		c0.5,1.1,1.6,1.8,2.7,1.8c0.3,0,0.6,0,0.9-0.1L607,710.3c1.6-0.5,2.5-2.1,2-3.7c-0.1-0.4-0.3-0.8-0.6-1.1
		c-12.7-16.3-22.8-34.5-29.8-54c-13.4-37.1-24.5-64.7-38.7-87.9c-15.4-25.1-33.7-44.2-59.5-62c-26.6-18.3-75.4-40.9-75.9-41.1
		C404.1,460.3,403.6,460.2,403.3,460.2L403.3,460.2z"/>
	<path class="st2" d="M627.5,661.3c0,0-29.7-81.1-3.2-116.3s221.8-60.8,221.8-60.8l31.1,88.6l-106.5,43.3"/>
	<path d="M627.5,662.8c-0.6,0-1.2-0.4-1.4-1c-1.2-3.3-29.7-82.3-3-117.7s214.9-60.3,222.9-61.3c0.7-0.1,1.4,0.3,1.6,1l31.1,88.6
		c0.3,0.8-0.1,1.6-0.8,1.9l-106.5,43.3c-0.8,0.3-1.6-0.1-2-0.8s0.1-1.6,0.8-2l0,0L875.3,572l-30.2-86.1
		c-16.5,2.2-194.9,27.1-219.6,60c-25.7,34.2,3.2,114.1,3.4,114.9c0.3,0.8-0.1,1.6-0.9,1.9C627.8,662.8,627.7,662.8,627.5,662.8z"/>
	<path class="st3" d="M851.3,482.8c7.8-19,18.6-36.6,32.1-52.1c2.7-3.1,7.4-3.4,10.5-0.7c1,0.9,1.7,2,2.1,3.3l39.2,118.6
		c0,0-27.3,19-53.7,17.3L851.3,482.8z"/>
	<path d="M884.9,570.9c-1.2,0-2.3,0-3.5-0.1c-0.6,0-1.1-0.4-1.3-1l-30.2-86.5c-0.1-0.3-0.1-0.7,0-1c7.9-19.2,18.8-36.9,32.4-52.6
		c3.3-3.7,9-4,12.7-0.7c1.1,1,2,2.3,2.5,3.8l39.2,118.6c0.2,0.6,0,1.3-0.6,1.7C935,553.9,910.4,570.9,884.9,570.9z M882.6,567.9
		c22.6,1,46-13.3,50.8-16.5l-38.8-117.6c-1.1-3.1-4.5-4.8-7.6-3.7c-1,0.3-1.8,0.9-2.5,1.6c-13.2,15.3-23.9,32.5-31.6,51.1
		L882.6,567.9z"/>
	<path class="st1" d="M563.6,619.7L336.8,610c0.1,0.9,0.1,1.7,0.2,2.6l5,12.4l223.6-0.1C564.9,623.1,564.2,621.4,563.6,619.7z"/>
	<path class="st4" d="M823.3,487.6c0,0,23.6,57.7,32.5,93.3l27.5-11.2l-31.1-86.4L823.3,487.6z"/>
	<path d="M855.9,582.4c-0.2,0-0.5-0.1-0.7-0.2c-0.4-0.2-0.7-0.6-0.8-1c-8.8-35-32.2-92.5-32.5-93.1c-0.3-0.8,0.1-1.6,0.9-1.9
		c0.1,0,0.2-0.1,0.3-0.1l28.9-4.2c0.7-0.1,1.4,0.3,1.6,1l31.1,86.4c0.3,0.8-0.1,1.6-0.8,1.9l-27.5,11.2
		C856.3,582.4,856.1,582.4,855.9,582.4z M825.5,488.8c4,9.8,23.2,58.2,31.5,90.1l24.5-10L851.3,485L825.5,488.8z"/>
	<path class="st3" d="M524,627.6c0,0,109.8-127.7,161.3-107.5c51.5,20.2,82.9,69.4,89.6,105.3s19,81.8,19,81.8l-75,41.4
		c0,0-56-78.4-60.5-91.8S524,627.6,524,627.6z"/>
	<path d="M718.9,750.1c-0.5,0-0.9-0.2-1.2-0.6c-2.3-3.2-56.2-78.7-60.7-92.2c-0.8-2.3-8.9-8.6-67.7-18.6
		c-32.6-5.5-65.1-9.5-65.5-9.5c-0.8-0.1-1.4-0.8-1.4-1.6c0-0.3,0.2-0.6,0.4-0.8c19.2-21.8,39.7-42.3,61.5-61.5
		c45.4-39.4,79.6-55,101.5-46.5c23.8,9.3,45.3,25.7,62.2,47.2c14.4,18.4,24.7,39.9,28.3,59.2c6.6,35.4,18.9,81.2,19,81.7
		c0.2,0.7-0.1,1.4-0.7,1.7l-75,41.4C719.4,750,719.2,750.1,718.9,750.1z M527,626.5c8.6,1.1,35.7,4.6,62.8,9.2
		c67,11.3,69.2,18.1,70,20.6c4.1,12.2,52.7,80.8,59.5,90.4l72.8-40.2c-1.9-7.3-12.7-48.4-18.8-80.7c-7-37.3-39.7-85-88.7-104.2
		C638.4,503.3,541.6,609.9,527,626.5z"/>
	<path class="st5" d="M528.4,624.9l156.8-0.1l-150.9-6.5C531.8,621.1,529.8,623.3,528.4,624.9z"/>
	<path class="st3" d="M795.6,709.1c0,0,30.9,2.5,59.5,19.3c3.5,2.1,4.7,6.7,2.6,10.2c-0.7,1.1-1.6,2.1-2.8,2.7l-109,61
		c0,0-25.6-22.3-29-48.6L795.6,709.1z"/>
	<path d="M746,803.9c-0.4,0-0.7-0.1-1-0.4c-1.1-0.9-26.1-23-29.5-49.6c-0.1-0.6,0.2-1.2,0.8-1.5l78.6-44.7c0.3-0.1,0.6-0.2,0.9-0.2
		c0.3,0,31.6,2.8,60.1,19.5c4.3,2.6,5.6,8.1,3.1,12.3c-0.8,1.3-1.9,2.4-3.3,3.2l-109,61C746.5,803.8,746.3,803.8,746,803.9z
		 M718.7,754.5c3.3,22.5,23.3,42.1,27.5,46L854.3,740c2.9-1.7,3.9-5.3,2.2-8.2c-0.5-0.9-1.2-1.6-2.1-2.1
		c-26.1-15.3-54.5-18.7-58.4-19.1L718.7,754.5z"/>
	<path class="st4" d="M785.7,682.5c0,0-50.3,29.2-83.5,44.8l15.7,26.9l77.5-44L785.7,682.5z"/>
	<path d="M717.8,755.7c-0.5,0-1-0.3-1.3-0.8L700.8,728c-0.4-0.7-0.2-1.6,0.5-2c0,0,0.1,0,0.1-0.1c32.8-15.3,82.9-44.4,83.4-44.7
		c0.7-0.4,1.6-0.2,2.1,0.5c0,0.1,0.1,0.2,0.1,0.3l9.7,27.6c0.2,0.7-0.1,1.4-0.7,1.8l-77.5,44C718.3,755.6,718.1,755.6,717.8,755.7z
		 M704.2,727.9l14.1,24.2l75.1-42.7l-8.6-24.7C776.2,689.7,733.8,714,704.2,727.9z"/>
	<path class="st3" d="M314.7,421.2c0,0-23.4,23.4-37.4-9.4c-7.4-17.2-41.3-55.5-66.6-42.1s-41.5-6.8-60.8-12.9
		c-22.2-7-59.8,22.1-21,66.6c92.1,105.6,212.6,35.1,212.6,35.1l-9.6-38.8L314.7,421.2z"/>
	<path d="M142.9,355.9c2.4,0,4.7,0.3,7,1c14.6,4.6,27.5,17.4,43.9,17.4c5.9-0.1,11.7-1.6,16.9-4.5c3.5-1.9,7.4-2.8,11.4-2.8
		c23.2,0,48.9,30.1,55.2,44.9c5.8,13.5,13.1,17.4,19.8,17.4c9.5,0,17.6-8.1,17.6-8.1l17.3-1.3l9.6,38.8c0,0-39.4,23.1-90.4,23.1
		c-38.2,0-82.8-12.9-122.3-58.1C94,383.5,121,355.9,142.9,355.9 M142.9,352.9c-12.8,0-25.5,8.2-30.8,20c-4,8.8-7.4,27.4,14.6,52.6
		c18.5,21.2,39.6,37,62.7,46.8c19.6,8.3,40.6,12.5,61.8,12.4c51.2,0,90.3-22.5,92-23.5c1.1-0.7,1.7-2,1.4-3.3l-9.6-38.8
		c-0.3-1.3-1.5-2.3-2.9-2.3h-0.2l-17.3,1.4c-0.7,0.1-1.4,0.4-1.9,0.9c-0.1,0.1-7.4,7.2-15.5,7.2c-6.9,0-12.6-5.3-17-15.6
		c-6.8-15.9-33.4-46.7-58-46.7c-4.5,0-8.9,1.1-12.8,3.1c-4.7,2.7-10,4.1-15.5,4.2c-9.4,0-17.5-4.5-26.2-9.3c-5.4-3-11-6.1-16.8-7.9
		C148.3,353.2,145.6,352.8,142.9,352.9L142.9,352.9z"/>
	<path class="st4" d="M361.5,480.6c0,0,1,0.6,2.8,1.7c10.2,6,34.5,18.9,48.6,11.9c16.4-8.2-3-20-3-20c22.7,11.5,11.4-2.3,11.4-2.3
		l-15.4-9.2L361.5,480.6z"/>
	<path d="M403.1,497.7c-13.4,0-29.8-8.3-39.6-14.1c-1.8-1-2.8-1.7-2.8-1.7c-0.7-0.4-0.9-1.4-0.5-2.1c0.2-0.3,0.4-0.5,0.7-0.6
		l44.3-18c0.4-0.2,0.9-0.1,1.3,0.1l15.4,9.2c0.1,0.1,0.3,0.2,0.4,0.3c1.4,1.7,4.4,5.9,2.6,8.3c-0.9,1.1-2.4,1.7-6.9,0.3
		c1.8,2,2.8,4.6,2.8,7.3c-0.1,3.5-2.6,6.5-7.4,8.9C410.3,497,406.7,497.8,403.1,497.7z M364.9,480.9l0.2,0.1
		c9.7,5.8,33.8,18.5,47.1,11.8c3.7-1.9,5.6-4,5.7-6.3c0.2-4.5-6.3-9.5-8.9-11.1c-0.7-0.5-0.9-1.4-0.4-2.1c0.4-0.6,1.2-0.8,1.9-0.5
		c8.9,4.5,11.4,4.5,12,4.4c-0.5-1.6-1.3-3-2.3-4.3l-14.5-8.7L364.9,480.9z"/>
	<circle class="st3" cx="309.4" cy="383.6" r="22.9"/>
	<path d="M309.4,360.6c12.7,0,23,10.2,23.1,22.9c0,12.7-10.2,23-22.9,23.1c-12.7,0-23-10.2-23.1-22.9c0-10.2,6.7-19.3,16.6-22.1
		C305.1,361,307.3,360.7,309.4,360.6 M309.4,357.6c-14.3,0-25.9,11.6-25.9,25.9c0,14.3,11.6,25.9,25.9,25.9
		c14.4,0,26-11.7,25.9-26.1c0-2.4-0.3-4.8-1-7.1C331.1,365.3,321,357.7,309.4,357.6L309.4,357.6z"/>
	<path class="st0" d="M392.5,509.2c-19.7-31.8-68.2-37.5-107.9-66.7s-64.1-39-87.1-43.2c-28.8-5.3-37.1,9.6-37.1,9.6l-15.9-1.2
		L127.9,442l16.9,5.7c3.2,11.4,4.7,21.3,47,28.9c33.7,6,40.4,46.8,91.1,76s81.1,28.3,81.1,28.3"/>
	<path d="M363.7,582.4c-4,0-33.5-1-81.5-28.5c-25-14.4-39.8-32-51.6-46c-12.5-15-22.4-26.8-39.1-29.7c-42-7.5-44.7-17.5-47.9-28.9
		l-0.1-0.3l-16.1-5.5c-0.8-0.3-1.2-1.1-0.9-1.9c0,0,0-0.1,0.1-0.1l16.6-34.4c0.3-0.6,0.9-0.9,1.5-0.8l15,1.1
		c2.3-3.2,12.3-14.3,38.1-9.5c19.8,3.7,44.1,11.5,87.7,43.5c16.3,12,33.8,19.8,50.7,27.5c23.5,10.6,45.8,20.6,57.6,39.7
		c0.4,0.7,0.2,1.6-0.5,2.1c-0.7,0.4-1.6,0.2-2.1-0.5c0,0,0,0,0,0c-11.3-18.3-32.2-27.7-56.3-38.5c-17.1-7.7-34.8-15.6-51.3-27.8
		c-43.2-31.7-67.1-39.4-86.5-43c-27.2-5-35.2,8.3-35.5,8.8c-0.3,0.5-0.8,0.8-1.4,0.8l-14.8-1.1l-15.4,32l15.3,5.2
		c0.5,0.1,0.9,0.5,1,1l0.3,1c2.9,10.5,5.4,19.6,45.6,26.8c17.7,3.2,27.9,15.4,40.8,30.8c12.3,14.7,26.2,31.2,50.8,45.4
		c49.7,28.5,80,28.1,80.3,28.1l0,0c0.8,0,1.5,0.7,1.5,1.5s-0.7,1.5-1.5,1.5L363.7,582.4z"/>
	<path class="st1" d="M147,446.2c2.5-2.9,18.4-19.1,13.4-35.7c-0.2,0.3-1.3-0.3-1.3-0.3l-13.9-0.6L130.9,442L147,446.2z"/>
	<path class="st6" d="M114.4,396c18.2-3.2,18.9-7.5,31.3-4.1c7.9,2.1,9.5,17,4.1,31.7s-15.9,24.5-23.6,21.7s-13.3-6.6-22.1-9.9"/>
	<path d="M129,447.3c-1.1,0-2.2-0.2-3.3-0.6c-3.5-1.3-7-2.9-10.4-4.6c-3.8-2-7.7-3.7-11.7-5.2c-0.8-0.2-1.3-1-1-1.8
		c0.2-0.8,1-1.3,1.8-1c0.1,0,0.1,0,0.2,0.1c4.1,1.5,8.1,3.3,12,5.3c3.3,1.7,6.6,3.2,10.1,4.5c3.1,1.1,7.1-0.3,11.1-4
		c4.3-3.9,8-9.9,10.5-16.8c3.6-9.9,4-20.3,1.1-26c-0.8-1.8-2.3-3.2-4.2-3.8c-7.5-2-10.4-1.2-16.2,0.6c-4.7,1.5-9.6,2.7-14.5,3.5
		c-0.8,0.1-1.6-0.4-1.8-1.2c-0.1-0.8,0.4-1.6,1.2-1.8c4.8-0.8,9.5-2,14.1-3.5c6.1-1.9,9.5-2.9,17.8-0.6c2.7,0.8,4.9,2.8,6.1,5.3
		c3.4,6.5,3,17.6-0.9,28.4c-2.7,7.4-6.7,13.7-11.3,18C136.2,445.6,132.5,447.3,129,447.3z"/>
	<path class="st3" d="M404.8,392.2c0,0,2.3-21-12.5-26.9s-16.6-2.4-24.2-6s-23.1,0.2-29.9,11.6c0,0-19.6,2.1-27.6,14.5
		s-7,20.8-2.4,31.8s5,17.3,8,25.1s14.4,27,47.6,18S404.8,392.2,404.8,392.2z"/>
	<path d="M361.5,358c2.3-0.1,4.6,0.4,6.7,1.3c7.5,3.6,9.5,0.2,24.2,6s12.5,26.9,12.5,26.9s-7.7,59.3-40.9,68.2
		c-5.2,1.5-10.6,2.2-16,2.3c-21,0-29.1-14-31.5-20.4c-3-7.8-3.4-14.2-8-25.1s-5.6-19.4,2.4-31.8s27.6-14.5,27.6-14.5
		C343.5,362.2,353.6,358,361.5,358 M361.6,355c-8.2,0-18.9,4.1-25,13.1c-5,0.8-21,4.1-28.4,15.7c-8.7,13.5-7.5,22.9-2.6,34.6
		c2.1,4.9,3.7,10,5,15.2c0.8,3.4,1.8,6.7,3,9.9c2,5.2,10.4,22.3,34.3,22.3c5.7-0.1,11.3-0.9,16.8-2.4c14.5-3.9,26.6-17.5,34.9-39.3
		c3.8-10.2,6.6-20.7,8.2-31.4v-0.1c0.1-1,2.3-23.3-14.3-30c-8.6-3.4-13-3.8-16.6-4.2c-2.5-0.1-5-0.7-7.3-1.8
		C367,355.5,364.3,354.9,361.6,355L361.6,355z"/>
	<circle class="st7" cx="186.1" cy="447.5" r="4.9"/>
	<path class="st6" d="M390.8,449.7l17.8,21.6c0,0,3.9,16.1-42.1,5.4c0,0,1.1-10.7-8.9-34c0,0-9.7,6.4-15.8-1.9s-1.6-15.5,3.8-17
		c0,0,22.6-4.4,7.7-45.6c0,0,19.9-8.7,37.7,2.8s32.2,31.2,26,47.4S390.8,449.7,390.8,449.7z"/>
	<path d="M370.2,374.9c7.4-0.1,14.6,2,20.9,6c17.8,11.5,32.2,31.2,26,47.4s-26.3,21.4-26.3,21.4l17.8,21.6c0,0,2.2,9.1-16.2,9.1
		c-6.1,0-14.5-1-25.9-3.7c0,0,1.1-10.7-8.9-34c-2.3,1.4-5,2.3-7.7,2.4c-3.2,0-6.2-1.6-8-4.3c-6-8.4-1.6-15.5,3.8-17
		c0,0,22.6-4.4,7.7-45.6C358.7,376,364.4,374.9,370.2,374.9 M370.2,371.9c-6.2,0-12.3,1.1-18,3.4c-1.4,0.6-2.2,2.3-1.6,3.8
		c7.1,19.8,5.1,30.1,2.2,35.3c-1.6,3.1-4.4,5.3-7.7,6.4l-0.3,0.1c-3.8,1.2-6.8,4.1-8.1,7.8c-1.5,4.4-0.5,9.3,2.8,13.8
		c2.3,3.5,6.3,5.6,10.5,5.5c2.1,0,4.2-0.5,6.2-1.3c8.1,20.1,7.4,29.6,7.4,29.7c-0.1,1.5,0.9,2.9,2.3,3.2c10.7,2.5,19.6,3.8,26.6,3.8
		c8.5,0,14.4-1.9,17.3-5.6c1.6-2,2.3-4.6,1.8-7.2c-0.1-0.4-0.3-0.9-0.6-1.2l-15-18.2c6.7-2.6,19.2-9,24-21.8
		c7-18.5-9.2-39.4-27.2-51C386,374.1,378.2,371.8,370.2,371.9L370.2,371.9z"/>
	<path d="M383,452.7c-1.5,0-2.9-0.1-4.4-0.2c-0.8-0.1-1.4-0.9-1.3-1.7s0.9-1.4,1.7-1.3c0.1,0,8.1,0.9,13.7-1.3
		c0.8-0.3,1.6,0.2,1.9,1c0.2,0.7-0.1,1.5-0.8,1.8C390.4,452.1,386.7,452.7,383,452.7z"/>
	<path d="M353.6,440.2c-0.1,0-0.2,0-0.3,0c-4.5-1.1-7.3-3-8.2-5.8c-1.4-4,1.8-7.9,1.9-8.1c0.5-0.6,1.5-0.7,2.1-0.2
		c0.6,0.5,0.7,1.5,0.2,2.1c0,0.1-2.2,2.8-1.4,5.2c0.7,2.1,3.7,3.2,6.1,3.8c0.8,0.2,1.3,1,1.1,1.8
		C354.9,439.8,354.3,440.2,353.6,440.2z"/>
	<path class="st8" d="M376,399.1c-7.1,9.4-22.2,15.8-21.5,20.7s5.9,7.7,11.5,4.6s10.2-7.3,19.1-16.4s17-18.7,11.5-22.8
		S386.5,385.2,376,399.1z"/>
	<path d="M361.4,421.7h-0.1c-0.8-0.1-1.4-0.8-1.4-1.6c0,0,0,0,0,0c1-13,13-13.5,13.1-13.5l0,0c0.8,0,1.5,0.7,1.5,1.5
		s-0.7,1.5-1.5,1.5c-0.4,0-9.4,0.4-10.2,10.7C362.8,421.1,362.1,421.7,361.4,421.7z"/>
	<path d="M372.1,389.3c-0.8,0-1.5-0.6-1.6-1.4c0-0.8,0.6-1.5,1.4-1.6c2.3-0.3,4.5-1.2,6.4-2.5c0.7-0.5,1.6-0.4,2.1,0.3
		c0.5,0.6,0.4,1.6-0.3,2.1c0,0,0,0,0,0c-2.3,1.7-5,2.7-7.9,3.1L372.1,389.3z"/>
	<path d="M380.7,434.8c-1.9,0-3.8-0.4-5.6-1c-0.8-0.3-1.1-1.2-0.8-2c0.3-0.7,1-1.1,1.8-0.9c9,3,12.7-3.3,12.9-3.6
		c0.4-0.7,1.3-1,2-0.6s1,1.3,0.6,2l0,0C389.3,432.5,385.1,434.8,380.7,434.8z"/>
	<path d="M331.7,426.6c-0.5,0-0.8,0-0.9,0c-0.8,0-1.5-0.7-1.4-1.5c0,0,0,0,0,0c0-0.8,0.7-1.5,1.5-1.4c0.1,0,13.6,0.5,20.3-5.9
		c0.6-0.6,1.5-0.6,2.1,0c0.6,0.6,0.6,1.5,0,2.1c0,0,0,0-0.1,0.1C346.7,426.1,335.1,426.6,331.7,426.6z"/>
	<path class="st4" d="M342.1,420.4c-0.5,0-1-0.2-1.3-0.7c-0.5-0.7-0.3-1.6,0.4-2.1c0,0,0,0,0,0c16.3-10.7,7.3-29.1,6.9-29.9
		c-0.4-0.7-0.1-1.6,0.7-2c0.7-0.4,1.6-0.1,2,0.7c0.1,0.2,10.6,21.5-7.9,33.7C342.7,420.4,342.4,420.4,342.1,420.4z"/>
	<path d="M277.5,387.1c-0.5,0-1-0.3-1.3-0.8c-2.8-5-3.5-10-2.2-14.6c2.4-8.2,10.3-12.6,10.6-12.8c0.7-0.4,1.6-0.1,2,0.7
		c0.4,0.7,0.1,1.6-0.6,2l0,0c-0.1,0-7.2,4-9.2,11c-1.1,3.9-0.5,8,1.9,12.3c0.4,0.7,0.1,1.6-0.6,2C278,387,277.7,387.1,277.5,387.1z"
		/>
	<path d="M392.1,413.1c-0.3,0-0.5-0.1-0.7-0.2l-16.6-9.4c-0.7-0.4-1-1.3-0.6-2c0.4-0.7,1.3-1,2-0.6l16.6,9.4c0.7,0.4,1,1.3,0.6,2
		C393.1,412.8,392.6,413.1,392.1,413.1L392.1,413.1z"/>
	<path class="st6" d="M580.2,276.1c18.1-6.6,35.1-14.6,33.1-6.4c-2.1,8.6-10.4,17.2-34,20.9c-22.5,3.5-24.8-1.2-24.8-1.2"/>
	<path d="M565.1,293.4c-9.3,0-11.4-2.4-11.9-3.3c-0.3-0.8,0-1.6,0.7-2c0.7-0.3,1.5-0.1,1.9,0.5c0.2,0.2,3.8,3.5,23.3,0.5
		c19.3-3,30.3-9.6,32.8-19.7c0.2-0.6,0.2-1.2,0-1.3c-1.8-1.6-12.9,2.6-21.8,6c-3,1.2-6.2,2.4-9.3,3.5c-0.8,0.2-1.6-0.3-1.8-1
		c-0.2-0.7,0.2-1.5,0.8-1.8c3.2-1.1,6.3-2.3,9.3-3.5c14.2-5.4,21.8-8.1,24.8-5.5c0.8,0.7,1.5,1.9,1,4.3c-2.8,11.4-14.6,18.8-35.2,22
		C574.8,292.9,570,293.3,565.1,293.4z M555.9,288.7L555.9,288.7z"/>
	<path class="st6" d="M535.8,258c0,0,32.9-22.3,37.5-14.3s-17.9,17.9-20.1,28.8S535.8,258,535.8,258z"/>
	<path d="M551.1,276.8c-5.4,0-14-13.7-16.5-18c-0.4-0.7-0.2-1.6,0.5-2c2.8-1.9,27.3-18.2,36.4-16.1c1.4,0.3,2.5,1.1,3.2,2.3
		c3,5.3-2.8,10.6-9,16.3c-4.7,4.2-10,9-10.9,13.6c-0.6,2.9-2,3.7-3.1,3.9C551.5,276.8,551.3,276.8,551.1,276.8z M537.9,258.5
		c5.3,8.6,11.4,15.6,13.2,15.3c0.2,0,0.5-0.5,0.7-1.5c1.1-5.5,6.6-10.5,11.8-15.3c5.3-4.8,10.3-9.3,8.4-12.5
		c-0.3-0.5-0.8-0.8-1.3-0.9C564.4,242.2,545.9,253.2,537.9,258.5z"/>
	<path class="st6" d="M520.5,279.5c0,0,4.4-25.8,25-22.2c20.6,3.6,28.3,10.3,38.6-0.2c17.2-17.6,30.5-18.4,15.2,10.7
		c-15.3,29.1-64.4,32.6-64.4,32.6"/>
	<path d="M534.9,302c-0.8,0-1.5-0.6-1.6-1.4s0.6-1.5,1.4-1.6c0.5,0,48.5-3.8,63.2-31.8c9.1-17.4,6.1-20.3,5.7-20.6
		c-1.6-1.2-8.1,0.9-18.6,11.6c-8.2,8.4-14.9,6.6-26,3.8c-4-1-8.5-2.2-13.9-3.1c-4.5-0.9-9.1,0-12.9,2.6
		c-8.2,5.8-10.4,18.3-10.4,18.4c-0.1,0.8-0.9,1.4-1.8,1.3s-1.4-0.9-1.3-1.8c0.1-0.6,2.5-13.9,11.7-20.4c4.4-3.1,9.9-4.2,15.1-3.1
		c5.5,1,10.1,2.1,14.1,3.2c10.8,2.8,16.2,4.2,23.1-3c3.8-3.9,16.6-16.2,22.5-11.9c3.8,2.8,2.2,11-4.8,24.4
		C585.2,298,537.1,301.8,534.9,302L534.9,302z"/>
	<circle class="st0" cx="354.1" cy="445.7" r="3.8"/>
	<path d="M354.1,442c2.1,0,3.8,1.7,3.8,3.8c0,1.7-1.1,3.1-2.7,3.6c-0.3,0.1-0.7,0.1-1,0.1c-2.1,0-3.7-1.7-3.7-3.8
		c0-1.6,1.1-3.1,2.7-3.6C353.4,442.1,353.8,442,354.1,442 M354.1,439c-3.7,0-6.8,3-6.8,6.8s3,6.8,6.8,6.8c0.6,0,1.3-0.1,1.9-0.3
		c3.6-1,5.6-4.8,4.6-8.3c0,0,0,0,0,0C359.8,441,357.1,439,354.1,439L354.1,439z"/>
	<path class="st4" d="M294,391.7c-0.6,0-1.2-0.4-1.4-1c-2.1-5.7-2.1-10.8,0.1-15c3.6-6.8,11.5-8.9,11.9-9c0.8-0.2,1.6,0.3,1.8,1.1
		s-0.3,1.6-1.1,1.8l0,0c-0.1,0-7,1.8-10,7.5c-1.8,3.4-1.8,7.7,0,12.5c0.3,0.8-0.1,1.6-0.9,1.9C294.3,391.6,294.2,391.7,294,391.7z"
		/>
	<path class="st1" d="M512.3,297.2h-0.1c2.7,2.6,20.8,19.7,45.6,17.7l0.5-0.1l2.1-20.3l-40.8-12L512.3,297.2z"/>
	<path d="M630.3,516.8c6.1-4.4,12.9-7.9,20.1-10.2c7.2-2.4,14.7-3.6,22.3-3.7c7.3-0.1,14.7,1,21.7,3.1c13.7,4.2,26,12.3,35.2,23.3
		c0.6,0.7,1.1,1.4,1.7,2.1c0.6,0.6,1.5,0.6,2.1,0c0.6-0.6,0.6-1.5,0-2.1c-4.6-5.8-10-11-16-15.2c-6-4.3-12.7-7.7-19.7-10.1
		c-7.2-2.5-14.6-3.8-22.2-4c-7.8-0.2-15.6,0.8-23.1,3c-7.5,2.1-14.7,5.4-21.2,9.7c-0.8,0.5-1.6,1.1-2.4,1.7c-0.7,0.4-0.9,1.3-0.5,2
		C628.7,516.9,629.6,517.1,630.3,516.8L630.3,516.8z"/>
	<path d="M847.5,458.2l15.5-22.3l15.5-22.4l8.7-12.6c0.4-0.7,0.2-1.6-0.5-2.1c-0.7-0.4-1.6-0.2-2.1,0.5l-15.5,22.3L853.7,444
		l-8.7,12.6c-0.4,0.7-0.2,1.6,0.5,2.1C846.3,459.1,847.2,458.9,847.5,458.2L847.5,458.2z"/>
	<circle class="st7" cx="532.2" cy="586.6" r="4.9"/>
	<circle class="st7" cx="394.8" cy="601.8" r="4.9"/>
	<circle class="st7" cx="467.9" cy="605.4" r="4.9"/>
	<circle class="st7" cx="417.1" cy="544.7" r="4.9"/>
	<circle class="st7" cx="485.8" cy="558.1" r="4.9"/>
	<circle class="st7" cx="448.3" cy="507.2" r="4.9"/>
	<circle class="st7" cx="192.3" cy="418.9" r="4.9"/>
	<circle class="st7" cx="296.7" cy="468" r="4.9"/>
	<circle class="st7" cx="233.4" cy="463.5" r="4.9"/>
	<circle class="st7" cx="312.8" cy="545.6" r="4.9"/>
	<circle class="st7" cx="442" cy="444.9" r="4.9"/>
	<circle class="st7" cx="511.5" cy="439.5" r="4.9"/>
	<circle class="st7" cx="480.7" cy="362.8" r="4.9"/>
	<circle class="st7" cx="538.7" cy="346.3" r="4.9"/>
	<path class="st4" d="M719,559.5c4.8,5,9.3,10.3,13.5,15.8c4.2,5.6,8.1,11.5,11.7,17.6c3.5,6.1,6.7,12.3,9.4,18.8
		c5.5,12.8,9.5,26.3,11.9,40.1c0.1,0.8,0.3,1.7,0.4,2.5c0.2,0.8,1.1,1.2,1.8,1c0.8-0.3,1.2-1.1,1-1.8c-1.1-7-2.6-13.9-4.5-20.7
		c-1.9-6.8-4.3-13.5-7-20c-2.7-6.6-5.8-13-9.2-19.2c-6.9-12.4-15.3-23.9-25-34.2l-1.8-2C719.8,555.9,717.7,558.1,719,559.5
		L719,559.5z"/>
	<circle cx="387.8" cy="394.2" r="2.5"/>
	<path d="M227,386.5c-0.2,0-0.4,0-0.6-0.1c-45.9-18.8-75.5-64.6-92.3-99.7c-11-23.2-19.6-47.4-25.6-72.3c-0.2-0.8,0.3-1.6,1.2-1.8
		s1.6,0.3,1.8,1.2c6,24.7,14.5,48.8,25.4,71.7c16.5,34.6,45.7,79.8,90.7,98.2c0.8,0.3,1.1,1.2,0.8,2
		C228.2,386.1,227.6,386.5,227,386.5L227,386.5z"/>
	<path d="M123.5,324c-0.4,0-0.7-0.1-1-0.4c-30.7-26-49.6-65.4-60.1-93.9c-6.7-18.2-11.9-36.9-15.5-56c-0.1-0.8,0.4-1.6,1.3-1.7
		c0.8-0.1,1.6,0.4,1.7,1.3c0.2,1,16.6,99,74.5,148.1c0.6,0.5,0.7,1.5,0.2,2.1C124.4,323.8,123.9,324,123.5,324L123.5,324z"/>
	<path class="st6" d="M582.5,258.6c0,0,15.3-16.4,21.2-13.8s-2,22.3-8.6,29.5"/>
	<path d="M595.1,275.8c-0.4,0-0.7-0.2-1-0.4c-0.6-0.6-0.6-1.5-0.1-2.1c5.2-5.6,11.3-19.7,10.1-25.4c-0.3-1.3-0.8-1.6-1-1.6
		c-3.3-1.5-13.4,7-19.5,13.4c-0.5,0.6-1.5,0.7-2.1,0.2c-0.6-0.5-0.7-1.5-0.2-2.1c0-0.1,0.1-0.1,0.1-0.2c2.7-2.9,16.4-17,22.9-14.1
		c1.5,0.7,2.5,2.2,2.7,3.8c1.4,6.7-5,21.7-10.8,28.1C595.9,275.7,595.5,275.8,595.1,275.8z"/>
	<path class="st4" d="M521.5,565c-0.6,0-1.2-0.4-1.4-0.9c-15.6-39-82.6-72.9-83.3-73.2c-0.8-0.3-1.1-1.2-0.8-2
		c0.3-0.8,1.2-1.1,2-0.8c0,0,0.1,0,0.1,0.1c2.8,1.4,68.7,34.7,84.7,74.8c0.3,0.8-0.1,1.6-0.8,2C521.9,565,521.7,565,521.5,565z"/>
</g>
<g id="packages_2">
	<path d="M122.3,487.7c-0.7,0-1.3-0.5-1.4-1.1c-0.8-3-19-72.9,14.2-88c5.7-2.6,11.1-2.5,16.2,0.4c21.4,11.9,28.7,68.9,29,71.3
		c0.1,0.8-0.5,1.6-1.3,1.7s-1.6-0.5-1.7-1.3l0,0c-0.1-0.6-7.5-57.9-27.5-69.1c-4.2-2.4-8.6-2.5-13.5-0.3
		c-30.9,14-12.8,83.8-12.6,84.5c0.2,0.8-0.3,1.6-1,1.8c0,0,0,0,0,0C122.5,487.7,122.4,487.7,122.3,487.7z"/>
	<path d="M153.2,482.4c-0.1,0-0.2,0-0.3,0c-0.8-0.2-1.3-1-1.1-1.8c0,0,0,0,0,0c0.1-0.6,13.1-56.9-1.8-74.3
		c-3.1-3.7-7.3-5.3-12.6-4.9c-33.9,2.4-41.1,74.1-41.1,74.9c-0.1,0.8-0.8,1.4-1.6,1.4c-0.8-0.1-1.4-0.8-1.4-1.6
		c0.3-3.1,7.5-75,43.9-77.6c6.2-0.5,11.3,1.6,15,6c15.9,18.6,3,74.6,2.4,77C154.4,481.9,153.8,482.4,153.2,482.4z"/>
	<path class="st3" d="M86.6,460.7c0,0-18.6,53.4-11.9,90.1c0,0,23,18.5,80.4,18.5c0,0,24.2-42.6,16.5-89.3
		C171.6,480,137.1,454.3,86.6,460.7z"/>
	<path d="M102.9,459.7c41.5,0,68.7,20.3,68.7,20.3c7.7,46.7-16.5,89.3-16.5,89.3h-0.3c-57.2,0-80.1-18.5-80.1-18.5
		c-6.7-36.7,11.9-90.1,11.9-90.1C92,460.1,97.4,459.7,102.9,459.7 M102.9,456.7c-5.6,0-11.1,0.4-16.6,1.1c-1.1,0.1-2.1,0.9-2.4,2
		c-0.8,2.2-18.9,54.5-12,91.6c0.1,0.7,0.5,1.3,1.1,1.8c1,0.8,24.4,19.1,82,19.1h0.3c1.1,0,2.1-0.6,2.6-1.5
		c4.7-8.9,8.5-18.2,11.3-27.8c4.7-15.3,9.5-38.8,5.5-63.5c-0.1-0.8-0.5-1.5-1.2-1.9C172.2,476.7,144.8,456.7,102.9,456.7
		L102.9,456.7z"/>
	<path class="st9" d="M109.5,480.4c0,0,1,56.5,20.1,88.6c0,0,28,9.4,81.8-10.6c0,0,7.9-48.3-15.5-89.5
		C195.9,468.9,154.6,456.8,109.5,480.4z"/>
	<path d="M149.1,572.7c-12.7,0-19.4-2.1-19.9-2.3c-0.3-0.1-0.6-0.4-0.8-0.7c-19.1-32.1-20.3-87-20.3-89.4c0-0.6,0.3-1.1,0.8-1.4
		c45.1-23.6,87-11.7,87.5-11.6c0.4,0.1,0.7,0.4,0.9,0.7c23.4,41.1,15.8,90,15.7,90.4c-0.1,0.5-0.5,1-1,1.2
		C183.9,570.2,162.9,572.7,149.1,572.7z M130.6,567.7c4,1.1,31.3,7.3,79.4-10.4c0.9-6.6,5.6-50-15.2-87.1c-5.1-1.3-43-9.9-83.8,11.1
		C111.3,488.7,113.6,538.5,130.6,567.7L130.6,567.7z"/>
	<path class="st4" d="M80.8,549.6c-0.8,0-1.4-0.6-1.5-1.4c-3.1-36.6,11.7-77.1,11.9-77.5c0.4-0.7,1.3-1.1,2-0.7c0.6,0.3,1,1,0.8,1.7
		c-0.2,0.4-14.8,40.3-11.7,76.2c0.1,0.8-0.5,1.6-1.3,1.7c0,0,0,0,0,0H80.8z"/>
	<circle class="st3" cx="130.3" cy="489.6" r="2.7"/>
	<circle class="st3" cx="165.7" cy="513.2" r="2.7"/>
	<circle class="st3" cx="168.3" cy="485" r="2.7"/>
	<circle class="st3" cx="150.9" cy="561.9" r="2.7"/>
	<circle class="st3" cx="198.8" cy="550.2" r="2.7"/>
	<circle class="st3" cx="148.1" cy="532.9" r="2.7"/>
	<circle class="st3" cx="192.2" cy="512.5" r="2.7"/>
	<path class="st4" d="M135.4,562.1c-0.5,0-1-0.3-1.3-0.7c-16.9-28.9-16.9-70.4-16.9-70.9c0-0.8,0.7-1.5,1.5-1.5l0,0
		c0.8,0,1.5,0.7,1.5,1.5c0,0,0,0,0,0c0,0.4,0,41.1,16.5,69.3c0.4,0.7,0.1,1.6-0.5,2C135.9,562,135.6,562.1,135.4,562.1z"/>
	<path d="M50.5,545c-0.7,0-1.3-0.5-1.5-1.2c-9.8-40.4,3.2-64.2,8.7-74.4c0.6-1,1.1-2,1.4-2.6c0.4-0.7,1.3-1.1,2-0.7
		c0.7,0.4,1.1,1.3,0.7,2l0,0c-0.4,0.8-0.9,1.7-1.5,2.8c-5.4,9.8-18,32.9-8.4,72.2c0.2,0.8-0.3,1.6-1.1,1.8c0,0,0,0,0,0
		C50.7,545,50.6,545,50.5,545z"/>
</g>
<g id="packages_1">
	<path d="M588.4,252.9c0.8-0.7,1.7-1.5,2.6-2.3c-2.8-1.1-5.8-1.6-8.8-1.3c-36.4,2.6-43.6,74.5-43.9,77.6c-0.1,0.8,0.5,1.6,1.4,1.6
		c0.8,0.1,1.6-0.5,1.6-1.4c0.1-0.7,7.3-72.4,41.1-74.9C584.5,252.2,586.5,252.4,588.4,252.9z"/>
	<path d="M599.9,267.3c6.4,22.9-3,63.9-3.1,64.3c-0.2,0.8,0.3,1.6,1.1,1.8c0.1,0,0.2,0,0.3,0c0.7,0,1.3-0.5,1.5-1.2
		c0.5-2.1,10.5-45.7,2.1-68.8C601.2,264.8,600.6,266,599.9,267.3z"/>
	<path d="M588,253.3c-3.3-0.3-6.7,0.3-9.7,1.8c-33.2,15.1-15,85-14.2,88c0.2,0.7,0.8,1.1,1.5,1.1c0.1,0,0.3,0,0.4,0
		c0.8-0.2,1.3-1,1.1-1.8c0,0,0,0,0,0c-0.2-0.7-18.3-70.5,12.6-84.5c1.7-0.8,3.5-1.3,5.3-1.5C585.8,255.4,586.8,254.4,588,253.3z"/>
	<path d="M623.5,326.7c-0.3-2.1-5.8-45.2-21.2-64.4c-0.5,1-0.9,2-1.4,3c14.2,19.1,19.6,61.3,19.7,61.7c0.1,0.8,0.9,1.4,1.7,1.3
		S623.7,327.5,623.5,326.7L623.5,326.7z"/>
	<path class="st9" d="M529.9,317.1c0,0-18.7,53.4-11.9,90.1c0,0,23,18.5,80.4,18.5c0,0,24.2-42.6,16.5-89.3
		C614.9,336.4,580.4,310.7,529.9,317.1z"/>
	<path d="M598.1,427.2c-57,0-80.1-18-81-18.8c-0.3-0.2-0.5-0.5-0.5-0.9c-6.7-36.7,11.2-88.6,12-90.9c0.2-0.5,0.7-0.9,1.2-1
		c50.5-6.4,85.7,19.3,86,19.5c0.3,0.2,0.5,0.6,0.6,1c7.7,46.7-16.4,89.8-16.7,90.3c-0.3,0.5-0.8,0.7-1.3,0.8L598.1,427.2z
		 M519.4,406.4c3.4,2.4,26.8,17.7,78.1,17.8c3.1-5.9,22.7-44.9,16-86.9c-4.3-3-36.9-24.2-82.5-18.7
		C528.7,325.5,513.5,373,519.4,406.4L519.4,406.4z"/>
	<path class="st3" d="M552.8,336.8c0,0,1,56.5,20.1,88.6c0,0,28,9.4,81.8-10.6c0,0,7.9-48.3-15.5-89.5
		C639.2,325.3,597.9,313.2,552.8,336.8z"/>
	<path d="M592.4,429.1c-12.7,0-19.4-2.1-19.9-2.3c-0.3-0.1-0.6-0.4-0.8-0.7c-19.1-32.1-20.3-87-20.3-89.4c0-0.6,0.3-1.1,0.8-1.4
		c45.1-23.6,87-11.7,87.5-11.6c0.4,0.1,0.7,0.4,0.9,0.7c23.4,41.1,15.8,89.9,15.7,90.4c-0.1,0.5-0.5,1-1,1.2
		C627.2,426.6,606.2,429.1,592.4,429.1z M573.9,424.1c4,1.1,31.3,7.3,79.4-10.4c0.9-6.6,5.7-50-15.2-87.1c-5.1-1.3-43-9.9-83.8,11.1
		C554.6,345.1,556.9,394.9,573.9,424.1L573.9,424.1z"/>
	<path class="st4" d="M524.1,406c-0.8,0-1.4-0.6-1.5-1.4c-3.1-36.6,11.7-77.1,11.9-77.5c0.2-0.8,1-1.3,1.8-1.1
		c0.8,0.2,1.3,1,1.1,1.8c0,0.1-0.1,0.2-0.1,0.3c-0.2,0.4-14.7,40.3-11.7,76.2c0.1,0.8-0.5,1.6-1.4,1.6L524.1,406z"/>
	<circle class="st3" cx="573.6" cy="346" r="2.7"/>
	<circle class="st3" cx="609" cy="369.6" r="2.7"/>
	<circle class="st3" cx="611.6" cy="341.4" r="2.7"/>
	<circle class="st3" cx="594.2" cy="418.3" r="2.7"/>
	<circle class="st3" cx="642" cy="406.6" r="2.7"/>
	<circle class="st3" cx="591.4" cy="389.2" r="2.7"/>
	<circle class="st3" cx="635.5" cy="368.9" r="2.7"/>
	<path class="st4" d="M578.7,418.5c-0.5,0-1-0.3-1.3-0.7c-16.9-28.9-16.9-70.5-16.9-70.9c0-0.8,0.6-1.5,1.4-1.5c0,0,0,0,0.1,0
		c0.8,0,1.5,0.7,1.5,1.5c0,0,0,0,0,0c0,0.4,0,41.1,16.5,69.3c0.4,0.7,0.2,1.6-0.5,2C579.2,418.4,578.9,418.5,578.7,418.5
		L578.7,418.5z"/>
	<circle class="st5" cx="582.1" cy="349" r="3.6"/>
	<circle class="st5" cx="628" cy="338.8" r="3.6"/>
	<circle class="st5" cx="608.4" cy="362" r="3.6"/>
	<circle class="st5" cx="643.2" cy="393.2" r="3.6"/>
	<circle class="st5" cx="588.8" cy="388.7" r="3.6"/>
	<circle class="st5" cx="612" cy="415.5" r="3.6"/>
	<path d="M628.5,367c-0.8,0-1.5-0.7-1.5-1.5c0-0.6,0.4-1.2,1-1.4c33.5-11.2,63-31.9,85-59.5c16.5-20.8,23-38.4,23.1-38.6
		c0.3-0.8,1.2-1.1,2-0.8c0.7,0.3,1,1.1,0.8,1.8c-0.3,0.7-6.8,18.2-23.6,39.4C693,334.5,663,355.5,629,366.9
		C628.8,367,628.7,367,628.5,367z"/>
	<path d="M646.5,378c-0.8,0-1.5-0.6-1.6-1.4c0-0.8,0.6-1.5,1.4-1.6c70.3-7.8,89.6-47.7,89.8-48.1c0.3-0.8,1.2-1.1,2-0.8
		s1.1,1.2,0.8,2c0,0,0,0.1,0,0.1c-0.2,0.4-5,10.7-18.9,22c-12.7,10.4-35.7,23.7-73.3,27.8L646.5,378z"/>
</g>
<g id="hand">
	<path class="st6" d="M115.3,439.5c0,0-15.3-3.3-14.9-19.9s6-31.8,17.5-37.4s21-2.3,25.8,3.1s3.1,12.5-4.9,17.1c0,0,6.4,10.9-8,18.3
		c0,0,3.3,19.9-13.3,12.7L115.3,439.5z"/>
	<path d="M129.5,379.3c5.4-0.1,10.5,2.1,14.1,6c4.8,5.4,3.1,12.5-4.9,17.1c0,0,6.4,10.9-8,18.3c0,0,2.4,14.2-7,14.2
		c-2.2-0.1-4.3-0.6-6.3-1.6l-2.2,6.1c0,0-15.3-3.3-14.9-19.9s6-31.8,17.5-37.4C121.4,380.3,125.4,379.4,129.5,379.3 M129.5,376.3
		c-4.5,0.1-8.9,1.2-12.9,3.2c-11.5,5.6-18.7,20.6-19.2,40c-0.6,10.8,6.7,20.4,17.3,22.9c0.2,0,0.4,0.1,0.6,0.1c1.3,0,2.4-0.8,2.8-2
		l1.2-3.3c1.5,0.5,3,0.7,4.5,0.7c2.8,0.1,5.4-1.1,7.2-3.2c3.1-3.6,3.2-9.3,2.9-12.4c4.6-2.8,7.5-6.2,8.7-10.2
		c0.8-2.8,0.7-5.8-0.2-8.5c3.8-2.8,6.1-6.2,6.7-10c0.5-3.8-0.7-7.6-3.3-10.3C141.6,378.7,135.7,376.2,129.5,376.3L129.5,376.3z"/>
	<path d="M130.8,422.2c-0.4,0-0.8-0.2-1.1-0.5c-6.8-7.1-17.2-7.1-17.4-7.1l0,0c-0.8,0-1.5-0.7-1.5-1.5s0.7-1.5,1.5-1.5
		c0.5,0,11.8,0,19.5,8c0.6,0.6,0.6,1.5,0,2.1C131.6,422.1,131.2,422.2,130.8,422.2L130.8,422.2z"/>
	<path d="M139.2,404.2c-0.4,0-0.7-0.1-1-0.4c-11-9.5-18.8-6-19.1-5.8c-0.7,0.4-1.6,0-2-0.7c-0.4-0.7,0-1.6,0.7-2
		c0.4-0.2,9.8-4.6,22.4,6.3c0.6,0.5,0.7,1.5,0.1,2.1C140.1,404,139.6,404.2,139.2,404.2z"/>
	<path class="st4" d="M113.3,391.7c-0.4,0-0.9-0.2-1.2-0.4c-0.9-0.7-1-1.9-0.3-2.8c0,0,0,0,0,0c0.3-0.3,6.2-7.7,15.4-8.6
		c5.8-0.5,11.6,1.6,17.2,6.5c0.8,0.8,0.8,2.1,0,2.8c-0.7,0.7-1.8,0.8-2.6,0.2c-4.7-4.1-9.4-5.9-14.1-5.5c-7.5,0.7-12.6,7-12.7,7.1
		C114.5,391.5,113.9,391.7,113.3,391.7z"/>
</g>
<g id="cart">
	<path class="st9" d="M216.9,547.3l111.4,33.8l11.9,43.8h348.1L638.6,785c-3.5,11.3-14.3,26.1-26.1,26.5l-211.6-0.3
		c-12.4,0.4-23.5-7.4-27.3-19.2l-63.2-195l-93.5-27.8V547.3z"/>
	<path d="M612.5,813l-211.6-0.3c-13,0.4-24.7-7.9-28.7-20.2l-62.9-194.2l-92.7-27.6c-0.6-0.2-1.1-0.8-1.1-1.4v-21.9
		c0-0.8,0.7-1.5,1.5-1.5c0.1,0,0.3,0,0.4,0.1l111.4,33.8c0.5,0.1,0.9,0.5,1,1l11.6,42.7h347c0.8,0,1.5,0.7,1.5,1.5
		c0,0.2,0,0.3-0.1,0.4L640,785.4C636.6,796.3,625.6,812.6,612.5,813z M400.9,809.7l211.6,0.3c11.5-0.4,21.5-15.4,24.7-25.5
		l49.2-158.2H340.3c-0.7,0-1.3-0.5-1.4-1.1l-11.7-43l-108.7-33V568l92.4,27.5c0.5,0.1,0.9,0.5,1,1l63.2,195
		C378.7,802.6,389.2,810,400.9,809.7L400.9,809.7z"/>
	<path d="M425.8,811.4c-0.5,0-1-0.3-1.3-0.7c-41.1-65-45.9-182.6-46-183.8c0-0.8,0.6-1.5,1.4-1.6s1.5,0.6,1.6,1.4
		c0,1.2,4.9,118,45.5,182.3c0.4,0.7,0.3,1.6-0.4,2.1C426.4,811.3,426.1,811.4,425.8,811.4L425.8,811.4z"/>
	<path d="M579.5,811c-0.8,0-1.5-0.7-1.5-1.5c0-0.3,0.1-0.6,0.2-0.8c45.2-70.8,46.8-181.8,46.8-182.9c0-0.8,0.7-1.5,1.5-1.5l0,0
		c0.8,0,1.5,0.7,1.5,1.5c0,0,0,0,0,0c0,1.1-1.6,113-47.3,184.5C580.4,810.7,580,811,579.5,811z"/>
	<path d="M505.4,809.4c-0.7,0-1.3-0.4-1.4-1.1c-14.8-51.1-0.2-178.4,0-179.6c0.1-0.8,0.8-1.4,1.7-1.3c0.8,0.1,1.4,0.8,1.3,1.7l0,0
		c-0.1,1.3-14.7,128,0,178.5c0.2,0.8-0.2,1.6-1,1.9c0,0,0,0,0,0C505.7,809.4,505.5,809.4,505.4,809.4z"/>
	<circle class="st9" cx="419.9" cy="875.5" r="27.8"/>
	<path d="M419.9,904.9c-16.2,0-29.4-13.1-29.4-29.4c0-16.2,13.1-29.3,29.4-29.3c16.2,0,29.4,13.1,29.4,29.4l0,0
		C449.2,891.7,436.1,904.8,419.9,904.9z M419.9,849.2c-14.6,0-26.4,11.8-26.4,26.3c0,14.6,11.8,26.4,26.4,26.4s26.4-11.8,26.4-26.4
		l0,0C446.2,861,434.4,849.2,419.9,849.2z"/>
	<circle class="st9" cx="592.9" cy="875.5" r="27.8"/>
	<path d="M592.9,904.9c-16.2,0-29.3-13.2-29.3-29.4c0-16.2,13.2-29.3,29.4-29.3c16.2,0,29.3,13.1,29.3,29.4
		C622.3,891.7,609.1,904.8,592.9,904.9z M592.9,849.2c-14.6,0-26.3,11.8-26.3,26.4c0,14.6,11.8,26.3,26.4,26.3
		c14.5,0,26.3-11.8,26.3-26.4C619.3,861,607.5,849.2,592.9,849.2z"/>
	<path class="st9" d="M392.4,824h230.3c2.4,0,4.4,2,4.4,4.4v4.3c0,2.4-2,4.4-4.4,4.4H392.4c-2.4,0-4.4-2-4.4-4.4v-4.3
		C388,826,390,824,392.4,824z"/>
	<path d="M622.6,838.5H392.4c-3.2,0-5.9-2.6-5.9-5.9v-4.3c0-3.2,2.6-5.9,5.9-5.9h230.3c3.2,0,5.9,2.6,5.9,5.9v4.3
		C628.5,835.9,625.9,838.5,622.6,838.5z M392.4,825.5c-1.6,0-2.9,1.3-2.9,2.9v4.3c0,1.6,1.3,2.9,2.9,2.9h230.3
		c1.6,0,2.9-1.3,2.9-2.9v-4.3c0-1.6-1.3-2.9-2.9-2.9H392.4z"/>
	<path d="M452.7,825.5c-0.8,0-1.5-0.7-1.5-1.5v-12.7c0-0.8,0.7-1.5,1.5-1.5s1.5,0.7,1.5,1.5V824
		C454.2,824.8,453.5,825.5,452.7,825.5z"/>
	<path d="M546.3,825.5c-0.8,0-1.5-0.7-1.5-1.5v-12.5c0-0.8,0.7-1.5,1.5-1.5s1.5,0.7,1.5,1.5V824
		C547.8,824.8,547.1,825.5,546.3,825.5z"/>
	<circle class="st4" cx="592.5" cy="875.5" r="8"/>
	<path d="M592.5,885c-5.2,0-9.5-4.3-9.5-9.5s4.3-9.5,9.5-9.5s9.5,4.3,9.5,9.5l0,0C602,880.7,597.7,885,592.5,885z M592.5,869
		c-3.6,0-6.5,2.9-6.5,6.5s2.9,6.5,6.5,6.5s6.5-2.9,6.5-6.5l0,0C599,871.9,596.1,869,592.5,869z"/>
	<circle class="st4" cx="419.5" cy="875.5" r="8"/>
	<path d="M419.5,885c-5.2,0-9.5-4.3-9.5-9.5s4.3-9.5,9.5-9.5s9.5,4.3,9.5,9.5l0,0C429,880.7,424.7,885,419.5,885z M419.5,869
		c-3.6,0-6.5,2.9-6.5,6.5s2.9,6.5,6.5,6.5s6.5-2.9,6.5-6.5l0,0C426,871.9,423.1,869,419.5,869z"/>
	<path class="st4" d="M412.5,800c-0.5,0-1-0.3-1.3-0.7C373.4,734.7,372,644.4,372,643.5c0-0.8,0.7-1.5,1.5-1.5c0,0,0,0,0,0l0,0
		c0.8,0,1.5,0.7,1.5,1.5c0,0.9,1.4,90.4,38.8,154.3c0.4,0.7,0.2,1.6-0.5,2.1C413,799.9,412.8,800,412.5,800z"/>
	<path class="st4" d="M592.5,800c-0.8,0-1.5-0.7-1.5-1.5c0-0.3,0.1-0.6,0.3-0.8c44.2-66.8,40.8-149.3,40.8-150.1
		c0-0.8,0.6-1.5,1.4-1.6s1.5,0.6,1.6,1.4c0,0.8,3.5,84.3-41.3,151.9C593.5,799.7,593,800,592.5,800z"/>
	<path class="st4" d="M510.5,800c-0.7,0-1.3-0.5-1.5-1.2c-10.9-45.7-0.1-147.5,0-148.5c0.1-0.8,0.8-1.4,1.7-1.3
		c0.8,0.1,1.4,0.8,1.3,1.7c-0.1,1-10.8,102.3,0,147.5c0.2,0.8-0.3,1.6-1.1,1.8C510.8,800,510.6,800,510.5,800z"/>
</g>
</svg>
