<?xml version="1.0" encoding="utf-8"?>
<!-- Generator: Adobe Illustrator 24.1.2, SVG Export Plug-In . SVG Version: 6.00 Build 0)  -->
<svg version="1.1" id="telescope_1_" xmlns="http://www.w3.org/2000/svg" xmlns:xlink="http://www.w3.org/1999/xlink" x="0px"
	 y="0px" viewBox="0 0 1000 1000" style="enable-background:new 0 0 1000 1000;" xml:space="preserve">
<style type="text/css">
	.st0{fill:#1D1D1B;}
	.st1{fill:#D9CFFF;}
	.st2{fill:#FFFFFF;}
	.st3{fill:#FFAD00;}
	.st4{fill:#6C32AD;}
	.st5{fill:#59298F;}
	.st6{fill:#E89D00;}
	.st7{fill:#FFCDB2;}
	.st8{fill:#FFB49F;}
	.st9{fill:#1D1E1B;}
	.st10{fill:#FFC140;}
</style>
<g id="line">
	<path class="st0" d="M883,865H179c-1.1,0-2-0.9-2-2s0.9-2,2-2h704c1.1,0,2,0.9,2,2S884.1,865,883,865z"/>
	<path class="st0" d="M254,829H117c-1.1,0-2-0.9-2-2s0.9-2,2-2h137c1.1,0,2,0.9,2,2S255.1,829,254,829z"/>
	<path class="st0" d="M947,829H839c-1.1,0-2-0.9-2-2s0.9-2,2-2h108c1.1,0,2,0.9,2,2S948.1,829,947,829z"/>
</g>
<g id="message-2">
	<path class="st1" d="M367.2,194.6c0-46.1-49.8-83.6-111.3-83.6s-111.3,37.4-111.3,83.6s49.8,83.6,111.3,83.6c7.5,0,15-0.6,22.5-1.7
		l25.3,24.5l5.9-33.1C343.9,253.7,367.2,226.2,367.2,194.6z"/>
	<path d="M255.9,111.1c61.5,0,111.3,37.4,111.3,83.6c0,31.6-23.3,59-57.7,73.2l-5.9,33.1l-25.3-24.5c-7.4,1.1-14.9,1.7-22.5,1.7
		c-61.5,0-111.3-37.4-111.3-83.6S194.4,111.1,255.9,111.1 M255.9,108.1c-30.4,0-59,8.9-80.5,25.1c-21.8,16.4-33.8,38.2-33.8,61.5
		s12,45.1,33.8,61.5c21.6,16.2,50.1,25.1,80.5,25.1c7.2,0,14.3-0.5,21.4-1.5l24.2,23.5c0.6,0.5,1.3,0.9,2.1,0.9
		c0.3,0,0.6-0.1,0.9-0.1c1-0.4,1.8-1.2,2-2.3l5.6-31.5c35.8-15.3,58-44.1,58-75.4c0-23.3-12-45.1-33.8-61.5
		C314.9,117,286.3,108.1,255.9,108.1L255.9,108.1z"/>
	<path d="M197.6,189.5h109.2c0.8-0.1,1.4-0.8,1.3-1.7c-0.1-0.7-0.6-1.2-1.3-1.3H197.6c-0.8,0.1-1.4,0.8-1.3,1.7
		C196.4,188.9,196.9,189.4,197.6,189.5z"/>
	<path d="M237.7,217.8h63.6c0.8,0,1.5-0.7,1.5-1.5s-0.7-1.5-1.5-1.5h-63.6c-0.8,0-1.5,0.7-1.5,1.5S236.9,217.8,237.7,217.8
		L237.7,217.8z"/>
	<path class="st2" d="M332,234.5c1.2-1.2,2.4-2.6,3.5-3.9l0.8-1l0.4-0.5c0.1-0.2,0,0,0,0l0.3-0.3c0.5-0.7,1-1.4,1.5-2.1
		c1.9-2.8,3.6-5.8,5.1-8.9c0.2-0.4,0.3-0.7,0.5-1.1l0.2-0.6c0,0,0.1-0.3,0.1-0.1s0.1-0.2,0.1-0.2c0.3-0.8,0.6-1.6,0.9-2.4
		c0.6-1.6,1.1-3.2,1.5-4.8s0.8-3.3,1.1-4.9c0.1-0.4,0.1-0.8,0.2-1.2l0.1-0.6c0-0.1,0-0.2,0-0.3c0-0.3,0,0.3,0-0.1
		c0.1-0.8,0.2-1.6,0.3-2.5c0.3-3.3,0.3-6.7-0.1-10c0-0.4-0.1-0.8-0.1-1.2c0-0.2,0-0.4-0.1-0.6c0,0.4,0-0.2,0-0.3
		c-0.1-0.8-0.3-1.6-0.4-2.3c-0.3-1.6-0.7-3.1-1.1-4.6s-1-3.1-1.5-4.6c-0.1-0.4-0.3-0.7-0.4-1.1l-0.2-0.5c0-0.1-0.3-0.6-0.1-0.3
		c-0.3-0.8-0.7-1.5-1-2.3c-1.4-2.9-3-5.8-4.9-8.4c-0.5-0.7-0.9-1.3-1.4-2l-0.4-0.5l-0.2-0.2c-0.3-0.3-0.5-0.7-0.8-1
		c-1.1-1.3-2.2-2.6-3.3-3.8c-2.3-2.4-4.7-4.6-7.3-6.6l-0.4-0.3l-0.5-0.4c-0.4-0.3-0.7-0.5-1.1-0.8c-0.9-0.6-1.3-1.8-0.7-2.8
		c0.6-1,1.8-1.3,2.7-0.7c0,0,0,0,0,0c5.8,4.1,10.9,9.1,15.2,14.8c4.1,5.4,7.2,11.5,9.4,17.9c2.1,6.5,3.1,13.3,2.9,20.1
		c-0.3,7-1.8,13.9-4.5,20.4c-2.8,6.7-6.7,13-11.6,18.4c-0.6,0.7-1.2,1.3-1.9,2c-0.8,0.8-2,0.8-2.8,0c0,0,0,0,0,0
		C331.2,236.6,331.2,235.3,332,234.5C332,234.5,332,234.5,332,234.5L332,234.5z"/>
	<path d="M218.4,147.1c0.8,0,1.5-0.6,1.5-1.5s-0.6-1.5-1.5-1.5c-46.5-3.1-84-28.9-107.3-50.1c-25.3-23-39.9-45.5-40-45.7
		c-0.5-0.7-1.4-0.9-2.1-0.4c-0.7,0.5-0.9,1.4-0.4,2.1c11.6,17,25.2,32.5,40.5,46.3c23.7,21.5,61.9,47.7,109.2,50.9L218.4,147.1z"/>
	<path d="M162.7,183.4c2.7,0,5.5-0.1,8.4-0.4c0.8-0.1,1.4-0.8,1.4-1.6c-0.1-0.8-0.8-1.4-1.6-1.4c-53.1,5.2-80.9-41.9-81.2-42.3
		c-0.4-0.7-1.3-1-2-0.6c-0.7,0.4-1,1.3-0.6,2.1c5.7,9.1,12.8,17.2,21.2,23.9C119.7,172.7,138.1,183.4,162.7,183.4z"/>
</g>
<g id="woman">
	<path class="st3" d="M515,410.1c0,0,76.6,183.3,243.4,191.1C884,607,875,599,904,553c25.4-40.3,36.3-162.9,12.7-189.2
		s-46-14.7-46-14.7L857,326.1l-88.6,29.1l5.5,17.2c0,0-28.3,23-14.6,52.7s25.2,73.1,40.3,84.5c0,0-194.5-105.5-284.7-74.6"/>
	<path class="st0" d="M814.2,604.3c-15,0-33.2-0.6-55.9-1.6c-38.3-1.8-75-13-109.1-33.3C622,553.1,596.3,531,573,503.7
		c-18.4-21.6-34.4-45-48-70c-3.2,0.7-6.4,1.6-9.5,2.7l-1-2.8c2.9-1,5.9-1.9,9-2.6c-6.6-12.3-9.9-20.1-10-20.3l2.8-1.1
		c0.1,0.2,3.5,8.2,10.2,20.8c37.9-7.7,93.3,2,165.1,29c34.4,13.1,68,28,100.8,44.8c-7.8-10.6-14.7-28.6-21.9-47.4
		c-4-10.6-8.2-21.5-12.6-31c-12.7-27.5,9.7-49.7,14.2-53.8l-5.7-17.7l91.2-29.9l13.5,23c5.3-2,25.7-7.6,46.5,15.5
		c11.1,12.4,15.8,46.2,12.4,90.4c-3.2,42.1-13,81.5-24.9,100.5c-2.8,4.4-5.3,8.6-7.5,12.3C880.7,594.5,874.9,604.3,814.2,604.3z
		 M528.1,433.1c13.4,24.4,29.2,47.5,47.2,68.7c36.3,42.5,97.5,93.9,183.1,97.9c112.6,5.2,115.8-0.2,136.8-35.2
		c2.2-3.7,4.7-7.9,7.5-12.3c11.7-18.6,21.3-57.5,24.5-99.1c3.2-42.8-1.2-76.6-11.7-88.2c-22.5-25-43.4-14.8-44.2-14.3l-1.3,0.6
		l-0.7-1.2l-13-22l-86.1,28.3l5.4,16.8l-0.8,0.6c-1.1,0.9-27.2,22.6-14.2,50.9c4.4,9.5,8.6,20.5,12.6,31.1
		c8.5,22.3,17.3,45.3,27.2,52.8l-1.6,2.5c-35.1-18.4-71.3-34.7-108.4-48.8C621,436,565.3,426.1,528.1,433.1z"/>
	<path class="st4" d="M423.3,349.4c0,0-3.9,46.6-36.8,36.6s-85.5-22.6-105.1,26.3s-28.5,83.3-65.6,82.1S131.9,604.7,231,636.4
		C393.3,688.4,512,395,512,395l-29.2-25.9L423.3,349.4z"/>
	<path d="M423.3,349.4l59.4,19.8l29.2,25.9c0,0-97.6,241.4-236.9,247.5c-14.9,0.6-29.8-1.4-44-6.1c-97.8-31.3-53.4-140.5-16.6-142.1
		c0.5,0,1,0,1.4,0c1.5,0,2.9,0,4.2,0c33.6-1.5,42.4-35.1,61.3-82.1c10.4-25.9,30.1-34.6,51.1-35.5c18.7-0.8,38.5,4.5,54,9.2
		c3.2,1,6.5,1.5,9.9,1.4C420.3,386.3,423.4,349.3,423.3,349.4 M423.3,346.3c-0.5,0-1.1,0.2-1.5,0.5c-0.8,0.5-1.3,1.3-1.3,2.2
		c0,0.5-3.2,34.3-24.1,35.2c-3,0.1-6-0.4-8.9-1.3c-16.6-5.1-36.1-10.1-55-9.3c-26.2,1.1-44.3,13.7-53.8,37.4
		c-2.2,5.4-4.2,10.6-6.1,15.6c-14.9,38.2-24.8,63.4-52.5,64.6c-1.3,0.1-2.6,0.1-4,0c-0.6,0-1.1,0-1.7,0c-9.7,0.4-19.8,7.2-28.5,19
		c-8.7,12.3-14.3,26.5-16.3,41.5c-2.4,18.3,0.8,35.5,9.3,50c10.1,17.2,27.4,29.9,51.2,37.5c14.6,4.7,29.8,6.8,45.1,6.2
		c32.4-1.4,65.3-15.5,97.5-41.9c25.6-21,51-49.7,75.5-85.4c41.5-60.7,66.3-121.4,66.5-122c0.5-1.2,0.2-2.5-0.8-3.4l-29.2-25.9
		c-0.3-0.3-0.6-0.5-1-0.6l-59.4-19.8C424,346.4,423.6,346.4,423.3,346.3L423.3,346.3z"/>
	<path class="st5" d="M482.8,369.1l-59.4-19.8c0,0-1.9,23-14.5,33.2L451,423c0,0-53,34-73,73c-13.5,26.2-64.7,143.8-29.6,121.5
		c31.1-19.8,58.9-49.1,82.3-80.1c24.3-61.6,52.2-132.7,62.5-159.2L482.8,369.1z"/>
	<path class="st3" d="M329,863c0,0,4-429,181.2-421.5C790.2,453.4,767.9,863,767.9,863H329z"/>
	<path class="st0" d="M769.3,864.5H327.5V863c1.3-53.4,6-106.8,14.1-159.6c7.8-49.9,18.3-93.7,31.2-130.2
		c16.2-45.8,36.3-80.3,59.7-102.5c22.7-21.6,48.9-31.9,77.8-30.6c65.4,2.8,119.7,27.5,161.5,73.6c25.1,27.7,45.9,63.3,61.7,105.9
		c12.7,34,22.2,72.5,28.3,114.4c10.5,71.3,7.5,128.6,7.5,129.2L769.3,864.5z M330.5,861.5h435.9c0.4-9.2,2-62.4-7.5-127.2
		c-9.6-65.5-33-156.5-89.3-218.7c-41.2-45.4-94.8-69.9-159.4-72.6c-28.1-1.2-53.5,8.8-75.6,29.8c-52.3,49.6-77.8,153-90,231
		C336.6,756,331.9,808.7,330.5,861.5L330.5,861.5z"/>
	<circle class="st4" cx="478.2" cy="238.9" r="42.1"/>
	<path d="M470.2,197.6c22.8-4.4,44.9,10.4,49.3,33.2c4.4,22.8-10.4,44.9-33.2,49.3s-44.9-10.4-49.3-33.2c-1.5-7.9-0.8-16,2.1-23.5
		C444.3,210.1,456,200.3,470.2,197.6 M469.6,194.6c-24.4,4.8-40.3,28.4-35.6,52.8c4.8,24.4,28.4,40.3,52.8,35.6s40.3-28.4,35.6-52.8
		c-2.9-15.1-13.4-27.6-27.7-33.3C486.7,193.8,478,193,469.6,194.6L469.6,194.6z"/>
	<path class="st4" d="M607.2,358.3c0,0,26.8-28,12-53s-21.4-22.1-28.4-35.8c-6.9-13.7-33.8-25.6-56.4-16.7c0,0-30.9-19-56.4-9.9
		s-33.5,22.4-39.1,43.5s-12.2,30.9-16.6,45.6s-9.3,55.3,48.9,79.6S607.2,358.3,607.2,358.3z"/>
	<path d="M483.9,241.3c24.1-4.7,50.5,11.5,50.5,11.5c2.4-1,5-1.7,7.6-2.2c20.7-4,42.7,6.7,48.9,18.9c6.9,13.7,13.5,10.8,28.4,35.8
		s-12,53-12,53s-47,46.8-95.3,56.3c-13.8,2.7-27.7,2.3-40.7-3c-58.2-24.3-53.3-64.9-48.9-79.6s11-24.5,16.6-45.5
		s13.6-34.5,39.1-43.6C479.9,242.2,481.9,241.7,483.9,241.3 M483.4,238.3c-2.2,0.4-4.3,1-6.4,1.7c-26.7,9.6-35.2,23.9-41,45.6
		c-2.6,9.6-5.9,18.9-9.9,27.9c-2.5,5.7-4.8,11.6-6.6,17.5c-3.7,12.5-3.4,25.8,1,38.1c7,19.1,23.7,34.3,49.6,45.1
		c12.5,5.2,26.8,6.3,42.4,3.2c25.5-5,50.5-20.3,66.9-32.2c10.5-7.6,20.5-15.9,29.9-24.9l0,0c4.9-5.4,8.9-11.4,12.1-17.9
		c6.8-14.2,6.9-27.6,0.3-38.7c-8.4-14.3-14.3-19.7-19.1-24.1c-3.7-3.4-6.3-5.9-9.2-11.5c-6.7-13.2-29.7-24.9-52.1-20.5
		c-2.3,0.4-4.5,1.1-6.7,1.8C528.9,246.2,505.5,234,483.4,238.3L483.4,238.3z"/>
	<path d="M501.3,339.5h-0.1c-18.7,1.9-38.5-14.4-39.3-15.1c-0.6-0.5-0.7-1.5-0.2-2.1s1.5-0.7,2.1-0.2c0.2,0.2,19.7,16.3,37.1,14.5
		c0.8-0.1,1.6,0.4,1.7,1.3S502.1,339.3,501.3,339.5L501.3,339.5z"/>
	<path class="st2" d="M498.6,327.7c-4.2,0.8-8.4,1-12.7,0.7c-0.8-0.1-1.5-0.8-1.4-1.6c0.1-0.8,0.8-1.5,1.6-1.4
		c36.8,2.7,44.5-35.1,44.8-36.7c0.2-0.8,1-1.3,1.8-1.1c0.7,0.2,1.2,0.9,1.1,1.7C533.8,289.6,527.2,322.1,498.6,327.7z"/>
	<path class="st2" d="M537.6,420.3c0,0,80.4,51.3-18,59.1c0,0-13.5,35.6-50.8,24.7c-37.3-10.9-28.2-45.6-5.6-57.9
		C482.8,435.5,537.6,420.3,537.6,420.3z"/>
	<path d="M490,507c-7.2,1.3-14.6,0.8-21.6-1.4c-15.6-4.5-24.9-13.7-26.2-25.9c-1.4-13.1,6.9-27.5,20.3-34.8
		c19.5-10.7,72.5-25.4,74.7-26c0.4-0.1,0.8,0,1.2,0.2c1.5,0.9,35.8,23,31.2,41.3c-2.8,11.1-19.2,18-49,20.5
		C518.8,485.1,509.6,503.1,490,507z M537.4,421.9c-6.2,1.8-55.4,15.7-73.4,25.6c-12.1,6.6-20,20-18.7,31.8
		c1.2,10.9,9.7,19.2,24.1,23.4c14.9,4.4,27.7,1.7,38-7.9c4.7-4.5,8.5-9.9,11-15.9c0.2-0.6,0.7-1,1.3-1c28.5-2.3,44.8-8.6,47.2-18.3
		C570.5,444.6,541.7,424.8,537.4,421.9L537.4,421.9z"/>
	<path d="M429.8,207.5c-0.2,0-0.3,0-0.5,0c-0.8-0.1-1.4-0.9-1.3-1.7c0,0,0,0,0,0c1.5-10.1,5.8-17.8,12.7-22.9
		c12.2-9,28.2-6.6,28.8-6.5c0.8,0.1,1.4,0.9,1.2,1.7c0,0,0,0,0,0c-0.1,0.8-0.9,1.4-1.7,1.3c-0.1,0-15.4-2.3-26.6,5.9
		c-6.3,4.6-10.1,11.7-11.5,21C430.9,206.9,430.4,207.3,429.8,207.5z"/>
	<path class="st3" d="M474.2,619c0,0,10.1,42.6,174,74.8s194-40.9,192.4-88.5s1.7-132.5-20.8-159.8s-45.4-16.6-45.4-16.6l-12.6-23.6
		L672,430.4l4.8,17.4c0,0-29.2,21.7-16.8,52c12.4,30.3,22,74.1,36.6,86.1c0,0-165.2-160.6-252.2-81.5"/>
	<path class="st0" d="M721.3,703.2c-21.7,0-46.2-2.7-73.4-8c-162.9-32-174.8-74.1-175.2-75.9l2.9-0.7c0,0.1,2.9,10.6,25.6,24.8
		c21,13.2,63.5,32.4,147.3,48.8c76,14.9,130.5,8.8,162.1-18.1c26-22.1,29-52.7,28.5-68.9c-0.3-8-0.4-17-0.5-26.5
		c-0.7-46.4-1.6-110-19.9-132.4c-21.4-26-42.7-16.6-43.6-16.2l-1.3,0.6l-0.7-1.3l-12-22.6l-87.2,24.5l4.7,17l-0.8,0.6
		c-1.2,0.9-28.2,21.4-16.4,50.2c4,9.7,7.7,20.9,11.3,31.7c7,21,14.2,42.7,22.9,52c1.3,1.2,2,1.9,2.1,2l-2,2.2
		c-0.8-0.7-1.5-1.4-2.2-2.1c-9.1-8.5-46.3-42.2-91.1-68.2c-30.1-17.5-57.7-28.1-82.1-31.5c-30.2-4.3-55.4,2.5-74.9,20.3l-2-2.2
		c20.2-18.4,46.2-25.4,77.4-21c24.7,3.5,52.7,14.2,83.2,31.9c35.6,20.7,66.4,46.2,82.3,60.2c-5.9-11-11-26.5-16.4-42.6
		c-3.6-10.8-7.3-21.9-11.2-31.5c-11.5-28.1,11.8-49.2,16.5-53.1l-4.9-17.9l92.4-25.9l12.5,23.5c5.4-1.8,26-6.5,45.8,17.6
		c19,23.1,19.9,84.7,20.6,134.2c0.1,9.5,0.3,18.6,0.5,26.5c0.5,16.8-2.5,48.3-29.5,71.3C791.7,694.3,761.1,703.2,721.3,703.2z"/>
	<path class="st6" d="M679,449c0,0,34,31,95-18l-13-23l-86,24L679,449z"/>
	<path class="st6" d="M776.7,372.9c0,0,35.3,29.5,94.2-22l-14-22.4L772,356.1L776.7,372.9z"/>
	<path class="st2" d="M448.6,232.7c-0.2,0.1-0.5,0.1-0.7,0c-0.8-0.2-1.2-1.1-1-1.9c3.2-10.4,8.7-17.4,16.4-20.9
		c12.4-5.6,25.7,0.1,26.3,0.3c0.8,0.3,1.2,1.1,0.9,1.9c-0.3,0.8-1.1,1.2-1.9,0.9c-0.1,0-0.1-0.1-0.2-0.1c-0.1-0.1-12.7-5.4-23.9-0.3
		c-6.8,3.1-11.8,9.5-14.7,19C449.6,232.2,449.1,232.6,448.6,232.7z"/>
	<path class="st7" d="M535.7,430.8l3.3,16.4c0,0-20.1,48.2-81.6,23.9c0,0,19.3-43.8,24.7-92.4c0,0-21.3-1.5-20.7-20.5
		s15-24.2,24.5-20.5c0,0,37.8,19,62.4-57.6c0,0,38.6,9.7,51.6,46.4s11.8,81.4-15.3,98.1S535.7,430.8,535.7,430.8z"/>
	<path d="M548.3,280.1c0,0,38.6,9.7,51.6,46.4s11.8,81.4-15.3,98.1c-6.5,4.1-13.6,6.9-21.1,8.5c-16.5,3.2-27.7-2.3-27.7-2.3
		l3.3,16.4c0,0-10.2,24.2-38,29.7c-11.4,2.2-25.8,1.3-43.7-5.8c0,0,19.3-43.8,24.7-92.4c0,0-21.3-1.5-20.7-20.5
		c0.4-13.3,7.6-19.8,15.1-21.3c3.1-0.6,6.4-0.4,9.4,0.8c0,0,6.8,3.4,16.4,1.5C515.4,336.7,534,324.3,548.3,280.1 M547.7,277.2
		c-1.1,0.2-1.9,1-2.3,2c-13.8,42.8-31.4,54.7-43.7,57.1c-4.9,1-9.9,0.6-14.5-1.3c-0.1,0-0.1-0.1-0.2-0.1c-3.5-1.4-7.3-1.7-11-1
		c-8.2,1.6-17,8.8-17.5,24.1c-0.3,9,3.8,15.9,11.7,20.1c2.7,1.4,5.7,2.4,8.7,3c-5.7,46.4-23.9,88.2-24.1,88.6c-0.7,1.5,0,3.3,1.5,4
		c0,0,0.1,0,0.1,0c16.6,6.6,31.9,8.6,45.4,5.9c29-5.7,39.7-30.4,40.1-31.5c0.2-0.5,0.3-1.1,0.2-1.7l-2.2-11.3
		c8,2.1,16.3,2.3,24.3,0.7c7.8-1.6,15.3-4.6,22.1-8.8c13.4-8.3,21.8-23.4,24.1-43.8c2.1-17.8-0.6-38.4-7.5-57.9
		c-5.5-15.6-16.6-28.9-31.9-38.5c-6.7-4.3-14.1-7.6-21.7-9.8C548.6,277.2,548.1,277.2,547.7,277.2L547.7,277.2z"/>
	<path d="M536.9,433.8c-0.2,0-0.3,0-0.5,0c-17.8-2.3-33.3-17.5-33.9-18.1c-0.5-0.6-0.5-1.6,0.1-2.1c0.6-0.5,1.4-0.5,2,0
		c0.1,0.1,15.5,15.1,32.2,17.3c0.8,0.1,1.4,0.9,1.3,1.7C538,433.2,537.5,433.7,536.9,433.8L536.9,433.8z"/>
	<path d="M480.8,370c-0.5,0.1-1.1-0.1-1.4-0.5c-5.1-6.2-6.9-11.8-5.3-16.4c2.3-6.7,10.6-8.7,11-8.8c0.8-0.1,1.6,0.4,1.7,1.3
		c0.1,0.7-0.3,1.4-1,1.7c-0.1,0-7.1,1.8-8.8,6.8c-1.2,3.6,0.4,8.1,4.8,13.5c0.5,0.6,0.4,1.6-0.2,2.1c0,0,0,0,0,0
		C481.3,369.9,481.1,370,480.8,370z"/>
	<path class="st8" d="M557.6,336.2c-20.9,5.7-50-1.9-54.4,6s-0.1,17.8,11.5,19.6s23,0.8,46.2-2.4s45.6-8.1,42.2-20.4
		S588.3,327.7,557.6,336.2z"/>
	<circle class="st3" cx="473.5" cy="379.3" r="6.9"/>
	<path d="M472.2,372.5c3.8-0.5,7.2,2.2,7.7,6c0.4,3.4-1.7,6.6-5,7.5c-1.3,0.3-2.6,0.1-3.8-0.4c-3.5-1.4-5.3-5.4-3.9-8.9
		C467.9,374.5,469.9,372.9,472.2,372.5 M471.6,369.5c-5.3,1-8.8,6.2-7.8,11.6c1,5.3,6.2,8.8,11.6,7.8c5.3-1,8.8-6.2,7.8-11.6
		c-0.6-3.3-2.9-6.1-6.1-7.3C475.4,369.4,473.4,369.2,471.6,369.5z"/>
	<circle cx="583.3" cy="346.6" r="3.9"/>
	<path d="M528.8,341.1c-0.8,0.1-1.6-0.4-1.7-1.2c-0.1-0.7,0.3-1.4,0.9-1.7c0.1,0,11.5-4.5,11.4-12c0-0.8,0.6-1.5,1.5-1.5
		c0.8,0,1.5,0.6,1.5,1.4c0,0,0,0,0,0c0.2,9.6-12.8,14.6-13.3,14.8L528.8,341.1z"/>
	<path class="st2" d="M466,466.5c-0.3,0.1-0.7,0-1-0.2c-0.7-0.4-0.9-1.3-0.5-2c11.6-20,19.7-59.8,19.8-60.2c0.1-0.8,0.9-1.4,1.7-1.2
		c0,0,0.1,0,0.1,0c0.8,0.2,1.3,0.9,1.2,1.8c-0.3,1.6-8.2,40.6-20.1,61.1C466.8,466.2,466.4,466.4,466,466.5z"/>
	<path class="st0" d="M547.6,410.2h-0.1c-10.3-0.1-18.3-9.9-18.7-10.3c-0.5-0.6-0.4-1.6,0.2-2.1c0.6-0.5,1.6-0.4,2.1,0.2
		c0.1,0.1,7.5,9.1,16.4,9.2h0.1c4.4,0,8.5-2.3,12.2-6.7c0.5-0.6,1.5-0.7,2.1-0.2s0.7,1.5,0.2,2.1C557.8,407.6,553,410.2,547.6,410.2
		z"/>
	<path class="st7" d="M740.5,286.7c-21.8-11.5-33.5-4.4-26,17.4s56.9,47.1,56.9,47.1l80-23.2"/>
	<path class="st9" d="M771.1,353.3l-0.7-0.4c-2-1-50.2-26-57.8-48.2c-4.7-13.5-1.7-19.8,1.7-22.7c5.3-4.6,15-3.5,27.1,2.9l-1.9,3.5
		c-10.5-5.5-18.7-6.8-22.7-3.4c-3.4,2.9-3.6,9.4-0.5,18.3c6.7,19.4,49.2,42.4,55.2,45.6l79.2-23l1.1,3.9L771.1,353.3z"/>
	<path class="st7" d="M850.2,326.8l-6.3-10.9c0,0,8.5-11.9,4.8-46c-5.8-53.8-46.3-41.3-46.3-41.3c-17.7-14.6-35.7,3.8-35.7,3.8
		s-23.9-29.2-38.3,11.1c-8.2,23,8.3,51.4,24.3,72.2"/>
	<path class="st9" d="M848.9,327.6l-6.8-11.7l0.6-0.8c0.1-0.1,8.1-12.1,4.5-45c-1.9-17.7-7.8-29.8-17.4-36.2
		c-12.3-8.1-26.8-3.8-27-3.8l-0.8,0.2l-0.6-0.5c-16.4-13.5-33,3-33.7,3.7l-1.2,1.2l-1.1-1.3c-0.1-0.1-9.4-11.2-19.1-9.5
		c-6.7,1.2-12.2,7.9-16.6,20.1c-6.4,17.9,1.8,41.7,24.1,70.8l-2.4,1.8c-23-30-31.3-54.8-24.6-73.7c4.7-13.3,11.1-20.7,18.9-22.1
		c9.5-1.7,18,6.3,20.9,9.4c4.4-3.8,20.2-15.6,35.9-3.3c3.4-0.9,16.7-3.6,28.7,4.3c10.5,6.9,16.8,19.8,18.8,38.4
		c3.2,29.7-2.7,42.9-4.6,46.2l5.9,10.1L848.9,327.6z"/>
	<path class="st0" d="M519,357.5c-0.8,0-1.5-0.6-1.6-1.4c0-0.8,0.6-1.5,1.4-1.6l27-3c0.8-0.1,1.6,0.5,1.7,1.3
		c0.1,0.8-0.5,1.6-1.3,1.7l-27,3H519z"/>
	<path class="st7" d="M645,356.5c-23-13.6-36-6.5-29.1,17.4s59,54,59,54l87.8-20.9"/>
	<path class="st9" d="M674.7,430l-0.7-0.4c-2.2-1.2-52.8-30.7-60-55.1c-4.3-14.8-0.8-21.4,3-24.3c6-4.6,16.3-3,29,4.6l-2,3.4
		c-11.1-6.6-20-8.3-24.5-4.8c-3.9,3-4.5,10.1-1.6,20c6.3,21.4,51.3,48.8,57.5,52.4l87-20.7l0.9,3.9L674.7,430z"/>
	<g id="telescope-2">
		<path class="st4" d="M842.3,267.2c-75.8,32.5-153.6,60.1-228,95.8c-5.8-11.4-11.6-22.9-17.4-34.3c72.7-38.9,141.2-85,212.3-126.7
			L842.3,267.2z"/>
		<path class="st9" d="M613.5,365l-18.7-37l1.3-0.7c45.3-24.2,89.7-51.7,132.6-78.2c26-16.1,52.9-32.7,79.7-48.4l1.4-0.8l34.6,68.1
			l-1.5,0.6c-28.6,12.3-57.9,24-86.3,35.4c-46.9,18.8-95.3,38.2-141.7,60.4L613.5,365z M598.8,329.3l16.1,31.7
			c46-22,94-41.2,140.5-59.8c27.9-11.2,56.7-22.7,84.8-34.7l-31.7-62.4c-26.3,15.5-52.7,31.8-78.3,47.6
			C687.7,278,643.7,305.2,598.8,329.3L598.8,329.3z"/>
		<path class="st1" d="M626.8,362.5c-5.6,2.6-9.8,4.6-15.3,7.3c-2.5,1.2-5.6,0.2-6.9-2.3L587,332.9c-1.3-2.5-0.3-5.6,2.2-6.9
			c5.5-2.9,9.6-5.1,15-8c2.5-1.4,5.6-0.5,7,2c0,0.1,0.1,0.1,0.1,0.2l17.9,35.3c1.3,2.5,0.3,5.6-2.3,6.9
			C626.9,362.4,626.8,362.4,626.8,362.5z"/>
		<path class="st9" d="M609.2,371.8c-2.5,0-4.8-1.4-6-3.6l-17.5-34.6c-1.6-3.3-0.4-7.2,2.8-8.9c5.4-2.8,9.4-5,14.9-8
			c3.2-1.8,7.3-0.6,9.1,2.6c0,0.1,0.1,0.1,0.1,0.2l17.9,35.3c1.7,3.3,0.4,7.3-2.9,9c-0.1,0-0.1,0.1-0.2,0.1l0,0
			c-5.7,2.6-9.8,4.6-15.3,7.3C611.2,371.6,610.2,371.8,609.2,371.8z M606.6,318.8c-0.6,0-1.2,0.2-1.8,0.5c-5.5,3.1-9.6,5.3-15,8.1
			c-1.8,0.9-2.5,3.1-1.6,4.9l17.6,34.6c0.9,1.8,3.1,2.5,4.9,1.6c5.5-2.7,9.6-4.7,15.3-7.3c1.8-0.8,2.6-3,1.8-4.8
			c0-0.1-0.1-0.1-0.1-0.2l-17.9-35.3c-0.4-0.9-1.2-1.6-2.2-1.8C607.4,318.8,607,318.8,606.6,318.8L606.6,318.8z"/>
		<path class="st1" d="M865,269.7c-39.1,16.7-78.9,31.3-118.8,46c-4.4,1.6-9.3-0.3-11.4-4.5c-8.3-16.3-16.6-32.6-24.9-48.9
			c-2.1-4.2-0.8-9.3,3.1-11.8c35.4-23.4,70.9-46.7,107.4-68.3c4.4-2.6,10-1.2,12.6,3.2c0.1,0.2,0.2,0.3,0.3,0.5
			c12,23.7,24.1,47.5,36.1,71.2c2.3,4.5,0.5,10.1-4.1,12.4C865.4,269.6,865.2,269.7,865,269.7z"/>
		<path class="st9" d="M743,317.7c-4,0-7.7-2.3-9.5-5.9L708.6,263c-2.5-4.9-0.9-10.8,3.7-13.8l0.2-0.1
			c34.8-22.9,70.8-46.6,107.3-68.2c2.6-1.5,5.6-1.9,8.5-1.1c2.8,0.8,5.2,2.8,6.5,5.4l36.1,71.2c1.3,2.6,1.5,5.7,0.5,8.5
			c-1,2.8-3.1,5-5.9,6.2l0,0c-39,16.6-79.5,31.5-118.5,45.9l-0.3,0.1C745.5,317.5,744.3,317.8,743,317.7z M825.2,182.4
			c-1.4,0-2.7,0.4-3.9,1.1c-36.5,21.5-72.4,45.2-107.2,68.1l-0.2,0.1c-3.3,2.2-4.4,6.4-2.6,9.9l24.8,48.9c1.8,3.5,5.9,5.1,9.5,3.7
			l0.3-0.1c39.1-14.4,79.5-29.2,118.4-45.8l0,0c3.9-1.7,5.8-6.2,4.1-10.1c-0.1-0.2-0.1-0.3-0.2-0.5l-36.1-71.2
			c-1-1.9-2.7-3.3-4.7-3.9C826.7,182.5,826,182.4,825.2,182.4L825.2,182.4z"/>
		<path class="st1" d="M894.5,198.6c7,13.8,24.5,57.4,3.4,67.2c-20.9,9.7-44.9-27.9-52.2-42.4s-23.5-56-3.4-67.2
			C862.7,145,887.5,184.8,894.5,198.6z"/>
		<path class="st9" d="M890.9,268.8c-18.6,0-38-28-46.6-44.7c-9.7-19.1-22.7-58.1-2.7-69.2c4.3-2.4,9.5-2.8,14.2-1.2
			c20.7,6.4,39.4,42.7,40.1,44.3s19.1,38,12,58.5c-1.5,4.7-4.9,8.6-9.4,10.7C896.1,268.2,893.5,268.8,890.9,268.8z M849.9,155.7
			c-2.4,0-4.7,0.6-6.8,1.8c-18.7,10.3-3.5,50.5,4,65.2s31,50.7,50.3,41.7c3.8-1.7,6.6-5,7.8-9c5.3-15.4-5.4-43.5-11.9-56.2
			s-22.7-37.9-38.3-42.7C853.3,156,851.6,155.7,849.9,155.7L849.9,155.7z"/>
		<path class="st4" d="M897.9,265.8c-7.4,3.4-14.8,6.7-22.2,9.9c-4.8,2.1-10.3,0.1-12.7-4.6l-45.6-89.9c-2.3-4.6-0.7-10.3,3.8-12.9
			c7-4.1,14-8.1,21.1-12.1C860.8,192.7,879.3,229.3,897.9,265.8z"/>
		<path class="st9" d="M871.8,278c-4.3,0-8.2-2.4-10.1-6.2l-45.6-89.9c-2.7-5.3-0.8-11.9,4.4-14.9c7-4.1,14.1-8.2,21.1-12.1l1.4-0.8
			l57,112.3l-1.4,0.6c-7.3,3.3-14.8,6.7-22.2,9.9C874.9,277.7,873.3,278,871.8,278z M841.7,158.3c-6.5,3.7-13.2,7.5-19.7,11.3
			c-3.8,2.2-5.2,7-3.2,10.9l45.6,89.9c2,3.9,6.7,5.6,10.8,3.9c6.9-3,13.9-6.1,20.7-9.2L841.7,158.3z"/>
		<path class="st2" d="M724.5,258.5c-1.7,0-3-1.3-3-3c0-1,0.5-2,1.4-2.5l89.5-55.5c1.4-0.9,3.3-0.4,4.1,1c0.8,1.4,0.4,3.2-1,4.1
			l-89.5,55.5C725.6,258.4,725.1,258.5,724.5,258.5z"/>
		<path class="st2" d="M885,267c-1.1,0-2.1-0.6-2.7-1.6l-19-36c-0.7-1.5-0.1-3.3,1.4-4c1.4-0.7,3.1-0.1,3.9,1.2l19,36
			c0.8,1.5,0.2,3.3-1.3,4.1C886,266.9,885.5,267,885,267z"/>
	</g>
	<path class="st7" d="M761.7,405.7l-6.3-12.1c0,0,9.8-12.5,7.6-49.5c-3.4-58.6-48-47.1-48-47.1c-18.4-16.7-38.8,2.2-38.8,2.2
		s-24.4-32.8-42,10c-10.1,24.5,6.3,56,22.5,79.5"/>
	<path class="st9" d="M760.4,406.4l-6.8-13l0.6-0.8c0.1-0.1,9.4-12.6,7.3-48.5c-1.1-19.3-6.8-32.8-17-40.2
		c-13-9.5-28.9-5.6-29.1-5.5l-0.8,0.2l-0.6-0.5c-17.2-15.6-36,1.5-36.8,2.2l-1.2,1.1l-1-1.3c-0.1-0.1-9.6-12.7-20.3-11.3
		c-7.3,0.9-13.7,8-19.1,21c-7.9,19.1-0.3,45.3,22.4,78l-2.5,1.7c-23.3-33.6-31-60.8-22.7-80.9c5.8-14.1,13-21.8,21.5-22.8
		c10.4-1.3,19.2,7.9,22.1,11.3c4.8-3.8,22.6-15.9,39-1.7c3.6-0.7,18.2-3,30.8,6.1c10.9,8,17.1,22.3,18.3,42.5
		c1.9,32.5-5.3,46.3-7.4,49.7L763,405L760.4,406.4z"/>
	<path class="st0" d="M680.2,354.9c-0.6,0-1.1-0.3-1.4-0.9c-13.8-28.7-3.9-54-3.4-55c0.3-0.8,1.2-1.1,2-0.8s1.1,1.2,0.8,2l0,0
		c-0.1,0.3-9.9,25.1,3.4,52.6c0.4,0.7,0,1.6-0.7,2C680.6,354.9,680.4,354.9,680.2,354.9z"/>
	<path class="st0" d="M718.3,353.3c-0.1,0-0.3,0-0.4,0c-0.8-0.2-1.3-1-1.1-1.8c0,0,0,0,0,0c6.7-26.1-3.4-53.7-3.5-54
		c-0.3-0.8,0.1-1.6,0.9-1.9c0.8-0.3,1.6,0.1,1.9,0.9c0,0,0,0,0,0c0.4,1.2,10.5,28.7,3.6,55.8C719.6,352.8,719,353.3,718.3,353.3z"/>
	<circle class="st10" cx="388.6" cy="827.1" r="8.1"/>
	<circle class="st10" cx="374.6" cy="706.1" r="8.1"/>
	<circle class="st10" cx="544.6" cy="714.1" r="8.1"/>
	<circle class="st10" cx="503.6" cy="774.1" r="8.1"/>
	<circle class="st10" cx="624.6" cy="846.1" r="8.1"/>
	<circle class="st10" cx="721.6" cy="748.1" r="8.1"/>
	<circle class="st10" cx="663.6" cy="637.1" r="8.1"/>
	<circle class="st10" cx="774.6" cy="652.1" r="8.1"/>
	<circle class="st10" cx="707.6" cy="521.1" r="8.1"/>
	<circle class="st10" cx="796.6" cy="560.1" r="8.1"/>
	<circle class="st10" cx="793.6" cy="480.1" r="8.1"/>
	<circle class="st10" cx="550.6" cy="542.1" r="8.1"/>
	<circle class="st10" cx="822.6" cy="403.1" r="8.1"/>
	<circle class="st10" cx="910.6" cy="406.1" r="8.1"/>
	<circle class="st10" cx="876.6" cy="506.1" r="8.1"/>
	<circle class="st10" cx="865.6" cy="440.1" r="8.1"/>
	<circle class="st10" cx="419.6" cy="581.1" r="8.1"/>
	<path class="st2" d="M748,384c-0.3,0-0.6,0-0.8-0.1c-1.6-0.5-2.5-2.1-2.1-3.7c9.5-33.3-2.7-57.6-2.8-57.8c-0.8-1.4-0.3-3.3,1.1-4.1
		c1.4-0.8,3.3-0.3,4.1,1.1c0,0.1,0.1,0.2,0.1,0.3c0.5,1.1,13.4,26.5,3.2,62.2C750.5,383.1,749.3,384,748,384z"/>
	<path class="st2" d="M630,563c-0.7,0-1.3-0.2-1.8-0.6c-58.2-44.9-98.6-53-122.3-51.9c-25,1.2-36.6,12.5-36.8,12.6
		c-1.2,1.1-3.1,1.1-4.2-0.1c-1.1-1.2-1.1-2.9,0-4.1c0.5-0.5,13.4-13.1,40.7-14.4c35.9-1.7,78.4,16.2,126.2,53.1
		c1.3,1,1.5,2.9,0.5,4.2C631.8,562.6,630.9,563,630,563z"/>
	<path class="st0" d="M212.4,485.9c-5.5,0-11-0.3-16.6-0.8c-24.9-2.4-50.8-10.3-77-23.3c-44.5-22.1-75-52.1-75.3-52.4
		c-0.8-0.8-0.8-2,0-2.8s2-0.8,2.8,0l0,0c0.3,0.3,30.3,29.8,74.3,51.7c40.4,20.1,101.2,37.6,161.4,7c1-0.5,2.2-0.2,2.7,0.8
		c0.5,1,0.2,2.2-0.8,2.7c0,0-0.1,0-0.1,0.1C261.8,480.1,237.3,486,212.4,485.9z"/>
	<path class="st0" d="M184,547c-11.5-0.1-22.9-1.3-34.1-3.5c-17.4-3.4-34.4-8.7-50.7-15.6c-1-0.5-1.4-1.6-1-2.7c0.5-1,1.6-1.4,2.7-1
		c0.9,0.4,87.5,39.1,136,4.2c0.9-0.6,2.2-0.4,2.8,0.6c0.6,0.9,0.4,2-0.4,2.7C225,541.8,206.3,547,184,547z"/>
	<path class="st0" d="M950,483c-0.1,0-0.3,0-0.4,0c-1.1-0.2-1.8-1.3-1.6-2.4c22.3-111.3-8.6-127.6-8.9-127.8c-1-0.5-1.4-1.7-1-2.6
		c0.5-1,1.6-1.4,2.6-1c1.4,0.6,34.2,17,11.1,132.2C951.8,482.3,950.9,483,950,483z"/>
	<path class="st0" d="M737.4,728.3c-13.8,0.1-27.5-1.4-40.9-4.3c-1.1-0.3-1.7-1.4-1.4-2.4s1.4-1.7,2.4-1.4
		c18.1,3.9,36.7,5.1,55.1,3.6c39.9-3.5,69.5-19.8,87.7-48.7c0.6-0.9,1.8-1.2,2.8-0.6s1.2,1.8,0.6,2.8
		c-18.8,29.6-50.2,47.1-90.9,50.5C747.5,728.1,742.3,728.3,737.4,728.3z"/>
	<path class="st0" d="M820,140c-0.5,0-1-0.2-1.4-0.6c-0.8-0.8-0.8-2,0-2.8c0.7-0.7,17-16.8,38-16.8h0.3c11.5,0.1,22.1,5,31.6,14.8
		c0.8,0.8,0.7,2.1,0,2.8s-2.1,0.7-2.8-0.1l0,0c-8.6-8.9-18.3-13.5-28.7-13.6h-0.3c-19.3,0-35,15.4-35.2,15.6
		C821.1,139.8,820.5,140,820,140z"/>
	<path class="st0" d="M573.5,376c-0.6,0-1.2-0.4-1.4-0.9l-13-32c-0.3-0.8,0.1-1.6,0.9-1.9c0.7-0.3,1.5,0.1,1.9,0.8l13,32
		c0.3,0.8-0.1,1.6-0.8,2C573.9,376,573.7,376,573.5,376z"/>
</g>
</svg>
