<?xml version="1.0" encoding="utf-8"?>
<!-- Generator: Adobe Illustrator 24.1.2, SVG Export Plug-In . SVG Version: 6.00 Build 0)  -->
<svg version="1.1" id="there_is_nothing_here_1_" xmlns="http://www.w3.org/2000/svg" xmlns:xlink="http://www.w3.org/1999/xlink"
	 x="0px" y="0px" viewBox="0 0 1000 1000" style="enable-background:new 0 0 1000 1000;" xml:space="preserve">
<style type="text/css">
	.st0{fill:#D9CFFF;}
	.st1{fill:#1D1E1B;}
	.st2{fill:#59298F;}
	.st3{fill:#FFFFFF;}
	.st4{fill:#6C32AD;}
	.st5{fill:#FFAD00;}
	.st6{fill:#1D1D1B;}
	.st7{fill:#FFCDB2;}
	.st8{fill:#FFB49F;}
	.st9{fill:#E89D00;}
	.st10{fill:#FFC140;}
</style>
<g id="line">
	<path d="M891,915H125c-1.1,0-2-0.9-2-2s0.9-2,2-2h766c1.1,0,2,0.9,2,2S892.1,915,891,915z"/>
	<path d="M160,947H46c-1.1,0-2-0.9-2-2s0.9-2,2-2h114c1.1,0,2,0.9,2,2S161.1,947,160,947z"/>
	<path d="M962,947H817c-1.1,0-2-0.9-2-2s0.9-2,2-2h145c1.1,0,2,0.9,2,2S963.1,947,962,947z"/>
</g>
<g id="box">
	<path class="st0" d="M760,914H270c-22.7-118.9-26.3-231.4,0-334h490C791.5,676,791.5,787.3,760,914z"/>
	<path class="st1" d="M761.2,915.5H268.8l-0.2-1.2c-24.6-129.1-24.6-238.5,0-334.7l0.3-1.1h492.3l0.3,1
		c15.7,47.9,23.7,100.4,23.7,156s-8,115.7-23.7,178.9L761.2,915.5z M271.2,912.5h487.6c30.9-124.9,30.9-236.2,0.1-331H271.2
		C247,676.6,247,784.9,271.2,912.5z"/>
	<path class="st0" d="M141.5,499.5c0,0,96.1,27,128.7,77l61.8-22c0,0-10.9-47-95.3-92L141.5,499.5z"/>
	<path class="st1" d="M269.6,578.3l-0.6-1c-31.9-49-126.9-76.1-127.8-76.4l-4.3-1.2l100.1-38.9l0.6,0.3
		c43.8,23.4,67.6,47.3,79.8,63.3c13.3,17.4,16.1,29.2,16.3,29.7l0.3,1.3L269.6,578.3z M146.1,499.3c18.8,5.9,95.6,32.1,124.7,75.4
		l59.4-21.1c-2.5-7.8-19-49.5-93.5-89.4L146.1,499.3z"/>
	<path class="st0" d="M889,499.5c0,0-96.1,27-128.7,77l-61.8-22c0,0,10.9-47,95.3-92L889,499.5z"/>
	<path class="st1" d="M760.9,578.3l-64.2-22.8l0.3-1.3c0.1-0.5,2.9-12.3,16.3-29.7c12.2-16,35.9-39.9,79.8-63.3l0.6-0.3l100.1,38.9
		l-4.3,1.2c-1,0.3-95.9,27.4-127.8,76.4L760.9,578.3z M700.3,553.6l59.4,21.1c29.1-43.3,105.9-69.5,124.7-75.4l-90.5-35.2
		C719.4,504,702.8,545.8,700.3,553.6z"/>
	<polygon class="st2" points="270.5,576.5 332.5,556.5 698.5,556.5 760.5,576.5 	"/>
	<circle class="st2" cx="457.5" cy="762.5" r="10.5"/>
	<circle class="st2" cx="512.5" cy="762.5" r="10.5"/>
	<circle class="st2" cx="566.5" cy="762.5" r="10.5"/>
	<path class="st3" d="M731.5,890c-3,0-5.5-2.5-5.5-5.5c0-0.6,0.1-1.2,0.3-1.7c29.1-87.3,27.6-157.3,21.2-200.6
		c-6.9-46.6-20.7-72.8-20.8-73.1c-1.4-2.7-0.3-6,2.4-7.4c2.6-1.3,5.8-0.3,7.3,2.2c0.6,1.1,14.8,28.2,22,76.7
		c6.6,44.5,8.2,116.3-21.6,205.7C736,888.5,733.9,890,731.5,890z"/>
	<path class="st3" d="M291.5,900c-2,0-3.9-1.1-4.8-2.8c-28.4-51.8-22-184.3-21.7-189.9c0.2-3,2.7-5.4,5.8-5.2c3,0.2,5.4,2.7,5.2,5.8
		c-0.1,1.3-6.6,135,20.3,184.1c1.5,2.7,0.5,6-2.2,7.5C293.4,899.8,292.4,900,291.5,900z"/>
</g>
<g id="woman">
	<g id="woman-2">
		<path class="st4" d="M460.6,252.6c0,0-32.3,16.1-38.9-9.6s-20.1-81-60.2-74.4s-44.6,13.9-58.7-11s-115.8-21.8-97,56.2
			C236.6,341.7,466,329.3,466,329.3l5.4-29.6L460.6,252.6z"/>
		<path d="M450.1,331.1c-21.4,0-61.5-1.4-103-10.2c-35.7-7.5-65.5-18.9-88.5-33.9c-28.9-18.8-47.1-43.3-54.3-72.9
			c-4.1-17.1-2.8-31.8,3.8-43.7c5.6-10,15.2-17.9,27.6-22.8c25.6-10.1,60.1-5.4,68.3,9.2c10.9,19.3,15,18.5,38,13.9
			c5.4-1.1,11.6-2.3,19.1-3.6c41-6.7,55,48.1,61.7,74.5l0.3,1c1.5,5.8,4.5,9.8,8.9,11.8c11,5.1,27.7-3.1,27.8-3.2l1.7-0.9l11.3,49.2
			l-0.1,0.3l-5.6,30.8l-1.2,0.1C465.9,330.8,460,331.1,450.1,331.1z M265.3,145.2c-9.7,0-19.3,1.7-28.4,5.2
			c-15.3,6-39.4,22.2-29.6,63c15.7,65.3,85,92.9,140.4,104.6s108.5,10.2,117,9.9l5.1-28.1l-10.3-45c-4.8,2.1-18.4,7.1-28.7,2.4
			c-5.3-2.4-8.9-7.1-10.6-13.8l-0.3-1c-6.5-25.5-20-78.6-58.3-72.3c-7.5,1.2-13.6,2.5-19,3.6c-23,4.6-29.2,5.9-41.2-15.3
			C297.1,150.5,282.3,145.2,265.3,145.2z"/>
		<path class="st5" d="M340.4,579c0,0-24.4-170.5,53.6-222c23.8-15.8,63,28.4,108,30c51.3,1.8,101.1-44,129-31
			c110.5,51.6,51.6,223,51.6,223H340.4z"/>
		<path class="st6" d="M684,581H338.7l-0.2-1.7c-3.8-30.5-4.6-61.4-2.5-92.1c2.1-28.7,7.1-53.7,14.9-74.4
			c9.8-26.1,23.9-45.4,42.1-57.4c13.7-9,31.4-0.1,51.8,10.3c17.3,8.8,36.8,18.7,57.4,19.4c24.9,0.9,49.7-9.8,71.6-19.2
			c23.2-10,43.2-18.6,58.2-11.6c25.7,12,44.4,31.4,55.7,57.6c9,20.9,13.3,46.1,12.7,75.1c-0.9,49-15.6,92.3-15.7,92.8L684,581z
			 M342.2,577h339c2.5-7.7,14.3-46.7,15.1-90.3c1.2-64.5-21.1-107.9-66.1-128.9c-13.3-6.2-32.6,2.1-54.9,11.7s-47.6,20.4-73.3,19.5
			c-21.5-0.8-41.4-10.9-59-19.8c-19.3-9.8-36-18.3-47.8-10.5c-39.6,26.2-51.9,84.5-55.1,128.7C337.9,517.3,338.7,547.3,342.2,577z"
			/>
		<path class="st3" d="M477.5,382.3c0,0-21,5.1-6,21.1s36,2,36,2s23,13,39,0s-4-25.3-4-25.3S525.5,393.2,477.5,382.3z"/>
		<path class="st6" d="M529.2,412.8c-10,0-19-4.2-21.7-5.6c-4.1,2.4-23.1,12.2-37.1-2.7c-4.9-5.2-6.7-9.9-5.4-14.1
			c2.1-7,11.8-9.4,12.2-9.5l0.4-0.1l0.3,0.1c46.8,10.6,63.6-1.7,63.8-1.8l0.8-0.6l0.9,0.5c0.4,0.3,10.3,6.4,10.9,15.1
			c0.3,4.5-2,8.8-6.7,12.6C542.3,410.8,535.8,413,529.2,412.8z M507.4,403.7l0.8,0.5c0.2,0.1,22.3,12.3,37.3,0.1
			c4-3.2,5.9-6.6,5.6-10.1c-0.4-5.8-6.5-10.6-8.7-12.2c-4.2,2.5-22.6,11.4-65,1.9c-1.6,0.5-8.3,2.7-9.7,7.4
			c-0.9,3.1,0.7,6.9,4.7,11.2c13.9,14.9,33.3,2.3,34.1,1.8L507.4,403.7z"/>
		<path class="st7" d="M490,346c0,0,4,31-7,45c0,0,22,17,49,0c0,0-17-35-12-45S490,346,490,346z"/>
		<path class="st6" d="M507.4,400c-9,0-17.9-2.7-25.3-7.8l-1.2-0.9l0.9-1.2c10.5-13.3,6.7-43.6,6.7-43.9l-0.2-1.3l1.2-0.4
			c6.4-1.8,27.6-7.4,31.6-2.5c0.7,0.8,1.3,2.3,0.1,4.6c-3.8,7.7,7.4,34.1,12,43.7l0.6,1.2l-1.1,0.7C523.6,398.1,514.9,400,507.4,400
			z M485.1,390.6c4.8,3.1,22.9,13,44.9-0.2c-3.3-7-16.2-35.5-11.4-45.1c0.2-0.4,0.5-1.1,0.2-1.4c-1.9-2.3-15.3-0.1-27.3,3.1
			C492.3,353,494.1,377.4,485.1,390.6z"/>
		<path class="st6" d="M453,172.1c-0.9,0-1.7-0.6-1.9-1.5c-6.7-26.2,19.3-38.4,19.6-38.5c1-0.5,2.2,0,2.6,1s0,2.2-1,2.6
			c-1,0.4-23.2,10.9-17.4,33.8c0.3,1.1-0.4,2.2-1.4,2.4c0,0,0,0,0,0C453.3,172.1,453.2,172.1,453,172.1z"/>
		<circle class="st4" cx="500.4" cy="181" r="39.6"/>
		<path class="st1" d="M500.4,222h-0.6c-22.7-0.3-40.8-19-40.4-41.7c0.2-10.9,4.6-21.3,12.4-28.8c16.3-15.8,42.3-15.4,58.1,0.9
			c15.8,16.3,15.4,42.3-0.9,58.1C521.3,217.8,511.1,222,500.4,222z M500.4,142.9c-21-0.1-38.2,16.8-38.3,37.8
			c-0.1,21,16.8,38.2,37.8,38.3l0,0h0.6c20.8,0,37.7-16.7,38-37.5l0,0c0.3-21-16.5-38.3-37.5-38.6H500.4z"/>
		<path class="st4" d="M539.7,197.7c-15.8-29-60.4-23.4-71.8-10.9c-28.3,31.1-55.6,15.8-61,49.5c-2.7,16.9,12.2,23.6,5,54.5
			c-3.8,15.9,23,40.8,47.5,41.2s107.9,2.5,114.9-15.4s34.5-47.6,12.6-82.1C564.6,199.5,546.5,210.3,539.7,197.7z"/>
		<path class="st1" d="M483.6,333.6c-7,0-14.1-0.1-20.9-0.2l-3.4,0c-17.2-0.3-33.9-11.8-42.2-22.5c-5.7-7.3-8.1-14.6-6.7-20.5
			c4.2-17.9,0.9-27.4-2.1-35.7c-2.1-5.9-4-11.4-2.9-18.6c3.1-19.5,13.4-23.4,26.5-28.3c10.5-3.9,22.4-8.4,34.8-22
			c7-7.7,24.3-12.1,40-10.2c15.6,1.9,27.7,9.5,34.2,21.4l0,0c2.3,4.3,6.1,5.5,11.4,7.3c9.1,3,21.6,7.2,35.7,29.3
			c17.8,28,4.1,52.7-6,70.8c-2.4,4.1-4.5,8.3-6.4,12.6C570.3,330.8,527,333.6,483.6,333.6z M499.2,178.1c-13.5,0-25.5,4.5-30.2,9.7
			c-12.9,14.1-25.7,18.9-36,22.8c-12.6,4.7-21.8,8.1-24.6,25.9c-1,6.5,0.7,11.5,2.7,17.2c3.1,8.7,6.6,18.7,2.2,37.4
			c-1.2,5,1,11.4,6.1,18c7.9,10.1,23.7,21.1,39.9,21.3l3.4,0c25.7,0.4,103.8,1.7,110.1-14.5c1.9-4.5,4.1-8.8,6.6-13
			c9.7-17.4,23-41.3,6.1-67.7c-13.5-21.2-25.4-25.1-34.1-28c-5.5-1.8-10.2-3.4-13.1-8.7l0,0c-6-11.1-17.3-18.1-31.9-19.9
			C504.1,178.3,501.7,178.1,499.2,178.1z"/>
		<path class="st8" d="M513.5,263.5c-20.2,3.1-46.6-7.1-51.6-0.3s-2,16.6,8.6,19.6s21.4,3.2,43.5,2.7s43.7-2.6,41.8-14.5
			S543.3,258.9,513.5,263.5z"/>
		<path class="st7" d="M502.7,205.3c-8.3,31.2-40.1,45.1-57.3,46.4c-3.9,9.5-2.2,22.4-2.3,33.6c-0.6,41.2,21.4,71.4,61,69.2
			c38.6-2.1,59.2-23.9,59.5-69.3c0-10.7,0.6-21.3-2.7-30.6C528.1,254.1,502.7,205.3,502.7,205.3z"/>
		<path class="st6" d="M500.3,356.2c-15.5,0-28.9-5.1-39-14.8c-13.1-12.6-20.1-32.5-19.8-56.1c0-2.8,0-5.7-0.1-8.6
			c-0.2-8.9-0.5-18.2,2.6-25.6l0.4-0.9l0.9-0.1c18.6-1.4,48.3-16.4,56-45.3l1-3.7l1.8,3.4c0.3,0.5,25.4,48,56.9,48.6h1l0.3,1
			c3,8.4,2.9,18,2.8,27.3c0,1.3,0,2.5,0,3.8c-0.1,22.7-5.4,40.1-15.7,51.9c-10.1,11.5-25.3,17.8-45.2,18.9
			C502.9,356.1,501.6,356.2,500.3,356.2z M446.5,253.1c-2.5,6.7-2.2,15.2-2,23.5c0.1,2.9,0.2,5.9,0.1,8.7
			c-0.3,22.8,6.4,41.9,18.8,53.9c10.3,9.9,24.3,14.7,40.6,13.8c38.8-2.1,57.8-24.2,58-67.8c0-1.3,0-2.6,0-3.9
			c0.1-9,0.2-17.6-2.3-25.3c-28.2-1.4-50.4-36.1-56.7-47C493.5,238.2,464.1,251.4,446.5,253.1z"/>
		<path class="st8" d="M509.4,265.9c-24.1,4-55.7-8-61.6,0.3s-2.3,19.9,10.5,23.3s25.6,3.6,51.9,2.8s52-3.6,49.7-17.8
			S544.8,260,509.4,265.9z"/>
		<path d="M501.8,302.5L501.8,302.5c-0.8,0-1.5-0.7-1.5-1.5c0,0,0,0,0,0l0.5-32.4c0-0.8,0.7-1.5,1.5-1.5l0,0c0.8,0,1.5,0.7,1.5,1.5
			c0,0,0,0,0,0l-0.5,32.4C503.2,301.9,502.6,302.5,501.8,302.5z"/>
		<path class="st3" d="M473.3,170.1c-0.4,0-0.7-0.1-1-0.2c-1.2-0.6-1.8-2.1-1.2-3.3c0.3-0.7,8.5-18,31-19.1c1.4-0.1,2.6,1,2.6,2.4
			s-1,2.6-2.4,2.6c-19.3,1-26.4,15.6-26.7,16.3C475.2,169.5,474.3,170.1,473.3,170.1z"/>
		<path d="M466.3,263.4c-3.5,0-6.9-0.8-10-2.4c-0.7-0.4-1-1.3-0.5-2.1c0.4-0.7,1.2-0.9,1.9-0.6c12.8,6.8,27.7-5.3,27.9-5.4
			c0.6-0.6,1.6-0.5,2.1,0.1c0.6,0.6,0.5,1.6-0.1,2.1c0,0-0.1,0.1-0.1,0.1C486.9,255.6,477.3,263.4,466.3,263.4z"/>
		<path d="M529.4,259.5c-5.3,0-14-1.7-21-11.3c-0.5-0.7-0.3-1.6,0.3-2.1c0.7-0.5,1.6-0.3,2.1,0.3c9.5,13.1,22,9.8,22.6,9.6
			c0.8-0.2,1.6,0.2,1.8,1c0.2,0.8-0.2,1.6-1,1.9C532.7,259.4,531,259.6,529.4,259.5z"/>
		<path class="st5" d="M290.5,544.5c-26.4-22.2-62.5-63.6-68.7-88.5s9.8-33.6,9.8-33.6l-8.4-17.5l53.4-41.6l8.1,10.3
			c0,0,25.3-7.7,37.6,12.5s25.7,47.7,34.5,58.4c32.7,39.9,33.7,89.9,13.7,118.9S304.1,555.9,290.5,544.5z"/>
		<path class="st6" d="M349.5,575.9c-20.7,0-46.1-18.7-59.9-30.3c-23.9-20.2-62.5-62.5-69.2-89.2c-5.4-21.6,5.6-31.8,9.3-34.5
			l-7.8-16.3c-0.3-0.6-0.1-1.4,0.4-1.8l53.4-41.6c0.7-0.5,1.6-0.4,2.1,0.3l7.5,9.5c5-1.2,26.9-5.2,38.3,13.5
			c4.8,7.9,9.7,16.8,14.5,25.4c7.5,13.6,14.6,26.4,19.9,32.9c34.6,42.2,33.2,92.6,13.8,120.7c-4.1,6.2-10.7,10.4-18.1,11.3
			C352.3,575.8,350.9,575.9,349.5,575.9z M225.1,405.3l7.9,16.4c0.4,0.7,0.1,1.6-0.6,2c-0.6,0.3-14.9,8.6-9.1,32
			c6.3,25,43.7,67,68.3,87.7c13.5,11.4,38.2,29.6,57.9,29.6c1.3,0,2.6-0.1,3.9-0.3c6.5-0.8,12.4-4.5,16-10
			c18.7-27.1,20-76-13.7-117.1c-5.5-6.7-12.7-19.6-20.2-33.4c-4.8-8.6-9.6-17.5-14.4-25.3c-11.6-19-34.9-12.2-35.9-11.9
			c-0.6,0.2-1.2,0-1.6-0.5l-7.2-9.1L225.1,405.3z"/>
		<path class="st9" d="M233.3,422.8c0,0,42.3-8.3,50.6-47.9l-7.7-10.4l-51.1,40.7L233.3,422.8z"/>
		<circle class="st10" cx="358" cy="491.8" r="5.7"/>
		<circle class="st10" cx="407" cy="408.8" r="5.7"/>
		<circle class="st10" cx="513" cy="464.8" r="5.7"/>
		<circle class="st10" cx="593" cy="408.8" r="5.7"/>
		<circle class="st10" cx="593" cy="535.8" r="5.7"/>
		<circle class="st10" cx="461" cy="566.8" r="5.7"/>
		<circle class="st10" cx="451" cy="483.8" r="5.7"/>
		<circle class="st10" cx="585" cy="481.8" r="5.7"/>
		<circle class="st10" cx="300" cy="506.8" r="5.7"/>
		<circle class="st10" cx="303.8" cy="425.3" r="5.7"/>
		<path class="st7" d="M139.1,343c0,0-2.2,56.1,81.9,54.8c0,0,45.5-2.7,58.5-28.9l-1.9-5.3c0,0,22.8-28.6,10.3-46.6
			c0,0-23.7,0.4-39,33.3c0,0-26.1-32.1-64.9-17.9c0,0-19.2-3.7-22.4,7C161.6,339.5,150.8,332.8,139.1,343z"/>
		<path d="M146.5,338.5c4.9-1.9,10.5-1.5,15.1,1c1-3.3,3.5-5.2,6.5-6.3c6.7-2.5,15.9-0.7,15.9-0.7c38.8-14.2,64.9,17.9,64.9,17.9
			c9.5-20.5,22.2-28.4,30.5-31.4c2.7-1.1,5.5-1.7,8.4-1.9c12.5,18-10.3,46.6-10.3,46.6l1.9,5.3c-5.6,11.4-17.4,18.3-28.9,22.5
			c-9.5,3.4-19.5,5.6-29.6,6.4c-84.1,1.4-81.9-54.8-81.9-54.8C141.3,341.1,143.8,339.6,146.5,338.5 M145.5,335.7
			c-3.1,1.2-5.9,2.9-8.4,5.1c-0.6,0.5-1,1.3-1,2.1c0.2,13.5,5.6,26.5,15.1,36.1c14.7,15,38.1,22.3,69.7,21.8h0.1
			c10.4-0.8,20.7-3,30.5-6.6c15.1-5.5,25.4-13.6,30.6-24c0.4-0.7,0.4-1.6,0.1-2.4l-1.3-3.7c4.6-6.2,21.5-31.4,9.4-48.9
			c-0.6-0.8-1.5-1.3-2.5-1.3c-3.2,0.2-6.4,0.9-9.4,2.1c-8.7,3.2-20.8,10.8-30.3,29c-4.7-4.6-9.9-8.5-15.6-11.7
			c-14.9-8.4-32.7-9.9-48.7-4.1c-2.6-0.4-10.4-1.3-16.7,1c-2.8,0.9-5.2,2.8-6.9,5.2C155.4,333.9,150.2,334,145.5,335.7L145.5,335.7z
			"/>
		<path d="M250.3,370.5L250.3,370.5c-0.9,0.2-1.7-0.2-2-1c-0.1-0.2-1.3-3.9-6.4-6.2c-5.6-2.5-16.5-3.4-37.1,6
			c-0.5,0.2-1.1,0.2-1.6-0.2c-0.2-0.2-23.6-18.8-42.3-28.3c-0.7-0.4-1-1.3-0.6-2c0.4-0.7,1.2-1,2-0.6c17.1,8.7,37.9,24.8,42.1,28
			c17-7.6,30.1-9.5,38.9-5.5c6.3,2.9,7.9,7.8,8,8C251.5,369.4,251.1,370.3,250.3,370.5z"/>
		<path d="M221.9,354.7c-0.6,0.2-1.2,0-1.6-0.4c-0.1-0.1-12.1-13.2-37.1-21.4c-0.8-0.3-1.2-1.1-1-1.9s1.1-1.2,1.9-1
			c25.8,8.5,37.9,21.7,38.4,22.3c0.6,0.6,0.5,1.6-0.1,2.1c0,0,0,0,0,0C222.3,354.6,222.1,354.7,221.9,354.7z"/>
		<path class="st3" d="M216.9,391.6l-0.3,0.1c-31.9,5.6-58.4-17.6-59.5-18.6c-0.8-0.7-0.9-2-0.2-2.8c0.7-0.8,2-0.9,2.8-0.2l0,0
			c0.3,0.2,26.2,22.9,56.1,17.6c1.1-0.2,2.1,0.4,2.4,1.5C218.4,390.3,217.8,391.4,216.9,391.6L216.9,391.6z"/>
		<path class="st5" d="M731.5,534.5c26.4-22.2,56-71.6,62.2-96.5s-9.8-33.6-9.8-33.6l8.4-17.5L739,345.3l-8.1,10.3
			c0,0-25.3-7.7-37.6,12.5s-25.7,47.7-34.5,58.4c-32.8,39.9-21.3,112.9-1.3,141.9S717.9,545.9,731.5,534.5z"/>
		<path class="st6" d="M672.7,578.7c-0.6,0-1.2,0-1.8-0.1c-5.8-0.5-10.8-3.7-14.7-9.3c-10.7-15.6-18.2-41.5-19.4-67.6
			c-1.5-31,5.9-58,20.7-76c5.3-6.5,12.4-19.3,19.9-32.9c4.8-8.6,9.7-17.5,14.5-25.4c11.4-18.7,33.3-14.6,38.3-13.5l7.5-9.5
			c0.5-0.6,1.4-0.8,2.1-0.3l53.3,41.6c0.6,0.4,0.7,1.2,0.4,1.8l-7.8,16.3c3.8,2.8,14.8,13,9.3,34.5c-6.4,25.4-36.6,75.2-62.7,97.2
			l-1-1.2l1,1.2c-2.4,2-5.6,5.3-9.4,9.1C709.6,558.4,689.5,578.7,672.7,578.7z M719.7,355.6c-7.9,0-18.5,2.4-25.1,13.3
			c-4.8,7.8-9.7,16.7-14.4,25.3c-7.6,13.7-14.7,26.6-20.2,33.4c-14.4,17.5-21.5,43.8-20.1,74c1.2,25.2,8.6,51.2,18.9,66.1
			c3.4,5,7.5,7.6,12.5,8c0.5,0,1,0.1,1.5,0.1c15.5,0,35.1-19.8,48.2-33.1c3.8-3.9,7.2-7.2,9.6-9.3c25.8-21.7,55.5-70.7,61.8-95.7
			c5.9-23.3-8.5-31.6-9.1-32c-0.7-0.4-1-1.3-0.6-2l7.9-16.4l-51.2-39.9l-7.2,9.2c-0.4,0.5-1,0.7-1.6,0.5
			C726.9,356.1,723.3,355.6,719.7,355.6L719.7,355.6z"/>
		<path class="st9" d="M782.2,404.8c0,0-42.3-8.3-50.6-47.9l7.7-10.4l51.2,40.7L782.2,404.8z"/>
		<circle class="st10" cx="657.5" cy="473.8" r="5.7"/>
		<circle class="st10" cx="715.5" cy="488.8" r="5.7"/>
		<circle class="st10" cx="711.7" cy="407.3" r="5.7"/>
		<path class="st7" d="M880.7,322.3c0,0,2.2,56.1-81.9,54.8c0,0-45.5-2.7-58.5-28.9l1.9-5.2c0,0-22.8-28.6-10.3-46.6
			c0,0,23.7,0.4,39,33.3c0,0,26-32.1,64.9-17.9c0,0,19.2-3.7,22.4,7C858.2,318.8,869,312,880.7,322.3z"/>
		<path d="M873.3,317.8c2.7,1,5.2,2.6,7.4,4.5c0,0,2.2,56.1-81.9,54.8c-10.1-0.8-20.1-3-29.6-6.4c-11.5-4.2-23.3-11.1-28.9-22.5
			l1.9-5.2c0,0-22.8-28.6-10.3-46.6c2.9,0.2,5.7,0.8,8.4,1.9c8.3,3,21,10.9,30.5,31.4c0,0,26-32.1,64.9-17.9c0,0,9.2-1.8,15.9,0.7
			c3,1.1,5.5,3,6.5,6.3C862.8,316.3,868.3,315.9,873.3,317.8 M874.3,314.9c-4.7-1.8-9.9-1.8-14.7-0.1c-1.7-2.4-4.1-4.3-6.9-5.2
			c-6.3-2.3-14.1-1.4-16.7-1c-16.1-5.8-33.9-4.4-48.7,4.1c-5.7,3.2-11,7.1-15.7,11.7c-9.5-18.2-21.6-25.8-30.3-29
			c-3-1.2-6.2-1.9-9.4-2.1c-1,0-1.9,0.5-2.5,1.3c-12.2,17.5,4.8,42.7,9.4,48.9l-1.4,3.7c-0.3,0.8-0.2,1.6,0.1,2.4
			c5.2,10.4,15.4,18.5,30.5,24c9.8,3.5,20.1,5.7,30.5,6.5h0.1c31.6,0.5,55-6.8,69.7-21.9c9.5-9.6,15-22.5,15.3-36
			c0-0.8-0.4-1.6-1-2.1C880.2,317.9,877.4,316.1,874.3,314.9L874.3,314.9z"/>
		<path d="M769.5,349.7L769.5,349.7c0.9,0.2,1.7-0.2,2-1c0.1-0.2,1.3-3.9,6.4-6.2c5.6-2.5,16.5-3.4,37.1,6c0.5,0.2,1.1,0.2,1.6-0.2
			c0.2-0.2,23.6-18.8,42.3-28.3c0.7-0.4,1-1.3,0.6-2c-0.4-0.7-1.2-1-2-0.6c-17.1,8.7-38,24.8-42.1,28c-17-7.6-30.1-9.5-38.9-5.5
			c-6.3,2.9-7.9,7.8-8,8C768.3,348.7,768.7,349.5,769.5,349.7z"/>
		<path d="M797.9,334c0.6,0.2,1.2,0,1.6-0.4c0.1-0.1,12.2-13.2,37.1-21.4c0.8-0.2,1.3-1,1.1-1.8s-1-1.3-1.8-1.1
			c-0.1,0-0.2,0-0.2,0.1c-25.8,8.5-37.9,21.7-38.4,22.3c-0.6,0.6-0.5,1.6,0.1,2.1c0,0,0,0,0,0C797.5,333.8,797.7,333.9,797.9,334z"
			/>
		<path class="st3" d="M802.9,370.9c0.1,0,0.2,0.1,0.3,0.1c31.9,5.6,58.4-17.6,59.5-18.6c0.8-0.7,0.9-2,0.2-2.8
			c-0.7-0.8-2-0.9-2.8-0.2c-0.3,0.2-26.2,22.9-56.1,17.6c-1.1-0.2-2.1,0.5-2.3,1.6C801.5,369.6,802,370.6,802.9,370.9L802.9,370.9z"
			/>
		<path d="M495.5,335h-0.2c-0.8-0.1-1.4-0.8-1.3-1.7c0.4-3.7-0.2-6.3-2-7.6c-3.6-2.6-11.3-0.1-13.9,1.1c-0.8,0.3-1.6,0-2-0.8
			s0-1.6,0.8-2c0.5-0.2,11.2-5,16.9-0.8c2.7,2,3.8,5.4,3.2,10.3C496.9,334.4,496.3,335,495.5,335z"/>
		<circle cx="471.5" cy="283.5" r="4"/>
		<circle cx="535" cy="284" r="4"/>
	</g>
	<path d="M277.7,240.5c-0.2,0-0.5,0-0.7-0.1c-25.9-10-49.1-27.4-69.1-51.7c-15.9-19.4-29.9-43.2-41.4-70.9
		C154.6,89.1,146,59,141,28.3c-0.1-1.1,0.6-2.1,1.7-2.3s2.1,0.6,2.3,1.7c0.1,0.4,5.9,42.2,25.2,88.7c17.8,42.7,51,98.3,108.2,120.3
		c1,0.4,1.6,1.5,1.2,2.6C279.3,240,278.5,240.6,277.7,240.5L277.7,240.5z"/>
	<path d="M226.9,237.9h-0.2c-25.1-2.7-49.4-17.9-70.3-44c-9.5-12-17.6-25-24.1-38.9c-0.4-1,0-2.2,1-2.6c1-0.4,2.2,0,2.6,1
		c0.3,0.8,33,74.3,91.2,80.5c1.1,0.1,2,1,1.9,2.1C228.9,237.1,228,238,226.9,237.9L226.9,237.9z"/>
	<path d="M37,340c-1.1,0-2-0.9-2-2c0-0.4,0.1-0.8,0.4-1.2c14.8-20.3,41.2-28.5,76.5-23.8c16.8,2.4,33.2,6.8,48.9,13.1
		c1,0.4,1.5,1.6,1,2.6c-0.4,1-1.6,1.5-2.6,1c-0.9-0.4-86.9-36.8-120.6,9.3C38.2,339.7,37.6,340,37,340z"/>
	<path d="M178,304c-0.6,0-1.1-0.2-1.5-0.7l0,0c-0.3-0.3-25.1-27.1-77.3-21.3c-1.1,0.1-2.1-0.7-2.2-1.8s0.7-2.1,1.8-2.2
		c54.4-6,79.7,21.5,80.7,22.7c0.7,0.8,0.7,2.1-0.1,2.8C179,303.8,178.5,304,178,304z"/>
	<path class="st3" d="M684.5,551.5c-2.2,0-4-1.8-4-4c0-1.4,0.7-2.6,1.8-3.4c96.3-61.7,82.5-112,82.3-112.5c-0.6-2.1,0.6-4.3,2.7-5
		s4.3,0.6,5,2.7c0.2,0.6,4.3,14.9-4.6,37.1c-11.6,29-38.9,57.4-81,84.4C686,551.3,685.3,551.5,684.5,551.5z"/>
	<path d="M940,315c-0.5,0-1.1-0.2-1.5-0.6c-15.7-16.5-36.5-23.5-61.8-20.8c-11.7,1.3-23.1,4.4-33.8,9.2c-1,0.6-2.2,0.2-2.7-0.7
		c-0.6-1-0.2-2.2,0.7-2.7c0.1,0,0.2-0.1,0.3-0.1c11.1-5,22.9-8.3,35-9.6c26.3-2.9,48.9,4.8,65.3,22c0.8,0.8,0.7,2.1-0.1,2.8
		C940.9,314.8,940.5,315,940,315z"/>
	<path d="M793,293c-1.1,0-2-0.9-2-2c0-0.4,0.1-0.8,0.4-1.1c0.3-0.5,8.4-12,24.9-21.6c15.2-8.9,40.5-17.6,75.2-9.2
		c1.1,0.3,1.7,1.3,1.5,2.4c-0.3,1.1-1.3,1.7-2.4,1.5c-33.4-8.1-57.6,0.3-72.1,8.7c-15.7,9.2-23.7,20.4-23.8,20.5
		C794.3,292.7,793.7,293,793,293z"/>
</g>
</svg>
