<?xml version="1.0" encoding="utf-8"?>
<!-- Generator: Adobe Illustrator 24.1.2, SVG Export Plug-In . SVG Version: 6.00 Build 0)  -->
<svg version="1.1" id="to_add_1_" xmlns="http://www.w3.org/2000/svg" xmlns:xlink="http://www.w3.org/1999/xlink" x="0px" y="0px"
	 viewBox="0 0 1000 1000" style="enable-background:new 0 0 1000 1000;" xml:space="preserve">
<style type="text/css">
	.st0{fill:#FFAD00;}
	.st1{fill:#E89D00;}
	.st2{fill:#FFCDB2;}
	.st3{fill:#FFFFFF;}
	.st4{fill:#FFC140;}
	.st5{fill:#6C32AD;}
	.st6{fill:#D9CFFF;}
	.st7{fill:#59298F;}
	.st8{fill:none;}
	.st9{fill:#FFB49F;}
</style>
<g id="line">
	<path d="M910.4,924.8L910.4,924.8l-745-3.5c-1.1,0-2-0.9-2-2s0.9-2,2-2l0,0l745,3.5c1.1,0,2,0.9,2,2S911.5,924.8,910.4,924.8z"/>
	<path d="M184.2,940.5H74.4c-0.8,0-1.5-0.7-1.5-1.5s0.7-1.5,1.5-1.5h109.8c0.8,0,1.5,0.7,1.5,1.5S185,940.5,184.2,940.5z"/>
	<path d="M984.8,895.4H875c-0.8,0-1.5-0.7-1.5-1.5s0.7-1.5,1.5-1.5l0,0h109.8c0.8,0,1.5,0.7,1.5,1.5S985.6,895.4,984.8,895.4z"/>
</g>
<g id="woman">
	<path class="st0" d="M376.7,466.1c50.3-13.9,358.3,41.8,378.3,69.7c19.9,27.9-131.3,380.7-163.5,380.7c-36.7,0-299.7,0-354.2,1.2
		c-47.8,1-82.8-128.8-67.1-159s132-274,170.8-278.6S376.7,466.1,376.7,466.1z"/>
	<path d="M236.7,919.1c-14,0-28-10.7-40.5-30.9c-24.2-38.9-38.8-108.4-27.3-130.3c1.9-3.7,5.2-10.3,9.8-19.6
		c54.6-109.7,130.9-256.1,162.1-259.8c24.9-3,31.8-7.8,33.7-10.4c0.4-0.5,0.7-1.1,0.6-1.7c-0.2-0.4-0.2-0.8,0-1.1
		c0.2-0.4,0.6-0.6,1-0.7c26.5-7.3,120.1,4.3,201.2,19.1c75.4,13.8,167.5,35.4,178.7,51.1c9,12.7-14.5,81.4-29.4,121.2
		c-22.9,61.4-53.9,132.1-80.8,184.4c-26.4,51.4-44.7,77.5-54.4,77.5c-70.3,0-303.6,0.1-354.1,1.2L236.7,919.1z M378.2,467.3
		c-0.1,0.8-0.4,1.6-0.9,2.2c-3.4,5.5-15.9,9.6-36.1,12c-9.7,1.2-31.3,20.4-79.8,105.5c-31.8,55.9-63.2,118.9-80,152.7
		c-4.6,9.3-7.9,15.9-9.9,19.6c-10.1,19.4,1.5,86,27.2,127.4c8.5,13.6,22,29.8,38.5,29.5c50.6-1.1,283.9-1.2,354.2-1.2
		c3.8,0,16.5-7.4,51.7-75.9c26.9-52.2,57.8-122.7,80.7-184.1c24.6-65.8,35.7-110.1,29.8-118.4c-8.7-12.1-79.7-32.2-176.8-49.9
		C497.3,472.2,405.6,460.7,378.2,467.3z"/>
	<path class="st1" d="M697.8,572.2c0,0-329-6.3-339.5,4.2c-4.8,4.8-7.3,112.1-11.5,187.6c-5.1,91.7-75.4,153-75.4,153h132
		L697.8,572.2z"/>
	<path class="st0" d="M330.5,478.5C275,530.9,229.8,534,132,748.3c-38.9,85.1,0,136.2,27.3,151.9s143.5,38.8,173.9-33.5l29.3-1
		l8.4-82.8h-23.1c0,0-5.2-33.5-48.2-35.6s-91.2,21-100.6,24.1"/>
	<path d="M238.2,918.1c-33.7,0-66.2-8.7-79.8-16.5c-6.5-3.8-28.6-18.5-39.1-50.8c-9.8-30-5.9-65.6,11.2-103.1
		C209.5,574.9,254.4,539,297.8,504.3c10.3-8.2,20.9-16.7,31.7-26.9c0.6-0.6,1.6-0.5,2.1,0.1c0.5,0.6,0.5,1.5-0.1,2.1
		c-10.9,10.3-21.6,18.8-31.9,27.1c-43.1,34.5-87.8,70.2-166.3,242.3c-17,37.3-20.8,71.3-11.1,100.9c10.2,31.2,31.5,45.5,37.7,49.1
		c19.6,11.3,79.4,24.5,124.2,9.4c23.1-7.8,39.1-22,47.6-42.2c0.2-0.5,0.7-0.9,1.3-0.9l28-1l8.1-79.8h-21.4c-0.7,0-1.4-0.5-1.5-1.3
		c-0.2-1.3-5.6-32.3-46.8-34.4c-35.9-1.7-75.8,14.4-92.9,21.3c-3.3,1.3-5.6,2.3-7.2,2.8c-0.8,0.3-1.6-0.1-1.9-0.9s0.1-1.6,0.9-1.9
		c1.4-0.5,3.9-1.5,7-2.7c17.2-7,57.6-23.2,94.1-21.5c38.9,1.9,47.8,29.3,49.3,35.6h21.8c0.8,0,1.5,0.7,1.5,1.5c0,0,0,0.1,0,0.1
		l-8.3,82.8c-0.1,0.7-0.7,1.3-1.4,1.3l-28.4,1c-9,20.6-25.5,35.1-49.1,43C270.5,916.1,254.2,918.1,238.2,918.1z"/>
	<path class="st1" d="M329,872.7c0.4-24.4,14-68.2,20.3-87.4h19.5l-7.9,78.4l-27.8,1C331.9,867.5,330.5,870.2,329,872.7z"/>
	<path class="st2" d="M376.9,823.7c0,0,41.3,26.2,19.3,52.1s-54.6,3.8-53.8-26.9s24.9-42,36.6-53.4"/>
	<path d="M374.2,888.7c-3.4,0-6.7-0.6-9.9-1.9c-14.2-5.4-23.8-21-23.4-38c0.6-24.9,16.1-37.3,28.5-47.2c3.2-2.5,6.2-4.9,8.5-7.3
		c0.6-0.6,1.6-0.5,2.1,0.1c0.5,0.6,0.5,1.5,0,2c-2.5,2.5-5.5,4.9-8.8,7.5c-11.9,9.5-26.8,21.4-27.3,44.9
		c-0.4,15.7,8.5,30.1,21.5,35.1c10.5,4,21.4,0.7,29.7-9.2c4.8-5.7,6.8-11.9,5.8-18.4c-2.6-17.1-24.6-31.3-24.8-31.4
		c-0.7-0.5-0.9-1.4-0.4-2.1c0.4-0.7,1.3-0.9,2-0.4c1,0.6,23.4,15,26.2,33.5c1.1,7.4-1.1,14.4-6.5,20.8
		C390.8,884.6,382.6,888.7,374.2,888.7z"/>
	<path class="st2" d="M373.2,774.7c0,0,41.3,26.2,19.3,52.1s-54.6,3.8-53.8-26.9s24.9-42,36.6-53.4"/>
	<path d="M370.5,839.7c-3.4,0-6.7-0.7-9.9-1.9c-14.2-5.4-23.8-21-23.4-38c0.6-24.9,16.1-37.3,28.5-47.2c3.2-2.5,6.1-4.9,8.5-7.3
		c0.6-0.6,1.5-0.6,2.1-0.1c0.6,0.6,0.6,1.5,0.1,2.1c0,0,0,0-0.1,0.1c-2.5,2.5-5.5,4.9-8.8,7.5c-11.9,9.5-26.8,21.4-27.3,44.9
		c-0.4,15.7,8.5,30.1,21.5,35.1c10.5,4,21.4,0.7,29.7-9.2c4.8-5.7,6.8-11.9,5.8-18.4c-2.6-17.1-24.6-31.3-24.8-31.5
		c-0.7-0.5-0.9-1.4-0.4-2.1c0.4-0.7,1.3-0.9,2-0.4c1,0.6,23.4,15,26.2,33.5c1.1,7.4-1.1,14.4-6.5,20.8
		C387,835.6,378.9,839.7,370.5,839.7z"/>
	<path class="st2" d="M377.1,733.6c0,0,41.3,26.2,19.3,52.1s-54.6,3.8-53.8-26.9s16.3-29.9,31-33"/>
	<path d="M374.3,798.6c-3.4,0-6.7-0.7-9.9-1.9c-14.2-5.4-23.8-21-23.4-38c0.7-28.6,14.3-31.1,27.5-33.6c1.5-0.3,3.1-0.6,4.6-0.9
		c0.8-0.2,1.6,0.3,1.8,1.1c0.2,0.8-0.3,1.6-1.1,1.8c0,0-0.1,0-0.1,0c-1.6,0.3-3.2,0.6-4.7,0.9c-13.1,2.4-24.4,4.5-25.1,30.7
		c-0.4,15.7,8.5,30.1,21.5,35.1c10.5,4,21.4,0.7,29.7-9.2c4.9-5.7,6.8-11.9,5.8-18.4c-2.6-17.2-24.6-31.3-24.8-31.4
		c-0.7-0.5-0.9-1.4-0.4-2.1c0.4-0.7,1.3-0.9,2-0.4c1,0.6,23.4,15,26.2,33.5c1.1,7.4-1.1,14.4-6.5,20.8
		C390.9,794.5,382.8,798.6,374.3,798.6z"/>
	<path class="st3" d="M373.9,872.3L373.9,872.3c-0.3,0-28-1.4-28.5-34c0-0.8,0.6-1.5,1.5-1.5c0,0,0,0,0,0l0,0c0.8,0,1.5,0.7,1.5,1.5
		c0.5,29.7,24.5,31,25.6,31c0.8,0,1.5,0.7,1.5,1.5C375.4,871.7,374.7,872.3,373.9,872.3L373.9,872.3z"/>
	<path class="st3" d="M372.6,834.2c-0.1,0-0.2,0-0.3,0c-0.3,0-26.3-4.8-30-33.1c-0.1-0.8,0.5-1.6,1.3-1.7s1.6,0.5,1.7,1.3
		c3.4,26.1,26.5,30.4,27.5,30.5c0.8,0.1,1.4,0.8,1.4,1.6S373.5,834.3,372.6,834.2L372.6,834.2L372.6,834.2z"/>
	<path class="st3" d="M381.1,786.7c-0.6,0-31.8-0.3-35-31.3c-0.1-0.8,0.5-1.6,1.3-1.7c0.8-0.1,1.6,0.5,1.7,1.3
		c2.9,28.2,30.5,28.6,32,28.6l0,0c0.8,0,1.5,0.7,1.5,1.5S382,786.7,381.1,786.7z"/>
	<path class="st3" d="M411.2,450.2c0,0,65,61.8-27.2,51.3c0,0-18.9,30.4-51.3,13.6c-32.5-16.8-17.8-47.2,5.2-54.5
		C357.9,454.3,411.2,450.2,411.2,450.2z"/>
	<path d="M351.7,521.7c-6.9-0.1-13.6-1.9-19.7-5.2c-13.6-7-20.5-17.2-19.6-28.7c1-12.4,11.3-24.2,25-28.5
		c19.9-6.3,71.5-10.4,73.7-10.5c0.4,0,0.8,0.1,1.1,0.4c1.2,1.1,28.9,27.8,21.4,43.9c-4.6,9.8-21,13.2-48.9,10.1
		C382.1,506.8,370.5,521.7,351.7,521.7z M410.7,451.7c-6.3,0.5-54,4.5-72.3,10.4c-12.4,3.9-22,14.8-23,25.9
		c-0.9,10.2,5.5,19.4,18,25.8c13,6.7,25.2,6.5,36.4-0.5c5.1-3.3,9.6-7.6,13-12.6c0.3-0.5,0.9-0.8,1.4-0.7c26.6,3,42.8,0.1,46.8-8.3
		C437.1,478.6,414.3,455.3,410.7,451.7L410.7,451.7z"/>
	<circle class="st4" cx="481" cy="507.5" r="7.4"/>
	<circle class="st4" cx="306" cy="550.5" r="7.4"/>
	<circle class="st4" cx="229.5" cy="656.3" r="7.4"/>
	<circle class="st4" cx="298.7" cy="702.4" r="7.4"/>
	<circle class="st4" cx="150.9" cy="742.2" r="7.4"/>
	<circle class="st4" cx="222.2" cy="861.7" r="7.4"/>
	<circle class="st4" cx="291.3" cy="804" r="7.4"/>
	<circle class="st4" cx="306" cy="873.2" r="7.4"/>
	<path class="st3" d="M199.6,787c-0.8,0-1.5-0.7-1.5-1.5c0-0.6,0.3-1.1,0.8-1.3c41.6-21,75.7-30,101.6-26.9
		c19.6,2.4,26.8,11.2,27.1,11.6c0.5,0.6,0.4,1.6-0.2,2.1c-0.6,0.5-1.6,0.4-2.1-0.2l0,0c-0.1-0.1-6.9-8.3-25.5-10.5
		c-17.3-2-48.7,1-99.5,26.6C200,786.9,199.8,787,199.6,787z"/>
	<path d="M205.9,688.5c-0.7,0-1.3-0.5-1.5-1.2c-9.8-47.9,3.9-116.6,17.1-165.7c8.7-32.5,19.2-64.6,31.2-96.1c0.3-0.8,1.1-1.2,1.9-1
		s1.2,1.1,1,1.9c0,0.1,0,0.1-0.1,0.2c-0.7,1.7-66.7,169.4-48.1,260.1c0.2,0.8-0.4,1.6-1.2,1.8c0,0,0,0,0,0L205.9,688.5z"/>
	<path d="M180.7,699c-0.5,0-0.9-0.2-1.2-0.6c-20-26.3-22.2-105.4-22.3-108.8c0-0.8,0.6-1.5,1.4-1.5c0,0,0,0,0,0l0,0
		c0.8,0,1.5,0.6,1.5,1.5c0,0.8,2.3,81.5,21.7,107.1c0.5,0.7,0.4,1.6-0.3,2.1C181.3,698.9,181,699,180.7,699z"/>
</g>
<g id="computer">
	<rect x="377.7" y="585.9" class="st5" width="408.2" height="331.1"/>
	<path d="M785.9,585.9V917H377.7V585.9H785.9 M785.9,582.9H377.7c-1.7,0-3,1.3-3,3V917c0,1.7,1.3,3,3,3h408.2c1.7,0,3-1.3,3-3V585.9
		C788.9,584.2,787.6,582.9,785.9,582.9z"/>
	<rect x="403.7" y="615.6" class="st6" width="357.4" height="265.6"/>
	<path d="M761.1,615.6v265.6H403.7V615.6H761.1 M761.1,612.6H403.7c-1.7,0-3,1.3-3,3v265.6c0,1.7,1.3,3,3,3h357.4c1.7,0,3-1.3,3-3
		V615.6C764.1,613.9,762.7,612.6,761.1,612.6z"/>
	<path d="M707.1,711.1H561.8c-0.8,0-1.5-0.7-1.5-1.5s0.7-1.5,1.5-1.5h145.2c0.8,0,1.5,0.7,1.5,1.5S707.9,711.1,707.1,711.1z"/>
	<path d="M703.3,748.4H561.8c-0.8,0-1.5-0.7-1.5-1.5s0.7-1.5,1.5-1.5h141.4c0.8,0,1.5,0.7,1.5,1.5S704.1,748.4,703.3,748.4z"/>
	<path class="st7" d="M787.3,917H389.9c-20.3,0-36.8-16.5-36.8-36.8c0,0,0,0,0,0l0,0l0,0h471.1l0,0l0,0
		C824.1,900.5,807.7,917,787.3,917C787.3,917,787.3,917,787.3,917z"/>
	<path d="M824.1,880.2c0,20.3-16.5,36.8-36.8,36.8c0,0,0,0,0,0H389.9c-20.3,0-36.8-16.5-36.8-36.8c0,0,0,0,0,0H824.1 M827.1,877.2
		h-477v3c0,22,17.8,39.8,39.8,39.8h397.4c22,0,39.8-17.9,39.8-39.8V877.2z"/>
	<path d="M622,779.9h-60.2c-0.8,0-1.5-0.7-1.5-1.5s0.7-1.5,1.5-1.5H622c0.8,0,1.5,0.7,1.5,1.5S622.9,779.9,622,779.9z"/>
	<path class="st0" d="M460.7,694.3h57.5c13.7,0,24.9,11.1,24.9,24.9v50.2c0,13.7-11.1,24.9-24.9,24.9h-57.5
		c-13.7,0-24.9-11.1-24.9-24.9v-50.2C435.8,705.5,446.9,694.3,460.7,694.3z"/>
	<path d="M518.2,795.8h-57.5c-14.6,0-26.4-11.8-26.4-26.4v-50.2c0-14.6,11.8-26.4,26.4-26.4h57.5c14.6,0,26.4,11.8,26.4,26.4v50.2
		C544.6,784,532.8,795.8,518.2,795.8z M460.6,695.8c-12.9,0-23.4,10.5-23.4,23.4v50.2c0,12.9,10.5,23.4,23.4,23.4h57.5
		c12.9,0,23.4-10.5,23.4-23.4v-50.2c0-12.9-10.5-23.4-23.4-23.4L460.6,695.8z"/>
	<path class="st3" d="M489.8,774.3h-0.2c-1.2-0.1-2.3-0.7-2.9-1.8l-27.2-49.3c-1-1.7-0.5-3.8,1.2-4.8c1.7-1,3.8-0.5,4.8,1.2
		c0,0.1,0.1,0.1,0.1,0.2l24.6,44.4l19.9-27.3c1.1-1.6,3.3-1.9,4.9-0.8c1.6,1.1,1.9,3.3,0.8,4.9l-23.1,31.7
		C492,773.8,491,774.3,489.8,774.3z"/>
	<path d="M352.6,591c-0.8,0-1.5-0.6-1.5-1.5c-0.3-13.1,3.4-22.7,11.1-28.6c14.9-11.5,39-4.6,40.1-4.3c0.8,0.2,1.3,1.1,1,1.9
		c-0.2,0.8-1.1,1.3-1.9,1c-0.2-0.1-23.7-6.7-37.4,3.8c-6.9,5.3-10.2,14.1-9.9,26.2C354.1,590.3,353.4,591,352.6,591
		C352.6,591,352.6,591,352.6,591L352.6,591z"/>
	<path class="st3" d="M407,600.5c-0.8,0-1.5-0.7-1.5-1.5c0-0.8,0.7-1.5,1.5-1.5l133.1-1l0,0c0.8,0,1.5,0.7,1.5,1.5v0
		c0,0.8-0.7,1.5-1.5,1.5L407,600.5L407,600.5z"/>
	<path class="st3" d="M792.7,900.2H641.8c-0.8,0-1.5-0.7-1.5-1.5s0.7-1.5,1.5-1.5h150.9c0.8,0,1.5,0.7,1.5,1.5
		S793.5,900.2,792.7,900.2z"/>
	<path d="M424.9,722L424.9,722c-0.8,0-1.5-0.7-1.5-1.5c0,0,0,0,0,0c0.4-18.8,5.4-31.8,15.1-38.6c12.6-8.9,28.1-3.9,28.8-3.6
		c0.8,0.2,1.3,1,1.1,1.8s-1,1.3-1.8,1.1c-0.1,0-0.1,0-0.2-0.1c-0.1,0-14.8-4.8-26.1,3.3c-8.8,6.2-13.5,18.4-13.8,36.2
		C426.4,721.4,425.7,722,424.9,722C424.9,722,424.9,722,424.9,722z"/>
	<path d="M531.7,806.9H494c-0.8,0-1.5-0.7-1.5-1.5s0.7-1.5,1.5-1.5h37.7c0.8,0,1.5,0.7,1.5,1.5S532.5,806.9,531.7,806.9L531.7,806.9
		z"/>
</g>
<g id="hand">
	<path class="st2" d="M705.7,668.2c0,0-103.6-52.1-91.2,17.9l-50.7,32.8c0,0-2.4,34.4,45.2,22.1c0,0,10.8,19.8,31.3,22.9
		c0,0,2.1,19.2,40.5,14.9s71.5-50.5,71.5-50.5L705.7,668.2z"/>
	<path d="M670.2,781c-10.9,0-19.3-2.3-25-6.8c-3-2.2-5.1-5.4-6.2-8.9c-17.9-3.2-28.2-18.4-30.8-22.5c-16.9,4.2-29.5,3-37.4-3.6
		c-9.3-7.7-8.6-19.8-8.5-20.3c0-0.5,0.3-0.9,0.7-1.2l49.8-32.3c-2.5-15.2,0.3-25.9,8.3-31.9c23.4-17.4,82.7,12,85.2,13.3
		c0.2,0.1,0.4,0.2,0.5,0.4l46.6,60.2c0.4,0.5,0.4,1.3,0,1.8c-1.4,1.9-34,46.8-72.5,51.1C677.3,780.8,673.8,781,670.2,781z
		 M609,739.6c0.5,0,1.1,0.3,1.3,0.8c0.1,0.2,10.7,19.2,30.2,22.1c0.7,0.1,1.2,0.6,1.3,1.3c0.1,0.7,2.6,17.6,38.8,13.6
		c34.3-3.8,64.9-42.5,69.8-49l-45.7-59c-4.6-2.3-60.6-29.2-81.7-13.4c-7.2,5.4-9.6,15.4-7,29.9c0.1,0.6-0.2,1.2-0.7,1.5l-50,32.4
		c0,2.6,0.6,11.4,7.5,17.1c7.3,6.1,19.4,7,35.8,2.7C608.8,739.6,608.9,739.6,609,739.6z"/>
	<path class="st0" d="M406.4,471.7c63.6-31.5,336.7-82.7,419.8-12.2s10.7,208.7-4.1,230.6s-46.4,15.3-46.4,15.3l-23.5,24l-68-70.1
		l12.2-12.8c0,0-61.1-12.7,17.5-106.8"/>
	<path d="M752.2,730.8L752.2,730.8c-0.4,0-0.8-0.2-1.1-0.5l-68-70.1c-0.6-0.6-0.6-1.5,0-2.1l10.5-11c-4.8-1.6-15.2-6.5-19.5-18.8
		c-7.1-20.3,5.9-50.5,38.7-89.7c0.6-0.6,1.5-0.6,2.1-0.1c0.6,0.5,0.6,1.4,0.2,2c-39.8,47.7-42.7,73.5-38.1,86.8
		c5,14.3,19.6,17.5,19.8,17.5c0.8,0.2,1.3,0.9,1.2,1.8c-0.1,0.3-0.2,0.5-0.4,0.7l-11.2,11.7l65.9,68l22.4-22.9
		c0.4-0.4,0.9-0.5,1.4-0.4c0.3,0.1,30.9,6.1,44.9-14.6c6.9-10.3,28.9-50,38.5-96.5c12.1-58.2,0.6-102.6-34.2-132.1
		c-47.7-40.5-155.9-37.3-216.1-31.8c-86.6,7.9-170.8,28.7-202.1,44.2c-0.7,0.4-1.6,0.1-2-0.7c-0.4-0.7-0.1-1.6,0.7-2l0,0
		c31.5-15.6,116.1-36.5,203.1-44.5c60.7-5.6,169.8-8.7,218.4,32.5c19.4,16.4,31.8,37.8,37,63.6c4.2,21.1,3.6,45.1-1.8,71.4
		c-9.8,47-32,87.2-39,97.6c-13.8,20.4-42,16.9-47.2,16l-23,23.4C752.9,730.7,752.6,730.8,752.2,730.8z"/>
	<path class="st1" d="M774.1,703.8l-0.3,0l-22.4,23.1l-65-67.8l11.6-12.3c-2.3-0.6-4.6-1.5-6.7-2.6l0,0
		C725.6,651,759.7,687.1,774.1,703.8z"/>
	<line class="st8" x1="632.4" y1="676.8" x2="614.5" y2="686.2"/>
	<path d="M614.5,687.7c-0.8,0-1.5-0.7-1.5-1.5c0-0.6,0.3-1.1,0.8-1.3l17.9-9.4c0.7-0.4,1.6-0.1,2,0.6c0.4,0.7,0.1,1.6-0.6,2
		l-17.9,9.4C615,687.6,614.8,687.7,614.5,687.7z"/>
	<path d="M609.1,742.1c-0.8,0-1.5-0.6-1.6-1.4c0-0.8,0.6-1.5,1.4-1.6c17.8-2.2,34.3-10.2,47-22.9c0.6-0.6,1.5-0.7,2.1-0.1
		s0.7,1.5,0.1,2.1c-0.7,0.8-18.5,20.4-48.9,23.9L609.1,742.1z"/>
	<path d="M639.5,765.2H639c-0.8,0-1.5-0.7-1.5-1.5s0.7-1.5,1.5-1.5h0.4c22.4,0,42.5-20.4,42.7-20.6c0.6-0.6,1.5-0.7,2.1-0.1
		c0.6,0.6,0.7,1.5,0.1,2.1c0,0,0,0-0.1,0.1C683.4,744.6,663.1,765.2,639.5,765.2z"/>
	<circle class="st4" cx="571.3" cy="460.9" r="7.4"/>
	<circle class="st4" cx="623.3" cy="518.2" r="7.4"/>
	<circle class="st4" cx="748.6" cy="479.6" r="7.4"/>
	<circle class="st4" cx="828.1" cy="557" r="7.4"/>
	<circle class="st4" cx="795.5" cy="631.4" r="7.4"/>
	<path class="st3" d="M838.9,620.8c-0.2,0-0.3,0-0.5-0.1c-0.8-0.2-1.2-1.1-1-1.8c0,0,0,0,0,0c16.7-51.5,10.7-86.5,2.8-106.7
		c-8.6-21.9-21.4-31.8-21.5-31.9c-0.7-0.5-0.8-1.4-0.3-2.1c0.5-0.6,1.4-0.8,2.1-0.3c0.5,0.4,13.4,10.4,22.4,32.9
		c8.2,20.7,14.4,56.4-2.6,108.9C840.1,620.4,839.5,620.8,838.9,620.8z"/>
	<path class="st3" d="M665,774.9h-1.5c-0.8,0-1.5-0.7-1.5-1.5s0.7-1.5,1.5-1.5h1.5c46.9,0,59.9-30.2,60-30.5c0.3-0.8,1.2-1.1,2-0.8
		s1.1,1.2,0.8,2C727.6,742.8,713.9,774.9,665,774.9z"/>
	<path class="st3" d="M638.8,759.8c-2.5,0-5-0.5-7.4-1.5c-0.7-0.4-1-1.3-0.7-2c0.4-0.7,1.2-1,1.9-0.7c15.6,7.1,43.4-18.4,43.7-18.6
		c0.7-0.5,1.6-0.3,2.1,0.4c0.4,0.6,0.3,1.3-0.1,1.8C677.4,740.1,655.9,759.8,638.8,759.8z"/>
	<path class="st3" d="M591.9,737.1c-3.5,0-7-0.5-10.4-1.5c-0.8-0.2-1.3-1.1-1-1.9s1.1-1.3,1.9-1c0,0,0.1,0,0.1,0
		c23.1,7.5,62.6-18.5,63-18.8c0.7-0.5,1.6-0.4,2.1,0.3c0.5,0.7,0.4,1.6-0.3,2.1c-0.1,0-0.1,0.1-0.2,0.1
		C645.7,717.5,615.8,737.1,591.9,737.1z"/>
	<path d="M898,529.7c-0.1,0-0.2,0-0.3,0c-0.8-0.1-1.3-0.9-1.2-1.7c0,0,0,0,0,0c7.6-38.8-0.5-69.1-24.2-90.1
		c-11-9.6-24-16.5-38.1-20.1c-0.8-0.2-1.3-1-1.2-1.8c0.2-0.8,1-1.3,1.8-1.2l0,0c14.6,3.7,28.1,10.8,39.4,20.7
		c16.9,15,35,43.2,25.2,93C899.4,529.2,898.7,529.7,898,529.7z"/>
</g>
<g id="woman-2">
	<path class="st5" d="M461.9,357.1c0,0,37.5,22.9,48.2-7.6s32.9-96.3,80.9-84c48,12.3,52.7,21.5,72.4-7.3s142.9-14.4,111.9,78.4
		c-50.7,152.1-328,113.2-328,113.2l-3.5-36.5L461.9,357.1z"/>
	<path d="M701.6,244.8c41.1,0,95.5,26.5,73.7,91.7c-33.5,100.6-166.2,117.6-252.2,117.6c-44,0-75.8-4.5-75.8-4.5l-3.5-36.5l18-56.1
		c0,0,13.5,8.3,26.6,8.3c8.8,0,17.3-3.7,21.6-15.9c9.8-28,29.2-85.5,69.4-85.5c3.9,0,7.7,0.5,11.5,1.5c24.6,6.3,37.8,11.8,47.5,11.8
		c9.2,0,15.3-5,24.8-19C669.3,249.6,684.3,244.8,701.6,244.8 M701.6,241.8c-19.2,0-34.5,5.5-40.7,14.6
		c-9.3,13.6-14.5,17.7-22.4,17.7c-5.7,0-13.4-2.2-23.9-5.3c-6.5-1.9-13.8-4-22.9-6.3c-4-1-8.1-1.6-12.2-1.6
		c-18.2,0-34.4,11.1-48.2,32.9c-11.3,17.8-18.7,39.3-23.7,53.5l-0.4,1.2c-3.3,9.3-9.4,13.9-18.8,13.9c-12.1,0-24.9-7.7-25.1-7.8
		c-0.5-0.3-1-0.4-1.6-0.4c-0.4,0-0.7,0.1-1,0.2c-0.9,0.3-1.5,1-1.8,1.9l-18,56.1c-0.1,0.4-0.2,0.8-0.1,1.2l3.4,36.5
		c0.1,1.4,1.2,2.5,2.6,2.7c25.3,3.1,50.7,4.6,76.2,4.5c39.2,0,96.5-3.7,146.8-21.3c56.7-19.8,93.1-53,108.3-98.4
		c4.4-13.1,6-25.5,4.7-36.6c-1.1-10-4.7-19.5-10.6-27.6c-7.3-10.2-18.4-18.5-32-24C728,244.4,714.9,241.9,701.6,241.8L701.6,241.8z"
		/>
	<path class="st7" d="M716.8,410C579,371.5,463,426.6,463,426.6c-2.3,8-2.7,16.4-1.3,24.6C504.9,455.4,635.9,462.6,716.8,410z"/>
	<circle class="st5" cx="389.1" cy="272" r="39.6"/>
	<path d="M389.2,232.4c21.8,0,39.5,17.7,39.5,39.6s-17.7,39.5-39.6,39.5c-21.8,0-39.5-17.7-39.5-39.6c0-7.5,2.2-14.9,6.2-21.2
		C363,239.3,375.7,232.4,389.2,232.4 M389.2,229.4c-23.5,0-42.6,19-42.7,42.5c0,23.5,19,42.6,42.5,42.7c23.5,0,42.6-19,42.7-42.5
		c0-14.6-7.4-28.1-19.7-36C405.2,231.8,397.2,229.4,389.2,229.4L389.2,229.4z"/>
	<path class="st5" d="M486.6,405.5c0,0,29.8-21,20.6-46.7s-15.8-24.3-19.7-38.2S461,290.8,438.5,295c0,0-25.1-23.1-50.3-19.3
		s-35,14.7-43.9,33.1s-16.8,26.3-23.5,39s-18.6,49.4,30.8,82.3S486.6,405.5,486.6,405.5z"/>
	<path d="M394,275.2c23.1,0,44.5,19.7,44.5,19.7c2.4-0.4,4.9-0.7,7.4-0.7c19.9,0,38.2,13.9,41.7,26.3c3.9,13.9,10.6,12.4,19.7,38.2
		s-20.6,46.7-20.6,46.7s-51.8,34.8-98.1,34.8c-13.2,0-26-2.9-37-10.2c-49.3-32.9-37.5-69.5-30.8-82.3s14.6-20.6,23.5-39
		s18.7-29.3,43.9-33.1C390.1,275.4,392.1,275.3,394,275.2 M394,272.3c-2.1,0-4.2,0.2-6.2,0.5c-26.5,4-37,15.8-46.2,34.8
		c-4.1,8.4-8.8,16.4-14.2,24c-3.4,4.8-6.5,9.8-9.3,15c-5.7,10.9-7.8,23.3-6,35.5c3,19,15.7,36,37.7,50.7
		c10.6,7.1,23.6,10.7,38.6,10.7c24.4,0,50.3-9.6,67.6-17.6c11.1-5.1,21.9-11,32.1-17.7h0.1c5.5-4.1,10.3-8.9,14.4-14.4
		c8.9-11.9,11.4-24.3,7.3-35.8c-5.2-14.7-9.7-20.8-13.3-25.8c-2.8-3.8-4.8-6.6-6.4-12.2c-3.8-13.5-23.1-28.5-44.6-28.5
		c-2.2,0-4.3,0.2-6.5,0.5C434.6,287.7,415.2,272.3,394,272.3L394,272.3z"/>
	<path d="M392.3,369.1h-0.1c-17.6-1.6-33-20.3-33.6-21.1c-0.5-0.6-0.4-1.6,0.2-2.1c0.6-0.5,1.6-0.4,2.1,0.2
		c0.1,0.2,15.2,18.5,31.5,20c0.8,0,1.5,0.7,1.4,1.6S393.1,369.2,392.3,369.1L392.3,369.1L392.3,369.1z"/>
	<path class="st3" d="M391.9,357.7c-4,0-8-0.6-11.8-1.7c-0.8-0.3-1.2-1.1-1-1.9c0.2-0.7,1-1.2,1.7-1c33.4,9.1,47.3-24.3,47.9-25.7
		c0.3-0.8,1.2-1.1,2-0.8c0.8,0.3,1.1,1.2,0.8,2C431.4,328.9,419.5,357.7,391.9,357.7z"/>
	<path d="M350.1,234.4c-0.2,0-0.3,0-0.5-0.1c-0.8-0.3-1.2-1.1-0.9-1.9c0,0,0,0,0,0c3.2-9.1,8.6-15.5,16-18.9
		c12.9-6.1,27.2-1,27.8-0.8c0.8,0.3,1.1,1.2,0.8,2c-0.3,0.7-1.1,1-1.8,0.8c-0.1,0-13.8-4.9-25.6,0.7c-6.6,3.1-11.4,8.9-14.4,17.2
		C351.4,234,350.8,234.4,350.1,234.4z"/>
	<path class="st3" d="M363,261c-0.8,0-1.5-0.7-1.5-1.5c0-0.2,0.1-0.5,0.2-0.7c4.9-9,11.2-14.5,18.9-16.4c12.5-3,23.8,4.7,24.3,5.1
		c0.7,0.5,0.8,1.4,0.3,2.1c-0.5,0.6-1.4,0.8-2,0.4c-0.1-0.1-10.7-7.3-21.9-4.6c-6.8,1.6-12.5,6.6-17,14.9
		C364,260.7,363.5,261,363,261z"/>
	<path class="st2" d="M407.6,459.5v15.7c0,0-27.2,40.9-79.6,7.3c0,0,25.7-36.9,39.5-80.8c0,0-19.4-5.3-15.4-22.6
		s18.2-19.6,26.3-14.5c0,0,31.4,24.3,68-41.9c0,0,33.9,16,39.3,52.1s-3.8,77.2-31.9,87.8S407.6,459.5,407.6,459.5z"/>
	<path d="M446.4,322.7c0,0,33.9,16,39.3,52.1s-3.8,77.2-31.9,87.8c-6.7,2.6-13.8,3.9-21,4c-15.8,0-25.2-7.1-25.2-7.1v15.7
		c0,0-13.7,20.5-40.4,20.5c-10.9,0-24-3.5-39.3-13.2c0,0,25.7-36.9,39.5-80.8c0,0-19.4-5.3-15.4-22.6c2.8-12.1,10.6-16.9,17.8-16.9
		c3,0,6,0.8,8.5,2.4c4.4,2.9,9.6,4.5,14.9,4.4C405.8,369,425.2,360.9,446.4,322.7 M446.3,319.7c-1.1,0-2.1,0.6-2.6,1.5
		c-20.4,37-38.7,44.7-50.5,44.7c-4.6,0.1-9.2-1.2-13.1-3.7l-0.2-0.1c-3-1.9-6.5-2.9-10.1-2.9c-7.9,0-17.5,5-20.7,19.2
		c-1.9,8.3,0.6,15.5,7.3,20.9c2.2,1.8,4.7,3.2,7.3,4.3c-13.7,41.7-37.9,76.9-38.2,77.2c-0.9,1.4-0.6,3.2,0.8,4.2c0,0,0.1,0,0.1,0.1
		c14.2,9.1,28,13.7,40.9,13.7c27.9,0,42.3-21,42.9-21.9c0.3-0.5,0.5-1.1,0.5-1.7v-10.5c6.9,3.3,14.5,4.9,22.2,4.9
		c7.5-0.1,15-1.5,22-4.2c13.9-5.2,24.4-17.7,30.3-36.2c5.1-16.1,6.4-35.5,3.5-54.8c-2.3-15.5-10.1-29.8-22.6-41.4
		c-5.5-5.2-11.7-9.6-18.4-13C447.2,319.8,446.8,319.7,446.3,319.7L446.3,319.7z"/>
	<path d="M408.1,462.6c-0.2,0-0.3,0-0.5-0.1c-16-5.3-27.6-22.2-28.1-22.9c-0.5-0.7-0.3-1.6,0.4-2.1c0.7-0.5,1.6-0.3,2.1,0.4l0,0
		c0.1,0.2,11.5,16.7,26.6,21.7c0.8,0.3,1.2,1.1,0.9,1.9C409.4,462.2,408.8,462.6,408.1,462.6z"/>
	<path d="M367.9,393.6c-0.6,0-1.1-0.3-1.3-0.8c-3.6-6.7-4.2-12.2-1.9-16.2c3.3-5.8,11.4-6.1,11.8-6.2c0.8,0,1.5,0.6,1.6,1.4
		c0,0,0,0.1,0,0.1c0,0.8-0.6,1.5-1.4,1.6c-0.1,0-6.8,0.3-9.3,4.7c-1.8,3.1-1.1,7.5,2,13.3c0.4,0.7,0.1,1.7-0.6,2
		C368.4,393.6,368.2,393.7,367.9,393.6L367.9,393.6z"/>
	<path class="st9" d="M444.9,376.1c-20.3,1.5-45.8-10.7-51.3-4.3s-3.3,16.4,7,20.1s21,4.9,43,6.1s43.6,0.8,42.7-11.2
		S474.7,373.8,444.9,376.1z"/>
	<path d="M469.5,366.4c-0.4,0-0.9-0.2-1.1-0.5l0,0c-0.1-0.1-5.9-6.8-13.2-6.2c-0.8,0.1-1.5-0.6-1.6-1.4c-0.1-0.8,0.6-1.5,1.4-1.6
		c8.8-0.6,15.4,6.9,15.7,7.3c0.5,0.6,0.5,1.6-0.2,2.1C470.2,366.3,469.8,366.4,469.5,366.4L469.5,366.4z"/>
	<path d="M446.9,412.6c-0.7,0-1.3-0.5-1.5-1.2l-6.7-32.3c-0.2-0.8,0.4-1.6,1.2-1.8s1.6,0.4,1.8,1.2l6.7,32.3
		c0.2,0.8-0.4,1.6-1.2,1.8c0,0,0,0,0,0C447.1,412.6,447,412.6,446.9,412.6z"/>
	<circle class="st0" cx="359.5" cy="400.7" r="6.5"/>
	<path d="M359.5,394.2c3.6,0,6.5,2.9,6.5,6.5c0,3.6-2.9,6.5-6.5,6.5s-6.5-2.9-6.5-6.5c0-1.2,0.3-2.4,1-3.5
		C355.2,395.4,357.2,394.2,359.5,394.2 M359.5,391.2c-5.2,0-9.5,4.2-9.5,9.5s4.2,9.5,9.5,9.5c5.2,0,9.5-4.2,9.5-9.5
		c0-3.2-1.6-6.2-4.4-8C363,391.8,361.3,391.2,359.5,391.2z"/>
	<circle cx="411.4" cy="382.8" r="3.7"/>
	<circle cx="465" cy="386.5" r="3.7"/>
	<path d="M423.8,440c-3.1,0-6.2-0.6-9.1-1.8c-13.7-5.6-19.3-22.4-19.5-23.2c-0.2-0.8,0.3-1.6,1.1-1.8c0.7-0.2,1.5,0.2,1.8,0.9
		c0.1,0.2,5.4,16.2,17.8,21.3c6.5,2.7,13.9,1.9,22-2.3c0.7-0.4,1.6-0.2,2.1,0.5c0.4,0.7,0.2,1.6-0.5,2.1c0,0-0.1,0-0.1,0.1
		C434.5,438.4,429.2,439.9,423.8,440z"/>
	<path d="M431.6,357.5c-0.4,0-0.8-0.2-1.1-0.5l0,0c-1-1-4.2-3.8-6.4-3c-0.8,0.3-1.6-0.1-1.9-0.9c-0.3-0.8,0.1-1.6,0.9-1.9
		c4.4-1.5,9,3.2,9.5,3.8c0.6,0.6,0.6,1.5,0,2.1C432.3,357.3,432,357.5,431.6,357.5L431.6,357.5z"/>
	<path d="M714.1,329.1c-0.8,0-1.5-0.7-1.5-1.5c0-0.6,0.4-1.2,0.9-1.4c102.8-41.4,142.6-107.7,158-156c16.6-52.4,8.9-95.5,8.8-95.9
		c-0.2-0.8,0.4-1.6,1.2-1.7c0,0,0,0,0,0c0.8-0.2,1.6,0.4,1.8,1.2c0,0,0,0,0,0c0.1,0.4,8,44.2-8.8,97.3
		c-9.9,31.2-26.5,59.8-48.6,83.9c-27.9,30.6-65.3,55.5-111.2,74C714.5,329,714.3,329.1,714.1,329.1z"/>
	<path d="M707.8,298.7c-0.8,0-1.5-0.7-1.5-1.5c0-0.6,0.4-1.2,1-1.4c42.4-16.3,66.7-50.6,72-102.1c4-38.6-4.7-72.8-4.8-73.2
		c-0.3-0.8,0.2-1.6,1-1.9c0.8-0.3,1.6,0.2,1.9,1c0,0.1,0,0.1,0,0.2c0.1,0.3,8.9,35,4.9,74.1c-2.4,23-8.7,43.1-18.8,59.6
		c-12.6,20.7-31.2,35.9-55.2,45.1C708.2,298.7,708,298.7,707.8,298.7z"/>
	<path class="st3" d="M336.8,480c-0.8,0-1.5-0.7-1.5-1.5c0-0.4,0.1-0.7,0.4-1c14.3-16.4,28.9-51.6,29.1-52c0.3-0.8,1.2-1.1,2-0.8
		c0.8,0.3,1.1,1.2,0.8,2l0,0c-0.6,1.5-14.9,36-29.6,52.8C337.7,479.8,337.3,480,336.8,480z"/>
</g>
</svg>
