<?xml version="1.0" encoding="utf-8"?>
<!-- Generator: Adobe Illustrator 24.1.2, SVG Export Plug-In . SVG Version: 6.00 Build 0)  -->
<svg version="1.1" id="to_remove_1_" xmlns="http://www.w3.org/2000/svg" xmlns:xlink="http://www.w3.org/1999/xlink" x="0px"
	 y="0px" viewBox="0 0 1000 1000" style="enable-background:new 0 0 1000 1000;" xml:space="preserve">
<style type="text/css">
	.st0{fill:#6C32AD;}
	.st1{fill:#59298F;}
	.st2{fill:#FFAD00;}
	.st3{fill:#E89D00;}
	.st4{fill:#FFC140;}
	.st5{fill:#FFCDB2;}
	.st6{fill:#D9CFFF;}
	.st7{fill:none;}
	.st8{fill:#FFFFFF;}
	.st9{fill:#FFB49F;}
</style>
<g id="line">
	<path d="M921,901.1L921,901.1l-795-3.7c-1.1,0-2-0.9-2-2s0.9-2,2-2l0,0l795,3.7c1.1,0,2,0.9,2,2S922.1,901.1,921,901.1z"/>
	<path d="M146.1,917.9H29c-0.8,0-1.5-0.7-1.5-1.5s0.7-1.5,1.5-1.5h117.1c0.8,0,1.5,0.7,1.5,1.5S147,917.9,146.1,917.9z"/>
	<path d="M979.2,927.9H862c-0.8,0-1.5-0.7-1.5-1.5s0.7-1.5,1.5-1.5h117.2c0.8,0,1.5,0.7,1.5,1.5S980,927.9,979.2,927.9L979.2,927.9z
		"/>
</g>
<g id="woman">
	<path class="st0" d="M346.4,326.8c0,0-5.9,46.6-38.5,35s-84.7-26.4-106.6,21.8S169.1,465.9,132,463s-89,107,8.9,143.1
		c160.4,59.3,292.3-229.6,292.3-229.6l-28.1-27.2L346.4,326.8z"/>
	<path d="M346.4,326.8l58.7,22.4l28.1,27.2c0,0-108.4,237.7-248.4,237.7c-15,0-29.9-2.7-43.9-8C44.3,570.5,93.6,463,130.6,463
		c0.5,0,1,0,1.4,0.1c1.5,0.1,2.9,0.2,4.3,0.2c33.7,0,44.1-33.3,65.1-79.6c11.6-25.5,31.7-33.3,52.8-33.3c18.8,0,38.4,6.1,53.7,11.6
		c3.1,1.2,6.5,1.8,9.8,1.8C341.7,363.7,346.4,326.8,346.4,326.8 M346.4,323.8c-1.5,0-2.8,1.1-3,2.6c-0.1,0.5-4.7,34.3-25.7,34.3
		c-3,0-6-0.6-8.8-1.7c-16.4-5.8-35.8-11.7-54.7-11.7c-26.3,0-45,11.8-55.6,35.1c-2.4,5.3-4.7,10.4-6.9,15.4
		c-16.6,37.6-27.6,62.5-55.5,62.5c-1.3,0-2.6-0.1-4-0.2c-0.6,0-1.1-0.1-1.7-0.1c-9.8,0-20.2,6.3-29.4,17.8
		c-9.3,11.9-15.6,26-18.2,40.9c-3.3,18.2-0.8,35.7,7.2,50.5c9.5,17.7,26.2,31.1,49.7,39.8c14.4,5.4,29.6,8.2,45,8.2
		c32.6,0,66.1-12.7,99.6-37.7c26.6-19.9,53.4-47.6,79.4-82.3c44.3-59,71.8-118.8,72-119.4c0.5-1.2,0.3-2.5-0.6-3.4l-28.1-27.2
		c-0.3-0.3-0.6-0.5-1-0.6L347.5,324C347.1,323.9,346.8,323.8,346.4,323.8L346.4,323.8z"/>
	<path class="st1" d="M405.1,349.2l-58.7-22.4c0,0-2.9,23-16,32.6l17.6,23.6c0,0-41.4,17.9-48.1,48.1
		c-6.4,28.9-112,32.2-158.4,175.2c79.1,28.8,151.2-26.9,203.9-90.6c27-60.7,58.2-130.8,69.6-156.8L405.1,349.2z"/>
	<path class="st2" d="M390.7,411.2c53.7-14.9,349,64.1,370.3,93.8c21.3,29.8-106.8,386.8-141.1,386.8c-39.1,0-319.8,0-377.9,1.3
		c-51,1.1-88.3-137.5-71.6-169.7S311.3,431,352.7,426S390.7,411.2,390.7,411.2z"/>
	<path d="M241.4,894.5c-14.9,0-29.8-11.4-43.2-32.9c-25.8-41.5-41.3-115.6-29.1-139c2-3.9,5.6-11,10.5-20.9
		c58.3-117.1,139.6-273.2,172.9-277.2c26.7-3.2,34.1-8.4,36.1-11.1c0.8-1.1,0.7-1.8,0.7-1.8c-0.2-0.4-0.2-0.8,0-1.1
		c0.2-0.4,0.6-0.6,1-0.7c29.2-8.1,125,11.2,198.1,30.2c78.2,20.3,162.3,48,173.8,64.2C780,529,702.4,755.4,654.8,848
		c-15.7,30.5-27.1,45.3-34.9,45.3c-75,0-324,0.1-377.9,1.3L241.4,894.5z M392.2,412.3c-0.1,0.9-0.4,1.7-0.9,2.4
		c-2.5,4-11.3,9.5-38.4,12.8c-10.3,1.2-33.5,21.8-85.2,112.6c-34,59.7-67.4,126.9-85.4,163c-4.9,9.9-8.5,17-10.5,20.9
		c-10.8,20.8,1.6,91.8,29,136c9,14.4,23.2,31.5,40.6,31.5h0.6c54-1.2,302.9-1.3,378-1.3c3.7,0,12.7-5.7,32.3-43.7
		c23.7-46.1,54.5-124,78.5-198.5c25-77.8,36.2-132.3,29.1-142.3c-9.5-13.3-80.3-39.2-172.1-63C515.8,424.2,422.1,405.2,392.2,412.3z
		"/>
	<path class="st3" d="M733.4,524.4c0,0-351.1-6.7-362.3,4.5c-5.1,5.1-5.6,119.6-10.1,200.2c-5.4,97.8-82.8,163.3-82.8,163.3h140.9
		L733.4,524.4z"/>
	<path class="st2" d="M422.4,417.1c67.8-33.6,254.3-5.3,343,70s35.8,135.3,14.6,130.8"/>
	<path d="M782.3,619.6c-0.9,0-1.8-0.1-2.6-0.3c-0.8-0.2-1.3-1-1.2-1.8c0.2-0.8,1-1.3,1.8-1.2c7.6,1.6,20.3-6.1,27.8-21.3
		c4.5-9.3,8.6-24.6,2.3-45.1c-6.4-20.6-21.8-41.5-45.9-61.9c-40.6-34.4-105.7-61.9-178.6-75.4c-67.8-12.6-130.2-10.4-162.7,5.7
		c-0.7,0.4-1.6,0.1-2-0.7c-0.4-0.7-0.1-1.6,0.7-2l0,0c33.1-16.4,96.2-18.7,164.6-6c73.5,13.6,139.1,41.4,180,76.1
		c24.5,20.8,40.3,42.1,46.8,63.3c6.6,21.4,2.3,37.5-2.5,47.3C803.3,611.6,791.1,619.6,782.3,619.6z"/>
	<circle class="st4" cx="502" cy="455.3" r="7.9"/>
	<circle class="st4" cx="583.9" cy="430.2" r="7.9"/>
	<circle class="st4" cx="653.8" cy="466.8" r="7.9"/>
	<circle class="st4" cx="557.2" cy="499.4" r="7.9"/>
	<circle class="st4" cx="725.9" cy="500.3" r="7.9"/>
	<circle class="st4" cx="662.1" cy="524.9" r="7.9"/>
	<path d="M754.2,428.2c-0.3,0-0.7-0.1-0.9-0.3c-0.2-0.2-20.7-16.6-51.6-31.2c-28.5-13.4-72-28-117.2-21.1c-0.8,0.1-1.6-0.4-1.7-1.3
		c-0.1-0.8,0.4-1.6,1.3-1.7l0,0c46-7,90.1,7.8,119,21.4c31.3,14.7,52,31.3,52.2,31.5c0.6,0.5,0.7,1.5,0.2,2.1
		C755.2,428,754.7,428.2,754.2,428.2L754.2,428.2z"/>
	<path d="M63.2,561.3c-0.6,0-1.2-0.4-1.4-0.9c-14.9-36-15.9-65.5-3.2-87.8c17.5-30.5,55.4-36.1,55.8-36.2c0.8-0.1,1.6,0.5,1.7,1.3
		s-0.5,1.6-1.3,1.7c-0.4,0.1-36.9,5.5-53.6,34.7c-12.3,21.4-11.1,50,3.3,85.1c0.3,0.8,0,1.6-0.8,2c0,0,0,0,0,0
		C63.6,561.3,63.4,561.3,63.2,561.3z"/>
	<path d="M104.3,855.3c-0.5,0-1-0.3-1.3-0.7c-26.9-40.9-22.7-85.4-14.4-115.5c5.4-19.8,13.7-38.7,24.5-56.1c0.5-0.7,1.4-0.8,2.1-0.3
		c0.6,0.5,0.8,1.3,0.4,2c-10.7,17.2-18.8,35.8-24.1,55.3c-8.1,29.5-12.2,73.1,14.1,113c0.4,0.7,0.3,1.6-0.4,2.1
		C104.8,855.2,104.6,855.3,104.3,855.3z"/>
</g>
<g id="hand">
	<path class="st5" d="M810,561.5c1.3-35-1.9-61.5-21.2-61.8c-30.9-0.5-25.2,63.5-69.6,83.7c-25.4,11.6-45.7,46.8-36.4,73.9
		S808.5,603.4,810,561.5z"/>
	<path d="M692.3,664.2c-7,0-9.8-3.4-10.9-6.5c-9.8-28.7,12-64.3,37.2-75.8c22.4-10.2,31.7-31.7,39.9-50.7
		c7.7-17.8,14.3-33.1,30-33.1h0.4c4.8,0,9.5,1.9,12.8,5.5c8,8.4,11,26.3,9.8,57.9c-0.8,22.8-32.2,51.5-45.7,62.7
		c-25.4,21.3-53.4,37.2-69.5,39.6C695,664.1,693.6,664.2,692.3,664.2z M788.5,501.2c-13.7,0-19.7,13.8-27.2,31.3
		c-8.4,19.5-17.9,41.5-41.4,52.2c-24.1,11-45,44.8-35.6,72.1c1.3,3.7,5.2,5.1,11.6,4.1c15.7-2.3,43-18,68-38.9
		c27.4-22.9,44-45.5,44.6-60.5c0.8-20.7,0.4-45.8-9-55.7c-2.8-3-6.6-4.6-10.7-4.5L788.5,501.2z"/>
</g>
<g id="computer">
	<rect x="391.8" y="539" class="st0" width="435.6" height="353.3"/>
	<path d="M827.4,539v353.3H391.8V539H827.4 M827.4,536H391.8c-1.7,0-3,1.3-3,3v353.3c0,1.7,1.3,3,3,3h435.6c1.7,0,3-1.3,3-3V539
		C830.4,537.3,829,536,827.4,536z"/>
	<rect x="419.6" y="570.7" class="st6" width="381.3" height="283.4"/>
	<path d="M800.9,570.7v283.4H419.6V570.7H800.9 M800.9,567.7H419.6c-1.7,0-3,1.3-3,3v283.4c0,1.7,1.3,3,3,3h381.3c1.7,0,3-1.3,3-3
		V570.7C803.9,569,802.5,567.7,800.9,567.7z"/>
	<path class="st1" d="M828.9,892.3h-424c-21.7,0-39.3-17.6-39.3-39.3l0,0l0,0h502.6l0,0l0,0C868.2,874.7,850.6,892.3,828.9,892.3
		L828.9,892.3z"/>
	<path d="M868.2,853c0,21.7-17.6,39.3-39.3,39.3h-424c-21.7,0-39.3-17.6-39.3-39.3c0,0,0,0,0,0H868.2 M871.2,850H362.5v3
		c0,23.4,18.9,42.3,42.3,42.3h424.1c23.4,0,42.3-19,42.3-42.3V850z"/>
	<path class="st0" d="M669.3,658.1h61.4c14.7,0,26.6,11.9,26.6,26.6v53.6c0,14.7-11.9,26.6-26.6,26.6h-61.4
		c-14.7,0-26.6-11.9-26.6-26.6v-53.6C642.7,670,654.6,658.1,669.3,658.1z"/>
	<path d="M730.7,658.1c14.7,0,26.6,11.9,26.6,26.6v53.6c0,14.7-11.9,26.6-26.6,26.6h-61.4c-14.7,0-26.6-11.9-26.6-26.6v-53.6
		c0-14.7,11.9-26.6,26.6-26.6H730.7 M730.7,655.1h-61.4c-16.3,0-29.5,13.2-29.6,29.6v53.6c0,16.3,13.2,29.5,29.6,29.6h61.4
		c16.3,0,29.5-13.2,29.6-29.6v-53.6C760.2,668.3,747,655.1,730.7,655.1z"/>
	<line class="st7" x1="603.3" y1="663.7" x2="457.9" y2="663.7"/>
	<path d="M603.3,665.2H457.9c-0.8,0-1.5-0.7-1.5-1.5s0.7-1.5,1.5-1.5h145.4c0.8,0,1.5,0.7,1.5,1.5S604.1,665.2,603.3,665.2z"/>
	<line class="st7" x1="599.9" y1="702.9" x2="457.9" y2="699.5"/>
	<path d="M599.9,704.4L599.9,704.4l-142-3.4c-0.8,0-1.5-0.7-1.5-1.5s0.7-1.5,1.5-1.5l0,0l142,3.3c0.8,0,1.5,0.7,1.5,1.5
		S600.7,704.3,599.9,704.4L599.9,704.4z"/>
	<line class="st7" x1="603.3" y1="747.6" x2="509.4" y2="747.6"/>
	<path d="M603.3,749.1h-93.9c-0.8,0-1.5-0.7-1.5-1.5s0.7-1.5,1.5-1.5h93.9c0.8,0,1.5,0.7,1.5,1.5S604.1,749.1,603.3,749.1z"/>
	<path d="M358.4,559c-0.7,0-1.4-0.6-1.5-1.3c-2.4-17.2,0.7-29.8,9.2-37.4c14.1-12.7,37.5-7,38.5-6.7c0.8,0.2,1.3,1,1.1,1.8
		c-0.2,0.8-1,1.3-1.8,1.1c-0.2-0.1-22.9-5.5-35.8,6c-7.7,6.9-10.5,18.6-8.2,34.8c0.1,0.8-0.4,1.6-1.3,1.7c0,0,0,0,0,0L358.4,559z"/>
	<path class="st8" d="M423.1,554.5c-0.8,0-1.5-0.7-1.5-1.5s0.7-1.5,1.5-1.5l142-1.1l0,0c0.8,0,1.5,0.7,1.5,1.5s-0.7,1.5-1.5,1.5
		L423.1,554.5L423.1,554.5z"/>
	<path class="st8" d="M834.6,874.2h-161c-0.8,0-1.5-0.7-1.5-1.5s0.7-1.5,1.5-1.5h161c0.8,0,1.5,0.7,1.5,1.5S835.4,874.2,834.6,874.2
		z"/>
	<path d="M631.1,687.5L631.1,687.5c-0.8,0-1.5-0.7-1.5-1.5c0,0,0,0,0,0c0.4-20,5.8-33.9,16.1-41.1c13.4-9.5,29.9-4.1,30.6-3.9
		c0.8,0.2,1.3,1,1.1,1.8s-1,1.3-1.8,1.1c-0.1,0-0.1,0-0.2-0.1c-0.2,0-15.8-5.1-28,3.5C637.9,654,633,667,632.6,686
		C632.6,686.9,631.9,687.5,631.1,687.5z"/>
	<path class="st8" d="M670.4,751.1c-0.9,0-1.8-0.4-2.4-1c-1.4-1.3-1.5-3.5-0.1-4.9c0,0,0,0,0,0l63.7-67.1c1.3-1.4,3.5-1.6,4.9-0.3
		s1.6,3.5,0.3,4.9c-0.1,0.1-0.1,0.1-0.2,0.2L672.9,750C672.3,750.7,671.3,751.1,670.4,751.1z"/>
	<path class="st8" d="M734.1,751.1c-0.9,0-1.7-0.4-2.4-1L660.2,683c-1.5-1.2-1.7-3.4-0.5-4.9c1.2-1.5,3.4-1.7,4.9-0.5
		c0.2,0.1,0.3,0.3,0.4,0.4l71.6,67.1c1.4,1.3,1.5,3.5,0.2,4.9C736.1,750.8,735.1,751.2,734.1,751.1L734.1,751.1z"/>
	<line class="st7" x1="754.2" y1="783.4" x2="702.8" y2="783.4"/>
	<path d="M754.2,784.9h-51.4c-0.8,0-1.5-0.7-1.5-1.5s0.7-1.5,1.5-1.5h51.4c0.8,0,1.5,0.7,1.5,1.5S755.1,784.9,754.2,784.9z"/>
</g>
<g id="hand-2">
	<path class="st2" d="M341.5,424.4c-59.3,55.9-140,57.1-211.9,287.9c-29.7,95.3,2.3,141.9,29.1,162.1
		c36.5,27.5,225.5,35.3,230.3-35.8l31.3-1.1l8.9-88.3h-24.6c0,0-10.6-38.3-56.3-43c-77.1-7.8-137.1,27.3-147.2,30.7"/>
	<path d="M262.5,895.8c-45.4,0-89-8.4-104.7-20.2c-24.4-18.4-60.7-64.1-29.6-163.8c24.8-79.7,52.9-139.1,85.8-181.6
		c28.8-37.2,57.8-56.9,83.3-74.2c15.3-10.4,29.8-20.2,43.2-32.8c0.6-0.6,1.6-0.5,2.1,0.1c0.5,0.6,0.5,1.5-0.1,2.1
		c-13.5,12.8-28.1,22.7-43.5,33.1c-52.7,35.8-112.5,76.3-168,254.2c-30.5,98,4.8,142.6,28.5,160.5c13.2,9.9,47.1,17.5,86.3,19.2
		c43.6,1.9,83.3-3.7,108.9-15.4c20.6-9.4,31.6-22.4,32.7-38.5c0.1-0.8,0.7-1.4,1.5-1.4l30-1.1l8.6-85.4h-22.9
		c-0.7,0-1.3-0.4-1.4-1.1c-0.1-0.4-11-37.4-55-41.9c-65.4-6.6-118.8,18-138.9,27.2c-3.6,1.7-6.2,2.8-7.7,3.4c-0.8,0.3-1.6-0.2-1.9-1
		c-0.3-0.8,0.2-1.6,0.9-1.9c1.4-0.5,3.9-1.6,7.4-3.2c20.3-9.4,74.2-34.2,140.4-27.5c41.8,4.2,55,36.5,57.2,43h23.5
		c0.4,0,0.8,0.2,1.1,0.5c0.3,0.3,0.4,0.7,0.4,1.2l-9,88.3c-0.1,0.7-0.7,1.3-1.4,1.3l-30,1.1c-1.7,16.7-13.2,30-34.4,39.7
		C331.1,891.1,296.3,895.8,262.5,895.8z"/>
	<path class="st3" d="M383.4,844.8c0.5-26,14.9-72.8,21.6-93.3h20.9l-8.5,83.7l-29.6,1.1C386.5,839.2,385.1,842.1,383.4,844.8z"/>
	<circle class="st4" cx="315.3" cy="501.2" r="7.9"/>
	<circle class="st4" cx="233.6" cy="614.1" r="7.9"/>
	<circle class="st4" cx="307.5" cy="663.3" r="7.9"/>
	<circle class="st4" cx="149.8" cy="705.8" r="7.9"/>
	<circle class="st4" cx="225.8" cy="833.3" r="7.9"/>
	<circle class="st4" cx="299.6" cy="771.8" r="7.9"/>
	<circle class="st4" cx="315.3" cy="845.6" r="7.9"/>
	<path class="st8" d="M201.7,753.5c-0.8,0-1.5-0.7-1.5-1.5c0-0.6,0.3-1.1,0.8-1.3c55.2-27.9,89.4-31,108.3-28.7
		c20.9,2.6,28.5,11.9,28.8,12.3c0.5,0.6,0.5,1.6-0.2,2.1c-0.6,0.5-1.6,0.5-2.1-0.2c0,0-0.1-0.1-0.1-0.1c-0.1-0.1-7.4-8.9-27.2-11.2
		c-18.5-2.2-52,1-106.2,28.4C202.2,753.4,201.9,753.5,201.7,753.5z"/>
	<path class="st5" d="M428.9,749.8c0,0,36.6-108,75.4-42.8l63.8-8.9c0,0,25.9,26.1-21,49.4c0,0,5.1,23.5-9.3,40.3
		c0,0,11.7,17-22.3,40.3s-92.9,9.2-92.9,9.2L428.9,749.8z"/>
	<path d="M462,843.1c-13.4,0-26.7-1.5-39.7-4.4c-0.7-0.2-1.2-0.8-1.1-1.6l6.3-87.5c0-0.1,0-0.3,0.1-0.4c0.9-2.5,21.2-61.8,48.5-64.7
		c10.3-1.1,20,5.9,29,20.7l62.8-8.7c0.5-0.1,0.9,0.1,1.3,0.4c0.4,0.4,9.4,9.6,7.3,22.3c-1.8,10.8-11.1,20.6-27.7,29
		c0.8,5,3.2,24.5-9.1,39.7c2.1,4.2,7.3,20.4-23.3,41.3C500.6,840.1,479.9,843.1,462,843.1z M424.2,836.1c8.6,1.8,60.2,11.6,90.5-9.2
		c32.1-22.1,22.3-37.5,21.9-38.2c-0.4-0.6-0.3-1.3,0.1-1.8c13.7-16.1,9-38.8,8.9-39c-0.1-0.7,0.2-1.4,0.8-1.7
		c16.3-8,25.4-17.2,27-27.3c1.6-9.5-4.2-17.1-6-19.2l-63,8.8c-0.6,0.1-1.2-0.2-1.5-0.7c-8.5-14.3-17.5-21.1-26.7-20.1
		c-24.7,2.6-44.7,58.8-46,62.5L424.2,836.1z"/>
	<line class="st7" x1="483.3" y1="712" x2="504.3" y2="707.1"/>
	<path d="M483.3,713.5c-0.8,0.1-1.6-0.5-1.7-1.3c-0.1-0.8,0.5-1.6,1.3-1.7l21-4.9c0.8-0.2,1.6,0.4,1.8,1.2c0.2,0.8-0.3,1.5-1.1,1.7
		l-21,4.9C483.5,713.4,483.4,713.5,483.3,713.5z"/>
	<path d="M498.2,763.6c-2.3,0-4.5-0.1-6.8-0.3c-0.8-0.1-1.4-0.9-1.3-1.7s0.9-1.4,1.7-1.3c0.3,0,28,3.4,54-14.3
		c0.6-0.5,1.6-0.4,2.1,0.2c0.5,0.6,0.4,1.6-0.2,2.1c-0.1,0-0.1,0.1-0.2,0.1C532.9,758.3,515.7,763.6,498.2,763.6z"/>
	<path d="M493.7,802.3c-3.2,0-5.3-0.2-5.6-0.2c-0.8-0.1-1.4-0.8-1.4-1.6c0,0,0,0,0,0c0.1-0.8,0.8-1.4,1.6-1.4
		c0.3,0,31.3,2.5,49.3-13.5c0.6-0.6,1.6-0.5,2.1,0.1s0.5,1.6-0.1,2.1l0,0C525.3,800.6,503.8,802.3,493.7,802.3z"/>
	<path class="st8" d="M473.4,835.6c-12.8,0-20.8-4-21.1-4.1c-0.7-0.4-1-1.3-0.7-2c0.4-0.7,1.3-1,2-0.7c0.4,0.2,32.7,15.8,71-18.2
		c0.6-0.6,1.6-0.5,2.1,0.1s0.5,1.6-0.1,2.1l0,0c-20.8,18.5-39.9,22.6-52.2,22.8L473.4,835.6z"/>
	<path class="st8" d="M492.2,794.4c-1.4,0-2.3,0-2.5,0c-0.8,0-1.5-0.7-1.5-1.5c0,0,0,0,0,0c0-0.8,0.7-1.5,1.5-1.5c0,0,0,0,0.1,0
		c0.4,0,40.7,1.2,48.3-15.5c0.3-0.8,1.2-1.2,1.9-0.9s1.2,1.2,0.9,1.9c0,0.1-0.1,0.1-0.1,0.2C533.4,793.2,501.5,794.4,492.2,794.4z"
		/>
	<path class="st8" d="M498.9,754.2c-0.8,0.1-1.5-0.6-1.6-1.4c-0.1-0.8,0.6-1.5,1.4-1.6c0.5-0.1,50.6-6.6,64-28.8
		c0.4-0.7,1.4-0.9,2.1-0.5s0.9,1.4,0.5,2.1c-14.2,23.5-64.1,30-66.2,30.3L498.9,754.2z"/>
</g>
<g id="woman-2">
	<circle class="st0" cx="404" cy="204" r="42.2"/>
	<path d="M404,161.8c23.3,0,42.2,18.9,42.2,42.2c0,23.3-18.9,42.2-42.2,42.2c-23.3,0-42.2-18.9-42.2-42.2c0-8,2.3-15.9,6.6-22.7
		C376.1,169.1,389.6,161.8,404,161.8 M404,158.8c-25,0-45.2,20.2-45.3,45.2s20.2,45.2,45.2,45.3c25,0,45.2-20.2,45.3-45.2
		c0-15.5-7.9-29.8-20.9-38.2C421,161.3,412.6,158.8,404,158.8z"/>
	<path class="st0" d="M508,346.5c0,0,31.8-22.4,22-49.9s-16.8-25.9-21-40.7c-4.2-14.8-28.3-31.7-52.4-27.4c0,0-26.8-24.7-53.6-20.6
		s-37.3,15.6-46.9,35.4s-17.9,28-25.1,41.7s-19.8,52.7,32.8,87.8S508,346.5,508,346.5z"/>
	<path d="M409.2,207.5c24.7,0,47.5,21,47.5,21c2.6-0.5,5.2-0.7,7.9-0.7c21.2,0,40.7,14.9,44.5,28.1c4.2,14.8,11.3,13.3,21,40.7
		s-22,49.9-22,49.9s-55.3,37.1-104.6,37.1c-14.1,0-27.8-3-39.5-10.9c-52.6-35.1-40-74.1-32.8-87.8s15.5-22,25.1-41.7
		s20-31.3,46.9-35.4C405,207.6,407.1,207.5,409.2,207.5 M409.1,204.5c-2.2,0-4.4,0.2-6.6,0.5c-28.1,4.3-39.3,16.8-49.1,37
		c-4.4,8.9-9.4,17.5-15.1,25.6c-3.6,5.1-6.9,10.5-9.9,16c-6.1,11.6-8.3,24.8-6.3,37.7c3.2,20.2,16.7,38.3,40.1,54
		c11.3,7.5,25.1,11.4,41.1,11.4c26,0,53.6-10.2,72.1-18.8c11.9-5.4,23.3-11.7,34.3-18.8h0.1c5.8-4.3,11-9.5,15.3-15.3
		c9.4-12.7,12.1-25.8,7.8-38c-5.6-15.7-10.3-22.2-14.1-27.4c-3-4.1-5.1-7-6.8-13.1c-4-14.3-24.5-30.2-47.4-30.2
		c-2.3,0-4.6,0.2-7,0.5c-5-4.3-25.7-20.9-48.4-20.9L409.1,204.5z"/>
	<path d="M407.4,307.6h-0.1c-18.8-1.7-35.1-21.6-35.8-22.5c-0.5-0.6-0.4-1.6,0.2-2.1c0.6-0.5,1.6-0.4,2.1,0.2
		c0.2,0.2,16.3,19.8,33.7,21.4c0.8,0,1.5,0.7,1.4,1.6S408.2,307.6,407.4,307.6L407.4,307.6z"/>
	<path class="st8" d="M407,295.4c-4.3,0-8.5-0.6-12.6-1.8c-0.8-0.2-1.3-1-1.1-1.9c0.2-0.8,1-1.3,1.9-1l0,0
		c35.7,9.8,50.6-26,51.2-27.5c0.3-0.8,1.2-1.1,2-0.8c0.8,0.3,1.1,1.2,0.8,2C449,264.8,436.3,295.4,407,295.4z"/>
	<path class="st8" d="M427.6,394.2c0,0,69.3,66-29.1,54.8c0,0-20.1,32.4-54.8,14.5s-19-50.3,5.6-58.1
		C370.6,398.6,427.6,394.2,427.6,394.2z"/>
	<path d="M364,470.4c-7.3-0.1-14.5-2-21-5.5c-14.5-7.5-21.9-18.3-20.8-30.5c1.1-13.2,12.1-25.7,26.7-30.4
		c21.3-6.8,76.3-11.1,78.6-11.2c0.4,0,0.8,0.1,1.1,0.4c1.3,1.2,30.8,29.6,22.8,46.7c-4.9,10.4-22.4,14-52.2,10.8
		C396.6,454.4,384.1,470.4,364,470.4z M427,395.7c-6.5,0.5-57.6,4.8-77.3,11.1c-13.2,4.2-23.6,15.9-24.6,27.8
		c-0.9,11,5.9,20.8,19.2,27.6c13.9,7.2,27,7,38.9-0.5c5.5-3.5,10.2-8.1,13.9-13.5c0.3-0.5,0.9-0.8,1.4-0.7c28.5,3.2,45.8,0.1,50-8.9
		C455.3,424.4,430.8,399.4,427,395.7L427,395.7z"/>
	<path d="M362.4,163.8c-0.8,0-1.5-0.7-1.5-1.5c0-0.2,0-0.3,0.1-0.5c3.4-9.7,9.1-16.4,17-20.1c13.8-6.5,29-1.1,29.6-0.8
		c0.8,0.3,1.1,1.2,0.8,2c-0.3,0.7-1.1,1-1.8,0.8c-0.1-0.1-14.7-5.2-27.4,0.7c-7.1,3.3-12.2,9.5-15.4,18.4
		C363.6,163.4,363,163.8,362.4,163.8z"/>
	<path class="st8" d="M376.1,192.3c-0.8,0-1.5-0.7-1.5-1.5c0-0.3,0.1-0.5,0.2-0.7c5.2-9.6,11.9-15.4,20.1-17.4
		c13.3-3.2,25.3,5,25.8,5.4c0.7,0.5,0.9,1.4,0.4,2.1s-1.4,0.9-2.1,0.4l0,0c-0.1-0.1-11.5-7.8-23.4-4.9c-7.3,1.8-13.4,7.1-18.2,15.9
		C377.1,192,376.6,192.3,376.1,192.3z"/>
	<path class="st5" d="M423.7,404.1v16.8c0,0-29.1,43.6-85,7.8c0,0,27.4-39.4,42.1-86.2c0,0-20.7-5.6-16.5-24.2s19.5-21,28.1-15.5
		c0,0,33.5,26,72.6-44.7c0,0,36.2,17,41.9,55.6s-4,82.4-34,93.6S423.7,404.1,423.7,404.1z"/>
	<path d="M465,258.2c0,0,36.2,17,41.9,55.6s-4,82.4-34,93.6c-7.1,2.8-14.7,4.2-22.4,4.3c-16.8,0-26.9-7.5-26.9-7.5v16.8
		c0,0-14.6,21.9-43.1,21.9c-11.7,0-25.7-3.7-41.9-14.1c0,0,27.4-39.4,42.1-86.2c0,0-20.7-5.6-16.5-24.2c3-13,11.3-18,19-18
		c3.2,0,6.4,0.9,9.1,2.6c0,0,6,4.6,15.9,4.6C421.8,307.6,442.5,298.9,465,258.2 M465,255.2c-1.1,0-2.1,0.6-2.6,1.5
		c-21.8,39.5-41.5,47.8-54,47.8c-5,0.1-9.9-1.3-14.1-4l-0.2-0.1c-3.2-2-6.9-3.1-10.7-3.1c-8.4,0-18.5,5.4-21.9,20.4
		c-2,8.8,0.6,16.4,7.7,22c2.4,1.9,5.1,3.5,8,4.6c-14.6,44.6-40.6,82.3-40.9,82.6c-0.5,0.7-0.6,1.5-0.5,2.3c0.2,0.8,0.6,1.5,1.3,1.9
		c15.1,9.7,29.8,14.6,43.5,14.6c29.7,0,44.9-22.3,45.5-23.3c0.3-0.5,0.5-1.1,0.5-1.7v-11.5c7.4,3.6,15.6,5.4,23.9,5.3
		c8-0.1,15.9-1.6,23.4-4.4c14.8-5.6,25.9-18.9,32.2-38.5c5.5-17.1,6.8-37.9,3.7-58.4c-2.4-16.5-10.8-31.7-24-44
		c-5.8-5.5-12.4-10.2-19.6-13.8C465.9,255.3,465.5,255.2,465,255.2L465,255.2z"/>
	<path d="M424.3,407.3c-0.2,0-0.3,0-0.5-0.1c-17-5.7-29.4-23.6-29.9-24.4c-0.5-0.7-0.3-1.6,0.4-2.1c0.7-0.5,1.6-0.3,2.1,0.4
		c0.1,0.2,12.3,17.9,28.4,23.2c0.8,0.2,1.2,1.1,1,1.9C425.5,406.9,424.9,407.3,424.3,407.3L424.3,407.3z"/>
	<path d="M381.4,333.7c-0.6,0-1.1-0.3-1.4-0.7c-3.8-7.1-4.5-12.9-2-17.2c3.5-6.1,12.1-6.5,12.5-6.5c0.8,0,1.5,0.6,1.5,1.4
		c0,0,0,0,0,0c0,0.8-0.6,1.5-1.4,1.6c-0.1,0-7.3,0.4-10,5c-1.9,3.3-1.2,8.1,2.1,14.2c0.4,0.7,0.1,1.6-0.6,2c0,0,0,0,0,0
		C381.9,333.7,381.6,333.7,381.4,333.7z"/>
	<path class="st9" d="M463.4,315.1c-21.7,1.6-48.8-11.5-54.7-4.6s-3.5,17.5,7.5,21.5s22.5,5.2,45.9,6.5s46.5,0.9,45.5-11.9
		S495.3,312.7,463.4,315.1z"/>
	<path d="M488.4,319.8h-0.1c-9.3-0.9-14.9-10.1-15.1-10.5c-0.4-0.7-0.2-1.6,0.6-2c0.7-0.4,1.6-0.2,2,0.5c0.1,0.1,5,8.2,12.8,9
		c0.8,0,1.5,0.7,1.4,1.6C489.9,319.2,489.2,319.9,488.4,319.8L488.4,319.8z"/>
	<path d="M465.7,354c-0.7,0-1.3-0.5-1.5-1.2l-7.1-34.4c-0.2-0.8,0.4-1.6,1.2-1.8s1.6,0.4,1.8,1.2l7.1,34.4c0.2,0.8-0.3,1.6-1.1,1.8
		c0,0,0,0,0,0H465.7z"/>
	<circle class="st2" cx="372.3" cy="341.4" r="6.9"/>
	<path d="M372.3,334.5c1.3,0,2.6,0.4,3.7,1.1c3.2,2.1,4.2,6.3,2.1,9.5c-1.3,2-3.5,3.2-5.8,3.2c-1.3,0-2.6-0.4-3.7-1.1
		c-3.2-2.1-4.2-6.3-2.1-9.5C367.8,335.7,370,334.5,372.3,334.5 M372.3,331.5c-5.5,0-9.9,4.4-9.9,9.9c0,5.5,4.4,9.9,9.9,9.9
		c5.5,0,9.9-4.4,9.9-9.9c0-3.4-1.7-6.5-4.6-8.4C376.1,332,374.2,331.5,372.3,331.5z"/>
	<circle cx="428.9" cy="328.3" r="3.9"/>
	<circle cx="482.5" cy="331.7" r="3.9"/>
	<path d="M450.1,381.2c-0.5,0-0.9-0.2-1.2-0.6c-7.3-10.4-28.9-9.6-29.1-9.5c-0.8,0-1.5-0.6-1.6-1.4s0.6-1.5,1.4-1.6l0,0
		c1,0,23.5-0.9,31.7,10.8c0.5,0.6,0.4,1.6-0.3,2.1c0,0,0,0-0.1,0C450.7,381.2,450.4,381.3,450.1,381.2z"/>
	<path d="M434.2,314.5c-0.8,0.1-1.6-0.5-1.6-1.4s0.5-1.6,1.4-1.6c0.1,0,12.2-2.2,13.5-9.6c0.1-0.8,0.9-1.4,1.8-1.2
		c0.8,0.1,1.4,0.9,1.2,1.8l0,0c-1.7,9.5-15.4,12-16,12C434.4,314.5,434.3,314.5,434.2,314.5z"/>
	<path class="st8" d="M348.2,425.9c-0.4,0-0.7-0.1-1-0.4c-0.6-0.5-0.7-1.5-0.1-2.1c0,0,0,0,0,0c15.3-17.5,30.9-55.1,31-55.5
		c0.3-0.8,1.2-1.1,2-0.8c0.7,0.3,1.1,1.2,0.8,1.9c-0.6,1.6-15.9,38.5-31.6,56.3C349,425.7,348.6,425.9,348.2,425.9z"/>
</g>
<g id="hand-3">
	<path class="st5" d="M825.1,641.6c0,0-44.8,26.7-22.3,54.9s58.1,5.8,58.3-26.9s-25.2-45.5-37.3-58.2"/>
	<path d="M826.7,711c-9.3,0-18.1-4.6-25.1-13.5c-5.6-7-7.7-14.5-6.2-22.3c3.6-19.6,27.9-34.2,28.9-34.9c0.7-0.4,1.6-0.2,2.1,0.5
		c0.4,0.7,0.2,1.6-0.5,2.1c0,0,0,0,0,0c-0.2,0.1-24.2,14.6-27.5,32.8c-1.3,6.9,0.6,13.6,5.6,19.9c8.6,10.8,20.1,14.8,31.5,10.8
		c14.1-4.9,24-20,24.1-36.8c0.1-25.2-15.3-38.3-27.8-48.9c-3.3-2.8-6.5-5.5-9.1-8.2c-0.6-0.6-0.6-1.6,0-2.1s1.6-0.6,2.1,0
		c2.5,2.6,5.6,5.2,8.9,8c12.9,11,29,24.6,28.8,51.2c-0.1,18-10.8,34.3-26.1,39.6C833.3,710.4,830.1,711,826.7,711z"/>
	<path class="st5" d="M830.6,589.5c0,0-44.8,26.7-22.3,54.9s58.1,5.8,58.3-26.9s-25.2-45.5-37.3-58.2"/>
	<path d="M832.3,658.8c-9.3,0-18.1-4.6-25.1-13.5c-5.6-7-7.7-14.5-6.2-22.3c3.6-19.6,27.9-34.2,28.9-34.9c0.7-0.4,1.6-0.2,2,0.6
		c0.4,0.7,0.2,1.6-0.5,2c-0.2,0.2-24.2,14.6-27.5,32.8c-1.3,6.9,0.6,13.6,5.6,19.9c8.6,10.8,20.1,14.8,31.5,10.8
		c14.1-4.9,24-20,24.1-36.8c0.1-25.1-15.3-38.3-27.8-48.9c-3.3-2.8-6.5-5.5-9.1-8.2c-0.6-0.6-0.6-1.5,0-2.1c0.6-0.6,1.5-0.6,2.1,0
		c0,0,0,0,0,0c2.5,2.6,5.6,5.2,8.9,8c12.9,11,29,24.6,28.8,51.2c-0.1,18-10.8,34.3-26.1,39.6C838.9,658.2,835.6,658.8,832.3,658.8z"
		/>
	<path class="st5" d="M827.8,545.5c0,0-44.8,26.6-22.3,54.9s58.1,5.8,58.3-26.9s-21.3-32.3-36.9-36.1"/>
	<path d="M829.5,614.8c-9.3,0-18.1-4.6-25.1-13.5c-5.6-7-7.7-14.5-6.2-22.3c3.6-19.6,27.9-34.2,28.9-34.8c0.7-0.4,1.6-0.2,2.1,0.5
		c0.4,0.7,0.2,1.6-0.5,2.1c0,0,0,0,0,0c-0.2,0.1-24.2,14.6-27.5,32.8c-1.3,6.9,0.6,13.6,5.6,19.9c8.6,10.8,20.1,14.8,31.5,10.8
		c14.1-4.9,24-20,24.1-36.8c0.1-27.3-14.9-30.4-29.5-33.3c-2.2-0.4-4.2-0.8-6.2-1.3c-0.8-0.2-1.3-1-1.2-1.8c0.2-0.8,1-1.3,1.8-1.2
		c0,0,0.1,0,0.1,0c1.9,0.5,4,0.9,6.1,1.3c14.3,2.9,32.1,6.5,31.9,36.3c-0.1,18-10.8,34.3-26.1,39.6
		C836.1,614.2,832.8,614.8,829.5,614.8z"/>
	<path class="st8" d="M826.8,693.5c-0.8,0-1.5-0.7-1.5-1.5s0.7-1.5,1.5-1.5l0,0c1.1,0,26.9-0.7,28.4-32.4c0.1-0.8,0.7-1.5,1.6-1.4
		c0.8,0,1.5,0.7,1.4,1.6C856.6,692.8,827.2,693.5,826.8,693.5L826.8,693.5z"/>
	<path class="st8" d="M829.4,652.8c-0.8,0.1-1.5-0.6-1.6-1.4c-0.1-0.8,0.6-1.5,1.4-1.6c1-0.2,25.9-4,30.4-31.8
		c0.1-0.8,0.9-1.4,1.7-1.3s1.4,0.9,1.3,1.7c-4.8,30-32.6,34.2-32.9,34.3L829.4,652.8z"/>
	<path class="st8" d="M822.1,601.9h-0.3c-0.8,0-1.5-0.7-1.5-1.5c0,0,0,0,0,0c0-0.8,0.7-1.5,1.5-1.4c0,0,0,0,0,0
		c1.3,0,31.1,0.7,35.2-29.5c0.1-0.8,0.9-1.4,1.7-1.3s1.4,0.9,1.3,1.7C855.8,601,825.6,601.9,822.1,601.9z"/>
	<path d="M879.5,575.8c-0.1,0-0.3,0-0.4,0c-0.8-0.2-1.2-1.1-1-1.8c4.9-17.5,0.8-32-12.2-43.3c-6.3-5.3-13.6-9.4-21.5-11.9
		c-0.8-0.2-1.3-1-1.1-1.8c0.2-0.8,1-1.3,1.8-1.1c0.1,0,0.1,0,0.2,0c0.5,0.1,48.3,14.3,35.7,58.9
		C880.8,575.4,880.1,575.8,879.5,575.8z"/>
</g>
</svg>
