<?xml version="1.0" encoding="utf-8"?>
<!-- Generator: Adobe Illustrator 24.1.2, SVG Export Plug-In . SVG Version: 6.00 Build 0)  -->
<svg version="1.1" id="video_1_" xmlns="http://www.w3.org/2000/svg" xmlns:xlink="http://www.w3.org/1999/xlink" x="0px" y="0px"
	 viewBox="0 0 1000 1000" style="enable-background:new 0 0 1000 1000;" xml:space="preserve">
<style type="text/css">
	.st0{fill:#1D1D1B;}
	.st1{fill:#D9CFFF;}
	.st2{fill:#1D1E1B;}
	.st3{fill:#FFFFFF;}
	.st4{fill:#1D1F1C;}
	.st5{fill:#FFAD00;}
	.st6{fill:#6C32AD;}
	.st7{fill:#59298F;}
	.st8{fill:#FFCDB2;}
	.st9{fill:#FFB49F;}
	.st10{fill:#FFC140;}
	.st11{fill:#E89D00;}
	.st12{fill:none;}
</style>
<g id="line">
	<path class="st0" d="M840,865H107c-1.1,0-2-0.9-2-2s0.9-2,2-2h733c1.1,0,2,0.9,2,2S841.1,865,840,865z"/>
	<path class="st0" d="M914,892H801c-1.1,0-2-0.9-2-2s0.9-2,2-2h113c1.1,0,2,0.9,2,2S915.1,892,914,892z"/>
	<path class="st0" d="M182,892H52c-1.1,0-2-0.9-2-2s0.9-2,2-2h130c1.1,0,2,0.9,2,2S183.1,892,182,892z"/>
</g>
<g id="image">
	<path class="st1" d="M185.5,333.5h318.9c34.8,0,63,28.2,63,63v220.9c0,34.8-28.2,63-63,63H185.5c-34.8,0-63-28.2-63-63V396.5
		C122.5,361.7,150.7,333.5,185.5,333.5z"/>
	<path class="st2" d="M504.5,333.5c34.8,0,63,28.2,63,63v221c0,34.8-28.2,63-63,63H185.5c-34.8,0-63-28.2-63-63V396.5
		c0-34.8,28.2-63,63-63l0,0L504.5,333.5 M504.5,330.5H185.5c-36.4,0.1-65.9,29.6-66,66v220.9c0.1,36.4,29.6,65.9,66,66h318.9
		c36.4-0.1,65.9-29.6,66-66V396.5C570.4,360.1,540.9,330.6,504.5,330.5L504.5,330.5z"/>
	<path class="st3" d="M122.5,617.5V573l109-85.5l76,47l93-116l167,133.2v65.7c0,34.8-28.2,63-63,63h-319
		C150.7,680.5,122.5,652.3,122.5,617.5C122.5,617.5,122.5,617.5,122.5,617.5z"/>
	<path class="st4" d="M504.5,682H185.5c-35.6,0-64.5-28.9-64.5-64.5v-45.2l0.6-0.5l109.8-86.1l75.8,46.9l93.1-116.1l1.2,0.9L569,551
		v66.5C569,653.1,540.1,682,504.5,682z M124,573.7v43.8c0,34,27.6,61.5,61.5,61.5h318.9c34,0,61.5-27.6,61.5-61.5v-65L400.7,420.6
		l-92.9,115.9l-76.2-47.1L124,573.7z"/>
	<path class="st4" d="M597,410.5c-0.4-46.4-16.7-80.7-47-99.3c-14.1-8.5-30.1-13.4-46.5-14.2v-3c1,0,24.2,0.2,47.9,14.6
		c21.9,13.3,48.1,41.8,48.6,101.9L597,410.5z"/>
	<path class="st3" d="M134.5,413c-1.6,0-3-1.3-3-3c-0.4-21.5,5.4-38.5,17.1-50.5c17.3-17.7,41-18,42-18l0,0c1.7,0,3,1.3,3,3
		s-1.3,3-3,3c-0.4,0-22.4,0.5-37.8,16.3c-10.6,10.8-15.7,26.4-15.4,46.2C137.5,411.6,136.2,413,134.5,413L134.5,413z"/>
	<circle class="st3" cx="271.5" cy="408.5" r="26"/>
	<path class="st4" d="M271.5,436c-15.2,0-27.5-12.3-27.5-27.5s12.3-27.5,27.5-27.5s27.5,12.3,27.5,27.5l0,0
		C299,423.7,286.7,436,271.5,436z M271.5,384c-13.5,0-24.5,11-24.5,24.5s11,24.5,24.5,24.5s24.5-11,24.5-24.5
		C296,395,285,384,271.5,384z"/>
</g>
<g id="woman">
	<path class="st5" d="M632,556.7c-51.9-16.2-181.9,8.8-218.5,54.8c-20.8,26.2-42,75-63,136c-8.9,25.8-24.9,49.9-55,47
		c-19.5-1.9-39.8,11.8-37,25c5.6,26,52,43,52,43l367.7-1.5c0,0,42.6-84.6,2.1-169.5c0,0,79.9,33.6,112.6,19s75.6-104,42.9-113.1
		l6.4-22.2l-50.9-28.9l-10.7,13.6c0,0-16.5-19.7-28.1-5.4s-29.9,43.4-29.9,43.4S710,581.1,632,556.7z"/>
	<path class="st0" d="M310.5,864c-0.2,0-0.4,0-0.5-0.1c-1.9-0.7-47.3-17.6-53-44.1c-1-4.8,0.7-10,4.8-14.6
		c7.5-8.4,21.4-13.4,33.8-12.2c24.1,2.3,42.1-13.1,53.4-46c23.3-67.5,43.9-112.2,63.3-136.4c16.9-21.3,55-40,104.4-51.3
		c45.1-10.3,90.6-11.9,115.8-4c65.2,20.4,85,35.5,90,40.2c4-6.3,19-29.7,29-42c3.1-3.8,6.8-5.7,11-5.8h0.1c7.9,0,15.3,6.8,18.1,9.8
		l9.6-12.2c0.5-0.6,1.3-0.7,1.9-0.4l50.8,28.9c0.6,0.3,0.9,1.1,0.7,1.7l-6,20.8c6.7,2.5,10.6,8.5,11.3,17.7
		c2.2,29.8-29.9,86.4-55.4,97.8c-29.4,13.1-94.2-11.2-110.3-17.6c19.4,43.1,17.6,85.6,12.6,114.1c-5.6,31.6-16.3,53.1-16.4,53.3
		c-0.3,0.5-0.8,0.8-1.3,0.8L310.5,864L310.5,864z M291.9,795.8c-10.6,0-21.6,4.4-27.8,11.4c-2.4,2.7-5.1,7-4.1,12
		c5.1,24,47.2,40.4,50.8,41.8l366.5-1.5c7.4-16.5,12.7-34,15.7-51.8c5-28.7,6.7-72.1-14-115.6c-0.3-0.7,0-1.6,0.7-2
		c0.4-0.2,0.8-0.2,1.2,0c0.8,0.3,79.7,33.2,111.4,19c24.7-11,55.8-66,53.6-94.8c-0.6-8.5-4.2-13.7-10.5-15.5
		c-0.4-0.1-0.7-0.4-0.9-0.7c-0.2-0.4-0.2-0.8-0.1-1.2l6.1-21l-48.7-27.7l-9.9,12.6c-0.3,0.4-0.7,0.6-1.2,0.6l0,0
		c-0.4,0-0.9-0.2-1.1-0.5c-0.1-0.1-8.6-10-17-10h-0.1c-3.3,0-6.1,1.6-8.7,4.7c-11.4,14.1-29.6,43-29.8,43.3
		c-0.3,0.4-0.7,0.7-1.2,0.7c-0.5,0-1-0.2-1.3-0.6c-0.1-0.2-13.8-16.9-90-40.7c-24.7-7.7-69.6-6.1-114.2,4.1
		c-48.8,11.2-86.2,29.5-102.7,50.2c-19.1,24-39.6,68.3-62.8,135.6c-11,32-28.3,48.3-51.5,48.3c-1.7,0-3.4-0.1-5.1-0.3
		C294.2,795.9,293,795.8,291.9,795.8z"/>
	<path class="st0" d="M259.4,571.7c-18.6,0-37.2-1.8-55.5-5.4c-29.9-5.8-58.6-16.3-85.2-31.1c-33.1-18.4-62.8-43.7-88.4-75
		c-0.7-0.9-0.6-2.1,0.3-2.8s2.1-0.6,2.8,0.3c57.1,70,124.6,95.6,171.1,104.7c50.5,9.9,87.9,3.1,88.3,3c1.1-0.2,2.1,0.5,2.4,1.5
		c0.2,1.1-0.5,2.1-1.5,2.4c0,0-0.1,0-0.1,0C293.3,569.3,280.3,571.7,259.4,571.7z"/>
	<path class="st6" d="M408.4,505.5c0,0-10.8,29.4-30.2,17c-19.4-12.4-60.8-39.1-82.2-11.1c-21.4,28-19.9,35.3-43.5,27.9
		s-86,55-27.8,93.1c95.3,62.4,232.7-81.7,232.7-81.7l-14.2-21.9L408.4,505.5z"/>
	<path d="M278.6,649.5c-20.2,0-38.6-5.3-54.8-15.9c-23.6-15.4-30.8-37.6-19.8-60.9c10.2-21.7,34.8-39.3,48.8-34.9
		c18.2,5.7,20.3,2.7,32-13.8c2.8-3.9,5.9-8.4,9.9-13.6c21.9-28.8,63.5-2.4,83.4,10.3l0.7,0.5c4.3,2.8,8.5,3.5,12.5,2.1
		c9.9-3.4,15.5-18.3,15.5-18.4l0.7-1.8l36.6,24.5l15,23.1l-0.8,0.8c-0.3,0.4-35,36.5-80.9,64.5c-27,16.5-52.6,27-76,31.2
		C294,648.8,286.3,649.5,278.6,649.5z M248.3,540.2c-12.2,0-32.2,14.1-41.5,33.8c-6,12.8-11.6,37.2,18.7,57.1
		c48.6,31.8,108.6,8,150.4-17.5c41.7-25.4,74-57.6,79.5-63.2l-13.4-20.6l-33-22.1c-1.9,4.3-7.5,15.4-16.7,18.5
		c-4.9,1.6-9.9,0.8-15.1-2.4l-0.7-0.5c-19.2-12.2-59.2-37.6-79.4-11c-4,5.2-7.1,9.6-9.9,13.5c-11.9,16.7-15,21.2-35.3,14.9
		C250.8,540.3,249.6,540.2,248.3,540.2L248.3,540.2z"/>
	<path class="st7" d="M289.8,647.5c59.8-82.3,148.8-102.8,148.8-102.8c4.8,3.4,8.8,8,11.6,13.2C427.9,579.2,358.1,641.1,289.8,647.5
		z"/>
	<circle class="st6" cx="414.2" cy="439.6" r="29.3"/>
	<path d="M397.1,415.9c13.1-9.4,31.4-6.4,40.8,6.7c9.4,13.1,6.4,31.4-6.7,40.8c-13.1,9.4-31.4,6.4-40.8-6.7
		c-3.2-4.5-5.1-9.9-5.5-15.4C384.4,431.3,389,421.7,397.1,415.9 M395.8,414.1c-14.1,10.2-17.3,29.8-7.1,44s29.8,17.3,44,7.1
		c14.1-10.2,17.3-29.8,7.1-44c-6.3-8.7-16.6-13.6-27.4-13C406.4,408.6,400.6,410.6,395.8,414.1z"/>
	<path class="st6" d="M530.5,477.4c0,0,8.8-25.5-7.9-36.9s-20-7.7-28.4-14.4s-28.8-6.3-40.5,5.9c0,0-25-3-38.5,10.2
		s-14.6,23.9-12,38.9s1.3,23,2.8,33.6c1.5,10.6,10.2,37.6,54,36S530.5,477.4,530.5,477.4z"/>
	<path d="M456.4,552.2c-43,0-50.5-28.4-51.7-37.3c-0.5-4.3-0.8-8.6-0.9-12.9c-0.1-6.9-0.7-13.8-1.9-20.6
		c-2.7-15.1-1.5-26.5,12.4-40.2c12.6-12.4,34.6-11.1,39-10.7c12.1-12,32.7-12.9,42-5.5c2.8,2.2,5.9,3.8,9.3,4.7
		c4.2,1.4,9.5,3.1,18.9,9.6c17.4,12,8.8,37.6,8.4,38.7l0,0c-5,12.7-11.4,24.9-18.9,36.3c-16.1,24.1-34.4,37.2-52.8,37.9
		C458.9,552.2,457.6,552.2,456.4,552.2z M447.6,433.2c-8,0-22.5,1.3-31.3,10c-13,12.8-14.1,23-11.5,37.5c1.2,6.9,1.8,14,1.9,21
		c0.1,4.2,0.4,8.4,0.9,12.6c1.2,8.6,8.6,36.3,52.5,34.7c42.1-1.6,68.4-70.8,68.9-72.2c0.3-0.7,8-24.6-7.3-35.2
		c-9-6.2-14.1-7.9-18.1-9.2c-3.7-1-7.2-2.8-10.3-5.2c-7.5-6-27-6.2-38.5,5.7l-0.5,0.5l-0.8-0.1C451.6,433.3,449.6,433.2,447.6,433.2
		L447.6,433.2z"/>
	<path d="M458.2,496.5L458.2,496.5c-11.3,6.7-28.6,2.2-29.4,2c-0.6-0.1-1-0.7-0.8-1.3c0.1-0.6,0.7-1,1.3-0.8c0,0,0.1,0,0.1,0
		c0.2,0,17.1,4.5,27.6-1.7c0.5-0.3,1.2-0.1,1.5,0.5C458.7,495.6,458.6,496.2,458.2,496.5L458.2,496.5z"/>
	<path class="st3" d="M521.4,553.4c0,0,20.2,3,10.9,21.5s-27.2,12.9-27.2,12.9s-35.6,38.7-46.5-9.7L521.4,553.4z"/>
	<path class="st0" d="M478.7,604c-1.5,0-3-0.2-4.4-0.6c-8.2-2.2-14-10.6-17.2-24.9l-0.3-1.3l64.4-25.4h0.4c0.4,0.1,9.7,1.5,13.3,8.4
		c2.2,4.2,1.8,9.3-1.2,15.3c-8.5,17-24.1,14.8-28.1,13.9C502.7,592.4,490.7,604,478.7,604z M460.3,579.1c3,12.4,8,19.6,14.7,21.4
		C488,604,503.8,587,504,586.8l0.6-0.7l0.9,0.3c0.7,0.2,16.9,5,25.4-12.2c2.5-5.1,3-9.3,1.3-12.5c-2.5-4.8-9-6.4-10.7-6.7
		L460.3,579.1z"/>
	<path class="st3" d="M453,489.8c-2.4,1.7-5,3.1-7.8,4.1c-0.6,0.2-1.2-0.1-1.4-0.7c-0.2-0.5,0.1-1.1,0.6-1.4c24-9,17.8-35,17.6-36.1
		c-0.1-0.6,0.2-1.2,0.8-1.3s1.2,0.2,1.3,0.8l0,0C464.2,455.5,469.5,477.9,453,489.8z"/>
	<path class="st3" d="M444.8,494.5c-0.7,0-1.3-0.4-1.5-1c-0.2-0.4-0.2-0.8,0-1.2c0.2-0.4,0.5-0.7,0.9-0.8
		c23.5-8.8,17.5-34.5,17.3-35.6c-0.1-0.4,0-0.8,0.2-1.2c0.5-0.8,1.4-1,2.2-0.5c0.4,0.2,0.6,0.6,0.7,1c0.1,0.2,5.5,23-11.3,35.1
		c-2.4,1.7-5.1,3.2-7.9,4.2C445.2,494.5,445,494.5,444.8,494.5z M463.1,454.9h-0.1c-0.2,0-0.3,0.1-0.4,0.3c-0.1,0.1-0.1,0.3-0.1,0.5
		c0.3,1.1,6.5,27.6-17.9,36.7c-0.1,0.1-0.3,0.2-0.3,0.3c-0.1,0.2-0.1,0.3,0,0.5c0.1,0.3,0.5,0.5,0.8,0.4c2.7-1,5.3-2.4,7.7-4.1l0,0
		c16.3-11.7,11-33.9,10.9-34.1c0-0.2-0.1-0.3-0.3-0.4C463.3,454.9,463.2,454.9,463.1,454.9z"/>
	<path class="st3" d="M393.8,444.4c-0.2,0.1-0.3,0.2-0.5,0.2c-0.6,0.1-1.2-0.3-1.2-1c-1-7.5,0.4-13.6,4.3-18
		c6.2-7.2,16.3-7.5,16.7-7.5c0.6,0,1.1,0.5,1.1,1.1c0,0,0,0,0,0c0,0.6-0.5,1.1-1.1,1.1c0,0,0,0,0,0c-0.1,0-9.6,0.3-15.1,6.7
		c-3.4,3.9-4.6,9.4-3.7,16.3C394.3,443.8,394.1,444.2,393.8,444.4z"/>
	<path class="st3" d="M393.1,445.1c-0.4,0-0.7-0.1-1-0.3c-0.3-0.3-0.6-0.6-0.6-1.1c-1-7.6,0.5-13.8,4.4-18.4
		c6.3-7.3,16.7-7.6,17.1-7.6c0.4,0,0.8,0.2,1.1,0.4c0.6,0.6,0.7,1.6,0,2.3c-0.3,0.3-0.7,0.5-1.1,0.5c-0.1,0-9.4,0.3-14.7,6.5
		c-3.3,3.8-4.5,9.2-3.6,15.9c0.1,0.6-0.2,1.2-0.6,1.5l0,0c-0.2,0.1-0.5,0.2-0.7,0.3L393.1,445.1z M413.1,418.7L413.1,418.7
		c-0.4,0-10.3,0.3-16.4,7.3c-3.7,4.3-5.1,10.3-4.1,17.6c0,0.2,0.1,0.3,0.2,0.4c0.1,0.1,0.3,0.1,0.5,0.1c0.1,0,0.2-0.1,0.3-0.1
		c0.2-0.1,0.3-0.3,0.3-0.6c-0.9-7,0.4-12.6,3.9-16.6c5.7-6.6,15.4-6.9,15.5-6.9c0.3,0,0.6-0.3,0.6-0.6c0-0.1-0.1-0.3-0.2-0.4
		C413.4,418.8,413.2,418.7,413.1,418.7z"/>
	<path class="st8" d="M506.5,544l13.4,9.7c0,0-7.2,45.5-56.5,21.1c0,0,4.8-15.8-5.9-48c0,0-13.9,5.2-19-6.9
		c-5.1-12.1,2.4-19.7,9.5-20.1c0,0,29.4,1,22.6-54.6c0,0,27.2-5.1,46.1,14.2s31.2,47.9,18.9,66.4C523.3,544.3,506.5,544,506.5,544z"
		/>
	<path class="st0" d="M478.8,444.7c9.5,0,25.5,2.2,37.8,14.8c18.9,19.3,31.2,47.9,18.9,66.4c-11.8,17.8-27.9,18.1-28.9,18.1h0
		l13.4,9.7c0,0-4.5,28.3-30.5,28.3c-7,0-15.5-2-26-7.2c0,0,4.8-15.8-5.9-48c-2.2,0.7-4.4,1.1-6.7,1.1c-4.3,0-9.6-1.5-12.3-8
		c-5.1-12.1,2.4-19.7,9.5-20.1h0.1c1.9,0,29-0.9,22.5-54.6C473.3,444.8,476,444.6,478.8,444.7 M478.8,441.7L478.8,441.7L478.8,441.7
		c-3,0-5.9,0.2-8.9,0.7l-2.8,0.5l0.3,2.8c3.3,26.7-2.2,39.2-7.3,45c-5.4,6.1-11.5,6.3-12.2,6.3h-0.3c-4.8,0.3-9.1,2.9-11.7,7
		c-3,4.7-3.1,10.9-0.4,17.2s8,9.8,15.1,9.8c1.6,0,3.2-0.2,4.7-0.5c9.1,28.9,5.1,43.4,5,43.5l-0.7,2.4l2.3,1.1
		c10.1,5,19.3,7.5,27.3,7.5c11.8,0,21.3-5.4,27.6-15.6c2.9-4.7,4.9-9.9,5.9-15.3l0.3-1.8l-1.5-1.1l-7.5-5.5
		c6.5-1.8,16.1-6.5,23.9-18.3c6.2-9.4,7.1-21.6,2.6-35.5c-3.9-12-11.7-24.3-21.8-34.7C505.4,443.7,488,441.7,478.8,441.7
		L478.8,441.7z"/>
	<path d="M508.1,545.6c-0.1,0.1-0.2,0.1-0.3,0.2c-11.9,3.7-26.1-1.3-26.8-1.6c-0.6-0.2-0.9-0.8-0.7-1.4c0.2-0.6,0.8-0.9,1.4-0.7l0,0
		c0.1,0.1,14.1,5,25.3,1.5c0.6-0.3,1.2-0.1,1.5,0.5S508.7,545.4,508.1,545.6L508.1,545.6z"/>
	<path d="M454.2,521.7c-0.3,0.2-0.8,0.3-1.1,0.1c-5-2.5-7.8-5.5-8.1-8.9c-0.5-4.9,4.2-8.6,4.4-8.8c0.5-0.4,1.2-0.3,1.5,0.2
		c0,0,0,0,0,0c0.4,0.5,0.3,1.2-0.2,1.5c0,0,0,0,0,0c-0.1,0.1-3.9,3.2-3.5,6.8c0.3,2.6,2.6,5,6.9,7.1c0.5,0.3,0.8,0.9,0.5,1.5
		C454.4,521.5,454.3,521.6,454.2,521.7z"/>
	<path class="st9" d="M492.7,477.9c-11.5,9.7-32.1,13.4-32.6,19.6s5.1,11.3,13,9s14.7-6.2,28.4-15s26.5-18.4,20.7-25.2
		S509.6,463.6,492.7,477.9z"/>
	<path d="M503.3,461.4c-0.3,0.2-0.6,0.3-0.9,0.2l0,0c-0.1,0-6.5-1.5-10.6,2c-0.5,0.4-1.2,0.3-1.6-0.1s-0.3-1.2,0.1-1.6
		c5-4.2,12.2-2.5,12.5-2.4c0.6,0.1,1,0.7,0.8,1.4C503.6,461.1,503.5,461.3,503.3,461.4L503.3,461.4z"/>
	<path d="M509.8,498.9c-0.4,0.3-1,0.3-1.4-0.1l-18-16.4c-0.5-0.4-0.5-1.1-0.1-1.6c0,0,0,0,0,0c0.4-0.4,1.1-0.5,1.6-0.1l18,16.4
		c0.4,0.4,0.5,1.1,0.1,1.6L509.8,498.9z"/>
	<circle class="st5" cx="452.2" cy="529.6" r="4.8"/>
	<path d="M449.4,525.8c2.2-1.5,5.1-1,6.7,1.1c1.5,2.2,1,5.1-1.1,6.7c-2.2,1.5-5.1,1-6.7-1.1c-0.5-0.7-0.8-1.6-0.9-2.5
		C447.3,528.3,448,526.7,449.4,525.8 M448.1,524c-3.1,2.3-3.8,6.6-1.6,9.8c2.3,3.1,6.6,3.8,9.8,1.6c3.1-2.3,3.8-6.6,1.6-9.8
		c-1.4-1.9-3.7-3-6.1-2.9C450.4,522.7,449.2,523.2,448.1,524z"/>
	<path d="M476.7,472.5c-0.2,0.2-0.6,0.2-0.9,0.2l0,0c-1-0.2-4.2-0.4-5.1,1c-0.4,0.5-1.1,0.5-1.6,0.2c-0.4-0.3-0.5-0.9-0.3-1.4
		c2-2.8,6.8-2,7.3-1.9c0.6,0.1,1,0.7,0.9,1.3C477.1,472.1,476.9,472.4,476.7,472.5z"/>
	<path class="st0" d="M192.7,618.3c-46.7,0-92.4-13.8-131.3-39.6c-0.9-0.6-1.2-1.9-0.6-2.8c0.6-0.9,1.9-1.2,2.8-0.6
		c38.3,25.4,83.2,39,129.1,39h0.2c34.8,0,58.3-7.8,58.5-7.9c1-0.4,2.2,0.2,2.5,1.3s-0.2,2.2-1.3,2.5l0,0c-1,0.3-24.3,8-59.7,8.1
		L192.7,618.3z"/>
	<circle class="st10" cx="475.8" cy="714.9" r="5.7"/>
	<circle class="st10" cx="584.1" cy="622.9" r="5.7"/>
	<circle class="st10" cx="621.9" cy="722" r="5.7"/>
	<circle class="st10" cx="561.1" cy="700.7" r="5.7"/>
	<circle class="st10" cx="433" cy="630.1" r="5.7"/>
	<circle class="st10" cx="495.9" cy="652.5" r="5.7"/>
	<circle class="st10" cx="584.8" cy="590.5" r="5.7"/>
	<circle class="st10" cx="705.8" cy="643" r="5.7"/>
	<circle class="st10" cx="765.3" cy="599.5" r="5.7"/>
	<circle class="st10" cx="808.7" cy="623.4" r="5.7"/>
	<circle class="st10" cx="423.8" cy="632.5" r="5.7"/>
	<path class="st11" d="M839.9,576.2l-48.3-28.1l-10.8,13.2c0,0,13.6,32.5,53.6,36L839.9,576.2z"/>
	<path class="st8" d="M792.4,545.4c0,0-40.7-81.8,12.4-74.1l23.5-39c0,0,25.9-2.6,17.8,33.5c0,0,15.2,7.6,18,23
		c0,0,18.5,4,12.2,30.2c-6.8,28.3-36.3,55.2-36.3,55.2L792.4,545.4z"/>
	<path class="st0" d="M840.4,575.9l-49.1-29.5l-0.2-0.4c-1-2-24.5-49.9-10.7-69c4.5-6.3,12.5-8.8,23.7-7.4l23.4-38.8l0.7-0.1
		c0.4,0,9.7-0.9,15.9,6.1c5.2,5.9,6.5,15.3,3.8,28.2c3.5,2,14.7,9.4,17.6,22.6c4.3,1.4,7.9,4.3,10.3,8.2c3.7,5.9,4.4,13.8,2.1,23.5
		c-6.9,28.4-35.5,54.8-36.7,55.9L840.4,575.9z M793.6,544.3l46.4,27.9c4.8-4.5,29-28.7,35-53.6c2.1-8.9,1.6-16-1.7-21.2
		c-2.2-3.5-5.5-6-9.5-7.1l-1-0.2l-0.2-1c-2.7-14.5-17.1-21.9-17.2-22l-1-0.5l0.3-1.1c2.8-12.4,1.8-21.3-2.9-26.6
		c-4.2-4.8-10.5-5.2-12.6-5.1l-23.6,39.2l-1-0.1c-10.5-1.5-17.8,0.5-21.8,6C770.7,495.6,791.4,539.7,793.6,544.3z"/>
	<path class="st8" d="M875.7,524.3c-4.9,12.2-23.2,19.3-27.6,7.2c-3.6-10-0.1-15.7-0.1-15.7s-16.9,14.2-24.2-4.3
		c-7.3-18.5,21.1-45.2,21.1-45.2"/>
	<path class="st0" d="M857,539.3h-0.3c-4.6,0.1-8.7-2.8-10.1-7.2c-1.6-4-2.1-8.3-1.5-12.5c-3.3,1.9-8.2,3.9-13,2.7
		c-4.3-1.1-7.6-4.5-9.9-10.1c-7.6-19.3,20.3-45.7,21.4-46.8c0.6-0.6,1.5-0.5,2.1,0.1c0,0,0,0,0,0c0.6,0.6,0.5,1.6-0.1,2.1
		c-0.3,0.3-27.6,26.1-20.7,43.5c1.8,4.7,4.5,7.5,7.8,8.3c6.5,1.7,14-4.5,14.1-4.6c0.6-0.5,1.6-0.4,2.1,0.2c0.4,0.5,0.4,1.2,0.1,1.7
		c-0.1,0.2-3,5.3,0.3,14.4c1,3.2,4,5.3,7.3,5.2h0.1c5.9,0,14.2-5,17.2-12.5c0.3-0.8,1.2-1.1,2-0.8c0.8,0.3,1.1,1.2,0.8,2
		C873.9,532.9,864.9,539.3,857,539.3z"/>
	<line class="st12" x1="864.5" y1="489" x2="846.2" y2="517.1"/>
	<path class="st0" d="M846.2,518.7c-0.3,0-0.6-0.1-0.8-0.3c-0.7-0.5-0.9-1.4-0.4-2.1l18.3-28.2c0.5-0.7,1.4-0.9,2.1-0.4
		s0.9,1.4,0.4,2.1L847.5,518C847.2,518.4,846.7,518.7,846.2,518.7z"/>
	<path class="st8" d="M804.9,471.2c0,0,28.3-0.7,30.7,15.2s-41.8,17.3-41.8,17.3"/>
	<path class="st0" d="M793.8,505.2c-0.8,0-1.5-0.6-1.5-1.5c0-0.8,0.6-1.5,1.5-1.5c0.3,0,31-1.1,38.8-10.4c1.3-1.4,1.8-3.3,1.5-5.1
		c-2.1-14.4-28.9-14-29.1-13.9c-0.8,0-1.5-0.6-1.5-1.5c0-0.8,0.6-1.5,1.5-1.5c1.2,0,29.7-0.5,32.2,16.5c0.4,2.7-0.4,5.5-2.2,7.5
		C826.2,504.1,795.2,505.2,793.8,505.2L793.8,505.2z"/>
	<path class="st2" d="M685.7,705.4c-0.7,0-1.3-0.4-1.4-1.1c-7.2-25.3-40-74.3-40.3-74.8c-0.4-0.7-0.2-1.6,0.5-2.1
		c0.7-0.4,1.5-0.2,2,0.4c1.4,2,33.4,49.9,40.7,75.7c0.2,0.8-0.2,1.6-1,1.9C686,705.4,685.8,705.4,685.7,705.4z"/>
	<path class="st5" d="M378.3,657.7c0,0-1.2,50.9,4.6,84.7"/>
	<path class="st0" d="M382.9,743.9c-0.7,0-1.4-0.5-1.5-1.3c-5.7-33.6-4.6-84.5-4.6-85c0-0.8,0.7-1.5,1.5-1.5l0,0
		c0.8,0,1.5,0.7,1.5,1.5c0,0,0,0,0,0c0,0.5-1.1,51.1,4.6,84.4c0.1,0.8-0.4,1.6-1.2,1.7c0,0,0,0,0,0L382.9,743.9z"/>
	<path class="st3" d="M699,603.4c-0.6,0-1.3-0.2-1.8-0.6c-36.6-27-70.8-33.9-93.2-35c-24.2-1.2-40,4.2-40.1,4.2
		c-1.6,0.6-3.3-0.3-3.8-1.8c-0.6-1.6,0.3-3.3,1.8-3.8c0.7-0.2,16.8-5.7,42.1-4.5c23.2,1.1,58.8,8.2,96.7,36.2c1.3,1,1.6,2.9,0.6,4.2
		C700.8,602.9,699.9,603.4,699,603.4L699,603.4z"/>
	<path d="M499.6,525.8c-3.8-0.1-7.5-1.1-10.9-3c-0.7-0.4-1-1.3-0.5-2.1s1.3-1,2.1-0.5c0.1,0.1,11,6.3,17.1-0.7
		c0.6-0.6,1.5-0.7,2.1-0.1s0.7,1.5,0.1,2.1C507.1,524.4,503.4,525.9,499.6,525.8z"/>
	<circle cx="480.5" cy="493.5" r="2.5"/>
	<circle cx="514.5" cy="472.5" r="2.5"/>
	<line class="st12" x1="574" y1="648" x2="699" y2="647"/>
	<path class="st4" d="M378,413.5c-0.8,0-1.5-0.7-1.5-1.5c0-0.2,0.1-0.5,0.2-0.7c0.3-0.6,7.3-14,21.2-18.4c8.4-2.6,17.4-1.3,26.8,3.8
		c0.7,0.4,1.1,1.3,0.7,2c-0.4,0.7-1.3,1.1-2,0.7c0,0-0.1,0-0.1-0.1c-8.7-4.7-17-5.9-24.5-3.5c-12.8,4-19.4,16.8-19.4,16.9
		C379.1,413.2,378.6,413.5,378,413.5z"/>
	<path class="st6" d="M305.5,852.3c0,0-3.8-21.6-52.2-31.8s-84,42-84,42h136.2V852.3z"/>
	<path class="st2" d="M307,864H166.5l1.6-2.3c6.9-9.5,15-17.9,24.2-25.2c19.9-15.7,41.2-21.7,61.4-17.5c48.8,10.3,53.2,32.1,53.4,33
		v0.3L307,864z M172.3,861H304v-8.5c-0.4-1.6-6.2-21.1-51-30.5C212,813.3,179.9,851,172.3,861z"/>
	<path class="st8" d="M232.9,800.1c-10.2-5.1-34.4,0-39.5,10.2s3.8,17.8,12.7,20.4s21.3-10.1,21.3-10.1L232.9,800.1z"/>
	<path class="st0" d="M208.7,832.5c-1,0-2-0.1-2.9-0.4c-5.2-1.5-11.7-5.1-14.2-10.9c-1.6-3.7-1.4-8,0.6-11.6
		c2.5-5,9.6-9.4,18.8-11.6c8.8-2.1,17.5-1.8,22.7,0.8l1.1,0.5l-5.9,22l-0.3,0.3C228.1,822.1,217.8,832.5,208.7,832.5z M222.4,799.6
		c-3.6,0-7.2,0.5-10.7,1.4c-8.3,2-14.7,5.8-16.8,10c-1.6,2.8-1.7,6.1-0.5,9c2.1,4.8,7.8,7.9,12.3,9.2c6.4,1.8,16-5.9,19.5-9.4
		l5-18.9C228.3,800,225.3,799.6,222.4,799.6z"/>
	<path class="st8" d="M267.3,819.2c0,0-5.1-21.6-22.9-24.2s-33.1,6.4-31.8,24.2s22.9,20.4,34.4,16.5S267.3,819.2,267.3,819.2z"/>
	<path class="st0" d="M236.7,838.8c-6,0-12.3-1.4-17.1-4.6c-5.1-3.3-8.2-8.8-8.5-14.8c-0.6-7.7,1.8-14.3,6.9-19.1
		c6.2-5.8,15.9-8.2,26.6-6.7c18.6,2.7,24,24.4,24.2,25.3l0.2,0.7l-0.4,0.5c-0.4,0.5-9.3,13.2-21.1,17.1
		C244,838.3,240.4,838.8,236.7,838.8z M238.5,796.1c-7.4,0-14,2.2-18.4,6.4s-6.4,9.8-6,16.7c0.2,5.1,2.9,9.8,7.2,12.6
		c7.3,4.8,18.2,5,25.2,2.7c9.5-3.2,17.4-13,19.2-15.4c-1-3.5-6.6-20.3-21.5-22.4C242.3,796.2,240.4,796.1,238.5,796.1z"/>
	<path class="st8" d="M306.8,835.8c10.8,5.4,12.7,16.5,11.5,26.7s-14,19.1-25.5,14s-6.4-17.8,0-24.2s-5.1-16.5-11.5-7.6
		s-24.2,7.6-34.4,0s-2.6-26.7,11.4-31.8s29.3-7.6,35.6,6.4S301.7,833.2,306.8,835.8z"/>
	<path class="st0" d="M299.7,879.5c-2.6,0-5.2-0.5-7.5-1.6c-4.2-1.9-6.8-4.9-7.5-8.8c-1.2-6.3,2.7-13.5,7-17.8
		c1.3-1.1,1.7-2.9,1.2-4.5c-0.7-2.1-2.6-3.6-4.8-4c-1.5-0.2-3.7,0.1-5.6,2.8c-2.5,3.5-6.5,5.7-11.8,6.5c-8.7,1.1-17.5-1.1-24.7-6.2
		c-4.1-3.1-5.9-8.1-5.1-14c1.7-9.3,8.1-17.1,16.9-20.5c12.6-4.6,30.3-8.8,37.5,7.2c5.8,12.8,7,13.4,11.2,15.4l0.8,0.4
		c9.6,4.8,14,14.8,12.3,28.3c-0.7,5.6-4.6,11-10.1,14.1C306.6,878.5,303.2,879.4,299.7,879.5z M287.4,839.7c0.4,0,0.8,0,1.2,0.1
		c3.3,0.5,6.1,2.8,7.2,6c0.9,2.7,0.1,5.7-1.9,7.6c-3.7,3.7-7.2,10-6.2,15.2c0.5,2.9,2.5,5.1,5.8,6.6c4.8,2.1,10.3,1.7,14.7-0.9
		c4.7-2.7,8-7.2,8.6-11.9c1.1-8.5,0.1-19.8-10.6-25.2l-0.8-0.4c-5-2.5-6.7-3.7-12.6-16.9c-4.8-10.5-15.5-12.2-33.8-5.6
		c-7.5,2.7-13.8,10.3-15,18.1c-0.7,4.7,0.7,8.7,3.9,11.1c6.5,4.6,14.5,6.6,22.4,5.6c3.1-0.5,7.3-1.8,9.8-5.3
		C281.7,841.3,284.4,839.8,287.4,839.7z"/>
</g>
<g id="computer">
	<circle class="st10" cx="589" cy="792.4" r="5.7"/>
	<circle class="st10" cx="442.8" cy="786.8" r="5.7"/>
	<circle class="st10" cx="520.3" cy="779.7" r="5.7"/>
	<path class="st6" d="M699.8,859.1H394.4c-12.4,0-22.5-10.1-22.5-22.5V652.4c0-12.4,10.1-22.5,22.5-22.5h305.3
		c12.4,0,22.5,10.1,22.5,22.5v184.1C722.3,849,712.2,859.1,699.8,859.1z"/>
	<path class="st2" d="M699.8,860.6H394.4c-13.3,0-24-10.7-24-24V652.5c0-13.3,10.7-24,24-24h305.3c13.3,0,24,10.7,24,24v184.1
		C723.8,849.8,713,860.6,699.8,860.6C699.8,860.6,699.8,860.6,699.8,860.6z M394.4,631.4c-11.6,0-21,9.4-21,21v184.1
		c0,11.6,9.4,21,21,21l0,0h305.3c11.6,0,21-9.4,21-21l0,0V652.5c0-11.6-9.4-21-21-21l0,0L394.4,631.4z"/>
	<path class="st7" d="M735.1,859.5H370.8c-11,0-20-9-20-20l0,0l0,0h404.3l0,0l0,0C755.1,850.5,746.2,859.5,735.1,859.5z"/>
	<path class="st0" d="M735.1,861H370.8c-11.9,0-21.5-9.6-21.5-21.5V838h407.3v1.5C756.6,851.4,747,861,735.1,861z M352.4,841
		c0.8,9.6,8.8,17,18.4,17h364.4c9.6,0,17.6-7.4,18.4-17H352.4z"/>
	<path class="st3" d="M384.5,819.5c-1.7,0-3-1.3-3-3v-150c0-1.7,1.3-3,3-3s3,1.3,3,3v150C387.5,818.2,386.2,819.5,384.5,819.5z"/>
	<path class="st7" d="M530.5,728.5h19c5.4,0,9.8,4.4,9.8,9.8v19c0,5.4-4.4,9.8-9.8,9.8h-19c-5.4,0-9.8-4.4-9.8-9.8v-19
		C520.8,732.9,525.1,728.5,530.5,728.5z"/>
	<path class="st0" d="M549.5,768.5h-19c-6.2,0-11.3-5-11.3-11.3v-19c0-6.2,5.1-11.2,11.3-11.2h19c6.2,0,11.3,5,11.3,11.3v19
		C560.8,763.5,555.7,768.5,549.5,768.5z M530.5,730c-4.6,0-8.3,3.7-8.3,8.3l0,0v19c0,4.6,3.7,8.3,8.3,8.3l0,0h19
		c4.6,0,8.3-3.7,8.3-8.3l0,0v-19c0-4.6-3.7-8.3-8.3-8.3l0,0H530.5z"/>
</g>
<g id="video-2">
	<path class="st5" d="M768.5,317h141.9c18,0,32.7,14.6,32.7,32.7v71.2c0,18-14.6,32.7-32.7,32.7H768.5c-18,0-32.7-14.6-32.7-32.7
		v-71.2C735.9,331.6,750.5,317,768.5,317z"/>
	<path class="st0" d="M910.5,455H768.5c-18.9,0-34.1-15.3-34.2-34.2v-71.2c0-18.9,15.3-34.1,34.2-34.2h141.9
		c18.9,0,34.1,15.3,34.2,34.2v71.2C944.6,439.7,929.3,455,910.5,455z M768.5,318.5c-17.2,0-31.2,14-31.2,31.2v71.2
		c0,17.2,14,31.2,31.2,31.2h141.9c17.2,0,31.2-14,31.2-31.2v-71.2c0-17.2-14-31.2-31.2-31.2H768.5z"/>
	<path class="st0" d="M755.5,472.9h-0.1c-21.4-1.7-37.9-19.5-38-41v-92.3c0-0.8,0.7-1.5,1.5-1.5s1.5,0.7,1.5,1.5v92.3
		c0.1,19.9,15.4,36.4,35.3,38c0.8,0,1.5,0.7,1.4,1.6S756.4,472.9,755.5,472.9L755.5,472.9z"/>
	<path class="st0" d="M921.9,473h-2.4c-0.8,0-1.5-0.7-1.5-1.5s0.7-1.5,1.5-1.5h2.4c21,0,38.1-17.1,38.1-38.1v-92.3
		c0-21-17.1-38.1-38.1-38.1H781c-0.8,0-1.5-0.7-1.5-1.5s0.7-1.5,1.5-1.5h140.9c22.7,0,41.1,18.4,41.1,41.1v92.3
		C963,454.6,944.6,473,921.9,473z"/>
	<path class="st1" d="M852.5,347.9l-55.1,36.4c-2.5,1.7-3.2,5.1-1.5,7.6c0.4,0.7,1,1.2,1.7,1.6l55.1,33.5c2.6,1.6,6,0.8,7.5-1.8
		c0.5-0.9,0.8-1.8,0.8-2.8v-69.9c0-3-2.5-5.5-5.5-5.5C854.4,347,853.4,347.3,852.5,347.9z"/>
	<path class="st2" d="M855.5,429.3c-1.3,0-2.5-0.3-3.6-1l-55.1-33.4c-3.3-2-4.4-6.3-2.4-9.6c0.5-0.9,1.3-1.7,2.1-2.2l55.1-36.4
		c3.2-2.1,7.6-1.2,9.7,2c0.7,1.1,1.1,2.5,1.1,3.8v69.8C862.5,426.1,859.4,429.3,855.5,429.3L855.5,429.3z M853.3,349.1l-55.1,36.4
		c-1.8,1.2-2.3,3.7-1.1,5.6c0.3,0.5,0.7,0.9,1.2,1.2l55.1,33.4c1.9,1.1,4.4,0.4,5.5-1.5c0.3-0.6,0.5-1.3,0.5-1.9v-69.8
		c0-1.5-0.8-2.8-2.1-3.5C856.1,348.2,854.5,348.3,853.3,349.1L853.3,349.1z"/>
	<path class="st2" d="M786.5,342c-0.6,0-1.1-0.3-1.3-0.8c-28.2-58-83.3-98.2-124.5-121.7C616,194,577.5,182,577.1,181.9
		c-0.8-0.3-1.2-1.2-0.9-1.9c0.3-0.7,1-1.1,1.7-0.9c0.4,0.1,39.2,12.1,84.2,37.8c41.6,23.7,97.2,64.3,125.7,123c0.4,0.7,0,1.6-0.7,2
		C787,341.9,786.7,342,786.5,342z"/>
	<path class="st2" d="M757.5,348c-0.6,0-1.1-0.3-1.3-0.8c-19.5-37-90.5-63-91.2-63.3c-0.8-0.2-1.3-1-1-1.8c0.2-0.8,1-1.3,1.8-1
		c0.1,0,0.1,0,0.2,0.1c3,1.1,72.8,26.6,92.8,64.7c0.4,0.7,0.1,1.6-0.6,2C758,347.9,757.7,348,757.5,348z"/>
</g>
</svg>
