<?xml version="1.0" encoding="utf-8"?>
<!-- Generator: Adobe Illustrator 24.1.2, SVG Export Plug-In . SVG Version: 6.00 Build 0)  -->
<svg version="1.1" id="welcome_1_" xmlns="http://www.w3.org/2000/svg" xmlns:xlink="http://www.w3.org/1999/xlink" x="0px" y="0px"
	 viewBox="0 0 1000 1000" style="enable-background:new 0 0 1000 1000;" xml:space="preserve">
<style type="text/css">
	.st0{fill:#FFAD00;}
	.st1{fill:#1D1D1B;}
	.st2{fill:#E89D00;}
	.st3{fill:#FFC140;}
	.st4{fill:#FFCDB2;}
	.st5{fill:#FFFFFF;}
	.st6{fill:#D9CFFF;}
	.st7{fill:#1D1E1B;}
</style>
<g id="hand">
	<path class="st0" d="M952.3,722.5c-29-66.1-80.9-111.9-165.1-101.5l-19.4-26.3c0,0-17,42.5-125.2,82.2l19.6,37.4
		c0,0-43.2,65.5,33.8,150.5c99.5,109.7,256.5,111.7,256.5,111.7L952.3,722.5z"/>
	<path class="st1" d="M767.8,594.7l19.4,26.3c7.7-1,15.5-1.5,23.3-1.5c70.7,0,115.7,43.1,141.9,103l0.2,254c0,0-157-2-256.5-111.7
		c-77-85-33.8-150.5-33.8-150.5l-19.6-37.4C750.8,637.2,767.8,594.7,767.8,594.7 M767.1,588.6l-2,5c-0.1,0.2-4.6,10.6-21.8,25.6
		c-16,13.9-46.7,34.8-101.7,55l-3.2,1.2l1.6,3l18.8,35.9c-2.8,4.8-10.5,20.3-11.5,43.4c-0.6,16.7,2.2,33.3,8.2,48.9
		c7.6,20.4,20.5,40.7,38.4,60.3c22.9,25.3,50.8,46.9,82.8,64.3c26.7,14.3,54.9,25.6,84.1,33.5c51.5,14.2,91.3,14.8,91.7,14.8h3v-3
		l-0.2-254v-0.6l-0.3-0.6c-14-32.3-32.6-57.6-55.1-75.1c-25.2-19.7-55.3-29.7-89.5-29.7c-7.3,0-14.6,0.4-21.9,1.3l-18.3-24.9
		L767.1,588.6L767.1,588.6z"/>
	<path class="st1" d="M731,944.9c-50-19.3-80.3-61.5-96.8-93.6c-10.8-20.7-18.9-42.8-24.2-65.5l2.9-0.6
		c5.2,22.5,13.3,44.3,23.9,64.8c16.3,31.6,46,73.2,95.2,92.1L731,944.9z"/>
	<path class="st2" d="M767.8,594.7c0,0-17,42.5-125.2,82.2l19.6,37.4c0,0,118.7-12,125-93.3L767.8,594.7z"/>
	<circle class="st3" cx="918" cy="757.8" r="18.2"/>
	<circle class="st3" cx="894.8" cy="889.7" r="18.2"/>
	<circle class="st3" cx="724.7" cy="782.5" r="18.2"/>
	<path class="st4" d="M450.9,578.1c0,0,11.3,124.3,196.3,97.1c0,0,99.5-19.1,120.7-80.5l-5.8-11c0,0,42.1-69.6,9.2-105.7
		c0,0-52.1,7.6-76.3,84.7c0,0-66.7-63.2-148.1-20.7c0,0-43.4-2.6-47.4,22C499.6,563.9,473.8,552.2,450.9,578.1z"/>
	<path d="M466,566c10.4-5.5,22.6-6.3,33.6-2.1c1.2-7.5,6.2-12.5,12.5-15.8c14.1-7.4,34.9-6.2,34.9-6.2
		c81.5-42.6,148.1,20.7,148.1,20.7c15-47.9,40.8-69,58.2-78.1c10.6-5.5,18-6.6,18-6.6c32.9,36.1-9.2,105.7-9.2,105.7l5.8,11
		c-9.2,26.7-33,45.3-57.2,58c-31.5,16.5-63.5,22.6-63.5,22.6c-184.9,27.3-196.3-97.1-196.3-97.1C455.2,573.2,460.3,569.1,466,566
		 M462.9,560c-6.5,3.5-12.2,8.1-17,13.6c-1.2,1.4-1.8,3.2-1.6,5c0.2,1.8,4.4,43.9,44,75.1c36.7,28.8,90.5,38.3,159.9,28.1l0.3,0
		c22.7-4.8,44.7-12.7,65.3-23.2c31.7-16.6,52-37.3,60.4-61.7c0.6-1.7,0.4-3.7-0.4-5.3l-4-7.8c8.3-15,38.4-75.4,6.5-110.4
		c-1.5-1.6-3.7-2.4-5.9-2.1c-0.3,0-8.7,1.3-20.2,7.3c-18.3,9.5-42.6,29.8-58.3,72.7c-11.6-8.7-24.4-15.8-37.9-21.1
		c-25.5-10-64.9-17.1-108.6,5.1c-5.8-0.1-23.4,0.1-36.5,7c-6.4,3.3-11,7.9-13.7,13.5C484.2,553.3,472.8,554.9,462.9,560L462.9,560z"
		/>
	<path d="M704,606.6l-0.2,0.1c-1.7,0.8-3.7,0-4.4-1.7c-0.2-0.4-4-8.2-16-11.7c-13-3.8-37.5-2.8-80.1,23.9c-1.1,0.7-2.4,0.7-3.5,0
		c-0.6-0.3-57.5-34.5-101.4-50.1c-1.7-0.6-2.7-2.5-2-4.3c0.6-1.7,2.5-2.7,4.3-2c40.1,14.2,90.8,43.7,100.8,49.6
		c35.3-21.8,63.6-29.6,84.1-23.4c14.8,4.5,19.7,14.8,19.9,15.3C706.2,603.8,705.6,605.8,704,606.6z"/>
	<path d="M636.9,580c-1.2,0.6-2.7,0.5-3.7-0.4c-0.3-0.3-30.6-25.7-88-36.5c-1.8-0.3-3-2.1-2.7-3.9c0.3-1.8,2.1-3,3.9-2.7
		c59.3,11.2,89.8,36.9,91.1,38c1.4,1.2,1.6,3.3,0.4,4.7C637.6,579.5,637.3,579.8,636.9,580z"/>
	<path class="st5" d="M636.4,662.8c-0.2,0.1-0.5,0.2-0.7,0.3c-68.7,21.6-133.7-21.9-136.5-23.8c-2-1.5-2.4-4.3-0.9-6.3
		c1.4-1.9,3.9-2.4,5.9-1.1c0.6,0.4,64.3,42.9,128.8,22.6c2.4-0.7,4.9,0.6,5.6,2.9C639.2,659.6,638.3,661.8,636.4,662.8L636.4,662.8z
		"/>
</g>
<g id="welcome">
	<path class="st6" d="M267.8,359.2c-2.6-5.6-7.7-9.7-13.8-11.1c-6.1-1.5-12.5-0.8-18.1,2c-11.1,5.4-16.7,13.4-16.7,23.8l5.8,98.9
		l-14.9-28.9c-6.2-12-12.4-23.5-18.2-34c-6.3-11.3-12.2-18-18-20.7c-6-2.7-12.4-2.5-19,0.7c-13,6.3-19.4,18.3-18.8,35.6
		c0.3,22.7,0.2,50.2-0.2,81.9l-8.9-18.2L113.6,459c-7-16.2-12.9-26-18.2-30c-5.8-4.4-13.3-4.4-22.2-0.1c-6.5,3.1-11.7,8.3-14.7,14.9
		c-3,6.2-3.8,13.2-2.1,19.9c1.6,6,4.7,13.8,9.3,23.2c24.8,51,40.7,81.3,48.6,92.5s15.6,19.2,22.6,23.7c7.7,4.8,14.2,6,19.4,3.5
		c7.7-3.8,12.9-11,15.3-21.7c2.3-10,3.8-32.3,4.5-68.2c0.3-15,0.6-26.7,0.9-35.1c18.9,39.9,32.7,63.6,42.1,72.3
		c10.9,10.1,21.2,12.9,30.5,8.4c7.7-3.6,13.7-10.1,16.7-18.1c2.8-7.5,4.9-17.3,6.2-29.1c1.4-11.8,1.4-36.4,0-75
		c-1.3-37.9-2-60.1-2-66C270.4,367.6,269.6,362.7,267.8,359.2z"/>
	<path class="st7" d="M150.5,609.3c-4.3,0-9.1-1.7-14.5-5c-7.2-4.5-15-12.7-23-24.1c-7.9-11.3-23.9-41.6-48.8-92.7
		c-4.7-9.5-7.8-17.5-9.4-23.5c-1.8-7-1-14.4,2.2-20.9c3.1-6.8,8.6-12.4,15.4-15.6C82,423,90,423,96.3,427.8
		c5.5,4.1,11.6,14.1,18.7,30.6l13.5,30.1l6.1,12.5c0.4-29.1,0.4-54.5,0.1-75.5c-0.5-17.9,6.1-30.4,19.7-37c7-3.4,13.8-3.7,20.3-0.8
		c6.1,2.8,12.2,9.7,18.7,21.3c5.9,10.5,12,22,18.3,34.1l11.6,22.6l-5.3-91.8c0-11.1,5.9-19.5,17.5-25.2c5.9-3,12.7-3.7,19.1-2.1
		c6.5,1.5,12,5.9,14.8,11.9l0,0c1.8,3.8,2.7,8.9,2.7,15.6c0,5.9,0.7,28,2,65.9c1.4,38.7,1.3,63.3,0,75.2c-1.3,12-3.5,21.8-6.3,29.4
		c-3.1,8.4-9.3,15.2-17.4,18.9c-10,4.8-20.8,2-32.2-8.6c-9.1-8.4-22.1-30.4-39.8-67.2c-0.3,7.6-0.5,17.3-0.7,28.9
		c-0.7,36-2.2,58.4-4.5,68.5c-2.6,11.1-8,18.7-16.1,22.7C154.9,608.8,152.7,609.3,150.5,609.3z M85.3,427.2c-4,0.1-7.9,1.2-11.5,3.1
		c-6.2,2.9-11.1,7.9-14,14.1c-2.9,5.8-3.6,12.5-2,18.8c1.5,5.9,4.6,13.6,9.1,23c24.8,51,40.7,81.2,48.5,92.3s15.3,19,22.2,23.3
		c7.2,4.5,13.3,5.7,17.9,3.5c7.3-3.5,12.2-10.5,14.5-20.7c2.3-9.9,3.7-32.1,4.4-67.8c0.3-14.9,0.6-26.8,0.9-35.1l0.3-6.1l2.6,5.5
		c18.8,39.8,32.4,63.2,41.7,71.8c10.4,9.6,20.1,12.4,28.8,8.1c7.4-3.4,13.1-9.6,15.9-17.3c2.7-7.4,4.8-17.1,6.1-28.8
		c1.4-11.7,1.4-36.3,0-74.8c-1.3-37.9-2-60.1-2-66c0-6.3-0.8-11-2.4-14.3c-2.4-5.2-7.2-9-12.8-10.3c-5.7-1.5-11.8-0.8-17.1,1.9
		c-10.5,5.1-15.8,12.6-15.8,22.4l6.2,105.9l-18.1-35.3c-6.2-12-12.4-23.4-18.2-34c-6.1-11-11.8-17.5-17.3-20s-11.5-2.3-17.7,0.7
		c-12.4,6-18.5,17.6-18,34.2c0.3,22.7,0.2,50.2-0.2,82l-0.1,6.3l-11.6-23.9l-13.6-30.2c-6.9-16-12.7-25.6-17.7-29.4
		C91.9,428.2,88.6,427.1,85.3,427.2z"/>
	<path class="st6" d="M409.8,301.8c-1.4-4.3-3.9-7.2-7.5-8.8s-7.6-1.3-11.8,0.8c-3.9,1.9-7.1,5-9,8.9c-2.1,3.9-2.5,8.5-1.2,12.8
		l42.2,138.9c1.4,4.7,4,7.8,7.9,9.3s7.8,1.2,11.9-0.8c9.5-4.6,12.3-14,8.1-27.7l0,0L409.8,301.8z"/>
	<path class="st7" d="M435.3,466.2c-1.9,0-3.7-0.3-5.4-1c-4.3-1.7-7.2-5.1-8.7-10.3L378.9,316c-1.5-4.6-1-9.6,1.3-13.9
		c2.1-4.2,5.5-7.5,9.7-9.6c4.7-2.3,9.1-2.5,13.1-0.8s6.8,5,8.3,9.7l0,0l40.6,133.4c4.4,14.5,1.5,24.5-8.9,29.5
		C440.6,465.5,438,466.1,435.3,466.2z M397.5,293.6c-2.2,0-4.4,0.6-6.4,1.6c-3.6,1.8-6.5,4.7-8.3,8.3c-1.9,3.6-2.3,7.8-1.1,11.6
		L424,454c1.3,4.2,3.6,7,7,8.4s7,1.1,10.7-0.8c8.9-4.3,11.3-12.8,7.3-25.9l-40.6-133.4c-1.2-3.8-3.5-6.5-6.6-7.9
		C400.4,293.9,399,293.6,397.5,293.6z"/>
	<path class="st6" d="M508.3,306.2c-10.4,0.3-19.2,2.2-26.3,5.6c-14,6.8-23.7,21.6-28.8,44c-5,22.2-4,40.8,3.1,55.4
		c5.5,11.4,14.2,18.7,25.8,21.7s24,1.3,37.2-5.1c6.6-3.2,14.2-9.9,23.1-20.4c9.3-10.9,12.3-19.3,9.3-25.6c-1.5-3.2-4.2-5.6-7.5-6.8
		c-3.5-1.3-7.3-1.1-10.6,0.6c-1.3,0.6-3.6,2.5-10.8,11.4c-4.7,6.1-9,10.1-13,12c-6.4,3.1-12.1,4.1-17,2.9c-4.6-1.1-8.5-4.3-10.4-8.6
		c-3.1-6.4-3.5-16.4-1.2-29.8c2.9-16.3,7-21.5,10-22.9c7-3.4,12.7-4.5,16.9-3.4c5,1.4,9.2,1.3,12.4-0.3c4.2-2,7.3-5.6,8.7-10
		c1.6-4.6,1.5-8.9-0.4-12.6C526.2,308.6,519.3,305.9,508.3,306.2z"/>
	<path class="st7" d="M493.4,435.8c-3.9,0-7.9-0.5-11.7-1.5c-12-3.2-21-10.8-26.8-22.5c-7.2-14.9-8.3-33.8-3.2-56.4
		c5.2-22.8,15.1-38,29.6-45c7.3-3.6,16.4-5.5,26.9-5.8l0,0c11.6-0.3,19,2.7,22,8.9c2,4.1,2.2,8.8,0.4,13.8c-1.5,4.8-5,8.7-9.5,10.9
		c-3.6,1.7-8.1,1.9-13.4,0.4c-3.8-1.1-9.2,0-15.9,3.3c-2.2,1.1-6.3,5.3-9.2,21.9c-2.3,13-2,22.8,1,28.9c1.8,3.9,5.2,6.8,9.4,7.8
		c4.5,1.1,9.9,0.2,16-2.8c3.7-1.8,7.9-5.7,12.4-11.6c7.3-9.1,9.7-11,11.3-11.8c3.7-1.9,7.9-2.1,11.8-0.6c3.7,1.3,6.7,4,8.3,7.5
		c3.4,6.9,0.3,15.8-9.5,27.2c-9,10.6-16.8,17.4-23.6,20.7C510.7,433.6,501.8,435.8,493.4,435.8z M508.4,307.7
		c-10.1,0.3-18.8,2.1-25.7,5.5c-13.6,6.6-23,21.1-28,43s-4,40.1,3,54.4c5.3,11,13.7,18,24.8,20.9s23.3,1.2,36.2-5
		c6.5-3.1,13.9-9.7,22.6-20s11.8-18.3,9.1-24c-1.4-2.8-3.8-5-6.7-6c-3.1-1.2-6.5-1-9.4,0.5c-1.6,0.8-5,4.4-10.3,10.9
		c-4.8,6.3-9.3,10.5-13.5,12.5c-6.8,3.3-12.8,4.3-18,3c-5.1-1.2-9.3-4.7-11.4-9.4c-3.3-6.7-3.7-17-1.3-30.7s6-21.7,10.8-24
		c7.4-3.6,13.4-4.7,18-3.5s8.4,1.2,11.3-0.2c3.8-1.8,6.7-5.1,8-9.2c1.5-4.2,1.3-8.1-0.3-11.5C525.2,309.9,518.7,307.5,508.4,307.7
		L508.4,307.7z"/>
	<path class="st6" d="M616.7,263c-9.7-4.3-20-3.9-30.7,1.3c-18.2,8.8-29.8,23.2-34.7,42.6s-3.3,37.2,4.4,53
		c5.6,11.5,13.9,19.3,24.8,23.4s22.3,3.3,33.8-2.3c16.4-8,26.9-21.6,31.2-40.5c4.3-18.8,2.4-36.7-5.7-53.4
		C634,275.4,626.3,267.3,616.7,263z M623.5,324.4c-2.3,9.9-7.8,17-16.3,21.2c-6,2.9-11.9,3.3-17.6,1.2s-10-6.2-12.9-12.2
		c-4-8.3-4.8-17.6-2.3-27.7c2.3-9.8,8.9-18,18.1-22.3c5.6-2.7,11-2.9,16-0.7s9,6.5,12,12.6C624.7,305.1,625.8,315,623.5,324.4
		L623.5,324.4z"/>
	<path class="st7" d="M594.4,387.5c-4.9,0-9.8-0.9-14.4-2.6c-11.2-4.2-19.8-12.3-25.6-24.1c-7.9-16.2-9.4-34.4-4.5-54.1
		c5-19.9,16.9-34.6,35.5-43.6c11.1-5.4,21.9-5.9,32-1.3l0,0c9.9,4.4,17.9,12.8,23.8,24.9c8.3,17,10.2,35.3,5.9,54.4
		c-4.4,19.4-15.2,33.4-32,41.6C608.6,385.7,601.6,387.4,594.4,387.5z M603.1,261.6c-5.7,0.1-11.4,1.5-16.5,4.1
		c-17.7,8.6-29.1,22.6-33.9,41.6s-3.3,36.5,4.3,52c5.4,11.1,13.5,18.7,23.9,22.6s21.5,3.1,32.6-2.3c16-7.8,26.2-21.1,30.4-39.5
		s2.3-36-5.6-52.4c-5.6-11.4-13-19.3-22.3-23.4l0,0C612,262.6,607.6,261.6,603.1,261.6z M596.9,349.6c-2.7,0-5.3-0.5-7.8-1.4
		c-6-2.3-10.7-6.6-13.8-13c-4.2-8.6-5-18.3-2.4-28.7c2.4-10.3,9.3-18.8,18.9-23.3c6-2.9,11.8-3.1,17.3-0.7
		c5.3,2.4,9.6,6.9,12.8,13.3c4.4,9,5.5,19.2,3.1,28.9l0,0c-2.4,10.4-8.1,17.8-17.1,22.2C604.5,348.6,600.7,349.5,596.9,349.6
		L596.9,349.6z M601.4,283.9c-2.9,0-5.7,0.8-8.3,2.1c-8.8,4-15.1,11.9-17.3,21.3c-2.4,9.7-1.7,18.7,2.2,26.7
		c2.7,5.6,6.8,9.5,12.1,11.5s10.8,1.6,16.5-1.1c8.1-4,13.3-10.7,15.5-20.2l0,0c2.2-9,1.2-18.5-2.9-26.9c-2.8-5.8-6.6-9.8-11.3-11.9
		C605.9,284.4,603.7,283.9,601.4,283.9L601.4,283.9z"/>
	<path class="st6" d="M739.8,187.8c-10.3,4.9-18.7,12.9-24,23c-6.9-4.9-15.2-5.1-24.7-0.5c-7.7,3.7-14.3,12.2-19.8,25.3
		c-0.2-1.5-0.6-3-1.2-4.4c-1.7-3.4-4.7-6-8.3-7.2c-3.8-1.4-8-1.2-11.6,0.6c-4.7,2.3-7.5,7.3-8.5,14.9c-0.9,7.2,0.5,15.7,4.1,25.3
		c2.2,5.9,4.7,13.6,7.6,22.9l11.4,37c1,3.8,2.4,7.4,4,11c5.4,11.1,12.9,10.3,18.3,7.7c4-1.8,7.4-4.9,9.7-8.7
		c2.2-3.5,2.6-7.8,1.2-11.7L685,276.6c3.8-13.4,8.4-24.1,13.5-31.8c0.9,2.1,1.7,4.3,2.3,6.5c2,6.4,6.2,17.5,12.7,32.7
		c4.6,10.8,7.8,18.7,9.5,23.6l3.8,11.1l0.1,0.2c1.5,3.2,4.4,5.7,7.8,6.7c3.7,1.2,7.7,0.8,11.1-1c3.4-1.7,6.2-4.4,8.1-7.7
		c1.9-3.4,2.7-7.3,2.3-11.2c-0.4-3.8-4.7-15.3-13.3-35.1c-6.5-14.4-10.7-24.7-12.4-30.5c2.4-4.1,5.1-8,8-11.8
		c5.7-7.6,7.4-9.1,7.9-9.4c0.4,0.1,3.1,1.3,9.3,14l21.9,50.5c3.2,6.5,6.2,10.4,9.4,11.9s7.2,1.2,11.8-1c3.9-1.9,7-5.1,9-9
		c2.3-4.3,2.4-9.1,0.3-14.3c-1.9-4.7-5.1-11.9-9.5-21.4c-8.2-17.7-12.6-27.2-13.1-28.3c-2.8-6.8-5.3-12.3-7.3-16.4
		C768.9,185.7,756,179.9,739.8,187.8z"/>
	<path class="st7" d="M680.8,346.4c-4.4,0-9.3-2.3-13.2-10.2c-1.7-3.6-3-7.4-4.1-11.2l-11.4-37c-2.8-9.3-5.4-16.9-7.6-22.8
		c-3.7-9.8-5.1-18.5-4.2-26c1-8.1,4.1-13.5,9.3-16c4-2,8.6-2.3,12.7-0.7c4,1.3,7.3,4.2,9.2,8c0.1,0.2,0.2,0.3,0.2,0.5
		c5.3-11.1,11.6-18.6,18.8-22.1c9.4-4.6,17.7-4.7,24.8-0.3c5.5-9.7,13.8-17.4,23.9-22.2l0,0c8.5-4.1,16.2-4.6,23-1.6
		s12.6,9.6,17.4,19.5c2,4.1,4.5,9.7,7.3,16.5c0.5,1.1,4.8,10.6,13.1,28.3c4.4,9.6,7.6,16.8,9.5,21.5c2.3,5.6,2.2,10.9-0.4,15.6
		c-2.1,4.2-5.5,7.5-9.7,9.6c-5,2.4-9.3,2.7-13,1c-3.5-1.7-6.8-5.8-10.1-12.6l-22-50.6c-4.3-8.8-6.7-11.7-7.8-12.7
		c-2.4,2.7-4.7,5.5-6.8,8.4c-2.7,3.5-5.3,7.2-7.6,11.1c1.8,5.9,5.9,15.9,12.1,29.7c8.7,20.3,13,31.5,13.4,35.6
		c0.5,4.2-0.4,8.4-2.5,12.1c-2,3.6-5,6.5-8.7,8.3c-3.8,2-8.2,2.4-12.2,1.1c-3.8-1.2-7-3.9-8.7-7.5l-0.1-0.3l-3.8-11.1
		c-1.7-4.9-4.9-12.8-9.5-23.5c-6.5-15.3-10.7-26.4-12.7-32.9c-0.4-1.3-0.8-2.6-1.2-3.7c-4.4,7.3-8.3,16.9-11.7,28.5l13,45.8
		c1.5,4.3,1,9-1.4,12.9c-2.4,4.1-6,7.3-10.3,9.3C685.7,345.8,683.3,346.4,680.8,346.4z M656.8,224.5c-2,0-4,0.5-5.9,1.4
		c-4.2,2-6.7,6.6-7.6,13.7s0.5,15.2,4,24.6c2.2,5.9,4.8,13.7,7.6,23l11.4,37c1,3.7,2.3,7.3,4,10.7c3.9,8,9.4,10.4,16.3,7
		c3.8-1.7,6.9-4.6,9-8.1c1.9-3.2,2.3-7,1.1-10.5l-13.3-46.7l0.1-0.4c3.9-13.5,8.5-24.4,13.7-32.2l1.5-2.3l1.1,2.5
		c0.9,2.2,1.7,4.4,2.4,6.7c2,6.4,6.2,17.4,12.6,32.6c4.6,10.8,7.9,18.8,9.6,23.7l3.8,11.2c1.4,2.8,3.9,5,6.9,5.9c3.3,1,6.9,0.7,10-1
		c3.1-1.5,5.7-4,7.4-7.1c1.8-3.1,2.5-6.8,2.1-10.3c-0.4-3.6-4.8-15.3-13.2-34.7c-6.5-14.5-10.7-24.8-12.5-30.7l-0.2-0.6l0.3-0.5
		c2.5-4.2,5.2-8.2,8.2-12c2.9-3.9,6.7-8.8,8.3-9.8l0.5-0.4l0.6,0.2c2.3,0.6,5.8,5.7,10.2,14.8l22,50.6c2.9,6,5.9,9.8,8.7,11.1
		s6.3,1,10.5-1c3.6-1.8,6.5-4.7,8.4-8.3c2.1-3.9,2.2-8.2,0.2-13s-5.1-11.8-9.5-21.4c-8.3-17.9-12.6-27.2-13.1-28.3
		c-2.8-6.7-5.3-12.2-7.2-16.3c-4.5-9.3-9.9-15.4-16-18.1s-12.9-2.2-20.5,1.5c-10,4.8-18.2,12.6-23.3,22.4l-0.8,1.5l-1.4-1
		c-6.4-4.6-14.2-4.7-23.1-0.4c-7.3,3.6-13.8,11.8-19.1,24.5l-1.9,4.4l-1-4.7c-0.2-1.4-0.6-2.7-1.1-4.1c-1.5-3.1-4.2-5.4-7.5-6.5
		C659.8,224.8,658.3,224.6,656.8,224.5z"/>
	<path class="st6" d="M890.1,201c-3.4,1.7-7.3,5.5-11.7,11.6c-4.9,6.5-11.3,11.7-18.6,15.1c-8.9,4.3-17,5.3-24.3,2.9l24.8-28.1
		c12-13.3,19.3-23.4,22.3-30.8c3.2-7.2,2.9-15.5-0.6-22.5c-3.8-7.8-10.3-12.1-19.5-12.9c-8.8-0.7-19.3,1.9-31.3,7.7
		c-18.4,9-29.7,23.7-33.7,43.9c-3.9,20-2.1,38,5.5,53.5c5.5,11.4,14.3,18.5,26.1,21.1c11.6,2.6,25,0.3,39.7-6.9
		c11.5-5.4,21.5-13.4,29.4-23.4c8-10.1,10-19.3,6.2-27.3C902.8,201.7,898.8,196.8,890.1,201z M820.5,199.9
		c6.8-25.5,27.9-52.5,47.9-43.3S815.3,219.1,820.5,199.9z"/>
	<path class="st7" d="M838.7,265.1c-3.3,0-6.6-0.3-9.9-1c-12.3-2.7-21.4-10.1-27.2-21.9c-7.7-15.8-9.6-34.1-5.6-54.4
		c4.1-20.6,15.7-35.8,34.5-44.9c12.2-5.9,23-8.6,32.1-7.9c9.7,0.8,16.7,5.4,20.7,13.7c3.7,7.4,4,16.1,0.6,23.7
		c-3.1,7.6-10.5,17.8-22.6,31.2l-23.2,26.3c6.3,1.4,13.3,0.3,20.9-3.4c7.2-3.3,13.4-8.4,18.1-14.7c4.6-6.4,8.6-10.3,12.3-12.1l0,0
		c4.3-2.1,8-2.4,11.1-0.8c2.3,1.2,4.1,3.2,5.2,5.5c4.2,8.5,2,18.3-6.3,28.9c-8.1,10.1-18.3,18.2-30,23.8
		C858.4,262.4,848.1,265.1,838.7,265.1z M859.6,137.8c-7.9,0-17.2,2.6-27.7,7.7c-17.9,8.7-29,23.1-32.9,42.8s-2,37.3,5.4,52.5
		c5.3,10.9,13.8,17.8,25.1,20.3s24.3,0.2,38.7-6.8c11.2-5.4,21.1-13.2,28.9-22.9c7.6-9.6,9.6-18.3,6-25.7c-0.8-1.8-2.1-3.2-3.8-4.1
		c-2.3-1.1-5.1-0.8-8.5,0.8c-3.2,1.6-6.9,5.2-11.2,11.1c-5,6.7-11.6,12.1-19.2,15.6c-9.2,4.5-17.8,5.5-25.4,3l-2.2-0.7l26.3-29.8
		c11.9-13.2,19.1-23.1,22.1-30.4c3-6.8,2.8-14.6-0.5-21.3c-3.5-7.3-9.7-11.3-18.3-12C861.5,137.9,860.5,137.8,859.6,137.8
		L859.6,137.8z M822.8,205.6c-0.6,0-1.1-0.1-1.7-0.2c-1-0.3-3.3-1.6-2.2-5.8l0,0c5.3-19.7,18-37.7,30.9-43.8
		c6.6-3.1,13-3.3,19.1-0.5c2.4,1.1,6.1,4,3.4,10.7c-3.2,8.3-14.8,19.1-24.5,26.4C844.8,194.8,830.2,205.6,822.8,205.6L822.8,205.6z
		 M860.1,156.3c-3.1,0-6.2,0.8-9,2.1c-12.1,5.7-24.1,22.9-29.2,41.9l0,0c-0.3,1.3-0.3,2,0.2,2.1c6.3,2.1,41.6-22.5,47.5-37.6
		c1.8-4.5-0.1-6.1-1.9-6.9C865.3,156.9,862.7,156.3,860.1,156.3L860.1,156.3z"/>
	<path class="st6" d="M388.7,448.3c-3.4,1.7-7.3,5.5-11.8,11.6c-4.9,6.5-11.3,11.7-18.6,15.1c-8.9,4.3-17,5.3-24.3,2.9l24.8-28.1
		c12-13.3,19.3-23.4,22.3-30.8c3.2-7.2,2.9-15.5-0.6-22.5c-3.8-7.8-10.3-12.1-19.5-12.9c-8.8-0.7-19.3,1.9-31.3,7.7
		c-18.4,8.9-29.7,23.7-33.7,43.9c-3.9,19.9-2.1,37.9,5.5,53.5c5.5,11.4,14.3,18.5,26.1,21.1c11.6,2.6,25,0.3,39.6-6.9
		c11.5-5.4,21.5-13.4,29.4-23.4c8-10.1,10-19.3,6.2-27.3C401.4,449,397.4,444,388.7,448.3z M319.1,447.2
		c6.8-25.5,27.9-52.5,47.9-43.3S314,466.3,319.1,447.2z"/>
	<path class="st7" d="M337.3,512.3c-3.3,0-6.6-0.3-9.9-1.1c-12.3-2.7-21.4-10.1-27.1-21.9c-7.7-15.8-9.6-34.1-5.6-54.4
		c4.1-20.6,15.7-35.8,34.5-44.9c12.2-6,23-8.6,32.1-7.9c9.7,0.8,16.7,5.4,20.7,13.7c3.7,7.4,3.9,16.1,0.6,23.7
		c-3.1,7.6-10.5,17.8-22.6,31.2l-23.2,26.3c6.3,1.4,13.3,0.3,20.9-3.4c7.2-3.3,13.4-8.4,18.1-14.7c4.6-6.4,8.6-10.3,12.3-12.1l0,0
		c4.3-2.1,8-2.4,11.1-0.8c2.3,1.2,4.1,3.2,5.2,5.5c4.1,8.5,2,18.2-6.3,28.9c-8.1,10.1-18.3,18.2-30,23.8
		C357,509.6,346.7,512.3,337.3,512.3z M358.2,385.1c-7.9,0-17.2,2.6-27.7,7.7c-17.9,8.7-29,23.1-32.9,42.8s-2.1,37.3,5.4,52.5
		c5.3,11,13.8,17.8,25.1,20.3s24.3,0.2,38.7-6.8c11.3-5.3,21.2-13.2,28.9-22.9c7.6-9.6,9.6-18.3,6-25.7c-0.8-1.8-2.1-3.2-3.8-4.1
		c-2.3-1.1-5.1-0.8-8.5,0.8c-3.2,1.6-6.9,5.2-11.2,11.1c-5,6.7-11.6,12.1-19.2,15.6c-9.2,4.5-17.8,5.5-25.4,3l-2.2-0.7l26.3-29.8
		c11.9-13.2,19.1-23.1,22.1-30.4c3-6.8,2.8-14.6-0.5-21.3c-3.5-7.3-9.7-11.3-18.3-12C360.1,385.1,359.1,385.1,358.2,385.1
		L358.2,385.1z M321.5,452.8c-0.6,0-1.1-0.1-1.7-0.2c-1-0.3-3.3-1.6-2.2-5.8l0,0c5.3-19.7,18-37.7,30.9-43.8
		c6.6-3.1,13-3.3,19.1-0.5c2.4,1.1,6.1,4,3.5,10.7c-3.3,8.3-14.8,19.1-24.5,26.4C343.5,442,328.8,452.8,321.5,452.8L321.5,452.8z
		 M358.7,403.5c-3.1,0-6.2,0.8-9,2.1c-12.2,5.7-24.2,23-29.3,41.9l0,0c-0.3,1.3-0.3,2,0.2,2.1c6.3,2.1,41.6-22.5,47.5-37.6
		c1.8-4.5-0.1-6.1-1.9-6.9C364,404.1,361.4,403.5,358.7,403.5L358.7,403.5z"/>
	<path class="st5" d="M257.5,512.5c-0.2,0-0.4,0-0.6,0c-2.7-0.3-4.7-2.8-4.4-5.5c0,0,0,0,0,0c7.8-67.4-5.8-144.8-5.9-145.5
		c-0.4-2.7,1.5-5.3,4.2-5.7c2.6-0.4,5.1,1.3,5.6,3.9c0.1,0.8,14,79.5,6,148.5C262.2,510.6,260,512.5,257.5,512.5z"/>
	<path class="st5" d="M159,594c-0.5,0-1-0.1-1.4-0.2c-2.6-0.8-4.1-3.6-3.3-6.2c0,0,0,0,0,0c12.6-41.5,4.9-121.3,4.8-122.1
		c-0.3-2.8,1.7-5.2,4.5-5.5s5.2,1.7,5.5,4.5c0.3,3.4,7.9,82.5-5.2,125.9C163.2,592.6,161.2,594,159,594z"/>
	<path class="st5" d="M370,427.5c-0.5,0-1-0.2-1.5-0.5c-1.1-0.8-1.4-2.4-0.5-3.5c6.5-8.9,8.7-16.4,6.6-22.1
		c-2.7-7.5-12.1-10-12.2-10c-1.3-0.3-2.2-1.7-1.8-3s1.7-2.2,3-1.8c0.5,0.1,12,3.1,15.6,13.1c2.7,7.4,0.3,16.4-7.2,26.8
		C371.6,427.1,370.8,427.5,370,427.5z"/>
	<path class="st5" d="M427.5,395c-1.1,0-2.1-0.7-2.4-1.8l-25-86c-0.4-1.3,0.4-2.7,1.7-3.1c1.3-0.4,2.7,0.4,3.1,1.7l25,86
		c0.4,1.3-0.4,2.7-1.7,3.1l0,0C428,395,427.7,395,427.5,395z"/>
	<path class="st5" d="M455.5,377c-0.1,0-0.3,0-0.4,0c-1.3-0.2-2.2-1.5-2-2.9c5.1-29.7,14.7-49,28.6-57.4c10.9-6.6,20.3-3.7,20.7-3.5
		c1.3,0.4,2,1.8,1.6,3.2c-0.4,1.3-1.8,2-3.1,1.6c-0.3-0.1-7.8-2.3-16.7,3.1C475.5,326.3,464,340,458,375
		C457.8,376.2,456.7,377,455.5,377z"/>
	<path class="st5" d="M642.5,331c-1.3,0-2.4-1-2.5-2.4c-2.9-57.2-38.4-61.6-38.8-61.6c-1.4-0.1-2.4-1.4-2.2-2.8s1.4-2.4,2.8-2.2
		c0.4,0,10.4,1.2,20.8,10.1c9.4,8.1,20.9,24.4,22.5,56.3c0.1,1.4-1,2.5-2.4,2.6L642.5,331z"/>
	<path class="st5" d="M790.5,252c-1,0-1.9-0.6-2.3-1.6c-17.7-43.6-28.5-51.9-32.3-53.5c-0.6-0.3-1.3-0.4-2-0.3
		c-1.1,0.8-2.7,0.5-3.5-0.6s-0.5-2.7,0.6-3.5l0,0c0.3-0.3,2.3-1.5,5.5-0.6c9.8,2.7,22.3,22.3,36.3,56.7c0.5,1.3-0.1,2.7-1.4,3.3
		c0,0,0,0,0,0C791.1,251.9,790.8,252,790.5,252z"/>
	<path class="st5" d="M731.5,263c-1.1,0-2.1-0.8-2.4-1.8c-8.8-32.1-18.5-40.7-25.2-42.3c-7-1.7-12.3,4.1-12.5,4.3
		c-0.9,1-2.5,1.1-3.5,0.2c-1-0.9-1.1-2.5-0.2-3.5l0,0c0.3-0.3,7.4-8.2,17.4-5.9c11.6,2.7,21.3,18.2,28.9,45.9
		c0.4,1.3-0.4,2.7-1.8,3.1C731.9,263,731.7,263,731.5,263z"/>
	<path class="st5" d="M877.5,172c-0.2,0-0.4,0-0.6-0.1c-1.3-0.3-2.1-1.7-1.8-3c2.1-8.6,1.2-15.1-2.5-19.3
		c-6.9-7.6-21.5-5.6-21.7-5.6c-1.4,0.2-2.6-0.8-2.8-2.2c-0.2-1.3,0.8-2.6,2.1-2.8c0.7-0.1,17.4-2.4,26.1,7.2
		c5,5.5,6.2,13.5,3.7,23.9C879.6,171.2,878.6,172,877.5,172z"/>
	<path class="st6" d="M329,557.2l375.3-170.4c7-3.2,15.3-0.1,18.5,6.9l0,0c3.2,7,0.1,15.3-6.9,18.5L340.6,582.6
		c-7,3.2-15.3,0.1-18.5-6.9l0,0C318.9,568.6,322,560.4,329,557.2z"/>
	<path class="st7" d="M334.8,585.3c-8.5,0-15.4-6.9-15.5-15.4c0-6.1,3.5-11.6,9.1-14.1l375.2-170.4c7.8-3.5,16.9-0.1,20.4,7.7
		s0.1,16.9-7.7,20.4l0,0L341.2,583.9C339.2,584.8,337,585.3,334.8,585.3z M710.1,387c-1.8,0-3.5,0.4-5.1,1.1L329.7,558.5
		c-6.3,2.8-9,10.2-6.2,16.5c2.8,6.3,10.2,9,16.5,6.2l375.2-170.4l0.6,1.4l-0.6-1.4c6.3-2.8,9.1-10.2,6.2-16.5
		C719.4,389.9,715,387,710.1,387z"/>
	<path class="st5" d="M573,460c-2.8,0-5-2.2-5-5c0-2,1.2-3.8,3-4.6l133-57c2.5-1.1,5.5,0.1,6.6,2.6s-0.1,5.5-2.6,6.6l0,0l-133,57
		C574.3,459.9,573.7,460,573,460z"/>
	<path class="st7" d="M141.3,665.7c-7.8,0-15.5-1.4-22.8-4.2c-42-15.7-64.5-69.5-65.4-71.8c-0.4-1,0.1-2.2,1.1-2.6
		c1-0.4,2.2,0.1,2.6,1.1c0.2,0.5,22.7,54.5,63.1,69.5c17.3,6.4,35.4,4.9,54.1-4.6c1-0.4,2.2,0.1,2.6,1.1c0.4,0.9,0,2-0.8,2.5
		C164.2,662.7,152.6,665.7,141.3,665.7z"/>
	<path class="st7" d="M450,258c-0.9,0-1.7-0.6-2-1.5c-15.6-66.2,2.2-122.7,20-158.5c19.2-38.7,42.4-62.2,42.6-62.4
		c0.7-0.8,2-0.9,2.8-0.2c0.8,0.7,0.9,2,0.2,2.8c-0.1,0.1-0.1,0.2-0.2,0.2c-0.2,0.2-23,23.3-41.9,61.5
		c-17.4,35.1-34.9,90.7-19.5,155.6c0.3,1.1-0.4,2.2-1.5,2.4c0,0,0,0,0,0C450.3,258,450.2,258,450,258z"/>
	<path class="st7" d="M478,246c-1.1,0-1.9-0.8-2-1.9c-4-74.9,43.9-136.7,44.4-137.4c0.7-0.9,1.9-1,2.8-0.3c0.9,0.7,1,1.9,0.3,2.8
		c-0.5,0.6-47.5,61.3-43.6,134.6c0.1,1.1-0.8,2-1.9,2.1c0,0,0,0,0,0L478,246z"/>
</g>
<g id="line">
	<path class="st7" d="M954.5,957c-0.8,0-1.5-0.7-1.5-1.5v-580c0-0.8,0.7-1.5,1.5-1.5s1.5,0.7,1.5,1.5v580
		C956,956.3,955.3,957,954.5,957z"/>
	<path class="st7" d="M925.5,429c-0.8,0-1.5-0.7-1.5-1.5v-114c0-0.8,0.7-1.5,1.5-1.5s1.5,0.7,1.5,1.5v114
		C927,428.3,926.3,429,925.5,429z"/>
</g>
</svg>
