<?xml version="1.0" encoding="utf-8"?>
<!-- Generator: Adobe Illustrator 24.1.2, SVG Export Plug-In . SVG Version: 6.00 Build 0)  -->
<svg version="1.1" id="wi-fi_1_" xmlns="http://www.w3.org/2000/svg" xmlns:xlink="http://www.w3.org/1999/xlink" x="0px" y="0px"
	 viewBox="0 0 1000 1000" style="enable-background:new 0 0 1000 1000;" xml:space="preserve">
<style type="text/css">
	.st0{fill:#D9CFFF;}
	.st1{fill:#FFAD00;}
	.st2{fill:#FFFFFF;}
	.st3{fill:#6C32AD;}
	.st4{fill:#FFCDB2;}
	.st5{fill:#FFB49F;}
	.st6{fill:#FFC140;}
</style>
<g id="line">
	<path d="M928.4,886.1H100.3c-0.8,0-1.5-0.7-1.5-1.5s0.7-1.5,1.5-1.5h828.1c0.8,0,1.5,0.7,1.5,1.5S929.2,886.1,928.4,886.1
		L928.4,886.1z"/>
	<path d="M979.5,916h-102c-0.8,0-1.5-0.7-1.5-1.5s0.7-1.5,1.5-1.5h102c0.8,0,1.5,0.7,1.5,1.5S980.3,916,979.5,916z"/>
	<path d="M132.5,857h-103c-0.8,0-1.5-0.7-1.5-1.5s0.7-1.5,1.5-1.5h103c0.8,0,1.5,0.7,1.5,1.5S133.3,857,132.5,857z"/>
</g>
<g id="star">
	<path d="M138.3,261c-0.1,0-0.1,0-0.2,0c-0.8-0.1-1.4-0.9-1.3-1.7c0,0,0,0,0,0c4.1-27.3,22.5-45.9,37.2-56.7
		c9.6-7.1,20.1-12.8,31.2-17.1c0.8-0.3,1.6,0.1,1.9,0.9c0.3,0.8-0.1,1.6-0.9,1.9c-0.6,0.2-58.9,21.1-66.4,71.4
		C139.6,260.5,139,261,138.3,261z"/>
	<path class="st0" d="M154.2,298.6l-14.6-1.9c-2.5-0.3-5.1,0.1-7.4,1.4l-12.9,7c-5.9,3.2-13.3,1-16.6-4.9c-0.6-1.1-1-2.3-1.3-3.6
		l-2.7-14.4c-0.5-2.5-1.7-4.8-3.6-6.6l-10.6-10.1c-4.9-4.7-5.1-12.4-0.4-17.3c0.9-0.9,1.9-1.7,3-2.3l12.9-7c2.3-1.2,4.1-3.1,5.2-5.5
		l6.3-13.2c2.9-6.1,10.2-8.7,16.3-5.8c1.2,0.6,2.2,1.3,3.2,2.2l10.7,10.1c1.9,1.8,4.2,2.9,6.8,3.2l14.5,1.9
		c6.7,0.9,11.4,7,10.5,13.7c-0.2,1.3-0.5,2.5-1.1,3.6l-6.3,13.3c-1.1,2.3-1.5,4.9-1,7.4l2.7,14.4c1.2,6.6-3.2,13-9.8,14.2
		C156.8,298.7,155.5,298.8,154.2,298.6z"/>
	<path d="M122.6,213.2c3.1,0,6.1,1.2,8.4,3.3l10.7,10.1c1.9,1.8,4.2,2.9,6.8,3.2l14.6,1.9c6.7,0.9,11.4,7,10.5,13.7
		c-0.2,1.3-0.5,2.5-1.1,3.6l-6.3,13.3c-1.1,2.3-1.5,4.9-1,7.4l2.7,14.4c1.2,6.6-3.2,13-9.8,14.2c-0.7,0.1-1.5,0.2-2.2,0.2
		c-0.5,0-1.1,0-1.6-0.1l-14.6-1.9c-0.5-0.1-1-0.1-1.6-0.1c-2,0-4,0.5-5.8,1.5l-12.9,7c-1.8,1-3.8,1.5-5.8,1.5c-5.9,0-10.9-4.2-12-10
		l-2.7-14.4c-0.5-2.5-1.7-4.8-3.6-6.6l-10.7-10.1c-4.9-4.7-5.1-12.4-0.4-17.3c0.9-0.9,1.9-1.7,3-2.3l12.9-7c2.3-1.2,4.1-3.1,5.2-5.5
		l6.3-13.2C113.5,215.9,117.9,213.2,122.6,213.2 M122.6,210.2L122.6,210.2c-5.9,0-11.3,3.3-13.8,8.7l-6.3,13.2
		c-0.8,1.7-2.2,3.2-3.9,4.1l-12.9,7c-7.4,4-10.1,13.3-6,20.7c0.8,1.4,1.7,2.6,2.9,3.7l10.6,10.1c1.4,1.3,2.4,3.1,2.7,5l2.7,14.4
		c1.5,8.3,9.5,13.7,17.7,12.2c1.6-0.3,3.1-0.8,4.5-1.6l12.9-7c1.3-0.7,2.9-1.1,4.4-1.1c0.4,0,0.8,0,1.2,0.1l14.6,1.9
		c0.7,0.1,1.3,0.1,2,0.1c8.4,0,15.2-6.9,15.2-15.3c0-0.9-0.1-1.8-0.3-2.7l-2.7-14.4c-0.4-1.9-0.1-3.9,0.7-5.6l6.3-13.3
		c3.6-7.6,0.3-16.7-7.3-20.3c-1.4-0.7-2.9-1.1-4.5-1.3l-14.6-1.9c-1.9-0.3-3.7-1.1-5.1-2.4L133,214.3
		C130.2,211.7,126.5,210.2,122.6,210.2L122.6,210.2z"/>
	<path d="M118.8,250.7L118.8,250.7c-0.9,0-1.5-0.8-1.5-1.6c0,0,0,0,0,0c1.7-28.3,26.7-67.5,74.5-116.3
		c22.6-22.9,46.4-44.6,71.3-64.9c0.6-0.5,1.6-0.4,2.1,0.2c0.5,0.6,0.4,1.6-0.2,2.1c-1.4,1.1-140.8,113.1-144.6,179.1
		C120.3,250.1,119.7,250.7,118.8,250.7z"/>
</g>
<path class="st1" d="M469.3,193c0-41.5,44.9-75.2,100.2-75.2s100.2,33.7,100.2,75.2s-44.9,75.2-100.2,75.2c-6.8,0-13.5-0.5-20.2-1.5
	l-22.7,22l-5.3-29.8C490.3,246.1,469.3,221.4,469.3,193z"/>
<path d="M526.6,290.2c-0.7,0-1.3-0.5-1.5-1.2l-5.2-29c-32.2-13.6-52.1-39.2-52.1-67c0-42.3,45.6-76.7,101.7-76.7
	s101.7,34.4,101.7,76.7s-45.6,76.7-101.7,76.7c-6.6,0-13.2-0.5-19.7-1.4l-22.2,21.5C527.4,290.1,527,290.2,526.6,290.2z
	 M569.5,119.2c-54.4,0-98.7,33.1-98.7,73.7c0,26.8,19.5,51.5,51,64.5c0.5,0.2,0.8,0.6,0.9,1.1l4.8,27l20.7-20.1
	c0.3-0.3,0.8-0.5,1.3-0.4c6.6,1,13.3,1.5,20,1.5c54.4,0,98.7-33.1,98.7-73.7S624,119.3,569.5,119.2L569.5,119.2z"/>
<path class="st2" d="M501.2,228.7c-2.1-2.2-4.1-4.5-5.8-7.1c-1.7-2.5-3.2-5.1-4.5-7.9c-0.2-0.4-0.3-0.7-0.5-1.1l-0.2-0.6
	c0.1,0.3,0,0,0-0.1c-0.3-0.7-0.6-1.5-0.9-2.2c-0.5-1.4-1-2.9-1.4-4.4s-0.7-2.9-1-4.4c-0.1-0.3-0.1-0.6-0.2-1l-0.1-0.6
	c0,0-0.1-0.7,0-0.3c-0.1-0.8-0.2-1.5-0.2-2.3c-0.3-3-0.2-6,0.1-9c0-0.3,0.1-0.7,0.1-1l0.1-0.5c-0.1,0.4,0-0.2,0-0.2
	c0.1-0.7,0.2-1.5,0.4-2.2c0.3-1.4,0.6-2.8,1-4.1s0.8-2.7,1.3-4c0.1-0.4,0.3-0.7,0.4-1.1l0.2-0.4c0-0.1,0.2-0.5,0.1-0.1
	c0.3-0.7,0.6-1.4,0.9-2.1c1.3-2.6,2.7-5.2,4.4-7.6c1.8-2.7,3.9-5.2,6.1-7.4c1.2-1.2,2.4-2.4,3.7-3.5c1.4-1.2,2.4-2,3.9-3
	c0.9-0.6,1.3-1.8,0.7-2.7c-0.6-1-1.8-1.3-2.7-0.7c-10.4,7.3-18.1,17.6-22.2,29.6c-3.9,11.9-3.3,24.9,1.5,36.5
	c2.8,6.8,6.9,13.1,12.1,18.3c0.8,0.8,2,0.8,2.8,0C502,230.8,502,229.6,501.2,228.7L501.2,228.7L501.2,228.7z"/>
<path d="M603.3,150.3c-0.8,0-1.5-0.6-1.5-1.5s0.6-1.5,1.5-1.5c41.8-2.8,75.6-26,96.5-45c13.6-12.2,25.7-26,36-41.1
	c0.4-0.7,1.4-0.9,2.1-0.5c0.7,0.4,0.9,1.4,0.5,2.1c-10.4,15.3-22.7,29.3-36.4,41.7c-21.3,19.3-55.8,43-98.4,45.8L603.3,150.3z"/>
<path d="M653.5,183c-2.5,0-5-0.1-7.6-0.4c-0.8-0.1-1.4-0.8-1.4-1.6c0.1-0.8,0.8-1.4,1.6-1.4c47.7,4.6,72.7-37.6,73-38
	c0.4-0.7,1.3-1,2-0.5s1,1.3,0.5,2C721.5,143.5,698.2,183,653.5,183z"/>
<path class="st2" d="M603,234.3c-1,0-2-0.4-2.7-1.2l-59.5-68.6c-1.3-1.4-1.2-3.6,0.2-4.9c1.4-1.3,3.6-1.2,4.9,0.2
	c0.1,0.1,0.1,0.1,0.2,0.2l59.5,68.6c1.3,1.5,1.1,3.7-0.4,5C604.6,234,603.8,234.3,603,234.3z"/>
<path class="st2" d="M543.5,229.1c-1.9,0-3.5-1.5-3.5-3.5c0-0.9,0.3-1.8,1-2.4l59.5-63.4c1.4-1.4,3.6-1.4,4.9,0
	c1.3,1.3,1.4,3.4,0.2,4.8L546,228C545.4,228.7,544.5,229.1,543.5,229.1z"/>
<g id="woman">
	<path d="M72.1,711.8c-0.6,0-1.2-0.4-1.4-0.9C41,637,44.5,582,52.8,548.9c8.9-36,24.7-54.3,25.4-55.1c0.6-0.6,1.5-0.7,2.1-0.1
		s0.7,1.5,0.1,2.1l0,0c-0.2,0.2-16,18.6-24.8,54c-8.1,32.7-11.5,87,17.9,159.9c0.3,0.8,0,1.7-0.8,2c0,0,0,0,0,0
		C72.5,711.8,72.3,711.8,72.1,711.8z"/>
	<path class="st3" d="M658.6,368.7c-141.3,20.6-99.7,34.4-255.3-36.2c-87.1-39.6-197.6-6.3-236.9,84
		c-28.1,64.6-103.7,101-93.9,204.7c17.6,185.6,138.1,261.5,138.1,261.5l535.6-8.9L658.6,368.7z"/>
	<path d="M326.8,316.1c26.4,0,52.5,5.6,76.6,16.4c87.9,39.9,112.9,52.8,143.4,52.8c23.5,0,50.4-7.7,111.9-16.6l87.7,505.2
		l-535.6,8.9c0,0-120.5-75.9-138.1-261.5c-9.8-103.7,65.8-140.2,93.9-204.7C194.8,351.6,259.9,316.1,326.8,316.1 M326.8,313.1
		c-33.8-0.1-67.1,8.9-96.1,26.3c-29.7,17.7-53.1,44.3-66.9,76c-9.2,21.2-23.6,39.2-38.8,58.2c-15,18.8-30.5,38.3-41.4,61.7
		c-12.3,26.6-16.9,54.8-13.9,86.3c4,42.6,13.9,83,29.2,120c12,29.2,27.8,56.7,47,81.9c32.3,42.1,62,61.1,63.3,61.9
		c0.5,0.3,1,0.5,1.6,0.5l0,0l535.6-8.9c1.7,0,3-1.4,2.9-3.1c0-0.2,0-0.3,0-0.5l-87.6-505.1c-0.2-1.4-1.5-2.5-3-2.5
		c-0.1,0-0.3,0-0.4,0c-25.2,3.7-44.6,7.1-60.2,9.9c-22.6,4-37.5,6.7-51.2,6.7c-26.8,0-49.7-10.4-117.5-41.4l-24.6-11.2
		C380.1,318.7,353.6,313,326.8,313.1L326.8,313.1z"/>
	<path class="st1" d="M302.8,883.7c0,0,119.8-175.3,362.1-177c249.4-1.8,223.5,178.8,223.5,178.8L302.8,883.7z"/>
	<path d="M888.4,887L888.4,887l-585.6-1.8c-0.8,0-1.5-0.7-1.5-1.5c0-0.3,0.1-0.6,0.3-0.8c0.3-0.4,30.8-44.5,90.5-88.2
		c34.8-25.5,73-46,113.5-61c50.3-18.5,103.9-28.1,159.3-28.5c87.7-0.7,151.2,21,189,64.2c44.8,51.3,36.1,115.6,36,116.3
		C889.8,886.4,889.1,887,888.4,887z M305.7,882.2L887,884c1-9.3,4.9-66.4-35.5-112.6c-37.2-42.5-100-63.8-186.6-63.2
		c-124.8,0.9-216.3,48.8-271,88.9C342.3,834.7,312.8,872.6,305.7,882.2z"/>
	<path class="st2" d="M611.7,709.9c0,0-33.1,46.2,10,61.3s81.6-20.7,81.6-20.7s8,42.9,75.1,27.7s3.9-56.5,3.9-56.5
		S722.2,697.9,611.7,709.9z"/>
	<path d="M751.9,783c-13.2,0-24.2-2.9-32.9-8.6c-7.7-5-13.6-12.5-16.5-21.2c-8.3,6.8-43.1,32.7-81.2,19.4
		c-11.6-4-18.9-10.7-21.8-19.8c-6.2-19.4,10.4-42.8,11.1-43.8c0.2-0.3,0.6-0.6,1.1-0.6c109.6-11.9,170.7,11.7,171.3,12
		c0.1,0,0.2,0.1,0.3,0.1c1.3,0.8,30.6,20.2,27.4,38.1c-1.7,9.6-12.4,16.7-31.8,21.1C769.9,781.8,760.9,782.9,751.9,783z M703.3,749
		c0.7,0,1.4,0.5,1.5,1.2c2.4,9,8.1,16.7,15.9,21.7c13.5,8.8,32.8,10.4,57.4,4.9c18.1-4.1,28-10.4,29.5-18.7
		c2.8-15.4-23.9-33.6-26-35c-3.3-1.3-63.2-23.1-169-11.8c-2.4,3.6-15.5,24.2-10.3,40.6c2.6,8.1,9.3,14.1,19.9,17.8
		c6.8,2.4,14,3.6,21.3,3.6c32.5,0,58.5-23.7,58.8-24C702.6,749.1,702.9,749,703.3,749z"/>
	<circle class="st3" cx="855" cy="356.5" r="78.1"/>
	<path d="M855,278.4c43.1,0.1,78,35.1,77.9,78.2c-0.1,42.2-33.7,76.7-75.9,77.9c-0.7,0-1.4,0-2.1,0c-43.1-0.1-78-35.1-77.9-78.2
		c0.1-42.2,33.7-76.7,75.9-77.9C853.6,278.4,854.3,278.4,855,278.4 M855,275.4L855,275.4c-0.7,0-1.5,0-2.2,0
		c-44.8,1.2-80.1,38.5-78.8,83.3c1.2,43.9,37.1,78.8,80.9,78.9h2.2c44.8-1.2,80.1-38.5,78.8-83.3C934.8,310.4,898.9,275.4,855,275.4
		z"/>
	<path class="st3" d="M554.2,483c0,0-29-65.8,12.7-100s51.4-25,72.2-44.5s75.1-23.3,109,6.6c0,0,65.9-13.6,104.6,18.5
		S897,424,893.3,464.3s1.6,61.5,0,89.9S874.5,656.6,757.6,662S554.2,483,554.2,483z"/>
	<path d="M687,323.3c20.9,0,43.7,6.5,61.2,21.8c10.7-1.9,21.6-2.9,32.5-2.9c22.1,0,51.1,4,72.1,21.4c38.7,32.1,44.2,60.4,40.5,100.7
		s1.6,61.5,0,89.9S874.5,656.6,757.6,662c-1.7,0.1-3.4,0.1-5,0.1C638.2,662.2,554.2,483,554.2,483s-29-65.8,12.7-100
		s51.4-25,72.2-44.5C649.2,329,667.2,323.3,687,323.3 M687,320.3c-20.5,0-39.2,6-49.9,16c-8.9,8.3-15.6,11.2-24.1,14.8
		c-10.9,4.6-24.5,10.4-48,29.6c-17.8,14.7-25.8,37.4-23,65.5c1.3,13.1,4.6,25.9,9.5,38.1v0.1c15.8,31.9,34.8,62.1,56.6,90.2
		c20.7,26.2,42,47.2,63.5,62.2c27,18.9,54.2,28.5,81,28.5c1.7,0,3.5,0,5.2-0.1c51.3-2.4,89.4-18,113.3-46.3
		c20.2-24,24.5-50.6,25.3-64.3c0.7-12.2,0.1-23-0.5-34.5c-0.8-15.9-1.7-32.3,0.4-55.4c2.1-23.5,0.8-39.8-4.5-54.7
		c-6.2-17.3-18-32.7-37.1-48.6c-22-18.3-52.4-22.1-74-22.1c-10.6,0-21.2,0.9-31.7,2.6C732.6,327.9,710.6,320.3,687,320.3L687,320.3z
		"/>
	<path class="st4" d="M659.3,655.1L630.4,708c0,0,46.5,66.2,135.5,9.7c0,0-14.5-33.6-6.4-119.7c0,0,38.2,10.8,49.1-22.6
		s-10.8-51.8-29.8-51.3c0,0-77.9,9.2-72.3-140.1c0,0-73.6-7.5-119.4,48.1S515,566.6,551.7,613S659.3,655.1,659.3,655.1z"/>
	<path d="M697.6,383.7c5.7,0,9,0.3,9,0.3c-4.9,133,56.3,140.2,69.8,140.2c0.9,0,1.7,0,2.6-0.1h0.8c18.7,0,39.8,18.3,29,51.3
		c-6.6,20.3-23.3,24.3-35.4,24.3c-4.6,0-9.2-0.6-13.7-1.7c-8.1,86.1,6.4,119.7,6.4,119.7c-26.6,16.9-49.5,22.8-68.4,22.8
		c-44.3,0-67.2-32.5-67.2-32.5l28.9-52.9c0,0-1.7,0.1-4.7,0.1c-16.4,0-71.9-3-102.9-42.2c-36.7-46.3-10.4-125.1,35.5-180.8
		C623.3,388.4,676.5,383.7,697.6,383.7 M697.6,380.7c-21.6,0-75.9,4.8-112.7,49.5c-24.2,29.4-41.7,63.1-49.3,95.1
		c-8.6,36.2-3.8,67.2,13.8,89.5c31.6,39.9,87.7,43.3,104.9,43.4l-26.4,48.4c-0.5,1-0.5,2.2,0.2,3.2c0.3,0.3,6.1,8.6,17.7,17
		c15.1,11,33.3,16.8,52,16.8c22.1,0,45.6-7.8,70-23.3c1.2-0.8,1.7-2.4,1.2-3.7c-0.1-0.3-13.7-33.3-6.5-114.9c3.6,0.7,7.3,1,11,1
		c19.1,0,32.7-9.3,38.2-26.3c5.2-15.7,3.8-30.2-3.9-40.8c-6.5-9-16.9-14.3-28-14.4h-0.8h-0.3c0,0-0.8,0.1-2.2,0.1
		c-6.3,0-22.7-1.7-37.7-17.3c-21.4-22.2-31.2-62.5-29.1-119.9c0.1-1.6-1.1-2.9-2.7-3.1C706.7,381.1,703.3,380.7,697.6,380.7
		L697.6,380.7z"/>
	<path d="M768.6,582.7c-0.8,0-1.5-0.7-1.5-1.5c0-0.5,0.3-1,0.7-1.3c11.5-6.9,17.4-14.1,17.5-21.6c0.2-10.7-11.5-18.5-11.6-18.6
		c-0.7-0.5-0.8-1.4-0.4-2.1c0.5-0.6,1.3-0.8,2-0.4c0.5,0.3,13.2,8.8,13,21.1c-0.2,8.6-6.6,16.7-19,24.2
		C769.2,582.7,768.9,582.7,768.6,582.7z"/>
	<path class="st5" d="M654.8,475.8c32.8,23.3,88.3,28.4,91.1,44.9c2.8,16.5-11,31.1-32.4,26.9s-40.6-13.1-79-33.4
		c-38.4-20.3-74.5-43-60.8-62.3S606.6,441.6,654.8,475.8z"/>
	<path d="M660.6,657.2c-1.5,0-3,0-4.4-0.2c-0.8-0.1-1.5-0.8-1.4-1.6c0.1-0.8,0.8-1.5,1.6-1.4c21.7,1.6,47.4-10.1,47.7-10.2
		c0.7-0.4,1.6-0.1,2,0.6c0.4,0.7,0.1,1.6-0.6,2c-0.1,0-0.1,0.1-0.2,0.1C704.3,647,681.9,657.2,660.6,657.2z"/>
	<path d="M606.5,436.7c-0.8,0-1.5-0.7-1.5-1.5c0-0.6,0.3-1.1,0.8-1.3c8.4-3.8,17.7-5,26.9-3.6c0.8,0.1,1.4,0.9,1.3,1.7c0,0,0,0,0,0
		c-0.1,0.8-0.9,1.4-1.7,1.2c-8.5-1.3-17.2-0.1-25,3.3C607,436.7,606.8,436.7,606.5,436.7z"/>
	<path d="M748.7,501.4c-0.7,0-1.3-0.4-1.4-1.1c-0.2-0.8-5.5-18.6-21.8-18c-0.8,0-1.5-0.6-1.5-1.4c0-0.8,0.6-1.5,1.4-1.6c0,0,0,0,0,0
		c18.7-0.7,24.7,19.9,24.8,20.1c0.2,0.8-0.2,1.6-1,1.9C749,501.3,748.9,501.4,748.7,501.4z"/>
	<path d="M783.5,522.7c-10.8,0-22-1.6-31.8-6.4c-0.7-0.4-1.1-1.3-0.7-2s1.3-1.1,2-0.7c29.7,14.4,74.4-1.5,74.8-1.7
		c0.8-0.3,1.6,0,2,0.8c0.3,0.8,0,1.6-0.8,2c-0.1,0-0.1,0.1-0.2,0.1C827.6,515.3,806.5,522.7,783.5,522.7z"/>
	<path class="st2" d="M785.5,506.5c-0.1,0-0.3,0-0.4-0.1c-36.4-10.3-50.3-36.2-55.5-56.1c-3.4-13.4-4.3-27.4-2.6-41.1
		c0.1-0.8,0.9-1.4,1.7-1.3c0.8,0.1,1.4,0.9,1.3,1.7c-1.6,13.4-0.8,26.9,2.5,39.9c7.3,27.9,25.3,46,53.3,53.9c0.8,0.2,1.3,1,1.1,1.8
		C786.9,506.1,786.3,506.6,785.5,506.5L785.5,506.5z"/>
	<path d="M615.7,534.4c-0.8,0-1.5-0.7-1.5-1.5c0-0.4,0.1-0.7,0.4-1l44.1-47.7c0.5-0.7,1.4-0.9,2.1-0.4c0.7,0.5,0.9,1.4,0.4,2.1
		c-0.1,0.1-0.2,0.2-0.3,0.3l-44.1,47.7C616.5,534.2,616.1,534.4,615.7,534.4z"/>
	<path class="st2" d="M911.9,363.6L911.9,363.6c-0.9,0-1.5-0.7-1.5-1.6c0,0,0,0,0,0c0.9-18.9-3.8-33.5-14-43.5
		c-16.7-16.4-42.5-14.9-42.8-14.9c-0.8,0.1-1.5-0.6-1.6-1.4c-0.1-0.8,0.6-1.5,1.4-1.6l0,0c1.1-0.1,27.5-1.6,45.1,15.7
		c10.8,10.7,15.9,26.1,14.9,45.8C913.4,362.9,912.7,363.6,911.9,363.6z"/>
	<circle cx="611.4" cy="472.1" r="8.3"/>
	<circle cx="693.3" cy="518" r="8.3"/>
	<path class="st4" d="M264.8,883.3c0-49.8,17.8-55.2-51.9-95S93.3,648.7,173,668.7c0,0,19.9-39.8,59.8,0c0,0,10-49.8,49.8-19.9
		s69.8,99.6,69.8,99.6s69.8-49.8,109.6-49.8s39.9,29.9,0,49.8s-53.4,95-43.4,134.9H264.8z"/>
	<path d="M259.5,639.2c6.3,0,13.9,2.7,23.1,9.5c39.9,29.9,69.8,99.6,69.8,99.6s69.8-49.8,109.6-49.8s39.9,29.9,0,49.8
		s-53.4,95-43.4,134.9H264.8c0-49.8,17.8-55.2-51.9-95c-63.5-36.3-110.5-122.2-58.2-122.2c6.2,0.1,12.4,1,18.3,2.6
		c0,0,8.9-17.7,26.6-17.7c8.9,0,19.9,4.4,33.2,17.7C232.8,668.7,238.7,639.2,259.5,639.2 M259.5,636.2c-17.6,0-25.5,17.8-28.4,26.8
		c-11-10-21.6-15.1-31.6-15.1c-15.7,0-24.9,12.2-28.1,17.3c-5.5-1.3-11.2-2.1-16.9-2.2c-16.9,0-22.8,8.4-24.6,15.5
		c-3.5,13.3,3.7,33.8,19.9,56.3s38.6,43,61.5,56c54.7,31.3,54,39.7,51.7,67.8c-0.6,7-1.2,14.9-1.2,24.6c0,1.7,1.3,3,3,3h153.8
		c1.7,0,3-1.3,3-3c0-0.2,0-0.5-0.1-0.7c-5-20-3.9-48.1,3-73.4c7.8-28.8,21.6-49.5,38.8-58.1c21.9-11,34.1-26.2,31.1-39
		c-2.5-10.5-14.3-16.5-32.5-16.5c-36.1,0-94.4,38.6-108.4,48.3c-2.8-6.1-9.4-19.9-18.6-35.6c-16.7-28.5-33.8-49.3-50.6-61.9
		C275.4,639.6,267,636.2,259.5,636.2L259.5,636.2z"/>
	<path class="st4" d="M352.3,788.2c0,0-8.4-38.6-84.4-35c-35.1-17.3-67-45.8-95.8-85.4"/>
	<path d="M352.3,789.7c-0.7,0-1.3-0.5-1.5-1.2c0-0.2-2.3-9.5-13.4-18.2c-10.4-8.2-30.9-17.5-69.5-15.7c-0.3,0-0.5,0-0.7-0.2
		c-35.2-17.4-67.6-46.3-96.4-85.9c-0.5-0.7-0.3-1.6,0.3-2.1c0.7-0.5,1.6-0.3,2.1,0.3c28.3,39.1,60.3,67.6,94.9,84.8
		c39.5-1.8,60.6,8,71.3,16.5c11.9,9.4,14.2,19.3,14.3,19.7c0.2,0.8-0.3,1.6-1.1,1.8c0,0,0,0,0,0
		C352.6,789.7,352.4,789.7,352.3,789.7z"/>
	<path class="st4" d="M233.4,666c0,0,40.7,55.9,71.1,78.3"/>
	<path d="M304.6,745.7c-0.3,0-0.6-0.1-0.9-0.3c-30.2-22.2-71-78.1-71.4-78.6c-0.5-0.7-0.4-1.6,0.3-2.1s1.6-0.4,2.1,0.3
		c0,0,0,0.1,0.1,0.1c0.4,0.6,40.9,56,70.8,78c0.7,0.5,0.8,1.4,0.3,2.1C305.5,745.5,305,745.8,304.6,745.7L304.6,745.7z"/>
	<circle class="st6" cx="552.5" cy="756.2" r="10.8"/>
	<circle class="st6" cx="476.5" cy="816.1" r="10.8"/>
	<circle class="st6" cx="589.2" cy="866.2" r="10.8"/>
	<circle class="st6" cx="700.1" cy="809" r="10.8"/>
	<circle class="st6" cx="809.1" cy="816.1" r="10.8"/>
	<circle class="st6" cx="777.8" cy="866.2" r="10.8"/>
	<path class="st1" d="M770.9,615.5l-3.7-3.6c-0.6-0.6-1.5-1-2.3-1.2l-5-0.8c-2.3-0.3-3.9-2.5-3.6-4.8c0.1-0.4,0.2-0.9,0.4-1.2
		l2.3-4.6c0.4-0.8,0.5-1.7,0.4-2.6l-0.8-5c-0.4-2.3,1.2-4.5,3.5-4.9c0.4-0.1,0.9-0.1,1.3,0l5,0.7c0.9,0.1,1.8,0,2.6-0.4l4.5-2.4
		c2.1-1.1,4.6-0.3,5.7,1.8c0.2,0.4,0.3,0.8,0.4,1.2l0.9,5c0.2,0.9,0.6,1.7,1.2,2.3l3.6,3.6c1.7,1.6,1.7,4.3,0.1,6
		c-0.3,0.3-0.7,0.6-1.1,0.8l-4.5,2.4c-0.8,0.4-1.4,1.1-1.8,1.9l-2.3,4.6c-1,2.1-3.6,3-5.7,2C771.6,616,771.2,615.8,770.9,615.5z"/>
	<path d="M773.8,618.2c-1.5,0-2.9-0.6-4-1.6l-3.6-3.5c-0.4-0.4-0.9-0.7-1.5-0.8l-5-0.8c-3.1-0.5-5.3-3.4-4.8-6.5
		c0.1-0.6,0.3-1.2,0.5-1.7l2.3-4.6c0.3-0.5,0.3-1.1,0.2-1.7l-0.8-5c-0.5-3.1,1.6-6.1,4.7-6.6c0.6-0.1,1.2-0.1,1.8,0l5,0.7
		c0.6,0.1,1.1,0,1.7-0.3l4.5-2.4c2.8-1.5,6.3-0.4,7.8,2.4c0.3,0.5,0.5,1.1,0.6,1.7l0.9,5c0.1,0.6,0.4,1.1,0.8,1.5l3.6,3.6
		c2.3,2.2,2.3,5.9,0.1,8.1c-0.4,0.4-0.9,0.8-1.4,1.1l-4.5,2.4c-0.5,0.3-0.9,0.7-1.2,1.2L779,615c-0.8,1.7-2.4,2.8-4.2,3.1
		C774.5,618.2,774.2,618.2,773.8,618.2z M762.6,588.3c-0.8,0-1.5,0.3-2,0.8c-0.6,0.6-0.9,1.5-0.8,2.4l0.8,5c0.2,1.2,0,2.4-0.5,3.5
		l-2.2,4.6c-0.7,1.4-0.1,3,1.3,3.7c0.3,0.1,0.5,0.2,0.8,0.3l5,0.8c1.2,0.2,2.3,0.7,3.2,1.6l3.7,3.5l0,0c1.1,1.1,2.8,1,3.9,0
		c0.2-0.2,0.4-0.4,0.5-0.7l2.3-4.6c0.5-1.1,1.4-2,2.5-2.5l4.5-2.4c0.8-0.4,1.3-1.1,1.4-2c0.1-0.9-0.2-1.8-0.8-2.4l-3.6-3.6
		c-0.9-0.8-1.4-1.9-1.6-3.1l-0.9-5c-0.2-1.5-1.6-2.5-3.1-2.3c-0.3,0-0.6,0.1-0.9,0.3l-4.5,2.4c-1.1,0.6-2.3,0.8-3.5,0.6l-5-0.7
		C762.9,588.3,762.8,588.3,762.6,588.3z"/>
	<path d="M679.8,613.9c-5.2,0-12.7-8.2-14.3-9.9c-0.6-0.6-0.6-1.5,0-2.1s1.5-0.6,2.1,0c0,0,0.1,0.1,0.1,0.1
		c4.3,4.8,10.3,9.6,12.4,8.9c0.8-0.3,1-1.8,1.1-2.6c0.7-8.4-16.3-13.3-22.9-14.5c-0.8-0.1-1.4-0.9-1.2-1.7c0.2-0.8,0.9-1.3,1.7-1.2
		c1.1,0.2,26.4,4.9,25.4,17.7c-0.2,2.8-1.3,4.6-3.1,5.2C680.7,613.8,680.3,613.9,679.8,613.9z"/>
	<path d="M911.6,284.4c-0.4,0-0.8-0.2-1.1-0.5c-21.4-23.6-48.6-30.8-80.8-21.4c-15.3,4.7-29.6,12-42.4,21.5
		c-0.6,0.5-1.6,0.4-2.1-0.2c-0.5-0.6-0.4-1.6,0.2-2.1c13.1-9.8,27.7-17.3,43.3-22.1c23-6.7,56.1-8.4,83.9,22.2
		c0.6,0.6,0.5,1.6-0.1,2.1C912.4,284.3,912,284.4,911.6,284.4L911.6,284.4z"/>
	<path class="st2" d="M212.5,775.4c-0.7,0-1.3-0.2-1.9-0.6c-67.7-44.2-72.1-85.8-72.2-87.6c-0.2-1.9,1.3-3.6,3.2-3.8
		s3.6,1.3,3.8,3.2c0.1,0.5,4.6,40.2,69.1,82.3c1.6,1.1,2.1,3.2,1,4.8C214.8,774.9,213.7,775.4,212.5,775.4L212.5,775.4z"/>
	<path class="st2" d="M877.2,875.1c-1.9,0-3.4-1.5-3.5-3.3c-1.8-40-17.7-67.2-30.7-83c-14.2-17.2-28.1-24.9-28.3-25
		c-1.7-0.9-2.4-3-1.5-4.7s3-2.4,4.7-1.5c0,0,0.1,0,0.1,0c0.6,0.3,15.1,8.3,30.1,26.4c13.8,16.6,30.7,45.3,32.5,87.3
		c0.1,1.9-1.4,3.6-3.3,3.7c0,0,0,0,0,0L877.2,875.1z"/>
</g>
<g id="wi-fi-2">
	<circle class="st0" cx="300.7" cy="651.2" r="35.4"/>
	<path d="M300.7,615.9c19.5,0,35.4,15.8,35.4,35.4c0,19.5-15.8,35.4-35.4,35.4c-19.5,0-35.4-15.8-35.4-35.3c0,0,0,0,0,0
		C265.3,631.7,281.1,615.9,300.7,615.9 M300.7,612.9c-21.2,0-38.4,17.2-38.4,38.3c0,21.2,17.2,38.4,38.3,38.4s38.4-17.2,38.4-38.3
		c0,0,0,0,0,0C339,630,321.8,612.9,300.7,612.9L300.7,612.9z"/>
	<path class="st0" d="M221.1,612.9c0,0,88.4-64.8,159.1,11.8l14.3-14.3c11.1-11.1,11.1-29.1,0-40.3c-0.9-0.9-1.9-1.8-2.9-2.6
		c-33.9-25.8-100.7-59.3-179.5-9c-16.9,10.8-17.4,35.4-1.1,47.1L221.1,612.9z"/>
	<path d="M295.2,532.5c41.5,0,75.3,19,96.4,35c12.5,9.5,15,27.4,5.5,39.9c-0.8,1-1.6,2-2.6,2.9l-14.3,14.3
		c-26.3-28.5-55-37.4-80.7-37.4c-43.5,0-78.4,25.6-78.4,25.6l-10.1-7.2c-16.3-11.7-15.9-36.3,1-47.1
		C241.8,539.6,269.9,532.5,295.2,532.5 M295.1,529.5c-28.6,0-57.2,8.9-84.8,26.5c-8.7,5.6-14.1,15.1-14.4,25.5
		c-0.3,10.5,4.7,20.4,13.2,26.5l10.1,7.2c0.5,0.4,1.1,0.6,1.7,0.6c0.6,0,1.3-0.2,1.8-0.6c0.3-0.3,34.7-25,76.7-25
		c29.8,0,56.2,12.3,78.5,36.4c0.5,0.6,1.3,1,2.1,1h0.1c0.8,0,1.6-0.3,2.1-0.9l14.3-14.3c12.3-12.3,12.3-32.2,0-44.5
		c-1-1-2.1-2-3.3-2.8C371.9,549,337.5,529.6,295.1,529.5L295.1,529.5z"/>
	<path class="st0" d="M197.1,537.8c0,0,121.5-89.1,218.8,16.2l19.6-19.6c15.3-15.3,15.3-40.1,0-55.4c-1.3-1.3-2.6-2.4-4-3.5
		C384.8,440,293,394,184.6,463.1c-23.3,14.8-23.9,48.7-1.4,64.7L197.1,537.8z"/>
	<path d="M298.9,427.3c57,0,103.5,26.1,132.5,48.2c17.2,13.1,20.6,37.6,7.5,54.9c-1.1,1.4-2.3,2.8-3.5,4L415.8,554
		c-36.1-39.1-75.6-51.4-110.9-51.4c-59.8,0-107.8,35.2-107.8,35.2l-13.9-9.9c-22.5-16-21.8-49.9,1.4-64.7
		C225.6,437,264.2,427.3,298.9,427.3 M298.9,424.3c-39.2,0-78.2,12.2-115.9,36.3c-11.7,7.5-18.9,20.3-19.2,34.1
		c-0.4,14.1,6.2,27.4,17.7,35.6l13.9,9.9c1.1,0.8,2.5,0.8,3.5,0c9.8-6.7,20.2-12.6,31.1-17.4c17.5-7.9,44.7-17.3,75-17.3
		c41.2,0,77.8,17,108.7,50.5c0.5,0.6,1.3,1,2.1,1h0.1c0.8,0,1.6-0.3,2.1-0.9l19.6-19.6c16.5-16.4,16.5-43.1,0-59.6
		c-1.4-1.4-2.8-2.6-4.4-3.8C404,450.9,356.9,424.4,298.9,424.3L298.9,424.3z"/>
	<path class="st2" d="M180.3,477.5c-0.8,0-1.5-0.6-1.5-1.5c0-0.5,0.2-0.9,0.5-1.2c0.5-0.4,49.5-40.6,118.1-38.8
		c0.8,0,1.5,0.7,1.5,1.5c0,0,0,0,0,0c0,0.8-0.7,1.5-1.5,1.5c0,0,0,0,0,0c-67.5-1.7-115.6,37.7-116.1,38.1
		C180.9,477.4,180.6,477.5,180.3,477.5z"/>
	<path class="st2" d="M397.5,590.2c-0.5,0-1.1-0.3-1.3-0.8c-19.1-34.7-81.5-46.5-82.1-46.6c-0.8-0.1-1.4-0.9-1.2-1.8
		c0.1-0.8,0.9-1.4,1.8-1.2l0,0c2.6,0.5,64.4,12.2,84.2,48.1c0.4,0.7,0.1,1.6-0.6,2C398,590.1,397.8,590.1,397.5,590.2z"/>
	<path class="st2" d="M324.2,634.9c-0.5,0-0.9-0.2-1.2-0.6c-15.9-20.1-35.5-5.7-36.4-5.1c-0.7,0.5-1.6,0.4-2.1-0.3
		c-0.5-0.7-0.4-1.6,0.3-2.1c0.2-0.2,22.8-16.7,40.5,5.6c0.5,0.6,0.4,1.6-0.2,2.1C324.9,634.8,324.6,634.9,324.2,634.9L324.2,634.9z"
		/>
	<path class="st2" d="M178.2,612.7c-7.1,0-13.9-0.2-20.5-0.5c-31.4-1.7-69.9-8.4-74.5-30.3c-5.2-24.3,23.3-47.7,86.9-71.6
		c1.8-0.7,3.8,0.2,4.5,2.1c0.7,1.8-0.2,3.8-2.1,4.5c-59,22.1-86.7,43.5-82.5,63.6c5.6,26.2,96.1,36.3,222,9.6s204.5-72.7,198.9-99
		c-3.1-14.4-16.4-24.1-71.2-24.1h-1.1c-1.9,0-3.5-1.6-3.5-3.5s1.6-3.5,3.5-3.5h1.1c51.6,0,73.5,8.4,78,29.7
		c4.7,21.9-27.8,43.6-55.8,58c-38.3,19.6-91.1,37.1-148.5,49.3C264.8,607.3,217.6,612.7,178.2,612.7z"/>
</g>
<g id="stars">
	<path class="st2" d="M460.6,662.7l-5.1-0.3c-0.9,0-1.8,0.2-2.5,0.7l-4.3,2.7c-2,1.2-4.6,0.6-5.9-1.4c-0.2-0.4-0.4-0.8-0.5-1.2
		l-1.3-4.9c-0.2-0.9-0.7-1.6-1.4-2.2l-3.9-3.3c-1.8-1.5-2-4.2-0.5-6c0.3-0.3,0.6-0.6,1-0.9l4.3-2.7c0.8-0.5,1.3-1.2,1.7-2l1.9-4.7
		c0.9-2.2,3.4-3.2,5.5-2.4c0.4,0.2,0.8,0.4,1.1,0.7l3.9,3.3c0.7,0.6,1.5,0.9,2.4,1l5.1,0.4c2.3,0.2,4.1,2.2,3.9,4.5
		c0,0.4-0.1,0.9-0.3,1.3l-1.9,4.7c-0.3,0.8-0.4,1.7-0.2,2.6l1.2,5c0.6,2.3-0.8,4.6-3.1,5.1C461.5,662.7,461.1,662.7,460.6,662.7z"/>
	<path d="M446.5,667.8c-0.7,0-1.5-0.1-2.2-0.4c-1.7-0.7-3-2.1-3.4-3.9l-1.3-4.9c-0.1-0.6-0.4-1.1-0.9-1.4l-3.9-3.3
		c-2.4-2-2.8-5.7-0.7-8.1c0.4-0.5,0.8-0.9,1.3-1.2l4.3-2.7c0.5-0.3,0.9-0.8,1.1-1.3l1.9-4.7c1.2-2.9,4.5-4.4,7.5-3.2
		c0.5,0.2,1.1,0.5,1.5,0.9l3.9,3.3c0.4,0.4,1,0.6,1.6,0.6l5.1,0.4c3.2,0.2,5.6,3,5.3,6.1c0,0.6-0.2,1.2-0.4,1.7l-1.9,4.7
		c-0.2,0.5-0.2,1.1-0.1,1.7l1.2,4.9c0.8,3.1-1.1,6.2-4.2,7c-0.6,0.1-1.2,0.2-1.8,0.2l-5.1-0.3c-0.6,0-1.2,0.1-1.6,0.4l-4.3,2.7
		C448.5,667.5,447.5,667.8,446.5,667.8z M448.1,635.2c-0.2,0-0.5,0-0.7,0.1c-0.9,0.2-1.6,0.8-1.9,1.6l-1.9,4.7
		c-0.4,1.1-1.2,2.1-2.3,2.7l-4.3,2.7c-1.3,0.8-1.7,2.5-0.9,3.8c0.2,0.2,0.3,0.5,0.6,0.7l3.9,3.3c0.9,0.8,1.6,1.8,1.9,3l1.3,4.9
		c0.2,0.9,0.8,1.5,1.6,1.9c0.8,0.3,1.7,0.3,2.5-0.2l4.3-2.7c1-0.6,2.2-0.9,3.4-0.9l5.1,0.3l0,0c0.9,0.1,1.7-0.3,2.3-1
		c0.6-0.7,0.8-1.6,0.6-2.4l-1.2-4.9c-0.3-1.2-0.2-2.4,0.2-3.5l1.9-4.7c0.3-0.8,0.2-1.7-0.2-2.5c-0.5-0.7-1.3-1.2-2.1-1.3l-5.1-0.4
		c-1.2-0.1-2.4-0.5-3.3-1.3l-3.9-3.3C449.3,635.5,448.7,635.2,448.1,635.2L448.1,635.2z"/>
	<path class="st2" d="M490.6,446.7l-3.6-3.5c-0.6-0.6-1.5-1-2.3-1.2l-5-0.8c-2.3-0.3-3.9-2.5-3.6-4.8c0.1-0.4,0.2-0.9,0.4-1.2
		l2.3-4.6c0.4-0.8,0.5-1.7,0.4-2.6l-0.9-5c-0.4-2.3,1.2-4.5,3.5-4.9c0.4-0.1,0.9-0.1,1.3,0l5,0.7c0.9,0.1,1.8,0,2.6-0.4l4.5-2.4
		c2.1-1.1,4.6-0.3,5.7,1.8c0.2,0.4,0.3,0.8,0.4,1.2l0.9,5c0.1,0.9,0.6,1.7,1.2,2.3l3.6,3.6c1.7,1.6,1.7,4.3,0,6
		c-0.3,0.3-0.7,0.6-1,0.8l-4.5,2.4c-0.8,0.4-1.4,1.1-1.8,1.9l-2.3,4.6c-1.1,2.1-3.6,2.9-5.7,1.9C491.3,447.3,490.9,447,490.6,446.7z
		"/>
	<path d="M493.6,449.4c-1.5,0-2.9-0.6-4-1.6l-3.7-3.6c-0.4-0.4-0.9-0.7-1.5-0.8l-5-0.8c-3.1-0.5-5.3-3.4-4.8-6.5
		c0.1-0.6,0.3-1.2,0.5-1.7l2.3-4.6c0.3-0.5,0.3-1.1,0.3-1.7l-0.9-5c-0.5-3.1,1.6-6.1,4.7-6.6c0.6-0.1,1.2-0.1,1.8,0l5,0.7
		c0.6,0.1,1.1,0,1.7-0.3l4.5-2.4c2.8-1.5,6.3-0.4,7.8,2.5c0.3,0.5,0.5,1.1,0.6,1.7l0.9,5c0.1,0.6,0.4,1.1,0.8,1.5l3.6,3.6
		c2.3,2.2,2.3,5.8,0.1,8.1c-0.4,0.4-0.9,0.8-1.4,1.1l-4.5,2.4c-0.5,0.3-0.9,0.7-1.2,1.2l-2.3,4.6c-0.8,1.6-2.4,2.8-4.2,3.1
		C494.2,449.4,493.9,449.4,493.6,449.4z M482.4,419.5c-0.7,0-1.4,0.3-2,0.8c-0.6,0.6-0.9,1.5-0.8,2.4l0.9,5c0.2,1.2,0,2.4-0.5,3.5
		l-2.3,4.6c-0.4,0.8-0.4,1.7,0,2.5c0.4,0.8,1.1,1.3,2,1.5l5,0.8c1.2,0.2,2.3,0.7,3.2,1.6l3.6,3.5l0,0c0.6,0.6,1.5,0.9,2.4,0.8
		c0.9-0.1,1.6-0.7,2-1.5l2.3-4.6c0.5-1.1,1.4-2,2.5-2.5l4.5-2.4c1.3-0.7,1.9-2.4,1.2-3.7c-0.1-0.3-0.3-0.5-0.5-0.7l-3.6-3.6
		c-0.9-0.8-1.4-1.9-1.6-3.1l-0.9-5c-0.2-1.5-1.6-2.5-3.1-2.3c-0.3,0-0.6,0.1-0.9,0.3l-4.5,2.4c-1.1,0.6-2.3,0.8-3.5,0.6l-5-0.7
		C482.6,419.5,482.5,419.5,482.4,419.5z"/>
	<path class="st2" d="M321.1,378.2l-4.8,1.6c-0.8,0.3-1.6,0.8-2.1,1.5l-3,4.1c-1.4,1.9-4,2.3-5.9,0.9c-0.4-0.3-0.7-0.6-0.9-0.9
		l-3-4.1c-0.5-0.7-1.3-1.2-2.1-1.5l-4.9-1.6c-2.2-0.7-3.5-3.1-2.7-5.3c0.1-0.4,0.3-0.8,0.6-1.2l3-4.1c0.5-0.7,0.8-1.6,0.8-2.5V360
		c0-2.3,2-4.2,4.3-4.2c0.4,0,0.8,0.1,1.2,0.2l4.9,1.5c0.8,0.3,1.8,0.3,2.6,0l4.9-1.6c2.2-0.7,4.6,0.5,5.3,2.7
		c0.1,0.4,0.2,0.9,0.2,1.3v5.1c0,0.9,0.3,1.8,0.8,2.5l3,4.1c1.4,1.9,0.9,4.6-1,5.9C321.8,377.8,321.5,378,321.1,378.2z"/>
	<path d="M307.7,388.7c-1.8,0-3.6-0.9-4.6-2.3l-3-4.1c-0.3-0.5-0.8-0.8-1.4-1l-4.8-1.6c-3-1-4.7-4.2-3.7-7.2
		c0.2-0.6,0.5-1.1,0.8-1.6l3-4.1c0.3-0.5,0.5-1,0.5-1.6V360c0-3.2,2.6-5.8,5.8-5.7c0.6,0,1.2,0.1,1.7,0.3l4.9,1.5
		c0.5,0.2,1.1,0.2,1.7,0l4.8-1.6c3-1,6.3,0.7,7.2,3.7c0.2,0.6,0.3,1.2,0.3,1.8v5.1c0,0.6,0.2,1.1,0.5,1.6l3,4.1
		c1.9,2.6,1.3,6.2-1.2,8c-0.5,0.4-1,0.6-1.6,0.8l-4.8,1.6c-0.6,0.2-1,0.5-1.4,1l-3,4.1C311.3,387.8,309.6,388.7,307.7,388.7
		L307.7,388.7z M300.1,357.3c-1.5,0-2.7,1.2-2.7,2.7v5.1c0,1.2-0.4,2.4-1.1,3.4l-3,4.1c-0.9,1.2-0.6,2.9,0.6,3.8
		c0.2,0.2,0.5,0.3,0.8,0.4l4.9,1.6c1.1,0.4,2.1,1.1,2.9,2.1l3,4.1c0.5,0.7,1.3,1.1,2.2,1.1l0,0c0.9,0,1.7-0.4,2.2-1.1l3-4.1
		c0.7-1,1.7-1.7,2.8-2.1l4.8-1.6l0,0c1.4-0.5,2.2-2.1,1.7-3.5c-0.1-0.3-0.2-0.5-0.4-0.7l-3-4.1c-0.7-1-1.1-2.2-1.1-3.4v-5.1
		c0-1.5-1.2-2.7-2.7-2.7c-0.3,0-0.6,0-0.9,0.1l-4.8,1.6c-1.1,0.4-2.4,0.4-3.5,0l-4.8-1.5C300.7,357.3,300.4,357.3,300.1,357.3z"/>
</g>
</svg>
