<svg width="1000" height="1000" viewBox="0 0 1000 1000" fill="none" xmlns="http://www.w3.org/2000/svg">
<rect width="1000" height="1000" fill="white"/>
<path d="M105.687 809.281C105.687 809.281 207.826 851.372 279.801 815.314L306.879 677.257L105.687 809.281Z" fill="#6857A7"/>
<path d="M228.731 752.179C228.731 752.179 285.413 761.158 287.097 777.713L339.85 776.17L487.026 626.047L474.961 593.076H336.904L228.731 752.179Z" fill="black"/>
<path d="M417.858 514.928L267.735 803.248L315.858 830.186L465.981 533.027L417.858 514.928Z" fill="white"/>
<path d="M316.7 833.132L264.929 804.09L416.876 512.403L468.928 531.905L316.7 833.132ZM270.541 802.406L314.876 827.38L462.895 534.15L418.84 517.594L270.541 802.406Z" fill="black"/>
<path d="M441.592 525.711L431.947 526.545L435.817 571.276L445.462 570.442L441.592 525.711Z" fill="black"/>
<path d="M368.269 621.028L366.924 630.615L411.385 636.851L412.73 627.264L368.269 621.028Z" fill="black"/>
<path d="M412.246 597.145C415.753 597.145 418.559 594.339 418.559 590.831C418.559 587.324 415.753 584.518 412.246 584.518C408.738 584.518 405.932 587.324 405.932 590.831C405.932 594.339 408.878 597.145 412.246 597.145Z" fill="black"/>
<path d="M353.88 663.087C353.88 659.86 351.214 657.194 347.988 657.194C344.761 657.194 342.095 659.86 342.095 663.087C342.095 666.314 344.761 668.979 347.988 668.979C351.214 668.979 353.88 666.454 353.88 663.087Z" fill="black"/>
<path d="M307.721 820.926L312.772 814.893L276.995 785.57L273.207 792.725L307.721 820.926Z" fill="black"/>
<path d="M341.253 779.818L343.638 775.047L284.291 771.54L281.765 776.31L341.253 779.818Z" fill="black"/>
<path d="M405.231 653.125L400.32 655.931L366.648 649.758L365.245 657.475L389.657 662.104L320.488 702.09L312.912 716.542L355.564 751.617L357.809 747.268L316.56 713.455L398.777 665.893L405.231 653.125Z" fill="black"/>
<path d="M105.687 809.281C105.687 809.281 108.633 671.224 171.769 608.088C234.904 544.952 264.789 533.027 321.891 533.027C378.994 533.027 502.039 548.039 504.985 572.031C507.931 596.022 480.993 626.047 351.916 614.121C351.916 614.121 330.871 710.228 228.871 755.265C126.592 800.161 105.687 809.281 105.687 809.281Z" fill="#6857A7"/>
<path d="M479.17 605.984C479.17 605.984 511.018 626.047 504.985 650.039C498.952 674.03 483.94 683.009 483.94 683.009C483.94 683.009 501.898 722.013 462.895 749.091C462.895 749.091 459.948 776.17 426.837 788.095C393.866 800.161 333.817 791.042 315.718 779.116C297.76 767.05 303.652 743.059 324.697 737.026C324.697 737.026 300.706 691.989 351.776 689.042C351.776 689.042 321.751 667.997 345.743 646.952C369.734 625.907 477.907 625.907 477.907 625.907L479.17 605.984Z" fill="#6857A7"/>
<path d="M398.917 674.171H394.708C394.708 666.174 392.323 660.141 387.412 656.353C376.89 647.934 358.37 652.143 358.23 652.143L357.247 648.075C358.089 647.934 378.012 643.445 390.078 652.985C395.971 657.756 398.917 664.771 398.917 674.171Z" fill="white"/>
<path d="M385.729 734.36C385.027 725.38 381.66 718.646 375.767 714.297C363.28 705.037 343.498 709.105 343.217 709.246L342.375 705.177C343.217 705.037 364.263 700.687 378.293 711.07C385.167 716.121 389.096 723.977 389.938 734.079L385.729 734.36Z" fill="white"/>
<path d="M356.967 782.203H352.758C352.758 775.749 350.794 770.698 346.725 767.051C337.886 758.913 322.172 760.316 322.032 760.316L321.611 756.107C322.312 756.107 339.289 754.564 349.531 763.964C354.441 768.454 356.967 774.627 356.967 782.203Z" fill="white"/>
<path d="M429.082 752.459C364.964 752.459 324.557 739.27 324.136 739.13L325.399 735.202C325.96 735.342 380.117 753.02 462.754 747.127L463.035 751.336C451.109 752.178 439.885 752.459 429.082 752.459Z" fill="white"/>
<path d="M414.21 694.374C380.257 694.374 352.197 691.147 351.635 691.147L352.056 686.938C352.898 687.078 430.345 695.777 483.519 683.992L484.501 688.06C462.754 692.971 437.079 694.374 414.21 694.374Z" fill="white"/>
<path d="M482.537 571.891C463.175 571.891 450.408 567.962 444.234 560.105C438.482 552.81 441.148 544.812 441.288 544.532L445.217 545.935L443.252 545.233L445.217 545.935C445.076 546.215 443.252 552.108 447.602 557.58C452.232 563.472 464.999 569.926 498.672 566.84L499.092 571.049C493.2 571.61 487.588 571.891 482.537 571.891Z" fill="white"/>
<path d="M501.898 545.093C583.182 545.093 649.075 479.2 649.075 397.917C649.075 316.634 583.182 250.74 501.898 250.74C420.615 250.74 354.722 316.634 354.722 397.917C354.722 479.2 420.615 545.093 501.898 545.093Z" fill="black"/>
<path d="M418.7 440.428L447.181 424.013L493.34 462.035L496.427 458.246L451.67 421.347L536.693 372.241L603.477 384.588L604.88 376.731L547.356 366.208L571.769 352.038L567.84 345.163L535.29 363.964L501.618 357.79L500.215 365.507L524.768 369.997L445.076 416.016L390.499 371.119L387.412 374.767L440.587 418.681L414.771 433.553L418.7 440.428Z" fill="white"/>
<path d="M414.921 479.326L414.64 484.089L551.622 492.17L551.902 487.408L414.921 479.326Z" fill="white"/>
<path d="M616.013 386.585L606.325 430.422L615.777 432.511L625.466 388.674L616.013 386.585Z" fill="white"/>
<path d="M423.47 273.469L418.84 294.234L428.24 296.338L434.694 267.155C430.906 268.979 427.118 271.084 423.47 273.469Z" fill="white"/>
<path d="M462.203 348.266L452.514 392.103L461.967 394.192L471.655 350.355L462.203 348.266Z" fill="white"/>
<path d="M399.644 421.895L389.999 422.729L393.87 467.46L403.515 466.625L399.644 421.895Z" fill="white"/>
<path d="M504.644 468.25L503.3 477.837L547.761 484.073L549.105 474.486L504.644 468.25Z" fill="white"/>
<path d="M503.304 329.086L501.959 338.673L546.421 344.909L547.765 335.322L503.304 329.086Z" fill="white"/>
<path d="M417.64 316.852L416.211 321.256L490.946 345.503L492.375 341.099L417.64 316.852Z" fill="white"/>
<path d="M478.327 414.516L476.898 418.92L551.633 443.166L553.062 438.762L478.327 414.516Z" fill="white"/>
<path d="M547.356 305.177C550.864 305.177 553.67 302.371 553.67 298.864C553.67 295.356 550.864 292.55 547.356 292.55C543.849 292.55 541.043 295.356 541.043 298.864C541.043 302.371 543.849 305.177 547.356 305.177Z" fill="white"/>
<path d="M514.946 516.472C511.439 516.472 508.633 519.278 508.633 522.785C508.633 526.293 511.439 529.099 514.946 529.099C518.454 529.099 521.26 526.293 521.26 522.785C521.26 519.278 518.454 516.472 514.946 516.472Z" fill="white"/>
<path d="M368.752 402.547C368.752 398.759 365.666 395.672 361.877 395.672C358.089 395.672 355.003 398.759 355.003 402.547C355.003 406.335 358.089 409.422 361.877 409.422C365.666 409.422 368.752 406.335 368.752 402.547Z" fill="white"/>
<path d="M564.754 413.771C564.754 409.983 561.667 406.896 557.879 406.896C554.091 406.896 551.004 409.983 551.004 413.771C551.004 417.559 554.091 420.646 557.879 420.646C561.667 420.646 564.754 417.559 564.754 413.771Z" fill="white"/>
<path d="M488.85 371.119C488.85 367.892 486.185 365.227 482.958 365.227C479.731 365.227 477.065 367.892 477.065 371.119C477.065 374.346 479.731 377.012 482.958 377.012C486.185 377.012 488.85 374.487 488.85 371.119Z" fill="white"/>
<path d="M357.949 367.892H434.694V360.035H359.773C359.071 362.561 358.51 365.227 357.949 367.892Z" fill="white"/>
<path d="M516.63 260L507.23 257.896L505.967 263.788L490.674 251.161C488.429 251.301 486.185 251.582 483.94 251.863L504.845 269.12L497.689 301.81L507.09 303.915L513.263 275.995L529.959 289.744L533.045 285.956L514.526 270.663L516.63 260Z" fill="white"/>
<path d="M570.787 279.221L580.327 278.38L579.906 273.188C576.539 271.084 573.172 269.12 569.664 267.296L570.787 279.221Z" fill="white"/>
<path d="M594.498 342.778H634.063L640.376 347.969C638.412 342.497 636.167 337.306 633.642 332.115L587.903 294.514L582.853 300.687L628.591 338.288H594.498V342.778Z" fill="white"/>
<path d="M376.328 474.382L442.831 528.959L447.882 522.786L367.209 456.423C369.734 462.736 372.821 468.629 376.328 474.382Z" fill="white"/>
<path d="M617.507 488.972L608.247 485.886L613.719 477.608L602.214 470.032L594.638 481.396L563.491 471.294L562.088 475.644L591.972 485.325L577.381 507.352L588.885 514.928L605.581 489.674L614.42 492.48C615.402 491.498 616.525 490.235 617.507 488.972Z" fill="white"/>
<path d="M501.898 503.003C559.936 503.003 606.984 455.954 606.984 397.917C606.984 339.879 559.936 292.831 501.898 292.831C443.861 292.831 396.813 339.879 396.813 397.917C396.813 455.954 443.861 503.003 501.898 503.003Z" fill="white"/>
<path d="M478.097 337.861L480.346 364.143L487.056 363.569L484.807 337.287L478.097 337.861Z" fill="black"/>
<path d="M483.804 398.004L496.926 407.391L499.293 404.082L486.171 394.695L483.804 398.004Z" fill="black"/>
<path d="M565.61 389.343L577.305 378.228L574.502 375.279L562.807 386.394L565.61 389.343Z" fill="black"/>
<path d="M542.051 359.952L557.611 338.653L552.173 334.68L536.613 355.98L542.051 359.952Z" fill="black"/>
<path d="M423.583 411.325L419.85 395.629L415.891 396.571L419.625 412.267L423.583 411.325Z" fill="black"/>
<path d="M489.854 460.913L473.736 461.619L473.914 465.684L490.032 464.978L489.854 460.913Z" fill="black"/>
<path d="M527.153 389.639C529.09 389.639 530.66 388.069 530.66 386.131C530.66 384.194 529.09 382.624 527.153 382.624C525.216 382.624 523.645 384.194 523.645 386.131C523.645 388.069 525.216 389.639 527.153 389.639Z" fill="black"/>
<path d="M612.596 173.294L625.364 200.512L628.731 196.584L618.77 166.419L612.596 173.294Z" fill="black"/>
<path d="M679.661 247.092C682.528 247.092 684.852 244.768 684.852 241.901C684.852 239.034 682.528 236.71 679.661 236.71C676.794 236.71 674.469 239.034 674.469 241.901C674.469 244.768 676.794 247.092 679.661 247.092Z" fill="black"/>
<path d="M255.248 498.092L240.376 418.821L105.125 444.076L100.215 418.12L195.339 207.948L237.851 199.951L271.663 380.94L312.351 373.364L318.103 404.23L277.416 411.806L292.288 491.077L255.248 498.092ZM234.624 387.955L216.385 290.726C213.579 275.433 211.193 260.14 209.229 244.847L207.826 245.128C202.074 263.788 197.163 277.678 191.692 292.69L138.938 404.932L139.078 405.773L234.624 387.955Z" fill="black"/>
<path d="M794.427 521.242L813.228 442.813L679.38 410.684L685.553 385.009L858.124 231.94L900.215 242.041L857.282 421.066L897.549 430.747L890.253 461.333L849.987 451.652L831.186 530.081L794.427 521.242ZM820.523 412.368L843.673 316.261C847.321 301.249 851.39 286.236 855.879 271.364L854.617 271.084C841.709 285.816 831.607 296.478 820.523 307.843L726.521 388.797L726.241 389.639L820.523 412.368Z" fill="black"/>
</svg>
