<svg width="1000" height="1000" viewBox="0 0 1000 1000" fill="none" xmlns="http://www.w3.org/2000/svg">
<rect width="1000" height="1000" fill="white"/>
<path d="M240.712 328.471L290.175 215.17L410.528 253.729L401.689 281.317L306.666 250.873L279.047 312.647C292.726 309.558 306.88 310.357 321.507 315.043C342.91 321.9 357.629 334.443 365.665 352.672C373.734 370.793 373.91 391.9 366.191 415.992C358.438 440.191 345.761 457.18 328.16 466.958C310.701 476.663 290.248 477.76 266.801 470.248C246.043 463.597 230.947 452.416 221.513 436.704C212.078 420.992 209.703 402.679 214.387 381.765L242.62 390.811C240.141 404.841 241.671 416.538 247.209 425.902C252.782 435.159 261.915 441.821 274.606 445.887C288.48 450.332 300.859 449.08 311.743 442.131C322.734 435.216 330.901 423.423 336.242 406.752C341.273 391.049 341.002 377.087 335.43 364.866C330 352.571 320.187 344.15 305.99 339.601C292.976 335.432 281.845 335.008 272.597 338.331L262.625 342.252L240.712 328.471ZM554.19 448.294C542.991 483.249 528.7 507.311 511.317 520.48C493.934 533.648 472.551 536.167 447.169 528.034C422.109 520.006 406.209 505.78 399.47 485.357C392.765 464.827 394.486 437.984 404.635 404.827L417.402 364.978C428.463 330.453 442.65 306.714 459.964 293.761C477.278 280.807 498.68 278.414 524.171 286.58C549.446 294.678 565.451 308.76 572.186 328.825C578.956 348.783 577.092 375.7 566.595 409.575L554.19 448.294ZM537.421 397.915C545.518 372.64 547.861 353.111 544.45 339.329C541.073 325.439 531.694 316.03 516.314 311.103C501.041 306.21 488.066 308.397 477.388 317.666C466.71 326.934 457.439 343.472 449.574 367.28L434.274 415.034C426.142 440.417 423.786 460.357 427.206 474.853C430.768 489.277 440.024 498.884 454.974 503.673C469.708 508.394 482.451 506.191 493.203 497.065C504.061 487.973 513.58 471.217 521.759 446.799L537.421 397.915ZM611.772 447.353L661.236 334.051L781.589 372.61L772.75 400.198L677.726 369.754L650.108 431.528C663.787 428.439 677.94 429.238 692.567 433.924C713.971 440.781 728.69 453.324 736.725 471.553C744.795 489.674 744.971 510.781 737.252 534.873C729.499 559.072 716.822 576.061 699.22 585.839C681.761 595.544 661.308 596.641 637.862 589.129C617.104 582.479 602.008 571.297 592.573 555.585C583.139 539.873 580.763 521.56 585.448 500.647L613.68 509.692C611.202 523.722 612.731 535.419 618.27 544.784C623.843 554.04 632.975 560.702 645.666 564.768C659.541 569.213 671.92 567.961 682.804 561.012C693.795 554.097 701.961 542.304 707.302 525.633C712.333 509.93 712.063 495.968 706.491 483.747C701.061 471.452 691.247 463.031 677.05 458.482C664.036 454.313 652.905 453.89 643.658 457.212L633.685 461.133L611.772 447.353Z" fill="black"/>
<path d="M299.266 579.925C287.524 569.005 263.921 548.337 251.238 552.8C238.556 557.262 187.123 591.433 173.619 610.104C160.819 627.836 171.505 712.149 171.505 712.149L127 743.15C137.099 788.477 157.179 825.584 206.616 864.217L254.996 832.63C254.996 832.63 312.888 817.247 297.975 740.097C297.975 740.097 317.585 721.308 317.585 687.724C328.388 669.875 323.104 652.965 323.104 652.965C337.43 629.48 310.892 590.846 299.266 579.925Z" fill="#F5BAAE"/>
<path d="M317.937 605.642L314.415 602.706L295.039 669.64L317.82 687.489C341.305 679.621 330.15 655.666 330.15 655.666C338.37 642.162 342.832 620.555 317.937 605.642Z" fill="black"/>
<path d="M246.072 643.689L268.383 592.373C268.383 592.373 237.265 600.24 237.265 613.979C237.147 627.601 246.072 643.689 246.072 643.689Z" fill="black"/>
<path d="M278.364 770.745L276.368 769.453C276.485 769.336 286.936 752.779 304.316 730.115L306.195 731.524C288.933 754.188 278.482 770.51 278.364 770.745Z" fill="black"/>
<path d="M588.725 299.626L211.9 533.894L255.348 635.469L632.173 374.075L588.725 299.626Z" fill="white"/>
<path d="M254.526 638.052L209.669 533.072L589.312 297.042L634.522 374.427L633.23 375.367L254.526 638.052ZM214.131 534.598L256.17 632.768L629.942 373.605L588.255 302.092L214.131 534.598Z" fill="black"/>
<path d="M322.165 589.084L334.612 457.565L284.118 489.036L273.902 622.551L322.165 589.084Z" fill="black"/>
<path d="M571.463 310.429L516.625 344.483L521.556 450.872L577.217 412.239L571.463 310.429Z" fill="black"/>
<path d="M461.199 378.889L391.094 422.455L380.056 548.924L459.202 494.085L461.199 378.889Z" fill="black"/>
<path d="M318.903 471.593L310.794 508.283L318.705 510.032L326.815 473.342L318.903 471.593Z" fill="white"/>
<path d="M403.424 429.97C406.36 429.97 408.709 427.621 408.709 424.686C408.709 421.75 406.36 419.401 403.424 419.401C400.489 419.401 398.14 421.75 398.14 424.686C398.14 427.621 400.489 429.97 403.424 429.97Z" fill="black"/>
<path d="M417.985 520.859C417.985 517.688 415.402 515.105 412.232 515.105C409.061 515.105 406.478 517.688 406.478 520.859C406.478 524.03 409.061 526.613 412.232 526.613C415.402 526.613 417.985 524.03 417.985 520.859Z" fill="black"/>
<path d="M545.394 345.892C545.394 343.191 543.163 340.96 540.462 340.96C537.761 340.96 535.53 343.191 535.53 345.892C535.53 348.593 537.761 350.824 540.462 350.824C543.163 350.824 545.394 348.593 545.394 345.892Z" fill="white"/>
<path d="M568.293 315.361L477.874 735.634L559.603 317.827L552.323 350.354L560.19 352.115L568.293 315.361Z" fill="white"/>
<path d="M519.913 415.291L541.872 424.099L544.807 416.583L519.443 406.484L519.913 415.291Z" fill="white"/>
<path d="M573.929 354.229L546.099 370.317L516.742 346.127L516.977 351.528L542.341 372.43L520.617 384.995L524.023 390.749L547.86 376.893L576.63 400.613L576.278 395.094L551.618 374.779L574.399 361.627L573.929 354.229Z" fill="white"/>
<path d="M387.689 461.206L402.602 463.202L403.777 455.217L388.511 453.104L387.689 461.206Z" fill="white"/>
<path d="M417.633 426.917L425.618 426.212L423.622 402.375L415.872 407.072L417.633 426.917Z" fill="white"/>
<path d="M442.88 461.44H459.789L459.907 457.683H442.88V461.44Z" fill="white"/>
<path d="M433.134 426.212L460.024 448.289L460.142 439.834L437.361 421.045L433.134 426.212Z" fill="white"/>
<path d="M409.061 528.844L413.053 526.026L382.874 516.279L382.522 520.272L409.061 528.844Z" fill="white"/>
<path d="M423.974 469.191L420.569 463.437L393.326 479.172L386.28 477.88L385.106 491.619L394.5 486.218L450.395 496.434L451.57 489.976L403.424 481.051L423.974 469.191Z" fill="white"/>
<path d="M323.221 577.577L292.573 575.815L292.338 579.808L322.869 581.569L323.221 577.577Z" fill="white"/>
<path d="M300.088 604.35L305.725 600.475L277.425 577.107L276.72 585.209L300.088 604.35Z" fill="white"/>
<path d="M280.243 539.06L288.58 559.023L295.978 555.97L281.652 521.329L280.243 539.06Z" fill="white"/>
<path d="M329.093 516.397L317.82 522.855L283.648 494.673L283.296 499.605L314.179 524.969L292.455 537.534L295.743 543.17L319.581 529.431L327.214 535.772L327.684 530.84L323.339 527.317L328.271 524.382L329.093 516.397Z" fill="white"/>
<path d="M630.647 379.947C630.647 379.947 648.731 423.277 723.297 392.277C797.864 361.276 803.853 299.274 803.853 299.274C803.853 299.274 721.888 253.36 692.649 265.924C663.409 278.607 622.192 335.207 619.609 355.991C616.79 376.776 630.647 379.947 630.647 379.947Z" fill="black"/>
<path d="M644.386 366.325C644.386 366.325 663.409 401.788 711.085 383.822C758.76 365.855 782.363 323.464 781.424 308.316C780.484 293.168 708.384 287.766 690.417 290.584C672.333 293.402 656.481 314.892 653.545 327.456C650.609 339.904 644.386 366.325 644.386 366.325Z" fill="white"/>
<path d="M685.72 390.515C655.776 390.515 642.977 367.382 642.742 367.03L642.389 366.442L642.507 365.738C642.507 365.738 648.731 339.434 651.666 326.869C654.837 313.248 671.394 291.641 689.948 288.706C706.505 286.122 764.632 290.115 779.193 301.74C781.541 303.619 782.833 305.733 782.95 307.964C783.42 315.479 778.253 330.04 765.571 345.893C755.707 358.223 738.328 375.132 711.437 385.231C701.925 389.106 693.353 390.515 685.72 390.515ZM646.265 365.973C648.965 370.435 667.519 398.265 710.497 382.06C758.056 364.211 780.602 322.29 779.78 308.316C779.662 307.142 778.84 305.85 777.314 304.558C763.692 293.637 706.505 289.762 690.77 292.228C673.86 294.929 658.242 315.362 655.306 327.691C652.606 339.199 647.204 361.863 646.265 365.973Z" fill="black"/>
<path d="M588.138 299.509C588.138 299.509 580.388 257.47 619.256 246.666C658.125 235.863 677.266 283.773 677.266 283.773L617.143 354.347L588.138 299.509Z" fill="white"/>
<path d="M616.908 357.4L586.494 300.096V299.861C586.376 299.391 578.979 256.06 618.904 244.905C658.829 233.749 678.792 282.599 679.027 283.069L679.379 284.008L616.908 357.4ZM589.899 298.921L617.612 351.177L675.269 283.421C672.333 276.845 653.663 238.916 619.726 248.31C604.226 252.655 594.479 262.402 590.839 277.55C588.373 288.001 589.664 297.277 589.899 298.921Z" fill="black"/>
<path d="M651.314 251.246C642.742 245.845 632.173 243.026 619.374 246.666C622.075 269.095 627.476 305.967 635.696 332.741L659.417 304.911C656.246 288.94 652.606 267.803 651.314 251.246Z" fill="black"/>
<path d="M673.038 293.52C676.444 299.861 667.871 309.96 628.181 331.919C588.49 353.878 584.028 372.901 599.176 395.212C609.51 410.243 640.863 381.473 650.727 378.89C660.591 376.306 691.005 352.703 713.668 345.658C736.214 338.612 772.264 368.321 827.69 291.876L872.665 277.55C872.9 190.301 860.922 182.199 837.907 141.216L788.235 157.187C788.235 157.187 726.233 126.655 689.243 137.224C652.254 147.792 644.856 153.899 635.931 165.289C626.889 176.68 605.635 187.131 599.059 202.161C599.059 202.161 564.065 218.719 575.573 247.723C586.964 276.728 589.077 285.887 589.077 285.887C589.077 285.887 593.305 263.576 601.642 258.879C609.98 254.182 613.855 250.541 613.855 250.541C613.855 250.541 646.5 244.905 673.038 293.52Z" fill="#F5BAAE"/>
<path d="M608.218 252.068L613.385 249.954C617.025 248.545 619.374 248.545 620.548 250.071L621.37 251.128L620.078 251.011C616.203 250.659 613.855 251.011 613.855 251.011L608.218 252.068Z" fill="#F5BAAE"/>
<path d="M601.407 258.879C609.745 254.182 613.62 250.541 613.62 250.541C598.237 256.648 582.971 247.488 573.225 239.151C573.459 241.852 574.164 244.67 575.338 247.723C586.729 276.728 588.843 285.887 588.843 285.887C588.843 285.887 593.07 263.576 601.407 258.879Z" fill="black"/>
<path d="M607.279 385.701L605.282 384.409C605.635 383.939 613.502 371.492 624.423 369.73C629.355 368.908 634.052 370.435 638.397 374.075L636.871 375.837C632.995 372.666 628.885 371.374 624.775 372.079C614.912 373.723 607.396 385.583 607.279 385.701Z" fill="black"/>
<path d="M599.99 201.392L599.845 203.736L606.643 204.157L606.788 201.813L599.99 201.392Z" fill="black"/>
<path d="M641.408 164.944L633.037 166.786L633.541 169.08L641.913 167.238L641.408 164.944Z" fill="black"/>
<path d="M683.276 334.237L680.145 335.852L687.79 350.671L690.921 349.055L683.276 334.237Z" fill="white"/>
<path d="M691.597 335.468L688.756 337.552L694.937 345.979L697.777 343.896L691.597 335.468Z" fill="white"/>
<path d="M245.954 644.275C245.954 644.275 270.379 553.739 288.933 542.701C311.009 529.549 332.851 550.216 319.816 596.483C309.013 634.999 324.631 672.223 313.592 714.38" fill="#F5BAAE"/>
<path d="M306.547 585.209C300.323 585.209 295.743 583.213 292.69 579.338C285.292 569.709 290.811 552.095 291.046 551.273L293.277 551.977C293.277 552.095 287.876 569.239 294.569 577.929C297.27 581.452 301.85 583.096 307.956 582.861L308.073 585.209C307.486 585.209 307.016 585.209 306.547 585.209Z" fill="black"/>
<path d="M294.218 651.163L293.255 654.551L302.743 657.248L303.706 653.859L294.218 651.163Z" fill="white"/>
<path d="M296.292 643.913L295.81 647.403L301.393 648.174L301.875 644.684L296.292 643.913Z" fill="white"/>
<path d="M480.314 533.761L482.196 555.758L487.812 555.277L485.93 533.281L480.314 533.761Z" fill="black"/>
<path d="M363.263 582.022L374.246 589.879L376.227 587.11L365.244 579.253L363.263 582.022Z" fill="black"/>
<path d="M333.067 762.4L342.855 753.097L340.509 750.629L330.722 759.932L333.067 762.4Z" fill="black"/>
<path d="M447.215 331.726L460.238 313.899L455.686 310.574L442.663 328.401L447.215 331.726Z" fill="black"/>
<path d="M702.527 598.486L699.402 585.349L696.089 586.137L699.214 599.274L702.527 598.486Z" fill="black"/>
<path d="M764.445 546.772L750.955 547.363L751.104 550.765L764.594 550.174L764.445 546.772Z" fill="black"/>
<path d="M661.765 624.313C663.386 624.313 664.701 622.999 664.701 621.378C664.701 619.756 663.386 618.442 661.765 618.442C660.144 618.442 658.829 619.756 658.829 621.378C658.829 622.999 660.144 624.313 661.765 624.313Z" fill="black"/>
</svg>
