<svg width="1000" height="1000" viewBox="0 0 1000 1000" fill="none" xmlns="http://www.w3.org/2000/svg">
<rect width="1000" height="1000" fill="white"/>
<path d="M639.777 179.206H99.5156V655.261H639.777V179.206Z" fill="black"/>
<path d="M675.256 204.493H134.995V635.537H675.256V204.493Z" fill="white"/>
<path d="M671.152 208.464V631.565H138.834V208.464H671.152ZM675.124 204.493H134.862V635.537H675.124V204.493Z" fill="black"/>
<path d="M675.786 170.205H136.716V205.154H675.786V170.205Z" fill="white"/>
<path d="M675.786 168.219H136.716V172.19H675.786V168.219Z" fill="black"/>
<path d="M651.824 196.682C655.699 196.682 658.84 193.541 658.84 189.666C658.84 185.791 655.699 182.649 651.824 182.649C647.949 182.649 644.808 185.791 644.808 189.666C644.808 193.541 647.949 196.682 651.824 196.682Z" fill="black"/>
<path d="M618.066 196.682C621.941 196.682 625.083 193.541 625.083 189.666C625.083 185.791 621.941 182.649 618.066 182.649C614.191 182.649 611.05 185.791 611.05 189.666C611.05 193.541 614.191 196.682 618.066 196.682Z" fill="black"/>
<path d="M584.308 196.682C588.183 196.682 591.324 193.541 591.324 189.666C591.324 185.791 588.183 182.649 584.308 182.649C580.433 182.649 577.292 185.791 577.292 189.666C577.292 193.541 580.433 196.682 584.308 196.682Z" fill="black"/>
<path d="M202.775 233.881H198.804V405.981H202.775V233.881Z" fill="black"/>
<path d="M194.7 253.341L190.861 252.018L200.525 224.614L212.043 249.238L208.468 250.826L201.055 235.073L194.7 253.341Z" fill="black"/>
<path d="M397.778 386.521H183.315V390.493H397.778V386.521Z" fill="black"/>
<path d="M383.613 399.627L381.892 396.186L396.719 388.772L378.847 382.285L380.171 378.578L406.913 388.243L383.613 399.627Z" fill="black"/>
<path d="M238.519 263.404H221.045V388.507H238.519V263.404Z" fill="black"/>
<path d="M280.75 324.698H260.628V387.845H280.75V324.698Z" fill="black"/>
<path d="M362.829 343.496H342.706V387.845H362.829V343.496Z" fill="black"/>
<path d="M321.127 258.77H295.577V389.169H321.127V258.77Z" fill="black"/>
<path d="M170.077 588.275L165.178 586.157L225.413 445.961L295.047 528.172L382.951 447.153L484.887 578.743L480.651 582.053L382.289 454.964L294.518 535.851L226.869 456.023L170.077 588.275Z" fill="black"/>
<path d="M383.083 460.524C388.055 460.524 392.086 456.494 392.086 451.522C392.086 446.55 388.055 442.52 383.083 442.52C378.112 442.52 374.081 446.55 374.081 451.522C374.081 456.494 378.112 460.524 383.083 460.524Z" fill="black"/>
<path d="M478.797 584.303C483.769 584.303 487.8 580.273 487.8 575.302C487.8 570.33 483.769 566.299 478.797 566.299C473.826 566.299 469.795 570.33 469.795 575.302C469.795 580.273 473.826 584.303 478.797 584.303Z" fill="black"/>
<path d="M449.276 355.543C441.333 391.552 450.467 430.605 477.076 459.994C513.615 500.107 571.467 509.241 617.537 485.545L563.921 380.961L449.276 355.543Z" fill="black"/>
<path d="M514.144 476.276L518.778 461.846L546.314 460.39L546.181 458.14L519.572 459.464L533.34 416.439L559.817 399.891L557.963 396.846L535.061 411.011L539.032 398.567L535.458 397.508L530.295 414.056L516.792 422.263L518.778 425.441L528.574 419.351L515.6 459.728L483.034 461.317L483.166 463.567L514.939 461.979L510.702 475.085L514.144 476.276Z" fill="white"/>
<path d="M574.237 450.922L524.986 490.655L526.399 492.407L575.65 452.673L574.237 450.922Z" fill="white"/>
<path d="M586.426 473.364L580.204 474.423L581.131 480.645L567.363 486.867L568.289 488.721L581.528 482.763L583.381 494.811L589.603 493.884L587.485 480.116L601.253 473.894L600.327 471.908L587.22 477.865L586.426 473.364Z" fill="white"/>
<path d="M568.74 394.334L564.834 396.572L575.1 414.491L579.006 412.254L568.74 394.334Z" fill="white"/>
<path d="M504.524 429.027L500.618 431.264L510.884 449.184L514.79 446.947L504.524 429.027Z" fill="white"/>
<path d="M464.368 403.73L461.323 406.907L476.547 420.94L479.592 417.763" fill="white"/>
<path d="M584.193 445.128L581.136 448.432L596.292 462.458L599.349 459.155L584.193 445.128Z" fill="white"/>
<path d="M580.574 431.393L563.511 443.026L566.046 446.745L583.109 435.112L580.574 431.393Z" fill="white"/>
<path d="M525.353 400.447L508.29 412.08L510.825 415.799L527.888 404.166L525.353 400.447Z" fill="white"/>
<path d="M508.467 419.393L475.528 434.265L476.4 436.196L509.338 421.324L508.467 419.393Z" fill="white"/>
<path d="M559.603 433.871L526.664 448.743L527.536 450.674L560.475 435.802L559.603 433.871Z" fill="white"/>
<path d="M516.13 390.228C517.321 389.169 517.454 387.315 516.262 386.124C515.203 384.932 513.35 384.8 512.158 385.991C510.967 387.05 510.835 388.904 512.026 390.095C513.085 391.154 514.938 391.287 516.13 390.228Z" fill="white"/>
<path d="M570.54 472.305C569.349 473.364 569.216 475.217 570.407 476.409C571.599 477.6 573.32 477.733 574.512 476.541C575.703 475.482 575.835 473.629 574.644 472.437C573.585 471.246 571.731 471.246 570.54 472.305Z" fill="white"/>
<path d="M474.826 375.135C476.017 374.076 476.15 372.223 474.958 371.031C473.899 369.84 472.046 369.707 470.854 370.899C469.663 372.09 469.531 373.812 470.722 375.003C471.781 376.062 473.634 376.194 474.826 375.135Z" fill="white"/>
<path d="M555.713 421.868C554.521 420.544 552.536 420.411 551.212 421.603C549.888 422.794 549.756 424.78 550.947 426.104C552.139 427.428 554.124 427.56 555.448 426.369C556.772 425.177 556.904 423.191 555.713 421.868Z" fill="white"/>
<path d="M516.659 430.869C515.6 429.81 513.879 429.677 512.82 430.736C511.761 431.795 511.629 433.517 512.688 434.576C513.747 435.635 515.468 435.767 516.527 434.708C517.586 433.649 517.586 431.928 516.659 430.869Z" fill="white"/>
<path d="M491.639 384.403L487.8 386.653L489.124 389.036L446.893 391.154C446.893 391.949 447.025 392.61 447.158 393.405L490.447 391.287L498.126 404.657L501.965 402.407L495.478 391.022L505.407 390.492L505.274 388.242L494.154 388.771L491.639 384.403Z" fill="white"/>
<path d="M606.019 271.082L563.921 380.828L606.019 271.082Z" fill="black"/>
<path d="M608.667 261.946C568.554 246.59 521.425 253.871 487.535 284.717C468.869 301.662 456.822 323.373 451.791 346.276L566.569 371.693L608.667 261.946Z" fill="black"/>
<path d="M423.858 483.162C439.214 483.162 451.659 495.606 451.659 510.963C451.659 526.319 439.214 538.764 423.858 538.764C408.501 538.764 396.057 526.319 396.057 510.963C396.057 495.606 408.501 483.162 423.858 483.162ZM423.858 480.514C407.045 480.514 393.409 494.15 393.409 510.963C393.409 527.776 407.045 541.411 423.858 541.411C440.671 541.411 454.306 527.776 454.306 510.963C454.306 494.15 440.671 480.514 423.858 480.514Z" fill="black"/>
<path d="M161.207 754.947C176.431 692.462 204.364 624.946 229.385 598.733C236.136 592.114 246.595 588.804 261.819 584.965C293.062 579.008 283.001 580.994 310.801 566.696C317.421 562.063 334.763 557.429 341.912 558.224C350.781 548.692 391.821 513.08 409.56 500.636C431.536 485.147 445.701 505.799 436.699 523.804C428.756 542.337 408.104 568.417 399.499 579.008C370.771 620.444 348.928 634.08 340.72 687.166C342.971 685.578 377.655 662.013 381.759 655.659C387.055 648.113 416.709 597.012 432.727 619.518C441.465 631.829 432.066 650.893 420.416 682.93C409.428 702.39 367.462 757.992 361.372 763.684C343.765 776.261 301.27 785.793 293.459 788.441C293.459 788.441 293.459 788.573 293.591 788.573L282.471 832.392C282.471 832.392 186.36 835.04 151.543 791.22L160.677 755.079C160.677 754.947 160.81 754.947 161.207 754.947Z" fill="#F7C748"/>
<path d="M303.388 605.75C303.653 605.485 325.231 572.521 343.368 556.9L341.779 555.178C323.378 570.932 301.667 604.161 301.402 604.426L303.388 605.75Z" fill="black"/>
<path d="M276.203 580.987L257.192 604.6L259.048 606.095L278.059 582.481L276.203 580.987Z" fill="black"/>
<path d="M253.011 611.98L245.085 619.59L246.736 621.309L254.661 613.699L253.011 611.98Z" fill="black"/>
<path d="M294.85 614.331L288.331 621.103L290.048 622.756L296.567 615.983L294.85 614.331Z" fill="black"/>
<path d="M404.53 519.435C406.383 519.832 408.236 519.965 410.222 519.7C421.739 517.847 431.139 502.887 431.536 502.225L429.55 501.034C429.418 501.166 420.283 515.728 409.825 517.449C406.383 517.979 403.073 517.053 400.028 514.67L398.572 516.523C400.426 517.847 402.411 518.906 404.53 519.435Z" fill="black"/>
<path d="M420.945 665.852C421.21 665.852 421.475 665.984 421.74 665.984L422.137 663.734C419.754 663.337 418.165 662.145 417.239 660.159C412.34 650.098 426.108 624.283 426.241 624.018L424.122 622.959C423.593 624.019 409.693 650.098 415.12 661.218C416.312 663.601 418.165 665.19 420.945 665.852Z" fill="black"/>
<path d="M371.244 719.742L369.525 721.392L377.135 729.319L378.854 727.669L371.244 719.742Z" fill="white"/>
<path d="M366.751 728.256L365.196 730.062L371.116 735.158L372.671 733.352L366.751 728.256Z" fill="white"/>
<path d="M358.947 555.019L356.901 556.241L362.874 566.244L364.92 565.022L358.947 555.019Z" fill="white"/>
<path d="M383.48 656.983C383.48 656.983 365.344 705.965 341.515 682.798L383.48 656.983Z" fill="black"/>
<path d="M705.043 317.813C647.455 297.691 621.111 281.275 609.064 300.338C597.017 319.401 623.097 342.437 634.482 348.262C645.867 354.086 709.279 319.931 709.279 319.931L705.043 317.813Z" fill="black"/>
<path d="M644.808 422C632.496 439.74 614.889 469.526 624.156 486.471C633.423 503.417 655.796 494.15 655.796 494.15C655.796 494.15 653.016 505.667 666.519 517.449C680.022 529.364 707.293 505.403 707.293 505.403L644.808 422Z" fill="black"/>
<path d="M679.36 365.472C690.48 351.307 713.25 324.168 728.21 326.948C743.169 329.728 806.317 358.853 824.586 377.386C841.928 394.994 844.576 490.707 844.576 490.707L899.516 517.582C896.074 569.873 880.187 614.62 831.867 666.25L772.559 639.508C772.559 639.508 705.44 632.359 708.617 543.926C708.617 543.926 683.464 526.451 677.771 488.986C662.68 470.982 665.592 451.257 665.592 451.257C645.469 427.428 668.24 379.769 679.36 365.472Z" fill="#F5BAAE"/>
<path d="M663.077 397.376L666.519 393.537L699.747 464.76L677.374 488.589C649.838 483.823 658.179 455.228 658.179 455.228C646.661 441.592 637.924 418.292 663.077 397.376Z" fill="black"/>
<path d="M747.141 427.957L713.515 334.758C713.515 334.758 765.013 330.654 764.086 359.514C763.16 388.242 747.141 427.957 747.141 427.957Z" fill="black"/>
<path d="M735.756 574.506L737.742 572.785C737.61 572.653 723.047 556.105 699.747 533.864L697.894 535.718C721.061 557.826 735.624 574.241 735.756 574.506Z" fill="black"/>
<path d="M704.646 289.615C691.804 275.582 676.448 265.257 659.767 258.902L617.801 368.649L671.417 473.233C680.419 468.599 689.024 462.774 696.835 455.493C744.89 411.939 748.332 337.671 704.646 289.615Z" fill="white"/>
<path d="M662.018 264.197C677.11 270.551 690.48 280.083 701.733 292.395C722.12 314.768 732.579 343.892 731.122 374.208C729.666 404.524 716.56 432.458 694.187 452.845C687.7 458.67 680.684 463.833 673.138 468.069L622.17 368.648L662.018 264.197ZM659.767 259.034L617.801 368.781L671.417 473.365C680.419 468.731 689.024 462.906 696.835 455.625C744.89 411.938 748.332 337.67 704.646 289.615C691.937 275.582 676.448 265.388 659.767 259.034Z" fill="black"/>
<path d="M749.921 427.956C749.921 427.956 707.029 331.316 684.523 322.313C657.649 311.458 636.865 338.332 659.503 387.579C678.301 428.618 667.313 472.835 686.906 517.845" fill="#F5BAAE"/>
<path d="M672.211 372.62C679.095 371.561 683.994 368.516 686.641 363.75C693.261 351.836 683.994 333.037 683.596 332.243L681.214 333.434C681.346 333.566 690.216 351.703 684.258 362.559C681.875 366.927 677.11 369.575 670.226 370.37L670.49 373.017C671.152 372.885 671.682 372.752 672.211 372.62Z" fill="black"/>
<path d="M697.541 444.017L687.438 448.666L689.098 452.274L699.201 447.626L697.541 444.017Z" fill="white"/>
<path d="M693.724 436.374L687.637 438.2L688.779 442.004L694.865 440.178L693.724 436.374Z" fill="white"/>
<path d="M756.275 218.394L726.621 243.547L733.373 250.431L772.294 218.394H756.275Z" fill="black"/>
<path d="M610.123 533.601L602.445 559.018L608.931 560.342L619.257 527.643L610.123 533.601Z" fill="black"/>
<path d="M758.526 273.333C761.085 273.333 763.159 271.259 763.159 268.7C763.159 266.141 761.085 264.066 758.526 264.066C755.967 264.066 753.893 266.141 753.893 268.7C753.893 271.259 755.967 273.333 758.526 273.333Z" fill="black"/>
</svg>
