<svg width="1000" height="1000" viewBox="0 0 1000 1000" fill="none" xmlns="http://www.w3.org/2000/svg">
<rect width="1000" height="1000" fill="white"/>
<path d="M575.395 151.266C514.742 153.212 428.628 155.158 428.628 155.158C428.628 155.158 420.357 128.886 359.705 129.372C299.052 129.859 138.987 164.726 129.095 224.244C119.202 283.761 163.151 271.922 163.151 271.922C163.151 271.922 125.364 292.356 131.041 329.17C136.717 365.983 162.989 357.712 162.989 357.712C162.989 357.712 122.121 373.929 133.96 420.797C145.798 467.665 262.563 462.476 293.214 452.583C323.864 442.691 377.544 454.205 373.003 495.721C373.003 495.721 419.709 520.858 432.034 447.88C444.359 375.064 505.985 359.658 540.041 358.523C610.586 317.169 607.829 236.244 575.395 151.266Z" fill="#6857A7"/>
<path d="M200.399 255.221L162.393 269.797L164.135 274.34L202.142 259.763L200.399 255.221Z" fill="white"/>
<path d="M222.215 238.991L213.619 246.651L216.855 250.283L225.452 242.623L222.215 238.991Z" fill="white"/>
<path d="M203.345 342.45L165.338 357.027L167.08 361.569L205.087 346.993L203.345 342.45Z" fill="white"/>
<path d="M225.075 326.066L216.478 333.727L219.715 337.359L228.312 329.699L225.075 326.066Z" fill="white"/>
<path d="M819.952 575.187C823.844 514.696 828.223 449.827 828.223 449.827C828.223 449.827 855.306 444.151 860.658 383.822C866.009 323.494 847.035 160.672 788.815 145.104C730.595 129.535 738.055 174.295 738.055 174.295C738.055 174.295 721.351 134.725 684.213 136.671C647.076 138.617 652.751 165.7 652.751 165.7C652.751 165.7 640.751 123.373 592.747 130.671C544.906 137.968 538.744 254.571 545.555 286.032C552.366 317.656 539.879 355.118 489.605 369.876C489.605 369.876 465.117 405.23 536.473 424.69C607.83 444.151 617.073 506.912 614.803 540.968C649.184 614.919 732.379 599.188 819.952 575.187Z" fill="#F5BAAE"/>
<path d="M740.525 173.408L735.833 174.696L746.612 213.948L751.304 212.66L740.525 173.408Z" fill="black"/>
<path d="M757.863 226.884L753.93 229.748L760.707 239.056L764.64 236.193L757.863 226.884Z" fill="black"/>
<path d="M653.601 167.708L648.91 168.997L659.688 208.249L664.38 206.96L653.601 167.708Z" fill="black"/>
<path d="M671.098 221.052L667.166 223.917L673.945 233.224L677.878 230.359L671.098 221.052Z" fill="black"/>
<path d="M436.413 860.285C496.904 857.528 561.935 854.609 561.935 854.609C561.935 854.609 570.53 880.882 631.183 879.584C691.836 878.287 851.414 841.473 860.496 781.956C869.577 722.276 825.791 734.763 825.791 734.763C825.791 734.763 863.253 713.843 857.252 677.03C851.252 640.216 824.98 648.974 824.98 648.974C824.98 648.974 865.685 632.27 853.198 585.564C840.711 538.858 724.108 545.507 693.457 555.886C662.807 566.103 610.587 555.238 614.641 513.721C614.641 513.721 566.151 489.233 554.637 562.211C543.123 635.189 481.659 651.406 447.765 652.866L436.413 860.285Z" fill="#F05050"/>
<path d="M454.252 581.512C408.681 572.268 387.599 533.67 378.355 497.83C375.274 496.857 373.328 495.722 373.328 495.722C377.869 454.205 324.189 442.691 293.538 452.584C270.834 459.882 201.262 464.747 161.529 447.719C161.529 506.75 161.529 575.511 161.529 575.511C161.529 575.511 134.933 582.971 133.473 643.462C132.014 704.114 161.53 865.152 220.723 876.991C279.916 888.83 269.537 844.394 269.537 844.394C269.537 844.394 288.673 882.829 325.649 878.45C362.624 874.072 355.164 847.475 355.164 847.475C355.164 847.475 369.922 888.829 417.276 878.45C464.631 868.071 463.171 751.307 454.252 720.332C445.332 689.356 451.333 656.76 498.525 640.542C498.525 640.542 526.581 596.269 454.252 581.512Z" fill="#F7C748"/>
<path d="M200.399 255.221L162.393 269.797L164.135 274.34L202.142 259.763L200.399 255.221Z" fill="white"/>
<path d="M222.215 238.991L213.619 246.651L216.855 250.283L225.452 242.623L222.215 238.991Z" fill="white"/>
<path d="M203.345 342.45L165.338 357.027L167.08 361.569L205.087 346.993L203.345 342.45Z" fill="white"/>
<path d="M225.075 326.066L216.478 333.727L219.715 337.359L228.312 329.699L225.075 326.066Z" fill="white"/>
<path d="M824.963 732.485L787.143 747.538L788.942 752.058L826.762 737.005L824.963 732.485Z" fill="white"/>
<path d="M772.875 756.686L764.374 764.452L767.656 768.044L776.157 760.278L772.875 756.686Z" fill="white"/>
<path d="M820.871 645.285L783.052 660.338L784.851 664.859L822.67 649.806L820.871 645.285Z" fill="white"/>
<path d="M768.992 669.551L760.491 677.317L763.772 680.909L772.273 673.143L768.992 669.551Z" fill="white"/>
<path d="M258.253 805.683L253.655 807.274L266.97 845.741L271.568 844.149L258.253 805.683Z" fill="black"/>
<path d="M242.45 782.25L238.712 785.364L246.082 794.21L249.82 791.096L242.45 782.25Z" fill="black"/>
<path d="M345.775 805.173L341.178 806.765L354.492 845.231L359.09 843.64L345.775 805.173Z" fill="black"/>
<path d="M329.694 782.229L325.957 785.343L333.327 794.19L337.065 791.076L329.694 782.229Z" fill="black"/>
<path d="M520.743 894.668L488.308 871.478L484.902 874.883L517.986 900.02L520.743 894.668Z" fill="black"/>
<path d="M466.901 100.02L452.144 137.157L456.36 139.59L472.739 101.317L466.901 100.02Z" fill="black"/>
<path d="M886.606 441.069L862.928 469.936L870.226 477.721L894.228 442.853L886.606 441.069Z" fill="black"/>
<path d="M867.793 194.89C871.107 194.89 873.794 192.203 873.794 188.889C873.794 185.576 871.107 182.889 867.793 182.889C864.479 182.889 861.793 185.576 861.793 188.889C861.793 192.203 864.479 194.89 867.793 194.89Z" fill="black"/>
<path d="M112.715 464.747C116.029 464.747 118.716 462.061 118.716 458.747C118.716 455.433 116.029 452.746 112.715 452.746C109.401 452.746 106.715 455.433 106.715 458.747C106.715 462.061 109.401 464.747 112.715 464.747Z" fill="black"/>
<path d="M446.792 897.749C450.106 897.749 452.793 895.063 452.793 891.749C452.793 888.435 450.106 885.748 446.792 885.748C443.478 885.748 440.792 888.435 440.792 891.749C440.792 895.063 443.478 897.749 446.792 897.749Z" fill="black"/>
</svg>
