<svg width="1000" height="1000" viewBox="0 0 1000 1000" fill="none" xmlns="http://www.w3.org/2000/svg">
<rect width="1000" height="1000" fill="white"/>
<path d="M99.5156 607.295L195.863 568.513C195.863 568.513 158.124 363.469 147.689 300.513C137.255 237.556 146.124 185.382 204.038 180.86C204.038 180.86 201.95 147.991 237.429 133.904C272.733 119.643 316.559 135.643 368.559 375.991C368.559 375.991 377.255 211.991 461.95 200.165C546.646 188.339 667.689 229.208 680.037 250.426C692.385 271.643 703.341 326.947 618.472 319.991C533.602 313.034 494.298 299.121 482.994 363.469C471.516 427.817 471.69 446.426 471.69 446.426L494.472 586.6C494.472 586.6 549.081 564.686 596.733 590.252C596.733 590.252 702.646 510.252 745.777 515.295C788.907 520.339 829.429 556.165 720.385 637.556C611.342 718.773 567.168 803.817 460.907 771.991L209.081 869.73C208.907 869.382 111.516 785.382 99.5156 607.295Z" fill="#F7C748"/>
<path d="M745.602 515.121C726.82 512.86 696.211 526.773 667.516 543.295L786.472 536.86C779.515 523.991 762.646 517.208 745.602 515.121Z" fill="black"/>
<path d="M266.994 488.513L263.863 484.339C264.211 484.165 292.211 463.47 331.689 448.861C368.385 435.296 422.646 424.339 473.428 449.209L471.168 453.904C377.081 407.817 268.211 487.643 266.994 488.513Z" fill="black"/>
<path d="M368.901 367.905L363.86 369.249L382.497 439.152L387.538 437.808L368.901 367.905Z" fill="black"/>
<path d="M279.515 472.686C236.559 204.339 201.95 183.121 200.559 182.252L202.646 177.556C204.211 178.252 240.559 196.686 284.559 471.817L279.515 472.686Z" fill="black"/>
<path d="M403.342 656.687L398.472 654.773C399.168 653.208 414.646 614.252 498.646 582.078L500.559 586.947C418.994 618.252 403.516 656.339 403.342 656.687Z" fill="black"/>
<path d="M490.124 560.86L473.255 457.556C471.863 449.034 471.69 440.512 472.559 431.817C473.776 419.469 476.733 398.078 482.82 363.295C483.515 358.947 484.559 354.947 485.603 351.295C483.516 350.078 481.255 349.382 478.646 349.208C428.211 343.991 438.646 502.252 445.603 540.512C450.124 565.556 474.124 564.512 490.124 560.86Z" fill="black"/>
<path d="M668.559 265.556C618.646 265.556 615.342 221.904 615.342 221.382L620.559 221.034C620.733 222.773 623.69 262.252 672.038 260.339L672.211 265.556C670.82 265.556 669.603 265.556 668.559 265.556Z" fill="black"/>
<path d="M662.213 576.926L658.986 578.225L675.815 620.007L679.041 618.708L662.213 576.926Z" fill="white"/>
<path d="M829.048 293.596L460.725 333.158L483.645 546.543L851.969 506.981L829.048 293.596Z" fill="white"/>
<path d="M481.255 549.208L457.776 330.773L831.168 290.599L854.646 509.034L481.255 549.208ZM463.516 335.469L485.95 543.643L849.081 504.686L826.646 296.512L463.516 335.469Z" fill="black"/>
<path d="M553.23 355.813L545.953 383.571L552.009 385.158L559.286 357.401L553.23 355.813Z" fill="black"/>
<path d="M576.753 348.821L575.923 355.026L604.366 358.831L605.196 352.626L576.753 348.821Z" fill="black"/>
<path d="M488.529 431.78L473.28 456.088L478.584 459.415L493.833 435.107L488.529 431.78Z" fill="black"/>
<path d="M466.957 377.008L464.901 382.922L492.007 392.346L494.063 386.431L466.957 377.008Z" fill="black"/>
<path d="M564.038 427.643L545.603 418.252L502.646 427.643L501.603 422.774L538.646 414.6L519.168 404.687L520.559 402.078L543.168 413.73L567.342 408.339L568.385 413.382L550.298 417.382L565.429 425.034L564.038 427.643Z" fill="black"/>
<path d="M482.646 409.73C484.56 410.773 485.429 413.208 484.386 415.121C483.342 417.034 480.907 417.903 478.994 416.86C477.081 415.817 476.212 413.382 477.255 411.469C478.125 409.556 480.56 408.686 482.646 409.73Z" fill="black"/>
<path d="M524.385 352.861C523.342 355.122 520.559 355.817 518.472 354.774C516.211 353.73 515.516 350.948 516.559 348.861C517.603 346.6 520.385 345.904 522.472 346.948C524.559 347.991 525.429 350.774 524.385 352.861Z" fill="black"/>
<path d="M468.559 354.947C467.516 356.86 465.255 357.556 463.516 356.512C461.777 355.469 460.907 353.208 461.95 351.469C462.994 349.73 465.255 348.86 466.994 349.904C468.733 350.773 469.603 353.034 468.559 354.947Z" fill="black"/>
<path d="M537.951 380.86L536.385 385.73L500.385 374.947L510.298 390.251L506.124 392.86L492.907 372.686L472.037 366.425L473.429 361.556L488.733 366.077L467.689 333.556L473.255 332.86L496.211 368.338L537.951 380.86Z" fill="black"/>
<path d="M504.559 329.382L524.907 335.643L524.038 338.425L497.255 330.251L504.559 329.382Z" fill="black"/>
<path d="M569.429 325.903L590.125 329.208L589.776 332.164L569.776 328.86L570.472 335.121L561.603 336.164L560.733 327.468L544.907 324.86L555.863 323.642L560.385 324.338L560.211 323.121L569.081 322.251L569.429 325.903Z" fill="black"/>
<path d="M845.645 440.029L477.321 479.591L480.943 513.311L849.267 473.749L845.645 440.029Z" fill="black"/>
<path d="M802.599 329.154L731.701 336.77L739.316 407.668L810.214 400.052L802.599 329.154Z" fill="white"/>
<path d="M736.907 410.425L728.732 334.425L804.733 326.252L812.907 402.252L736.907 410.425ZM734.472 338.947L741.603 404.686L807.341 397.556L800.211 331.817L734.472 338.947Z" fill="black"/>
<path d="M896.037 326.6L878.646 310.6L882.124 305.382L899.516 321.382L896.037 326.6Z" fill="black"/>
<path d="M760.559 201.382L735.342 215.643L732.211 208.164L757.428 193.73L760.559 201.382Z" fill="black"/>
<path d="M864.733 210.425C867.326 210.425 869.429 207.856 869.429 204.686C869.429 201.517 867.326 198.947 864.733 198.947C862.14 198.947 860.037 201.517 860.037 204.686C860.037 207.856 862.14 210.425 864.733 210.425Z" fill="black"/>
</svg>
