<svg width="1000" height="1000" viewBox="0 0 1000 1000" fill="none" xmlns="http://www.w3.org/2000/svg">
<rect width="1000" height="1000" fill="white"/>
<path d="M845.909 875.78C845.909 875.78 858.701 561.65 762.034 449.865C718.279 399.133 687.898 473.123 666.675 455.534C626.409 422.1 601.407 424.862 601.407 424.862C601.407 424.862 516.951 431.84 526.69 501.324C526.69 501.324 480.029 506.702 499.507 597.264C518.986 687.825 550.385 680.121 550.385 680.121C550.385 680.121 560.56 756.727 625.247 777.078L624.956 881.304C624.956 881.595 717.117 926.948 845.909 875.78Z" fill="#F7C748"/>
<path d="M573.933 658.026C540.354 624.447 528.289 583.454 524.219 554.818C519.713 523.855 523.056 501.178 523.201 500.306L527.562 501.033C527.417 501.905 514.479 592.467 577.131 654.973L573.933 658.026Z" fill="black"/>
<path d="M831.954 637.965C822.796 527.343 808.26 389.248 731.653 322.526C641.528 244.03 547.623 282.551 647.342 377.764C711.157 438.672 717.117 459.168 689.643 529.815L744.154 550.02L831.954 637.965Z" fill="#F7C748"/>
<path d="M786.019 610.492C786.019 610.492 717.844 512.08 680.921 487.659C643.999 463.238 645.888 404.22 611.001 453.353C576.841 501.469 617.543 611.218 617.543 611.218C617.543 611.218 629.317 665.729 575.533 656.426C575.533 656.426 577.567 677.65 551.983 680.993L563.322 720.386C563.322 720.386 565.938 732.161 617.252 710.792L628.009 721.84C628.009 721.84 632.224 606.712 786.019 610.492Z" fill="black"/>
<path d="M704.033 393.317V358.139H689.061C687.607 352.761 685.572 347.673 682.956 342.876L694.294 332.701L670.745 306.535L659.116 317.001C652.72 312.786 645.743 309.733 638.184 307.698V291.999H603.006V307.553C597.772 308.861 592.83 310.751 588.033 313.077L577.858 301.738L551.692 325.287L561.431 336.189C556.925 342.731 553.436 349.999 551.256 357.849H537.156V393.027H550.675C551.983 398.841 554.018 404.51 556.78 409.598L547.041 418.465L570.589 444.631L580.038 436.054C587.015 440.851 594.72 444.34 603.151 446.375V459.022H638.329V446.084C644.143 444.631 649.522 442.45 654.755 439.543L663.477 449.282L689.642 425.734L680.484 415.413C684.845 408.726 688.043 401.167 689.933 393.027L704.033 393.317ZM620.013 407.854C602.715 407.854 588.76 393.899 588.76 376.601C588.76 359.302 602.715 345.347 620.013 345.347C637.312 345.347 651.267 359.302 651.267 376.601C651.267 393.899 637.166 407.854 620.013 407.854Z" fill="white"/>
<path d="M640.219 461.348H600.68V448.12C593.266 446.085 586.289 443.033 579.893 438.817L570.008 447.684L543.407 418.321L553.582 409.163C551.402 404.657 549.658 400.005 548.495 395.208H534.54L534.685 355.669H549.367C551.402 348.837 554.455 342.296 558.379 336.336L548.204 325.143L577.713 298.687L588.324 310.461C592.249 308.571 596.319 307.118 600.534 305.955V289.965H640.074V306.245C646.615 308.135 652.865 310.897 658.68 314.531L670.746 303.629L697.347 332.992L685.718 343.604C687.753 347.529 689.497 351.744 690.805 356.105H706.36L706.214 395.644H691.387C689.497 402.622 686.735 409.308 682.956 415.559L692.55 426.17L663.041 452.627L653.883 442.451C649.522 444.777 644.871 446.521 640.219 447.975V461.348ZM605.041 456.987H635.858V444.632L637.457 444.195C642.981 442.742 648.36 440.707 653.302 437.945L654.756 437.073L663.186 446.521L686.154 425.88L677.287 415.995L678.159 414.541C682.52 407.855 685.572 400.586 687.317 392.882L687.753 391.138H701.562V360.321H687.026L686.59 358.722C685.136 353.634 683.247 348.546 680.63 344.04L679.758 342.586L690.805 332.702L670.164 309.734L658.971 319.91L657.517 319.038C651.267 314.967 644.435 311.914 637.166 310.025L635.567 309.589V294.326H604.751V309.298L603.151 309.734C598.209 310.897 593.267 312.787 588.615 315.112L587.161 315.839L577.277 304.792L554.309 325.433L563.758 336.045L562.74 337.499C558.234 343.895 554.891 351.017 552.856 358.576L552.419 360.175H538.755V390.993H551.693L552.129 392.737C553.437 398.261 555.327 403.784 558.089 408.872L558.816 410.326L549.367 418.757L570.008 441.724L579.166 433.439L580.62 434.456C587.452 439.108 595.011 442.451 603.006 444.486L604.605 444.922V456.987H605.041ZM620.014 410.035C601.553 410.035 586.58 395.063 586.58 376.601C586.58 358.14 601.553 343.168 620.014 343.168C638.475 343.168 653.447 358.14 653.447 376.601C653.447 395.063 638.33 410.035 620.014 410.035ZM620.014 347.529C604.024 347.529 590.941 360.611 590.941 376.601C590.941 392.591 604.024 405.674 620.014 405.674C636.004 405.674 649.086 392.591 649.086 376.601C649.086 360.611 636.004 347.529 620.014 347.529Z" fill="black"/>
<path d="M794.886 628.371C794.886 628.371 719.297 412.361 683.537 400.877C647.778 389.394 627.572 421.81 628.445 452.191C629.317 482.572 692.259 650.612 692.259 650.612" fill="#F7C748"/>
<path d="M682.375 466.873C680.049 466.873 677.723 466.582 675.252 465.855C662.46 461.93 652.72 447.539 646.324 422.827L650.54 421.81C656.5 444.923 665.222 458.296 676.415 461.785C688.916 465.564 700.691 455.389 700.691 455.243L703.598 458.441C703.307 458.732 694.004 466.873 682.375 466.873Z" fill="black"/>
<path d="M733.177 519.016L711.483 525.617L712.752 529.789L734.447 523.188L733.177 519.016Z" fill="white"/>
<path d="M633.678 749.314C608.53 690.587 663.622 647.704 664.204 647.268L666.82 650.757C666.239 651.193 613.762 692.04 637.602 747.569L633.678 749.314Z" fill="white"/>
<path d="M780.495 586.36C719.588 416.576 683.392 403.202 683.102 403.057L684.264 398.841C685.863 399.277 722.349 411.342 784.565 584.761L780.495 586.36Z" fill="black"/>
<path d="M430.75 267.578L430.896 209.287H406.039C403.567 200.42 400.224 191.989 396.009 184.139L414.76 167.277L375.803 124.104L356.615 141.402C346.149 134.57 334.374 129.337 322.018 125.994V100.119H263.582V125.703C255.006 127.884 246.72 130.936 238.87 134.861L222.008 116.109L178.69 155.067L194.825 173.092C187.266 183.849 181.597 195.914 177.963 208.996H154.56L154.414 267.287H176.655C178.835 276.881 182.324 286.184 186.685 294.761L170.55 309.297L209.507 352.47L225.206 338.37C236.69 346.22 249.627 352.034 263.437 355.523V376.455H321.728V355.087C331.322 352.616 340.334 348.982 348.765 344.33L363.302 360.465L406.62 321.508L391.357 304.5C398.48 293.307 403.858 280.951 407.056 267.578H430.75ZM291.783 291.418C263.291 291.418 240.179 268.305 240.179 239.814C240.179 211.322 263.291 188.21 291.783 188.21C320.274 188.21 343.387 211.322 343.387 239.814C343.387 268.305 320.274 291.418 291.783 291.418Z" fill="black"/>
<path d="M247.883 224.986H169.823V230.801H247.883V224.986Z" fill="white"/>
<path d="M197.716 296.51L194.024 301.002L254.333 350.571L258.026 346.079L197.716 296.51Z" fill="white"/>
<path d="M233.277 313.507L233.062 317.135L335.079 323.153L335.293 319.525L233.277 313.507Z" fill="white"/>
<path d="M379.292 308.716L370.715 303.047L365.046 311.477L341.933 303.919L340.771 307.262L363.156 314.53L352.254 330.811L360.83 336.48L373.186 317.728L396.444 325.287L397.462 322.089L375.222 314.821L379.292 308.716Z" fill="white"/>
<path d="M382.601 244.742L375.386 277.387L382.34 278.924L389.555 246.279L382.601 244.742Z" fill="white"/>
<path d="M268.206 159.95L260.991 192.594L267.946 194.132L275.161 161.487L268.206 159.95Z" fill="white"/>
<path d="M221.996 271.052L214.899 271.666L217.782 304.976L224.878 304.362L221.996 271.052Z" fill="white"/>
<path d="M297.852 297.783L296.862 304.837L329.972 309.481L330.961 302.427L297.852 297.783Z" fill="white"/>
<path d="M217.232 176.795L216.242 183.849L249.352 188.493L250.341 181.439L217.232 176.795Z" fill="white"/>
<path d="M425.372 212.631H401.532L361.994 180.07L358.214 184.721L392.229 212.631H366.936V215.974H396.445L418.54 234.29L422.319 229.784L405.603 215.974H425.372V212.631Z" fill="white"/>
<path d="M331.758 184.139C334.374 184.139 336.409 182.104 336.409 179.488C336.409 176.871 334.374 174.836 331.758 174.836C329.141 174.836 327.106 176.871 327.106 179.488C327.106 182.104 329.286 184.139 331.758 184.139Z" fill="white"/>
<path d="M307.773 341.423C305.156 341.423 303.121 343.458 303.121 346.075C303.121 348.691 305.156 350.726 307.773 350.726C310.389 350.726 312.425 348.691 312.425 346.075C312.425 343.458 310.244 341.423 307.773 341.423Z" fill="white"/>
<path d="M298.905 121.197C301.522 121.197 303.557 119.162 303.557 116.545C303.557 113.929 301.522 111.894 298.905 111.894C296.289 111.894 294.254 113.929 294.254 116.545C294.254 119.162 296.289 121.197 298.905 121.197Z" fill="white"/>
<path d="M198.896 256.675C198.896 253.768 196.57 251.587 193.808 251.587C190.901 251.587 188.72 253.913 188.72 256.675C188.72 259.437 191.046 261.763 193.808 261.763C196.57 261.763 198.896 259.437 198.896 256.675Z" fill="white"/>
<path d="M344.84 264.961C344.84 262.054 342.515 259.874 339.753 259.874C336.991 259.874 334.665 262.199 334.665 264.961C334.665 267.869 336.991 270.049 339.753 270.049C342.515 270.049 344.84 267.869 344.84 264.961Z" fill="white"/>
<path d="M190.464 163.062C192.632 163.062 194.389 161.175 194.389 158.847C194.389 156.518 192.632 154.631 190.464 154.631C188.297 154.631 186.54 156.518 186.54 158.847C186.54 161.175 188.297 163.062 190.464 163.062Z" fill="white"/>
<path d="M241.632 159.282C241.632 156.81 239.597 154.921 237.272 154.921C234.8 154.921 232.911 156.956 232.911 159.282C232.911 161.753 234.946 163.642 237.272 163.642C239.597 163.788 241.632 161.753 241.632 159.282Z" fill="white"/>
<path d="M335.973 283.714L324.344 279.934C323.327 280.806 322.164 281.678 321.001 282.405L334.956 286.912L335.973 283.714Z" fill="white"/>
<path d="M242.941 256.094L215.031 233.127L212.705 235.889L245.848 263.072C244.685 260.892 243.668 258.566 242.941 256.094Z" fill="white"/>
<path d="M347.167 213.938L338.881 218.736C339.753 220.48 340.48 222.369 341.061 224.259L350.074 219.026L347.167 213.938Z" fill="white"/>
<path d="M253.698 274.555C252.389 273.101 251.081 271.503 249.918 269.904L233.056 279.643L235.963 284.731L253.698 274.555Z" fill="white"/>
<path d="M277.828 289.528L291.638 300.866L293.963 298.104L285.387 290.981C282.77 290.69 280.299 290.254 277.828 289.528Z" fill="white"/>
<path d="M374.64 237.488L342.66 231.673C342.951 233.708 343.242 235.743 343.242 237.778L373.478 243.302L374.64 237.488Z" fill="white"/>
<path d="M258.64 200.42L235.236 192.861L234.219 196.059L255.733 203.036C256.605 202.164 257.622 201.292 258.64 200.42Z" fill="white"/>
<path d="M300.068 157.248L294.69 181.523L301.667 183.123L306.319 162.335L318.675 172.511L321.001 169.749L307.191 158.411L308.935 150.416L301.958 148.817L300.94 153.177L263.582 122.506V125.558C263.146 125.704 262.565 125.849 262.128 125.995L300.068 157.248Z" fill="white"/>
<path d="M349.347 164.806L356.469 164.225L354.434 140.094C351.963 138.495 349.492 137.041 346.875 135.733L349.347 164.806Z" fill="white"/>
<path d="M646.47 187.774V160.882H634.986C633.823 156.812 632.369 152.887 630.334 149.253L639.056 141.403L621.031 121.343L612.164 129.338C607.221 126.14 601.843 123.669 596.174 122.215V110.15H569.282V122.07C565.212 123.088 561.432 124.541 557.798 126.285L549.948 117.564L529.888 135.589L537.447 143.875C533.958 148.817 531.342 154.486 529.598 160.446H518.841V187.338H529.161C530.179 191.844 531.778 196.06 533.813 199.985L526.4 206.672L544.425 226.732L551.693 220.19C556.926 223.825 563.031 226.586 569.427 228.04V237.779H596.319V227.894C600.68 226.732 604.896 224.987 608.821 222.952L615.508 230.366L635.568 212.341L628.445 204.491C631.788 199.258 634.259 193.589 635.713 187.338L646.47 187.774ZM582.219 198.822C568.991 198.822 558.38 188.065 558.38 174.982C558.38 161.754 569.136 151.143 582.219 151.143C595.302 151.143 606.059 161.899 606.059 174.982C606.059 188.21 595.447 198.822 582.219 198.822Z" fill="black"/>
<path d="M562.014 168.005H525.818V170.767H562.014V168.005Z" fill="white"/>
<path d="M555.198 209.009L555.104 210.605L602.266 213.387L602.361 211.791L555.198 209.009Z" fill="white"/>
<path d="M624.066 177.307L620.741 192.352L624.005 193.074L627.33 178.029L624.066 177.307Z" fill="white"/>
<path d="M571.06 138.107L567.735 153.152L570.999 153.874L574.325 138.829L571.06 138.107Z" fill="white"/>
<path d="M550 189.486L546.669 189.774L547.998 205.126L551.329 204.838L550 189.486Z" fill="white"/>
<path d="M643.999 162.336H632.952L614.636 147.363L612.891 149.398L628.736 162.336H616.962V163.935H630.626L640.947 172.366L642.691 170.331L634.841 163.935H643.999V162.336Z" fill="white"/>
<path d="M600.68 149.254C601.843 149.254 602.861 148.237 602.861 147.074C602.861 145.911 601.843 144.893 600.68 144.893C599.518 144.893 598.5 145.911 598.5 147.074C598.5 148.237 599.518 149.254 600.68 149.254Z" fill="white"/>
<path d="M589.633 221.936C588.47 221.936 587.453 222.954 587.453 224.116C587.453 225.279 588.47 226.297 589.633 226.297C590.796 226.297 591.813 225.279 591.813 224.116C591.813 222.954 590.796 221.936 589.633 221.936Z" fill="white"/>
<path d="M585.417 120.035C586.58 120.035 587.598 119.018 587.598 117.855C587.598 116.692 586.58 115.674 585.417 115.674C584.254 115.674 583.237 116.692 583.237 117.855C583.237 119.018 584.254 120.035 585.417 120.035Z" fill="white"/>
<path d="M539.192 182.687C539.192 181.379 538.174 180.361 536.866 180.361C535.558 180.361 534.54 181.379 534.54 182.687C534.54 183.995 535.558 185.013 536.866 185.013C538.029 185.158 539.192 183.995 539.192 182.687Z" fill="white"/>
<path d="M535.267 139.369C536.23 139.369 537.011 138.523 537.011 137.479C537.011 136.435 536.23 135.589 535.267 135.589C534.303 135.589 533.522 136.435 533.522 137.479C533.522 138.523 534.303 139.369 535.267 139.369Z" fill="white"/>
<path d="M558.961 137.769C558.961 136.606 558.089 135.734 556.926 135.734C555.764 135.734 554.891 136.606 554.891 137.769C554.891 138.932 555.764 139.804 556.926 139.804C558.089 139.804 558.961 138.787 558.961 137.769Z" fill="white"/>
<path d="M602.715 195.334L597.337 193.59C596.901 194.026 596.32 194.316 595.738 194.753L602.134 196.788L602.715 195.334Z" fill="white"/>
<path d="M564.631 191.118C564.049 190.391 563.468 189.665 562.886 188.938L555.037 193.444L556.345 195.77L564.631 191.118Z" fill="white"/>
<path d="M620.596 173.82L605.769 171.058C605.914 171.931 606.06 172.948 606.06 173.82L620.015 176.437L620.596 173.82Z" fill="white"/>
<path d="M566.811 156.812L556.054 153.323L555.618 154.777L565.648 157.975C565.939 157.539 566.375 157.103 566.811 156.812Z" fill="white"/>
<path d="M425.953 468.906C422.755 470.941 402.841 478.936 402.841 478.936L413.888 485.622L425.953 468.906Z" fill="black"/>
<path d="M409.091 429.948L411.562 419.337L419.412 421.227L409.091 429.948Z" fill="black"/>
<path d="M413.016 669.798L421.156 695.382L412.29 697.563L406.766 672.56L413.016 669.798Z" fill="black"/>
</svg>
