<svg width="1000" height="1000" viewBox="0 0 1000 1000" fill="none" xmlns="http://www.w3.org/2000/svg">
<rect width="1000" height="1000" fill="white"/>
<path d="M102.119 214.497L99.5156 542.573L279.177 483.988L284.384 161.119L102.119 214.497Z" fill="white"/>
<path d="M280.348 166.327L275.271 481.124L103.421 537.105L105.895 217.361L280.348 166.327ZM284.384 161.119L102.119 214.497L99.5156 542.573L279.177 483.988L284.384 161.119Z" fill="black"/>
<path d="M129.459 232.723L125.553 510.026L263.554 470.969L268.761 192.365L129.459 232.723Z" fill="white"/>
<path d="M266.027 195.88L260.95 469.017L128.157 506.641L131.932 234.807L266.027 195.88ZM268.761 192.365L129.459 232.723L125.553 510.026L263.554 470.969L268.761 192.365Z" fill="black"/>
<path d="M236.084 393.376L167.214 413.295C157.059 416.159 148.857 409.129 148.857 397.282V351.455C148.857 339.738 157.059 327.891 167.214 324.897L236.084 304.978C246.238 302.114 254.44 309.144 254.44 320.991V366.818C254.44 378.535 246.238 390.382 236.084 393.376Z" fill="white"/>
<path d="M240.51 308.233C246.499 308.233 250.535 313.31 250.535 320.991V366.818C250.535 376.712 243.374 387.127 235.042 389.601L166.172 409.52C165 409.911 163.829 410.041 162.787 410.041C156.799 410.041 152.763 404.963 152.763 397.282V351.456C152.763 341.561 159.923 331.146 168.255 328.672L237.125 308.753C238.297 308.363 239.469 308.233 240.51 308.233ZM240.51 304.327C239.078 304.327 237.646 304.588 236.084 304.978L167.214 324.897C157.059 327.761 148.857 339.739 148.857 351.456V397.282C148.857 407.307 154.716 413.946 162.787 413.946C164.219 413.946 165.651 413.686 167.214 413.295L236.084 393.376C246.238 390.512 254.44 378.535 254.44 366.818V320.991C254.44 310.967 248.582 304.327 240.51 304.327Z" fill="black"/>
<path d="M230.413 358.88C233.835 352.07 232.547 344.509 227.536 341.991C222.525 339.473 215.689 342.951 212.267 349.761C208.845 356.571 210.133 364.133 215.144 366.651C220.155 369.169 226.991 365.69 230.413 358.88Z" fill="white"/>
<path d="M224.106 342.082C228.273 342.082 231.137 345.597 231.137 350.804C231.137 357.314 226.58 363.953 221.112 365.516C220.331 365.776 219.55 365.906 218.769 365.906C214.603 365.906 211.739 362.391 211.739 357.184C211.739 350.674 216.295 344.035 221.763 342.472C222.544 342.212 223.325 342.082 224.106 342.082ZM224.106 340.78C223.195 340.78 222.414 340.91 221.373 341.17C215.254 342.993 210.307 350.023 210.307 357.184C210.307 363.172 213.822 367.208 218.639 367.208C219.55 367.208 220.331 367.078 221.373 366.818C227.492 364.995 232.439 357.965 232.439 350.804C232.439 344.816 228.923 340.78 224.106 340.78Z" fill="black"/>
<path d="M226.097 356.451C227.539 349.555 225.227 343.236 220.934 342.339C216.641 341.441 211.993 346.305 210.551 353.202C209.109 360.099 211.42 366.417 215.713 367.315C220.006 368.212 224.655 363.348 226.097 356.451Z" fill="black"/>
<path d="M191.993 369.951C195.415 363.141 194.127 355.579 189.116 353.061C184.105 350.543 177.269 354.022 173.847 360.832C170.425 367.642 171.713 375.203 176.724 377.722C181.735 380.24 188.571 376.761 191.993 369.951Z" fill="white"/>
<path d="M185.571 353.279C189.737 353.279 192.601 356.794 192.601 362.002C192.601 368.511 188.044 375.151 182.576 376.713C181.795 376.973 181.014 377.103 180.233 377.103C176.067 377.103 173.203 373.588 173.203 368.381C173.203 361.871 177.759 355.232 183.227 353.669C184.008 353.279 184.79 353.279 185.571 353.279ZM185.571 351.977C184.659 351.977 183.878 352.107 182.837 352.367C176.718 354.19 171.771 361.22 171.771 368.381C171.771 374.369 175.285 378.405 180.102 378.405C181.014 378.405 181.795 378.275 182.837 378.015C188.955 376.192 193.903 369.162 193.903 362.002C193.903 355.883 190.388 351.977 185.571 351.977Z" fill="black"/>
<path d="M187.632 367.627C189.073 360.73 186.762 354.412 182.469 353.514C178.176 352.617 173.527 357.48 172.085 364.377C170.644 371.274 172.955 377.593 177.248 378.49C181.541 379.387 186.19 374.524 187.632 367.627Z" fill="black"/>
<path d="M261.681 469.82L260.199 471.961L277.111 483.669L278.593 481.528L261.681 469.82Z" fill="black"/>
<path d="M102.12 214.497L129.459 232.723L125.554 506.901L102.12 537.365V214.497Z" fill="black"/>
<path d="M283.271 164.436L267.667 191.658L269.927 192.953L285.53 165.731L283.271 164.436Z" fill="black"/>
<path d="M339.584 284.147L313.677 319.299L332.164 327.11L318.364 353.148L344.271 324.506L324.743 314.091L339.584 284.147Z" fill="black"/>
<path d="M398.3 350.544L372.783 359.657L377.73 369.942L361.196 378.535L384.109 372.806L379.683 360.829L398.3 350.544Z" fill="black"/>
<path d="M507.138 193.276L450.896 197.702L455.323 221.267L417.438 229.469L466.519 230.25L464.306 203.821L507.138 193.276Z" fill="black"/>
<path d="M262.252 577.333C259.388 579.156 241.552 586.317 241.552 586.317L251.446 592.305L262.252 577.333Z" fill="black"/>
<path d="M247.15 542.443L249.233 532.939L256.393 534.502L247.15 542.443Z" fill="black"/>
<path d="M897.705 462.506C897.705 462.506 629.906 375.54 510.132 431.781C455.713 457.298 512.215 501.302 491.905 515.363C453.239 542.052 449.724 564.184 449.724 564.184C449.724 564.184 435.273 638.652 497.634 647.114C497.634 647.114 490.994 688.644 573.794 693.852C656.594 698.929 657.636 670.027 657.636 670.027C657.636 670.027 726.246 679.791 759.444 629.018L849.274 654.535C849.274 654.405 910.724 585.925 897.705 462.506Z" fill="#F5BAAE"/>
<path d="M566.894 663.779C558.172 663.779 550.23 663.128 543.2 662.217C515.47 658.571 496.723 650.239 495.941 649.849L497.504 646.334C498.285 646.724 573.143 679.792 642.274 640.866L644.227 644.251C617.277 659.353 589.808 663.779 566.894 663.779Z" fill="black"/>
<path d="M689.272 416.941C591.63 398.063 471.596 390.903 385.932 421.497C285.165 457.56 298.705 554.29 420.301 513.281C495.16 488.024 507.398 472.792 561.557 513.541L592.151 471.36L689.272 416.941Z" fill="#F5BAAE"/>
<path d="M654.512 450.009C654.512 450.009 533.176 471.1 503.102 497.008C473.028 522.915 442.824 520.963 476.673 562.883C509.872 604.023 614.414 595.431 614.414 595.431C614.414 595.431 664.276 598.425 643.185 642.689C643.185 642.689 661.933 646.074 658.678 668.988L695.391 668.727C695.391 668.727 706.197 669.248 700.208 619.906L712.316 613.267C712.316 613.136 614.023 581.761 654.512 450.009Z" fill="black"/>
<path d="M727.287 615.48C677.815 615.48 656.855 564.315 656.725 563.795L660.37 562.362C660.63 562.883 683.153 618.083 736.791 610.923L737.312 614.829C733.796 615.349 730.542 615.48 727.287 615.48Z" fill="white"/>
<path d="M250.535 467.063L307.818 486.592L311.724 464.459C311.724 464.459 276.573 447.535 259.648 443.629C242.724 439.724 240.12 463.158 250.535 467.063Z" fill="black"/>
<path d="M305.344 434.776L363.669 451.18L366.403 428.918C366.403 428.918 330.34 413.946 313.285 410.952C296.231 407.957 294.799 431.391 305.344 434.776Z" fill="black"/>
<path d="M296.101 507.423C296.101 507.423 410.667 554.291 428.894 554.291C447.12 554.291 475.762 539.97 496.592 513.932C517.422 487.894 513.516 474.875 507.007 468.366C500.888 462.247 447.511 422.409 396.997 410.562C390.097 409 382.937 409.39 376.297 411.864C353.514 420.196 297.793 443.37 289.591 472.271C279.176 508.724 296.101 507.423 296.101 507.423Z" fill="white"/>
<path d="M388.665 413.556C391.139 413.556 393.612 413.817 396.086 414.468C447.641 426.445 500.237 467.194 504.143 471.23C514.037 481.124 503.752 498.7 493.467 511.588C473.028 537.106 445.427 550.515 428.763 550.515C414.442 550.515 329.169 516.926 297.403 503.907L296.621 503.517L295.58 503.647C295.189 503.647 293.497 503.517 292.065 501.694C290.112 499.221 287.768 492.19 293.106 473.573C301.048 445.713 359.633 422.279 377.338 415.77C381.244 414.207 384.89 413.556 388.665 413.556ZM388.665 409.65C384.499 409.65 380.203 410.432 376.297 411.864C353.514 420.196 297.793 443.369 289.591 472.271C279.827 506.251 294.018 507.422 295.84 507.422C295.971 507.422 296.101 507.422 296.101 507.422C296.101 507.422 410.667 554.291 428.893 554.291C447.12 554.291 475.762 539.97 496.592 513.932C517.422 487.894 513.516 474.875 507.007 468.366C500.888 462.247 447.511 422.409 396.997 410.562C394.263 409.911 391.529 409.65 388.665 409.65Z" fill="black"/>
<path d="M470.815 467.195L463.654 471.361L467.82 478.391L454.15 492.451L456.103 494.274L469.252 480.865L477.194 494.404L484.355 490.238L475.241 474.745L488.781 460.685L486.828 458.732L473.809 472.272L470.815 467.195Z" fill="black"/>
<path d="M426.27 437.151L422.694 441.626L443.645 458.369L447.221 453.894L426.27 437.151Z" fill="black"/>
<path d="M365.224 509.653L361.647 514.127L382.599 530.871L386.175 526.396L365.224 509.653Z" fill="black"/>
<path d="M377.346 464.887L362.29 487.083L367.03 490.298L382.086 468.103L377.346 464.887Z" fill="black"/>
<path d="M433.659 489.333L401.021 522.966L402.982 524.87L435.621 491.237L433.659 489.333Z" fill="black"/>
<path d="M360.805 457.3C361.716 455.477 360.935 453.264 359.112 452.353C357.289 451.441 355.076 452.222 354.165 454.045C353.254 455.868 354.035 458.081 355.857 458.992C357.55 459.904 359.893 459.122 360.805 457.3Z" fill="black"/>
<path d="M465.477 519.921C464.566 521.744 465.347 523.957 467.169 524.868C468.992 525.779 471.205 524.999 472.117 523.176C473.028 521.353 472.247 519.14 470.424 518.229C468.601 517.317 466.388 517.968 465.477 519.921Z" fill="black"/>
<path d="M327.216 500.392C328.127 498.569 327.347 496.356 325.524 495.445C323.701 494.533 321.488 495.315 320.577 497.137C319.665 498.96 320.447 501.173 322.269 502.084C324.092 502.996 326.305 502.215 327.216 500.392Z" fill="black"/>
<path d="M423.556 476.568C421.473 475.526 419 476.437 417.958 478.52C416.917 480.603 417.828 483.077 419.911 484.119C421.994 485.16 424.467 484.249 425.509 482.166C426.55 479.952 425.639 477.479 423.556 476.568Z" fill="black"/>
<path d="M380.724 505.99C379.032 505.079 376.818 505.86 376.037 507.553C375.126 509.245 375.907 511.458 377.6 512.239C379.292 513.021 381.505 512.37 382.286 510.677C383.067 508.985 382.547 506.902 380.724 505.99Z" fill="black"/>
<path d="M430.586 554.29C431.758 554.29 432.93 554.16 434.101 554.03L462.222 504.298L459.749 502.866L430.586 554.29Z" fill="black"/>
<path d="M398.039 542.313L430.587 527.471L429.415 524.868L397.779 539.188L393.873 480.603L418.088 448.056L414.313 445.192L393.483 473.313L392.311 456.388L387.624 456.649L389.186 479.041L376.949 495.445L380.724 498.309L389.577 486.332L393.222 541.141L389.186 542.964C390.488 543.485 391.79 543.875 393.092 544.396L393.352 544.266V544.526C395.045 545.047 396.607 545.698 398.169 546.219L398.039 542.313Z" fill="black"/>
<path d="M341.146 525.258L367.444 498.179L365.491 496.226L338.412 524.217C339.323 524.607 340.235 524.998 341.146 525.258Z" fill="black"/>
<path d="M286.207 490.629L330.211 470.71L345.833 483.208L349.479 478.651L336.199 467.976L347.916 462.638L346.744 460.034L333.726 466.023L328.648 461.987L325.003 466.544L327.867 468.757L286.727 487.504C286.337 488.415 286.337 489.587 286.207 490.629Z" fill="black"/>
<path d="M342.578 449.489L344.661 444.151L324.222 436.209C322.139 437.511 320.186 438.683 318.233 440.115L342.578 449.489Z" fill="black"/>
<path d="M407.933 413.556L407.022 413.947L407.282 413.296C406.371 413.036 405.46 412.776 404.548 412.515L402.986 415.64L365.622 432.564L367.574 436.86L399.731 422.279L390.748 440.506L393.222 441.677L403.637 420.456L414.442 415.509C412.359 414.988 410.146 414.207 407.933 413.556Z" fill="black"/>
<path d="M507.007 468.365C496.202 461.205 449.724 491.799 432.8 517.837C415.875 543.875 422.124 555.071 435.924 552.077C449.724 549.083 483.573 533.46 499.196 507.422C514.819 481.384 510.913 470.969 507.007 468.365Z" fill="black"/>
<path d="M323.441 517.838C322.399 517.447 313.416 512.5 317.322 480.603C321.227 448.447 409.756 417.201 413.531 415.899L414.833 419.545C413.922 419.805 324.873 451.181 321.227 480.994C317.712 509.766 325.133 514.062 325.133 514.192L323.441 517.838Z" fill="black"/>
<path d="M675.602 435.818C675.602 435.818 471.856 413.296 448.813 437.771C425.769 462.247 444.126 491.149 468.862 502.085C493.598 513.02 653.731 527.211 653.731 527.211" fill="#F5BAAE"/>
<path d="M471.987 478.389C466.128 478.389 459.489 477.608 452.068 476.176L452.849 472.401C473.809 476.567 488 474.744 495.16 466.933C503.102 458.34 499.327 444.931 499.327 444.801L503.102 443.759C503.232 444.41 507.528 459.382 498.155 469.667C492.557 475.395 483.834 478.389 471.987 478.389Z" fill="black"/>
<path d="M563.009 443.236L559.954 463.313L563.815 463.9L566.87 443.823L563.009 443.236Z" fill="white"/>
<path d="M450.375 438.942L447.511 436.338C448.423 435.297 472.377 410.3 636.546 427.225L636.155 431.131C475.372 414.597 450.636 438.682 450.375 438.942Z" fill="black"/>
<path d="M464.175 543.093L462.483 539.578C462.743 539.448 483.183 529.684 502.191 508.073L505.185 510.677C485.657 532.809 465.087 542.703 464.175 543.093Z" fill="white"/>
<path d="M402.986 836.931C355.728 836.931 333.205 817.142 322.529 798.785C300.918 762.072 312.375 706.611 335.288 676.277C353.384 652.322 390.879 641.907 427.201 631.753C466.388 620.817 503.232 610.532 512.605 585.275C516.771 573.819 516.381 563.273 511.434 553.77C498.935 529.815 461.441 519.79 461.05 519.66C458.967 519.139 457.666 516.926 458.317 514.843C458.837 512.76 461.051 511.458 463.134 512.109C464.826 512.5 504.273 523.045 518.464 550.124C524.453 561.581 524.973 574.339 520.026 587.879C509.351 616.911 470.554 627.717 429.414 639.173C394.394 648.938 358.201 659.092 341.667 680.964C320.186 709.345 309.38 760.9 329.429 794.88C345.964 822.87 380.854 834.067 430.456 827.167C480.318 820.136 523.151 803.602 564.551 787.589C638.498 758.947 702.291 734.342 780.404 774.179C782.357 775.221 783.138 777.564 782.096 779.387C781.055 781.34 778.712 782.121 776.889 781.079C701.9 742.804 639.54 766.889 567.415 794.88C525.624 811.023 482.402 827.817 431.628 834.848C421.083 836.28 411.579 836.931 402.986 836.931Z" fill="white"/>
<path d="M462.092 511.979C462.353 511.979 462.743 511.979 463.134 512.109C464.826 512.5 504.274 523.045 518.464 550.124C524.453 561.581 524.974 574.339 520.026 587.879C509.351 616.911 470.554 627.717 429.415 639.173C394.394 648.937 358.201 659.092 341.667 680.964C320.186 709.345 309.381 760.9 329.43 794.88C342.709 817.532 367.965 829.119 403.377 829.119C411.839 829.119 420.952 828.468 430.456 827.167C480.319 820.136 523.151 803.602 564.551 787.589C610.768 769.753 653.08 753.349 697.344 753.349C723.903 753.349 751.112 759.208 780.404 774.179C782.357 775.221 783.138 777.564 782.097 779.387C781.446 780.689 780.014 781.47 778.582 781.47C777.931 781.47 777.41 781.34 776.759 781.079C748.899 766.889 722.731 761.291 697.214 761.291C653.991 761.291 612.591 777.304 567.155 794.88C525.364 811.023 482.141 827.817 431.367 834.848C421.083 836.28 411.579 836.931 402.987 836.931C355.728 836.931 333.205 817.142 322.53 798.785C300.918 762.072 312.375 706.611 335.288 676.277C353.385 652.322 390.879 641.907 427.202 631.753C466.388 620.817 503.232 610.532 512.606 585.275C516.772 573.819 516.381 563.273 511.434 553.769C498.936 529.815 461.441 519.79 461.051 519.66C458.968 519.139 457.666 516.926 458.317 514.843C458.838 513.15 460.4 511.979 462.092 511.979ZM462.092 510.677C459.749 510.677 457.666 512.239 457.015 514.582C456.234 517.316 457.926 520.18 460.79 520.962C461.181 521.092 498.155 530.986 510.262 554.42C515.079 563.534 515.34 573.818 511.304 584.885C502.191 609.49 465.607 619.775 426.811 630.581C390.358 640.736 352.603 651.281 334.247 675.626C311.073 706.351 299.486 762.462 321.358 799.566C331.773 817.272 354.296 838.363 402.987 838.363C411.839 838.363 421.473 837.712 431.498 836.28C482.402 829.119 525.755 812.455 567.545 796.181C612.07 778.996 654.121 762.723 697.083 762.723C724.293 762.723 750.071 769.102 775.978 782.381C776.759 782.772 777.54 782.902 778.321 782.902C780.274 782.902 782.097 781.86 783.008 780.038C784.31 777.434 783.268 774.31 780.795 773.008C753.195 758.947 725.855 752.047 697.083 752.047C652.559 752.047 609.466 768.712 563.77 786.417C522.5 802.431 479.668 818.965 430.066 825.865C420.562 827.167 411.579 827.817 403.117 827.817C367.965 827.817 343.36 816.491 330.341 794.229C310.682 760.77 321.358 709.866 342.579 681.875C358.852 660.394 394.785 650.37 429.675 640.605C471.075 629.019 510.262 618.083 521.198 588.53C526.275 574.6 525.755 561.45 519.636 549.603C505.185 522.003 465.217 511.328 463.524 510.937C463.004 510.677 462.483 510.677 462.092 510.677Z" fill="black"/>
<path d="M596.447 646.334C590.849 636.309 589.938 627.847 593.843 621.077C601.394 607.537 625.088 606.366 626.13 606.366L626.26 610.271C626 610.271 603.737 611.313 597.228 623.03C594.103 628.498 595.014 635.789 599.831 644.511L596.447 646.334Z" fill="black"/>
<path d="M621.313 687.994C616.365 679.142 615.585 671.591 618.97 665.602C625.739 653.625 646.569 652.583 647.481 652.583L647.611 656.489C647.351 656.489 628.083 657.4 622.355 667.555C619.751 672.242 620.532 678.621 624.698 686.172L621.313 687.994Z" fill="black"/>
</svg>
