<svg width="1000" height="1000" viewBox="0 0 1000 1000" fill="none" xmlns="http://www.w3.org/2000/svg">
<rect width="1000" height="1000" fill="white"/>
<path d="M215.68 185.693L159.581 626.721L550.809 689.851L604.125 254.388L215.68 185.693Z" fill="black"/>
<path d="M439.929 254.095H330.368V262.297H439.929V254.095Z" fill="white"/>
<path d="M369.048 354.575L363.839 360.912L448.486 430.484L453.695 424.147L369.048 354.575Z" fill="white"/>
<path d="M601.342 277.091L602.367 268.889L557.4 260.54L576.588 249.555L563.845 247.358L544.95 258.343L509.797 251.898L508.332 259.954L533.965 264.641L450.768 312.684L393.644 265.667L390.422 269.621L446.081 315.321L418.984 330.993L423.085 338.17L452.966 320.887L501.155 360.581L504.377 356.772L457.506 318.25L546.415 266.985L601.342 277.091Z" fill="white"/>
<path d="M428.827 395.095L428.534 400.066L571.54 408.503L571.834 403.532L428.827 395.095Z" fill="white"/>
<path d="M468.618 242.117L458.503 287.882L468.372 290.063L478.486 244.298L468.618 242.117Z" fill="white"/>
<path d="M403.381 318.643L393.312 319.515L397.353 366.212L407.422 365.341L403.381 318.643Z" fill="white"/>
<path d="M534.657 359.02L533.253 369.028L579.67 375.539L581.073 365.53L534.657 359.02Z" fill="white"/>
<path d="M291.116 213.9L289.712 223.908L336.129 230.419L337.533 220.41L291.116 213.9Z" fill="white"/>
<path d="M511.434 221.842L510.03 231.851L556.446 238.361L557.85 228.352L511.434 221.842Z" fill="white"/>
<path d="M421.966 209.16L420.474 213.758L498.496 239.07L499.988 234.473L421.966 209.16Z" fill="white"/>
<path d="M485.443 311.167L483.952 315.765L561.973 341.078L563.465 336.48L485.443 311.167Z" fill="white"/>
<path d="M523.712 417.411C520.05 417.411 517.121 420.341 517.121 424.003C517.121 427.665 520.05 430.594 523.712 430.594C527.374 430.594 530.303 427.665 530.303 424.003C530.157 420.341 527.227 417.411 523.712 417.411Z" fill="white"/>
<path d="M370.941 298.476C370.941 294.522 367.719 291.299 363.764 291.299C359.809 291.299 356.587 294.522 356.587 298.476C356.587 302.431 359.809 305.654 363.764 305.654C367.719 305.654 370.941 302.578 370.941 298.476Z" fill="white"/>
<path d="M556.521 292.471C556.521 288.516 553.299 285.294 549.344 285.294C545.39 285.294 542.167 288.516 542.167 292.471C542.167 296.426 545.39 299.648 549.344 299.648C553.299 299.648 556.521 296.426 556.521 292.471Z" fill="white"/>
<path d="M369.623 212.937C369.623 212.937 369.623 213.083 369.623 212.937C369.623 217.038 372.845 220.26 376.8 220.26C380.022 220.26 382.659 218.21 383.537 215.427L369.623 212.937Z" fill="white"/>
<path d="M408.584 434.696C404.629 434.696 401.407 437.918 401.407 441.873C401.407 445.828 404.629 449.05 408.584 449.05C412.539 449.05 415.761 445.828 415.761 441.873C415.761 437.918 412.539 434.696 408.584 434.696Z" fill="white"/>
<path d="M359.223 167.237C362.297 167.237 364.789 164.614 364.789 161.378C364.789 158.142 362.297 155.519 359.223 155.519C356.149 155.519 353.657 158.142 353.657 161.378C353.657 164.614 356.149 167.237 359.223 167.237Z" fill="white"/>
<path d="M496.468 265.813C496.468 262.444 493.685 259.661 490.316 259.661C486.947 259.661 484.164 262.444 484.164 265.813C484.164 269.182 486.947 271.965 490.316 271.965C493.685 271.965 496.468 269.182 496.468 265.813Z" fill="white"/>
<path d="M102.31 223.336L531.035 227.29L566.189 717.094L255.228 713.432L112.563 584.683L102.31 223.336Z" fill="white"/>
<path d="M568.532 719.291L254.349 715.629L253.763 715.043L110.366 585.708V584.829L100.113 221.138L533.086 225.093L533.232 227.144L568.532 719.291ZM256.106 711.235L563.845 714.897L528.985 229.487L104.654 225.533L114.761 583.658L256.106 711.235Z" fill="black"/>
<path d="M112.563 584.683L255.228 713.433L255.081 596.255L112.563 584.683Z" fill="black"/>
<path d="M309.13 316.785C243.656 316.785 173.203 302.871 169.102 302.138L169.981 297.891C171.446 298.183 313.963 326.306 382.366 303.456C452.233 280.167 497.2 303.896 499.104 304.921L497.054 308.729C496.614 308.437 451.794 284.854 383.831 307.558C363.324 314.295 336.666 316.785 309.13 316.785Z" fill="black"/>
<path d="M381.78 416.533C356.001 395.88 334.908 387.824 319.089 392.658C304.003 397.345 299.169 412.578 299.023 412.725L298.583 414.336H158.702V409.942H295.361C297.119 405.547 303.27 392.951 317.771 388.557C335.201 383.284 357.612 391.486 384.563 413.164L381.78 416.533Z" fill="black"/>
<path d="M451.501 547.919C428.358 546.6 402.726 545.722 442.566 654.404C482.407 763.087 511.408 814.206 606.762 834.272C702.262 854.193 857.669 840.864 857.669 840.864C857.669 840.864 953.169 740.969 857.669 623.352L758.947 619.983C758.947 619.983 721.157 524.483 705.631 489.037C690.104 453.59 654.512 422.392 621.262 437.918C621.262 437.918 590.21 406.866 541.289 433.524L397.013 449.05C397.013 449.05 352.632 560.076 525.762 517.892C525.762 517.892 512.433 542.353 563.552 622.18C614.671 702.154 548.026 668.758 548.026 668.758C548.026 668.758 510.383 551.288 451.501 547.919Z" fill="#F05050"/>
<path d="M619.065 538.398C618.919 537.372 603.686 429.715 541.581 435.867L541.142 431.473C568.679 428.69 591.675 446.413 607.64 482.592C619.505 509.543 623.459 537.519 623.459 537.812L619.065 538.398Z" fill="white"/>
<path d="M631.366 543.778L627.83 546.386L637.482 559.47L641.018 556.861L631.366 543.778Z" fill="white"/>
<path d="M665.79 516.866C656.709 487.572 641.622 462.379 619.798 439.675L623.02 436.599C645.43 459.742 660.81 485.521 670.038 515.548L665.79 516.866Z" fill="white"/>
<path d="M677.95 523.267L674.373 525.82L684.073 539.412L687.65 536.859L677.95 523.267Z" fill="white"/>
<path d="M522.425 742.819L502.422 758.375L505.119 761.843L525.123 746.287L522.425 742.819Z" fill="white"/>
<path d="M446.814 465.308C428.065 465.308 406.68 458.424 405.362 457.985L406.68 453.737C407.12 453.884 451.647 468.238 466.148 455.934C469.81 452.712 471.128 448.025 470.103 441.433L474.497 440.701C475.815 448.757 474.058 455.055 469.078 459.303C463.805 463.697 455.602 465.308 446.814 465.308Z" fill="white"/>
<path d="M724.525 710.357L410.488 433.67L326.12 411.407L354.975 489.037L671.209 772.022C678.826 781.249 690.251 787.108 703.14 787.108C725.99 787.108 744.592 768.506 744.592 745.657C744.446 730.716 736.536 717.68 724.525 710.357Z" fill="white"/>
<path d="M639.937 715.456L638.807 718.939L698.577 738.331L699.707 734.848L639.937 715.456Z" fill="black"/>
<path d="M696.989 758.839C696.989 756.202 694.792 754.151 692.301 754.151C689.811 754.151 687.614 756.349 687.614 758.839C687.614 761.329 689.811 763.526 692.301 763.526C694.792 763.526 696.989 761.475 696.989 758.839Z" fill="black"/>
<path d="M669.159 770.41L671.209 772.168C672.528 773.779 674.139 775.39 675.75 776.855L683.367 742.288L675.896 740.676L669.159 770.41Z" fill="black"/>
<path d="M723.939 781.542C723.061 780.81 721.889 780.371 720.717 780.371C717.934 780.371 715.737 782.568 715.737 785.351C718.667 784.325 721.449 783.007 723.939 781.542Z" fill="black"/>
<path d="M712.368 699.664L705.63 693.805L701.236 714.165L708.706 715.923L712.368 699.664Z" fill="black"/>
<path d="M734.192 753.126L707.241 748.146L706.07 754.298L725.697 757.96L683.513 782.274C685.856 783.593 688.347 784.618 690.837 785.35L735.218 759.718L741.516 760.889C743.127 756.642 744.153 751.955 744.299 747.121L734.192 753.126Z" fill="black"/>
<path d="M743.274 736.136C742.688 733.939 742.102 731.888 741.223 729.837L708.56 725.297L707.535 732.913L743.127 737.893L743.274 736.136Z" fill="black"/>
<path d="M444.617 444.07L523.419 518.185L509.797 522.286L424.696 446.267L444.617 444.07Z" fill="black"/>
<path d="M341.207 452.126L366.693 422.831L326.267 411.407L341.207 452.126Z" fill="black"/>
<path d="M408.122 431.737L353.394 487.821L356.539 490.89L411.267 434.806L408.122 431.737Z" fill="black"/>
<path d="M372.284 471.843L369.384 475.145L647.174 719.071L650.073 715.769L372.284 471.843Z" fill="black"/>
<path d="M392.943 450.437L390.031 453.728L664.995 697.112L667.907 693.822L392.943 450.437Z" fill="black"/>
<path d="M628.879 734.524L684.538 675.203L705.484 693.365L648.799 752.247L628.879 734.524Z" fill="black"/>
<path d="M421.181 548.358C421.181 548.358 460.436 519.503 496.029 560.661C531.621 601.674 551.981 665.536 551.981 665.536L421.181 548.358Z" fill="black"/>
<path d="M548.173 668.905C548.173 668.905 510.383 551.287 451.647 547.918C428.505 546.6 402.872 545.721 442.712 654.404C482.553 763.086 511.554 814.205 606.908 834.272" fill="#F05050"/>
<path d="M438.758 617.2V612.806C446.081 612.806 451.354 610.463 454.577 605.629C465.855 589.078 450.183 549.53 450.036 549.237L454.137 547.626C454.87 549.384 470.689 589.664 458.239 608.119C454.137 614.124 447.693 617.2 438.758 617.2Z" fill="white"/>
<path d="M425.429 555.242L353.95 491.38L322.751 408.184L411.514 432.059L424.843 443.337L422.06 446.706L409.463 436.014L329.929 414.629L357.612 488.89L428.358 551.873L425.429 555.242Z" fill="black"/>
<path d="M316.013 419.023C313.23 421.806 295.507 434.11 295.507 434.11L307.811 438.211L316.013 419.023Z" fill="black"/>
<path d="M320.847 452.565L315.427 488.158L319.529 489.476L326.266 452.565H320.847Z" fill="black"/>
<path d="M320.847 557.879L334.469 581.168L326.266 585.269L315.427 561.98L320.847 557.879Z" fill="black"/>
<path d="M305.761 696.149L285.254 726.322L296.24 731.742L315.428 696.149H305.761Z" fill="black"/>
<path d="M283.936 637.267C286.929 637.267 289.356 634.84 289.356 631.847C289.356 628.854 286.929 626.428 283.936 626.428C280.943 626.428 278.517 628.854 278.517 631.847C278.517 634.84 280.943 637.267 283.936 637.267Z" fill="black"/>
<path d="M352.339 790.624C355.332 790.624 357.758 788.197 357.758 785.204C357.758 782.211 355.332 779.785 352.339 779.785C349.346 779.785 346.919 782.211 346.919 785.204C346.919 788.197 349.346 790.624 352.339 790.624Z" fill="black"/>
<path d="M344.136 381.38V370.394H352.339L344.136 381.38Z" fill="black"/>
</svg>
