<svg width="1000" height="1000" viewBox="0 0 1000 1000" fill="none" xmlns="http://www.w3.org/2000/svg">
<rect width="1000" height="1000" fill="white"/>
<path d="M389.428 653.275C375.301 653.813 360.636 653.41 345.702 652.199L344.356 652.064L343.818 658.388L345.164 658.522C355.927 659.464 366.556 659.868 377.05 659.868C381.221 659.868 385.526 659.733 389.697 659.599H391.042L390.773 653.275H389.428Z" fill="black"/>
<path d="M263.632 636.187L262.286 635.784L260.537 641.838L261.883 642.242C276.009 646.412 290.54 649.776 305.07 652.467L306.416 652.736L307.627 646.413L306.281 646.144C291.885 643.722 277.489 640.224 263.632 636.187Z" fill="black"/>
<path d="M193.939 608.203L192.728 607.53L189.769 613.181L190.979 613.854C203.492 620.581 217.08 626.769 231.476 632.151L232.687 632.689L234.974 626.769L233.764 626.231C219.637 620.85 206.317 614.796 193.939 608.203Z" fill="black"/>
<path d="M149.675 579.277C147.926 577.797 146.177 576.183 144.428 574.568C143.486 573.626 142.544 572.819 141.603 572.012L137.835 568.11C137.432 567.572 136.894 567.168 136.49 566.765C135.683 565.958 134.875 565.15 134.203 564.343C133.53 563.536 132.857 562.728 132.185 561.921L132.05 561.787C130.301 559.903 128.686 558.02 127.341 556.001L126.534 554.925L121.287 558.558L122.094 559.634C123.708 561.921 125.458 563.939 127.207 565.957L127.341 566.092C128.014 566.899 128.687 567.572 129.225 568.379C130.167 569.456 131.108 570.397 132.05 571.339C132.454 571.743 132.857 572.146 133.261 572.55L137.297 576.586C138.239 577.394 139.181 578.335 140.257 579.277C142.006 580.892 143.755 582.506 145.639 584.12L152.097 589.502L155.326 591.924L159.093 586.811L155.864 584.39L149.675 579.277Z" fill="black"/>
<path d="M107.16 478.371L107.294 477.026L100.971 476.488L100.836 477.833C99.6253 493.843 100.702 508.912 104.065 522.501L104.334 523.846L110.523 522.366L110.254 521.021C107.16 508.105 106.083 493.709 107.16 478.371Z" fill="black"/>
<path d="M127.745 405.852L122.094 403.027L121.556 404.238C114.963 417.557 109.716 431.684 106.218 446.08L105.949 447.426L112.138 448.906L112.407 447.56C115.905 433.568 120.883 419.979 127.341 406.929L127.745 405.852Z" fill="black"/>
<path d="M176.852 336.699C164.878 345.175 153.846 355.535 144.159 367.509L143.352 368.585L148.33 372.622L149.137 371.545C158.555 360.109 169.049 350.153 180.62 341.946L181.696 341.139L178.063 335.892L176.852 336.699Z" fill="black"/>
<path d="M257.846 310.329C249.774 310.598 242.374 311.405 235.512 312.75C228.113 314.096 220.847 316.114 213.851 318.401L212.64 318.805L214.659 324.859L215.869 324.455C222.596 322.168 229.592 320.285 236.723 318.939C243.316 317.729 250.312 316.921 258.115 316.652H259.461L259.192 310.329H257.846Z" fill="black"/>
<path d="M311.932 316.786C309.241 315.979 306.685 315.441 303.994 314.903C303.052 314.634 302.111 314.499 301.034 314.23C299.823 313.961 298.612 313.827 297.536 313.557C296.863 313.423 296.191 313.288 295.653 313.154C294.038 312.885 292.02 312.481 290.002 312.212L288.657 312.077L287.849 318.401L289.195 318.535C291.078 318.805 292.827 319.073 294.442 319.343C295.115 319.477 295.787 319.612 296.46 319.746C297.536 319.881 298.613 320.15 299.689 320.419C300.631 320.688 301.707 320.823 302.649 321.092C305.205 321.63 307.761 322.168 310.317 322.975C317.583 324.859 324.848 327.28 331.037 329.433L332.248 329.837L334.401 323.782L333.19 323.379C326.866 321.226 319.467 318.67 311.932 316.786Z" fill="black"/>
<path d="M416.605 332.528C403.689 335.219 389.293 335.488 373.956 333.335L372.61 333.201L371.668 339.524L373.014 339.659C380.145 340.735 387.141 341.139 393.868 341.139C402.209 341.139 410.282 340.331 417.951 338.717L419.296 338.448L417.951 332.259L416.605 332.528Z" fill="black"/>
<path d="M477.956 283.689C471.498 297.278 462.484 308.714 451.855 317.055L450.779 317.863L454.681 322.841L455.757 322.033C467.193 313.154 476.88 300.91 483.742 286.38L484.28 285.169L478.494 282.478L477.956 283.689Z" fill="black"/>
<path d="M494.37 208.884L488.047 209.691L488.182 211.036C490.2 225.432 489.931 239.828 487.374 253.955L487.105 255.301L493.429 256.377L493.698 255.032C496.388 240.232 496.657 225.029 494.639 210.095L494.37 208.884Z" fill="black"/>
<path d="M450.779 146.86L452.797 148.071C453.201 148.341 453.739 148.609 454.143 148.879C457.237 151.031 459.928 153.184 462.215 155.471C466.924 159.911 471.095 165.427 474.997 172.154L475.669 173.365L481.185 170.136L480.513 168.925C476.342 161.66 471.768 155.74 466.655 150.897C464.099 148.34 461.139 146.053 457.64 143.632C457.102 143.228 456.564 142.959 456.026 142.69L453.874 141.344L450.106 139.461L446.204 137.846L443.783 143.766L447.416 145.246L450.779 146.86Z" fill="black"/>
<path d="M369.516 154.395C374.359 149.551 380.279 145.381 386.737 142.69C392.926 139.864 399.788 138.25 407.053 137.577L408.398 137.443L407.86 131.119L406.515 131.254C398.577 131.927 391.043 133.81 384.181 136.77C376.916 139.999 370.592 144.304 365.076 149.82L364.134 150.762L368.574 155.202L369.516 154.395Z" fill="black"/>
<path d="M348.528 225.298L354.716 223.818L354.447 222.472C352.564 214.534 351.622 207.673 351.622 201.349C351.622 193.95 352.564 186.954 354.447 180.361L354.851 179.016L348.797 177.267L348.393 178.612C346.375 185.743 345.298 193.411 345.298 201.349C345.298 208.211 346.24 215.611 348.259 223.952L348.528 225.298Z" fill="black"/>
<path d="M392.791 284.631C391.042 283.016 389.428 281.132 387.948 279.383L387.814 279.249C387.006 278.307 386.199 277.5 385.526 276.692C383.239 274.002 380.952 271.176 378.665 268.351L373.821 261.759C373.552 261.355 373.148 260.817 372.879 260.413L371.534 258.395L366.287 261.893L367.498 263.777C367.901 264.315 368.17 264.853 368.574 265.391L373.552 272.118C375.974 275.078 378.261 277.903 380.683 280.729C381.49 281.536 382.297 282.478 383.105 283.42C384.719 285.303 386.468 287.187 388.217 288.936L392.119 292.972C392.926 293.779 393.868 294.587 394.675 295.394L397.097 297.681L401.402 293.106L398.712 290.685C397.904 290.012 397.097 289.205 396.424 288.532L392.791 284.631Z" fill="black"/>
<path d="M451.317 326.069C450.241 325.666 449.164 325.128 448.222 324.724C447.55 324.455 447.012 324.186 446.339 323.917L443.917 322.841L436.652 319.208L430.732 315.844L427.503 321.36L433.558 324.859L441.092 328.626L443.648 329.702C444.186 329.971 444.725 330.106 445.128 330.375L445.397 330.509C446.474 331.048 447.55 331.451 448.761 331.989C456.161 334.949 463.157 337.371 470.153 339.12L471.498 339.389L473.113 333.2L471.767 332.931C465.175 331.182 458.448 329.029 451.317 326.069Z" fill="black"/>
<path d="M544.689 329.03C537.424 331.855 530.562 333.739 524.104 334.95C516.435 336.295 509.439 336.833 502.712 336.833H501.366V343.157H503.25C510.246 343.157 517.377 342.484 525.315 341.139C532.311 339.928 539.442 337.91 547.111 334.95L548.322 334.412L546.035 328.492L544.689 329.03Z" fill="black"/>
<path d="M610.211 275.347C609.538 276.02 608.865 276.558 608.193 277.231C606.174 279.114 604.022 280.998 602.138 283.15C601.735 283.554 601.331 283.957 600.927 284.361L600.793 284.496C599.986 285.438 599.044 286.245 598.236 287.187L594.604 291.357C592.182 294.048 589.76 296.739 587.339 299.43L582.63 304.004C582.226 304.408 581.822 304.677 581.553 305.081L578.459 307.771L582.63 312.615L585.724 309.924C586.262 309.52 586.666 308.982 587.07 308.579L591.779 303.87C594.2 301.179 596.757 298.488 599.178 295.663L602.811 291.492C603.618 290.685 604.425 289.877 605.233 289.07C605.636 288.532 606.174 288.128 606.578 287.59C608.462 285.707 610.345 283.823 612.363 281.94C613.036 281.267 613.709 280.729 614.381 280.056L615.323 279.114L611.018 274.54L610.211 275.347Z" fill="black"/>
<path d="M686.765 238.214C679.365 239.291 671.965 240.905 664.834 243.327C657.838 245.748 650.842 248.708 644.25 252.206L643.039 252.879L645.998 258.53L647.209 257.857C653.667 254.494 660.26 251.668 666.987 249.381C673.714 247.094 680.845 245.479 687.841 244.538L689.186 244.403L688.379 238.08L686.765 238.214Z" fill="black"/>
<path d="M759.283 260.144C748.251 249.515 734.124 242.115 719.459 239.155L718.113 238.886L716.902 245.075L718.248 245.344C731.702 248.035 744.752 254.897 754.977 264.718L755.919 265.66L760.359 261.086L759.283 260.144Z" fill="black"/>
<path d="M401.268 432.492C372.745 432.492 349.738 455.499 349.738 484.022C349.738 512.544 402.209 645.068 402.209 645.068C402.209 645.068 452.797 512.544 452.797 484.022C452.797 455.499 429.791 432.492 401.268 432.492ZM402.209 512.544C387.006 512.544 374.628 500.167 374.628 484.963C374.628 469.76 387.006 457.382 402.209 457.382C417.413 457.382 429.79 469.76 429.79 484.963C429.79 500.167 417.413 512.544 402.209 512.544Z" fill="black"/>
<path d="M796.746 247.865L741.201 331.138L752.282 338.529L807.827 255.257L796.746 247.865Z" fill="black"/>
<path d="M824.915 297.242L727.088 276.021L724.264 289.038L822.091 310.259L824.915 297.242Z" fill="black"/>
<path d="M539.038 616.141C539.038 616.141 512.399 656.369 539.038 662.289C565.677 668.209 583.706 631.076 583.706 631.076L539.038 616.141Z" fill="black"/>
<path d="M517.915 630.537C527.064 633.094 542.671 644.395 562.448 646.144C579.535 661.482 619.36 721.891 619.36 721.891C619.36 721.891 602.542 732.655 583.706 729.829C570.925 727.946 546.438 708.033 531.773 695.117C512.264 678.031 491.949 660.406 471.364 680.991C453.873 698.481 479.705 720.815 497.868 736.287C516.166 751.76 553.838 807.19 587.204 820.51C628.374 837.059 648.689 825.085 685.15 835.175C729.414 847.419 813.234 869.752 813.234 869.752C862.476 846.746 902.3 788.086 900.282 699.154L824.939 679.511C824.939 679.511 826.419 635.246 718.786 530.708C691.608 504.338 653.398 515.235 642.097 528.959C632.948 523.308 617.61 514.159 594.066 516.716C568.234 519.675 550.474 533.399 543.074 553.042C535.002 555.598 521.817 553.983 501.366 572.012C480.916 590.04 461.542 624.349 461.542 624.349C462.619 648.432 494.505 660.002 517.915 630.537Z" fill="#F5BAAE"/>
<path d="M455.622 634.037L418.085 641.302C416.471 645.203 415.125 650.451 415.125 656.909L448.761 676.686L455.622 634.037Z" fill="white"/>
<path d="M452.393 637.4L446.877 672.246L417.951 655.294C418.085 651.123 418.758 647.087 420.103 643.589L452.393 637.4ZM455.622 634.037L418.085 641.302C416.471 645.203 415.125 650.451 415.125 656.909L448.761 676.686L455.622 634.037Z" fill="black"/>
<path d="M418.085 641.302L395.886 645.608L415.125 656.909C415.125 650.451 416.471 645.204 418.085 641.302Z" fill="black"/>
<path d="M455.622 634.036V634.305C450.913 634.036 446.339 636.727 442.975 641.301L687.572 675.879L685.554 688.391L439.747 647.356C439.074 649.105 438.536 650.854 438.266 652.738C437.997 654.217 437.997 655.697 437.863 657.177L681.921 710.052L680.172 720.681L439.343 666.326C441.226 671.304 444.455 675.071 448.626 676.686L449.03 676.821C449.568 676.955 449.972 677.224 450.51 677.359C450.779 677.359 451.183 677.359 451.452 677.359L488.989 686.104C501.905 680.453 517.646 684.624 526.929 694.984L685.688 732.117L696.183 665.788L455.622 634.036Z" fill="black"/>
<path d="M687.572 675.744L442.976 641.167C441.765 642.916 440.688 644.934 439.881 647.087L685.688 688.122L687.572 675.744Z" fill="white"/>
<path d="M682.056 710.053L437.998 657.178C437.998 660.542 438.536 663.636 439.612 666.461L680.441 720.816L682.056 710.053Z" fill="white"/>
<path d="M715.566 701.631C717.539 683.234 708.177 667.145 694.657 665.696C681.137 664.246 668.577 677.985 666.605 696.381C664.633 714.778 673.994 730.866 687.515 732.316C701.035 733.765 713.594 720.027 715.566 701.631Z" fill="white"/>
<path d="M607.116 577.124C606.847 576.989 583.302 564.746 570.386 558.288C558.143 552.099 540.115 556.808 539.845 556.808L538.769 552.906C539.576 552.637 558.547 547.928 572.135 554.656C585.051 561.114 608.596 573.357 608.865 573.491L607.116 577.124Z" fill="black"/>
<path d="M620.402 576.583L619.837 580.58L631.428 582.219L631.993 578.222L620.402 576.583Z" fill="black"/>
<path d="M642.571 527.498L640.53 530.979L679.64 553.917L681.682 550.436L642.571 527.498Z" fill="black"/>
<path d="M688.631 553.697L687.533 557.582L699.185 560.876L700.284 556.992L688.631 553.697Z" fill="black"/>
<path d="M584.782 731.175C572.001 729.291 547.514 709.379 532.849 696.463C513.341 679.376 493.025 661.752 472.44 682.336C454.949 699.827 480.782 722.161 498.945 737.633C517.242 753.105 554.914 808.536 588.28 821.856" fill="#F5BAAE"/>
<path d="M500.694 727.004L497.734 724.314C502.174 719.336 503.923 714.089 502.981 708.707C500.425 695.118 481.185 684.893 480.916 684.759L482.8 681.126C483.607 681.53 504.057 692.427 506.883 707.9C508.094 714.627 505.941 721.085 500.694 727.004Z" fill="black"/>
<path d="M619.494 721.892C619.494 721.892 621.647 744.226 611.691 744.226C582.764 744.495 574.692 726.466 574.692 726.466C574.692 726.466 605.367 734.27 619.494 721.892Z" fill="black"/>
<path d="M467.731 627.443L466.52 623.541C482.127 618.698 479.974 599.593 479.974 598.786L484.011 598.248C484.011 598.651 486.701 621.658 467.731 627.443Z" fill="black"/>
<path d="M556.931 760.193L547.543 770.927L550.581 773.584L559.969 762.85L556.931 760.193Z" fill="white"/>
<path d="M558.037 771.418L554.006 779.48L557.616 781.285L561.647 773.223L558.037 771.418Z" fill="white"/>
<path d="M383.239 716.778L371.131 747.454L374.494 749.606L388.217 717.854L383.239 716.778Z" fill="black"/>
<path d="M435.845 771.805L411.358 794.542L420.104 801.673L444.456 773.688L435.845 771.805Z" fill="black"/>
<path d="M398.442 689.062C401.192 689.062 403.421 686.834 403.421 684.084C403.421 681.335 401.192 679.106 398.442 679.106C395.693 679.106 393.464 681.335 393.464 684.084C393.464 686.834 395.693 689.062 398.442 689.062Z" fill="black"/>
<path d="M428.58 840.422C431.329 840.422 433.558 838.193 433.558 835.444C433.558 832.694 431.329 830.466 428.58 830.466C425.83 830.466 423.602 832.694 423.602 835.444C423.602 838.193 425.83 840.422 428.58 840.422Z" fill="black"/>
</svg>
