<svg width="1000" height="1000" viewBox="0 0 1000 1000" fill="none" xmlns="http://www.w3.org/2000/svg">
<rect width="1000" height="1000" fill="white"/>
<path d="M528.044 258.021L867.578 237.383L860.742 650.002L521.209 670.771L528.044 258.021Z" fill="black"/>
<path d="M528.044 258.021L846.809 219.9L839.973 632.651L521.209 670.771L528.044 258.021Z" fill="white"/>
<path d="M519.237 673.006L526.072 256.312L527.781 256.049L848.78 217.666L841.945 634.36L840.236 634.623L519.237 673.006ZM530.016 259.861L523.312 668.537L838.133 630.942L844.837 222.266L530.016 259.861Z" fill="black"/>
<path d="M528.044 258.021L830.115 199.92L823.279 612.671L521.209 670.772L528.044 258.021Z" fill="white"/>
<path d="M519.237 673.138L526.072 256.444L832.086 197.554L825.251 614.249L519.237 673.138ZM530.016 259.73L523.312 668.406L821.439 611.094L828.143 202.418L530.016 259.73Z" fill="black"/>
<path d="M189.957 188.09L528.044 258.021L521.209 670.771L183.253 600.709L189.957 188.09Z" fill="black"/>
<path d="M219.139 174.024L528.044 258.021L521.209 670.771L212.303 586.775L219.139 174.024Z" fill="white"/>
<path d="M523.181 673.269L210.331 588.221V586.644L217.167 171.396L530.016 256.443V258.021L523.181 673.269ZM214.406 585.198L519.369 668.142L526.072 259.466L221.11 176.522L214.406 585.198Z" fill="black"/>
<path d="M356.371 370.41L291.304 355.03L273.821 325.717L276.976 220.295L360.315 245.533L356.371 370.41Z" fill="white"/>
<path d="M358.212 372.907L289.99 356.739L271.85 326.111V325.586L275.136 217.666L362.418 244.087L358.212 372.907ZM292.487 353.321L354.4 367.912L358.212 246.979L278.816 222.924L275.662 325.191L292.487 353.321Z" fill="black"/>
<path d="M326.007 203.47L329.95 204.39L329.819 182.701C329.819 181.649 328.899 180.729 327.847 180.729C326.795 180.729 325.875 181.649 325.875 182.701L326.007 203.47Z" fill="black"/>
<path d="M308.655 199.658L308.392 168.241C308.392 164.823 311.021 162.063 314.439 162.063H321.8C322.852 162.063 323.772 161.143 323.772 160.091C323.772 159.04 322.852 158.12 321.8 158.12H314.439C308.918 158.12 304.449 162.72 304.449 168.241L304.712 198.737L308.655 199.658Z" fill="black"/>
<path d="M322.72 265.908L313.388 266.039C304.712 266.171 297.745 258.678 297.614 249.477L297.088 184.146C297.088 183.095 298.008 182.175 299.06 182.175C300.111 182.175 301.031 183.095 301.031 184.146L301.557 249.477C301.557 256.575 306.947 262.227 313.388 262.227L322.72 262.096C329.162 262.096 334.419 256.181 334.288 249.214L333.631 174.813C333.631 167.715 328.241 162.063 321.8 162.063C320.749 162.063 319.829 161.143 319.829 160.091C319.829 159.04 320.749 158.119 321.8 158.119C330.476 157.988 337.443 165.481 337.574 174.682L338.231 249.082C338.231 258.284 331.265 265.776 322.72 265.908Z" fill="black"/>
<path d="M274.873 325.717L291.304 355.031L299.848 325.717H274.873Z" fill="black"/>
<path d="M558.146 304.028C572.606 298.77 640.959 290.883 694.853 294.827C748.748 298.77 792.126 265.908 792.126 265.908" fill="white"/>
<path d="M558.803 305.868L557.489 302.188C572.737 296.667 641.222 288.911 694.985 292.855C747.433 296.667 790.548 264.593 790.943 264.33L793.309 267.485C792.915 267.748 753.611 297.061 703.792 297.193C700.769 297.193 697.745 297.061 694.722 296.798C642.274 292.986 573.394 300.61 558.803 305.868Z" fill="black"/>
<path d="M564.061 367.781C587.722 366.466 616.641 383.555 640.302 366.466C663.963 349.378 682.366 320.459 717.857 354.636L766.493 349.378" fill="white"/>
<path d="M615.064 376.062C606.651 376.062 597.975 374.353 589.563 372.644C580.624 370.936 572.08 369.227 564.193 369.621L563.93 365.678C572.343 365.152 581.018 366.992 590.22 368.701C606.914 371.987 624.265 375.405 639.119 364.626C643.194 361.734 647.137 358.317 650.949 355.162C669.352 339.651 688.281 323.745 718.514 352.401L766.23 347.275L766.625 351.218L717.068 356.608L716.411 355.95C688.412 328.872 672.113 342.543 653.447 358.317C649.503 361.603 645.56 365.02 641.354 367.912C633.072 374.09 624.134 376.062 615.064 376.062Z" fill="black"/>
<path d="M328.767 445.336C353.743 444.021 412.895 465.053 436.556 470.311C460.216 475.569 487.821 470.311 487.821 470.311" fill="white"/>
<path d="M460.479 474.649C452.724 474.649 444.311 473.992 436.161 472.283C428.931 470.706 418.547 467.682 406.585 464.133C379.638 456.246 345.987 446.387 329.03 447.308L328.767 443.364C346.513 442.444 380.427 452.303 407.637 460.321C419.599 463.87 429.852 466.762 437.081 468.339C460.085 473.466 487.295 468.339 487.558 468.339L488.347 472.152C487.426 472.414 475.333 474.649 460.479 474.649Z" fill="black"/>
<path d="M381.347 513.689C381.347 513.689 439.185 505.802 481.248 530.778L381.347 513.689Z" fill="white"/>
<path d="M480.197 532.487C439.184 508.169 382.135 515.53 381.61 515.661L381.084 511.718C381.61 511.586 440.105 503.962 482.3 529.069L480.197 532.487Z" fill="black"/>
<path d="M628.471 399.723L612.698 422.858L617.561 423.91L636.884 401.3L628.471 399.723Z" fill="black"/>
<path d="M605.468 491.475C608.154 491.475 610.331 489.297 610.331 486.611C610.331 483.925 608.154 481.747 605.468 481.747C602.782 481.747 600.604 483.925 600.604 486.611C600.604 489.297 602.782 491.475 605.468 491.475Z" fill="black"/>
<path d="M319.171 675.634L337.443 696.929L339.677 692.592L322.983 668.01L319.171 675.634Z" fill="black"/>
<path d="M396.989 725.586C399.675 725.586 401.853 723.408 401.853 720.722C401.853 718.036 399.675 715.858 396.989 715.858C394.303 715.858 392.126 718.036 392.126 720.722C392.126 723.408 394.303 725.586 396.989 725.586Z" fill="black"/>
<path d="M587.459 842.182C589.783 842.182 591.666 840.298 591.666 837.975C591.666 835.652 589.783 833.769 587.459 833.769C585.136 833.769 583.253 835.652 583.253 837.975C583.253 840.298 585.136 842.182 587.459 842.182Z" fill="white"/>
<path d="M200.867 403.273L157.489 433.506C157.489 433.506 179.835 512.376 178.521 513.69C177.206 515.005 200.867 563.641 200.867 563.641L209.674 469.917L200.867 403.273Z" fill="black"/>
<path d="M186.539 368.439C186.539 368.439 115.294 423.647 104.646 532.356C93.9988 641.064 104.646 740.703 104.646 740.703C104.646 740.703 152.757 778.166 241.748 740.703V674.847C241.748 674.847 302.346 630.286 302.346 567.979C302.346 505.672 293.407 420.098 272.113 427.328C250.686 434.426 240.039 461.11 248.977 511.061C248.977 511.061 206.257 537.745 200.867 543.135C200.867 543.135 199.027 528.938 184.83 511.061C184.83 511.061 179.441 464.791 170.634 450.463C161.695 436.267 186.671 420.23 186.671 420.23V368.439H186.539Z" fill="#F05050"/>
<path d="M287.886 471.231C287.624 471.231 259.888 468.997 261.728 437.844L264.357 437.975C262.648 466.631 286.966 468.603 288.018 468.603L287.886 471.231Z" fill="white"/>
<path d="M293.407 557.726H280.92V560.355H293.407V557.726Z" fill="white"/>
<path d="M126.467 489.766C122.918 462.951 144.212 415.892 145.133 413.92L147.499 414.972C147.236 415.498 125.547 463.345 129.096 489.372L126.467 489.766Z" fill="white"/>
<path d="M126.57 506.784L121.234 519.228L123.651 520.264L128.987 507.82L126.57 506.784Z" fill="white"/>
<path d="M189.037 571.659C189.037 571.396 189.168 539.848 216.772 529.99L217.693 532.487C191.928 541.689 191.666 571.396 191.666 571.791L189.037 571.659Z" fill="white"/>
<path d="M899.388 716.122C899.914 643.956 888.084 562.721 867.972 527.361C862.451 518.291 851.935 511.85 836.424 503.437C804.087 488.452 814.472 493.315 788.182 470.049C782.136 463.082 764.653 453.355 756.634 452.303C749.668 439.421 714.702 389.47 698.797 371.068C679.079 348.195 658.047 366.73 662.911 388.945C666.46 411.291 681.708 445.336 688.281 459.27C708.261 512.244 728.241 533.013 722.589 593.217C720.617 590.982 689.332 555.754 686.572 547.604C682.891 537.877 664.62 474.124 640.959 494.235C628.077 505.146 633.072 528.544 637.016 566.664C643.588 590.851 674.084 662.885 679.079 670.772C694.722 689.306 738.363 711.39 746.25 716.385L746.118 716.516V767.255C746.118 767.255 849.963 796.438 899.914 758.317V716.385C899.914 716.385 899.783 716.253 899.388 716.122Z" fill="#F7C748"/>
<path d="M785.685 514.742C785.553 514.347 771.094 472.546 755.583 450.726L757.686 449.148C773.329 471.363 787.919 513.427 788.051 513.953L785.685 514.742Z" fill="black"/>
<path d="M822.041 495.411L819.652 496.509L833.87 527.445L836.259 526.348L822.041 495.411Z" fill="black"/>
<path d="M838.608 535.361L836.379 536.755L842.927 547.233L845.157 545.839L838.608 535.361Z" fill="black"/>
<path d="M792.455 526.178L790.172 527.482L795.455 536.726L797.737 535.422L792.455 526.178Z" fill="black"/>
<path d="M699.191 393.02C697.088 393.02 694.985 392.626 692.882 391.705C680.92 386.447 674.742 367.65 674.479 366.862L676.976 366.073C676.976 366.204 683.023 384.607 693.933 389.339C697.614 390.917 701.426 390.785 705.369 388.945L706.421 391.311C704.055 392.494 701.557 393.02 699.191 393.02Z" fill="black"/>
<path d="M641.09 547.867C640.828 547.867 640.565 547.867 640.17 547.867L640.302 545.238C643.062 545.369 645.165 544.58 646.743 542.74C654.761 533.144 647.006 501.202 646.874 500.939L649.372 500.282C649.766 501.596 657.653 533.802 648.715 544.449C646.874 546.684 644.245 547.867 641.09 547.867Z" fill="black"/>
<path d="M680.228 620.383L669.751 626.933L671.144 629.162L681.621 622.612L680.228 620.383Z" fill="white"/>
<path d="M682.948 630.8L675.07 634.739L676.246 637.09L684.123 633.152L682.948 630.8Z" fill="white"/>
<path d="M739.292 444.355L730.09 453.557L731.949 455.416L741.151 446.214L739.292 444.355Z" fill="white"/>
<path d="M684.337 548.524C684.337 548.524 690.647 606.756 722.984 588.222L684.337 548.524Z" fill="black"/>
</svg>
