<svg width="1000" height="1000" viewBox="0 0 1000 1000" fill="none" xmlns="http://www.w3.org/2000/svg">
<rect width="1000" height="1000" fill="white"/>
<path d="M359.678 581.219C359.678 581.219 301.302 579.535 160.976 664.853C160.976 664.853 120.281 828.755 309.16 899.619L475.727 790.726C475.727 790.726 662.782 771.08 737.436 769.116C812.089 767.151 876.64 736.841 822.193 688.428C822.193 688.428 850.399 644.085 793.987 633.982C793.987 633.982 807.88 585.429 743.189 581.359C678.639 577.15 359.678 581.219 359.678 581.219Z" fill="#F05050"/>
<path d="M822.614 685.622H618.019V689.831H822.614V685.622Z" fill="black"/>
<path d="M359.678 581.499C359.678 581.499 345.224 660.222 406.828 662.748C468.431 665.274 655.907 667.94 703.197 667.94C750.346 667.94 766.764 585.429 766.764 585.429C766.764 585.429 749.785 578.553 554.731 579.254C359.678 580.236 359.678 581.499 359.678 581.499Z" fill="black"/>
<path d="M793.707 631.876H646.785V636.086H793.707V631.876Z" fill="black"/>
<path d="M776.026 758.03L772.097 756.486C772.237 756.206 785.007 724.773 830.753 731.508L830.192 735.718C787.813 729.403 776.447 756.767 776.026 758.03Z" fill="black"/>
<path d="M469.132 844.471C472.775 844.471 475.728 841.518 475.728 837.875C475.728 834.233 472.775 831.28 469.132 831.28C465.49 831.28 462.537 834.233 462.537 837.875C462.537 841.518 465.49 844.471 469.132 844.471Z" fill="black"/>
<path d="M394.058 627.386H727.613V385.043L562.87 259.591L386.059 381.534L394.058 627.386Z" fill="white"/>
<path d="M729.718 629.491H391.952V627.386L383.813 380.272L562.87 256.785L729.578 383.92V629.491H729.718ZM396.022 625.281H725.368V386.165L562.729 262.257L388.023 382.657L396.022 625.281Z" fill="black"/>
<path d="M501.687 367.923L466.045 333.403L459.028 340.138L494.671 374.659L501.687 367.923Z" fill="black"/>
<path d="M467.588 447.628L497.478 414.091L489.199 407.215L459.309 440.753L467.588 447.628Z" fill="black"/>
<path d="M429.981 465.871L407.95 426.86L400.513 430.649L422.403 469.66L429.981 465.871Z" fill="black"/>
<path d="M465.764 468.116C463.94 471.063 464.922 475.132 468.15 477.097C471.377 479.202 475.587 478.5 477.411 475.553C479.235 472.606 478.253 468.537 475.025 466.572C471.798 464.608 467.729 465.169 465.764 468.116Z" fill="black"/>
<path d="M598.934 479.342C597.109 482.289 598.092 486.358 601.319 488.323C604.547 490.428 608.756 489.726 610.581 486.779C612.405 483.832 611.423 479.763 608.195 477.798C604.968 475.693 600.758 476.395 598.934 479.342Z" fill="black"/>
<path d="M555.644 319.177C557.241 316.702 556.213 313.198 553.348 311.348C550.483 309.499 546.865 310.006 545.268 312.48C543.671 314.954 544.699 318.46 547.564 320.309C550.429 322.158 554.047 321.651 555.644 319.177Z" fill="black"/>
<path d="M466.045 376.623C469.132 378.588 473.061 378.026 474.745 375.22C476.569 372.413 475.447 368.625 472.36 366.66C469.272 364.695 465.343 365.257 463.659 368.063C461.835 370.729 462.958 374.659 466.045 376.623Z" fill="black"/>
<path d="M395.18 413.108C397.285 409.88 396.022 405.39 392.514 403.145C390.69 402.022 388.585 401.601 386.62 401.882L387.041 415.634C390.269 416.616 393.637 415.634 395.18 413.108Z" fill="black"/>
<path d="M396.864 551.329L414.405 524.246L483.866 506.004L480.919 498.145L421.141 513.862L439.523 485.235L435.173 482.429L413.703 515.686L390.549 521.861L390.83 530.42L406.967 526.211L392.654 548.523L396.864 551.329Z" fill="black"/>
<path d="M438.962 428.684L438.821 457.872L447.381 458.714L447.522 419.984L471.517 395.427L465.062 389.533L447.522 407.355L447.802 338.875L439.242 344.769L438.962 416.195L391.391 464.888L397.846 470.782L438.962 428.684Z" fill="black"/>
<path d="M519.509 293.971L518.105 290.463L509.125 296.637L519.509 293.971Z" fill="black"/>
<path d="M551.223 267.59L532.279 280.64L498.46 333.122L505.897 337.893L551.223 267.59Z" fill="black"/>
<path d="M623.912 237.981V302.812L677.657 330.316L676.956 237.981H623.912Z" fill="black"/>
<path d="M611.423 417.599H503.933V525.089H611.423V417.599Z" fill="white"/>
<path d="M613.528 527.193H501.828V415.494H613.528V527.193ZM506.038 522.984H609.318V419.704H506.038V522.984Z" fill="black"/>
<path d="M778.832 439.77L566.378 275.167L347.609 423.773L333.437 402.864L567.36 244.015L794.268 419.703L778.832 439.77Z" fill="black"/>
<path d="M559.784 417.593L554.171 417.637L555.021 525.127L560.634 525.083L559.784 417.593Z" fill="black"/>
<path d="M611.455 466.062L504.527 466.532L504.552 472.145L611.48 471.675L611.455 466.062Z" fill="black"/>
<path d="M654.082 213.704L665.869 190.13H671.061L661.94 213.704H654.082Z" fill="black"/>
<path d="M722.14 178.202L707.827 187.463L714.282 194.059L727.473 186.2L722.14 178.202Z" fill="black"/>
<path d="M699.969 127.123H693.374V146.769H699.969V127.123Z" fill="black"/>
<path d="M743.891 119.265C749.316 119.265 753.714 114.867 753.714 109.442C753.714 104.017 749.316 99.6191 743.891 99.6191C738.466 99.6191 734.068 104.017 734.068 109.442C734.068 114.867 738.466 119.265 743.891 119.265Z" fill="black"/>
<path d="M565.817 726.597C701.092 601.426 733.367 565.081 690.988 542.91C648.61 520.738 531.578 639.735 531.578 639.735C422.544 603.39 349.996 726.457 349.996 726.457" fill="#F05050"/>
<path d="M347.049 738.384L343.26 736.56C343.4 736.279 359.538 703.022 390.269 674.395C418.755 647.874 466.045 619.808 529.332 637.068L528.21 641.138C478.955 627.807 433.63 640.015 393.216 677.482C363.046 705.548 347.329 738.103 347.049 738.384Z" fill="black"/>
<path d="M633.638 663.745L575.192 715.008L577.968 718.172L636.414 666.91L633.638 663.745Z" fill="black"/>
<path d="M665.449 617.423C657.731 613.213 653.521 607.6 653.1 600.865C651.697 580.798 683.551 557.223 684.954 556.241L687.48 559.609C687.199 559.889 656.187 582.763 657.45 600.584C657.871 605.916 661.099 610.266 667.694 613.775L665.449 617.423Z" fill="black"/>
</svg>
