<svg width="1000" height="1000" viewBox="0 0 1000 1000" fill="none" xmlns="http://www.w3.org/2000/svg">
<rect width="1000" height="1000" fill="white"/>
<path d="M214.835 880.304L199.587 896.565L202.617 899.407L217.865 883.145L214.835 880.304Z" fill="black"/>
<path d="M201.682 599.119L198.577 601.879L214.86 620.195L217.964 617.436L201.682 599.119Z" fill="black"/>
<path d="M566.52 305.263C566.52 305.263 435.123 282.971 383.894 255.972C330.449 227.726 268.282 201.004 287.528 154.898C304.143 115.299 378.771 156.836 440.108 179.266C505.322 203.081 571.504 210.281 571.504 210.281L566.52 305.263Z" fill="#F05050"/>
<path d="M804.667 222.188C717.024 70.0225 625.087 102.422 625.087 102.422L543.397 200.45C458.107 245.864 411.447 232.849 342.633 241.987C277.974 250.572 192.545 244.618 196.145 287.401C200.299 337.108 267.866 332.123 328.372 332.262C333.357 332.262 338.757 331.985 344.71 331.431C329.895 356.769 329.342 376.43 331.142 419.905C332.803 459.92 327.126 519.457 374.756 512.395C423.77 505.195 417.539 367.984 417.539 367.984L518.06 361.753C537.721 376.845 552.951 385.43 564.304 390.137C515.152 406.475 453.261 428.213 439.416 438.32C415.878 455.489 403.278 490.103 433.046 510.457C455.338 525.687 577.735 490.242 637.964 471.412C649.456 468.643 659.84 465.32 669.117 461.443C670.64 460.889 671.471 460.612 671.471 460.612L671.332 460.474C755.515 423.782 751.915 345.415 751.915 345.415L804.667 222.188Z" fill="#F05050"/>
<path d="M346.372 331.708C362.156 302.909 383.063 283.524 407.709 275.632C449.246 262.34 505.598 252.925 506.152 252.925L505.46 248.771C504.906 248.91 448.138 258.325 406.324 271.756C380.156 280.202 358.003 300.832 341.526 331.708" fill="white"/>
<path d="M542.741 222.343L521.252 241.097L524.074 244.33L545.563 225.577L542.741 222.343Z" fill="white"/>
<path d="M391.13 291.356L387.231 293.15L395.447 311.012L399.347 309.219L391.13 291.356Z" fill="white"/>
<path d="M547.731 456.834L543.852 458.32L551.677 478.748L555.556 477.262L547.731 456.834Z" fill="white"/>
<path d="M351.495 493.703L348.31 491.073C357.725 480.134 361.602 469.473 359.802 459.504C357.172 444.551 342.357 435.828 342.218 435.828L344.295 432.228C344.987 432.643 360.91 441.92 363.817 458.812C365.894 470.027 361.741 481.796 351.495 493.703Z" fill="white"/>
<path d="M357.033 242.402L356.895 238.249C358.002 238.249 472.23 235.341 492.583 231.326L493.414 235.341C472.646 239.495 361.741 242.264 357.033 242.402Z" fill="white"/>
<path d="M520.309 215.654L505.125 225.319L507.356 228.823L522.54 219.158L520.309 215.654Z" fill="white"/>
<path d="M262.051 622.884L258.174 619.008L418.647 461.581L551.151 616.654L546.997 620.254L418.37 469.612L262.051 622.884Z" fill="black"/>
<path d="M621.072 600.039H200.576V897.308H621.072V600.039Z" fill="white"/>
<path d="M623.01 899.385H198.36V597.962H623.01V899.385ZM202.653 895.231H618.995V602.116H202.653V895.231Z" fill="black"/>
<path d="M603.211 618.869H216.36V880.554H603.211V618.869Z" fill="white"/>
<path d="M216.36 803.571L348.172 677.437L439.692 786.403L531.351 740.573L603.626 792.495V881.108H215.806L216.36 803.571Z" fill="black"/>
<path d="M307.26 753.792L304.902 758.651L327.698 769.713L330.056 764.855L307.26 753.792Z" fill="white"/>
<path d="M289.355 766.728L275.571 787.989L280.102 790.927L293.886 769.666L289.355 766.728Z" fill="white"/>
<path d="M395.135 754.054L394.339 759.395L419.4 763.129L420.196 757.788L395.135 754.054Z" fill="white"/>
<path d="M371.438 708.65L362.189 732.24L367.217 734.211L376.465 710.621L371.438 708.65Z" fill="white"/>
<path d="M349.279 802.741L353.433 785.019L384.448 761.481L381.679 758.019L355.094 778.096L359.525 759.404L357.033 758.85L351.772 780.588L334.464 793.88L337.095 797.341L350.11 787.511L346.649 802.049L349.279 802.741Z" fill="white"/>
<path d="M383.894 737.805C383.478 739.743 384.586 741.682 386.525 742.097C388.463 742.512 390.401 741.405 390.817 739.466C391.232 737.528 390.124 735.59 388.186 735.174C386.248 734.759 384.309 735.867 383.894 737.805Z" fill="white"/>
<path d="M321.864 733.236C323.941 733.79 326.018 732.405 326.572 730.328C327.126 728.251 325.741 726.174 323.665 725.621C321.588 725.067 319.511 726.451 318.957 728.528C318.403 730.605 319.788 732.682 321.864 733.236Z" fill="white"/>
<path d="M355.233 696.959C357.033 697.374 358.833 696.267 359.248 694.467C359.664 692.667 358.556 690.867 356.756 690.451C354.956 690.036 353.156 691.144 352.741 692.944C352.325 694.744 353.433 696.544 355.233 696.959Z" fill="white"/>
<path d="M332.803 758.296L336.957 760.096L350.387 729.773L354.956 745.142L359.248 743.896L353.156 723.543L360.91 705.82L356.895 704.02L351.079 716.897L341.387 684.082L337.787 687.544L348.31 723.127L332.803 758.296Z" fill="white"/>
<path d="M317.434 706.374L310.096 723.682L312.45 724.651L322.28 701.944L317.434 706.374Z" fill="white"/>
<path d="M277.835 747.912L268.281 763.697L270.497 765.081L279.774 749.851L283.512 754.005L289.189 748.605L283.927 742.928L291.266 730.882L284.204 737.528L282.127 740.989L281.297 740.159L275.62 745.559L277.835 747.912Z" fill="white"/>
<path d="M561.651 788.683L541.72 798.355L543.775 802.59L563.706 792.918L561.651 788.683Z" fill="white"/>
<path d="M577.215 799.257L573.265 801.817L585.316 820.406L589.266 817.845L577.215 799.257Z" fill="white"/>
<path d="M484.668 788.966L462.756 792.231L463.45 796.887L485.362 793.622L484.668 788.966Z" fill="white"/>
<path d="M505.249 748.663L500.867 750.381L508.953 771.006L513.335 769.288L505.249 748.663Z" fill="white"/>
<path d="M524.705 831.124L520.967 815.755L493.968 795.264L496.321 792.079L519.582 809.802L515.706 793.464L517.921 792.91L522.49 811.879L537.582 823.371L535.228 826.555L523.875 817.832L526.921 830.709L524.705 831.124Z" fill="white"/>
<path d="M494.383 774.496C494.799 776.157 493.691 777.819 492.03 778.234C490.368 778.65 488.707 777.542 488.291 775.88C487.876 774.219 488.983 772.557 490.645 772.142C492.306 771.727 493.968 772.834 494.383 774.496Z" fill="white"/>
<path d="M548.659 770.48C546.859 770.896 544.92 769.788 544.505 767.988C544.09 766.188 545.197 764.25 546.997 763.834C548.797 763.419 550.736 764.527 551.151 766.327C551.566 768.127 550.459 769.926 548.659 770.48Z" fill="white"/>
<path d="M519.444 738.773C517.921 739.188 516.259 738.219 515.844 736.558C515.429 734.896 516.398 733.373 518.059 732.958C519.582 732.542 521.244 733.512 521.659 735.173C522.075 736.835 520.967 738.358 519.444 738.773Z" fill="white"/>
<path d="M538.966 792.357L535.505 794.018L523.736 767.435L519.721 780.865L515.983 779.757L521.244 761.896L514.459 746.527L518.06 744.866L523.044 756.219L531.49 727.559L534.674 730.466L525.398 761.758L538.966 792.357Z" fill="white"/>
<path d="M552.397 747.081L558.905 762.034L556.828 763.004L548.243 743.204L552.397 747.081Z" fill="white"/>
<path d="M587.011 783.357L595.457 797.065L593.519 798.311L585.489 785.019L582.165 788.619L577.181 783.911L581.75 778.927L575.381 768.404L581.473 774.219L583.412 777.265L583.965 776.573L588.95 781.28L587.011 783.357Z" fill="white"/>
<path d="M461.984 717.036C476.742 717.036 488.706 705.071 488.706 690.313C488.706 675.555 476.742 663.591 461.984 663.591C447.226 663.591 435.262 675.555 435.262 690.313C435.262 705.071 447.226 717.036 461.984 717.036Z" fill="black"/>
<path d="M450.086 681.438L446.381 698.202L450.031 699.009L453.736 682.245L450.086 681.438Z" fill="white"/>
<path d="M466.042 673.894L465.523 677.596L482.525 679.98L483.044 676.278L466.042 673.894Z" fill="white"/>
<path d="M460.461 690.175C460.461 688.929 459.492 687.96 458.246 687.96C457 687.96 456.031 688.929 456.031 690.175C456.031 691.421 457 692.39 458.246 692.39C459.492 692.39 460.461 691.421 460.461 690.175Z" fill="white"/>
<path d="M441.077 673.699L461.153 680.206L461.707 678.545L442.185 672.176C441.908 672.73 441.492 673.283 441.077 673.699Z" fill="white"/>
<path d="M439.692 688.93V685.884H435.954C435.816 686.853 435.677 687.96 435.677 688.93H439.692Z" fill="white"/>
<path d="M475.83 713.159L456.307 706.79L455.754 708.452L473.615 714.267C474.445 713.99 475.138 713.575 475.83 713.159Z" fill="white"/>
<path d="M488.706 695.16C488.845 694.191 488.983 693.222 489.122 692.114L479.984 690.453L488.845 685.33C488.706 684.637 488.568 683.807 488.429 683.114L488.014 682.422L475.553 689.622L462.676 687.268L462.122 690.314L471.538 691.976L443.154 708.314C443.846 709.144 444.677 709.837 445.508 710.529L476.245 692.806L488.706 695.16Z" fill="white"/>
<path d="M465.03 663.314C464.2 663.176 463.23 663.176 462.399 663.176C461.984 663.176 461.707 663.176 461.292 663.176L460.046 668.576L463.646 669.407L465.03 663.314Z" fill="white"/>
<path d="M213.729 802.741L212.622 614.854H604.734L605.149 786.68H600.996L600.58 619.007H216.914L217.883 802.602L213.729 802.741Z" fill="black"/>
<path d="M605.647 880.184L602.8 883.209L620.142 899.531L622.989 896.507L605.647 880.184Z" fill="black"/>
<path d="M619.9 599.137L601.592 617.445L604.529 620.382L622.837 602.074L619.9 599.137Z" fill="black"/>
<path d="M214.835 880.303L199.587 896.565L202.617 899.406L217.865 883.144L214.835 880.303Z" fill="black"/>
<path d="M201.682 599.119L198.577 601.878L214.86 620.195L217.964 617.435L201.682 599.119Z" fill="black"/>
<path d="M431.524 445.243C431.524 445.243 410.063 464.904 416.847 489.549C423.631 514.195 442.323 519.041 478.322 512.118C514.321 505.195 431.524 445.243 431.524 445.243Z" fill="#F05050"/>
<path d="M488.429 492.041L484.276 491.764C484.276 491.626 485.106 476.673 474.861 469.473C465.584 462.965 450.215 464.211 429.169 473.35L427.508 469.473C449.938 459.781 466.692 458.535 477.215 466.011C489.399 474.734 488.429 491.349 488.429 492.041Z" fill="white"/>
<path d="M420.17 538.287C426.593 538.287 431.8 533.08 431.8 526.656C431.8 520.233 426.593 515.026 420.17 515.026C413.746 515.026 408.539 520.233 408.539 526.656C408.539 533.08 413.746 538.287 420.17 538.287Z" fill="black"/>
<path d="M405.632 532.472L434.708 516.549V519.457L408.539 533.856L405.632 532.472Z" fill="white"/>
<path d="M671.056 785.988L659.84 765.22L654.994 768.404L668.979 795.404L671.056 785.988Z" fill="black"/>
<path d="M280.189 528.18L262.19 543.41L266.343 547.564L289.881 528.18H280.189Z" fill="black"/>
</svg>
