<svg width="1000" height="1000" viewBox="0 0 1000 1000" fill="none" xmlns="http://www.w3.org/2000/svg">
<rect width="1000" height="1000" fill="white"/>
<path d="M100.312 655.244L166.958 582.814C166.958 582.814 178.15 504.097 239.765 447.134C301.381 390.171 312.95 381.117 359.351 383.38C405.751 385.644 486.983 403.374 465.229 438.331C443.475 473.289 350.674 453.044 350.674 453.044L307.166 510.007C307.166 510.007 340.74 515.037 348.536 530.378L439.954 513.151C439.954 513.151 457.684 446.002 485.977 435.565C514.27 425.128 523.45 457.319 517.163 484.355C517.163 484.355 588.084 485.361 536.905 557.665C536.905 557.665 562.809 575.521 526.971 624.688C491.133 673.855 455.295 720.381 438.571 726.92C421.847 733.459 402.607 742.513 283.903 732.83L233.855 785.895C233.73 786.021 142.06 746.536 100.312 655.244Z" fill="#F7C748"/>
<path d="M275.226 624.94L273.088 621.796C273.214 621.671 290.064 610.353 302.262 590.988C318.609 565.21 319.615 538.175 305.405 510.636L308.801 508.876C327.411 544.839 317.225 574.515 305.405 593.126C292.705 613.245 275.98 624.563 275.226 624.94Z" fill="black"/>
<path d="M522.444 622.927C510.247 592.245 539.42 573.131 539.671 572.88L541.684 576.024C540.552 576.778 514.899 593.754 525.839 621.544L522.444 622.927Z" fill="black"/>
<path d="M435.05 650.34L383.745 649.335L383.871 645.562L433.038 646.568C484.217 568.857 512.51 552.258 527.222 552.132C535.018 552.132 538.162 556.534 538.288 556.785L535.144 558.923L536.653 557.917L535.144 559.048C535.018 558.923 532.755 555.905 526.971 556.03C515.654 556.282 488.618 568.857 435.553 649.712L435.05 650.34Z" fill="black"/>
<path d="M386.26 589.982L385.883 586.21L430.02 582.186C488.115 495.547 515.025 483.098 516.156 482.595L517.665 485.99C517.414 486.116 490.253 498.942 432.661 584.952L432.158 585.707L386.26 589.982Z" fill="black"/>
<path d="M370.164 526.228C370.164 526.228 358.344 572.755 388.523 574.012C418.703 575.27 553.377 526.228 553.377 526.228L560.796 494.792L374.565 525.348L370.164 526.228Z" fill="#201000"/>
<path d="M383.824 558.292L380.052 558.36L381.82 657.554L385.592 657.487L383.824 558.292Z" fill="black"/>
<path d="M898.3 434.433L387.769 555.401L374.565 373.069L885.223 252.101L898.3 434.433Z" fill="white"/>
<path d="M386.009 557.791L372.554 371.686L886.857 249.711L900.312 435.816L386.009 557.791ZM376.578 374.578L389.53 553.138L896.414 432.924L883.462 254.364L376.578 374.578Z" fill="black"/>
<path d="M711.566 339.872L406.757 412.177L405.625 397.841L710.561 325.537L711.566 339.872Z" fill="#201000"/>
<path d="M713.83 370.806L409.02 443.11L408.014 429.781L712.824 357.603L713.83 370.806Z" fill="#201000"/>
<path d="M835.471 336.307C843.639 325.856 843.075 311.767 834.211 304.839C825.347 297.911 811.539 300.767 803.37 311.218C795.202 321.669 795.766 335.758 804.631 342.686C813.495 349.614 827.303 346.758 835.471 336.307Z" fill="black"/>
<path d="M849.511 386.398L798.332 398.47L796.068 367.913C795.44 359.237 801.853 350.434 810.529 348.422L830.523 343.644C839.074 341.632 846.619 347.039 847.247 355.716L849.511 386.398Z" fill="black"/>
<path d="M869.881 392.811L783.871 413.182L783.619 409.913L869.63 389.542L869.881 392.811Z" fill="black"/>
<path d="M871.139 403.248L785.128 423.619L784.877 420.224L870.888 399.853L871.139 403.248Z" fill="black"/>
<path d="M374.565 380.614C374.565 380.614 489.121 397.967 479.061 439.463C469.001 480.96 383.871 481.463 383.871 481.463L374.565 380.614Z" fill="#201000"/>
<path d="M166.455 583.946C166.455 583.946 177.647 505.229 239.263 448.265C300.878 391.302 312.447 382.248 358.847 384.512C405.248 386.901 486.48 404.506 464.726 439.463C442.972 474.421 350.171 454.175 350.171 454.175L306.663 511.139" fill="#F7C748"/>
<path d="M326.754 439.785L325.247 443.243L353.142 455.4L354.649 451.942L326.754 439.785Z" fill="black"/>
<path d="M448.002 424.625C442.092 424.625 436.685 423.242 431.781 420.601C417.697 412.93 413.17 397.086 413.044 396.458L416.691 395.452C416.691 395.577 420.966 410.416 433.667 417.332C441.589 421.607 451.146 421.984 462.086 418.463L463.217 422.11C457.81 423.745 452.78 424.625 448.002 424.625Z" fill="black"/>
<path d="M449.134 423.996C443.475 423.996 436.685 422.99 430.398 419.595C421.973 415.068 416.188 407.398 413.044 396.458L416.691 395.452C419.583 405.26 424.739 412.302 432.158 416.326C445.613 423.493 461.834 418.463 462.086 418.463L463.217 422.11C462.714 422.11 456.804 423.996 449.134 423.996Z" fill="black"/>
<path d="M804.745 230.724L842.469 213.119V221.921L804.745 230.724Z" fill="black"/>
<path d="M590.976 527.486L574.629 541.318L578.401 545.09L599.778 527.486H590.976Z" fill="black"/>
<path d="M120.935 551.881L110.875 533.019L106.349 535.911L119.175 560.431L120.935 551.881Z" fill="black"/>
<path d="M592.234 557.665C593.623 557.665 594.749 556.539 594.749 555.15C594.749 553.761 593.623 552.635 592.234 552.635C590.845 552.635 589.719 553.761 589.719 555.15C589.719 556.539 590.845 557.665 592.234 557.665Z" fill="black"/>
</svg>
