<svg width="1000" height="1000" viewBox="0 0 1000 1000" fill="none" xmlns="http://www.w3.org/2000/svg">
<rect width="1000" height="1000" fill="white"/>
<path d="M806.416 170.119C806.416 170.119 709.671 202.368 663.926 317.865C635.38 390.006 606.714 403.263 577.094 419.746C550.817 434.437 519.644 465.969 542.456 477.076C584.26 497.381 622.122 434.078 674.675 428.345C674.675 428.345 866.374 384.87 845.592 287.05L900.414 242.499C900.414 242.379 863.746 170.119 806.416 170.119Z" fill="#F7C748"/>
<path d="M638.485 440.767C650.19 432.884 663.09 429.66 674.675 428.346C674.675 428.346 675.033 430.735 675.75 434.795L694.263 430.496L685.305 352.502C675.153 399.919 638.485 440.767 638.485 440.767Z" fill="black"/>
<path d="M724.959 364.088C699.996 393.47 685.305 425.001 676.706 451.995C680.647 470.866 682.2 478.391 692.949 495.112C711.94 524.733 725.198 544.201 744.308 539.304C761.268 534.885 763.418 524.374 757.327 506.936C751.235 489.379 708.596 440.29 734.036 425.24C734.036 425.24 752.43 462.027 768.434 476.36C784.439 490.693 815.374 489.021 797.936 453.667C780.617 418.313 790.889 405.891 790.889 405.891C790.889 405.891 859.088 375.673 844.158 285.497C825.526 272.359 782.05 296.963 724.959 364.088Z" fill="black"/>
<path d="M704.893 299.113C704.893 299.113 685.783 324.195 683.394 363.609C680.886 404.935 676.347 436.945 658.909 462.624C641.591 488.303 678.855 524.016 705.012 484.004C731.169 444.111 725.675 411.146 761.507 383.675C797.219 356.204 825.048 314.998 787.664 269.611" fill="#F7C748"/>
<path d="M679.214 495.589L677.9 493.678C678.019 493.559 693.069 482.929 692.352 470.985C691.994 464.535 687.097 458.683 677.9 453.667L679.094 451.517C689.127 457.011 694.382 463.46 694.86 470.746C695.457 484.123 679.93 495.112 679.214 495.589Z" fill="black"/>
<path d="M542.695 470.269L542.098 467.999C543.054 467.76 564.792 461.43 561.567 440.528L563.955 440.17C567.419 463.222 542.934 470.269 542.695 470.269Z" fill="black"/>
<path d="M681.005 380.331H678.617C678.617 379.853 678.855 329.45 701.549 296.007L703.579 297.321C681.244 330.167 681.005 379.853 681.005 380.331Z" fill="black"/>
<path d="M709.671 341.514H694.144V345.097H709.671V341.514Z" fill="white"/>
<path d="M703.101 350.471H694.741V354.055H703.101V350.471Z" fill="white"/>
<path d="M333.2 487.348L330.931 472.299L316.24 468.357L331.289 466.088L335.23 451.397L337.38 466.446L352.071 470.388L337.022 472.657L333.2 487.348Z" fill="black"/>
<path d="M482.498 268.775L480.229 253.726L465.538 249.784L480.587 247.515L484.529 232.824L486.679 247.873L501.37 251.815L486.32 254.084L482.498 268.775Z" fill="black"/>
<path d="M358.163 298.635L353.863 269.134L325.078 261.49L354.579 257.19L362.224 228.286L366.523 257.787L395.427 265.551L365.926 269.851L358.163 298.635Z" fill="black"/>
<path d="M474.376 477.315L422.301 456.533L426.362 442.559L474.376 477.315Z" fill="black"/>
<path d="M493.845 462.028L463.269 414.849L484.768 396.695L493.845 462.028Z" fill="black"/>
<path d="M415.613 532.854C415.613 532.854 533.737 559.609 531.349 583.616C529.079 606.429 508.058 618.253 451.205 604.995C394.353 591.738 365.09 561.759 365.09 561.759L415.613 532.854Z" fill="black"/>
<path d="M401.519 573.225C401.519 573.225 497.428 653.248 482.379 673.195C468.166 692.185 442.247 692.544 396.383 653.846C350.519 615.148 339.052 574.658 339.052 574.658L401.519 573.225Z" fill="black"/>
<path d="M100.414 786.9C100.414 786.9 118.688 689.319 147.951 641.305C208.028 542.768 308.357 546.47 378.826 524.852C437.35 506.936 512.358 497.5 524.541 511.714C538.873 528.435 531.707 540.379 509.014 551.128C498.384 556.145 488.709 557.1 474.376 555.906C433.767 571.433 385.036 585.885 354.699 628.525C354.699 628.525 387.306 635.333 407.491 627.569C449.892 611.325 494.323 620.164 488.351 644.529C482.379 668.895 425.048 683.108 372.854 686.094C372.854 686.094 329.736 755.368 261.417 711.415L250.071 809.235C249.951 809.235 171.002 867.402 100.414 786.9Z" fill="#6857A7"/>
<path d="M309.671 633.541L309.193 631.152C310.626 630.794 344.188 623.269 360.432 625.777L360.074 628.166C344.188 625.777 310.029 633.422 309.671 633.541Z" fill="white"/>
<path d="M264.403 713.326C222.839 697.799 191.307 723.239 191.307 723.239C191.307 723.239 206.117 716.789 225.108 731.839C244.099 746.888 221.883 823.209 221.883 823.209L249.951 809.235L261.298 711.415C262.373 712.012 263.328 712.728 264.403 713.326Z" fill="black"/>
<path d="M442.606 665.909C442.367 665.551 437.35 657.907 441.173 650.621C445.114 643.096 456.938 639.155 476.168 638.916V641.305C458.133 641.543 446.667 645.127 443.203 651.696C439.978 657.668 444.397 664.476 444.517 664.595L442.606 665.909Z" fill="white"/>
<path d="M476.049 556.861C470.793 552.92 470.793 543.126 470.793 542.768H473.182C473.182 542.887 473.302 551.725 477.482 554.95L476.049 556.861Z" fill="white"/>
<path d="M363.977 664.787L359.214 679.063L361.48 679.819L366.243 665.543L363.977 664.787Z" fill="white"/>
<path d="M389.248 575.014L387.412 576.542L398.036 589.301L399.871 587.773L389.248 575.014Z" fill="white"/>
</svg>
