<svg width="1000" height="1000" viewBox="0 0 1000 1000" fill="none" xmlns="http://www.w3.org/2000/svg">
<rect width="1000" height="1000" fill="white"/>
<path d="M602.171 883.906L598.642 827.272C598.642 827.272 537.195 799.838 550.03 733.578C550.03 733.578 532.542 726.198 522.595 704.058C522.595 704.058 478.476 726.679 439.811 655.286C401.146 583.731 397.937 532.713 426.174 528.221C426.174 528.221 427.618 459.875 475.428 451.212C475.428 451.212 499.172 375.807 566.394 405.648C633.617 435.489 737.097 497.257 773.516 577.474C809.935 657.692 843.947 746.573 831.754 869.627C831.594 869.467 727.151 927.223 602.171 883.906Z" fill="#6857A7"/>
<path d="M539.12 680.473C507.996 675.339 478.315 646.621 453.448 597.689C434.677 560.789 424.89 525.011 424.73 524.691L427.778 523.888C428.099 525.332 466.764 665.393 539.602 677.425L539.12 680.473Z" fill="white"/>
<path d="M419.757 612.128C419.757 612.128 561.902 595.764 591.904 618.225C621.905 640.686 772.233 574.907 772.233 574.907L746.242 528.221L415.906 601.539L419.757 612.128Z" fill="black"/>
<path d="M657.843 764.702C657.843 764.702 620.461 744.969 603.455 746.092C586.449 747.215 540.885 748.659 522.917 703.737C522.917 703.737 535.11 699.245 539.281 676.142C539.281 676.142 572.331 659.777 561.902 629.134C561.902 629.134 598.963 629.616 590.941 593.197C582.92 556.778 677.255 653.2 677.255 653.2L657.843 764.702Z" fill="black"/>
<path d="M517.462 692.026C517.462 692.026 515.216 684.966 507.515 681.276C499.172 677.426 487.781 678.549 473.663 684.646L472.379 681.758C487.46 675.34 499.814 674.217 508.959 678.549C518.104 682.881 520.51 690.903 520.671 691.384L517.462 692.026Z" fill="white"/>
<path d="M548.907 645.499C548.907 645.499 546.661 638.44 538.96 634.75C530.617 630.9 519.227 632.023 505.108 638.119L503.825 635.231C518.906 628.814 531.259 627.691 540.404 632.023C549.549 636.354 551.955 644.376 552.116 644.858L548.907 645.499Z" fill="white"/>
<path d="M803.357 718.497H786.833V721.706H803.357V718.497Z" fill="white"/>
<path d="M809.536 184.436L227.958 278.401L284.153 626.207L865.731 532.243L809.536 184.436Z" fill="white"/>
<path d="M282.263 628.974L225.309 276.337L811.7 181.52L868.654 534.157L282.263 628.974ZM230.764 280.348L286.114 623.359L863.039 530.146L807.689 187.135L230.764 280.348Z" fill="black"/>
<path d="M422.608 494.479L413.044 500.053L438.893 544.41L448.458 538.836L422.608 494.479Z" fill="black"/>
<path d="M526.048 513.207L478.847 533.404L483.202 543.582L530.403 523.385L526.048 513.207Z" fill="black"/>
<path d="M261.198 402.398L253.739 410.578L291.673 445.17L299.132 436.991L261.198 402.398Z" fill="black"/>
<path d="M315.505 510.118L273.304 539.351L279.608 548.45L321.808 519.218L315.505 510.118Z" fill="black"/>
<path d="M423.286 415.274L396.333 440.302L317.719 444.795L318.361 453.779L385.744 449.928L357.186 476.24L360.876 480.09L394.086 449.447L438.046 446.88L437.564 437.896L404.515 439.821L426.815 419.125L423.286 415.274Z" fill="black"/>
<path d="M291.889 485.064C294.777 482.336 294.938 477.844 292.371 474.956C289.643 472.068 285.151 471.908 282.263 474.475C279.375 477.202 279.215 481.694 281.782 484.582C284.509 487.63 289.001 487.791 291.889 485.064Z" fill="black"/>
<path d="M390.878 562.714C387.99 559.505 382.856 559.345 379.647 562.233C376.439 565.12 376.278 570.254 379.166 573.463C382.054 576.672 387.188 576.832 390.397 573.944C393.605 571.057 393.766 565.923 390.878 562.714Z" fill="black"/>
<path d="M293.975 585.816C291.408 583.089 287.076 582.929 284.349 585.495C281.621 588.062 281.461 592.394 284.028 595.122C286.595 597.849 290.927 598.009 293.654 595.442C296.381 592.875 296.542 588.544 293.975 585.816Z" fill="black"/>
<path d="M400.825 508.166L395.851 500.625L339.217 536.403L348.843 505.439L340.34 502.711L327.505 543.783L294.456 564.639L299.269 572.34L323.334 557.099L302.799 623.198L312.746 621.594L335.206 549.719L400.825 508.166Z" fill="black"/>
<path d="M368.096 612.61L399.862 592.074L397.135 587.582L355.101 614.695L368.096 612.61Z" fill="black"/>
<path d="M481.203 587.582L515.215 572.019L513.13 567.206L480.401 582.287L478.476 571.057L462.913 573.624L465.48 589.186L439.49 601.058L458.903 598.01L466.282 594.48L466.764 596.726L482.326 594.159L481.203 587.582Z" fill="black"/>
<path d="M764.603 230.378L672.583 245.246L688.602 344.393L780.622 329.525L764.603 230.378Z" fill="black"/>
<path d="M735.011 306.98L726.348 309.226L733.086 337.141L742.071 335.697L735.011 306.98Z" fill="white"/>
<path d="M774.8 293.503L718.327 257.886L716.081 262.058L772.393 297.674L750.895 316.445L755.708 322.702L776.565 304.573L774.8 293.503Z" fill="white"/>
<path d="M703.406 292.38C702.764 288.53 699.395 285.963 695.865 286.444C692.336 287.086 689.929 290.615 690.571 294.305C691.213 297.996 694.582 300.723 698.111 300.242C701.641 299.76 704.048 296.231 703.406 292.38Z" fill="white"/>
<path d="M263.492 322.863L262.208 318.211C264.775 317.408 326.864 300.242 350.609 304.092C361.197 305.857 383.177 300.402 406.6 294.627C433.714 288.049 461.79 281.15 479.278 283.236L478.636 288.049C461.951 286.123 433.072 293.183 407.723 299.44C383.818 305.215 361.358 310.83 349.806 308.905C327.185 305.215 264.134 322.703 263.492 322.863Z" fill="black"/>
<path d="M280.819 358.801L279.536 354.148C303.12 347.25 328.789 348.052 353.657 348.854C378.203 349.656 401.466 350.298 420.558 343.56C459.063 329.762 485.695 323.826 486.016 323.826L486.979 328.479C486.658 328.479 460.186 334.415 422.162 348.052C402.269 355.111 378.685 354.469 353.496 353.667C328.95 352.865 303.601 352.063 280.819 358.801Z" fill="black"/>
<path d="M774.318 615.658C774.318 615.658 635.542 490.679 576.181 494.53C516.659 498.22 547.784 584.534 666.666 665.233C666.666 665.233 619.178 725.075 681.106 803.688" fill="#6857A7"/>
<path d="M606.343 556.618C594.791 556.618 580.512 549.88 563.506 536.403L565.431 533.836C586.609 550.682 603.294 556.778 614.846 551.805C628.804 545.708 630.568 525.333 630.568 525.012L633.777 525.333C633.777 526.295 631.852 547.954 616.129 554.693C613.081 555.976 609.872 556.618 606.343 556.618Z" fill="white"/>
<path d="M690.638 569.22L680.53 589.815L683.41 591.229L693.519 570.634L690.638 569.22Z" fill="white"/>
<path d="M699.485 574.382L689.376 594.977L692.257 596.391L702.365 575.795L699.485 574.382Z" fill="white"/>
<path d="M171.724 452.174L152.631 445.115L138.513 459.875L145.572 440.623L130.812 426.505L150.065 433.724L164.183 418.964L156.964 438.056L171.724 452.174Z" fill="black"/>
<path d="M657.361 145.743L646.612 128.255L626.397 131.304L643.724 120.554L640.676 100.339L651.425 117.827L671.64 114.779L654.313 125.528L657.361 145.743Z" fill="black"/>
<path d="M330.555 198.205L307.131 160.503L263.332 167.081L301.034 143.818L294.457 100.019L317.72 137.561L361.519 130.983L323.977 154.407L330.555 198.205Z" fill="black"/>
<path d="M454.09 761.975L448.796 753.632L439.009 755.076L447.512 749.782L445.908 739.995L451.202 748.338L461.149 746.894L452.646 752.188L454.09 761.975Z" fill="black"/>
<path d="M767.42 459.234L762.126 450.731L752.339 452.175L760.842 446.88L759.238 437.094L764.532 445.597L774.479 444.153L765.976 449.287L767.42 459.234Z" fill="black"/>
</svg>
