<svg width="1000" height="1000" viewBox="0 0 1000 1000" fill="none" xmlns="http://www.w3.org/2000/svg">
<rect width="1000" height="1000" fill="white"/>
<path d="M99.9141 558.228C99.9141 558.228 386.859 377.181 543.519 407.267C614.56 420.919 561.677 489.175 589.642 499.513C642.658 519.129 653.393 544.046 653.393 544.046C653.393 544.046 692.359 626.75 622.114 655.113C622.114 655.113 642.26 701.634 546.965 732.251C451.67 762.867 441.995 729.335 441.995 729.335C441.995 729.335 364.858 761.144 310.915 711.574L213.632 768.036C213.499 768.036 121.385 706.273 99.9141 558.228Z" fill="#F05050"/>
<path d="M496.866 701.104C482.021 701.104 466.382 699.381 450.212 695.007L451.273 691.164C499.516 704.152 543.387 693.549 571.75 682.416C602.499 670.223 622.114 654.716 622.247 654.583L624.765 657.631C624.632 657.764 604.619 673.536 573.34 685.994C553.857 693.682 527.217 701.104 496.866 701.104Z" fill="white"/>
<path d="M329.868 443.185C438.284 392.158 575.328 331.455 678.973 367.108C800.908 409.123 815.487 517.671 672.744 475.657C581.425 448.752 559.026 454.186 507.734 517.937L459.49 477.778L329.868 443.185Z" fill="#F05050"/>
<path d="M380.365 471.416C380.365 471.416 509.059 482.151 551.869 503.622C594.679 525.094 648.754 491.429 621.584 550.541C594.944 608.46 470.358 629.401 470.358 629.401C470.358 629.401 412.969 647.824 450.742 693.152C450.742 693.152 429.934 702.694 440.537 728.407L397.595 739.01C397.595 739.01 385.136 742.853 377.449 683.344L361.279 679.235C361.147 679.103 466.647 613.231 380.365 471.416Z" fill="black"/>
<path d="M332.518 688.249L332.121 684.273C359.424 681.092 380.365 666.777 394.281 641.595C404.752 622.775 407.27 604.617 407.27 604.352L411.246 604.882C411.114 605.677 408.728 623.835 397.86 643.318C387.654 661.608 368.171 684.008 332.518 688.249Z" fill="white"/>
<path d="M494.745 616.943C494.745 616.943 486.925 648.355 518.337 645.174C549.748 641.993 655.911 627.016 655.911 627.016C655.911 627.016 660.815 621.449 662.538 608.991L513.566 623.172L494.745 616.943Z" fill="black"/>
<path d="M700.096 231.961L434.761 476.616L562.884 615.569L828.219 370.914L700.096 231.961Z" fill="white"/>
<path d="M699.782 237.485L822.512 370.554L563.002 609.918L440.272 476.849L699.782 237.485ZM699.914 231.919L434.705 476.584L562.737 615.484L828.078 370.819L699.914 231.919Z" fill="black"/>
<path d="M485.335 505.477L537.953 562.601C553.857 548.022 578.509 548.95 593.221 564.854L775.196 397.061C760.617 381.156 761.544 356.504 777.449 341.793L724.831 284.669C708.927 299.248 684.275 298.32 669.563 282.416L487.588 450.209C502.167 466.113 501.239 490.898 485.335 505.477Z" fill="white"/>
<path d="M669.43 286.26C677.118 293.683 687.455 297.791 698.191 297.791C707.866 297.791 717.011 294.478 724.434 288.514L773.605 341.794C766.581 349.083 762.472 358.626 762.074 368.964C761.677 379.17 764.99 389.11 771.352 396.93L593.221 561.144C585.534 553.722 575.196 549.614 564.46 549.614C554.785 549.614 545.64 552.927 538.218 558.891L489.046 505.611C503.493 490.502 504.553 466.777 491.299 450.475L669.43 286.26ZM669.563 282.549L487.588 450.343C502.167 466.247 501.239 490.899 485.335 505.611L537.953 562.735C545.507 555.843 554.917 552.397 564.46 552.397C574.931 552.397 585.534 556.638 593.221 564.988L775.196 397.195C760.617 381.29 761.544 356.638 777.449 341.926L724.831 284.802C717.277 291.694 707.866 295.14 698.324 295.14C687.721 295.14 677.25 290.899 669.563 282.549Z" fill="black"/>
<path d="M592.028 460.679C568.304 434.967 566.846 397.724 588.715 377.446C610.583 357.167 647.694 361.673 671.418 387.518C695.143 413.231 696.601 450.474 674.732 470.752C652.731 490.898 615.752 486.392 592.028 460.679Z" fill="white"/>
<path d="M622.379 364.722V367.373C639.477 367.373 656.707 375.325 669.43 389.242C680.431 401.17 686.925 416.147 687.456 431.256C687.986 446.233 682.817 459.487 672.876 468.765C664.394 476.584 653.393 480.693 641.067 480.693C623.97 480.693 606.74 472.741 594.016 458.824C571.352 434.172 569.762 398.519 590.57 379.301C599.053 371.482 610.053 367.373 622.379 367.373V364.722ZM622.379 364.722C609.921 364.722 597.992 368.831 588.715 377.313C566.846 397.592 568.304 434.835 592.028 460.547C605.812 475.392 623.97 483.211 641.067 483.211C653.526 483.211 665.454 479.102 674.732 470.62C696.601 450.342 695.143 413.099 671.418 387.386C657.634 372.542 639.477 364.722 622.379 364.722Z" fill="black"/>
<path d="M696.601 274.463C698.65 274.463 700.312 272.802 700.312 270.752C700.312 268.703 698.65 267.041 696.601 267.041C694.551 267.041 692.89 268.703 692.89 270.752C692.89 272.802 694.551 274.463 696.601 274.463Z" fill="white"/>
<path d="M696.601 267.042C694.613 267.042 693.022 268.632 692.89 270.62C692.757 272.608 694.347 274.463 696.468 274.463H696.601C698.589 274.463 700.179 272.873 700.312 270.885C700.444 268.897 698.854 267.042 696.733 267.042H696.601Z" fill="black"/>
<path d="M784.341 372.276C786.39 372.276 788.052 370.615 788.052 368.565C788.052 366.516 786.39 364.854 784.341 364.854C782.291 364.854 780.63 366.516 780.63 368.565C780.63 370.615 782.291 372.276 784.341 372.276Z" fill="white"/>
<path d="M784.341 364.854C782.353 364.854 780.762 366.445 780.63 368.433C780.497 370.421 782.088 372.276 784.208 372.276H784.341C786.329 372.276 787.919 370.686 788.052 368.698C788.185 366.71 786.594 364.854 784.474 364.854H784.341Z" fill="black"/>
<path d="M562.737 578.905C564.787 578.905 566.448 577.243 566.448 575.194C566.448 573.144 564.787 571.482 562.737 571.482C560.688 571.482 559.026 573.144 559.026 575.194C559.026 577.243 560.688 578.905 562.737 578.905Z" fill="white"/>
<path d="M562.737 571.482C560.749 571.482 559.159 573.072 559.026 575.06C558.893 577.048 560.484 578.904 562.605 578.904H562.737C564.725 578.904 566.316 577.313 566.448 575.325C566.581 573.337 564.99 571.482 562.87 571.482C562.87 571.482 562.87 571.482 562.737 571.482Z" fill="black"/>
<path d="M474.864 483.608C476.914 483.608 478.575 481.947 478.575 479.897C478.575 477.848 476.914 476.187 474.864 476.187C472.815 476.187 471.153 477.848 471.153 479.897C471.153 481.947 472.815 483.608 474.864 483.608Z" fill="white"/>
<path d="M474.864 476.187C472.876 476.187 471.286 477.777 471.153 479.765C471.021 481.753 472.611 483.608 474.732 483.608H474.864C476.852 483.608 478.443 482.018 478.575 480.03C478.708 478.042 477.118 476.187 474.997 476.187C474.997 476.187 474.997 476.187 474.864 476.187Z" fill="black"/>
<path d="M834.399 392.371L477.721 447.48L506.581 634.269L863.26 579.159L834.399 392.371Z" fill="white"/>
<path d="M831.127 396.796L858.827 575.723L510.12 629.665L482.419 450.739L831.127 396.796ZM834.44 392.157L477.78 447.293L506.674 634.039L863.334 578.904L834.44 392.157Z" fill="black"/>
<path d="M503.758 499.646L515.554 576.385C536.892 573.072 556.905 587.651 560.086 608.99L804.619 571.216C801.306 549.878 815.885 529.997 837.224 526.683L825.428 449.944C804.089 453.257 784.208 438.678 780.895 417.339L536.362 455.113C539.676 476.319 525.096 496.332 503.758 499.646Z" fill="white"/>
<path d="M778.907 420.256C783.016 439.341 799.848 452.993 819.596 452.993C820.789 452.993 822.114 452.993 823.44 452.86L834.573 524.563C824.632 526.684 816.017 532.383 809.921 540.6C803.824 548.818 801.041 558.891 801.968 568.964L562.34 605.942C558.231 587.121 541.133 573.205 521.65 573.205C520.458 573.205 519.132 573.205 517.807 573.337L506.674 501.634C527.084 497.128 541.133 478.042 539.278 457.101L778.907 420.256ZM781.027 417.208L536.495 454.981C539.808 476.32 525.096 496.2 503.89 499.513L515.686 576.253C517.674 575.988 519.662 575.723 521.65 575.723C540.603 575.723 557.303 589.507 560.219 608.857L804.752 571.084C801.438 549.745 816.017 529.865 837.356 526.551L825.56 449.812C823.572 450.077 821.584 450.342 819.596 450.342C800.643 450.342 783.943 436.558 781.027 417.208Z" fill="black"/>
<path d="M617.343 521.78C612.041 487.187 631.524 455.378 661.08 450.872C690.504 446.365 718.735 470.753 724.169 505.345C729.47 539.938 709.987 571.747 680.431 576.253C650.875 580.759 622.644 556.505 617.343 521.78Z" fill="white"/>
<path d="M668.105 450.342V452.993C693.817 452.993 716.746 475.656 721.385 505.742C723.903 521.912 720.855 537.817 712.903 550.673C705.083 563.397 693.287 571.614 679.901 573.602C677.648 574 675.395 574.132 673.141 574.132C647.429 574.132 624.5 551.468 619.861 521.382C614.692 488.248 633.38 457.764 661.346 453.523C663.599 453.125 665.852 452.993 668.105 452.993V450.342ZM668.105 450.342C665.719 450.342 663.334 450.474 660.948 450.872C631.524 455.378 611.909 487.187 617.21 521.78C622.114 553.589 646.369 576.783 673.141 576.783C675.527 576.783 677.913 576.651 680.298 576.253C709.722 571.747 729.338 539.938 724.036 505.345C719.132 473.536 694.878 450.342 668.105 450.342Z" fill="black"/>
<path d="M810.053 426.218C812.103 426.218 813.764 424.557 813.764 422.508C813.764 420.458 812.103 418.796 810.053 418.796C808.004 418.796 806.342 420.458 806.342 422.508C806.342 424.557 808.004 426.218 810.053 426.218Z" fill="white"/>
<path d="M810.053 421.448C810.186 421.448 810.451 421.448 810.716 421.713C810.981 421.978 811.114 422.243 811.114 422.375C811.114 422.508 811.114 422.906 810.981 423.171C810.716 423.568 810.318 423.568 810.186 423.568C810.053 423.568 809.788 423.568 809.523 423.303C809.258 423.038 809.125 422.773 809.125 422.64C809.125 422.508 809.125 422.11 809.258 421.845C809.39 421.58 809.788 421.448 810.053 421.448ZM810.053 418.797C808.86 418.797 807.8 419.327 807.005 420.255C805.812 421.845 806.21 424.231 807.8 425.424C808.463 425.954 809.258 426.086 810.053 426.086C811.246 426.086 812.306 425.556 813.102 424.628C814.294 423.038 813.897 420.652 812.306 419.46C811.511 419.062 810.716 418.797 810.053 418.797Z" fill="black"/>
<path d="M828.343 556.371C830.393 556.371 832.055 554.71 832.055 552.66C832.055 550.611 830.393 548.949 828.343 548.949C826.294 548.949 824.632 550.611 824.632 552.66C824.632 554.71 826.294 556.371 828.343 556.371Z" fill="white"/>
<path d="M828.344 551.6C828.476 551.6 828.741 551.6 829.006 551.865C829.536 552.263 829.536 552.925 829.271 553.323C829.006 553.721 828.609 553.721 828.344 553.721C828.211 553.721 827.946 553.72 827.681 553.455C827.151 553.058 827.151 552.395 827.416 551.998C827.813 551.6 828.211 551.6 828.344 551.6ZM828.344 548.949C827.151 548.949 826.09 549.48 825.295 550.407C824.102 551.998 824.5 554.383 826.09 555.576C826.753 556.106 827.548 556.239 828.344 556.239C829.536 556.239 830.597 555.709 831.392 554.781C832.585 553.19 832.187 550.805 830.597 549.612C829.934 549.214 829.139 548.949 828.344 548.949Z" fill="black"/>
<path d="M509.324 476.32C511.374 476.32 513.035 474.658 513.035 472.609C513.035 470.559 511.374 468.898 509.324 468.898C507.275 468.898 505.613 470.559 505.613 472.609C505.613 474.658 507.275 476.32 509.324 476.32Z" fill="white"/>
<path d="M509.324 471.548C509.457 471.548 509.722 471.548 509.987 471.813C510.517 472.211 510.517 472.873 510.252 473.271C509.987 473.669 509.589 473.669 509.324 473.669C509.192 473.669 508.927 473.669 508.662 473.404C508.131 473.006 508.131 472.343 508.397 471.946C508.794 471.548 509.192 471.548 509.324 471.548ZM509.324 468.897C508.131 468.897 507.071 469.427 506.276 470.355C505.083 471.946 505.481 474.332 507.071 475.524C507.734 476.055 508.529 476.187 509.324 476.187C510.517 476.187 511.577 475.657 512.373 474.729C513.566 473.139 513.168 470.753 511.577 469.56C510.915 469.03 510.119 468.897 509.324 468.897Z" fill="black"/>
<path d="M467.707 470.488L770.822 274.597L873.406 433.377L573.075 621.582L467.707 470.488Z" fill="white"/>
<path d="M769.629 280.163L867.84 432.184L574.135 616.28L473.274 471.681L769.629 280.163ZM770.822 274.597L467.707 470.488L573.075 621.582L873.406 433.377L770.822 274.597Z" fill="black"/>
<path d="M512.77 507.73L554.917 572.939C573.075 561.276 597.197 566.445 608.993 584.603L816.813 450.342C805.149 432.184 810.318 408.062 828.476 396.266L786.329 331.057C768.171 342.721 744.049 337.552 732.253 319.394L524.434 453.655C536.097 471.813 530.928 495.935 512.77 507.73Z" fill="white"/>
<path d="M731.458 322.973C739.278 333.576 751.736 339.937 764.99 339.937C772.147 339.937 779.172 338.082 785.269 334.636L824.632 395.603C816.415 401.7 810.848 410.315 808.728 420.388C806.607 430.461 808.065 440.666 813.102 449.546L609.656 580.892C601.836 570.289 589.51 564.059 576.124 564.059C568.966 564.059 561.942 565.915 555.713 569.361L516.349 508.393C533.181 495.935 538.218 472.74 528.012 454.45L731.458 322.973ZM732.253 319.394L524.434 453.655C536.097 471.813 530.928 495.935 512.77 507.73L554.917 572.939C561.412 568.698 568.834 566.71 576.124 566.71C588.98 566.71 601.438 572.939 608.993 584.603L816.813 450.342C805.149 432.184 810.318 408.062 828.476 396.266L786.329 331.057C779.835 335.299 772.412 337.287 765.123 337.287C752.267 337.287 739.676 330.925 732.253 319.394Z" fill="black"/>
<path d="M625.428 481.622C606.475 452.198 611.379 415.22 636.428 399.051C661.478 382.881 697.263 393.617 716.216 423.04C735.169 452.464 730.265 489.442 705.216 505.611C680.166 521.781 644.513 511.045 625.428 481.622Z" fill="white"/>
<path d="M662.538 391.495V394.146C682.154 394.146 701.902 405.809 713.963 424.365C722.843 438.016 726.554 453.788 724.566 468.765C722.578 483.609 715.156 495.803 703.758 503.225C696.601 507.864 687.986 510.382 679.106 510.382C659.49 510.382 639.742 498.719 627.681 480.031C609.523 451.933 614.029 416.545 637.886 401.17C645.043 396.532 653.658 394.014 662.538 394.014V391.495ZM662.538 391.495C653.393 391.495 644.381 393.881 636.428 399.05C611.379 415.219 606.475 452.198 625.428 481.621C638.416 501.767 659.225 513.165 679.106 513.165C688.251 513.165 697.263 510.78 705.216 505.611C730.265 489.441 735.169 452.463 716.216 423.039C703.228 402.893 682.419 391.495 662.538 391.495Z" fill="black"/>
<path d="M760.882 316.081C762.931 316.081 764.593 314.419 764.593 312.37C764.593 310.32 762.931 308.659 760.882 308.659C758.832 308.659 757.171 310.32 757.171 312.37C757.171 314.419 758.832 316.081 760.882 316.081Z" fill="white"/>
<path d="M760.882 311.309C761.014 311.309 761.014 311.309 761.147 311.309C761.677 311.442 762.075 311.972 761.942 312.635C761.809 313.165 761.412 313.43 760.882 313.43C760.749 313.43 760.749 313.43 760.617 313.43C760.219 313.298 760.086 313.165 759.954 313.033C759.821 312.9 759.689 312.635 759.821 312.237C759.954 311.707 760.352 311.309 760.882 311.309ZM760.882 308.659C759.159 308.659 757.568 309.851 757.303 311.574C756.906 313.563 758.098 315.551 760.219 315.948C760.484 315.948 760.749 316.081 761.014 316.081C762.737 316.081 764.328 314.888 764.593 313.165C764.99 311.177 763.798 309.189 761.677 308.791C761.412 308.659 761.147 308.659 760.882 308.659Z" fill="black"/>
<path d="M830.729 427.413C832.779 427.413 834.44 425.751 834.44 423.702C834.44 421.652 832.779 419.991 830.729 419.991C828.68 419.991 827.018 421.652 827.018 423.702C827.018 425.751 828.68 427.413 830.729 427.413Z" fill="white"/>
<path d="M830.729 422.641C830.862 422.641 830.862 422.641 830.994 422.641C831.524 422.774 831.922 423.304 831.789 423.967C831.657 424.497 831.259 424.762 830.729 424.762C830.597 424.762 830.597 424.762 830.464 424.762C830.066 424.63 829.934 424.497 829.801 424.365C829.669 424.232 829.536 423.967 829.669 423.569C829.801 422.906 830.199 422.641 830.729 422.641ZM830.729 419.991C829.006 419.991 827.416 421.184 827.151 422.906C826.753 424.895 827.946 426.883 830.066 427.28C830.332 427.28 830.597 427.413 830.862 427.413C832.585 427.413 834.175 426.22 834.44 424.497C834.838 422.509 833.645 420.521 831.524 420.123C831.259 419.991 830.994 419.991 830.729 419.991Z" fill="black"/>
<path d="M577.184 593.217C579.233 593.217 580.895 591.556 580.895 589.507C580.895 587.457 579.233 585.795 577.184 585.795C575.134 585.795 573.473 587.457 573.473 589.507C573.473 591.556 575.134 593.217 577.184 593.217Z" fill="white"/>
<path d="M577.184 588.446C577.316 588.446 577.316 588.446 577.449 588.446C577.847 588.579 577.979 588.711 578.112 588.844C578.244 588.976 578.377 589.241 578.244 589.639C578.112 590.169 577.714 590.434 577.184 590.434C577.051 590.434 577.051 590.434 576.919 590.434C576.521 590.302 576.389 590.169 576.256 590.037C576.123 589.904 575.991 589.639 576.124 589.241C576.256 588.844 576.654 588.446 577.184 588.446ZM577.184 585.795C575.461 585.795 573.87 586.988 573.605 588.711C573.208 590.699 574.401 592.687 576.521 593.085C576.786 593.085 577.051 593.217 577.316 593.217C579.039 593.217 580.63 592.025 580.895 590.302C581.292 588.314 580.1 586.325 577.979 585.928C577.714 585.928 577.449 585.795 577.184 585.795Z" fill="black"/>
<path d="M506.806 484.405C508.856 484.405 510.517 482.743 510.517 480.694C510.517 478.644 508.856 476.982 506.806 476.982C504.756 476.982 503.095 478.644 503.095 480.694C503.095 482.743 504.756 484.405 506.806 484.405Z" fill="white"/>
<path d="M506.806 479.633C506.939 479.633 506.939 479.633 507.071 479.633C507.601 479.766 507.999 480.296 507.866 480.959C507.734 481.489 507.336 481.754 506.806 481.754C506.674 481.754 506.674 481.754 506.541 481.754C506.143 481.621 506.011 481.489 505.878 481.356C505.746 481.224 505.613 480.959 505.746 480.561C505.878 480.031 506.276 479.633 506.806 479.633ZM506.806 476.982C505.083 476.982 503.493 478.175 503.228 479.898C502.83 481.886 504.023 483.874 506.143 484.272C506.408 484.272 506.674 484.405 506.939 484.405C508.662 484.405 510.252 483.212 510.517 481.489C510.915 479.501 509.722 477.513 507.601 477.115C507.336 476.983 507.071 476.982 506.806 476.982Z" fill="black"/>
<path d="M502.565 568.3L552.532 627.014L623.44 616.014L846.766 471.415L843.453 450.341L577.847 618.532L529.205 555.576L497.661 561.938L502.565 571.481" fill="black"/>
<path d="M515.819 443.581C515.819 443.581 635.103 418.532 652.333 459.221C669.563 500.043 650.742 532.912 605.282 548.684C559.821 564.324 539.41 564.324 539.41 564.324L503.36 510.911L502.432 448.088L515.819 443.581Z" fill="black"/>
<path d="M358.761 472.74C358.761 472.74 601.571 427.014 631.524 454.449C661.478 481.752 642.127 518.2 613.234 533.575C584.341 549.082 393.353 580.758 393.353 580.758" fill="#F05050"/>
<path d="M493.961 471.673L490.087 472.567L495.601 496.459L499.476 495.565L493.961 471.673Z" fill="white"/>
<path d="M393.751 476.186L392.823 472.342C595.474 422.507 629.139 449.015 630.464 450.208L627.813 453.256L629.139 451.798L627.813 453.256C627.548 452.991 592.956 427.279 393.751 476.186Z" fill="white"/>
<path d="M582.883 486.524C574.268 486.524 566.713 484.801 560.484 481.488C546.302 473.8 543.917 460.281 543.784 459.619L547.76 458.956C547.76 459.089 550.013 471.282 562.472 477.909C577.449 485.994 601.173 483.21 631.259 469.956L632.85 473.535C613.367 482.15 596.667 486.524 582.883 486.524Z" fill="white"/>
<path d="M875.66 272.873L872.214 300.441L876.985 299.115L884.009 270.487L875.66 272.873Z" fill="black"/>
<path d="M895.01 364.854C897.718 364.854 899.914 362.658 899.914 359.95C899.914 357.241 897.718 355.046 895.01 355.046C892.302 355.046 890.106 357.241 890.106 359.95C890.106 362.658 892.302 364.854 895.01 364.854Z" fill="black"/>
<path d="M744.712 632.449L770.822 643.052V638.148L744.579 623.966L744.712 632.449Z" fill="black"/>
<path d="M594.016 261.74C596.725 261.74 598.92 259.544 598.92 256.836C598.92 254.127 596.725 251.932 594.016 251.932C591.308 251.932 589.112 254.127 589.112 256.836C589.112 259.544 591.308 261.74 594.016 261.74Z" fill="black"/>
</svg>
