<svg width="1000" height="1000" viewBox="0 0 1000 1000" fill="none" xmlns="http://www.w3.org/2000/svg">
<rect width="1000" height="1000" fill="white"/>
<path d="M277.421 841.509H99.5156V837.667H273.579V766.966H457.889V697.545H650.524V622.233H866.727V626.075H654.367V701.388H461.731V770.808H277.421V841.509Z" fill="black"/>
<path d="M899.515 320.728H609.922V428.445H899.515V320.728Z" fill="black"/>
<path d="M771.562 284.225H740.438V623.514H771.562V284.225Z" fill="black"/>
<path d="M766.182 579.71C762.98 579.71 760.418 582.272 760.418 585.474C760.418 588.676 762.98 591.238 766.182 591.238C769.384 591.238 771.945 588.676 771.945 585.474C771.945 582.272 769.384 579.71 766.182 579.71Z" fill="white"/>
<path d="M755.295 309.713C758.497 309.713 761.059 307.151 761.059 303.949C761.059 300.747 758.497 298.186 755.295 298.186C752.093 298.186 749.531 300.747 749.531 303.949C749.531 307.151 752.221 309.713 755.295 309.713Z" fill="white"/>
<path d="M754.398 609.937C754.398 606.992 751.965 604.558 749.019 604.558C746.073 604.558 743.639 606.992 743.639 609.937C743.639 612.883 746.073 615.317 749.019 615.317C751.965 615.317 754.398 612.883 754.398 609.937Z" fill="white"/>
<path d="M740.438 554.221L771.562 556.015V551.66L740.438 549.739V554.221Z" fill="white"/>
<path d="M740.438 325.851L751.837 327.388L752.99 318.679L740.438 316.886V325.851Z" fill="white"/>
<path d="M749.659 284.225L771.561 302.156V296.521L756.575 284.225H749.659Z" fill="white"/>
<path d="M740.438 493.767L771.562 503.886V499.403L740.438 489.284V493.767Z" fill="white"/>
<path d="M771.562 537.955L756.704 535.906L755.551 544.615L771.562 546.921V537.955Z" fill="white"/>
<path d="M740.438 525.019L746.458 530.014L749.275 526.684L740.438 519.383V525.019Z" fill="white"/>
<path d="M771.562 448.17L740.438 466.229V474.555L771.562 456.495V448.17Z" fill="white"/>
<path d="M771.562 438.179L754.142 434.977L752.733 442.022L771.562 445.48V438.179Z" fill="white"/>
<path d="M652.445 388.74C654.623 390.149 657.825 391.174 661.283 391.174C666.278 391.174 669.224 388.484 669.224 384.641C669.224 381.055 667.175 379.134 662.052 377.085C655.904 374.907 652.061 371.705 652.061 366.326C652.061 360.434 656.928 356.079 664.357 356.079C668.199 356.079 671.017 356.976 672.682 357.872L671.273 361.843C669.992 361.202 667.559 360.05 664.1 360.05C658.977 360.05 656.928 363.124 656.928 365.685C656.928 369.272 659.234 370.937 664.485 372.986C670.889 375.419 674.219 378.493 674.219 384.129C674.219 390.021 669.864 395.016 660.898 395.016C657.184 395.016 653.214 393.991 651.165 392.582L652.445 388.74Z" fill="white"/>
<path d="M660.898 396.553C657.056 396.553 652.829 395.528 650.524 393.863L649.755 393.351L651.805 386.691L653.213 387.587C655.519 388.996 658.593 389.893 661.283 389.893C665.509 389.893 667.943 387.971 667.943 384.641C667.943 382.208 666.918 380.286 661.667 378.237C654.366 375.675 650.78 371.705 650.78 366.326C650.78 359.537 656.287 354.798 664.357 354.798C669.096 354.798 672.042 356.079 673.322 356.847L674.219 357.36L672.042 363.764L670.761 362.995C669.352 362.227 667.174 361.33 664.228 361.33C659.874 361.33 658.336 363.764 658.336 365.685C658.336 368.375 659.874 369.784 664.997 371.833C672.298 374.651 675.5 378.365 675.5 384.129C675.372 390.533 670.889 396.553 660.898 396.553ZM652.701 392.326C654.75 393.351 658.08 394.119 660.898 394.119C669.736 394.119 672.938 389.124 672.938 384.513C672.938 379.774 670.504 377.084 664.1 374.523C658.849 372.473 655.775 370.424 655.775 366.069C655.775 362.739 658.465 359.153 664.228 359.153C666.918 359.153 669.095 359.793 670.632 360.434L671.145 358.897C669.736 358.256 667.559 357.616 664.357 357.616C657.952 357.616 653.341 361.33 653.341 366.582C653.341 370.936 656.159 373.882 662.564 376.06C667.431 377.853 670.504 380.158 670.504 384.769C670.504 389.508 666.918 392.582 661.283 392.582C658.593 392.582 655.775 391.942 653.341 390.661L652.701 392.326Z" fill="white"/>
<path d="M687.924 356.848V394.76H683.057V356.848H687.924Z" fill="white"/>
<path d="M689.204 396.041H681.776V355.567H689.204V396.041ZM684.338 393.479H686.643V358.129H684.338V393.479Z" fill="white"/>
<path d="M727.629 393.094C725.452 393.863 721.097 395.144 715.973 395.144C710.21 395.144 705.471 393.735 701.757 390.149C698.555 386.947 696.505 381.951 696.505 376.06C696.505 364.788 704.318 356.463 716.998 356.463C721.353 356.463 724.811 357.36 726.476 358.256L725.324 362.227C723.274 361.33 720.713 360.562 716.998 360.562C707.777 360.562 701.757 366.325 701.757 375.803C701.757 385.41 707.52 391.045 716.358 391.045C719.56 391.045 721.738 390.533 722.89 390.02V378.749H715.205V374.779H727.629V393.094Z" fill="white"/>
<path d="M715.974 396.425C709.569 396.425 704.703 394.632 700.86 391.045C697.274 387.587 695.225 382.08 695.225 376.06C695.225 363.636 704.062 355.182 716.999 355.182C721.481 355.182 725.067 356.207 726.989 357.104L728.014 357.616L726.092 364.02L724.812 363.38C723.275 362.611 720.841 361.843 716.999 361.843C708.417 361.843 703.038 367.222 703.038 375.803C703.038 384.641 708.033 389.764 716.358 389.764C719.048 389.764 720.713 389.38 721.61 389.124V380.03H713.925V373.498H729.038V393.863L728.141 394.119C725.323 395.272 720.969 396.425 715.974 396.425ZM716.999 357.744C705.343 357.744 697.786 364.917 697.786 376.06C697.786 381.439 699.579 386.306 702.653 389.252C705.983 392.326 710.338 393.863 715.974 393.863C720.328 393.863 724.043 392.838 726.348 392.198V376.188H716.358V377.597H724.043V390.917L723.274 391.301C721.737 392.07 719.304 392.454 716.23 392.454C706.624 392.454 700.348 385.922 700.348 375.932C700.348 365.941 706.88 359.409 716.87 359.409C720.329 359.409 722.762 360.049 724.427 360.562L724.939 359.025C723.146 358.256 720.457 357.744 716.999 357.744Z" fill="white"/>
<path d="M737.363 394.76V356.848H742.743L754.911 376.06C757.729 380.543 759.906 384.513 761.699 388.356H761.827C761.315 383.233 761.315 378.622 761.315 372.73V356.848H765.925V394.76H760.93L748.891 375.548C746.201 371.321 743.767 366.966 741.846 362.868H741.718C741.974 367.607 742.103 372.218 742.103 378.494V394.632H737.363V394.76Z" fill="white"/>
<path d="M767.079 396.041H760.162L747.738 376.188C745.945 373.242 744.408 370.68 743.127 368.375C743.255 371.449 743.255 374.651 743.255 378.622V396.041H736.083V355.567H743.383L755.935 375.291C757.472 377.725 758.881 380.03 760.162 382.336C760.034 379.262 760.034 376.06 760.034 372.602V355.439H767.206V396.041H767.079ZM761.571 393.479H764.517V358.128H762.468V372.73C762.468 378.237 762.595 382.976 762.98 388.228L763.108 389.124L761.187 390.149L760.546 388.996C758.753 385.154 756.575 381.183 753.758 376.828L741.974 358.257H738.644V393.607H740.694V378.75C740.694 372.474 740.565 367.863 740.309 363.124V362.099L742.487 361.33L742.999 362.355C744.664 365.941 746.841 369.912 750.043 374.907L761.571 393.479Z" fill="white"/>
<path d="M787.956 377.725V381.439H774.123V377.725H787.956Z" fill="white"/>
<path d="M789.237 382.592H772.842V376.316H789.237V382.592ZM775.276 380.03H786.547V378.877H775.276V380.03Z" fill="white"/>
<path d="M801.02 356.848V379.262C801.02 387.716 804.735 391.302 809.858 391.302C815.493 391.302 819.079 387.587 819.079 379.262V356.848H824.075V379.006C824.075 390.661 817.927 395.4 809.73 395.4C801.917 395.4 796.153 390.918 796.153 379.262V356.976H801.02V356.848Z" fill="white"/>
<path d="M809.73 396.681C804.222 396.681 794.872 394.376 794.872 379.262V355.695H802.429V379.39C802.429 386.307 805.119 390.149 809.986 390.149C815.237 390.149 817.927 386.563 817.927 379.39V355.695H825.484V379.134C825.355 390.149 819.592 396.681 809.73 396.681ZM797.306 358.129V379.134C797.306 388.996 801.404 393.992 809.601 393.992C815.621 393.992 822.666 391.302 822.666 378.878V358.001H820.233V379.134C820.233 390.79 813.7 392.455 809.73 392.455C806.656 392.455 799.611 391.174 799.611 379.134V358.001H797.306V358.129Z" fill="white"/>
<path d="M834.834 357.36C837.139 356.976 840.341 356.591 844.184 356.591C849.051 356.591 852.509 357.744 854.815 359.794C856.864 361.587 858.145 364.404 858.145 367.735C858.145 371.193 857.12 373.883 855.199 375.804C852.637 378.622 848.411 379.902 843.672 379.902C842.263 379.902 840.854 379.902 839.701 379.518V394.76H834.834V357.36ZM839.701 375.548C840.726 375.804 842.135 375.932 843.8 375.932C849.691 375.932 853.278 373.114 853.278 367.863C853.278 362.867 849.691 360.434 844.312 360.434C842.135 360.434 840.597 360.562 839.701 360.818V375.548Z" fill="white"/>
<path d="M840.981 396.041H833.553V356.207L834.577 356.079C837.651 355.567 840.725 355.31 844.183 355.31C849.178 355.31 853.149 356.463 855.711 358.769C858.144 360.818 859.425 364.02 859.425 367.606C859.425 371.321 858.273 374.395 856.095 376.572C853.406 379.518 848.922 381.183 843.543 381.183C842.646 381.183 841.75 381.183 840.853 381.055V396.041H840.981ZM836.114 393.479H838.42V377.981L839.957 378.365C840.981 378.621 842.39 378.621 843.543 378.621C848.154 378.621 851.869 377.341 854.174 374.907C855.839 373.114 856.736 370.68 856.736 367.734C856.736 364.789 855.711 362.355 853.918 360.818C851.868 358.897 848.538 358 844.183 358C841.237 358 838.676 358.128 836.114 358.513V393.479ZM843.671 377.213C841.878 377.213 840.469 377.084 839.316 376.828L838.42 376.572V359.921L839.316 359.665C840.341 359.409 842.134 359.281 844.311 359.281C850.716 359.281 854.558 362.483 854.558 367.991C854.558 373.754 850.459 377.213 843.671 377.213ZM840.981 374.523C841.75 374.651 842.647 374.651 843.799 374.651C846.873 374.651 851.996 373.754 851.996 367.863C851.996 362.739 847.77 361.715 844.311 361.715C842.903 361.715 841.75 361.843 840.981 361.843V374.523Z" fill="white"/>
<path d="M223.37 448.042C223.37 448.042 199.291 579.069 316.998 553.837C434.834 528.477 246.297 431.647 223.37 448.042Z" fill="black"/>
<path d="M231.056 463.54C317.383 460.978 294.584 416.149 301.245 442.15C315.206 496.457 247.066 539.108 195.321 540.645C143.576 542.182 231.056 463.54 231.056 463.54Z" fill="black"/>
<path d="M276.012 377.341L268.712 437.283C268.712 437.283 225.804 435.362 193.399 439.845C199.291 425.499 207.488 404.494 213.124 385.41C245.657 379.646 276.012 377.341 276.012 377.341Z" fill="black"/>
<path d="M369.512 406.031C369.512 406.031 407.168 541.413 441.238 592.262C476.717 645.16 608.513 698.314 610.434 645.672C612.355 593.03 545.753 586.754 515.526 524.891C483.377 459.056 468.648 390.405 468.648 390.405L369.512 406.031Z" fill="#F7C748"/>
<path d="M409.73 527.196C419.72 552.685 430.607 576.508 441.11 592.262C445.337 598.538 450.844 604.814 457.376 610.834C457.376 610.834 459.81 466.614 479.791 432.8C479.663 432.288 479.407 431.647 479.279 431.135C469.288 443.431 434.578 492.102 409.73 527.196Z" fill="black"/>
<path d="M593.783 633.888C588.02 633.888 583.153 632.351 579.182 629.149C567.655 619.927 568.936 600.587 569.064 599.69L572.906 599.946C572.906 600.075 571.625 618.134 581.616 626.075C587.251 630.558 595.449 631.07 606.079 627.868L607.232 631.583C602.237 633.12 597.882 633.888 593.783 633.888Z" fill="black"/>
<path d="M234.13 523.098C217.735 548.458 175.724 545.128 160.611 521.817C140.63 490.949 180.463 335.586 313.541 264.884L309.954 158.961C388.34 156.911 468.007 156.271 521.93 213.652C521.93 213.652 526.669 377.596 451.357 479.422C411.779 532.832 378.606 644.647 379.503 699.723C380.656 776.316 300.604 790.148 301.245 677.052C301.885 581.247 298.043 424.09 234.13 523.098Z" fill="#F7C748"/>
<path d="M356.96 742.502C356.832 742.118 342.615 703.949 372.202 692.294L373.611 695.88C347.61 706.127 360.034 739.812 360.547 741.221L356.96 742.502Z" fill="black"/>
<path d="M201.972 419.471L199.519 422.428L229.189 447.044L231.642 444.087L201.972 419.471Z" fill="white"/>
<path d="M216.317 417.36L213.873 420.326L237.101 439.469L239.544 436.503L216.317 417.36Z" fill="white"/>
<path d="M256.288 502.22L253.598 499.531C253.982 499.146 295.481 458.416 304.447 423.45L308.161 424.347C298.939 460.466 258.081 500.555 256.288 502.22Z" fill="black"/>
<path d="M370.731 572.869L369.68 575.205L393.623 585.981L394.675 583.645L370.731 572.869Z" fill="white"/>
<path d="M432.127 707.631L444.931 702.747L443.699 699.515L430.894 704.4L432.127 707.631Z" fill="black"/>
<path d="M287.899 742.178L274.234 741.127L273.969 744.575L287.634 745.627L287.899 742.178Z" fill="black"/>
<path d="M498.401 668.12L476.683 662.079L475.138 667.631L496.856 673.673L498.401 668.12Z" fill="black"/>
<path d="M207.238 781.386L198.258 796.313L202.1 798.624L211.079 783.697L207.238 781.386Z" fill="black"/>
<path d="M210.435 724.699C212.062 724.699 213.38 723.38 213.38 721.753C213.38 720.126 212.062 718.807 210.435 718.807C208.808 718.807 207.489 720.126 207.489 721.753C207.489 723.38 208.808 724.699 210.435 724.699Z" fill="black"/>
</svg>
