<svg width="1000" height="1000" viewBox="0 0 1000 1000" fill="none" xmlns="http://www.w3.org/2000/svg">
<rect width="1000" height="1000" fill="white"/>
<path d="M899.715 630.529C899.715 630.529 685.787 402.856 501.981 450.379C436.619 467.195 477.708 524.662 450.949 531.827C399.916 545.28 387.779 567.36 387.779 567.36C387.779 567.36 344.204 640.473 406.788 673.227C406.788 673.227 383.831 714.609 469.519 751.604C555.061 788.599 567.198 758.331 567.198 758.331C567.198 758.331 635.924 794.741 690.32 753.798L775.423 815.066C775.277 814.773 866.375 765.934 899.715 630.529Z" fill="#6857A7"/>
<path d="M535.028 728.208C499.641 728.208 469.519 717.095 448.901 706.421C420.972 692.091 404.303 676.006 403.718 675.421L406.788 672.35C407.519 672.935 473.906 736.543 561.788 721.775L562.519 726.161C553.16 727.624 543.948 728.208 535.028 728.208Z" fill="white"/>
<path d="M638.995 534.459C638.995 534.459 527.132 522.908 485.458 538.992C443.784 555.077 399.623 575.11 419.51 632.284C438.958 688.435 549.651 662.992 549.651 662.992C549.651 662.992 601.268 685.218 562.08 723.822C562.08 723.822 580.505 734.642 568.368 757.453L607.263 771.198C607.263 771.198 618.523 775.878 630.952 721.482L646.306 719.142C646.452 718.996 545.995 658.166 638.995 534.459Z" fill="black"/>
<path d="M675.405 528.61C675.405 528.61 447.731 563.266 429.892 596.459C412.052 629.652 440.274 655.68 470.396 660.506C500.519 665.185 678.329 634.185 678.329 634.185" fill="#6857A7"/>
<path d="M444.515 637.403L444.222 633.016C468.203 631.407 483.118 625.266 488.529 614.738C494.67 603.04 486.628 589.587 486.628 589.441L490.429 587.101C490.868 587.686 499.788 602.747 492.477 616.639C486.189 628.775 470.104 635.648 444.515 637.403Z" fill="white"/>
<path d="M560.241 569.03L555.88 569.511L558.383 592.186L562.743 591.704L560.241 569.03Z" fill="white"/>
<path d="M672.188 730.402C609.457 716.803 606.532 646.469 606.532 645.737L610.919 645.591C610.919 646.322 613.697 713.148 673.211 726.162L672.188 730.402Z" fill="white"/>
<path d="M647.768 461.346C533.566 421.281 440.713 430.785 338.794 439.266C236.874 447.747 210.554 461.346 219.327 506.676C229.856 561.365 485.458 538.846 485.458 538.846L533.859 506.091L647.768 461.346Z" fill="#6857A7"/>
<path d="M438.227 545.865C424.92 545.865 415.415 544.987 414.538 544.987L414.977 540.6C415.562 540.6 471.42 545.426 505.052 531.388L506.807 535.482C485.896 544.11 457.967 545.865 438.227 545.865Z" fill="black"/>
<path d="M502.42 357.38C502.42 357.38 430.769 332.083 409.567 294.064C388.51 256.046 375.789 205.452 316.714 201.211C257.638 196.971 245.063 272.862 245.063 294.064C245.063 315.267 240.822 386.918 308.378 420.55C375.788 454.328 451.826 424.79 502.42 357.38Z" fill="white"/>
<path d="M312.034 203.99C313.496 203.99 314.959 203.99 316.567 204.136C363.652 207.499 380.322 241.57 396.406 274.617C399.77 281.636 403.279 288.8 407.081 295.527C425.944 329.451 482.387 352.847 497.741 358.696C461.769 405.196 414.246 431.663 366.869 431.663C347.128 431.663 327.827 426.984 309.695 417.918C247.256 386.625 247.841 321.994 247.988 297.574C247.988 296.258 247.988 295.088 247.988 294.065C247.988 284.852 250.619 262.041 260.563 241.131C272.407 216.419 289.662 203.99 312.034 203.99ZM312.034 201.065C256.907 201.065 245.063 273.447 245.063 294.065C245.063 315.121 240.822 386.918 308.378 420.55C327.388 430.054 347.274 434.587 366.869 434.587C416.732 434.587 466.156 405.781 502.42 357.234C502.42 357.234 430.769 331.937 409.567 293.918C388.51 255.9 375.789 205.306 316.714 201.065C315.251 201.065 313.643 201.065 312.034 201.065Z" fill="black"/>
<path d="M492.623 275.347C492.623 275.347 360.142 250.196 376.081 320.823C389.68 381.215 489.113 338.809 492.623 275.347Z" fill="#201000"/>
<path d="M313.643 254.584C317.115 254.584 319.931 251.769 319.931 248.296C319.931 244.823 317.115 242.008 313.643 242.008C310.17 242.008 307.355 244.823 307.355 248.296C307.355 251.769 310.17 254.584 313.643 254.584Z" fill="black"/>
<path d="M338.501 472.46C338.208 471.729 330.312 453.304 336.746 441.021C339.378 435.903 344.057 432.686 350.491 431.37L351.369 435.611C346.105 436.635 342.595 439.12 340.694 442.922C335.284 453.304 342.595 470.413 342.595 470.559L338.501 472.46Z" fill="black"/>
<path d="M361.897 467.342C354.878 458.422 352.246 450.819 354.001 444.385C355.902 437.658 362.043 435.172 362.189 435.026L363.798 439.121L363.067 437.073L363.944 439.121C363.798 439.121 359.557 441.021 358.241 445.554C356.925 450.38 359.411 456.96 365.406 464.564L361.897 467.342Z" fill="black"/>
<path d="M272.846 270.961L258.077 298.012L283.374 296.55" fill="#201000"/>
<path d="M370.249 334.228L164.826 225.65L99.911 348.464L305.334 457.042L370.249 334.228Z" fill="white"/>
<path d="M166.394 231.626L363.944 336.031L303.115 451.11L105.564 346.705L166.394 231.626ZM164.639 225.777L99.7148 348.606L305.016 457.106L369.94 334.276L164.639 225.777Z" fill="black"/>
<path d="M170.082 339.874L167.689 359.909L172.045 360.43L174.438 340.394L170.082 339.874Z" fill="black"/>
<path d="M182.678 365.702L181.626 369.96L201.216 374.799L202.268 370.541L182.678 365.702Z" fill="black"/>
<path d="M145.308 272.787L140.997 273.594L144.708 293.428L149.019 292.621L145.308 272.787Z" fill="black"/>
<path d="M117.018 318.461L116.839 322.845L137.002 323.665L137.18 319.281L117.018 318.461Z" fill="black"/>
<path d="M193.446 315.267L179.115 316.73L153.38 299.475L151.333 302.4L173.559 317.168L158.205 318.777L158.497 320.824L176.191 319.069L190.667 328.72L192.714 325.796L181.748 318.484L193.738 317.315L193.446 315.267Z" fill="black"/>
<path d="M135.686 306.055C137.295 305.909 138.318 304.446 138.172 302.984C138.026 301.376 136.563 300.352 135.101 300.498C133.493 300.645 132.469 302.107 132.615 303.569C132.762 305.031 134.078 306.201 135.686 306.055Z" fill="black"/>
<path d="M148.262 354.016C148.116 352.262 146.507 351.092 144.899 351.238C143.291 351.384 141.974 352.993 142.12 354.601C142.267 356.356 143.875 357.526 145.484 357.38C147.092 357.233 148.408 355.625 148.262 354.016Z" fill="black"/>
<path d="M112.29 338.224C112.144 336.762 110.828 335.739 109.366 335.885C107.904 336.031 106.88 337.347 107.026 338.809C107.172 340.272 108.488 341.295 109.951 341.149C111.413 341.003 112.437 339.687 112.29 338.224Z" fill="black"/>
<path d="M164.346 339.102L164.639 335.592L138.319 333.399L148.7 325.941L146.653 323.017L132.908 332.96L117.554 331.644L117.262 335.153L128.375 336.177L106.295 351.969L109.805 353.87L133.932 336.616L164.346 339.102Z" fill="black"/>
<path d="M129.253 364.252L144.168 365.276L144.314 363.229L124.72 361.767L129.253 364.252Z" fill="black"/>
<path d="M170.78 383.262L185.257 386.333L185.695 384.286L171.804 381.361L173.851 377.413L168.441 374.489L165.516 379.899L154.549 377.559L161.422 381.215L164.493 381.8L164.054 382.677L169.611 385.602L170.78 383.262Z" fill="black"/>
<path d="M272.115 259.994L241.7 284.706L278.403 282.22" fill="#201000"/>
<path d="M349.03 331.937L221.229 329.597L160.691 234.258L164.347 231.918L223.568 325.357L349.03 327.55V331.937Z" fill="black"/>
<path d="M577.142 296.989L562.519 283.536L565.444 279.15L580.066 292.602L577.142 296.989Z" fill="black"/>
<path d="M463.085 191.707L442.029 203.843L439.397 197.409L460.6 185.419L463.085 191.707Z" fill="black"/>
<path d="M550.674 199.457C552.855 199.457 554.622 197.296 554.622 194.631C554.622 191.966 552.855 189.806 550.674 189.806C548.494 189.806 546.726 191.966 546.726 194.631C546.726 197.296 548.494 199.457 550.674 199.457Z" fill="black"/>
</svg>
