<svg width="1000" height="1000" viewBox="0 0 1000 1000" fill="none" xmlns="http://www.w3.org/2000/svg">
<rect width="1000" height="1000" fill="white"/>
<path d="M592.436 602.441C505.579 554.449 455.084 526.184 434.621 549.297C391.781 597.436 536.2 671.191 588.314 700.045C640.428 728.899 592.436 602.441 592.436 602.441Z" fill="black"/>
<path d="M592.436 602.441C546.063 576.826 509.995 556.804 483.349 547.235C504.99 594.492 463.181 646.312 495.568 664.566C565.054 703.578 592.436 602.441 592.436 602.441Z" fill="black"/>
<path d="M587.431 720.066C587.431 720.066 518.681 753.337 482.172 755.987C445.662 758.784 429.321 800.888 473.191 808.543C516.914 816.051 622.174 780.13 622.174 780.13L587.431 720.066Z" fill="black"/>
<path d="M622.173 780.13L587.431 720.066C587.431 720.066 542.971 741.56 506.609 751.276C519.27 763.789 537.377 782.191 552.099 800.005C589.05 791.466 622.173 780.13 622.173 780.13Z" fill="black"/>
<path d="M452.581 626.585C389.867 611.274 357.774 627.173 365.282 658.236C376.324 704.167 497.629 732.727 532.814 743.179C577.715 806.335 603.035 877.881 768.8 849.763L865.374 873.023C893.933 816.934 905.416 754.368 897.614 684.587C897.614 684.587 732.585 652.789 672.374 605.974C612.163 559.16 544.591 476.13 516.62 419.452C495.568 376.465 422.991 407.675 464.359 494.238C511.762 593.314 670.313 679.877 452.581 626.585Z" fill="#F7C748"/>
<path d="M415.041 668.394C398.995 668.394 380.887 658.677 373.379 652.789L376.176 649.256C386.334 657.205 411.361 668.982 426.377 661.622C434.915 657.352 439.185 647.342 438.89 631.737L443.307 631.59C443.601 649.108 438.596 660.444 428.291 665.597C424.316 667.658 419.752 668.394 415.041 668.394Z" fill="black"/>
<path d="M742.007 854.621V850.205C784.994 849.763 805.457 823.853 805.751 823.559L809.285 826.209C808.254 827.386 787.055 854.18 742.007 854.621Z" fill="black"/>
<path d="M525.6 457.139C490.121 457.139 487.913 411.355 487.913 410.914L492.329 410.766C492.329 412.533 494.538 453.753 526.631 452.723L526.778 457.139C526.336 457.139 525.895 457.139 525.6 457.139Z" fill="black"/>
<path d="M548.681 664.054L546.859 690.639L551.265 690.941L553.087 664.356L548.681 664.054Z" fill="white"/>
<path d="M561.006 662.292L559.468 683.14L563.872 683.465L565.41 662.617L561.006 662.292Z" fill="white"/>
<path d="M643.667 652.494C605.833 635.27 539.438 643.073 538.85 643.22L538.261 638.803C541.058 638.509 606.421 630.707 645.434 648.52L643.667 652.494Z" fill="black"/>
<path d="M272.661 126.206L270.823 130.221L279.257 134.082L281.095 130.066L272.661 126.206Z" fill="white"/>
<path d="M272.091 126.158L270.253 130.174L278.686 134.034L280.524 130.018L272.091 126.158Z" fill="white"/>
<path d="M271.387 126.049L269.549 130.065L277.982 133.925L279.82 129.909L271.387 126.049Z" fill="white"/>
<path d="M270.816 126L268.978 130.016L277.411 133.876L279.249 129.86L270.816 126Z" fill="white"/>
<path fill-rule="evenodd" clip-rule="evenodd" d="M361.013 266.643L352.033 362.775L285.05 314.783L325.829 280.04L361.013 266.643Z" fill="black"/>
<path fill-rule="evenodd" clip-rule="evenodd" d="M104.122 143.866L223.808 377.938L358.805 268.705L477.902 229.545L104.122 143.866Z" fill="white"/>
<path d="M223.072 381.471L221.894 379.116L100 140.626L486.294 229.25L359.983 270.765L223.072 381.471ZM108.244 147.104L224.544 374.552L357.774 266.643L469.805 229.839L108.244 147.104Z" fill="black"/>
<path d="M200.751 247.876L200.468 252.431L288.336 257.893L288.619 253.338L200.751 247.876Z" fill="black"/>
<path d="M175.695 236.69L169.732 237.624L175.361 273.547L181.324 272.612L175.695 236.69Z" fill="black"/>
<path d="M227.412 303.049L222.038 339.011L228.007 339.903L233.381 303.941L227.412 303.049Z" fill="black"/>
<path d="M215.948 212.149L152.643 228.425L153.083 230.136L216.388 213.86L215.948 212.149Z" fill="black"/>
<path d="M260.023 292.111C262.706 292.111 264.881 289.936 264.881 287.253C264.881 284.57 262.706 282.395 260.023 282.395C257.34 282.395 255.165 284.57 255.165 287.253C255.165 289.936 257.34 292.111 260.023 292.111Z" fill="black"/>
<path fill-rule="evenodd" clip-rule="evenodd" d="M215.417 361.744L252.81 334.804L255.46 338.484L217.478 365.866L215.417 361.744Z" fill="black"/>
<path fill-rule="evenodd" clip-rule="evenodd" d="M178.613 289.756L187.888 295.792L236.91 260.313L238.088 261.785L189.507 296.969L211.442 311.396L208.94 315.224L185.532 299.766L184.207 300.65L183.324 299.03L183.913 298.589L182.882 298L178.613 289.756Z" fill="black"/>
<path fill-rule="evenodd" clip-rule="evenodd" d="M137.393 166.389L136.068 157.556L141.956 156.526L142.987 162.414L152.998 155.054L155.5 155.642L143.281 164.475L147.698 192.446L141.662 193.477L137.687 168.45L122.377 179.639L121.494 177.872L137.393 166.389Z" fill="black"/>
<path fill-rule="evenodd" clip-rule="evenodd" d="M358.805 268.704L177.877 190.533L334.662 301.533L358.805 268.704Z" fill="black"/>
<path d="M505.873 340.398C473.191 290.933 405.178 255.601 404.442 255.307L406.503 251.332C407.239 251.627 476.283 287.547 509.554 337.895L505.873 340.398Z" fill="black"/>
<path d="M437.86 316.696C421.961 296.233 369.257 267.379 368.668 267.084L370.73 263.257C372.938 264.434 424.758 292.847 441.246 314.046L437.86 316.696Z" fill="black"/>
<path d="M537.525 553.124C501.457 463.323 444.779 399.137 403.559 361.303C358.952 320.082 322.296 299.914 321.854 299.767L323.915 295.939C324.357 296.086 361.308 316.549 406.356 358.064C447.87 396.34 505.137 460.968 541.499 551.652L537.525 553.124Z" fill="black"/>
<path d="M576.684 407.086L613.782 420.924L600.091 427.696L558.871 407.086H576.684Z" fill="black"/>
<path d="M794.71 386.476L822.24 383.679V389.273L794.71 391.923V386.476Z" fill="black"/>
<path d="M704.614 475.836C708.029 475.836 710.797 473.068 710.797 469.653C710.797 466.238 708.029 463.47 704.614 463.47C701.199 463.47 698.431 466.238 698.431 469.653C698.431 473.068 701.199 475.836 704.614 475.836Z" fill="black"/>
</svg>
