<svg width="1000" height="1000" viewBox="0 0 1000 1000" fill="none" xmlns="http://www.w3.org/2000/svg">
<rect width="1000" height="1000" fill="white"/>
<path d="M498.3 197.164C498.3 197.164 620.908 229.112 693.437 211.123C765.966 193.135 788.56 233.717 768.845 259.764C749.129 285.667 691.998 309.7 632.133 307.685C572.268 305.67 498.3 197.164 498.3 197.164Z" fill="#F5BAAE"/>
<path d="M556.438 246.812L616.879 304.951C622.06 306.534 627.096 307.397 632.133 307.541C661.058 308.548 689.264 303.368 713.009 295.021C654.439 293.438 556.438 246.812 556.438 246.812Z" fill="black"/>
<path d="M462.755 102.905C462.755 102.905 356.696 74.1239 226.604 197.74L268.625 307.109C268.625 307.109 195.232 397.914 238.836 463.823C282.44 529.733 371.086 624.279 410.373 575.495C449.803 526.711 346.334 440.798 346.334 440.798L386.916 379.206C386.916 379.206 421.022 412.017 479.736 389.424L590.112 429.718C590.112 429.718 585.651 569.307 633.284 581.683C680.918 594.059 673.578 550.887 676.169 510.017C678.903 469.148 678.903 469.148 678.903 469.148C678.903 469.148 710.275 423.386 697.179 373.306C697.179 373.306 653.575 273.291 522.476 202.201L462.755 102.905Z" fill="#F5BAAE"/>
<path d="M651.704 556.787C647.531 514.334 595.581 508.866 595.581 508.866L595.869 512.176C601.337 544.843 612.274 576.07 633.572 581.683C642.207 583.841 648.97 584.273 654.295 583.266C653.575 577.078 652.712 568.587 651.704 556.787Z" fill="black"/>
<path d="M679.335 468.428L675.017 468.284C676.456 408.995 659.188 364.24 626.665 342.078C589.825 317.038 537.299 291.423 536.867 291.135L538.738 287.25C539.313 287.537 592.127 313.297 629.111 338.48C662.929 361.505 680.774 407.7 679.335 468.428Z" fill="black"/>
<path d="M509.898 250.466L506.251 252.776L521.883 277.455L525.53 275.145L509.898 250.466Z" fill="black"/>
<path d="M257.43 428.333L236.072 436.543L237.621 440.573L258.979 432.363L257.43 428.333Z" fill="white"/>
<path d="M266.744 445.139L247.535 452.522L249.084 456.552L268.293 449.168L266.744 445.139Z" fill="white"/>
<path d="M659.188 307.973C633.716 276.889 571.98 239.473 571.261 239.041L573.419 235.3C576.01 236.883 636.594 273.579 662.498 305.238L659.188 307.973Z" fill="black"/>
<path d="M547.12 209.127L543.287 211.113L554.21 232.196L558.043 230.21L547.12 209.127Z" fill="black"/>
<path d="M638.42 362.422L625.139 377.573L628.386 380.419L641.667 365.268L638.42 362.422Z" fill="white"/>
<path d="M502.072 814.026L524.299 826.169L527.404 820.485L505.176 808.343L502.072 814.026Z" fill="black"/>
<path d="M553.399 841.276L567.785 835.788L566.401 832.158L552.014 837.646L553.399 841.276Z" fill="black"/>
<path d="M589.548 771.484L586.872 756.32L583.046 756.996L585.722 772.16L589.548 771.484Z" fill="black"/>
<path d="M553.785 774.656L544.992 750.903L538.919 753.152L547.712 776.904L553.785 774.656Z" fill="black"/>
<path d="M532.085 896.352L517.629 891.046L516.29 894.694L530.746 900L532.085 896.352Z" fill="black"/>
<path d="M606.647 869.782L598.709 882.977L602.039 884.98L609.976 871.785L606.647 869.782Z" fill="black"/>
<path d="M566.656 803.731C568.484 803.731 569.965 802.25 569.965 800.422C569.965 798.594 568.484 797.112 566.656 797.112C564.828 797.112 563.346 798.594 563.346 800.422C563.346 802.25 564.828 803.731 566.656 803.731Z" fill="black"/>
<path d="M388.931 525.703V665.293L401.307 672.632L511.539 738.685L511.683 738.541L511.108 596.793L388.931 525.703Z" fill="black"/>
<path d="M633.716 527.286L508.805 456.197L388.931 527.143L388.787 527.286L510.964 598.233L511.539 740.125L633.716 666.876V527.286Z" fill="white"/>
<path d="M440.593 557.219L612.706 515.63L509.237 456.772L389.506 527.718L440.593 557.219Z" fill="black"/>
<path d="M389.075 667.164L313.955 678.964L419.007 751.781L511.539 740.556L389.075 667.164Z" fill="black"/>
<path d="M513.777 520.922L509.895 538.486L512.845 539.138L516.727 521.574L513.777 520.922Z" fill="white"/>
<path d="M513.41 539.95L509.093 538.943L513.266 519.947L517.583 520.954L513.41 539.95ZM510.82 537.935L512.403 538.223L516 521.962L514.417 521.674L510.82 537.935Z" fill="white"/>
<path d="M460.452 609.457H421.31V612.192H460.452V609.457Z" fill="white"/>
<path d="M435.078 645.651L433.342 647.763L463.58 672.619L465.316 670.507L435.078 645.651Z" fill="white"/>
<path d="M498.3 610.897L485.636 608.594L485.204 611.329L494.558 613.055L464.482 630.468L443.903 613.631L442.896 614.926L462.899 631.332L453.257 636.944L454.552 639.39L465.201 633.202L482.47 647.449L483.477 646.154L466.64 632.339L498.875 613.775L498.732 613.487L501.322 611.904L501.466 612.192L511.827 606.292L510.388 603.989L498.3 610.897Z" fill="white"/>
<path d="M453.248 654.222L453.155 655.803L504.299 658.82L504.392 657.239L453.248 654.222Z" fill="white"/>
<path d="M508.674 651.501L508.452 652.185L509.136 652.407L509.358 651.722L508.674 651.501Z" fill="white"/>
<path d="M456.855 550.024L457.43 550.6L457.862 549.88L457.286 549.449L456.855 550.024Z" fill="white"/>
<path d="M487.075 588.16L487.219 587.296L484.773 586.865L484.485 587.584L487.075 588.16Z" fill="white"/>
<path d="M470.894 605.27L467.323 621.429L470.695 622.174L474.267 606.015L470.894 605.27Z" fill="white"/>
<path d="M447.369 632.671L443.928 632.969L445.356 649.457L448.797 649.159L447.369 632.671Z" fill="white"/>
<path d="M486.812 650.001L486.333 653.422L502.724 655.716L503.203 652.295L486.812 650.001Z" fill="white"/>
<path d="M486.338 597.933L485.858 601.354L502.247 603.652L502.726 600.232L486.338 597.933Z" fill="white"/>
<path d="M482.038 602.406L454.12 593.34L453.689 594.779L481.463 603.845L482.038 602.406Z" fill="white"/>
<path d="M476.426 631.332L504.2 640.398L504.776 638.959L477.002 629.892L476.426 631.332Z" fill="white"/>
<path d="M502.761 588.735V588.015C502.617 588.015 502.473 588.015 502.329 587.872L501.466 587.008C501.466 586.864 501.322 586.72 501.322 586.576H500.89H500.458C500.458 587.728 501.466 588.735 502.761 588.735Z" fill="white"/>
<path d="M490.529 668.028C489.234 668.028 488.226 669.035 488.226 670.33C488.226 671.625 489.234 672.633 490.529 672.633C491.824 672.633 492.831 671.625 492.831 670.33C492.831 669.035 491.824 668.028 490.529 668.028Z" fill="white"/>
<path d="M486.212 552.614C484.917 552.614 483.909 553.622 483.909 554.917C483.909 556.212 484.917 557.219 486.212 557.219C487.507 557.219 488.514 556.212 488.514 554.917C488.37 553.622 487.363 552.614 486.212 552.614Z" fill="white"/>
<path d="M435.7 625.288C435.7 623.849 434.549 622.841 433.254 622.841C431.959 622.841 430.808 623.992 430.808 625.288C430.808 626.727 431.959 627.734 433.254 627.734C434.549 627.734 435.7 626.727 435.7 625.288Z" fill="white"/>
<path d="M506.646 631.907C507.998 631.907 509.093 630.812 509.093 629.461C509.093 628.11 507.998 627.014 506.646 627.014C505.295 627.014 504.2 628.11 504.2 629.461C504.2 630.812 505.295 631.907 506.646 631.907Z" fill="white"/>
<path d="M449.228 674.215C447.789 674.215 446.781 675.367 446.781 676.662C446.781 678.101 447.932 679.108 449.228 679.108C450.523 679.108 451.674 677.957 451.674 676.662C451.818 675.367 450.667 674.215 449.228 674.215Z" fill="white"/>
<path d="M431.671 578.086C432.678 578.086 433.542 577.223 433.542 576.072C433.542 574.92 432.678 574.057 431.671 574.057C430.664 574.057 429.8 574.92 429.8 576.072C429.8 577.223 430.52 578.086 431.671 578.086Z" fill="white"/>
<path d="M476.426 613.487C476.426 614.638 477.433 615.646 478.585 615.646C479.736 615.646 480.743 614.638 480.743 613.487C480.743 612.336 479.736 611.329 478.585 611.329C477.433 611.329 476.426 612.336 476.426 613.487Z" fill="white"/>
<path d="M501.898 524.841H456.567V528.726H501.898V524.841Z" fill="white"/>
<path d="M560.612 521.819L558.597 518.509L544.638 526.568L530.103 523.977L529.384 527.719L539.457 529.59L506.215 548.873L482.758 529.59L481.175 531.46L504.632 550.888L505.207 550.312L505.639 550.456L505.927 550.744L506.071 550.6L507.942 551.32L508.373 552.039L545.357 530.597L573.995 535.921L574.714 532.18L550.394 527.719L560.612 521.819Z" fill="white"/>
<path d="M531.082 512.187L530.562 515.892L549.231 518.511L549.751 514.805L531.082 512.187Z" fill="white"/>
<path d="M494.302 506.455L493.547 508.782L525.852 519.262L526.607 516.935L494.302 506.455Z" fill="white"/>
<path d="M603.784 515.631H589.825L567.087 496.923L564.641 499.801L583.924 515.631H569.678V517.933H586.803L599.61 528.582L602.057 525.56L592.847 517.933H603.784V515.631Z" fill="white"/>
<path d="M549.819 501.959C551.401 501.959 552.697 500.664 552.697 499.081C552.697 497.498 551.401 496.203 549.819 496.203C548.236 496.203 546.94 497.498 546.94 499.081C546.94 500.664 548.236 501.959 549.819 501.959Z" fill="white"/>
<path d="M467.36 543.261C467.36 544.988 468.799 546.427 470.526 546.427C472.253 546.427 473.692 544.988 473.692 543.261C473.692 541.534 472.253 540.095 470.526 540.095C468.799 540.095 467.36 541.534 467.36 543.261Z" fill="white"/>
<path d="M468.655 489.727C469.95 489.727 471.101 488.576 471.101 487.137C471.101 485.698 469.95 484.547 468.655 484.547C467.36 484.547 466.209 485.698 466.209 487.137C466.209 488.576 467.36 489.727 468.655 489.727Z" fill="white"/>
<path d="M522.332 531.891C523.445 531.891 524.347 530.989 524.347 529.876C524.347 528.764 523.445 527.862 522.332 527.862C521.22 527.862 520.318 528.764 520.318 529.876C520.318 530.989 521.22 531.891 522.332 531.891Z" fill="white"/>
<path d="M522.332 532.611C520.893 532.611 519.598 531.459 519.598 529.876C519.598 528.437 520.749 527.142 522.332 527.142C523.915 527.142 525.067 528.294 525.067 529.876C524.923 531.459 523.771 532.611 522.332 532.611ZM522.332 528.725C521.613 528.725 521.037 529.301 521.037 530.02C521.037 530.74 521.613 531.316 522.332 531.316C523.052 531.316 523.627 530.74 523.627 530.02C523.627 529.301 522.908 528.725 522.332 528.725Z" fill="white"/>
<path d="M633.572 601.111L633.716 666.013L665.376 622.409L633.572 601.111Z" fill="black"/>
<path d="M632.53 663.709L511.46 736.328L513.681 740.031L634.751 667.412L632.53 663.709Z" fill="black"/>
<path d="M633.042 525.49L509.863 595.641L512 599.393L635.179 529.242L633.042 525.49Z" fill="black"/>
<path d="M390.618 662.961L388.356 666.638L510.676 741.909L512.939 738.232L390.618 662.961Z" fill="white"/>
<path d="M239.843 464.112C283.591 530.021 372.094 624.568 411.38 575.783C450.811 526.999 347.342 441.086 347.342 441.086" fill="#F5BAAE"/>
<path d="M397.277 567.724C397.133 567.436 382.743 534.482 360.437 529.733C350.939 527.718 341.154 531.172 331.512 539.95L328.634 536.784C339.427 526.999 350.508 523.113 361.445 525.56C385.765 530.884 400.587 564.702 401.307 566.141L397.277 567.724Z" fill="black"/>
</svg>
