<svg width="1000" height="1000" viewBox="0 0 1000 1000" fill="none" xmlns="http://www.w3.org/2000/svg">
<rect width="1000" height="1000" fill="white"/>
<path d="M233.7 215.756L215.687 169.301L165.914 167.563L212.369 149.392L214.107 99.6191L232.12 146.074L282.051 147.812L235.596 165.825L233.7 215.756Z" fill="black"/>
<path d="M764.136 478.209L764.294 428.278L718.472 408.527H768.403L788.154 362.862L787.996 412.635L833.818 432.544L783.887 432.386L764.136 478.209Z" fill="black"/>
<path d="M433.423 216.072L430.579 196.163L411.144 190.949L431.053 188.105L436.268 168.669L439.112 188.579L458.547 193.635L438.638 196.637L433.423 216.072Z" fill="black"/>
<path d="M223.745 554.211L220.901 534.302L201.466 529.088L221.375 526.086L226.589 506.651L229.434 526.56L248.869 531.774L228.96 534.776L223.745 554.211Z" fill="black"/>
<path d="M292.637 379.927L218.847 372.501V353.382L292.637 379.927Z" fill="black"/>
<path d="M311.756 353.382L255.663 304.557L276.362 273.587L311.756 353.382Z" fill="black"/>
<path d="M731.112 786.011L717.84 816.981H723.686L741.541 786.011H731.112Z" fill="black"/>
<path d="M723.686 899.619C726.915 899.619 729.532 897.002 729.532 893.773C729.532 890.544 726.915 887.927 723.686 887.927C720.457 887.927 717.84 890.544 717.84 893.773C717.84 897.002 720.457 899.619 723.686 899.619Z" fill="black"/>
<path d="M333.404 398.889C316.971 397.308 270.2 494.8 284.263 560.216C298.326 625.632 375.434 698.158 436.268 728.495V819.667C436.268 819.667 536.761 866.437 688.766 819.667C688.766 819.667 684.026 348.8 681.814 302.977C679.444 257.154 639.783 230.451 609.288 249.254C609.288 249.254 528.861 193.793 528.703 311.194C528.703 311.194 479.562 264.423 435.162 280.856C390.761 297.289 332.298 362.705 341.62 388.46C350.943 414.215 374.328 411.845 411.776 397.782C449.224 383.72 470.24 351.012 486.515 395.412C502.947 439.813 491.255 484.213 491.255 484.213C491.255 484.213 435.161 507.599 439.744 526.244C439.744 526.244 395.343 514.551 365.006 521.504C365.006 521.662 395.343 404.735 333.404 398.889Z" fill="#F5BAAE"/>
<path d="M371.168 443.921C368.008 421.01 357.895 401.259 333.404 398.889C332.456 398.731 331.508 399.047 330.401 399.521C335.774 410.423 350.469 435.705 371.168 443.921Z" fill="black"/>
<path d="M376.066 390.04L372.59 386.722C391.393 366.813 393.605 354.488 392.025 347.694C390.129 339.636 382.86 336.791 382.86 336.791L384.599 332.367C385.073 332.525 394.395 336.159 396.765 346.588C399.293 358.281 392.341 372.818 376.066 390.04Z" fill="black"/>
<path d="M315.075 471.889C306.542 471.889 300.696 467.781 300.38 467.623L303.066 463.831C303.382 464.147 311.598 469.677 322.027 466.043C334.51 461.776 345.254 446.133 353.155 420.536L357.737 421.958C349.205 449.452 337.67 465.727 323.449 470.467C320.605 471.415 317.761 471.889 315.075 471.889Z" fill="black"/>
<path d="M311.124 534.144H292.479V537.304H311.124V534.144Z" fill="white"/>
<path d="M311.124 557.53H292.479V560.69H311.124V557.53Z" fill="white"/>
<path d="M575.316 662.29C575.316 661.974 571.049 634.164 552.088 603.984C534.707 576.175 501.051 540.623 439.27 528.614L440.218 524.032C503.895 536.199 538.499 573.015 556.354 601.614C575.632 632.584 579.898 660.394 580.056 661.5L575.316 662.29Z" fill="black"/>
<path d="M503.108 481.906L502.52 486.61L577.31 495.956L577.898 491.252L503.108 481.906Z" fill="black"/>
<path d="M530.863 311.037L526.134 311.357L537.818 484.294L542.547 483.975L530.863 311.037Z" fill="black"/>
<path d="M610.552 250.518H605.811V493.694H610.552V250.518Z" fill="black"/>
<path d="M459.235 280.332L456.409 281.746L465.242 299.411L468.068 297.998L459.235 280.332Z" fill="white"/>
<path d="M436.268 819.351C466.289 799.758 488.569 775.424 494.889 741.769C469.923 740.978 450.014 734.816 436.11 728.654C436.11 728.654 436.268 728.654 436.268 728.812V819.351Z" fill="black"/>
</svg>
