<svg width="1000" height="1000" viewBox="0 0 1000 1000" fill="none" xmlns="http://www.w3.org/2000/svg">
<rect width="1000" height="1000" fill="white"/>
<path d="M345.573 344.716C317.053 351.846 313.837 386.098 333.41 408.048C352.982 429.997 406.388 490.812 450.286 476.132C494.185 461.453 445.953 382.184 430.854 371.419C413.798 359.396 374.792 337.446 345.573 344.716Z" fill="#F7C748"/>
<path d="M812.379 757.98V868.146C812.379 868.146 710.183 930.219 596.102 868.146L601.415 769.444L713.957 539.186L812.379 757.98Z" fill="black"/>
<path d="M703.192 898.482C671.457 898.482 633.849 891.912 594.704 870.662L593.166 869.823L598.619 768.744L598.898 768.185L714.097 532.615L815.315 757.42V869.683L813.917 870.522C812.799 871.221 787.494 886.459 747.65 894.148C734.928 896.665 719.969 898.482 703.192 898.482ZM599.038 866.607C656.637 897.364 710.882 895.686 746.392 888.836C780.225 882.265 803.991 869.823 809.723 866.607V758.678L713.957 545.896L604.351 770.282L599.038 866.607Z" fill="black"/>
<path d="M373.534 375.194L376.47 422.448L499.497 812.223L745.133 739.384L753.802 723.307L373.534 375.194Z" fill="black"/>
<path d="M621.774 297.006L374.052 374.201L506.563 799.44L754.285 722.246L621.774 297.006Z" fill="white"/>
<path d="M619.03 302.636L749.048 719.952L509.284 794.607L379.266 377.291L619.03 302.636ZM621.687 297.323L373.953 374.495L506.488 799.78L754.221 722.608L621.687 297.323Z" fill="black"/>
<path d="M445.533 355.483L468.321 374.496L542.837 351.289L553.322 321.93L445.533 355.483Z" fill="black"/>
<path d="M609.602 330.265C613.877 328.933 616.152 324.028 614.681 319.311C613.211 314.593 608.554 311.849 604.278 313.181C600.003 314.513 597.729 319.418 599.199 324.135C600.669 328.853 605.327 331.598 609.602 330.265Z" fill="black"/>
<path d="M608.497 420.629L475.026 462.221L499.149 539.634L632.62 498.043L608.497 420.629Z" fill="black"/>
<path d="M664.46 560.053L508.267 614.007L513.152 628.146L669.345 574.193L664.46 560.053Z" fill="black"/>
<path d="M682.635 599.199L526.442 653.152L531.326 667.292L687.519 613.338L682.635 599.199Z" fill="black"/>
<path d="M550.945 512.064C566.697 512.064 579.465 499.295 579.465 483.543C579.465 467.792 566.697 455.023 550.945 455.023C535.194 455.023 522.426 467.792 522.426 483.543C522.426 499.295 535.194 512.064 550.945 512.064Z" fill="white"/>
<path d="M550.946 455.023V459.217C560.592 459.217 569.26 464.949 573.174 473.617C578.627 485.92 573.175 500.32 560.872 505.772C557.656 507.17 554.441 507.869 550.946 507.869C541.299 507.869 532.631 502.137 528.717 493.469C526.061 487.458 525.921 480.887 528.157 474.875C530.394 468.864 535.008 463.97 541.019 461.314C544.235 459.916 547.45 459.217 550.946 459.217V455.023ZM550.946 455.023C547.031 455.023 543.116 455.862 539.342 457.539C524.942 463.97 518.511 480.887 524.942 495.287C529.695 505.912 540.181 512.203 551.086 512.203C555 512.203 558.914 511.364 562.689 509.686C577.089 503.255 583.52 486.339 577.089 471.939C572.336 461.314 561.85 455.023 550.946 455.023Z" fill="black"/>
<path d="M550.946 506.611C548.15 506.611 545.354 506.052 542.697 505.073C536.965 502.836 532.491 498.642 529.975 493.05C524.802 481.446 529.975 467.885 541.579 462.712C553.183 457.54 566.743 462.712 571.916 474.316C574.433 479.908 574.573 486.199 572.336 491.931C570.099 497.663 565.905 502.137 560.312 504.654C557.237 505.912 554.161 506.611 550.946 506.611ZM550.946 462.013C548.01 462.013 545.074 462.573 542.138 463.831C531.233 468.724 526.34 481.446 531.233 492.351C533.61 497.663 537.804 501.578 543.256 503.675C548.569 505.772 554.441 505.632 559.753 503.256C565.066 500.879 568.98 496.685 571.077 491.232C573.174 485.92 573.035 480.048 570.658 474.735C567.023 466.766 559.194 462.013 550.946 462.013Z" fill="black"/>
<path d="M577.334 336.463C579.914 335.659 581.298 332.737 580.425 329.936C579.553 327.135 576.753 325.516 574.173 326.32C571.593 327.124 570.21 330.046 571.082 332.847C571.955 335.648 574.754 337.267 577.334 336.463Z" fill="black"/>
<path d="M573.174 458.658C562.969 487.458 611.481 552.467 735.627 606.991C735.627 606.991 646.152 659.417 680.684 775.734C703.612 853.186 853.342 769.862 854.041 678.151C854.6 594.128 828.597 561.414 816.294 539.185C804.131 516.957 734.788 468.724 667.962 448.453C601.135 428.181 580.863 436.988 573.174 458.658Z" fill="#F7C748"/>
<path d="M620.428 480.188C604.91 480.188 587.993 471.939 580.164 467.745L579.885 467.605L582.541 462.712L582.821 462.852C590.091 466.766 614.976 479.209 630.774 472.778C636.646 470.401 640.42 465.788 642.657 458.658L647.969 460.336C645.313 469.143 640.28 475.015 632.871 478.091C629.096 479.489 624.762 480.188 620.428 480.188Z" fill="black"/>
<path d="M786.892 535.511L781.915 552.701L785.944 553.867L790.921 536.677L786.892 535.511Z" fill="white"/>
<path d="M794.51 539.314L789.534 556.504L793.563 557.671L798.539 540.481L794.51 539.314Z" fill="white"/>
<path d="M708.784 746.375C708.784 746.375 678.028 796.285 683.2 895.965C683.2 895.965 738.143 915.119 816.154 869.123V759.097C788.333 730.298 754.36 730.437 708.784 746.375Z" fill="#F7C748"/>
<path d="M393.666 615.657C370.318 621.529 367.662 649.769 383.6 667.664C399.677 685.699 433.649 719.671 469.719 707.648C505.788 695.625 476.15 646.414 463.708 637.606C449.727 627.68 417.572 609.645 393.666 615.657Z" fill="black"/>
<path d="M383.6 543.798C360.253 549.67 354.8 580.707 370.738 598.602C386.815 616.636 438.962 655.362 468.321 631.316C496.422 608.248 470.838 584.062 450.846 568.544C437.285 558.058 407.646 537.787 383.6 543.798Z" fill="#F7C748"/>
<path d="M476.43 652.986C473.773 656.062 469.859 658.578 464.546 660.396C430.154 671.86 397.44 641.243 380.664 622.789C369.899 633.833 371.157 653.825 383.6 667.666C399.677 685.7 433.649 719.673 469.719 707.65C495.583 699.122 487.614 671.3 476.43 652.986Z" fill="#F7C748"/>
<path d="M451.684 632.575L449.308 627.542C458.395 623.347 463.148 618.175 463.568 612.163C464.407 599.581 445.953 584.622 438.823 580.008L441.898 575.255C443.017 575.954 470.558 594.128 469.16 612.583C468.461 620.691 462.729 627.402 451.684 632.575Z" fill="black"/>
<path d="M458.115 702.896L455.738 697.863C464.826 693.669 469.579 688.496 469.999 682.484C470.838 669.902 452.383 654.943 445.253 650.329L448.329 645.576C449.448 646.275 476.989 664.45 475.591 682.904C474.892 691.012 469.02 697.723 458.115 702.896Z" fill="black"/>
<path d="M317.472 418.812C340.25 418.812 358.715 400.347 358.715 377.57C358.715 354.792 340.25 336.328 317.472 336.328C294.695 336.328 276.23 354.792 276.23 377.57C276.23 400.347 294.695 418.812 317.472 418.812Z" fill="black"/>
<path d="M304.471 413.639C327.248 413.639 345.713 395.174 345.713 372.397C345.713 349.619 327.248 331.154 304.471 331.154C281.693 331.154 263.228 349.619 263.228 372.397C263.228 395.174 281.693 413.639 304.471 413.639Z" fill="white"/>
<path d="M304.47 331.154V335.348C317.472 335.348 329.356 342.059 336.206 353.103C341.379 361.492 342.917 371.558 340.54 381.064C338.163 390.571 332.292 398.82 323.764 403.992C317.892 407.488 311.321 409.445 304.61 409.445C291.469 409.445 279.725 402.734 272.875 391.69C262.25 374.214 267.842 351.426 285.317 340.801C291.189 337.306 297.76 335.348 304.47 335.348V331.154ZM304.47 331.154C297.201 331.154 289.791 333.112 283.08 337.166C263.648 349.049 257.356 374.354 269.24 393.787C277.069 406.509 290.63 413.639 304.47 413.639C311.74 413.639 319.15 411.681 325.861 407.627C345.293 395.744 351.584 370.439 339.701 351.006C332.012 338.144 318.451 331.154 304.47 331.154Z" fill="black"/>
<path d="M302.138 404.104L300.878 406.6L325.836 419.204L327.096 416.709L302.138 404.104Z" fill="white"/>
<path d="M320.433 396.293L319.159 398.783L342.061 410.497L343.334 408.008L320.433 396.293Z" fill="white"/>
<path d="M328.52 383.488L327.259 385.983L352.217 398.588L353.478 396.092L328.52 383.488Z" fill="white"/>
<path d="M338.94 370.404L337.7 372.91L357.376 382.638L358.615 380.132L338.94 370.404Z" fill="white"/>
<path d="M336.324 355.411L335.191 357.967L355.896 367.144L357.029 364.588L336.324 355.411Z" fill="white"/>
<path d="M286.995 360.933C286.995 360.933 295.803 357.998 294.545 350.588L309.084 386.657" fill="white"/>
<path d="M307.966 389.453L295.104 357.438C293.147 360.374 289.791 362.191 287.694 362.89L285.737 363.589L284.479 359.675L286.436 358.976C286.716 358.836 293.566 356.459 292.587 351.007L296.642 349.889L312.02 387.915L307.966 389.453Z" fill="black"/>
<path d="M319.271 381.272L298.351 389.951L299.959 393.825L320.879 385.146L319.271 381.272Z" fill="black"/>
<path d="M304.61 405.251C301.954 405.251 299.298 404.971 296.781 404.272C288.253 402.175 280.983 396.863 276.51 389.453C271.896 381.904 270.638 373.096 272.735 364.568C274.832 356.04 280.145 348.77 287.554 344.296C295.104 339.683 303.911 338.424 312.439 340.522C320.967 342.619 328.237 347.931 332.711 355.341C337.324 362.89 338.583 371.698 336.486 380.226C334.389 388.754 329.076 396.024 321.666 400.498C316.354 403.573 310.482 405.251 304.61 405.251ZM304.47 340.941C298.738 340.941 293.147 342.479 288.253 345.555C281.123 349.889 275.95 356.879 273.993 364.987C272.036 373.096 273.294 381.624 277.628 388.754C281.962 395.884 288.952 401.057 297.061 403.014C305.169 404.972 313.697 403.713 320.828 399.379C327.958 395.045 333.131 388.055 335.088 379.947C337.045 371.838 335.787 363.31 331.453 356.18C327.119 349.05 320.129 343.877 312.02 341.92C309.504 341.221 306.987 340.941 304.47 340.941Z" fill="black"/>
<path d="M377.448 271.318C403.623 271.318 424.842 250.1 424.842 223.925C424.842 197.75 403.623 176.531 377.448 176.531C351.273 176.531 330.055 197.75 330.055 223.925C330.055 250.1 351.273 271.318 377.448 271.318Z" fill="black"/>
<path d="M374.093 255.66C400.268 255.66 421.486 234.442 421.486 208.267C421.486 182.092 400.268 160.873 374.093 160.873C347.918 160.873 326.699 182.092 326.699 208.267C326.699 234.442 347.918 255.66 374.093 255.66Z" fill="white"/>
<path d="M374.093 160.873V165.067C380.384 165.067 386.396 166.465 392.128 169.122C413.797 179.048 423.164 204.772 413.238 226.441C406.248 241.68 390.869 251.466 373.953 251.466C367.662 251.466 361.65 250.068 355.918 247.412C345.433 242.519 337.464 233.991 333.55 223.086C329.635 212.321 330.055 200.578 334.948 190.092C341.938 174.854 357.317 165.067 374.233 165.067L374.093 160.873ZM374.093 160.873C356.198 160.873 339.142 171.079 331.033 188.415C319.989 212.181 330.474 240.282 354.101 251.327C360.532 254.263 367.242 255.66 373.953 255.66C391.848 255.66 409.044 245.455 417.013 228.119C428.057 204.352 417.572 176.252 393.945 165.207C387.514 162.271 380.804 160.873 374.093 160.873Z" fill="black"/>
<path d="M342.49 226.259L339.715 226.605L343.682 258.374L346.456 258.028L342.49 226.259Z" fill="white"/>
<path d="M361.224 238.745L358.45 239.091L362.413 270.86L365.188 270.514L361.224 238.745Z" fill="white"/>
<path d="M379.538 241.644L376.763 241.99L380.73 273.759L383.504 273.412L379.538 241.644Z" fill="white"/>
<path d="M397.885 239.848L395.11 240.194L399.074 271.963L401.848 271.617L397.885 239.848Z" fill="white"/>
<path d="M410.466 227.962L407.692 228.309L411.655 260.077L414.43 259.731L410.466 227.962Z" fill="white"/>
<path d="M373.674 184.221C373.674 184.221 382.202 190.791 388.353 184.78L363.328 221.828" fill="white"/>
<path d="M363.887 224.764L360.392 222.387L382.761 189.394C378.567 189.534 374.512 187.576 372.275 185.899L370.598 184.64L373.114 181.285L374.792 182.543C375.072 182.823 381.922 187.856 386.815 183.242L390.031 185.899L363.887 224.764Z" fill="black"/>
<path d="M353.598 214.212L351.279 217.707L372.366 231.695L374.684 228.2L353.598 214.212Z" fill="black"/>
<path d="M374.093 245.874C368.78 245.874 363.328 244.756 358.295 242.379C349.208 238.185 342.218 230.636 338.722 221.269C335.227 211.902 335.647 201.557 339.841 192.469C348.509 173.596 371.017 165.347 389.751 174.155C398.838 178.349 405.828 185.899 409.324 195.265C412.819 204.632 412.399 214.978 408.205 224.065C404.011 233.153 396.462 240.143 387.095 243.638C382.901 245.176 378.427 245.874 374.093 245.874ZM374.093 172.058C360.392 172.058 347.25 179.887 341.099 193.028C337.045 201.836 336.626 211.622 339.981 220.71C343.336 229.797 350.047 237.067 358.715 241.121C367.522 245.176 377.309 245.595 386.396 242.24C395.483 238.884 402.753 232.174 406.807 223.506C410.861 214.698 411.281 204.912 407.926 195.824C404.57 186.737 397.86 179.468 389.192 175.413C384.439 173.176 379.266 172.058 374.093 172.058Z" fill="black"/>
<path d="M218.071 210.644C248.647 210.644 273.434 185.857 273.434 155.281C273.434 124.705 248.647 99.9189 218.071 99.9189C187.495 99.9189 162.709 124.705 162.709 155.281C162.709 185.857 187.495 210.644 218.071 210.644Z" fill="black"/>
<path d="M200.875 218.053C231.451 218.053 256.238 193.266 256.238 162.69C256.238 132.115 231.451 107.328 200.875 107.328C170.299 107.328 145.513 132.115 145.513 162.69C145.513 193.266 170.299 218.053 200.875 218.053Z" fill="white"/>
<path d="M200.876 107.328V111.522C204.93 111.522 208.845 111.942 212.759 112.92C226.04 116.136 237.365 124.244 244.495 135.848C251.625 147.452 253.861 161.292 250.646 174.574C245.054 197.641 224.642 213.859 200.876 213.859C196.821 213.859 192.907 213.439 188.992 212.461C175.711 209.245 164.387 201.137 157.257 189.533C150.126 177.929 147.89 164.088 151.105 150.807C156.697 127.739 177.109 111.522 200.876 111.522V107.328ZM200.876 107.328C175.851 107.328 153.202 124.384 147.051 149.828C139.921 179.607 158.235 209.385 188.013 216.515C192.347 217.494 196.682 218.053 200.876 218.053C225.901 218.053 248.549 200.997 254.7 175.552C261.83 145.774 243.516 115.996 213.738 108.866C209.404 107.747 205.07 107.328 200.876 107.328Z" fill="black"/>
<path d="M264.624 183.271L229.093 195.164L229.981 197.815L265.511 185.923L264.624 183.271Z" fill="white"/>
<path d="M274.433 158.65L238.902 170.542L239.79 173.194L275.32 161.301L274.433 158.65Z" fill="white"/>
<path d="M273.733 137.265L238.202 149.158L239.09 151.809L274.62 139.917L273.733 137.265Z" fill="white"/>
<path d="M267.172 116.425L231.641 128.317L232.529 130.968L268.059 119.076L267.172 116.425Z" fill="white"/>
<path d="M250.515 104.725L214.984 116.617L215.872 119.269L251.402 107.376L250.515 104.725Z" fill="white"/>
<path d="M173.474 168.703C173.474 168.703 179.066 157.518 170.818 151.646L219.05 171.778" fill="white"/>
<path d="M220.168 174.574L176.829 156.399C178.367 161.292 176.829 166.605 175.431 169.541L174.452 171.358L170.678 169.541L171.656 167.723C171.796 167.304 176.27 158.077 169.699 153.324L171.656 149.688L221.846 170.659L220.168 174.574Z" fill="black"/>
<path d="M223.541 157.912L212.622 184.713L216.506 186.296L227.425 159.495L223.541 157.912Z" fill="black"/>
<path d="M200.876 206.589C197.52 206.589 194.165 206.17 190.67 205.331C167.183 199.739 152.643 175.972 158.235 152.485C160.891 141.021 167.882 131.375 177.947 125.363C188.013 119.351 199.757 117.394 211.081 120.05C234.568 125.643 249.108 149.409 243.516 172.896C238.762 193.028 220.728 206.589 200.876 206.589ZM200.876 120.19C193.186 120.19 185.497 122.287 178.786 126.482C169.14 132.353 162.289 141.72 159.773 152.765C154.32 175.553 168.441 198.481 191.229 203.933C214.017 209.385 236.945 195.265 242.397 172.477C247.85 149.689 233.729 126.761 210.941 121.309C207.446 120.61 204.091 120.19 200.876 120.19Z" fill="black"/>
<path d="M334.249 475.713L321.667 507.728L325.162 509.825L339.422 476.971L334.249 475.713Z" fill="black"/>
<path d="M581.143 383.023L574.852 416.856L578.766 418.254L586.316 383.163L581.143 383.023Z" fill="black"/>
<path d="M554.301 388.056L559.613 422.028H563.807L559.194 386.518L554.301 388.056Z" fill="black"/>
<path d="M271.477 238.045L246.032 261.672L255.12 269.082L280.424 240.003L271.477 238.045Z" fill="black"/>
<path d="M748.489 442.859C751.346 442.859 753.662 440.543 753.662 437.686C753.662 434.829 751.346 432.513 748.489 432.513C745.632 432.513 743.316 434.829 743.316 437.686C743.316 440.543 745.632 442.859 748.489 442.859Z" fill="black"/>
<path d="M421.906 327.381C424.763 327.381 427.079 325.065 427.079 322.208C427.079 319.351 424.763 317.035 421.906 317.035C419.049 317.035 416.733 319.351 416.733 322.208C416.733 325.065 419.049 327.381 421.906 327.381Z" fill="black"/>
</svg>
