<svg width="1000" height="1000" viewBox="0 0 1000 1000" fill="none" xmlns="http://www.w3.org/2000/svg">
<rect width="1000" height="1000" fill="white"/>
<path d="M572.766 176.813L362.385 343.293L586.253 502.367L795.443 343.293L572.766 176.813Z" fill="black"/>
<path d="M402.055 100.119H398.088V327.425H402.055V100.119Z" fill="black"/>
<path d="M737.526 119.293H733.559V328.086H737.526V119.293Z" fill="black"/>
<path d="M461.955 187.26H457.989V284.846H461.955V187.26Z" fill="black"/>
<path d="M616.402 127.888H612.435V224.284H616.402V127.888Z" fill="black"/>
<path d="M434.848 367.623C433.79 364.185 430.088 362.334 426.65 363.392C423.212 364.45 421.36 368.152 422.418 371.59C423.476 375.028 427.179 376.88 430.617 375.822C434.055 374.764 436.038 371.061 434.848 367.623Z" fill="white"/>
<path d="M440.931 295.293L476.501 283.789L510.352 297.144L512.997 290.268L487.608 280.218L511.41 272.549L510.088 268.45L481.261 277.706L457.195 268.185L450.452 273.607L470.154 281.276L439.608 291.194L440.931 295.293Z" fill="white"/>
<path d="M461.162 330.202L460.104 322.797L405.36 329.937L423.344 310.103L417.79 305.21L393.988 331.524L374.022 334.169L363.046 342.764V343.028L386.319 339.987L375.08 352.417L381.294 356.78L397.691 338.532L461.162 330.202Z" fill="white"/>
<path d="M598.286 398.169H597.625C591.41 418.533 579.113 428.715 560.865 428.715C549.096 428.715 539.707 424.351 532.567 415.756C525.426 407.161 521.856 395.525 521.856 380.847C521.856 361.541 526.749 345.541 536.666 332.715C546.584 319.888 559.542 313.541 575.542 313.541C581.757 313.541 587.178 315.128 592.071 318.302C596.831 321.475 600.005 325.442 601.327 330.202H601.856C601.989 327.822 602.518 322.93 603.179 315.525H619.178C615.212 362.599 613.096 386.533 613.096 387.459C613.096 405.178 618.121 414.037 628.303 414.037C637.559 414.037 645.228 409.012 651.311 399.095C657.393 389.045 660.435 376.219 660.435 360.219C660.435 336.682 653.03 317.508 638.088 302.698C623.145 287.888 602.65 280.351 576.336 280.351C550.947 280.351 530.055 289.211 513.393 307.062C496.864 324.781 488.534 346.996 488.534 373.706C488.534 399.888 496.468 421.045 512.203 437.178C527.939 453.31 549.228 461.376 575.939 461.376C597.096 461.376 615.079 457.938 630.021 450.93V466.797C615.211 473.144 596.831 476.318 574.617 476.318C543.542 476.318 518.418 466.93 499.509 448.153C480.468 429.376 470.947 404.913 470.947 374.5C470.947 343.293 480.864 317.376 500.831 296.748C520.798 276.12 546.187 265.806 577.261 265.806C606.352 265.806 630.286 274.401 649.46 291.723C668.501 308.913 678.021 331.525 678.021 359.293C678.021 379.657 672.997 396.318 662.947 409.277C652.898 422.368 640.732 428.847 626.187 428.847C607.674 428.715 598.286 418.533 598.286 398.169ZM575.278 328.483C564.699 328.483 556.104 333.508 549.625 343.558C543.146 353.607 539.84 366.169 539.84 381.111C539.84 391.161 542.088 399.095 546.451 404.913C550.815 410.731 556.765 413.64 564.038 413.64C574.617 413.64 583.079 408.351 589.162 397.773C595.377 387.194 598.418 373.178 598.418 355.855C598.55 337.607 590.749 328.483 575.278 328.483Z" fill="white"/>
<path d="M574.749 477.375C543.41 477.375 517.89 467.723 498.716 448.813C479.542 429.904 469.757 404.78 469.757 374.235C469.757 342.764 479.939 316.318 500.038 295.557C520.137 274.797 546.187 264.218 577.394 264.218C606.617 264.218 631.212 273.078 650.385 290.4C669.691 307.855 679.344 330.863 679.344 358.896C679.344 379.392 674.187 396.582 664.005 409.673C653.691 423.028 640.997 429.772 626.187 429.772C608.336 429.772 598.55 420.913 596.964 403.194C590.088 420.78 577.922 429.772 560.6 429.772C548.567 429.772 538.65 425.276 531.377 416.417C524.104 407.557 520.402 395.524 520.402 380.714C520.402 361.144 525.426 344.747 535.476 331.789C545.526 318.698 559.013 312.086 575.41 312.086C581.757 312.086 587.575 313.805 592.6 316.979C596.17 319.359 598.947 322.136 600.666 325.442C600.931 322.797 601.195 319.491 601.592 315.128L601.724 313.937H620.369L620.236 315.392C615.344 373.309 614.286 386.4 614.154 387.194C614.154 404.119 618.65 412.318 628.038 412.318C636.898 412.318 644.038 407.557 649.856 397.904C655.807 388.119 658.848 375.293 658.848 359.822C658.848 336.813 651.443 317.772 636.898 303.227C622.352 288.681 601.856 281.276 576.071 281.276C551.212 281.276 530.319 290.136 514.187 307.458C497.922 324.913 489.724 346.995 489.724 373.177C489.724 398.962 497.526 419.987 512.997 435.723C528.468 451.458 549.493 459.524 575.807 459.524C596.567 459.524 614.55 456.086 629.36 449.078L631.212 448.152V466.929L630.418 467.326C615.741 474.202 596.964 477.375 574.749 477.375ZM577.526 266.995C546.98 266.995 521.592 277.309 502.022 297.409C482.451 317.64 472.534 343.557 472.534 374.235C472.534 403.987 482.055 428.45 500.699 446.962C519.344 465.342 544.336 474.731 574.881 474.731C596.303 474.731 614.551 471.69 628.964 465.739V452.78C614.286 459.26 596.567 462.566 576.203 462.566C549.228 462.566 527.41 454.367 511.542 437.971C495.542 421.706 487.476 400.02 487.476 373.574C487.476 346.731 495.939 323.987 512.732 306.004C529.526 288.02 550.947 278.896 576.6 278.896C603.179 278.896 624.203 286.566 639.278 301.64C654.352 316.714 662.022 336.417 662.022 360.086C662.022 376.086 658.848 389.442 652.633 399.623C646.286 409.937 638.22 415.227 628.567 415.227C617.592 415.227 612.038 405.838 612.038 387.326C612.038 386.929 612.038 386.004 617.989 316.714H604.369C603.708 323.458 603.311 327.954 603.179 330.202L603.046 331.392H600.269L600.005 330.466C598.683 325.971 595.774 322.268 591.278 319.359C586.65 316.318 581.36 314.863 575.542 314.863C559.939 314.863 547.245 321.078 537.724 333.508C528.071 345.937 523.179 361.937 523.179 380.847C523.179 395.128 526.617 406.499 533.625 414.83C540.501 423.161 549.625 427.26 560.865 427.26C578.716 427.26 590.22 417.607 596.435 397.64L596.699 396.714H599.608V398.037C599.74 417.607 608.468 427.26 626.451 427.26C640.336 427.26 652.369 420.913 662.154 408.218C671.939 395.524 676.964 378.863 676.964 359.028C676.964 331.789 667.443 309.442 648.799 292.516C630.022 275.59 606.088 266.995 577.526 266.995ZM564.038 414.962C556.236 414.962 550.021 411.789 545.393 405.706C540.898 399.756 538.517 391.425 538.517 381.111C538.517 366.037 541.823 353.078 548.567 342.896C555.311 332.45 564.303 327.161 575.41 327.161C591.675 327.161 599.873 336.813 599.873 355.855C599.873 373.442 596.699 387.723 590.352 398.433C583.873 409.409 575.146 414.962 564.038 414.962ZM575.278 329.805C565.096 329.805 557.03 334.566 550.683 344.351C544.336 354.136 541.03 366.566 541.03 381.111C541.03 390.896 543.145 398.566 547.377 404.119C551.608 409.673 557.03 412.318 563.906 412.318C574.088 412.318 581.89 407.293 587.972 397.111C594.055 386.797 597.096 372.913 597.096 355.855C597.228 338.4 590.088 329.805 575.278 329.805Z" fill="white"/>
<path d="M581.757 493.904L362.385 343.293V608.152H795.443V343.293L581.757 493.904Z" fill="white"/>
<path d="M797.427 610.136H360.402V339.59L581.757 491.524L797.427 339.458V610.136ZM364.369 606.169H793.46V347.127L581.757 496.417L580.567 495.623L364.236 347.127V606.169H364.369Z" fill="black"/>
<path d="M624.38 465.592L621.861 468.657L793.8 609.951L796.318 606.886L624.38 465.592Z" fill="black"/>
<path d="M532.974 461.786L361.035 603.08L363.554 606.145L535.492 464.851L532.974 461.786Z" fill="black"/>
<path d="M755.509 517.706H689.261V523.524H755.509V517.706Z" fill="white"/>
<path d="M613.228 559.756C616.295 559.756 618.782 557.269 618.782 554.202C618.782 551.135 616.295 548.648 613.228 548.648C610.161 548.648 607.675 551.135 607.675 554.202C607.675 557.269 610.161 559.756 613.228 559.756Z" fill="black"/>
<path d="M335.807 493.111L322.187 520.219H328.402L340.699 493.111H335.807Z" fill="black"/>
<path d="M762.121 511.624H689.261V584.483H762.121V511.624Z" fill="black"/>
<path d="M729.724 563.061L722.716 563.723L724.567 584.483H731.575L729.724 563.061Z" fill="white"/>
<path d="M762.121 558.036L722.98 525.904L720.732 528.681L759.873 560.681L740.832 571.656L743.741 576.681L762.121 566.103V558.036Z" fill="white"/>
<path d="M707.112 548.913C707.112 546.136 704.864 543.888 702.088 543.888C699.311 543.888 697.063 546.136 697.063 548.913C697.063 551.69 699.311 553.937 702.088 553.937C704.864 553.937 707.112 551.69 707.112 548.913Z" fill="white"/>
<path d="M446.22 402.4L449.129 391.954H479.939V387.59H450.319L452.832 378.598L440.27 375.16L436.832 387.59H425.328L431.41 391.954H435.641L434.848 394.334L446.22 402.4Z" fill="white"/>
<path d="M516.171 243.458C518.215 243.458 519.873 241.8 519.873 239.755C519.873 237.71 518.215 236.053 516.171 236.053C514.126 236.053 512.468 237.71 512.468 239.755C512.468 241.8 514.126 243.458 516.171 243.458Z" fill="white"/>
<path d="M502.551 711.822C519.079 713.276 529.923 594.268 575.41 600.615C608.6 605.243 600.137 650.863 587.707 694.5C575.939 736.152 568.005 844.979 375.08 860.979L290.98 900.119C290.98 900.119 243.245 865.475 202.914 712.88L279.079 681.276C279.079 681.276 333.691 560.814 372.567 516.781C399.278 486.5 419.642 497.871 419.642 497.871C419.642 497.871 440.798 461.376 478.617 485.706L498.584 438.367C498.584 438.367 512.732 373.706 534.154 363.789C551.873 355.59 580.038 373.838 576.732 420.913C573.162 471.029 558.617 563.458 539.708 613.177C520.137 665.276 518.683 674.665 502.551 711.822Z" fill="#6857A7"/>
<path d="M477.668 482.926L427.59 612.7L431.29 614.128L481.369 484.355L477.668 482.926Z" fill="white"/>
<path d="M423.115 625.613L410.329 639.182L413.216 641.903L426.002 628.333L423.115 625.613Z" fill="white"/>
<path d="M418.974 494.829L377.938 578.535L381.499 580.281L422.536 496.576L418.974 494.829Z" fill="white"/>
<path d="M369.998 593.191L360.356 605.291L363.459 607.764L373.1 595.663L369.998 593.191Z" fill="white"/>
<path d="M584.534 673.739C578.716 671.888 574.617 668.186 572.369 662.896C564.964 645.706 578.187 616.88 578.848 615.557L582.418 617.276C582.286 617.541 569.328 645.838 576.072 661.31C577.923 665.673 581.096 668.45 585.857 670.037L584.534 673.739Z" fill="white"/>
<path d="M540.642 763.097L538.17 766.2L550.272 775.84L552.743 772.737L540.642 763.097Z" fill="white"/>
<path d="M528.6 430.565C525.162 430.565 521.327 429.904 517.228 428.45L518.551 424.747C527.146 427.656 534.022 427.127 538.914 423.16C552.931 411.788 548.964 376.747 548.964 376.35L552.931 375.822C553.063 377.408 557.294 413.507 541.559 426.202C537.856 429.111 533.493 430.565 528.6 430.565Z" fill="white"/>
<path d="M539.708 614.103C539.708 614.103 497.658 596.78 489.063 636.317C480.468 675.855 502.683 711.689 502.683 711.689C502.683 711.689 518.683 675.987 539.708 614.103Z" fill="black"/>
</svg>
