<svg width="1000" height="1000" viewBox="0 0 1000 1000" fill="none" xmlns="http://www.w3.org/2000/svg">
<rect width="1000" height="1000" fill="white"/>
<path d="M349.739 426.967C315.812 470.528 271.134 500.685 292.077 575.521C313.02 650.357 337.034 716.257 378.92 761.074L372.916 874.864C372.916 874.864 483.634 931.689 615.295 874.864V814.967C615.295 814.967 761.894 716.257 788.84 659.292C815.787 602.468 794.844 560.582 761.894 545.503C761.894 545.503 761.894 491.61 714.005 476.671C714.005 476.671 713.028 439.672 671.142 403.79C629.256 367.908 564.892 328.954 561.82 376.844C558.888 424.733 628.698 466.339 619.762 493.286C610.827 520.232 571.873 556.114 571.873 556.114C571.873 556.114 511.976 541.175 479.026 583.06C479.026 583.06 434.069 538.103 395.255 532.239C395.255 532.239 444.82 467.736 435.884 416.775C426.949 365.814 402.236 359.671 349.739 426.967Z" fill="#F05050"/>
<path d="M394.848 530.142L364.899 542.114L366.454 546.004L396.403 534.032L394.848 530.142Z" fill="white"/>
<path d="M523.146 676.047L518.958 675.488C524.682 635.139 478.049 584.876 477.63 584.457L480.702 581.525C482.657 583.759 529.15 633.742 523.146 676.047Z" fill="white"/>
<path d="M624.788 632.626C613.479 632.626 601.891 630.113 592.676 623.969C581.646 616.849 575.782 605.679 575.782 591.997C575.782 552.345 708.839 479.464 714.563 476.392L716.518 480.023C715.122 480.721 579.971 554.718 579.971 591.857C579.971 604.283 584.997 613.917 594.91 620.339C611.245 630.95 636.237 629.694 651.456 622.992C657.599 617.128 736.483 541.873 763.43 541.873V546.062C737.6 546.062 654.946 625.505 654.108 626.343L653.829 626.622L653.55 626.762C645.592 630.392 635.26 632.626 624.788 632.626Z" fill="white"/>
<path d="M627.022 620.619L624.509 617.268C646.15 601.631 656.202 587.39 654.387 575.103C652.154 559.606 631.35 552.206 631.071 552.066L632.467 548.157C633.444 548.436 655.923 556.534 658.576 574.545C660.67 588.367 650.059 604.005 627.022 620.619Z" fill="white"/>
<path d="M683.708 674.65L681.613 671.02C705.209 657.198 716.797 644.213 715.82 632.346C714.703 617.407 694.039 609.029 693.76 608.89L695.296 604.981C696.273 605.4 718.612 614.475 720.008 631.927C721.125 645.61 708.839 659.99 683.708 674.65Z" fill="white"/>
<path d="M586.114 615.452C586.114 615.452 578.016 645.889 598.959 663.76C619.901 681.631 673.794 747.531 610.966 810.36C610.966 810.36 592.955 828.371 554.141 822.367C554.141 822.367 599.657 847.638 590.302 884.358L616.97 873.188V813.292C616.97 813.292 709.816 756.467 769.573 681.631C769.573 681.631 784.512 624.807 763.569 642.678C742.626 660.689 694.737 693.499 664.859 681.631C634.98 669.764 652.852 624.807 652.852 624.807C652.852 624.807 597.144 641.98 586.114 615.452Z" fill="black"/>
<path d="M561.262 302.845H430.16V433.947H561.262V302.845Z" fill="white"/>
<path d="M563.356 436.182H428.065V300.891H563.356V436.182ZM432.254 431.993H559.167V305.08H432.254V431.993Z" fill="black"/>
<path d="M574.107 290.001H413.405V333.702H574.107V290.001Z" fill="white"/>
<path d="M576.201 335.796H411.311V287.907H576.201V335.796ZM415.5 331.608H572.012V292.096H415.5V331.608Z" fill="black"/>
<path d="M513.791 290.001H479.026V433.948H513.791V290.001Z" fill="black"/>
<path d="M439.793 217.399L429.461 253.421L484.053 290.001H507.648L564.473 253.421L525.938 235.41L496.339 270.175L439.793 217.399Z" fill="black"/>
<path d="M672.957 282.461L670.444 264.869L653.271 260.261L670.862 257.748L675.47 240.575L677.983 258.167L695.156 262.774L677.564 265.288L672.957 282.461Z" fill="black"/>
<path d="M815.368 486.304L812.855 468.712L795.682 464.105L813.273 461.591L817.881 444.418L820.394 462.01L837.567 466.618L819.975 469.131L815.368 486.304Z" fill="black"/>
<path d="M343.457 172.162L341.223 156.525L325.865 152.476L341.502 150.102L345.691 134.744L347.925 150.521L363.283 154.57L347.506 156.944L343.457 172.162Z" fill="black"/>
<path d="M181.499 366.232L178.986 348.64L161.812 344.032L179.404 341.519L184.012 324.346L186.525 341.938L203.698 346.546L186.106 349.059L181.499 366.232Z" fill="black"/>
<path d="M343.456 356.46L342.2 347.524L333.543 345.291L342.479 343.894L344.713 335.238L345.969 344.174L354.765 346.407L345.83 347.803L343.456 356.46Z" fill="black"/>
<path d="M518.119 167.974L515.467 102.493L532.221 100.119L518.119 167.974Z" fill="black"/>
<path d="M543.669 181.517L579.412 126.367L609.151 140.608L543.669 181.517Z" fill="black"/>
</svg>
