<svg width="1000" height="1000" viewBox="0 0 1000 1000" fill="none" xmlns="http://www.w3.org/2000/svg">
<rect width="1000" height="1000" fill="white"/>
<path d="M552.429 437.308H194.907V897.193H552.429V437.308Z" fill="white"/>
<path d="M548.089 441.797V892.703H199.546V441.797H548.089ZM552.579 437.307H195.057V897.192H552.579V437.307Z" fill="black"/>
<path d="M553.177 437.907H402.626V495.673H553.177V437.907Z" fill="black"/>
<path d="M549.436 494.325C549.436 494.325 553.028 563.914 484.187 545.208C415.347 526.501 432.108 489.237 432.108 489.237L549.436 494.325Z" fill="black"/>
<path d="M450.066 523.359C411.905 453.77 431.659 311.3 538.96 290.498H206.281C59.4707 352.604 84.1636 559.874 180.54 563.765H471.916C522.798 565.411 547.64 543.412 549.586 500.462C549.137 510.638 544.348 523.808 534.022 534.134C509.928 558.078 465.78 551.942 450.066 523.359Z" fill="white"/>
<path d="M477.303 566.159C475.507 566.159 473.861 566.159 471.916 566.01H180.54C142.379 564.513 111.999 530.841 102.721 480.258C90.5987 413.962 117.686 325.516 205.383 288.402L205.832 288.253H538.961L539.409 292.743C490.024 302.32 464.433 336.74 451.712 363.977C428.666 413.213 428.816 479.809 452.161 522.311C459.046 534.882 472.664 543.861 488.677 546.255C505.139 548.65 521.601 543.562 532.525 532.787C541.355 524.107 546.892 511.985 547.491 500.611L551.98 500.761C550.035 544.011 524.893 566.159 477.303 566.159ZM471.916 561.52C508.132 562.717 531.029 552.092 541.205 529.195C539.559 531.589 537.614 533.684 535.518 535.78C523.546 547.602 505.737 553.14 487.779 550.595C470.569 548.051 455.603 538.324 447.971 524.406C424.027 480.707 423.727 412.316 447.372 362.032C459.045 337.19 481.045 306.511 521.451 292.743H206.58C121.427 328.959 95.2379 414.86 106.911 479.51C115.74 527.998 144.623 560.173 180.391 561.67L471.916 561.52Z" fill="black"/>
<path d="M549.586 497.018V500.46C549.736 499.263 549.736 498.066 549.586 497.018Z" fill="white"/>
<path d="M551.831 500.61L547.341 500.461V497.019L551.831 496.869C551.98 498.066 551.98 499.264 551.831 500.61Z" fill="black"/>
<path d="M440.079 487.203L440.017 491.692L552.396 493.248L552.458 488.759L440.079 487.203Z" fill="white"/>
<path d="M553.178 438.056L588.047 460.953L591.638 849.303L550.633 896.594L553.178 438.056Z" fill="black"/>
<path d="M568.442 876.091L568.143 693.514L575.326 868.16L568.442 876.091Z" fill="white"/>
<path d="M745.781 639.939C748.757 639.939 751.169 637.526 751.169 634.551C751.169 631.575 748.757 629.164 745.781 629.164C742.806 629.164 740.394 631.575 740.394 634.551C740.394 637.526 742.806 639.939 745.781 639.939Z" fill="white"/>
<path d="M232.021 648.469C239.204 647.122 248.633 645.925 260.605 645.925C275.421 645.925 286.196 649.816 293.08 656.7C299.365 662.836 303.256 672.414 303.256 683.937C303.256 695.76 300.113 705.038 294.277 711.773C286.345 721.201 273.475 726.139 258.959 726.139C254.469 726.139 250.428 725.99 246.986 724.942V777.171H232.021V648.469ZM246.986 711.324C250.279 712.222 254.319 712.671 259.258 712.671C277.216 712.671 288.291 702.794 288.291 684.835C288.291 667.625 277.516 659.244 261.054 659.244C254.469 659.244 249.53 659.843 246.986 660.591V711.324Z" fill="black"/>
<path d="M249.979 780.314H229.028V645.925L231.422 645.476C240.551 643.83 250.279 642.932 260.605 642.932C275.87 642.932 287.542 646.823 295.175 654.605C302.208 661.489 306.099 671.965 306.099 683.937C306.099 696.358 302.807 706.385 296.522 713.718C288.291 723.595 274.971 729.132 258.959 729.132C256.115 729.132 252.972 729.133 249.979 728.684V780.314ZM235.014 774.328H243.993V721.051L247.735 722.099C251.027 722.997 255.217 723.146 258.959 723.146C273.176 723.146 284.849 718.507 292.032 709.977C297.569 703.692 300.263 694.862 300.263 684.087C300.263 673.611 296.971 664.781 290.984 658.945C284.4 652.36 274.223 648.918 260.605 648.918C251.476 648.918 243.095 649.517 235.014 651.013V774.328ZM259.258 715.663C253.721 715.663 249.381 715.215 246.088 714.167L243.993 713.568V658.347L246.088 657.748C249.231 656.85 254.619 656.251 261.054 656.251C280.06 656.251 291.284 666.877 291.284 684.835C291.284 704.14 279.312 715.663 259.258 715.663ZM249.979 708.929C252.523 709.378 255.517 709.677 259.258 709.677C276.019 709.677 285.298 700.848 285.298 684.835C285.298 666.128 272.128 662.237 261.054 662.237C256.115 662.237 252.374 662.537 249.979 662.986V708.929Z" fill="black"/>
<path d="M323.309 648.621C330.792 646.825 341.717 645.927 351.893 645.927C367.906 645.927 378.083 649.219 385.266 656.552C391.103 662.389 394.395 671.219 394.395 681.395C394.395 698.605 384.817 709.979 372.546 714.618V715.217C381.525 718.659 386.763 727.937 389.456 741.556C393.198 759.813 396.041 772.384 398.436 777.323H383.021C381.076 773.582 378.532 762.358 375.239 746.195C371.797 728.237 365.662 721.352 352.043 720.903H337.976V777.472H323.01V648.621H323.309ZM338.125 708.033H353.39C369.403 708.033 379.43 698.156 379.43 683.191C379.43 666.43 368.655 658.947 352.791 658.797C345.608 658.797 340.52 659.545 337.976 660.294V708.033H338.125Z" fill="black"/>
<path d="M403.374 780.315H381.375L380.477 778.669C378.681 775.077 376.287 765.798 372.545 746.792C368.954 728.086 362.668 724.344 352.193 723.895H341.268V780.464H320.316V646.225L322.561 645.627C330.044 643.831 341.118 642.783 351.893 642.783C368.655 642.783 379.729 646.375 387.511 654.306C393.946 660.742 397.388 670.17 397.388 681.244C397.388 696.209 390.504 708.481 378.681 714.916C385.416 719.705 389.905 728.235 392.449 740.806C395.892 757.717 398.884 771.036 401.129 775.975L403.374 780.315ZM385.116 774.329H394.245C392.15 767.594 389.606 756.37 386.763 742.153C384.069 728.834 379.13 720.902 371.648 718.059L369.702 717.311V712.671L371.648 711.923C384.069 707.134 391.552 695.761 391.552 681.394C391.552 672.115 388.708 664.034 383.321 658.796C376.736 652.062 367.008 649.069 352.043 649.069C342.765 649.069 333.336 649.817 326.452 651.164V774.478H335.432V717.909H352.492C367.607 718.508 374.94 726.29 378.532 745.745C380.477 756.37 383.171 768.941 385.116 774.329ZM353.39 711.025H335.132V658.198L337.227 657.599C340.52 656.552 346.356 655.953 352.941 655.953C371.797 656.252 382.572 666.129 382.572 683.339C382.572 699.801 370.899 711.025 353.39 711.025ZM341.118 705.039H353.39C367.607 705.039 376.436 696.658 376.436 683.19C376.436 669.122 368.505 661.939 352.791 661.789C347.553 661.789 343.662 662.238 341.118 662.687V705.039Z" fill="black"/>
<path d="M514.866 710.726C514.866 755.622 490.622 779.417 461.141 779.417C430.611 779.417 409.211 752.779 409.211 713.27C409.211 671.816 431.958 644.729 462.936 644.729C494.513 644.729 514.866 671.966 514.866 710.726ZM425.224 712.821C425.224 740.657 438.543 765.649 462.038 765.649C485.684 765.649 499.152 741.106 499.152 711.475C499.152 685.585 487.18 658.497 462.338 658.497C437.495 658.497 425.224 684.238 425.224 712.821Z" fill="black"/>
<path d="M461.14 782.41C428.815 782.41 406.218 753.976 406.218 713.27C406.218 671.217 429.564 641.735 462.936 641.735C495.86 641.735 517.859 669.421 517.859 710.726C517.859 760.261 489.425 782.41 461.14 782.41ZM462.936 647.721C433.155 647.721 412.204 674.659 412.204 713.27C412.204 750.533 432.407 776.423 461.14 776.423C491.969 776.423 511.873 750.683 511.873 710.726C511.873 673.013 492.268 647.721 462.936 647.721ZM462.038 768.642C435.849 768.642 422.231 740.507 422.231 712.821C422.231 684.237 434.652 655.503 462.338 655.503C489.724 655.503 502.145 684.536 502.145 711.474C502.145 745.146 485.684 768.642 462.038 768.642ZM462.188 661.49C438.692 661.49 428.067 687.23 428.067 712.821C428.067 737.514 439.74 762.655 461.889 762.655C485.384 762.655 496.01 736.915 496.01 711.474C496.159 687.38 485.534 661.49 462.188 661.49Z" fill="black"/>
<path d="M499.751 627.069L505.139 610.906L492.418 599.533L508.581 605.07L519.954 592.349L514.567 608.512L527.287 619.736L511.125 614.348L499.751 627.069Z" fill="black"/>
<path d="M270.632 816.979L273.625 808L266.591 801.864L275.57 804.857L281.856 797.823L278.863 806.653L285.896 812.938L276.917 809.945L270.632 816.979Z" fill="black"/>
<path d="M378.233 607.763L378.532 594.444L366.56 588.906L379.729 589.206L385.266 577.233L384.967 590.403L396.939 595.94L383.77 595.641L378.233 607.763Z" fill="black"/>
<path d="M498.105 851.399L500.2 845.263L495.411 841.073L501.547 843.018L505.737 838.229L503.792 844.365L508.581 848.705L502.445 846.61L498.105 851.399Z" fill="black"/>
<path d="M358.927 872.35L363.118 859.779L353.24 850.95L365.811 855.29L374.641 845.413L370.45 857.834L380.328 866.663L367.757 862.473L358.927 872.35Z" fill="black"/>
<path d="M491.371 676.753L497.357 673.91L497.058 667.325L499.901 673.311L506.486 672.862L500.499 675.855L500.799 682.44L497.955 676.454L491.371 676.753Z" fill="white"/>
<path d="M116.04 603.423L122.624 609.26L157.494 579.329L142.678 579.928L116.04 603.423Z" fill="black"/>
<path d="M136.542 651.462C139.435 651.462 141.78 649.117 141.78 646.224C141.78 643.331 139.435 640.986 136.542 640.986C133.65 640.986 131.304 643.331 131.304 646.224C131.304 649.117 133.65 651.462 136.542 651.462Z" fill="black"/>
<path d="M327.65 306.661C327.65 306.661 299.814 355.897 325.255 373.855C350.696 391.813 403.674 362.781 430.312 290.498L327.65 306.661Z" fill="black"/>
<path d="M897.83 199.509L846.199 174.966C846.199 174.966 846.049 175.115 845.6 175.414C757.005 132.613 650.003 99.6897 594.781 103.73C580.414 105.227 566.197 114.356 546.742 128.573C509.329 159.551 521.451 149.674 477.453 168.53C465.48 171.823 443.182 187.686 437.046 196.965C417.142 198.012 369.702 232.283 337.228 287.954C316.426 323.422 310.29 351.407 340.37 358.44C370.002 367.12 394.695 333.299 422.979 292.144C482.99 233.929 519.805 279.124 590.591 321.326C586.55 322.524 520.852 336.292 509.179 334.945C504.091 334.496 488.827 332.7 471.766 332.251C456.352 346.917 444.08 376.549 441.985 387.623C443.033 388.072 443.93 388.521 444.978 388.97C461.889 396.153 483.888 402.738 507.833 411.268C541.355 417.254 648.058 421.744 660.629 420.397C692.654 412.017 745.332 371.161 756.107 364.277V364.427L818.663 394.058C818.812 394.058 915.489 283.315 897.83 199.509Z" fill="#6857A7"/>
<path d="M531.178 198.012C530.58 198.012 470.718 191.278 434.652 197.563L434.053 193.972C470.569 187.686 530.879 194.271 531.627 194.421L531.178 198.012Z" fill="white"/>
<path d="M528.343 142.139L528.299 145.73L574.687 146.307L574.731 142.716L528.343 142.139Z" fill="white"/>
<path d="M603.893 142.793L587.095 144.739L587.509 148.307L604.306 146.36L603.893 142.793Z" fill="white"/>
<path d="M563.744 194.837L549.27 195.938L549.543 199.52L564.017 198.418L563.744 194.837Z" fill="white"/>
<path d="M603.131 388.823L599.563 389.237L601.513 406.034L605.08 405.62L603.131 388.823Z" fill="white"/>
<path d="M617.733 392.121L614.142 392.195L614.387 404.165L617.978 404.091L617.733 392.121Z" fill="white"/>
<path d="M511.723 335.094C510.676 335.094 509.928 335.094 509.329 334.944C504.241 334.495 488.976 332.699 471.916 332.25C456.501 346.917 444.23 376.548 442.135 387.622C443.182 388.071 444.08 388.52 445.128 388.969C459.943 395.255 478.65 401.091 499.302 408.125C484.487 378.194 503.492 346.617 511.723 335.094Z" fill="black"/>
</svg>
