<svg width="1000" height="1000" viewBox="0 0 1000 1000" fill="none" xmlns="http://www.w3.org/2000/svg">
<rect width="1000" height="1000" fill="white"/>
<path d="M453.974 316.116C390.205 360.242 362.938 435.006 401.2 484.848C439.315 534.691 473.178 596.408 524.487 556.827C575.795 517.246 593.533 413.016 580.193 374.901C566.999 336.786 473.032 302.923 453.974 316.116Z" fill="black"/>
<path d="M428.32 288.117C428.32 288.117 317.787 357.017 240.971 361.561C164.154 366.106 154.479 412.87 181.892 432.367C209.159 451.864 272.635 457.875 330.834 437.498C389.032 417.121 428.32 288.117 428.32 288.117Z" fill="#F5BAAE"/>
<path d="M386.393 354.671L344.76 430.315C340.216 433.393 335.525 435.885 330.54 437.498C302.541 447.32 273.222 450.984 247.274 449.958C304.447 430.461 386.393 354.671 386.393 354.671Z" fill="black"/>
<path d="M691.459 175.238L644.988 292.954C644.988 292.954 688.967 349.247 675.773 421.812C662.726 494.377 652.905 504.199 612.884 546.712C572.863 589.224 544.717 640.386 514.665 603.298C484.613 566.209 534.309 474.88 568.172 463.005C559.67 440.136 550.434 389.854 550.434 389.854L495.167 352.472C495.167 352.472 402.226 356.577 414.54 423.718C427 490.859 454.561 509.476 466.435 543.34C478.309 577.204 471.859 633.057 425.827 616.784C425.827 616.784 416.885 635.988 383.608 617.078C350.331 598.167 302.834 506.984 316.027 447.026C331.127 377.98 397.681 314.064 397.681 314.064L491.796 100.327C491.649 100.327 635.02 96.6625 691.459 175.238Z" fill="#F5BAAE"/>
<path d="M453.241 584.093C445.765 569.141 436.969 560.492 426.707 558.586C413.66 556.094 402.812 565.622 402.666 565.622L400.76 563.423C401.2 562.984 412.781 552.869 427.294 555.654C438.435 557.853 448.11 566.942 455.88 582.774L453.241 584.093Z" fill="white"/>
<path d="M526.539 592.156L523.754 591.423C523.901 590.69 529.178 571.926 547.063 562.251C559.67 555.361 575.356 554.921 593.68 560.785L592.801 563.57C575.356 557.853 560.403 558.293 548.529 564.743C531.67 573.832 526.539 592.01 526.539 592.156Z" fill="white"/>
<path d="M614.145 479.503L613.252 482.296L639.084 490.557L639.977 487.764L614.145 479.503Z" fill="white"/>
<path d="M426.268 617.811C425.974 617.224 390.498 563.864 354.289 481.037C321.452 406.127 354.436 364.054 386.394 323.447C390.498 318.316 394.749 312.892 398.708 307.468L401.053 309.227C396.949 314.651 392.697 319.928 388.593 325.206C355.755 366.985 324.677 406.42 356.781 479.718C392.991 562.251 428.174 615.465 428.613 615.905L426.268 617.811Z" fill="white"/>
<path d="M762.039 719.571L764.389 747.031L771.4 746.432L769.051 718.971L762.039 719.571Z" fill="black"/>
<path d="M767.9 782.592L781.611 792.4L784.085 788.943L770.374 779.135L767.9 782.592Z" fill="black"/>
<path d="M853.59 773.383L865.809 761.769L862.88 758.688L850.661 770.302L853.59 773.383Z" fill="black"/>
<path d="M828.756 742.762L845.013 720.508L839.331 716.357L823.074 738.611L828.756 742.762Z" fill="black"/>
<path d="M704.958 796.261L701.057 779.861L696.921 780.845L700.823 797.245L704.958 796.261Z" fill="black"/>
<path d="M774.159 848.245L757.318 848.983L757.504 853.23L774.345 852.492L774.159 848.245Z" fill="black"/>
<path d="M813.28 773.789C815.304 773.789 816.945 772.148 816.945 770.124C816.945 768.1 815.304 766.459 813.28 766.459C811.256 766.459 809.615 768.1 809.615 770.124C809.615 772.148 811.256 773.789 813.28 773.789Z" fill="black"/>
<path d="M327.902 308.494L341.682 292.075L348.572 300.284L333.472 318.022L327.902 308.494Z" fill="black"/>
<path d="M143.044 449.519L133.516 468.723L143.044 471.508L152.573 449.519H143.044Z" fill="black"/>
<path d="M490.577 643.537L527.636 634.63L430.408 230.115L393.349 239.022L490.577 643.537Z" fill="white"/>
<path d="M412.195 289.435C416.006 288.556 418.205 284.744 417.325 280.933C416.446 277.121 412.634 274.922 408.823 275.802C405.011 276.681 402.812 280.493 403.692 284.304C404.718 288.116 408.53 290.315 412.195 289.435Z" fill="black"/>
<path d="M476.11 512.847C472.299 513.727 470.1 517.539 470.979 521.35C471.859 525.162 475.671 527.36 479.482 526.481C483.293 525.601 485.492 521.79 484.613 517.978C483.733 514.313 479.922 511.968 476.11 512.847Z" fill="black"/>
<path d="M417.765 250.148C418.644 253.666 422.163 255.865 425.828 254.985C429.493 254.106 431.545 250.588 430.665 246.923C429.786 243.258 426.267 241.205 422.603 242.085C418.938 242.965 416.885 246.483 417.765 250.148Z" fill="black"/>
<path d="M450.309 312.598L412.634 319.341L413.954 324.619L451.482 317.875L450.309 312.598Z" fill="black"/>
<path d="M489.304 467.403L475.231 468.722L476.257 479.571L491.796 477.958L489.304 467.403Z" fill="black"/>
<path d="M516.571 637.161L485.346 621.915L486.958 628.805L508.361 639.066L516.571 637.161Z" fill="black"/>
<path d="M467.608 384.576L427.587 381.498L428.906 386.775L468.78 389.854L467.608 384.576Z" fill="black"/>
<path d="M417.765 340.744L436.089 338.984L434.917 328.283L415.273 330.189L417.765 340.744Z" fill="black"/>
<path d="M458.665 347.34L449.869 343.089L447.524 347.927L460.277 354.084L458.665 347.34Z" fill="black"/>
<path d="M443.566 447.905L475.524 417.56L473.032 407.592L441.074 437.937L443.566 447.905Z" fill="black"/>
<path d="M446.351 459.779L468.194 458.607L467.607 449.811L444.299 451.13L446.351 459.779Z" fill="black"/>
<path d="M392.257 232.557L427.44 223.761L421.576 200.305C421.576 200.305 399.587 185.646 386.98 210.421L392.257 232.557Z" fill="black"/>
<path d="M488.863 641.852C488.863 641.852 443.566 712.365 440.634 738.899C437.702 765.286 452.361 872.447 443.566 900.301C443.566 900.301 480.214 900.301 497.806 891.505L489.01 813.662C489.01 813.662 509.534 862.039 512.466 887.107L528.591 884.175C528.591 884.175 521.261 832.866 513.931 819.673C513.931 819.673 538.853 860.72 540.319 879.777L584.297 865.118C584.297 865.118 572.423 828.322 571.251 809.411C571.251 808.385 571.104 807.359 571.104 806.333C571.104 788.741 603.355 859.107 603.355 859.107C603.355 859.107 622.412 860.573 642.936 840.05C642.936 840.05 588.695 772.615 587.229 725.558C587.229 725.558 626.81 820.992 663.606 831.254C663.606 831.254 701.721 816.594 729.574 784.343C729.574 784.343 668.004 775.548 640.004 719.841C612.151 664.135 559.229 646.396 524.046 634.669L488.863 641.852Z" fill="black"/>
<path d="M440.781 738.899L617.428 686.71L606.58 676.302L445.032 723.359L440.781 738.899Z" fill="white"/>
<path d="M395.117 232.865L390.844 233.908L405.124 292.441L409.396 291.399L395.117 232.865Z" fill="black"/>
<path d="M424.353 201.9L420.099 203.014L436.97 267.393L441.224 266.278L424.353 201.9Z" fill="black"/>
<path d="M509.184 556.107L504.932 557.233L525.573 635.176L529.824 634.05L509.184 556.107Z" fill="black"/>
<path d="M468.399 542.696L464.114 543.684L486.842 642.246L491.128 641.258L468.399 542.696Z" fill="black"/>
<path d="M511.147 539.968C511.147 539.968 489.744 598.899 525.073 612.68L511.147 539.968Z" fill="#6857A7"/>
</svg>
