<svg width="1000" height="1000" viewBox="0 0 1000 1000" fill="none" xmlns="http://www.w3.org/2000/svg">
<rect width="1000" height="1000" fill="white"/>
<path d="M414.868 367.559C433.764 352.749 368.14 317.128 345.925 315.213C323.71 313.298 270.47 320.831 228.466 352.238C186.461 383.646 144.584 486.806 145.095 564.048C145.606 641.29 156.841 660.186 156.841 660.186L131.051 725.81C131.051 725.81 198.079 793.988 291.536 766.538L309.283 728.874C309.283 728.874 383.205 702.446 391.376 642.184C399.548 581.923 364.948 548.6 337.881 531.364C310.815 513.745 390.483 386.71 414.868 367.559Z" fill="#F05050"/>
<path d="M555.564 534.939L301.112 517.575L345.286 346.11L585.95 416.713L555.564 534.939Z" fill="white"/>
<path d="M347.968 350.962L581.354 419.394L552.628 530.853L305.963 514L347.968 350.962ZM345.286 346.11L301.112 517.575L555.564 534.939L585.95 416.713L345.286 346.11Z" fill="black"/>
<path d="M382.184 447.61C396.483 392.072 367.757 335.896 317.198 317.766L317.326 317.383L249.021 299.764C245.957 298.615 242.765 297.594 239.445 296.828C236.126 295.934 232.934 295.296 229.615 294.785C176.758 286.614 124.795 321.852 110.495 377.262C96.196 432.672 124.795 488.593 174.97 506.978L174.715 507.999L262.426 530.597L262.554 530.214C315.539 538.385 367.885 503.148 382.184 447.61Z" fill="black"/>
<path d="M124.739 334.439L123.243 340.25L200.765 360.198L202.26 354.387L124.739 334.439Z" fill="white"/>
<path d="M133.925 412.96L129.079 416.5L176.302 481.141L181.147 477.601L133.925 412.96Z" fill="white"/>
<path d="M175.353 410.968L199.484 404.201L226.423 441.099L229.487 438.928L203.314 403.18L275.577 383.008L322.561 404.84L325.114 399.35L284.514 380.582L305.325 374.709L303.665 368.964L276.087 376.624L252.468 365.644L249.914 371.134L267.15 379.177L199.484 397.945L167.693 354.409L164.756 356.579L195.781 398.967L173.694 405.095L175.353 410.968Z" fill="white"/>
<path d="M165.142 438.695L164.01 442.22L263.687 474.235L264.819 470.709L165.142 438.695Z" fill="white"/>
<path d="M312.347 475.57L305.325 467.782L297.537 474.804L276.471 461.398L274.555 464.335L294.855 477.23L279.918 490.763L286.94 498.551L304.048 483.103L325.114 496.509L327.029 493.445L306.729 480.677L312.347 475.57Z" fill="white"/>
<path d="M331.439 408.773L315.959 439.288L322.563 442.638L338.042 412.123L331.439 408.773Z" fill="white"/>
<path d="M238.935 517.448L245.574 520.768L255.404 501.361L265.108 514.639L268.044 512.469L257.192 497.659L261.022 490.254L254.511 486.934L252.34 491.02L206.25 427.949L203.314 430.12L250.553 494.722L238.935 517.448Z" fill="white"/>
<path d="M224.97 351.379L209.491 381.893L216.094 385.243L231.574 354.729L224.97 351.379Z" fill="white"/>
<path d="M178.413 306.921L172.774 340.668L180.077 341.889L185.716 308.141L178.413 306.921Z" fill="white"/>
<path d="M226.852 279.734L221.209 313.482L228.513 314.703L234.155 280.955L226.852 279.734Z" fill="white"/>
<path d="M233.561 448.054L230.737 454.899L262.367 467.949L265.191 461.104L233.561 448.054Z" fill="white"/>
<path d="M258.845 344.542L256.022 351.388L287.651 364.434L290.475 357.589L258.845 344.542Z" fill="white"/>
<path d="M198.198 319.179L196.282 322.197L246.837 354.286L248.753 351.268L198.198 319.179Z" fill="white"/>
<path d="M380.78 383.263L357.032 377.134L326.135 334.875L321.284 338.322L347.84 374.836L322.816 368.325L321.922 371.772L351.159 379.305L368.523 403.052L373.374 399.477L360.352 381.603L380.013 386.71L380.78 383.263Z" fill="white"/>
<path d="M224.517 402.889L222.601 405.907L273.157 437.996L275.072 434.978L224.517 402.889Z" fill="white"/>
<path d="M296.132 335.513C298.686 336.152 301.239 334.62 302.005 332.066C302.643 329.513 301.111 326.96 298.558 326.194C296.005 325.555 293.451 327.087 292.685 329.641C292.047 332.194 293.579 334.747 296.132 335.513Z" fill="white"/>
<path d="M232.04 485.402C229.487 484.764 226.933 486.296 226.167 488.849C225.529 491.403 227.061 493.956 229.615 494.722C232.168 495.361 234.721 493.828 235.488 491.275C236.126 488.721 234.594 486.04 232.04 485.402Z" fill="white"/>
<path d="M145.606 373.432C146.372 370.623 144.584 367.686 141.775 367.048C138.967 366.282 136.03 368.069 135.392 370.878C134.626 373.687 136.413 376.624 139.222 377.262C142.031 378.028 144.967 376.24 145.606 373.432Z" fill="white"/>
<path d="M360.224 455.525C360.99 452.717 359.203 449.78 356.394 449.142C353.585 448.376 350.649 450.163 350.01 452.972C349.244 455.781 351.032 458.717 353.84 459.356C356.649 459.994 359.458 458.334 360.224 455.525Z" fill="white"/>
<path d="M288.344 419.011C289.11 416.202 287.323 413.266 284.514 412.628C281.705 411.862 278.769 413.649 278.13 416.458C277.364 419.267 279.152 422.203 281.961 422.841C284.769 423.608 287.706 421.82 288.344 419.011Z" fill="white"/>
<path d="M147.393 476.591C144.584 475.825 141.648 477.613 141.009 480.422C140.243 483.23 142.031 486.167 144.84 486.805C147.648 487.571 150.585 485.784 151.223 482.975C151.989 480.294 150.329 477.358 147.393 476.591Z" fill="white"/>
<path d="M240.339 373.176C240.977 370.751 239.445 368.325 237.02 367.687C234.594 367.048 232.168 368.58 231.53 370.878C230.891 373.304 232.423 375.73 234.721 376.368C237.275 377.007 239.828 375.602 240.339 373.176Z" fill="white"/>
<path d="M284.514 328.619C282.982 328.109 281.45 327.726 279.918 327.215C235.36 315.724 189.142 345.728 176.758 394.116C164.246 442.504 190.291 491.02 234.849 502.51C236.381 502.893 238.041 503.276 239.573 503.532C274.683 497.148 305.325 469.06 315.411 429.736C325.369 390.541 312.091 351.09 284.514 328.619Z" fill="white"/>
<path d="M282.854 365.772C282.854 365.772 218.635 362.708 193.483 444.036L282.854 365.772Z" fill="white"/>
<path d="M195.398 444.547L191.696 443.397C204.846 400.754 228.849 381.348 246.723 372.667C266.129 363.219 282.216 363.857 282.982 363.857L282.854 367.687C282.727 367.687 266.895 367.049 248.383 376.241C231.147 384.54 208.165 403.308 195.398 444.547Z" fill="black"/>
<path d="M255.277 396.796C255.277 396.796 215.443 403.052 203.825 464.08L255.277 396.796Z" fill="white"/>
<path d="M205.74 464.463L202.037 463.697C213.783 402.031 253.362 395.136 255.021 394.881L255.66 398.711L255.404 396.796L255.66 398.711C255.149 398.839 216.847 405.605 205.74 464.463Z" fill="black"/>
<path d="M335.711 568.006C352.181 562.261 386.78 553.962 386.78 553.962C386.78 553.962 382.95 522.937 389.334 500.339C399.548 464.591 435.168 464.974 441.68 520.767C444.105 541.833 446.787 615.245 425.082 638.226C357.798 709.468 338.264 713.553 338.264 713.553L335.711 568.006Z" fill="#F05050"/>
<path d="M792.526 568.773L598.462 534.301L652.596 365.645L829.806 452.59L792.526 568.773Z" fill="white"/>
<path d="M654.894 371.135L825.21 454.633L789.972 564.432L603.569 531.364L654.894 371.135ZM652.596 365.645L598.462 534.173L792.526 568.645L829.806 452.462L652.596 365.645Z" fill="black"/>
<path d="M605.229 537.62C579.056 539.279 550.585 550.132 549.436 570.559C548.287 590.987 622.21 587.668 655.277 633.119C688.217 678.571 725.752 720.703 762.267 711.638L778.226 753.77L820.358 726.449L751.925 551.408C751.925 551.408 641.743 535.322 605.229 537.62Z" fill="black"/>
<path d="M653.617 373.943C653.617 373.943 680.428 340.748 723.199 368.453C723.199 368.453 743.627 365.006 772.098 395.775C800.569 426.545 857.383 458.335 860.831 511.83C864.278 565.325 899.516 699.51 899.516 699.51C899.516 699.51 879.088 719.937 806.186 747.259L785.12 708.064C785.12 708.064 721.411 683.04 710.049 609.117C698.686 535.194 715.794 511.192 723.837 474.805C731.881 438.418 695.111 388.115 653.617 373.943Z" fill="#F7C748"/>
<path d="M777.715 457.952C763.161 385.179 723.965 369.858 723.454 369.73L723.837 368.581C724.22 368.709 764.182 384.285 778.864 457.824L777.715 457.952Z" fill="black"/>
<path d="M683.493 469.06C700.984 414.415 675.577 356.707 626.295 335.641L626.423 335.258L559.267 313.681C556.202 312.405 553.138 311.128 549.947 310.107C546.755 309.085 543.563 308.191 540.243 307.553C488.025 296.318 434.019 328.364 416.528 382.88C399.037 437.397 424.316 494.849 473.343 516.171L473.087 517.065L559.267 544.77L559.394 544.387C611.613 555.877 665.874 523.704 683.493 469.06Z" fill="black"/>
<path d="M592.845 344.578C591.313 343.94 589.781 343.429 588.249 342.918C544.457 328.874 496.579 356.069 481.258 403.691C465.938 451.313 489.046 501.233 532.838 515.277C534.37 515.788 535.902 516.171 537.435 516.554C572.8 512.213 605.101 486.04 617.486 447.355C630.125 408.798 619.145 368.708 592.845 344.578Z" fill="white"/>
<path d="M433.497 341.458L431.663 347.172L507.888 371.636L509.722 365.922L433.497 341.458Z" fill="white"/>
<path d="M437.621 419.61L432.576 422.86L475.932 490.151L480.976 486.901L437.621 419.61Z" fill="white"/>
<path d="M479.088 420.416L503.729 415.182L528.37 453.484L531.434 451.569L507.559 414.288L580.843 398.456L626.423 422.97L629.232 417.607L589.908 396.541L610.974 391.945L609.698 386.072L581.737 392.073L558.756 379.816L555.82 385.051L572.545 394.116L503.984 408.926L474.747 363.474L471.683 365.517L500.154 409.692L477.811 414.543L479.088 420.416Z" fill="white"/>
<path d="M467.21 447.751L465.873 451.204L563.499 489.008L564.836 485.555L467.21 447.751Z" fill="white"/>
<path d="M612.123 492.935L605.484 484.764L597.313 491.275L577.141 476.721L575.098 479.529L594.504 493.573L578.801 506.213L585.44 514.384L603.442 499.957L623.614 514.64L625.784 511.703L606.25 497.659L612.123 492.935Z" fill="white"/>
<path d="M635.167 427.463L617.925 457.019L624.322 460.75L641.564 431.194L635.167 427.463Z" fill="white"/>
<path d="M536.413 530.47L542.797 534.173L553.649 515.405L562.586 529.194L565.778 527.151L555.82 511.83L560.033 504.553L553.649 500.85L551.351 504.808L508.963 439.184L505.899 441.227L549.18 508.383L536.413 530.47Z" fill="white"/>
<path d="M532.433 363.873L515.192 393.429L521.588 397.16L538.83 367.604L532.433 363.873Z" fill="white"/>
<path d="M488.431 316.66L480.825 350.021L488.045 351.668L495.651 318.307L488.431 316.66Z" fill="white"/>
<path d="M538.454 292.472L530.844 325.833L538.064 327.48L545.674 294.119L538.454 292.472Z" fill="white"/>
<path d="M535.217 460.781L531.996 467.449L562.808 482.33L566.028 475.662L535.217 460.781Z" fill="white"/>
<path d="M566.729 359.405L563.509 366.073L594.321 380.953L597.541 374.285L566.729 359.405Z" fill="white"/>
<path d="M507.137 330.501L505.048 333.401L553.633 368.4L555.723 365.5L507.137 330.501Z" fill="white"/>
<path d="M685.919 404.84L662.554 397.307L634.083 353.26L629.104 356.58L653.49 394.499L628.849 386.583L627.699 389.902L656.426 399.095L672.385 423.864L677.492 420.544L665.491 402.031L684.769 408.16L685.919 404.84Z" fill="white"/>
<path d="M528.492 415.639L526.402 418.54L574.988 453.539L577.077 450.638L528.492 415.639Z" fill="white"/>
<path d="M604.08 352.111C606.633 352.877 609.315 351.473 610.081 349.047C610.847 346.494 609.442 343.813 607.016 343.047C604.463 342.28 601.782 343.685 601.016 346.111C600.25 348.664 601.654 351.345 604.08 352.111Z" fill="white"/>
<path d="M531.306 498.043C528.753 497.277 526.072 498.681 525.306 501.107C524.539 503.66 525.944 506.341 528.37 507.107C530.923 507.874 533.604 506.469 534.37 504.043C535.264 501.617 533.86 498.936 531.306 498.043Z" fill="white"/>
<path d="M451.638 381.221C452.532 378.412 451 375.476 448.191 374.582C445.382 373.689 442.446 375.221 441.552 378.029C440.658 380.838 442.19 383.775 444.999 384.668C447.808 385.562 450.745 384.03 451.638 381.221Z" fill="white"/>
<path d="M591.44 435.099C592.334 432.29 590.802 429.353 587.993 428.46C585.184 427.566 582.248 429.098 581.354 431.907C580.46 434.716 581.992 437.652 584.801 438.546C587.61 439.44 590.547 437.907 591.44 435.099Z" fill="white"/>
<path d="M447.425 484.381C444.616 483.487 441.68 485.019 440.786 487.828C439.892 490.637 441.424 493.573 444.233 494.467C447.042 495.361 449.978 493.829 450.872 491.02C451.766 488.211 450.234 485.275 447.425 484.381Z" fill="white"/>
<path d="M546.244 386.455C547.01 384.03 545.733 381.476 543.307 380.71C540.882 379.944 538.328 381.221 537.562 383.647C536.796 386.072 538.073 388.626 540.499 389.392C542.925 390.158 545.478 388.881 546.244 386.455Z" fill="white"/>
<path d="M589.142 381.604C589.142 381.604 525.178 374.71 495.43 454.506L589.142 381.604Z" fill="white"/>
<path d="M497.217 455.143L493.643 453.738C509.219 411.862 534.37 393.987 552.755 386.327C572.672 378.028 588.759 379.56 589.397 379.688L589.015 383.518C588.887 383.518 573.183 381.986 554.032 390.03C536.413 397.435 512.283 414.671 497.217 455.143Z" fill="black"/>
<path d="M559.777 410.968C559.777 410.968 519.688 414.926 504.495 475.188L559.777 410.968Z" fill="white"/>
<path d="M506.282 475.698L502.58 474.805C517.9 413.904 557.862 409.308 559.522 409.181L559.905 413.011C559.522 413.011 520.965 417.607 506.282 475.698Z" fill="black"/>
<path d="M785.961 468.807L784.836 469.413L792.826 484.251L793.95 483.646L785.961 468.807Z" fill="black"/>
<path d="M791.177 413.199L790.079 413.851L816.426 458.194L817.524 457.542L791.177 413.199Z" fill="black"/>
<path d="M822.951 468.662L821.954 469.46L831.046 480.824L832.043 480.027L822.951 468.662Z" fill="black"/>
<path d="M583.652 546.174C568.331 546.174 551.606 543.493 533.477 538.258C531.945 537.747 530.285 537.364 529.902 537.237C530.412 537.237 531.306 536.981 531.562 536.088L527.987 534.683C528.753 532.896 529.902 533.279 534.37 534.556C578.418 547.323 613.911 544.259 640.084 525.363L642.382 528.427C626.295 540.301 606.506 546.174 583.652 546.174Z" fill="white"/>
<path d="M512.538 526.896C506.793 526.896 501.431 526.385 496.707 525.746C474.875 522.554 459.426 514.383 458.788 514L460.575 510.681C461.214 511.064 522.369 542.982 569.991 502.382L572.417 505.319C552.628 522.299 530.795 526.896 512.538 526.896Z" fill="white"/>
<path d="M149.691 514.639C149.691 514.639 278.258 536.089 307.623 606.309C307.623 606.309 340.562 562.645 369.034 557.921C369.034 557.921 358.181 544.259 347.84 537.876C337.498 531.492 332.519 527.662 332.519 520.64L321.029 516.171C321.029 516.171 304.431 539.153 240.594 522.555C176.758 505.958 153.777 494.595 153.777 494.595C153.777 494.595 148.159 509.022 149.691 514.639Z" fill="black"/>
<path d="M235.743 704.872C200.76 704.872 179.567 690.19 167.693 677.295C153.904 662.229 149.691 646.653 149.436 646.015L153.138 644.993C153.138 645.121 157.352 660.441 170.63 674.869C188.376 694.147 213.145 702.829 244.169 700.786L244.425 704.616C241.488 704.872 238.552 704.872 235.743 704.872Z" fill="black"/>
<path d="M385.887 541.832C385.887 541.832 446.148 533.023 442.063 584.347C442.063 584.347 446.914 528.427 440.531 504.169C435.934 486.805 430.7 478.506 415.762 475.953C400.824 473.527 379.758 487.699 385.887 541.832Z" fill="black"/>
<path d="M219.018 516.809C185.567 516.809 156.075 497.785 154.67 496.764L156.713 493.572C157.096 493.828 197.313 519.873 235.615 511.191L236.509 514.894C230.636 516.298 224.763 516.809 219.018 516.809Z" fill="white"/>
<path d="M291.408 683.933L288.089 682.018C306.346 651.504 310.942 623.926 301.495 599.796C284.514 556.26 226.933 538.896 226.423 538.769L227.444 535.066C229.87 535.832 287.323 553.068 305.069 598.392C314.9 623.544 310.304 652.27 291.408 683.933Z" fill="black"/>
<path d="M259.107 256.484L220.805 238.61L231.019 227.119L259.107 256.484Z" fill="black"/>
<path d="M476.535 279.465L451 261.08L458.15 248.824L476.535 279.465Z" fill="black"/>
<path d="M99.5156 636.95L128.88 631.843L113.56 644.611L99.5156 636.95Z" fill="black"/>
<path d="M617.869 645.887V686.743H622.976L625.529 652.271L617.869 645.887Z" fill="black"/>
<path d="M577.013 638.227C581.949 638.227 585.95 634.225 585.95 629.29C585.95 624.354 581.949 620.353 577.013 620.353C572.077 620.353 568.076 624.354 568.076 629.29C568.076 634.225 572.077 638.227 577.013 638.227Z" fill="black"/>
<path d="M499.005 267.208C502.39 267.208 505.133 264.465 505.133 261.08C505.133 257.695 502.39 254.952 499.005 254.952C495.62 254.952 492.877 257.695 492.877 261.08C492.877 264.465 495.62 267.208 499.005 267.208Z" fill="black"/>
</svg>
