<svg width="1000" height="1000" viewBox="0 0 1000 1000" fill="none" xmlns="http://www.w3.org/2000/svg">
<rect width="1000" height="1000" fill="white"/>
<path d="M245.031 577.647H150.144C150.144 577.647 64.4516 709.308 150.144 874.622H272.612C272.612 874.622 315.458 905.326 459.436 899.081C603.413 892.836 719.636 886.765 735.074 828.653C750.339 770.542 735.074 758.226 735.074 758.226C735.074 758.226 796.308 706.186 762.656 635.758C762.656 635.758 805.502 537.75 735.074 513.291C664.647 488.832 499.333 500.975 499.333 500.975C499.333 500.975 518.761 325.773 494.476 280.672C463.599 223.428 413.467 216.316 389.008 311.202C364.549 406.262 367.498 513.291 245.031 577.647Z" fill="#6857A7"/>
<path d="M400.63 358.211L399.069 353.353C451.456 335.833 440.354 258.988 440.181 258.294L445.385 257.427C445.211 258.12 457.181 339.303 400.63 358.211Z" fill="white"/>
<path d="M485.629 582.504C485.629 582.504 455.966 661.258 434.63 685.717C413.294 710.176 377.386 730.818 377.386 730.818C377.386 730.818 421.099 784.42 436.538 818.072C436.538 818.072 441.742 763.604 492.741 755.624C492.741 755.624 453.017 749.032 460.65 700.288C466.721 661.778 508.353 645.646 553.628 641.483C553.455 641.483 473.66 637.84 485.629 582.504Z" fill="black"/>
<path d="M399.763 472.525H369.059V477.729H399.763V472.525Z" fill="white"/>
<path d="M399.763 448.067H384.498V453.271H399.763V448.067Z" fill="white"/>
<path d="M370.1 737.756L368.019 732.899C430.467 706.359 462.384 644.431 478.343 597.074C495.69 545.555 498.119 499.933 498.119 499.413L503.323 499.76C503.323 500.28 500.721 546.595 483.374 598.809C467.068 647.206 434.283 710.522 370.1 737.756Z" fill="white"/>
<path d="M599.597 644.085C569.76 644.085 543.22 643.044 530.731 639.922C507.833 634.198 494.996 626.738 488.405 614.942C481.466 602.8 481.293 586.494 488.058 563.423C502.802 513.291 683.208 526.995 690.84 527.515L690.493 532.719C689.973 532.719 643.657 529.077 596.127 531.505C534.2 534.628 498.639 546.076 493.088 564.811C486.843 585.974 486.843 601.586 492.915 612.167C498.813 622.575 510.608 629.34 532.118 634.718C568.026 643.738 728.83 634.718 730.391 634.718L730.738 639.922C726.228 640.269 657.014 644.085 599.597 644.085Z" fill="white"/>
<path d="M724.32 759.44H506.966C487.017 759.44 472.619 753.716 464.466 742.614C455.099 729.951 454.058 710.176 461.691 685.543C474.354 644.432 544.781 639.054 547.904 638.881L548.251 644.085C547.557 644.085 478.344 649.462 466.721 687.105C459.609 710.002 460.303 728.043 468.803 739.492C476.088 749.206 488.925 754.236 507.139 754.236H724.493V759.44H724.32Z" fill="white"/>
<path d="M571.148 871.847C523.618 871.847 474.007 866.296 450.069 846.347C440.701 838.541 435.844 828.827 435.497 817.551C433.936 766.032 477.997 755.103 491.701 753.022H492.221L493.262 758.052C493.088 758.052 492.915 758.052 492.568 758.226C480.078 760.134 439.313 770.195 440.875 817.378C441.222 827.265 445.385 835.418 453.711 842.357C504.017 884.51 682.514 858.663 684.422 858.316L685.116 863.52C680.779 864.04 627.525 871.847 571.148 871.847Z" fill="white"/>
<path d="M534.026 833.511L528.822 833.164C529.516 818.593 525.7 807.838 517.2 801.246C497.425 785.461 458.915 796.042 458.568 796.042L457.181 791.011C458.915 790.491 498.639 779.736 520.496 797.083C530.21 805.062 534.894 817.205 534.026 833.511Z" fill="white"/>
<path d="M561.434 745.389L556.404 743.828C563.342 721.451 561.954 704.798 552.067 694.216C530.904 671.145 477.303 682.767 476.782 682.941L475.568 677.91C477.823 677.39 532.639 665.594 555.883 690.747C567.159 702.716 568.893 721.104 561.434 745.389Z" fill="white"/>
<path d="M595.26 616.156L590.056 615.636C591.444 598.81 587.454 586.147 577.913 577.82C555.71 558.739 510.955 569.147 510.608 569.32L509.394 564.29C511.302 563.77 557.097 553.015 581.383 573.831C592.138 583.371 596.821 597.595 595.26 616.156Z" fill="white"/>
<path d="M683.381 337.394L680.259 315.537L658.923 309.813L680.779 306.691L686.504 285.354L689.626 307.211L710.963 312.935L689.106 316.058L683.381 337.394Z" fill="black"/>
<path d="M860.318 590.656L857.195 568.799L835.859 563.075L857.716 559.952L863.44 538.616L866.562 560.473L887.899 566.197L866.042 569.319L860.318 590.656Z" fill="black"/>
<path d="M232.368 434.535L229.245 412.679L207.909 406.954L229.766 403.832L235.49 382.495L238.612 404.352L259.949 410.077L238.092 413.199L232.368 434.535Z" fill="black"/>
<path d="M357.784 217.008L281.979 186.825L287.877 166.529L357.784 217.008Z" fill="black"/>
<path d="M386.059 194.805L341.652 126.286L372.876 99.9189L386.059 194.805Z" fill="black"/>
</svg>
