<svg width="1000" height="1000" viewBox="0 0 1000 1000" fill="none" xmlns="http://www.w3.org/2000/svg">
<rect width="1000" height="1000" fill="white"/>
<path d="M251.616 146.155L246.969 188.543L318.259 549.98L573.951 504.985L585.398 491.498L251.616 146.155Z" fill="black"/>
<path d="M517.974 99.9708L250.717 145.435L317.203 536.265L584.46 490.8L517.974 99.9708Z" fill="white"/>
<path d="M515.355 103.992L580.751 488.098L320.186 532.413L254.789 148.308L515.355 103.992ZM518.075 100.026L250.822 145.475L317.352 536.267L584.605 490.818L518.075 100.026Z" fill="black"/>
<path d="M401.816 159.944L283.048 180.148L308.574 330.201L427.342 309.997L401.816 159.944Z" fill="black"/>
<path d="M359.965 185.339L357.803 187.17L366.301 197.201L368.463 195.37L359.965 185.339Z" fill="white"/>
<path d="M323.236 178.879L312.235 186.079L313.787 188.45L324.787 181.25L323.236 178.879Z" fill="white"/>
<path d="M400.23 224.682L398.715 227.077L409.826 234.105L411.341 231.711L400.23 224.682Z" fill="white"/>
<path d="M404.171 174.998L394.834 184.254L396.828 186.266L406.166 177.01L404.171 174.998Z" fill="white"/>
<path d="M379.575 218.691L385.242 211.211L404.736 206.564L404.283 204.297L387.395 208.264L393.402 200.444L392.382 199.537L385.355 208.831L374.362 211.324L374.928 213.591L383.202 211.664L378.442 217.785L379.575 218.691Z" fill="white"/>
<path d="M403.943 191.376C403.376 192.17 403.49 193.303 404.283 193.983C405.076 194.55 406.21 194.436 406.89 193.643C407.456 192.85 407.343 191.716 406.55 191.036C405.756 190.356 404.623 190.583 403.943 191.376Z" fill="white"/>
<path d="M375.608 176.189C376.515 176.869 377.762 176.643 378.442 175.849C379.122 174.943 378.895 173.696 378.102 173.016C377.195 172.336 375.948 172.563 375.268 173.356C374.588 174.149 374.702 175.509 375.608 176.189Z" fill="white"/>
<path d="M398.956 166.102C399.749 166.669 400.769 166.556 401.336 165.762C401.903 164.969 401.789 163.949 400.996 163.382C400.203 162.816 399.183 162.929 398.616 163.722C398.049 164.402 398.163 165.536 398.956 166.102Z" fill="white"/>
<path d="M375.608 190.357L377.082 192.057L389.776 180.61L388.756 188.77L391.022 189.11L392.382 178.116L399.749 171.429L398.276 169.729L392.836 174.603L395.102 157.149L392.722 157.942L390.229 176.983L375.608 190.357Z" fill="white"/>
<path d="M379.122 162.702L372.095 169.275L373.001 170.295L382.295 161.568L379.122 162.702Z" fill="white"/>
<path d="M351.807 174.035L343.987 179.476L344.667 180.496L352.26 175.282L353.167 178.002L357.021 176.642L355.661 172.902L361.668 168.708L356.907 170.409L355.207 171.655L355.094 171.089L351.24 172.449L351.807 174.035Z" fill="white"/>
<path d="M349.994 240.339C360.259 240.339 368.581 232.017 368.581 221.752C368.581 211.486 360.259 203.164 349.994 203.164C339.728 203.164 331.406 211.486 331.406 221.752C331.406 232.017 339.728 240.339 349.994 240.339Z" fill="white"/>
<path d="M389.096 282.841L337.526 291.568L332.993 265.274C330.953 253.6 338.886 242.493 350.56 240.453L359.741 238.866C371.415 236.826 382.522 244.759 384.562 256.433L389.096 282.841Z" fill="white"/>
<path d="M366.314 312.309C370.258 312.309 373.455 309.112 373.455 305.169C373.455 301.225 370.258 298.029 366.314 298.029C362.371 298.029 359.174 301.225 359.174 305.169C359.174 309.112 362.371 312.309 366.314 312.309Z" fill="white"/>
<path d="M514.126 205.155L395.358 225.359L420.884 375.411L539.652 355.207L514.126 205.155Z" fill="black"/>
<path d="M472.254 230.517L470.092 232.349L478.59 242.38L480.752 240.549L472.254 230.517Z" fill="white"/>
<path d="M435.433 224.129L424.433 231.328L425.985 233.699L436.985 226.499L435.433 224.129Z" fill="white"/>
<path d="M512.529 270.002L511.014 272.397L522.125 279.425L523.64 277.031L512.529 270.002Z" fill="white"/>
<path d="M516.457 220.18L507.12 229.435L509.115 231.448L518.452 222.192L516.457 220.18Z" fill="white"/>
<path d="M491.78 263.913L497.447 256.433L517.055 251.786L516.488 249.519L499.714 253.486L505.721 245.666L504.588 244.872L497.561 254.053L486.68 256.66L487.134 258.813L495.407 256.886L490.76 263.12L491.78 263.913Z" fill="white"/>
<path d="M516.262 236.599C515.695 237.392 515.808 238.526 516.602 239.206C517.395 239.772 518.528 239.659 519.208 238.866C519.775 238.072 519.662 236.939 518.868 236.259C517.962 235.692 516.828 235.805 516.262 236.599Z" fill="white"/>
<path d="M487.927 221.411C488.834 222.091 490.08 221.864 490.76 221.071C491.44 220.164 491.214 218.917 490.42 218.237C489.514 217.557 488.267 217.784 487.587 218.577C486.794 219.484 487.02 220.731 487.927 221.411Z" fill="white"/>
<path d="M511.161 211.324C511.955 211.891 512.975 211.778 513.541 210.984C514.108 210.191 513.995 209.171 513.201 208.604C512.408 208.037 511.388 208.151 510.821 208.944C510.255 209.624 510.481 210.758 511.161 211.324Z" fill="white"/>
<path d="M487.814 235.578L489.4 237.279L501.981 225.831L500.961 233.992L503.228 234.332L504.701 223.451L512.068 216.651L510.481 214.951L505.154 219.824L507.308 202.37L504.928 203.163L502.434 222.318L487.814 235.578Z" fill="white"/>
<path d="M491.44 207.924L484.3 214.498L485.207 215.518L494.614 206.791L491.44 207.924Z" fill="white"/>
<path d="M464.012 219.258L456.192 224.698L456.985 225.831L464.466 220.504L465.486 223.224L469.226 221.978L467.979 218.124L473.986 214.044L469.226 215.631L467.526 216.877L467.299 216.311L463.446 217.671L464.012 219.258Z" fill="white"/>
<path d="M462.312 285.562C472.578 285.562 480.9 277.24 480.9 266.974C480.9 256.708 472.578 248.386 462.312 248.386C452.047 248.386 443.725 256.708 443.725 266.974C443.725 277.24 452.047 285.562 462.312 285.562Z" fill="white"/>
<path d="M501.301 328.063L449.732 336.79L445.198 310.495C443.158 298.821 451.092 287.714 462.766 285.674L471.946 284.087C483.62 282.047 494.727 289.981 496.767 301.655L501.301 328.063Z" fill="white"/>
<path d="M478.52 357.645C482.463 357.645 485.66 354.448 485.66 350.504C485.66 346.561 482.463 343.364 478.52 343.364C474.576 343.364 471.379 346.561 471.379 350.504C471.379 354.448 474.576 357.645 478.52 357.645Z" fill="white"/>
<path d="M328.913 135.5L349.2 154.541L429.557 140.827L445.198 115.666L328.913 135.5Z" fill="black"/>
<path d="M502.9 128.276C506.725 127.625 509.231 123.596 508.496 119.276C507.762 114.957 504.064 111.983 500.239 112.634C496.413 113.285 493.907 117.314 494.642 121.633C495.377 125.953 499.074 128.927 502.9 128.276Z" fill="black"/>
<path d="M474.609 129.917C476.893 129.529 478.386 127.113 477.945 124.522C477.504 121.93 475.296 120.144 473.013 120.532C470.73 120.921 469.236 123.337 469.677 125.928C470.118 128.52 472.326 130.306 474.609 129.917Z" fill="black"/>
<path d="M409.157 313.215L394.082 224.584L413.803 221.411L414.143 223.678L396.689 226.398L411.423 312.875L409.157 313.215Z" fill="white"/>
<path d="M454.605 498.071C470.379 498.071 483.167 485.284 483.167 469.51C483.167 453.736 470.379 440.948 454.605 440.948C438.831 440.948 426.044 453.736 426.044 469.51C426.044 485.284 438.831 498.071 454.605 498.071Z" fill="black"/>
<path d="M462.538 460.068L439.075 464.06L442.002 481.266L465.465 477.275L462.538 460.068Z" fill="white"/>
<path d="M474.666 474.156L466.053 470.756L465.486 467.696L472.513 461.689L474.666 474.156Z" fill="white"/>
<path d="M276.21 312.536L248.102 329.197C248.102 329.197 271.563 413.521 270.203 414.881C268.843 416.241 293.664 468.263 293.664 468.263L288.904 387L276.21 312.536Z" fill="black"/>
<path d="M263.516 267.654C263.516 267.654 200.16 318.656 188.713 434.829C177.265 550.888 188.713 657.539 188.713 657.539C188.713 657.539 240.055 697.548 335.26 657.539V587.156C335.26 587.156 297.178 440.609 291.511 446.276C291.511 446.276 289.584 431.088 274.397 412.048C261.249 380.993 253.769 348.011 270.657 314.123L263.516 267.654Z" fill="#6857A7"/>
<path d="M212.06 389.266C208.207 360.592 230.988 310.383 232.008 308.229L234.615 309.363C234.388 309.929 211.267 361.045 214.894 388.813L212.06 389.266Z" fill="white"/>
<path d="M212.297 407.565L206.579 420.898L209.183 422.015L214.901 408.681L212.297 407.565Z" fill="white"/>
<path d="M554.797 899.97C557.05 899.97 558.877 898.144 558.877 895.89C558.877 893.637 557.05 891.81 554.797 891.81C552.543 891.81 550.717 893.637 550.717 895.89C550.717 898.144 552.543 899.97 554.797 899.97Z" fill="white"/>
<path d="M803.689 688.481C782.041 622.177 746.226 551.227 717.098 524.933C709.277 518.246 697.604 515.639 680.829 512.579C646.601 508.725 657.595 509.972 626.314 496.825C618.72 492.291 599.679 488.778 591.972 490.138C581.658 480.504 534.169 445.369 513.995 433.355C488.947 418.394 475.346 441.855 486.454 460.67C496.541 480.164 521.022 506.572 531.336 517.339C565.904 559.954 590.612 572.762 603.872 629.658C601.266 628.184 561.824 605.516 556.837 598.829C550.49 591.122 514.108 538.193 498.581 563.921C490.08 577.975 501.868 597.809 517.168 631.584C530.542 651.759 580.751 708.541 587.665 714.208C607.726 726.449 654.535 733.249 663.262 735.516C663.262 735.516 663.262 735.629 663.149 735.629L678.676 782.212C678.676 782.212 782.948 777.225 817.063 726.902L804.255 688.481C804.255 688.594 804.029 688.481 803.689 688.481Z" fill="#F05050"/>
<path d="M637.534 538.647C637.307 538.307 611.24 504.419 590.272 489.118L591.745 487.078C612.94 502.719 639.234 536.834 639.461 537.174L637.534 538.647Z" fill="black"/>
<path d="M664.915 509.632L663.096 511.337L685.656 535.397L687.475 533.692L664.915 509.632Z" fill="black"/>
<path d="M692.44 541.381L690.853 543.304L700.12 550.95L701.707 549.027L692.44 541.381Z" fill="black"/>
<path d="M647.532 547.006L645.871 548.865L653.477 555.662L655.139 553.802L647.532 547.006Z" fill="black"/>
<path d="M520.909 453.417C518.982 454.097 516.942 454.323 514.788 454.097C502.208 452.963 490.76 437.549 490.307 436.869L492.347 435.396C492.46 435.509 503.568 450.47 515.015 451.49C518.868 451.83 522.382 450.583 525.442 447.636L527.142 449.45C525.215 451.376 523.175 452.736 520.909 453.417Z" fill="black"/>
<path d="M515.128 613.337C514.902 613.451 514.562 613.564 514.335 613.564L513.655 611.071C516.262 610.391 517.848 609.03 518.755 606.764C523.175 595.43 506.174 568.569 506.061 568.342L508.215 566.982C508.895 568.115 526.009 595.203 521.135 607.67C520.002 610.504 517.962 612.317 515.128 613.337Z" fill="black"/>
<path d="M573.369 667.577L565.726 676.846L567.65 678.432L575.293 669.164L573.369 667.577Z" fill="white"/>
<path d="M579.093 676.425L573.087 682.44L574.851 684.202L580.857 678.187L579.093 676.425Z" fill="white"/>
<path d="M573.348 488.284L567.73 499.54L569.961 500.653L575.579 489.397L573.348 488.284Z" fill="white"/>
<path d="M554.91 600.644C554.91 600.644 578.485 652.213 602.512 625.125L554.91 600.644Z" fill="black"/>
<path d="M335.146 589.309C335.146 589.309 389.209 508.839 372.548 444.349C356.001 379.859 324.039 293.722 303.751 306.756C283.577 319.79 279.61 350.278 302.051 399.58C302.051 399.58 264.876 438.569 260.796 445.596C260.796 445.596 255.129 431.315 235.635 416.694" fill="#6857A7"/>
<path d="M337.98 353.565C337.64 353.565 308.172 356.625 303.978 323.53L306.812 323.19C310.552 353.565 336.62 350.958 337.64 350.845L337.98 353.565Z" fill="white"/>
<path d="M264.763 465.657C264.65 465.317 258.756 432.109 285.844 416.468L287.204 418.848C261.929 433.582 267.483 464.863 267.483 465.09L264.763 465.657Z" fill="white"/>
<path d="M372.321 461.916H358.947V464.75H372.321V461.916Z" fill="white"/>
<path d="M368.921 468.717H355.547V471.55H368.921V468.717Z" fill="white"/>
<path d="M632.547 349.938L618.947 369.999L623.14 370.792L639.801 351.298L632.547 349.938Z" fill="black"/>
<path d="M612.826 429.049C615.142 429.049 617.02 427.171 617.02 424.855C617.02 422.539 615.142 420.662 612.826 420.662C610.51 420.662 608.633 422.539 608.633 424.855C608.633 427.171 610.51 429.049 612.826 429.049Z" fill="black"/>
<path d="M365.861 587.949L381.615 606.31L383.542 602.456L369.148 581.262L365.861 587.949Z" fill="black"/>
<path d="M432.958 631.018C435.274 631.018 437.151 629.14 437.151 626.824C437.151 624.508 435.274 622.631 432.958 622.631C430.642 622.631 428.764 624.508 428.764 626.824C428.764 629.14 430.642 631.018 432.958 631.018Z" fill="black"/>
<path d="M460.159 429.728L434.431 411.367L438.511 404.227L460.159 429.728Z" fill="black"/>
<path d="M472.966 423.948L462.539 394.027L476.706 386.886L472.966 423.948Z" fill="black"/>
</svg>
