<svg width="1000" height="1000" viewBox="0 0 1000 1000" fill="none" xmlns="http://www.w3.org/2000/svg">
<rect width="1000" height="1000" fill="white"/>
<path d="M375.769 153.191L433.781 351.007L507.694 200.747L581.749 351.007L650.791 153.191" fill="white"/>
<path d="M432.062 370.774L368.893 155.196L382.644 151.186L435.5 331.382L507.693 184.561L580.603 332.528L644.059 150.899L657.523 155.626L582.895 369.485L507.693 216.933L432.062 370.774Z" fill="black"/>
<path d="M160.621 897.757L131.113 781.302H147.013L160.907 840.317C164.345 854.785 167.497 869.395 169.502 880.568H169.788C171.65 868.965 175.375 855.214 179.242 840.174L194.855 781.445H210.612L224.793 840.604C228.087 854.498 231.239 868.249 232.957 880.568H233.244C235.679 867.819 238.974 854.785 242.555 840.317L257.881 781.589H273.208L240.12 898.043H224.363L209.609 837.309C206.028 822.412 203.593 811.096 202.017 799.207H201.731C199.726 810.81 197.004 822.269 192.707 837.309L176.091 898.043H160.621V897.757Z" fill="black"/>
<path d="M348.266 843.039H303.002V885.008H353.423V897.613H287.962V781.159H350.845V793.764H303.002V830.577H348.266V843.039Z" fill="black"/>
<path d="M373.047 781.159H388.087V885.008H437.935V897.613H373.047V781.159Z" fill="black"/>
<path d="M529.323 893.89C523.736 896.611 512.707 899.476 498.526 899.476C465.724 899.476 440.943 878.706 440.943 840.461C440.943 803.934 465.724 779.297 501.821 779.297C516.288 779.297 525.455 782.448 529.466 784.454L525.885 796.772C520.155 794.051 511.991 791.902 502.394 791.902C475.035 791.902 456.986 809.377 456.986 840.031C456.986 868.536 473.459 886.871 501.821 886.871C510.988 886.871 520.299 885.009 526.315 882L529.323 893.89Z" fill="black"/>
<path d="M644.059 838.312C644.059 878.419 619.708 899.619 589.914 899.619C559.117 899.619 537.488 875.698 537.488 840.461C537.488 803.505 560.549 779.297 591.632 779.297C623.432 779.297 644.059 803.648 644.059 838.312ZM553.674 840.174C553.674 865.098 567.138 887.3 590.773 887.3C614.694 887.3 628.159 865.385 628.159 838.885C628.159 815.68 616.127 791.472 591.059 791.472C566.136 791.616 553.674 814.534 553.674 840.174Z" fill="black"/>
<path d="M761.802 846.477C760.943 830.291 759.94 810.667 760.084 796.199H759.511C755.5 809.807 750.63 824.418 744.757 840.461L724.13 897.041H712.671L693.763 841.607C688.177 825.134 683.593 810.094 680.299 796.343H680.012C679.726 810.81 678.866 830.434 677.72 847.909L674.569 897.9H660.245L668.41 781.445H687.604L707.514 837.739C712.385 852.063 716.395 864.812 719.26 876.987H719.833C722.841 865.241 726.852 852.493 732.152 837.739L752.922 781.445H772.116L779.421 897.9H764.667L761.802 846.477Z" fill="black"/>
<path d="M862.931 843.039H817.667V885.008H868.088V897.613H802.626V781.159H865.509V793.764H817.667V830.577H862.931V843.039Z" fill="black"/>
<path d="M752.206 296.575L749.484 278.527L731.865 273.8L749.914 271.222L754.641 253.603L757.362 271.651L774.981 276.378L756.933 278.957L752.206 296.575Z" fill="black"/>
<path d="M266.333 142.591L263.611 124.543L245.993 119.959L264.041 117.238L268.768 99.6191L271.346 117.667L288.965 122.394L270.916 124.973L266.333 142.591Z" fill="black"/>
<path d="M176.664 635.196L173.942 617.148L156.324 612.421L174.372 609.843L179.099 592.224L181.677 610.272L199.296 614.999L181.248 617.578L176.664 635.196Z" fill="black"/>
<path d="M602.232 142.591L600.657 131.705L589.914 128.84L600.943 127.264L603.808 116.665L605.384 127.551L615.984 130.416L605.097 131.991L602.232 142.591Z" fill="black"/>
<path d="M554.104 754.373L552.528 743.486L541.785 740.622L552.671 739.046L555.536 728.303L557.112 739.189L567.855 742.054L556.968 743.63L554.104 754.373Z" fill="black"/>
<path d="M634.319 488.518C634.319 488.518 596.503 482.215 579.887 444.829C563.271 407.443 585.903 382.52 545.939 353.155C505.975 323.791 505.115 377.22 505.975 390.971C506.834 404.722 486.637 609.843 566.422 631.902C646.494 653.818 634.319 488.518 634.319 488.518Z" fill="#F05050"/>
<path d="M536.852 454.049L535.397 458.092L558.713 466.483L560.168 462.439L536.852 454.049Z" fill="white"/>
<path d="M512.85 413.174L512.707 408.876C520.585 408.59 526.744 405.725 531.185 400.568C541.355 388.393 538.777 367.05 538.777 366.907L543.074 366.334C543.217 367.337 545.939 389.682 534.623 403.29C529.18 409.449 522.017 412.744 512.85 413.174Z" fill="white"/>
<path d="M690.039 720.138C690.039 720.138 576.449 745.635 501.104 655.25C501.104 655.25 587.192 423.63 604.524 368.339C621.856 313.048 640.335 250.022 674.999 252.314C709.663 254.606 680.012 331.383 680.012 331.383C680.012 331.383 736.306 341.123 734.157 370.917C734.157 370.917 800.478 388.822 766.243 497.972C732.152 607.121 690.039 720.138 690.039 720.138Z" fill="#F05050"/>
<path d="M733.224 369.761L707.803 457.842L711.932 459.033L737.353 370.953L733.224 369.761Z" fill="white"/>
<path d="M679.016 330.156L649.169 431.122L653.29 432.34L683.137 331.374L679.016 330.156Z" fill="white"/>
<path d="M676.861 308.608C672.134 308.608 663.54 307.605 658.669 301.016C653.083 293.424 653.943 281.105 661.534 264.346L665.402 266.065C658.669 281.105 657.524 292.278 662.107 298.437C667.55 305.743 679.583 304.31 679.583 304.167L680.156 308.464C680.012 308.464 678.723 308.608 676.861 308.608Z" fill="white"/>
<path d="M369.896 486.799C369.896 486.799 412.581 485.653 431.059 449.127C449.538 412.6 435.93 380.657 465.294 356.306C501.677 326.083 504.829 382.519 503.11 396.271C501.391 410.022 510.701 615.859 429.77 633.621C348.982 651.239 369.896 486.799 369.896 486.799Z" fill="#F05050"/>
<path d="M485.696 459.966L461.934 466.998L463.154 471.119L486.916 464.086L485.696 459.966Z" fill="white"/>
<path d="M495.232 418.044C486.207 417.184 479.045 413.46 474.175 407.014C463.432 392.833 467.443 370.487 467.586 369.628L471.74 370.344C471.74 370.487 467.873 391.687 477.47 404.436C481.624 409.879 487.64 413.03 495.375 413.746L495.232 418.044Z" fill="white"/>
<path d="M304.005 716.844C304.005 716.844 416.019 748.5 496.234 662.412C496.234 662.412 423.038 426.351 408.714 370.201C394.39 314.051 379.493 250.165 344.685 250.452C309.878 250.738 335.231 329.234 335.231 329.234C335.231 329.234 278.508 335.823 278.938 365.761C278.938 365.761 211.615 380.085 239.833 490.953C268.195 601.678 304.005 716.844 304.005 716.844Z" fill="#F05050"/>
<path d="M280.165 364.835L275.977 365.797L296.471 455.003L300.659 454.041L280.165 364.835Z" fill="white"/>
<path d="M336.47 328.067L332.288 329.057L356.535 431.507L360.716 430.517L336.47 328.067Z" fill="white"/>
<path d="M338.239 307.032C337.38 307.032 336.807 307.032 336.664 307.032L336.95 302.734C337.094 302.734 349.126 303.594 354.139 296.002C358.437 289.556 356.574 278.527 349.126 263.916L352.993 261.911C361.445 278.24 363.02 290.559 357.72 298.437C352.564 306.172 342.107 307.032 338.239 307.032Z" fill="white"/>
<path d="M408.571 369.341C408.571 369.341 394.82 477.918 431.203 448.983L408.571 369.341Z" fill="black"/>
<path d="M579.887 444.686C579.887 444.686 615.41 457.005 604.667 370.057L579.887 444.686Z" fill="black"/>
</svg>
