<svg width="200" height="64" viewBox="0 0 200 64" fill="none" xmlns="http://www.w3.org/2000/svg">
<rect x="26.3889" y="7" width="23.6111" height="10.9888" rx="5.49438" fill="#31BFFF"/>
<rect y="7" width="23.6111" height="10.9888" rx="5.49438" fill="#0053FC"/>
<rect x="17.3612" y="20.8889" width="33.3333" height="11.1111" rx="5.55555" transform="rotate(90 17.3612 20.8889)" fill="#0053FC"/>
<rect x="38.8665" y="56.1136" width="45.1879" height="10.9888" rx="5.49438" transform="rotate(-139.581 38.8665 56.1136)" fill="#1195F8"/>
<rect x="43.75" y="20.8889" width="33.3333" height="11.1111" rx="5.55555" transform="rotate(90 43.75 20.8889)" fill="#31BFFF"/>
<path d="M66.5765 39.024C65.9829 39.024 65.5242 38.8578 65.2005 38.5253C64.8767 38.1789 64.7148 37.701 64.7148 37.0915V27.304H61.5379C61.0387 27.304 60.6543 27.1724 60.3845 26.9092C60.1282 26.6321 60 26.2442 60 25.7455C60 25.233 60.1282 24.8451 60.3845 24.5818C60.6543 24.3186 61.0387 24.187 61.5379 24.187H71.6151C72.1142 24.187 72.492 24.3186 72.7483 24.5818C73.0181 24.8451 73.153 25.233 73.153 25.7455C73.153 26.2442 73.0181 26.6321 72.7483 26.9092C72.492 27.1724 72.1142 27.304 71.6151 27.304H68.4381V37.0915C68.4381 37.701 68.283 38.1789 67.9727 38.5253C67.6624 38.8578 67.197 39.024 66.5765 39.024Z" fill="#2C4E8D"/>
<path d="M76.1186 39.024C75.552 39.024 75.1203 38.8716 74.8235 38.5668C74.5267 38.2621 74.3783 37.8118 74.3783 37.2161V25.891C74.3783 25.2814 74.5267 24.8173 74.8235 24.4987C75.1203 24.1662 75.5115 24 75.9971 24C76.4288 24 76.7661 24.0831 77.0089 24.2494C77.2517 24.4156 77.5215 24.6927 77.8183 25.0806L84.2329 33.3095H83.6663V25.7871C83.6663 25.2052 83.808 24.7619 84.0913 24.4572C84.3881 24.1524 84.8197 24 85.3863 24C85.9529 24 86.3779 24.1524 86.6612 24.4572C86.958 24.7619 87.1063 25.2052 87.1063 25.7871V37.2993C87.1063 37.8257 86.9714 38.2482 86.7016 38.5668C86.4318 38.8716 86.0676 39.024 85.6089 39.024C85.1503 39.024 84.786 38.9409 84.5162 38.7746C84.2599 38.5945 83.9834 38.3175 83.6866 37.9434L77.272 29.6937H77.8386V37.2161C77.8386 37.8118 77.6902 38.2621 77.3934 38.5668C77.1101 38.8716 76.6851 39.024 76.1186 39.024Z" fill="#2C4E8D"/>
<path d="M94.9336 39.024C94.3401 39.024 93.8814 38.8578 93.5576 38.5253C93.2339 38.1789 93.072 37.701 93.072 37.0915V27.304H89.895C89.3959 27.304 89.0114 27.1724 88.7416 26.9092C88.4853 26.6321 88.3571 26.2442 88.3571 25.7455C88.3571 25.233 88.4853 24.8451 88.7416 24.5818C89.0114 24.3186 89.3959 24.187 89.895 24.187H99.9722C100.471 24.187 100.849 24.3186 101.105 24.5818C101.375 24.8451 101.51 25.233 101.51 25.7455C101.51 26.2442 101.375 26.6321 101.105 26.9092C100.849 27.1724 100.471 27.304 99.9722 27.304H96.7953V37.0915C96.7953 37.701 96.6401 38.1789 96.3299 38.5253C96.0196 38.8578 95.5542 39.024 94.9336 39.024Z" fill="#2C4E8D"/>
<path d="M106.315 39.0656C105.101 39.0656 104.049 38.8508 103.158 38.4214C102.281 37.9781 101.607 37.3547 101.135 36.5512C100.663 35.7477 100.427 34.7987 100.427 33.7043C100.427 32.6514 100.649 31.7302 101.094 30.9405C101.553 30.1371 102.174 29.5136 102.956 29.0703C103.752 28.6132 104.656 28.3846 105.668 28.3846C106.409 28.3846 107.084 28.5093 107.691 28.7586C108.298 28.9941 108.817 29.3474 109.249 29.8184C109.681 30.2756 110.005 30.8297 110.22 31.4808C110.45 32.1319 110.564 32.8592 110.564 33.6627C110.564 33.9398 110.49 34.1476 110.342 34.2861C110.193 34.4108 109.957 34.4732 109.634 34.4732H103.442V32.7276H107.934L107.61 32.9978C107.61 32.4852 107.543 32.0696 107.408 31.751C107.273 31.4323 107.071 31.1899 106.801 31.0237C106.544 30.8574 106.221 30.7743 105.829 30.7743C105.411 30.7743 105.047 30.8782 104.737 31.086C104.44 31.28 104.211 31.5709 104.049 31.9588C103.887 32.3467 103.806 32.8315 103.806 33.4134V33.6004C103.806 34.584 104.015 35.2905 104.433 35.72C104.865 36.1356 105.526 36.3434 106.416 36.3434C106.713 36.3434 107.05 36.3087 107.428 36.2395C107.819 36.1563 108.19 36.0455 108.541 35.907C108.892 35.7685 109.195 35.7477 109.452 35.8446C109.708 35.9278 109.903 36.0802 110.038 36.3018C110.187 36.5096 110.268 36.752 110.281 37.0291C110.295 37.2923 110.234 37.5555 110.099 37.8188C109.964 38.0681 109.742 38.2621 109.431 38.4006C108.959 38.6222 108.453 38.7885 107.914 38.8993C107.388 39.0101 106.855 39.0656 106.315 39.0656Z" fill="#2C4E8D"/>
<path d="M117.195 39.0656C116.076 39.0656 115.098 38.8508 114.261 38.4214C113.438 37.9919 112.798 37.3754 112.339 36.5719C111.88 35.7546 111.651 34.7987 111.651 33.7043C111.651 32.8731 111.779 32.1319 112.035 31.4808C112.292 30.8159 112.663 30.2548 113.148 29.7976C113.647 29.3405 114.234 28.9941 114.909 28.7586C115.597 28.5093 116.359 28.3846 117.195 28.3846C117.587 28.3846 117.998 28.4262 118.43 28.5093C118.861 28.5785 119.307 28.7171 119.765 28.9249C120.089 29.0496 120.312 29.2435 120.433 29.5067C120.568 29.7561 120.622 30.0262 120.595 30.3171C120.581 30.6081 120.5 30.8713 120.352 31.1068C120.217 31.3423 120.022 31.5016 119.765 31.5847C119.522 31.6678 119.246 31.6332 118.936 31.4808C118.72 31.37 118.49 31.2938 118.248 31.2522C118.018 31.1968 117.796 31.1691 117.58 31.1691C117.216 31.1691 116.892 31.2245 116.609 31.3354C116.339 31.4462 116.109 31.6124 115.921 31.8341C115.732 32.0419 115.583 32.3051 115.475 32.6237C115.381 32.9424 115.334 33.3025 115.334 33.7043C115.334 34.5078 115.529 35.1381 115.921 35.5953C116.312 36.0524 116.865 36.281 117.58 36.281C117.796 36.281 118.018 36.2602 118.248 36.2187C118.477 36.1633 118.706 36.0802 118.936 35.9693C119.246 35.8169 119.522 35.7892 119.765 35.8862C120.008 35.9693 120.204 36.1286 120.352 36.3641C120.5 36.5997 120.581 36.8629 120.595 37.1538C120.608 37.4309 120.548 37.701 120.413 37.9642C120.278 38.2136 120.049 38.4006 119.725 38.5253C119.28 38.7331 118.841 38.8716 118.409 38.9409C117.991 39.024 117.587 39.0656 117.195 39.0656Z" fill="#2C4E8D"/>
<path d="M123.698 39.024C123.132 39.024 122.693 38.8647 122.383 38.5461C122.073 38.2274 121.918 37.7633 121.918 37.1538V25.8702C121.918 25.2607 122.073 24.7966 122.383 24.4779C122.693 24.1593 123.132 24 123.698 24C124.279 24 124.724 24.1593 125.034 24.4779C125.358 24.7966 125.52 25.2607 125.52 25.8702V30.4003H125.196C125.52 29.7492 125.978 29.2504 126.572 28.9041C127.179 28.5578 127.867 28.3846 128.636 28.3846C129.432 28.3846 130.086 28.5439 130.599 28.8625C131.111 29.1673 131.496 29.6522 131.752 30.3171C132.008 30.9683 132.137 31.7925 132.137 32.79V37.1538C132.137 37.7633 131.981 38.2274 131.671 38.5461C131.361 38.8647 130.916 39.024 130.336 39.024C129.756 39.024 129.31 38.8647 129 38.5461C128.69 38.2274 128.535 37.7633 128.535 37.1538V32.9354C128.535 32.312 128.427 31.8687 128.211 31.6055C128.009 31.3423 127.705 31.2107 127.3 31.2107C126.761 31.2107 126.329 31.3908 126.005 31.751C125.682 32.0973 125.52 32.5683 125.52 33.164V37.1538C125.52 38.4006 124.913 39.024 123.698 39.024Z" fill="#2C4E8D"/>
<path d="M135.97 39.024C135.404 39.024 134.965 38.8647 134.655 38.5461C134.345 38.2274 134.189 37.7633 134.189 37.1538V30.2756C134.189 29.6799 134.338 29.2227 134.635 28.9041C134.945 28.5855 135.383 28.4262 135.95 28.4262C136.516 28.4262 136.948 28.5855 137.245 28.9041C137.542 29.2227 137.69 29.6799 137.69 30.2756V31.2522L137.468 30.4003C137.791 29.7492 138.25 29.2504 138.844 28.9041C139.451 28.5578 140.139 28.3846 140.908 28.3846C141.703 28.3846 142.358 28.5439 142.87 28.8625C143.383 29.1673 143.767 29.6522 144.024 30.3171C144.28 30.9683 144.408 31.7925 144.408 32.79V37.1538C144.408 37.7633 144.253 38.2274 143.943 38.5461C143.633 38.8647 143.187 39.024 142.607 39.024C142.027 39.024 141.582 38.8647 141.272 38.5461C140.961 38.2274 140.806 37.7633 140.806 37.1538V32.9354C140.806 32.312 140.698 31.8687 140.483 31.6055C140.28 31.3423 139.977 31.2107 139.572 31.2107C139.032 31.2107 138.601 31.3908 138.277 31.751C137.953 32.0973 137.791 32.5683 137.791 33.164V37.1538C137.791 38.4006 137.184 39.024 135.97 39.024Z" fill="#2C4E8D"/>
<path d="M151.5 39.0656C150.393 39.0656 149.429 38.8508 148.606 38.4214C147.783 37.9919 147.142 37.3754 146.684 36.5719C146.225 35.7685 145.996 34.8195 145.996 33.7251C145.996 32.8939 146.124 32.1527 146.38 31.5016C146.636 30.8366 147.007 30.2756 147.493 29.8184C147.979 29.3474 148.559 28.9941 149.233 28.7586C149.908 28.5093 150.663 28.3846 151.5 28.3846C152.606 28.3846 153.57 28.5993 154.393 29.0288C155.216 29.4582 155.85 30.0747 156.295 30.8782C156.754 31.6678 156.983 32.6168 156.983 33.7251C156.983 34.5424 156.855 35.2836 156.599 35.9485C156.343 36.6135 155.972 37.1815 155.486 37.6525C155.014 38.1097 154.434 38.4629 153.746 38.7123C153.071 38.9478 152.323 39.0656 151.5 39.0656ZM151.5 36.3434C151.864 36.3434 152.188 36.2533 152.471 36.0732C152.754 35.8793 152.97 35.5953 153.118 35.2212C153.28 34.8333 153.361 34.3346 153.361 33.7251C153.361 32.7969 153.186 32.1319 152.835 31.7302C152.484 31.3146 152.039 31.1068 151.5 31.1068C151.135 31.1068 150.812 31.1968 150.528 31.3769C150.245 31.557 150.022 31.841 149.861 32.2289C149.699 32.603 149.618 33.1017 149.618 33.7251C149.618 34.6394 149.793 35.3044 150.144 35.72C150.495 36.1356 150.947 36.3434 151.5 36.3434Z" fill="#2C4E8D"/>
<path d="M162.418 39.0656C161.123 39.0656 160.165 38.7123 159.544 38.0058C158.937 37.2854 158.634 36.2048 158.634 34.7641V25.8702C158.634 25.2607 158.789 24.7966 159.099 24.4779C159.41 24.1593 159.848 24 160.415 24C160.995 24 161.44 24.1593 161.75 24.4779C162.074 24.7966 162.236 25.2607 162.236 25.8702V34.6394C162.236 35.152 162.33 35.526 162.519 35.7615C162.721 35.997 162.978 36.1148 163.288 36.1148C163.382 36.1148 163.477 36.1079 163.571 36.094C163.679 36.0663 163.794 36.0455 163.915 36.0317C164.145 36.0317 164.313 36.1217 164.421 36.3018C164.543 36.4819 164.603 36.849 164.603 37.4032C164.603 37.888 164.509 38.2551 164.32 38.5045C164.131 38.74 163.841 38.8924 163.45 38.9617C163.342 38.9755 163.187 38.9963 162.984 39.024C162.782 39.0517 162.593 39.0656 162.418 39.0656Z" fill="#2C4E8D"/>
<path d="M170.609 39.0656C169.502 39.0656 168.538 38.8508 167.715 38.4214C166.892 37.9919 166.251 37.3754 165.793 36.5719C165.334 35.7685 165.105 34.8195 165.105 33.7251C165.105 32.8939 165.233 32.1527 165.489 31.5016C165.745 30.8366 166.116 30.2756 166.602 29.8184C167.088 29.3474 167.668 28.9941 168.342 28.7586C169.017 28.5093 169.772 28.3846 170.609 28.3846C171.715 28.3846 172.679 28.5993 173.502 29.0288C174.325 29.4582 174.959 30.0747 175.404 30.8782C175.863 31.6678 176.092 32.6168 176.092 33.7251C176.092 34.5424 175.964 35.2836 175.708 35.9485C175.452 36.6135 175.081 37.1815 174.595 37.6525C174.123 38.1097 173.543 38.4629 172.855 38.7123C172.18 38.9478 171.431 39.0656 170.609 39.0656ZM170.609 36.3434C170.973 36.3434 171.297 36.2533 171.58 36.0732C171.863 35.8793 172.079 35.5953 172.227 35.2212C172.389 34.8333 172.47 34.3346 172.47 33.7251C172.47 32.7969 172.295 32.1319 171.944 31.7302C171.593 31.3146 171.148 31.1068 170.609 31.1068C170.244 31.1068 169.921 31.1968 169.637 31.3769C169.354 31.557 169.131 31.841 168.97 32.2289C168.808 32.603 168.727 33.1017 168.727 33.7251C168.727 34.6394 168.902 35.3044 169.253 35.72C169.604 36.1356 170.055 36.3434 170.609 36.3434Z" fill="#2C4E8D"/>
<path d="M182.68 42.806C181.938 42.806 181.244 42.7506 180.596 42.6397C179.948 42.5428 179.389 42.3973 178.916 42.2034C178.525 42.0648 178.249 41.8639 178.087 41.6007C177.925 41.3375 177.851 41.0604 177.864 40.7695C177.878 40.4786 177.952 40.2154 178.087 39.9799C178.235 39.7444 178.431 39.5712 178.674 39.4604C178.916 39.3634 179.186 39.3703 179.483 39.4812C180.077 39.7305 180.616 39.8898 181.102 39.9591C181.588 40.0422 181.999 40.0838 182.336 40.0838C183.159 40.0838 183.773 39.9037 184.178 39.5435C184.596 39.1972 184.805 38.65 184.805 37.9019V36.5927H184.967C184.764 37.1746 184.353 37.6525 183.732 38.0266C183.112 38.3867 182.437 38.5668 181.709 38.5668C180.819 38.5668 180.043 38.359 179.382 37.9434C178.721 37.514 178.201 36.9183 177.824 36.1563C177.46 35.3944 177.277 34.5009 177.277 33.4757C177.277 32.6999 177.385 32.0003 177.601 31.3769C177.817 30.7535 178.114 30.2202 178.492 29.7769C178.883 29.3336 179.348 28.9941 179.888 28.7586C180.441 28.5093 181.048 28.3846 181.709 28.3846C182.464 28.3846 183.139 28.5647 183.732 28.9249C184.34 29.2851 184.744 29.7561 184.947 30.3379L184.744 31.1899V30.2756C184.744 29.6799 184.899 29.2227 185.21 28.9041C185.533 28.5855 185.979 28.4262 186.545 28.4262C187.112 28.4262 187.543 28.5855 187.84 28.9041C188.151 29.2227 188.306 29.6799 188.306 30.2756V37.4655C188.306 39.2387 187.82 40.5686 186.849 41.4553C185.877 42.3557 184.488 42.806 182.68 42.806ZM182.822 35.8446C183.227 35.8446 183.571 35.7546 183.854 35.5745C184.137 35.3806 184.36 35.1104 184.522 34.7641C184.684 34.4039 184.764 33.9744 184.764 33.4757C184.764 32.7276 184.589 32.1458 184.238 31.7302C183.888 31.3146 183.415 31.1068 182.822 31.1068C182.444 31.1068 182.107 31.2038 181.81 31.3977C181.513 31.5778 181.284 31.8479 181.122 32.2081C180.974 32.5545 180.9 32.977 180.9 33.4757C180.9 34.2238 181.075 34.8056 181.426 35.2212C181.776 35.6368 182.242 35.8446 182.822 35.8446Z" fill="#2C4E8D"/>
<path d="M193.303 42.7644C192.885 42.7644 192.548 42.6536 192.292 42.4319C192.035 42.2103 191.873 41.9194 191.806 41.5592C191.752 41.199 191.813 40.818 191.988 40.4163L193.344 37.4032V38.8993L189.884 30.7743C189.708 30.3587 189.647 29.9708 189.701 29.6106C189.769 29.2504 189.951 28.9664 190.248 28.7586C190.545 28.537 190.949 28.4262 191.462 28.4262C191.894 28.4262 192.238 28.5301 192.494 28.7379C192.764 28.9318 193.007 29.3197 193.222 29.9015L195.246 35.3044H194.558L196.703 29.8808C196.919 29.3128 197.162 28.9318 197.431 28.7379C197.715 28.5301 198.092 28.4262 198.564 28.4262C198.969 28.4262 199.293 28.537 199.536 28.7586C199.779 28.9664 199.927 29.2504 199.981 29.6106C200.035 29.9708 199.974 30.3587 199.799 30.7743L195.205 41.3721C194.963 41.9263 194.693 42.2934 194.396 42.4735C194.113 42.6674 193.748 42.7644 193.303 42.7644Z" fill="#2C4E8D"/>
</svg>
