<svg width="200" height="64" viewBox="0 0 200 64" fill="none" xmlns="http://www.w3.org/2000/svg">
<rect x="27.323" y="7" width="24.4469" height="11.3777" rx="5.68887" fill="#31BFFF"/>
<rect y="7" width="24.4469" height="11.3777" rx="5.68887" fill="#0053FC"/>
<rect x="17.9757" y="21.3805" width="34.5133" height="11.5044" rx="5.75221" transform="rotate(90 17.9757 21.3805)" fill="#0053FC"/>
<rect x="40.2423" y="57.8522" width="46.7875" height="11.3777" rx="5.68887" transform="rotate(-139.581 40.2423 57.8522)" fill="#1195F8"/>
<rect x="45.2987" y="21.3805" width="34.5133" height="11.5044" rx="5.75221" transform="rotate(90 45.2987 21.3805)" fill="#31BFFF"/>
<path d="M63.6087 36.6824C63.0123 36.6824 62.5513 36.5199 62.226 36.195C61.9006 35.8566 61.738 35.3895 61.738 34.7938V25.2289H58.5454C58.0438 25.2289 57.6575 25.1003 57.3864 24.8431C57.1288 24.5723 57 24.1932 57 23.7058C57 23.2049 57.1288 22.8258 57.3864 22.5686C57.6575 22.3114 58.0438 22.1828 58.5454 22.1828H68.672C69.1736 22.1828 69.5532 22.3114 69.8108 22.5686C70.0819 22.8258 70.2175 23.2049 70.2175 23.7058C70.2175 24.1932 70.0819 24.5723 69.8108 24.8431C69.5532 25.1003 69.1736 25.2289 68.672 25.2289H65.4795V34.7938C65.4795 35.3895 65.3236 35.8566 65.0118 36.195C64.7 36.5199 64.2323 36.6824 63.6087 36.6824Z" fill="#2C4E8D"/>
<path d="M71.3857 36.6824C70.8164 36.6824 70.3758 36.5267 70.064 36.2153C69.7522 35.9039 69.5963 35.4504 69.5963 34.8547V28.1329C69.5963 27.5507 69.7454 27.104 70.0437 26.7926C70.3555 26.4812 70.796 26.3255 71.3654 26.3255C71.9348 26.3255 72.3686 26.4812 72.6668 26.7926C72.9651 27.104 73.1142 27.5507 73.1142 28.1329V29.0874L72.8905 28.2547C73.2159 27.6184 73.6768 27.1311 74.2733 26.7926C74.8833 26.4541 75.5747 26.2849 76.3474 26.2849C77.1472 26.2849 77.8047 26.4406 78.3198 26.752C78.835 27.0498 79.2213 27.5237 79.4789 28.1735C79.7365 28.8098 79.8653 29.6153 79.8653 30.5901V34.8547C79.8653 35.4504 79.7094 35.9039 79.3976 36.2153C79.0858 36.5267 78.6384 36.6824 78.0555 36.6824C77.4726 36.6824 77.0252 36.5267 76.7134 36.2153C76.4016 35.9039 76.2457 35.4504 76.2457 34.8547V30.7323C76.2457 30.123 76.1373 29.6898 75.9204 29.4326C75.717 29.1754 75.412 29.0467 75.0053 29.0467C74.463 29.0467 74.0292 29.2227 73.7039 29.5747C73.3785 29.9132 73.2159 30.3735 73.2159 30.9557V34.8547C73.2159 36.0732 72.6058 36.6824 71.3857 36.6824Z" fill="#2C4E8D"/>
<path d="M87.4184 36.6824C86.8219 36.6824 86.361 36.5199 86.0357 36.195C85.7103 35.8566 85.5476 35.3895 85.5476 34.7938V25.2289H82.3551C81.8535 25.2289 81.4672 25.1003 81.1961 24.8431C80.9385 24.5723 80.8097 24.1932 80.8097 23.7058C80.8097 23.2049 80.9385 22.8258 81.1961 22.5686C81.4672 22.3114 81.8535 22.1828 82.3551 22.1828H92.4817C92.9833 22.1828 93.3629 22.3114 93.6205 22.5686C93.8916 22.8258 94.0272 23.2049 94.0272 23.7058C94.0272 24.1932 93.8916 24.5723 93.6205 24.8431C93.3629 25.1003 92.9833 25.2289 92.4817 25.2289H89.2892V34.7938C89.2892 35.3895 89.1333 35.8566 88.8215 36.195C88.5097 36.5199 88.042 36.6824 87.4184 36.6824Z" fill="#2C4E8D"/>
<path d="M98.8557 36.723C97.6356 36.723 96.5782 36.5132 95.6835 36.0935C94.8023 35.6602 94.1245 35.051 93.65 34.2658C93.1755 33.4806 92.9383 32.5532 92.9383 31.4836C92.9383 30.4547 93.162 29.5544 93.6093 28.7827C94.0703 27.9975 94.6939 27.3883 95.4801 26.9551C96.28 26.5083 97.1882 26.2849 98.205 26.2849C98.9506 26.2849 99.6284 26.4067 100.238 26.6504C100.848 26.8806 101.37 27.2258 101.804 27.6861C102.238 28.1329 102.563 28.6744 102.78 29.3107C103.011 29.947 103.126 30.6578 103.126 31.443C103.126 31.7138 103.051 31.9169 102.902 32.0523C102.753 32.1741 102.516 32.235 102.191 32.235H95.9682V30.5292H100.482L100.157 30.7932C100.157 30.2923 100.089 29.8861 99.9537 29.5747C99.8182 29.2634 99.6148 29.0264 99.3437 28.864C99.0861 28.7015 98.7608 28.6203 98.3676 28.6203C97.9474 28.6203 97.5814 28.7218 97.2696 28.9249C96.9713 29.1144 96.7409 29.3987 96.5782 29.7778C96.4155 30.1569 96.3342 30.6307 96.3342 31.1993V31.3821C96.3342 32.3433 96.5443 33.0338 96.9646 33.4535C97.3984 33.8596 98.0626 34.0627 98.9573 34.0627C99.2556 34.0627 99.5945 34.0289 99.9741 33.9612C100.367 33.8799 100.74 33.7716 101.092 33.6363C101.445 33.5009 101.75 33.4806 102.008 33.5753C102.265 33.6566 102.462 33.8055 102.597 34.0221C102.746 34.2252 102.828 34.4621 102.841 34.7329C102.855 34.9901 102.794 35.2473 102.658 35.5046C102.523 35.7482 102.299 35.9378 101.987 36.0732C101.513 36.2898 101.004 36.4522 100.462 36.5605C99.9334 36.6689 99.3979 36.723 98.8557 36.723Z" fill="#2C4E8D"/>
<path d="M109.789 36.723C108.664 36.723 107.681 36.5132 106.841 36.0935C106.014 35.6738 105.37 35.0713 104.909 34.2861C104.448 33.4873 104.218 32.5532 104.218 31.4836C104.218 30.6713 104.346 29.947 104.604 29.3107C104.862 28.6609 105.234 28.1126 105.722 27.6658C106.224 27.2191 106.814 26.8806 107.491 26.6504C108.183 26.4067 108.949 26.2849 109.789 26.2849C110.182 26.2849 110.596 26.3255 111.03 26.4067C111.464 26.4744 111.911 26.6098 112.372 26.8129C112.697 26.9347 112.921 27.1243 113.043 27.3815C113.178 27.6252 113.233 27.8892 113.206 28.1735C113.192 28.4578 113.111 28.715 112.961 28.9452C112.826 29.1754 112.629 29.331 112.372 29.4123C112.128 29.4935 111.85 29.4597 111.538 29.3107C111.321 29.2024 111.091 29.128 110.847 29.0874C110.616 29.0332 110.393 29.0061 110.176 29.0061C109.81 29.0061 109.484 29.0603 109.2 29.1686C108.928 29.2769 108.698 29.4393 108.508 29.656C108.318 29.859 108.169 30.1163 108.061 30.4277C107.966 30.739 107.919 31.091 107.919 31.4836C107.919 32.2689 108.115 32.8849 108.508 33.3316C108.901 33.7784 109.457 34.0018 110.176 34.0018C110.393 34.0018 110.616 33.9815 110.847 33.9409C111.077 33.8867 111.308 33.8055 111.538 33.6972C111.85 33.5483 112.128 33.5212 112.372 33.6159C112.616 33.6972 112.812 33.8529 112.961 34.083C113.111 34.3132 113.192 34.5704 113.206 34.8547C113.219 35.1255 113.158 35.3895 113.022 35.6467C112.887 35.8904 112.656 36.0732 112.331 36.195C111.884 36.3981 111.443 36.5335 111.009 36.6012C110.589 36.6824 110.182 36.723 109.789 36.723Z" fill="#2C4E8D"/>
<path d="M116.324 36.6824C115.755 36.6824 115.314 36.5267 115.003 36.2153C114.691 35.9039 114.535 35.4504 114.535 34.8547V23.8277C114.535 23.232 114.691 22.7785 115.003 22.4671C115.314 22.1557 115.755 22 116.324 22C116.907 22 117.355 22.1557 117.666 22.4671C117.992 22.7785 118.154 23.232 118.154 23.8277V28.2547H117.829C118.154 27.6184 118.615 27.1311 119.212 26.7926C119.822 26.4541 120.513 26.2849 121.286 26.2849C122.086 26.2849 122.743 26.4406 123.258 26.752C123.774 27.0498 124.16 27.5237 124.417 28.1735C124.675 28.8098 124.804 29.6153 124.804 30.5901V34.8547C124.804 35.4504 124.648 35.9039 124.336 36.2153C124.024 36.5267 123.577 36.6824 122.994 36.6824C122.411 36.6824 121.964 36.5267 121.652 36.2153C121.34 35.9039 121.184 35.4504 121.184 34.8547V30.7323C121.184 30.123 121.076 29.6898 120.859 29.4326C120.656 29.1754 120.351 29.0467 119.944 29.0467C119.402 29.0467 118.968 29.2227 118.642 29.5747C118.317 29.9132 118.154 30.3735 118.154 30.9557V34.8547C118.154 36.0732 117.544 36.6824 116.324 36.6824Z" fill="#2C4E8D"/>
<path d="M128.656 36.6824C128.087 36.6824 127.646 36.5267 127.334 36.2153C127.023 35.9039 126.867 35.4504 126.867 34.8547V28.1329C126.867 27.5507 127.016 27.104 127.314 26.7926C127.626 26.4812 128.066 26.3255 128.636 26.3255C129.205 26.3255 129.639 26.4812 129.937 26.7926C130.235 27.104 130.385 27.5507 130.385 28.1329V29.0874L130.161 28.2547C130.486 27.6184 130.947 27.1311 131.544 26.7926C132.154 26.4541 132.845 26.2849 133.618 26.2849C134.418 26.2849 135.075 26.4406 135.59 26.752C136.105 27.0498 136.492 27.5237 136.749 28.1735C137.007 28.8098 137.136 29.6153 137.136 30.5901V34.8547C137.136 35.4504 136.98 35.9039 136.668 36.2153C136.356 36.5267 135.909 36.6824 135.326 36.6824C134.743 36.6824 134.296 36.5267 133.984 36.2153C133.672 35.9039 133.516 35.4504 133.516 34.8547V30.7323C133.516 30.123 133.408 29.6898 133.191 29.4326C132.987 29.1754 132.682 29.0467 132.276 29.0467C131.733 29.0467 131.3 29.2227 130.974 29.5747C130.649 29.9132 130.486 30.3735 130.486 30.9557V34.8547C130.486 36.0732 129.876 36.6824 128.656 36.6824Z" fill="#2C4E8D"/>
<path d="M144.262 36.723C143.15 36.723 142.181 36.5132 141.354 36.0935C140.527 35.6738 139.883 35.0713 139.422 34.2861C138.961 33.5009 138.731 32.5735 138.731 31.504C138.731 30.6917 138.86 29.9673 139.117 29.331C139.375 28.6812 139.748 28.1329 140.236 27.6861C140.724 27.2258 141.306 26.8806 141.984 26.6504C142.662 26.4067 143.421 26.2849 144.262 26.2849C145.373 26.2849 146.343 26.4947 147.17 26.9144C147.997 27.3341 148.634 27.9366 149.081 28.7218C149.542 29.4935 149.772 30.4209 149.772 31.504C149.772 32.3027 149.644 33.027 149.386 33.6769C149.129 34.3267 148.756 34.8818 148.268 35.3421C147.793 35.7889 147.21 36.1341 146.519 36.3778C145.841 36.6079 145.089 36.723 144.262 36.723ZM144.262 34.0627C144.628 34.0627 144.953 33.9747 145.238 33.7987C145.523 33.6092 145.739 33.3316 145.889 32.9661C146.051 32.587 146.133 32.0996 146.133 31.504C146.133 30.5969 145.956 29.947 145.604 29.5544C145.251 29.1483 144.804 28.9452 144.262 28.9452C143.896 28.9452 143.57 29.0332 143.286 29.2092C143.001 29.3852 142.777 29.6627 142.615 30.0418C142.452 30.4073 142.371 30.8947 142.371 31.504C142.371 32.3975 142.547 33.0473 142.899 33.4535C143.252 33.8596 143.706 34.0627 144.262 34.0627Z" fill="#2C4E8D"/>
<path d="M155.234 36.723C153.932 36.723 152.97 36.3778 152.346 35.6873C151.736 34.9833 151.431 33.9273 151.431 32.5193V23.8277C151.431 23.232 151.587 22.7785 151.899 22.4671C152.21 22.1557 152.651 22 153.22 22C153.803 22 154.251 22.1557 154.562 22.4671C154.888 22.7785 155.051 23.232 155.051 23.8277V32.3975C155.051 32.8984 155.145 33.2639 155.335 33.4941C155.539 33.7243 155.796 33.8393 156.108 33.8393C156.203 33.8393 156.298 33.8326 156.393 33.819C156.501 33.7919 156.616 33.7716 156.738 33.7581C156.969 33.7581 157.138 33.8461 157.247 34.0221C157.369 34.1981 157.43 34.5569 157.43 35.0984C157.43 35.5722 157.335 35.931 157.145 36.1747C156.955 36.4049 156.664 36.5538 156.271 36.6215C156.162 36.635 156.006 36.6553 155.803 36.6824C155.6 36.7095 155.41 36.723 155.234 36.723Z" fill="#2C4E8D"/>
<path d="M163.464 36.723C162.353 36.723 161.384 36.5132 160.557 36.0935C159.73 35.6738 159.086 35.0713 158.625 34.2861C158.164 33.5009 157.933 32.5735 157.933 31.504C157.933 30.6917 158.062 29.9673 158.32 29.331C158.577 28.6812 158.95 28.1329 159.438 27.6861C159.926 27.2258 160.509 26.8806 161.187 26.6504C161.865 26.4067 162.624 26.2849 163.464 26.2849C164.576 26.2849 165.545 26.4947 166.372 26.9144C167.199 27.3341 167.836 27.9366 168.284 28.7218C168.745 29.4935 168.975 30.4209 168.975 31.504C168.975 32.3027 168.846 33.027 168.589 33.6769C168.331 34.3267 167.958 34.8818 167.47 35.3421C166.996 35.7889 166.413 36.1341 165.722 36.3778C165.044 36.6079 164.291 36.723 163.464 36.723ZM163.464 34.0627C163.83 34.0627 164.156 33.9747 164.44 33.7987C164.725 33.6092 164.942 33.3316 165.091 32.9661C165.254 32.587 165.335 32.0996 165.335 31.504C165.335 30.5969 165.159 29.947 164.807 29.5544C164.454 29.1483 164.007 28.9452 163.464 28.9452C163.098 28.9452 162.773 29.0332 162.488 29.2092C162.204 29.3852 161.98 29.6627 161.817 30.0418C161.655 30.4073 161.573 30.8947 161.573 31.504C161.573 32.3975 161.75 33.0473 162.102 33.4535C162.454 33.8596 162.909 34.0627 163.464 34.0627Z" fill="#2C4E8D"/>
<path d="M175.595 40.3784C174.85 40.3784 174.152 40.3242 173.501 40.2159C172.85 40.1211 172.288 39.979 171.813 39.7895C171.42 39.6541 171.142 39.4578 170.979 39.2005C170.817 38.9433 170.742 38.6725 170.756 38.3882C170.769 38.1039 170.844 37.8467 170.979 37.6165C171.128 37.3864 171.325 37.2172 171.569 37.1089C171.813 37.0141 172.084 37.0209 172.382 37.1292C172.979 37.3729 173.521 37.5285 174.009 37.5962C174.497 37.6775 174.911 37.7181 175.25 37.7181C176.077 37.7181 176.693 37.5421 177.1 37.1901C177.52 36.8516 177.73 36.3169 177.73 35.5858V34.3064H177.893C177.69 34.875 177.276 35.3421 176.653 35.7076C176.029 36.0596 175.351 36.2356 174.619 36.2356C173.724 36.2356 172.945 36.0325 172.281 35.6264C171.616 35.2067 171.095 34.6246 170.715 33.8799C170.349 33.1353 170.166 32.2621 170.166 31.2603C170.166 30.5021 170.274 29.8184 170.491 29.2092C170.708 28.6 171.006 28.0787 171.386 27.6455C171.779 27.2123 172.247 26.8806 172.789 26.6504C173.345 26.4067 173.955 26.2849 174.619 26.2849C175.378 26.2849 176.056 26.4609 176.653 26.8129C177.263 27.1649 177.669 27.6252 177.873 28.1938L177.669 29.0264V28.1329C177.669 27.5507 177.825 27.104 178.137 26.7926C178.462 26.4812 178.91 26.3255 179.479 26.3255C180.049 26.3255 180.482 26.4812 180.781 26.7926C181.092 27.104 181.248 27.5507 181.248 28.1329V35.1593C181.248 36.8922 180.76 38.1919 179.784 39.0584C178.808 39.9384 177.412 40.3784 175.595 40.3784ZM175.738 33.5753C176.144 33.5753 176.49 33.4873 176.775 33.3113C177.059 33.1218 177.283 32.8578 177.446 32.5193C177.608 32.1673 177.69 31.7476 177.69 31.2603C177.69 30.5292 177.513 29.9606 177.161 29.5544C176.809 29.1483 176.334 28.9452 175.738 28.9452C175.358 28.9452 175.019 29.04 174.721 29.2295C174.423 29.4055 174.192 29.6695 174.03 30.0215C173.88 30.36 173.806 30.7729 173.806 31.2603C173.806 31.9913 173.982 32.56 174.335 32.9661C174.687 33.3723 175.155 33.5753 175.738 33.5753Z" fill="#2C4E8D"/>
<path d="M186.27 40.3378C185.85 40.3378 185.511 40.2295 185.254 40.0128C184.996 39.7962 184.833 39.5119 184.766 39.1599C184.711 38.8079 184.772 38.4356 184.949 38.043L186.311 35.0984V36.5605L182.834 28.6203C182.658 28.2141 182.597 27.835 182.651 27.4831C182.719 27.1311 182.902 26.8535 183.2 26.6504C183.498 26.4338 183.905 26.3255 184.42 26.3255C184.854 26.3255 185.199 26.4271 185.457 26.6301C185.728 26.8197 185.972 27.1987 186.189 27.7674L188.223 33.0473H187.531L189.687 27.7471C189.904 27.192 190.148 26.8197 190.419 26.6301C190.703 26.4271 191.083 26.3255 191.557 26.3255C191.964 26.3255 192.289 26.4338 192.533 26.6504C192.777 26.8535 192.927 27.1311 192.981 27.4831C193.035 27.835 192.974 28.2141 192.798 28.6203L188.182 38.9771C187.938 39.5187 187.667 39.8775 187.368 40.0535C187.084 40.243 186.718 40.3378 186.27 40.3378Z" fill="#2C4E8D"/>
<path d="M57 55.859V47.8394H61.8068V48.7009H57.9645V51.4106H61.5579V52.2721H57.9645V54.9975H61.869V55.859H57Z" fill="#2C4E8D"/>
<path d="M64.0118 47.8394L66.0652 51.1757H66.1274L68.1808 47.8394H69.3164L66.8119 51.8492L69.3164 55.859H68.1808L66.1274 52.5854H66.0652L64.0118 55.859H62.8762L65.443 51.8492L62.8762 47.8394H64.0118Z" fill="#2C4E8D"/>
<path d="M70.5715 55.859V47.8394H73.2627C73.8875 47.8394 74.3983 47.9529 74.7949 48.18C75.1942 48.4046 75.4898 48.7087 75.6816 49.0924C75.8735 49.4762 75.9694 49.9043 75.9694 50.3768C75.9694 50.8493 75.8735 51.2788 75.6816 51.6651C75.4924 52.0515 75.1994 52.3596 74.8027 52.5893C74.406 52.8164 73.8979 52.93 73.2782 52.93H71.3493V52.0685H73.2471C73.6749 52.0685 74.0184 51.9941 74.2777 51.8453C74.537 51.6965 74.7249 51.4955 74.8416 51.2422C74.9609 50.9864 75.0205 50.6979 75.0205 50.3768C75.0205 50.0557 74.9609 49.7686 74.8416 49.5153C74.7249 49.2621 74.5357 49.0637 74.2738 48.9201C74.012 48.7739 73.6645 48.7009 73.2316 48.7009H71.536V55.859H70.5715Z" fill="#2C4E8D"/>
<path d="M77.523 55.859V47.8394H78.4875V54.9975H82.1898V55.859H77.523Z" fill="#2C4E8D"/>
<path d="M90.0931 51.8492C90.0931 52.695 89.9415 53.426 89.6381 54.0421C89.3348 54.6582 88.9187 55.1333 88.3898 55.4674C87.8609 55.8016 87.2568 55.9687 86.5775 55.9687C85.8982 55.9687 85.2941 55.8016 84.7652 55.4674C84.2364 55.1333 83.8202 54.6582 83.5169 54.0421C83.2136 53.426 83.0619 52.695 83.0619 51.8492C83.0619 51.0034 83.2136 50.2724 83.5169 49.6563C83.8202 49.0402 84.2364 48.5651 84.7652 48.2309C85.2941 47.8968 85.8982 47.7297 86.5775 47.7297C87.2568 47.7297 87.8609 47.8968 88.3898 48.2309C88.9187 48.5651 89.3348 49.0402 89.6381 49.6563C89.9415 50.2724 90.0931 51.0034 90.0931 51.8492ZM89.1598 51.8492C89.1598 51.1548 89.0444 50.5687 88.8137 50.091C88.5855 49.6132 88.2757 49.2517 87.8842 49.0063C87.4953 48.7609 87.0597 48.6382 86.5775 48.6382C86.0953 48.6382 85.6584 48.7609 85.2669 49.0063C84.878 49.2517 84.5682 49.6132 84.3375 50.091C84.1093 50.5687 83.9952 51.1548 83.9952 51.8492C83.9952 52.5436 84.1093 53.1297 84.3375 53.6074C84.5682 54.0851 84.878 54.4467 85.2669 54.6921C85.6584 54.9375 86.0953 55.0602 86.5775 55.0602C87.0597 55.0602 87.4953 54.9375 87.8842 54.6921C88.2757 54.4467 88.5855 54.0851 88.8137 53.6074C89.0444 53.1297 89.1598 52.5436 89.1598 51.8492Z" fill="#2C4E8D"/>
<path d="M96.0705 49.8443C96.0238 49.4475 95.8345 49.1394 95.5027 48.9201C95.1708 48.7009 94.7638 48.5912 94.2815 48.5912C93.9289 48.5912 93.6204 48.6486 93.356 48.7635C93.0941 48.8784 92.8893 49.0363 92.7415 49.2373C92.5963 49.4383 92.5237 49.6668 92.5237 49.9226C92.5237 50.1367 92.5743 50.3207 92.6754 50.4747C92.7791 50.6261 92.9113 50.7528 93.0721 50.8546C93.2328 50.9538 93.4013 51.036 93.5776 51.1013C93.7539 51.1639 93.916 51.2148 94.0638 51.254L94.8727 51.4733C95.0801 51.5281 95.3108 51.6038 95.5649 51.7004C95.8216 51.797 96.0666 51.9288 96.2999 52.0959C96.5358 52.2604 96.7303 52.4718 96.8832 52.7303C97.0362 52.9887 97.1127 53.3059 97.1127 53.6818C97.1127 54.1152 96.9999 54.5067 96.7744 54.8566C96.5514 55.2064 96.2247 55.4844 95.7943 55.6906C95.3666 55.8969 94.8467 56 94.2349 56C93.6645 56 93.1706 55.9073 92.7532 55.722C92.3383 55.5366 92.0117 55.2782 91.7732 54.9466C91.5372 54.6151 91.4037 54.23 91.3726 53.7915H92.3682C92.3941 54.0943 92.4952 54.3449 92.6715 54.5433C92.8504 54.7391 93.076 54.8853 93.3482 54.9819C93.623 55.0759 93.9186 55.1228 94.2349 55.1228C94.603 55.1228 94.9336 55.0628 95.2265 54.9427C95.5195 54.82 95.7516 54.6503 95.9227 54.4337C96.0938 54.2144 96.1793 53.9585 96.1793 53.6661C96.1793 53.3999 96.1055 53.1832 95.9577 53.0161C95.8099 52.849 95.6154 52.7133 95.3743 52.6089C95.1332 52.5044 94.8727 52.4131 94.5926 52.3348L93.6126 52.0528C92.9904 51.8727 92.4978 51.6155 92.1348 51.2814C91.7719 50.9472 91.5904 50.51 91.5904 49.9696C91.5904 49.5206 91.7109 49.129 91.952 48.7948C92.1958 48.4581 92.5224 48.197 92.9321 48.0117C93.3443 47.8237 93.8045 47.7297 94.3126 47.7297C94.826 47.7297 95.2823 47.8224 95.6816 48.0077C96.0808 48.1905 96.3971 48.4411 96.6305 48.7596C96.8664 49.0781 96.9908 49.4396 97.0038 49.8443H96.0705Z" fill="#2C4E8D"/>
<path d="M99.6629 47.8394V55.859H98.6984V47.8394H99.6629Z" fill="#2C4E8D"/>
<path d="M101.923 47.8394L104.288 54.5903H104.381L106.746 47.8394H107.757L104.832 55.859H103.837L100.912 47.8394H101.923Z" fill="#2C4E8D"/>
<path d="M108.997 55.859V47.8394H113.804V48.7009H109.962V51.4106H113.555V52.2721H109.962V54.9975H113.866V55.859H108.997Z" fill="#2C4E8D"/>
<path d="M122.978 49.8443C122.931 49.4475 122.742 49.1394 122.41 48.9201C122.079 48.7009 121.671 48.5912 121.189 48.5912C120.837 48.5912 120.528 48.6486 120.264 48.7635C120.002 48.8784 119.797 49.0363 119.649 49.2373C119.504 49.4383 119.431 49.6668 119.431 49.9226C119.431 50.1367 119.482 50.3207 119.583 50.4747C119.687 50.6261 119.819 50.7528 119.98 50.8546C120.141 50.9538 120.309 51.036 120.485 51.1013C120.662 51.1639 120.824 51.2148 120.971 51.254L121.78 51.4733C121.988 51.5281 122.219 51.6038 122.473 51.7004C122.729 51.797 122.974 51.9288 123.208 52.0959C123.444 52.2604 123.638 52.4718 123.791 52.7303C123.944 52.9887 124.02 53.3059 124.02 53.6818C124.02 54.1152 123.908 54.5067 123.682 54.8566C123.459 55.2064 123.132 55.4844 122.702 55.6906C122.274 55.8969 121.754 56 121.143 56C120.572 56 120.078 55.9073 119.661 55.722C119.246 55.5366 118.919 55.2782 118.681 54.9466C118.445 54.6151 118.311 54.23 118.28 53.7915H119.276C119.302 54.0943 119.403 54.3449 119.579 54.5433C119.758 54.7391 119.984 54.8853 120.256 54.9819C120.531 55.0759 120.826 55.1228 121.143 55.1228C121.511 55.1228 121.841 55.0628 122.134 54.9427C122.427 54.82 122.659 54.6503 122.83 54.4337C123.001 54.2144 123.087 53.9585 123.087 53.6661C123.087 53.3999 123.013 53.1832 122.865 53.0161C122.718 52.849 122.523 52.7133 122.282 52.6089C122.041 52.5044 121.78 52.4131 121.5 52.3348L120.52 52.0528C119.898 51.8727 119.405 51.6155 119.043 51.2814C118.68 50.9472 118.498 50.51 118.498 49.9696C118.498 49.5206 118.619 49.129 118.86 48.7948C119.103 48.4581 119.43 48.197 119.84 48.0117C120.252 47.8237 120.712 47.7297 121.22 47.7297C121.734 47.7297 122.19 47.8224 122.589 48.0077C122.989 48.1905 123.305 48.4411 123.538 48.7596C123.774 49.0781 123.899 49.4396 123.911 49.8443H122.978Z" fill="#2C4E8D"/>
<path d="M132.326 51.8492C132.326 52.695 132.175 53.426 131.871 54.0421C131.568 54.6582 131.152 55.1333 130.623 55.4674C130.094 55.8016 129.49 55.9687 128.811 55.9687C128.131 55.9687 127.527 55.8016 126.998 55.4674C126.469 55.1333 126.053 54.6582 125.75 54.0421C125.447 53.426 125.295 52.695 125.295 51.8492C125.295 51.0034 125.447 50.2724 125.75 49.6563C126.053 49.0402 126.469 48.5651 126.998 48.2309C127.527 47.8968 128.131 47.7297 128.811 47.7297C129.49 47.7297 130.094 47.8968 130.623 48.2309C131.152 48.5651 131.568 49.0402 131.871 49.6563C132.175 50.2724 132.326 51.0034 132.326 51.8492ZM131.393 51.8492C131.393 51.1548 131.278 50.5687 131.047 50.091C130.819 49.6132 130.509 49.2517 130.117 49.0063C129.728 48.7609 129.293 48.6382 128.811 48.6382C128.328 48.6382 127.892 48.7609 127.5 49.0063C127.111 49.2517 126.801 49.6132 126.571 50.091C126.342 50.5687 126.228 51.1548 126.228 51.8492C126.228 52.5436 126.342 53.1297 126.571 53.6074C126.801 54.0851 127.111 54.4467 127.5 54.6921C127.892 54.9375 128.328 55.0602 128.811 55.0602C129.293 55.0602 129.728 54.9375 130.117 54.6921C130.509 54.4467 130.819 54.0851 131.047 53.6074C131.278 53.1297 131.393 52.5436 131.393 51.8492Z" fill="#2C4E8D"/>
<path d="M133.948 55.859V47.8394H134.912V54.9975H138.615V55.859H133.948Z" fill="#2C4E8D"/>
<path d="M145.335 47.8394H146.299V53.1493C146.299 53.6975 146.171 54.187 145.914 54.6177C145.66 55.0458 145.301 55.3839 144.837 55.6319C144.373 55.8773 143.828 56 143.204 56C142.579 56 142.034 55.8773 141.57 55.6319C141.106 55.3839 140.746 55.0458 140.489 54.6177C140.235 54.187 140.108 53.6975 140.108 53.1493V47.8394H141.073V53.0709C141.073 53.4625 141.158 53.811 141.329 54.1165C141.5 54.4193 141.744 54.6582 142.06 54.8331C142.379 55.0054 142.76 55.0915 143.204 55.0915C143.647 55.0915 144.028 55.0054 144.347 54.8331C144.666 54.6582 144.91 54.4193 145.078 54.1165C145.249 53.811 145.335 53.4625 145.335 53.0709V47.8394Z" fill="#2C4E8D"/>
<path d="M147.79 48.7009V47.8394H153.763V48.7009H151.259V55.859H150.294V48.7009H147.79Z" fill="#2C4E8D"/>
<path d="M156.216 47.8394V55.859H155.252V47.8394H156.216Z" fill="#2C4E8D"/>
<path d="M164.87 51.8492C164.87 52.695 164.718 53.426 164.415 54.0421C164.112 54.6582 163.696 55.1333 163.167 55.4674C162.638 55.8016 162.034 55.9687 161.354 55.9687C160.675 55.9687 160.071 55.8016 159.542 55.4674C159.013 55.1333 158.597 54.6582 158.294 54.0421C157.99 53.426 157.839 52.695 157.839 51.8492C157.839 51.0034 157.99 50.2724 158.294 49.6563C158.597 49.0402 159.013 48.5651 159.542 48.2309C160.071 47.8968 160.675 47.7297 161.354 47.7297C162.034 47.7297 162.638 47.8968 163.167 48.2309C163.696 48.5651 164.112 49.0402 164.415 49.6563C164.718 50.2724 164.87 51.0034 164.87 51.8492ZM163.937 51.8492C163.937 51.1548 163.821 50.5687 163.591 50.091C163.362 49.6132 163.053 49.2517 162.661 49.0063C162.272 48.7609 161.837 48.6382 161.354 48.6382C160.872 48.6382 160.435 48.7609 160.044 49.0063C159.655 49.2517 159.345 49.6132 159.114 50.091C158.886 50.5687 158.772 51.1548 158.772 51.8492C158.772 52.5436 158.886 53.1297 159.114 53.6074C159.345 54.0851 159.655 54.4467 160.044 54.6921C160.435 54.9375 160.872 55.0602 161.354 55.0602C161.837 55.0602 162.272 54.9375 162.661 54.6921C163.053 54.4467 163.362 54.0851 163.591 53.6074C163.821 53.1297 163.937 52.5436 163.937 51.8492Z" fill="#2C4E8D"/>
<path d="M172.807 47.8394V55.859H171.874L167.534 49.5623H167.456V55.859H166.492V47.8394H167.425L171.781 54.1517H171.858V47.8394H172.807Z" fill="#2C4E8D"/>
<path d="M179.093 49.8443C179.046 49.4475 178.857 49.1394 178.525 48.9201C178.193 48.7009 177.786 48.5912 177.304 48.5912C176.951 48.5912 176.643 48.6486 176.378 48.7635C176.117 48.8784 175.912 49.0363 175.764 49.2373C175.619 49.4383 175.546 49.6668 175.546 49.9226C175.546 50.1367 175.597 50.3207 175.698 50.4747C175.802 50.6261 175.934 50.7528 176.095 50.8546C176.255 50.9538 176.424 51.036 176.6 51.1013C176.776 51.1639 176.938 51.2148 177.086 51.254L177.895 51.4733C178.103 51.5281 178.333 51.6038 178.587 51.7004C178.844 51.797 179.089 51.9288 179.322 52.0959C179.558 52.2604 179.753 52.4718 179.906 52.7303C180.059 52.9887 180.135 53.3059 180.135 53.6818C180.135 54.1152 180.022 54.5067 179.797 54.8566C179.574 55.2064 179.247 55.4844 178.817 55.6906C178.389 55.8969 177.869 56 177.257 56C176.687 56 176.193 55.9073 175.776 55.722C175.361 55.5366 175.034 55.2782 174.796 54.9466C174.56 54.6151 174.426 54.23 174.395 53.7915H175.391C175.417 54.0943 175.518 54.3449 175.694 54.5433C175.873 54.7391 176.098 54.8853 176.371 54.9819C176.645 55.0759 176.941 55.1228 177.257 55.1228C177.625 55.1228 177.956 55.0628 178.249 54.9427C178.542 54.82 178.774 54.6503 178.945 54.4337C179.116 54.2144 179.202 53.9585 179.202 53.6661C179.202 53.3999 179.128 53.1832 178.98 53.0161C178.832 52.849 178.638 52.7133 178.397 52.6089C178.156 52.5044 177.895 52.4131 177.615 52.3348L176.635 52.0528C176.013 51.8727 175.52 51.6155 175.157 51.2814C174.794 50.9472 174.613 50.51 174.613 49.9696C174.613 49.5206 174.733 49.129 174.975 48.7948C175.218 48.4581 175.545 48.197 175.955 48.0117C176.367 47.8237 176.827 47.7297 177.335 47.7297C177.848 47.7297 178.305 47.8224 178.704 48.0077C179.103 48.1905 179.42 48.4411 179.653 48.7596C179.889 49.0781 180.013 49.4396 180.026 49.8443H179.093Z" fill="#2C4E8D"/>
</svg>
