<svg width="148" height="122" viewBox="0 0 148 122" fill="none" xmlns="http://www.w3.org/2000/svg">
<rect x="76.3056" width="30.6944" height="14.2854" rx="7.14269" fill="#31BFFF"/>
<rect x="42" width="30.6944" height="14.2854" rx="7.14269" fill="#0053FC"/>
<rect x="64.5694" y="18.0556" width="43.3333" height="14.4444" rx="7.22222" transform="rotate(90 64.5694 18.0556)" fill="#0053FC"/>
<rect x="92.5264" y="63.8477" width="58.7443" height="14.2854" rx="7.14269" transform="rotate(-139.581 92.5264 63.8477)" fill="#1195F8"/>
<rect x="98.875" y="18.0556" width="43.3333" height="14.4444" rx="7.22222" transform="rotate(90 98.875 18.0556)" fill="#31BFFF"/>
<path d="M7.19186 100.978C6.54275 100.978 6.04116 100.801 5.6871 100.448C5.33304 100.079 5.15601 99.5709 5.15601 98.9227V88.5138H1.68179C1.13594 88.5138 0.715497 88.3738 0.420447 88.0939C0.140149 87.7993 0 87.3867 0 86.8564C0 86.3112 0.140149 85.8987 0.420447 85.6188C0.715497 85.3389 1.13594 85.1989 1.68179 85.1989H12.7019C13.2478 85.1989 13.6608 85.3389 13.9411 85.6188C14.2362 85.8987 14.3837 86.3112 14.3837 86.8564C14.3837 87.3867 14.2362 87.7993 13.9411 88.0939C13.6608 88.3738 13.2478 88.5138 12.7019 88.5138H9.22771V98.9227C9.22771 99.5709 9.05805 100.079 8.71874 100.448C8.37943 100.801 7.87047 100.978 7.19186 100.978Z" fill="#2C4E8D"/>
<path d="M15.6551 100.978C15.0355 100.978 14.556 100.808 14.2167 100.47C13.8774 100.131 13.7077 99.6372 13.7077 98.989V91.674C13.7077 91.0405 13.87 90.5543 14.1946 90.2155C14.5339 89.8766 15.0133 89.7072 15.633 89.7072C16.2526 89.7072 16.7246 89.8766 17.0492 90.2155C17.3737 90.5543 17.536 91.0405 17.536 91.674V92.7127L17.2926 91.8066C17.6467 91.1142 18.1483 90.5838 18.7974 90.2155C19.4612 89.8471 20.2136 89.663 21.0545 89.663C21.9249 89.663 22.6404 89.8324 23.201 90.1713C23.7616 90.4954 24.182 91.011 24.4623 91.7182C24.7426 92.4107 24.8828 93.2873 24.8828 94.3481V98.989C24.8828 99.6372 24.7131 100.131 24.3738 100.47C24.0345 100.808 23.5477 100.978 22.9133 100.978C22.279 100.978 21.7921 100.808 21.4528 100.47C21.1135 100.131 20.9439 99.6372 20.9439 98.989V94.5028C20.9439 93.8398 20.8258 93.3683 20.5898 93.0884C20.3685 92.8085 20.0366 92.6685 19.594 92.6685C19.0039 92.6685 18.5318 92.86 18.1778 93.2431C17.8237 93.6114 17.6467 94.1123 17.6467 94.7459V98.989C17.6467 100.315 16.9828 100.978 15.6551 100.978Z" fill="#2C4E8D"/>
<path d="M33.1024 100.978C32.4533 100.978 31.9517 100.801 31.5977 100.448C31.2436 100.079 31.0666 99.5709 31.0666 98.9227V88.5138H27.5924C27.0465 88.5138 26.6261 88.3738 26.331 88.0939C26.0507 87.7993 25.9106 87.3867 25.9106 86.8564C25.9106 86.3112 26.0507 85.8987 26.331 85.6188C26.6261 85.3389 27.0465 85.1989 27.5924 85.1989H38.6125C39.1583 85.1989 39.5714 85.3389 39.8517 85.6188C40.1467 85.8987 40.2943 86.3112 40.2943 86.8564C40.2943 87.3867 40.1467 87.7993 39.8517 88.0939C39.5714 88.3738 39.1583 88.5138 38.6125 88.5138H35.1383V98.9227C35.1383 99.5709 34.9686 100.079 34.6293 100.448C34.29 100.801 33.781 100.978 33.1024 100.978Z" fill="#2C4E8D"/>
<path d="M45.5488 101.022C44.2211 101.022 43.0704 100.794 42.0967 100.337C41.1378 99.8656 40.4002 99.2026 39.8839 98.3481C39.3675 97.4936 39.1093 96.4843 39.1093 95.3204C39.1093 94.2007 39.3528 93.221 39.8396 92.3812C40.3412 91.5267 41.0198 90.8637 41.8754 90.3923C42.7458 89.9061 43.7343 89.663 44.8407 89.663C45.6521 89.663 46.3897 89.7956 47.0536 90.0608C47.7174 90.3112 48.2854 90.6869 48.7575 91.1878C49.2296 91.674 49.5836 92.2634 49.8197 92.9558C50.0705 93.6483 50.1959 94.4217 50.1959 95.2762C50.1959 95.5709 50.1147 95.7919 49.9525 95.9392C49.7902 96.0718 49.532 96.1381 49.1779 96.1381H42.4065V94.2818H47.3191L46.9651 94.5691C46.9651 94.0239 46.8913 93.582 46.7438 93.2431C46.5963 92.9042 46.375 92.6464 46.0799 92.4696C45.7996 92.2928 45.4456 92.2044 45.0177 92.2044C44.5604 92.2044 44.1621 92.3149 43.8228 92.5359C43.4982 92.7422 43.2474 93.0516 43.0704 93.4641C42.8934 93.8766 42.8049 94.3923 42.8049 95.0111V95.2099C42.8049 96.256 43.0335 97.0074 43.4908 97.4641C43.9629 97.9061 44.6858 98.1271 45.6595 98.1271C45.984 98.1271 46.3528 98.0902 46.7659 98.0166C47.1937 97.9282 47.5994 97.8103 47.983 97.663C48.3666 97.5157 48.6985 97.4936 48.9788 97.5967C49.2591 97.6851 49.473 97.8471 49.6205 98.0829C49.7828 98.3039 49.8713 98.5617 49.8861 98.8564C49.9008 99.1363 49.8344 99.4162 49.6869 99.6961C49.5394 99.9613 49.296 100.168 48.9567 100.315C48.4403 100.551 47.8871 100.727 47.297 100.845C46.7216 100.963 46.1389 101.022 45.5488 101.022Z" fill="#2C4E8D"/>
<path d="M57.4472 101.022C56.2227 101.022 55.1532 100.794 54.2385 100.337C53.3386 99.8803 52.6379 99.2247 52.1363 98.3702C51.6347 97.5009 51.3839 96.4843 51.3839 95.3204C51.3839 94.4365 51.5241 93.6483 51.8044 92.9558C52.0847 92.2486 52.4903 91.6519 53.0214 91.1657C53.5673 90.6796 54.209 90.3112 54.9466 90.0608C55.699 89.7956 56.5325 89.663 57.4472 89.663C57.875 89.663 58.325 89.7072 58.7971 89.7956C59.2691 89.8692 59.756 90.0166 60.2576 90.2376C60.6116 90.3702 60.855 90.5764 60.9878 90.8564C61.1353 91.1215 61.1943 91.4088 61.1648 91.7182C61.1501 92.0276 61.0616 92.3076 60.8993 92.558C60.7518 92.8085 60.5379 92.9779 60.2576 93.0663C59.992 93.1547 59.6896 93.1179 59.3503 92.9558C59.1142 92.8379 58.8634 92.7569 58.5979 92.7127C58.3471 92.6538 58.1037 92.6243 57.8676 92.6243C57.4693 92.6243 57.1153 92.6832 56.8055 92.8011C56.5104 92.919 56.2596 93.0958 56.0531 93.3315C55.8465 93.5525 55.6843 93.8324 55.5663 94.1713C55.463 94.5101 55.4113 94.8932 55.4113 95.3204C55.4113 96.175 55.6253 96.8453 56.0531 97.3315C56.4809 97.8177 57.0858 98.0608 57.8676 98.0608C58.1037 98.0608 58.3471 98.0387 58.5979 97.9945C58.8487 97.9355 59.0995 97.8471 59.3503 97.7293C59.6896 97.5672 59.992 97.5378 60.2576 97.6409C60.5231 97.7293 60.737 97.8987 60.8993 98.1492C61.0616 98.3996 61.1501 98.6796 61.1648 98.989C61.1796 99.2836 61.1132 99.5709 60.9657 99.8508C60.8181 100.116 60.5674 100.315 60.2133 100.448C59.7265 100.669 59.247 100.816 58.7749 100.89C58.3176 100.978 57.875 101.022 57.4472 101.022Z" fill="#2C4E8D"/>
<path d="M64.5588 100.978C63.9392 100.978 63.4598 100.808 63.1205 100.47C62.7812 100.131 62.6115 99.6372 62.6115 98.989V86.989C62.6115 86.3407 62.7812 85.8471 63.1205 85.5083C63.4598 85.1694 63.9392 85 64.5588 85C65.1932 85 65.68 85.1694 66.0193 85.5083C66.3734 85.8471 66.5504 86.3407 66.5504 86.989V91.8066H66.1964C66.5504 91.1142 67.052 90.5838 67.7011 90.2155C68.365 89.8471 69.1174 89.663 69.9583 89.663C70.8287 89.663 71.5442 89.8324 72.1048 90.1713C72.6654 90.4954 73.0858 91.011 73.3661 91.7182C73.6464 92.4107 73.7865 93.2873 73.7865 94.3481V98.989C73.7865 99.6372 73.6169 100.131 73.2776 100.47C72.9383 100.808 72.4514 100.978 71.8171 100.978C71.1827 100.978 70.6959 100.808 70.3566 100.47C70.0173 100.131 69.8476 99.6372 69.8476 98.989V94.5028C69.8476 93.8398 69.7296 93.3683 69.4936 93.0884C69.2723 92.8085 68.9403 92.6685 68.4978 92.6685C67.9077 92.6685 67.4356 92.86 67.0815 93.2431C66.7275 93.6114 66.5504 94.1123 66.5504 94.7459V98.989C66.5504 100.315 65.8866 100.978 64.5588 100.978Z" fill="#2C4E8D"/>
<path d="M77.9787 100.978C77.3591 100.978 76.8797 100.808 76.5404 100.47C76.2011 100.131 76.0314 99.6372 76.0314 98.989V91.674C76.0314 91.0405 76.1937 90.5543 76.5182 90.2155C76.8575 89.8766 77.337 89.7072 77.9566 89.7072C78.5762 89.7072 79.0483 89.8766 79.3728 90.2155C79.6974 90.5543 79.8597 91.0405 79.8597 91.674V92.7127L79.6163 91.8066C79.9703 91.1142 80.4719 90.5838 81.121 90.2155C81.7849 89.8471 82.5373 89.663 83.3782 89.663C84.2486 89.663 84.9641 89.8324 85.5247 90.1713C86.0853 90.4954 86.5057 91.011 86.786 91.7182C87.0663 92.4107 87.2064 93.2873 87.2064 94.3481V98.989C87.2064 99.6372 87.0368 100.131 86.6975 100.47C86.3582 100.808 85.8713 100.978 85.237 100.978C84.6026 100.978 84.1158 100.808 83.7765 100.47C83.4372 100.131 83.2675 99.6372 83.2675 98.989V94.5028C83.2675 93.8398 83.1495 93.3683 82.9135 93.0884C82.6922 92.8085 82.3602 92.6685 81.9177 92.6685C81.3276 92.6685 80.8555 92.86 80.5014 93.2431C80.1474 93.6114 79.9703 94.1123 79.9703 94.7459V98.989C79.9703 100.315 79.3065 100.978 77.9787 100.978Z" fill="#2C4E8D"/>
<path d="M94.9614 101.022C93.7517 101.022 92.6969 100.794 91.797 100.337C90.897 99.8803 90.1963 99.2247 89.6947 98.3702C89.1931 97.5157 88.9423 96.5064 88.9423 95.3425C88.9423 94.4586 89.0825 93.6704 89.3628 92.9779C89.6431 92.2707 90.0488 91.674 90.5799 91.1878C91.111 90.6869 91.7453 90.3112 92.4829 90.0608C93.2206 89.7956 94.0467 89.663 94.9614 89.663C96.1711 89.663 97.2259 89.8913 98.1258 90.3481C99.0257 90.8048 99.7191 91.4604 100.206 92.3149C100.707 93.1547 100.958 94.1639 100.958 95.3425C100.958 96.2118 100.818 97 100.538 97.7072C100.258 98.4144 99.8518 99.0184 99.3207 99.5193C98.8044 100.006 98.17 100.381 97.4177 100.646C96.68 100.897 95.8613 101.022 94.9614 101.022ZM94.9614 98.1271C95.3597 98.1271 95.7138 98.0313 96.0236 97.8398C96.3334 97.6335 96.5694 97.3315 96.7317 96.9337C96.9087 96.5212 96.9972 95.9908 96.9972 95.3425C96.9972 94.3554 96.8054 93.6483 96.4219 93.221C96.0383 92.779 95.5515 92.558 94.9614 92.558C94.563 92.558 94.209 92.6538 93.8992 92.8453C93.5894 93.0368 93.346 93.3389 93.1689 93.7514C92.9919 94.1492 92.9034 94.6796 92.9034 95.3425C92.9034 96.3149 93.0952 97.0221 93.4787 97.4641C93.8623 97.9061 94.3565 98.1271 94.9614 98.1271Z" fill="#2C4E8D"/>
<path d="M106.901 101.022C105.485 101.022 104.438 100.646 103.759 99.895C103.095 99.1289 102.763 97.9797 102.763 96.4475V86.989C102.763 86.3407 102.933 85.8471 103.272 85.5083C103.611 85.1694 104.091 85 104.71 85C105.345 85 105.832 85.1694 106.171 85.5083C106.525 85.8471 106.702 86.3407 106.702 86.989V96.3149C106.702 96.86 106.805 97.2578 107.012 97.5083C107.233 97.7587 107.513 97.884 107.853 97.884C107.956 97.884 108.059 97.8766 108.163 97.8619C108.281 97.8324 108.406 97.8103 108.539 97.7956C108.79 97.7956 108.974 97.8913 109.092 98.0829C109.225 98.2744 109.291 98.6648 109.291 99.2541C109.291 99.7698 109.188 100.16 108.981 100.425C108.775 100.676 108.458 100.838 108.03 100.912C107.912 100.926 107.742 100.948 107.521 100.978C107.3 101.007 107.093 101.022 106.901 101.022Z" fill="#2C4E8D"/>
<path d="M115.858 101.022C114.649 101.022 113.594 100.794 112.694 100.337C111.794 99.8803 111.093 99.2247 110.592 98.3702C110.09 97.5157 109.839 96.5064 109.839 95.3425C109.839 94.4586 109.979 93.6704 110.26 92.9779C110.54 92.2707 110.946 91.674 111.477 91.1878C112.008 90.6869 112.642 90.3112 113.38 90.0608C114.118 89.7956 114.944 89.663 115.858 89.663C117.068 89.663 118.123 89.8913 119.023 90.3481C119.923 90.8048 120.616 91.4604 121.103 92.3149C121.604 93.1547 121.855 94.1639 121.855 95.3425C121.855 96.2118 121.715 97 121.435 97.7072C121.155 98.4144 120.749 99.0184 120.218 99.5193C119.701 100.006 119.067 100.381 118.315 100.646C117.577 100.897 116.758 101.022 115.858 101.022ZM115.858 98.1271C116.257 98.1271 116.611 98.0313 116.921 97.8398C117.23 97.6335 117.466 97.3315 117.629 96.9337C117.806 96.5212 117.894 95.9908 117.894 95.3425C117.894 94.3554 117.702 93.6483 117.319 93.221C116.935 92.779 116.448 92.558 115.858 92.558C115.46 92.558 115.106 92.6538 114.796 92.8453C114.486 93.0368 114.243 93.3389 114.066 93.7514C113.889 94.1492 113.8 94.6796 113.8 95.3425C113.8 96.3149 113.992 97.0221 114.376 97.4641C114.759 97.9061 115.254 98.1271 115.858 98.1271Z" fill="#2C4E8D"/>
<path d="M129.06 105C128.248 105 127.488 104.941 126.78 104.823C126.072 104.72 125.46 104.565 124.944 104.359C124.516 104.212 124.213 103.998 124.036 103.718C123.859 103.438 123.778 103.144 123.793 102.834C123.808 102.525 123.889 102.245 124.036 101.994C124.199 101.744 124.413 101.56 124.678 101.442C124.944 101.339 125.239 101.346 125.563 101.464C126.212 101.729 126.802 101.899 127.334 101.972C127.865 102.061 128.315 102.105 128.683 102.105C129.583 102.105 130.255 101.913 130.697 101.53C131.154 101.162 131.383 100.58 131.383 99.7845V98.3923H131.56C131.339 99.0111 130.889 99.5193 130.21 99.9171C129.532 100.3 128.794 100.492 127.997 100.492C127.024 100.492 126.175 100.271 125.453 99.8287C124.73 99.372 124.162 98.7385 123.749 97.9282C123.35 97.1179 123.151 96.1676 123.151 95.0773C123.151 94.2523 123.269 93.5083 123.505 92.8453C123.741 92.1823 124.066 91.6151 124.479 91.1436C124.907 90.6722 125.416 90.3112 126.006 90.0608C126.611 89.7956 127.275 89.663 127.997 89.663C128.824 89.663 129.561 89.8545 130.21 90.2376C130.874 90.6206 131.317 91.1215 131.538 91.7403L131.317 92.6464V91.674C131.317 91.0405 131.486 90.5543 131.826 90.2155C132.18 89.8766 132.667 89.7072 133.286 89.7072C133.906 89.7072 134.378 89.8766 134.702 90.2155C135.042 90.5543 135.211 91.0405 135.211 91.674V99.3204C135.211 101.206 134.68 102.621 133.618 103.564C132.556 104.521 131.036 105 129.06 105ZM129.214 97.5967C129.657 97.5967 130.033 97.5009 130.343 97.3094C130.653 97.1031 130.896 96.8158 131.073 96.4475C131.25 96.0645 131.339 95.6077 131.339 95.0773C131.339 94.2818 131.147 93.663 130.764 93.221C130.38 92.779 129.864 92.558 129.214 92.558C128.801 92.558 128.433 92.6611 128.108 92.8674C127.783 93.0589 127.533 93.3462 127.356 93.7293C127.193 94.0976 127.112 94.547 127.112 95.0773C127.112 95.8729 127.304 96.4917 127.688 96.9337C128.071 97.3757 128.58 97.5967 129.214 97.5967Z" fill="#2C4E8D"/>
<path d="M140.677 104.956C140.219 104.956 139.851 104.838 139.57 104.602C139.29 104.366 139.113 104.057 139.039 103.674C138.98 103.291 139.047 102.886 139.238 102.459L140.721 99.2541V100.845L136.937 92.2044C136.745 91.7624 136.679 91.3499 136.738 90.9669C136.812 90.5838 137.011 90.2818 137.335 90.0608C137.66 89.825 138.102 89.7072 138.663 89.7072C139.135 89.7072 139.511 89.8177 139.792 90.0387C140.087 90.2449 140.352 90.6575 140.588 91.2762L142.801 97.0221H142.049L144.394 91.2541C144.63 90.6501 144.896 90.2449 145.191 90.0387C145.501 89.8177 145.914 89.7072 146.43 89.7072C146.873 89.7072 147.227 89.825 147.492 90.0608C147.758 90.2818 147.92 90.5838 147.979 90.9669C148.038 91.3499 147.972 91.7624 147.78 92.2044L142.757 103.475C142.491 104.064 142.196 104.455 141.872 104.646C141.562 104.853 141.164 104.956 140.677 104.956Z" fill="#2C4E8D"/>
<path d="M7 121.847V113.119H12.2309V114.057H8.04956V117.006H11.96V117.943H8.04956V120.909H12.2986V121.847H7Z" fill="#2C4E8D"/>
<path d="M14.6305 113.119L16.865 116.75H16.9327L19.1673 113.119H20.4031L17.6776 117.483L20.4031 121.847H19.1673L16.9327 118.284H16.865L14.6305 121.847H13.3947L16.1879 117.483L13.3947 113.119H14.6305Z" fill="#2C4E8D"/>
<path d="M21.769 121.847V113.119H24.6976C25.3776 113.119 25.9334 113.243 26.365 113.49C26.7995 113.734 27.1212 114.065 27.33 114.483C27.5387 114.901 27.6431 115.366 27.6431 115.881C27.6431 116.395 27.5387 116.862 27.33 117.283C27.124 117.703 26.8052 118.038 26.3735 118.288C25.9418 118.536 25.3888 118.659 24.7145 118.659H22.6154V117.722H24.6807C25.1462 117.722 25.52 117.641 25.8022 117.479C26.0843 117.317 26.2889 117.098 26.4158 116.822C26.5456 116.544 26.6105 116.23 26.6105 115.881C26.6105 115.531 26.5456 115.219 26.4158 114.943C26.2889 114.668 26.0829 114.452 25.7979 114.295C25.513 114.136 25.1349 114.057 24.6637 114.057H22.8185V121.847H21.769Z" fill="#2C4E8D"/>
<path d="M29.3339 121.847V113.119H30.3834V120.909H34.4124V121.847H29.3339Z" fill="#2C4E8D"/>
<path d="M43.0131 117.483C43.0131 118.403 42.848 119.199 42.5179 119.869C42.1878 120.54 41.735 121.057 41.1594 121.42C40.5839 121.784 39.9265 121.966 39.1873 121.966C38.448 121.966 37.7907 121.784 37.2151 121.42C36.6395 121.057 36.1867 120.54 35.8566 119.869C35.5265 119.199 35.3614 118.403 35.3614 117.483C35.3614 116.562 35.5265 115.767 35.8566 115.097C36.1867 114.426 36.6395 113.909 37.2151 113.545C37.7907 113.182 38.448 113 39.1873 113C39.9265 113 40.5839 113.182 41.1594 113.545C41.735 113.909 42.1878 114.426 42.5179 115.097C42.848 115.767 43.0131 116.562 43.0131 117.483ZM41.9974 117.483C41.9974 116.727 41.8718 116.089 41.6207 115.57C41.3724 115.05 41.0353 114.656 40.6092 114.389C40.186 114.122 39.712 113.989 39.1873 113.989C38.6625 113.989 38.1871 114.122 37.761 114.389C37.3378 114.656 37.0007 115.05 36.7496 115.57C36.5013 116.089 36.3771 116.727 36.3771 117.483C36.3771 118.239 36.5013 118.876 36.7496 119.396C37.0007 119.916 37.3378 120.31 37.761 120.577C38.1871 120.844 38.6625 120.977 39.1873 120.977C39.712 120.977 40.186 120.844 40.6092 120.577C41.0353 120.31 41.3724 119.916 41.6207 119.396C41.8718 118.876 41.9974 118.239 41.9974 117.483Z" fill="#2C4E8D"/>
<path d="M49.5178 115.301C49.467 114.869 49.2611 114.534 48.8999 114.295C48.5388 114.057 48.0958 113.938 47.571 113.938C47.1873 113.938 46.8516 114 46.5638 114.125C46.2789 114.25 46.056 114.422 45.8951 114.641C45.7371 114.859 45.6581 115.108 45.6581 115.386C45.6581 115.619 45.7132 115.82 45.8232 115.987C45.9361 116.152 46.0799 116.29 46.2549 116.401C46.4298 116.509 46.6132 116.598 46.805 116.669C46.9969 116.737 47.1732 116.793 47.3341 116.835L48.2143 117.074C48.44 117.134 48.6911 117.216 48.9676 117.321C49.247 117.426 49.5136 117.57 49.7675 117.751C50.0243 117.93 50.2359 118.161 50.4023 118.442C50.5688 118.723 50.652 119.068 50.652 119.477C50.652 119.949 50.5293 120.375 50.2838 120.756C50.0412 121.136 49.6857 121.439 49.2173 121.663C48.7518 121.888 48.1861 122 47.5203 122C46.8996 122 46.3621 121.899 45.9078 121.697C45.4564 121.496 45.1009 121.214 44.8413 120.854C44.5846 120.493 44.4393 120.074 44.4054 119.597H45.4889C45.5171 119.926 45.6271 120.199 45.819 120.415C46.0136 120.628 46.2591 120.787 46.5553 120.892C46.8544 120.994 47.1761 121.045 47.5203 121.045C47.9209 121.045 48.2806 120.98 48.5994 120.849C48.9183 120.716 49.1708 120.531 49.357 120.295C49.5432 120.057 49.6363 119.778 49.6363 119.46C49.6363 119.17 49.5559 118.935 49.3951 118.753C49.2343 118.571 49.0227 118.423 48.7603 118.31C48.4979 118.196 48.2143 118.097 47.9096 118.011L46.8431 117.705C46.166 117.509 45.6299 117.229 45.2349 116.865C44.8399 116.501 44.6424 116.026 44.6424 115.438C44.6424 114.949 44.7736 114.523 45.036 114.159C45.3012 113.793 45.6567 113.509 46.1025 113.307C46.5511 113.102 47.0519 113 47.6049 113C48.1635 113 48.6601 113.101 49.0946 113.303C49.5291 113.501 49.8733 113.774 50.1272 114.121C50.384 114.467 50.5194 114.861 50.5335 115.301H49.5178Z" fill="#2C4E8D"/>
<path d="M53.4272 113.119V121.847H52.3777V113.119H53.4272Z" fill="#2C4E8D"/>
<path d="M55.8871 113.119L58.4603 120.466H58.5618L61.1349 113.119H62.2353L59.0527 121.847H57.9693L54.7868 113.119H55.8871Z" fill="#2C4E8D"/>
<path d="M63.5853 121.847V113.119H68.8162V114.057H64.6349V117.006H68.5453V117.943H64.6349V120.909H68.8839V121.847H63.5853Z" fill="#2C4E8D"/>
<path d="M78.7997 115.301C78.7489 114.869 78.543 114.534 78.1818 114.295C77.8207 114.057 77.3777 113.938 76.853 113.938C76.4693 113.938 76.1335 114 75.8457 114.125C75.5608 114.25 75.3379 114.422 75.1771 114.641C75.0191 114.859 74.94 115.108 74.94 115.386C74.94 115.619 74.9951 115.82 75.1051 115.987C75.218 116.152 75.3619 116.29 75.5368 116.401C75.7117 116.509 75.8951 116.598 76.087 116.669C76.2788 116.737 76.4551 116.793 76.616 116.835L77.4962 117.074C77.722 117.134 77.9731 117.216 78.2496 117.321C78.5289 117.426 78.7955 117.57 79.0494 117.751C79.3062 117.93 79.5178 118.161 79.6842 118.442C79.8507 118.723 79.9339 119.068 79.9339 119.477C79.9339 119.949 79.8112 120.375 79.5657 120.756C79.3231 121.136 78.9676 121.439 78.4993 121.663C78.0337 121.888 77.468 122 76.8022 122C76.1815 122 75.644 121.899 75.1898 121.697C74.7383 121.496 74.3828 121.214 74.1233 120.854C73.8665 120.493 73.7212 120.074 73.6874 119.597H74.7708C74.799 119.926 74.909 120.199 75.1009 120.415C75.2956 120.628 75.541 120.787 75.8373 120.892C76.1363 120.994 76.458 121.045 76.8022 121.045C77.2028 121.045 77.5626 120.98 77.8814 120.849C78.2002 120.716 78.4527 120.531 78.6389 120.295C78.8251 120.057 78.9182 119.778 78.9182 119.46C78.9182 119.17 78.8378 118.935 78.677 118.753C78.5162 118.571 78.3046 118.423 78.0422 118.31C77.7798 118.196 77.4962 118.097 77.1915 118.011L76.125 117.705C75.4479 117.509 74.9118 117.229 74.5168 116.865C74.1218 116.501 73.9244 116.026 73.9244 115.438C73.9244 114.949 74.0555 114.523 74.3179 114.159C74.5831 113.793 74.9386 113.509 75.3844 113.307C75.833 113.102 76.3338 113 76.8868 113C77.4455 113 77.942 113.101 78.3765 113.303C78.811 113.501 79.1552 113.774 79.4091 114.121C79.6659 114.467 79.8013 114.861 79.8154 115.301H78.7997Z" fill="#2C4E8D"/>
<path d="M88.9726 117.483C88.9726 118.403 88.8076 119.199 88.4775 119.869C88.1474 120.54 87.6946 121.057 87.119 121.42C86.5434 121.784 85.886 121.966 85.1468 121.966C84.4076 121.966 83.7502 121.784 83.1747 121.42C82.5991 121.057 82.1463 120.54 81.8162 119.869C81.4861 119.199 81.321 118.403 81.321 117.483C81.321 116.562 81.4861 115.767 81.8162 115.097C82.1463 114.426 82.5991 113.909 83.1747 113.545C83.7502 113.182 84.4076 113 85.1468 113C85.886 113 86.5434 113.182 87.119 113.545C87.6946 113.909 88.1474 114.426 88.4775 115.097C88.8076 115.767 88.9726 116.562 88.9726 117.483ZM87.9569 117.483C87.9569 116.727 87.8314 116.089 87.5803 115.57C87.332 115.05 86.9948 114.656 86.5688 114.389C86.1456 114.122 85.6716 113.989 85.1468 113.989C84.622 113.989 84.1466 114.122 83.7206 114.389C83.2974 114.656 82.9602 115.05 82.7091 115.57C82.4609 116.089 82.3367 116.727 82.3367 117.483C82.3367 118.239 82.4609 118.876 82.7091 119.396C82.9602 119.916 83.2974 120.31 83.7206 120.577C84.1466 120.844 84.622 120.977 85.1468 120.977C85.6716 120.977 86.1456 120.844 86.5688 120.577C86.9948 120.31 87.332 119.916 87.5803 119.396C87.8314 118.876 87.9569 118.239 87.9569 117.483Z" fill="#2C4E8D"/>
<path d="M90.7374 121.847V113.119H91.787V120.909H95.816V121.847H90.7374Z" fill="#2C4E8D"/>
<path d="M103.129 113.119H104.179V118.898C104.179 119.494 104.039 120.027 103.76 120.496C103.483 120.962 103.092 121.33 102.587 121.599C102.082 121.866 101.49 122 100.81 122C100.13 122 99.5374 121.866 99.0324 121.599C98.5273 121.33 98.1351 120.962 97.8558 120.496C97.5793 120.027 97.4411 119.494 97.4411 118.898V113.119H98.4906V118.812C98.4906 119.239 98.5838 119.618 98.77 119.95C98.9562 120.28 99.2214 120.54 99.5656 120.73C99.9126 120.918 100.327 121.011 100.81 121.011C101.292 121.011 101.707 120.918 102.054 120.73C102.401 120.54 102.666 120.28 102.85 119.95C103.036 119.618 103.129 119.239 103.129 118.812V113.119Z" fill="#2C4E8D"/>
<path d="M105.801 114.057V113.119H112.301V114.057H109.576V121.847H108.526V114.057H105.801Z" fill="#2C4E8D"/>
<path d="M114.97 113.119V121.847H113.921V113.119H114.97Z" fill="#2C4E8D"/>
<path d="M124.388 117.483C124.388 118.403 124.223 119.199 123.893 119.869C123.563 120.54 123.11 121.057 122.534 121.42C121.959 121.784 121.301 121.966 120.562 121.966C119.823 121.966 119.166 121.784 118.59 121.42C118.014 121.057 117.562 120.54 117.231 119.869C116.901 119.199 116.736 118.403 116.736 117.483C116.736 116.562 116.901 115.767 117.231 115.097C117.562 114.426 118.014 113.909 118.59 113.545C119.166 113.182 119.823 113 120.562 113C121.301 113 121.959 113.182 122.534 113.545C123.11 113.909 123.563 114.426 123.893 115.097C124.223 115.767 124.388 116.562 124.388 117.483ZM123.372 117.483C123.372 116.727 123.247 116.089 122.996 115.57C122.747 115.05 122.41 114.656 121.984 114.389C121.561 114.122 121.087 113.989 120.562 113.989C120.037 113.989 119.562 114.122 119.136 114.389C118.713 114.656 118.376 115.05 118.124 115.57C117.876 116.089 117.752 116.727 117.752 117.483C117.752 118.239 117.876 118.876 118.124 119.396C118.376 119.916 118.713 120.31 119.136 120.577C119.562 120.844 120.037 120.977 120.562 120.977C121.087 120.977 121.561 120.844 121.984 120.577C122.41 120.31 122.747 119.916 122.996 119.396C123.247 118.876 123.372 118.239 123.372 117.483Z" fill="#2C4E8D"/>
<path d="M133.026 113.119V121.847H132.01L127.287 114.994H127.202V121.847H126.153V113.119H127.168L131.908 119.989H131.993V113.119H133.026Z" fill="#2C4E8D"/>
<path d="M139.866 115.301C139.815 114.869 139.609 114.534 139.248 114.295C138.887 114.057 138.444 113.938 137.919 113.938C137.535 113.938 137.2 114 136.912 114.125C136.627 114.25 136.404 114.422 136.243 114.641C136.085 114.859 136.006 115.108 136.006 115.386C136.006 115.619 136.061 115.82 136.171 115.987C136.284 116.152 136.428 116.29 136.603 116.401C136.778 116.509 136.961 116.598 137.153 116.669C137.345 116.737 137.521 116.793 137.682 116.835L138.562 117.074C138.788 117.134 139.039 117.216 139.316 117.321C139.595 117.426 139.862 117.57 140.115 117.751C140.372 117.93 140.584 118.161 140.75 118.442C140.917 118.723 141 119.068 141 119.477C141 119.949 140.877 120.375 140.632 120.756C140.389 121.136 140.034 121.439 139.565 121.663C139.1 121.888 138.534 122 137.868 122C137.248 122 136.71 121.899 136.256 121.697C135.804 121.496 135.449 121.214 135.189 120.854C134.933 120.493 134.787 120.074 134.753 119.597H135.837C135.865 119.926 135.975 120.199 136.167 120.415C136.362 120.628 136.607 120.787 136.903 120.892C137.202 120.994 137.524 121.045 137.868 121.045C138.269 121.045 138.629 120.98 138.947 120.849C139.266 120.716 139.519 120.531 139.705 120.295C139.891 120.057 139.984 119.778 139.984 119.46C139.984 119.17 139.904 118.935 139.743 118.753C139.582 118.571 139.371 118.423 139.108 118.31C138.846 118.196 138.562 118.097 138.258 118.011L137.191 117.705C136.514 117.509 135.978 117.229 135.583 116.865C135.188 116.501 134.99 116.026 134.99 115.438C134.99 114.949 135.122 114.523 135.384 114.159C135.649 113.793 136.005 113.509 136.451 113.307C136.899 113.102 137.4 113 137.953 113C138.512 113 139.008 113.101 139.443 113.303C139.877 113.501 140.221 113.774 140.475 114.121C140.732 114.467 140.867 114.861 140.882 115.301H139.866Z" fill="#2C4E8D"/>
</svg>
