<svg xmlns="http://www.w3.org/2000/svg" viewBox="0 0 24 24"><defs><style>.cls-1{opacity:0.3;}</style></defs><g id="Design_Art_and_Photos" data-name="Design, Art and Photos"><g id="art001-010"><g id="art002"><path class="cls-1" d="M9,20,7.28,21.67a1,1,0,0,1-1.41,0L4.2,20ZM4,15.05,2.33,16.72a1,1,0,0,0,0,1.41L4,19.8ZM19.31,8.23,15.77,4.69a1,1,0,0,0-1.41,0L9,10.05V20L19.31,9.64A1,1,0,0,0,19.31,8.23Z"/><path d="M21,14v5a1,1,0,0,1-1,1H11.78l7-7H20A1,1,0,0,1,21,14ZM10,20V3A1,1,0,0,0,9,2H4A1,1,0,0,0,3,3V20a1,1,0,0,0,1,1H9A1,1,0,0,0,10,20ZM7.5,17.5a1,1,0,1,1-1-1A1,1,0,0,1,7.5,17.5Z"/></g></g></g></svg>