<svg xmlns="http://www.w3.org/2000/svg" viewBox="0 0 24 24"><defs><style>.cls-1{opacity:0.3;}</style></defs><g id="Design_Art_and_Photos" data-name="Design, Art and Photos"><g id="art001-010"><g id="art008"><path class="cls-1" d="M16.16,17.55A6.87,6.87,0,0,0,18,14.33a6.29,6.29,0,0,1,1.65-3h0L12.69,4.37A6.29,6.29,0,0,1,9.67,6a6.88,6.88,0,0,0-5.23,6.8,5.87,5.87,0,0,1-1.72,4.3l-.43.43a1,1,0,0,0,0,1.39l2.77,2.77a1,1,0,0,0,1.39,0l.43-.43a5.87,5.87,0,0,1,4.3-1.72A6.86,6.86,0,0,0,16.16,17.55Z"/><path d="M19.63,11.31,12.69,4.37l2.09-2.08a1,1,0,0,1,1.38,0l5.55,5.55a1,1,0,0,1,0,1.38ZM13,11a2.45,2.45,0,0,0-4,2.63l-6,6L4.37,21l6-6A2.45,2.45,0,0,0,13,11Z"/></g></g></g></svg>