<svg xmlns="http://www.w3.org/2000/svg" viewBox="0 0 24 24"><defs><style>.cls-1{opacity:0.3;}</style></defs><g id="IT_Network_and_Coding" data-name="IT / Network and Coding"><g id="cod001-010"><g id="cod0010"><path class="cls-1" d="M21,2H13a1,1,0,0,0-1,1V13a1,1,0,0,0,1,1h8a1,1,0,0,0,1-1V3A1,1,0,0,0,21,2ZM15.72,8,14,10.15V5.85Zm-.64-4h3.84L17,6.4ZM17,9.6,18.92,12H15.08ZM18.28,8,20,5.85v4.3ZM9,2H3A1,1,0,0,0,2,3V21a1,1,0,0,0,1,1H9a1,1,0,0,0,1-1V3A1,1,0,0,0,9,2ZM5,12,4,14.84V9.16ZM4.39,4H7.61L6,8.84ZM6,15.16,7.61,20H4.39Zm1-3.16L8,9.16v5.68Z"/><path d="M21,18H13a1,1,0,0,1,0-2h8a1,1,0,0,1,0,2Zm-2,3a1,1,0,0,0-1-1H13a1,1,0,0,0,0,2h5A1,1,0,0,0,19,21Z"/></g></g></g></svg>