<svg xmlns="http://www.w3.org/2000/svg" viewBox="0 0 24 24"><defs><style>.cls-1{opacity:0.3;}</style></defs><g id="IT_Network_and_Coding" data-name="IT / Network and Coding"><g id="cod001-010"><g id="cod003"><path d="M17,19a.94.94,0,0,1-.55-.17,1,1,0,0,1-.28-1.38L19.8,12,16.17,6.55a1,1,0,0,1,1.66-1.1l4,6a1,1,0,0,1,0,1.1l-4,6A1,1,0,0,1,17,19Zm-9.45-.17a1,1,0,0,0,.28-1.38L4.2,12,7.83,6.55a1,1,0,0,0-1.66-1.1l-4,6a1,1,0,0,0,0,1.1l4,6A1,1,0,0,0,7,19,.94.94,0,0,0,7.55,18.83Z"/><path class="cls-1" d="M10.5,19a1,1,0,0,1-.24,0,1,1,0,0,1-.73-1.21l3-12a1,1,0,0,1,1.94.48l-3,12A1,1,0,0,1,10.5,19Z"/></g></g></g></svg>