<svg xmlns="http://www.w3.org/2000/svg" viewBox="0 0 24 24"><defs><style>.cls-1{opacity:0.3;}</style></defs><g id="IT_Network_and_Coding" data-name="IT / Network and Coding"><g id="cod001-010"><g id="cod006"><path d="M18.39,13,9.71,4.29a1,1,0,0,0-1.09-.21A1,1,0,0,0,8,5V17.28a1,1,0,0,0,.56.9,1,1,0,0,0,.44.1,1,1,0,0,0,.62-.21A17.47,17.47,0,0,1,12,16.53l1.5,3.55a1.48,1.48,0,0,0,1.38.92,1.51,1.51,0,0,0,.58-.12,1.49,1.49,0,0,0,.8-2l-1.5-3.58a16.54,16.54,0,0,1,3.08-.66,1,1,0,0,0,.83-.66A1,1,0,0,0,18.39,13Z"/><path class="cls-1" d="M14,6a.93.93,0,0,1-.45-.11,1,1,0,0,1-.44-1.34l1-2a1,1,0,0,1,1.78.9l-1,2A1,1,0,0,1,14,6Zm3.45,2.89,2-1a1,1,0,1,0-.9-1.78l-2,1a1,1,0,0,0-.44,1.34A1,1,0,0,0,17,9,.93.93,0,0,0,17.45,8.89ZM6.12,10a1,1,0,0,0-1-1H3a1,1,0,0,0,0,2H5.12A1,1,0,0,0,6.12,10ZM3.91,16.19l2-1A1,1,0,0,0,5,13.41l-2,1a1,1,0,0,0-.44,1.34,1,1,0,0,0,.89.55A.93.93,0,0,0,3.91,16.19Z"/></g></g></g></svg>