<svg xmlns="http://www.w3.org/2000/svg" viewBox="0 0 24 24"><defs><style>.cls-1{opacity:0.3;}</style></defs><g id="IT_Network_and_Coding" data-name="IT / Network and Coding"><g id="cod001-010"><g id="cod008"><path d="M11.2,8.54l-.71-.72a1,1,0,0,1,0-1.41l2.93-2.94a5,5,0,0,1,7.44.37,5.17,5.17,0,0,1-.48,6.89l-2.79,2.78a1,1,0,0,1-1.41,0l-.72-.71a1,1,0,0,1,0-1.42L18.4,8.45a2,2,0,0,0-.26-3.07,2.11,2.11,0,0,0-2.67.3L12.62,8.54A1,1,0,0,1,11.2,8.54Zm0,7.06L8.53,18.32a2.11,2.11,0,0,1-2.67.3,2,2,0,0,1-.26-3.07l2.8-2.79a1,1,0,0,0,0-1.42l-.72-.72a1,1,0,0,0-1.41,0L3.62,13.27a5.17,5.17,0,0,0-.48,6.89,5,5,0,0,0,7.44.37l2.8-2.8a1,1,0,0,0,0-1.41l-.72-.72A1,1,0,0,0,11.24,15.6Z"/><path class="cls-1" d="M5,9,2.74,8.36A1,1,0,0,1,2,7.21l.24-1.29a1,1,0,0,1,1.45-.69L5.93,6.41a1,1,0,0,1,.48,1.17l-.2.69A1,1,0,0,1,5,9Zm3.4-3.26.16,0a1,1,0,0,0,.9-.91l.14-1.68A1,1,0,0,0,8.53,2L7.86,2a1,1,0,0,0-.92,1.22l.38,1.66A1,1,0,0,0,8.39,5.69Zm6.19,12.49.51,3.07a.9.9,0,0,0,1.15.71l1.4-.42a.89.89,0,0,0,.54-1.27L16.77,17.5a.91.91,0,0,0-1-.47l-.5.14A.9.9,0,0,0,14.58,18.18Zm3.79-1.88,1.37.87a.81.81,0,0,0,1.2-.42l.31-.9a.81.81,0,0,0-.77-1.07H18.81A.82.82,0,0,0,18.37,16.3Z"/></g></g></g></svg>