<svg xmlns="http://www.w3.org/2000/svg" viewBox="0 0 24 24"><defs><style>.cls-1{opacity:0.3;}</style></defs><g id="Communication"><g id="com001-010"><g id="com001"><circle class="cls-1" cx="12" cy="12" r="10"/><path d="M19,10.37A1.5,1.5,0,0,0,19,10a2,2,0,0,0-2-2h-.09a21.71,21.71,0,0,1-3-5.82A10.06,10.06,0,0,0,12,2h-.29a22.41,22.41,0,0,0,3.41,7.32A2.15,2.15,0,0,0,15,10,2,2,0,0,0,17.43,12a18.27,18.27,0,0,0,4,2.9l.12.06A9.86,9.86,0,0,0,22,12.73,17.73,17.73,0,0,1,19,10.37Z"/><path d="M12,15h0A41.49,41.49,0,0,1,9.57,9.23a2,2,0,0,0-.9-3.11C8.4,5,8.17,3.94,8,2.84A10,10,0,0,0,6.14,3.91c.16.87.35,1.73.56,2.58A2,2,0,0,0,6,8a2,2,0,0,0,1.71,2,44.91,44.91,0,0,0,1.88,4.74A43.43,43.43,0,0,1,2.31,9.55,10.34,10.34,0,0,0,2,11.93a45,45,0,0,0,8,5.25A2,2,0,0,0,11.92,19c.6,1,1.21,1.92,1.88,2.84a10,10,0,0,0,2-.6c-.51-.67-1-1.36-1.46-2.07,1.06.41,2.14.79,3.23,1.12a10.21,10.21,0,0,0,1.78-1.56A42.67,42.67,0,0,1,14,16.85,2,2,0,0,0,12,15Z"/></g></g></g></svg>