<svg xmlns="http://www.w3.org/2000/svg" viewBox="0 0 24 24"><defs><style>.cls-1{opacity:0.3;}</style></defs><g id="Communication"><g id="com001-010"><g id="com009"><path class="cls-1" d="M5.78,21.11,3.28,22a1,1,0,0,1-1.23-1.23l.84-2.5,4.34-4.34,2.89,2.89Z"/><path d="M21.7,8.09,15.91,2.3a1,1,0,0,0-1.45,0L13.74,3a1,1,0,0,0,0,1.45l.72.72L11.3,8.35a6.13,6.13,0,0,0-7,1.19,1,1,0,0,0,0,1.44L13,19.67a1,1,0,0,0,1.44,0,6.13,6.13,0,0,0,1.19-7l3.16-3.16.72.72a1,1,0,0,0,1.45,0l.72-.72A1,1,0,0,0,21.7,8.09Z"/></g></g></g></svg>