<svg xmlns="http://www.w3.org/2000/svg" viewBox="0 0 24 24"><defs><style>.cls-1{opacity:0.3;}</style></defs><g id="Communication"><g id="com001-010"><g id="com005"><path d="M21,14H19V10h2a1,1,0,0,1,1,1v2A1,1,0,0,1,21,14Zm1,5V17a1,1,0,0,0-1-1H19v4h2A1,1,0,0,0,22,19ZM22,7V5a1,1,0,0,0-1-1H19V8h2A1,1,0,0,0,22,7Z"/><path class="cls-1" d="M18,22H4a1,1,0,0,1-1-1V3A1,1,0,0,1,4,2H18a1,1,0,0,1,1,1V21A1,1,0,0,1,18,22ZM11,7a2,2,0,1,0,2,2A2,2,0,0,0,11,7Zm3.27,9a1,1,0,0,0,1-1.35A4.51,4.51,0,0,0,11,12a4.51,4.51,0,0,0-4.24,2.65C6.5,15.3,7,16,8.29,16Z"/></g></g></g></svg>