<svg xmlns="http://www.w3.org/2000/svg" viewBox="0 0 24 24"><defs><style>.cls-1{opacity:0.3;}</style></defs><g id="Communication"><g id="com001-010"><g id="com007"><path class="cls-1" d="M8,8A1,1,0,0,1,9,7h7V3a1,1,0,0,0-1-1H3A1,1,0,0,0,2,3V13a1,1,0,0,0,1,1H5v2.14a.77.77,0,0,0,1.31.55L8,15Z"/><path d="M22,8V18a1,1,0,0,1-1,1H19v2.14a.77.77,0,0,1-1.31.55L15,19H9a1,1,0,0,1-1-1V8A1,1,0,0,1,9,7H21A1,1,0,0,1,22,8Zm-3,3a1,1,0,0,0-1-1H12a1,1,0,0,0,0,2h6A1,1,0,0,0,19,11Zm-2,4a1,1,0,0,0-1-1H12a1,1,0,0,0,0,2h4A1,1,0,0,0,17,15Z"/></g></g></g></svg>