<svg xmlns="http://www.w3.org/2000/svg" viewBox="0 0 24 24"><defs><style>.cls-1{opacity:0.3;}</style></defs><g id="Communication"><g id="com001-010"><g id="com004"><path class="cls-1" d="M14,3V20H2V3A1,1,0,0,1,3,2H13A1,1,0,0,1,14,3ZM11,13V11A3,3,0,0,0,9,8.18V7A1,1,0,0,0,7,7V8.18A3,3,0,0,0,5,11v2a1,1,0,0,1-1,1v1a1,1,0,0,0,1,1h6a1,1,0,0,0,1-1V14A1,1,0,0,1,11,13Z"/><path d="M2,20H14v1a1,1,0,0,1-1,1H3a1,1,0,0,1-1-1ZM9,3V2H7V3A1,1,0,0,0,8,4H8A1,1,0,0,0,9,3ZM6.5,16a1.5,1.5,0,0,0,3,0Zm15.16-4a1,1,0,0,0-1-1H17.6a1,1,0,0,0,0,2h3.06A1,1,0,0,0,21.66,12ZM17,8a1,1,0,0,1-.4-1.92L19.09,5a1,1,0,0,1,1.31.51,1,1,0,0,1-.51,1.32L17.4,7.92A1.1,1.1,0,0,1,17,8Zm2.49,11.1a.93.93,0,0,1-.4-.09L16.6,17.92a1,1,0,0,1,.8-1.84l2.49,1.1a1,1,0,0,1-.4,1.92Z"/></g></g></g></svg>