<svg xmlns="http://www.w3.org/2000/svg" viewBox="0 0 24 24"><defs><style>.cls-1{opacity:0.3;}</style></defs><g id="Communication"><g id="com001-010"><g id="com008"><path class="cls-1" d="M3.64,20.35a4.93,4.93,0,0,1,0-7L14.08,2.94a4,4,0,0,1,5.57,0,1,1,0,0,1-1.39,1.4,2,2,0,0,0-2.79,0L5,14.78A3,3,0,0,0,9.21,19l8.35-8.36A1,1,0,0,1,19,12L10.6,20.35A4.93,4.93,0,0,1,3.64,20.35Z"/><path d="M8.51,15.48a3,3,0,0,1,0-4.18l4.88-4.87a1,1,0,0,1,1.39,0,1,1,0,0,1,0,1.39L9.9,12.69a1,1,0,0,0,1.4,1.4l7-7a2,2,0,0,0,0-2.78,1,1,0,1,1,1.39-1.4A4,4,0,0,1,20.8,5.88a3.92,3.92,0,0,1-1.15,2.64l-7,7A3,3,0,0,1,8.51,15.48Z"/></g></g></g></svg>