<svg xmlns="http://www.w3.org/2000/svg" viewBox="0 0 24 24"><defs><style>.cls-1{opacity:0.3;}</style></defs><g id="eCommercea_and_Shopping" data-name="eCommercea and Shopping"><g id="ecm001-010"><g id="ecm010"><path class="cls-1" d="M3,6A1,1,0,0,1,2,5V3A1,1,0,0,1,3,2H5A1,1,0,0,1,5,4H4V5A1,1,0,0,1,3,6ZM22,5V3a1,1,0,0,0-1-1H19a1,1,0,0,0,0,2h1V5a1,1,0,0,0,2,0ZM6,21a1,1,0,0,0-1-1H4V19a1,1,0,0,0-2,0v2a1,1,0,0,0,1,1H5A1,1,0,0,0,6,21Zm16,0V19a1,1,0,0,0-2,0v1H19a1,1,0,0,0,0,2h2A1,1,0,0,0,22,21Z"/><path d="M3,16H3a1,1,0,0,1-1-1V9A1,1,0,0,1,3,8H3A1,1,0,0,1,4,9v6A1,1,0,0,1,3,16Zm10-1V9a1,1,0,0,0-1-1h0a1,1,0,0,0-1,1v6a1,1,0,0,0,1,1h0A1,1,0,0,0,13,15Zm4,0V9a1,1,0,0,0-1-1h0a1,1,0,0,0-1,1v6a1,1,0,0,0,1,1h0A1,1,0,0,0,17,15ZM9,15V9A1,1,0,0,0,8,8H7A1,1,0,0,0,6,9v6a1,1,0,0,0,1,1H8A1,1,0,0,0,9,15Zm13,0V9a1,1,0,0,0-1-1H20a1,1,0,0,0-1,1v6a1,1,0,0,0,1,1h1A1,1,0,0,0,22,15Z"/></g></g></g></svg>