<svg xmlns="http://www.w3.org/2000/svg" viewBox="0 0 24 24"><defs><style>.cls-1{opacity:0.3;}</style></defs><g id="eCommercea_and_Shopping" data-name="eCommercea and Shopping"><g id="ecm001-010"><g id="ecm003"><path class="cls-1" d="M18,22H6a1,1,0,0,1-1-1V8L9,4h6l4,4V21A1,1,0,0,1,18,22ZM12,5.5A1.5,1.5,0,1,0,13.5,7,1.5,1.5,0,0,0,12,5.5Z"/><path d="M12,7a1,1,0,0,1-1-1V3a1,1,0,0,1,2,0V6A1,1,0,0,1,12,7Zm3.1,3.58a.39.39,0,0,0-.11-.3.45.45,0,0,0-.31-.1.36.36,0,0,0-.29.11,2.05,2.05,0,0,0-.24.35L8.9,19.11a.64.64,0,0,0-.12.32.37.37,0,0,0,.14.29.48.48,0,0,0,.29.1c.17,0,.32-.11.45-.34l5.21-8.4A1.25,1.25,0,0,0,15.1,10.58Zm-4.09,1a2,2,0,0,0-.38-.75A1.52,1.52,0,0,0,10,10.4a2.22,2.22,0,0,0-.85-.15A2,2,0,0,0,8,10.53a1.61,1.61,0,0,0-.63.83,4,4,0,0,0-.2,1.36A3.07,3.07,0,0,0,7.46,14a1.65,1.65,0,0,0,.7.77,2,2,0,0,0,1,.25,1.87,1.87,0,0,0,1.44-.58,2.59,2.59,0,0,0,.53-1.78A3.68,3.68,0,0,0,11,11.61ZM9.8,13.84a.62.62,0,0,1-.63.4.65.65,0,0,1-.48-.18,1,1,0,0,1-.24-.53,5.43,5.43,0,0,1-.07-.91,5.13,5.13,0,0,1,.07-.88,1,1,0,0,1,.24-.53A.65.65,0,0,1,9.17,11a.64.64,0,0,1,.62.37A3,3,0,0,1,10,12.6,3.42,3.42,0,0,1,9.8,13.84Zm6.74,2.3a1.9,1.9,0,0,0-.38-.75,1.59,1.59,0,0,0-.63-.45,2.22,2.22,0,0,0-.85-.15,1.73,1.73,0,0,0-1.48.61,3,3,0,0,0-.47,1.84A2.86,2.86,0,0,0,13,18.52a1.6,1.6,0,0,0,.7.77,2,2,0,0,0,1,.25A1.83,1.83,0,0,0,16.14,19a2.59,2.59,0,0,0,.53-1.78A3.56,3.56,0,0,0,16.54,16.14Zm-1.21,2.22a.62.62,0,0,1-.63.4.64.64,0,0,1-.63-.39,3.29,3.29,0,0,1-.17-1.22,4.32,4.32,0,0,1,.07-.89,1,1,0,0,1,.25-.52.65.65,0,0,1,.48-.17.61.61,0,0,1,.62.37,2.87,2.87,0,0,1,.18,1.18A3.42,3.42,0,0,1,15.33,18.36Z"/></g></g></g></svg>