<svg xmlns="http://www.w3.org/2000/svg" viewBox="0 0 24 24"><defs><style>.cls-1{opacity:0.3;}</style></defs><g id="eCommercea_and_Shopping" data-name="eCommercea and Shopping"><g id="ecm001-010"><g id="ecm009"><rect class="cls-1" x="2" y="13" width="9" height="9" rx="1"/><path d="M5,13H8a0,0,0,0,1,0,0v2a1,1,0,0,1-1,1H6a1,1,0,0,1-1-1V13a0,0,0,0,1,0,0Z"/><rect class="cls-1" x="13" y="13" width="9" height="9" rx="1"/><path d="M16,13h3a0,0,0,0,1,0,0v2a1,1,0,0,1-1,1H17a1,1,0,0,1-1-1V13a0,0,0,0,1,0,0Z"/><rect class="cls-1" x="2" y="2" width="9" height="9" rx="1"/><path d="M5,2H8A0,0,0,0,1,8,2V4A1,1,0,0,1,7,5H6A1,1,0,0,1,5,4V2A0,0,0,0,1,5,2Z"/><rect class="cls-1" x="13" y="2" width="9" height="9" rx="1"/><path d="M16,2h3a0,0,0,0,1,0,0V4a1,1,0,0,1-1,1H17a1,1,0,0,1-1-1V2a0,0,0,0,1,0,0Z"/></g></g></g></svg>