<svg xmlns="http://www.w3.org/2000/svg" viewBox="0 0 24 24"><defs><style>.cls-1{opacity:0.3;}</style></defs><g id="eCommercea_and_Shopping" data-name="eCommercea and Shopping"><g id="ecm001-010"><g id="ecm008"><path class="cls-1" d="M18,22a3,3,0,0,1-3-3V2.93a.38.38,0,0,0-.65-.28L13,4,11.7,2.71a1,1,0,0,0-1.42,0L9,4,7.7,2.71a1,1,0,0,0-1.41,0L5,4,3.65,2.66C3.41,2.41,3,2.58,3,3.88V19a3,3,0,0,0,3,3Z"/><path d="M12,13H11a1,1,0,0,1,0-2h1a1,1,0,0,1,0,2ZM9,12a1,1,0,0,0-1-1H6a1,1,0,0,0,0,2H8A1,1,0,0,0,9,12ZM9,8A1,1,0,0,0,8,7H6A1,1,0,0,0,6,9H8A1,1,0,0,0,9,8Zm4,0a1,1,0,0,0-1-1H11a1,1,0,0,0,0,2h1A1,1,0,0,0,13,8Zm0,8a1,1,0,0,0-1-1H10a1,1,0,0,0,0,2h2A1,1,0,0,0,13,16Z"/><path d="M15,19a3,3,0,0,0,6,0V12.93a.38.38,0,0,0-.65-.27L19,14,17.7,12.71a1,1,0,0,0-1.42,0L15,14Z"/></g></g></g></svg>