<svg xmlns="http://www.w3.org/2000/svg" viewBox="0 0 24 24"><defs><style>.cls-1{opacity:0.3;}</style></defs><g id="eCommercea_and_Shopping" data-name="eCommercea and Shopping"><g id="ecm001-010"><g id="ecm001"><circle class="cls-1" cx="18" cy="21" r="1"/><circle class="cls-1" cx="6" cy="21" r="1"/><path class="cls-1" d="M7,16l12.05-.93a1.31,1.31,0,0,0,1.18-1L21.67,8.3a1,1,0,0,0-1-1.3H5.4Z"/><path d="M19,20H5a1,1,0,0,1-.89-1.45L6,14.85,4.11,4.67,2.55,3.89a1,1,0,0,1,.9-1.78l2,1A1,1,0,0,1,6,3.82l2,11a1,1,0,0,1-.09.63L6.62,18H19a1,1,0,0,1,0,2Z"/></g></g></g></svg>