<svg xmlns="http://www.w3.org/2000/svg" viewBox="0 0 24 24"><defs><style>.cls-1{opacity:0.3;}</style></defs><g id="eCommercea_and_Shopping" data-name="eCommercea and Shopping"><g id="ecm001-010"><g id="ecm004"><path class="cls-1" d="M18,10V20a1,1,0,0,0,1,1h0a1,1,0,0,0,1-1V10Z"/><path class="cls-1" d="M11,10v7H6V10H4V20a1,1,0,0,0,1,1h7a1,1,0,0,0,1-1V10Z"/><path class="cls-1" d="M10,10a2,2,0,0,1-4,0Z"/><path class="cls-1" d="M18,10a2,2,0,0,1-4,0Z"/><rect class="cls-1" x="10" y="4" width="4" height="6"/><polygon class="cls-1" points="17 4 20 4 22 10 18 10 17 4"/><polygon class="cls-1" points="7 4 4 4 2 10 6 10 7 4"/><path d="M6,10a2,2,0,0,1-4,0Zm4,0a2,2,0,0,0,4,0Zm8,0a2,2,0,0,0,4,0Zm1-8H5A1,1,0,0,0,4,3V4H20V3A1,1,0,0,0,19,2ZM12,17a1,1,0,0,0-1-1H6a1,1,0,0,0,0,2h5A1,1,0,0,0,12,17Z"/></g></g></g></svg>