<svg xmlns="http://www.w3.org/2000/svg" viewBox="0 0 24 24"><defs><style>.cls-1{opacity:0.3;}</style></defs><g id="eCommercea_and_Shopping" data-name="eCommercea and Shopping"><g id="ecm011"><path class="cls-1" d="M21.67,11.29,19.34,9V5.66a1,1,0,0,0-1-1H15L12.71,2.33a1,1,0,0,0-1.42,0L9,4.66H5.66a1,1,0,0,0-1,1V9L2.33,11.29a1,1,0,0,0,0,1.42L4.66,15v3.3a1,1,0,0,0,1,1H9l2.33,2.33a1,1,0,0,0,1.42,0L15,19.34h3.3a1,1,0,0,0,1-1V15l2.33-2.33A1,1,0,0,0,21.67,11.29Z"/><path d="M11.44,9.54a2.73,2.73,0,0,1-.56,1.87A1.91,1.91,0,0,1,9.37,12a2.23,2.23,0,0,1-1.07-.26A1.76,1.76,0,0,1,7.57,11a3.09,3.09,0,0,1-.26-1.36,4.25,4.25,0,0,1,.2-1.43,1.73,1.73,0,0,1,.66-.87A2.2,2.2,0,0,1,9.34,7a2.26,2.26,0,0,1,.9.16,1.57,1.57,0,0,1,.66.48,2.2,2.2,0,0,1,.41.79A4.51,4.51,0,0,1,11.44,9.54Zm-1.23-.07A3.22,3.22,0,0,0,10,8.21a.66.66,0,0,0-.65-.39A.69.69,0,0,0,8.86,8a1,1,0,0,0-.25.55,4.94,4.94,0,0,0-.07.94,4.91,4.91,0,0,0,.07.95,1,1,0,0,0,.25.56.69.69,0,0,0,.51.19.66.66,0,0,0,.66-.42A3.52,3.52,0,0,0,10.21,9.47ZM15,7.87,9.54,16.72q-.21.36-.48.36a.53.53,0,0,1-.3-.11.37.37,0,0,1-.15-.3.61.61,0,0,1,.13-.34l5.52-8.92A2.55,2.55,0,0,1,14.51,7a.42.42,0,0,1,.32-.12.48.48,0,0,1,.32.11.41.41,0,0,1,.12.31A1.39,1.39,0,0,1,15,7.87Zm1.66,6.43a2.71,2.71,0,0,1-.55,1.87,1.92,1.92,0,0,1-1.51.61,2.16,2.16,0,0,1-1.08-.26,1.71,1.71,0,0,1-.73-.81,3,3,0,0,1-.27-1.35A3.14,3.14,0,0,1,13,12.43a1.82,1.82,0,0,1,1.56-.65,2.5,2.5,0,0,1,.9.15,1.76,1.76,0,0,1,.66.48,2,2,0,0,1,.4.79A4,4,0,0,1,16.69,14.3Zm-1.23-.07A3.17,3.17,0,0,0,15.28,13a.67.67,0,0,0-.65-.39.71.71,0,0,0-.52.18,1.13,1.13,0,0,0-.26.55,4.65,4.65,0,0,0-.08.93A3.36,3.36,0,0,0,14,15.55a.69.69,0,0,0,.67.41.64.64,0,0,0,.65-.42A3.52,3.52,0,0,0,15.46,14.23Z"/></g></g></svg>