<svg xmlns="http://www.w3.org/2000/svg" viewBox="0 0 24 24"><defs><style>.cls-1{opacity:0.3;}</style></defs><g id="eCommercea_and_Shopping" data-name="eCommercea and Shopping"><g id="ecm001-010"><g id="ecm007"><path d="M21,9v2a1,1,0,0,1-1,1H14V8h6A1,1,0,0,1,21,9ZM10,8H4A1,1,0,0,0,3,9v2a1,1,0,0,0,1,1h6Z"/><path d="M15,2h0a3,3,0,0,1,3,3V5a3,3,0,0,1-3,3H12a0,0,0,0,1,0,0V5A3,3,0,0,1,15,2Z"/><path class="cls-1" d="M9,2H9a3,3,0,0,1,3,3V8H9A3,3,0,0,1,6,5H6A3,3,0,0,1,9,2ZM4,12v9a1,1,0,0,0,1,1h5V12Zm16,0v9a1,1,0,0,1-1,1H14V12Z"/></g></g></g></svg>