<svg xmlns="http://www.w3.org/2000/svg" viewBox="0 0 24 24"><defs><style>.cls-1{opacity:0.3;}</style></defs><g id="eCommercea_and_Shopping" data-name="eCommercea and Shopping"><g id="ecm001-010"><g id="ecm002"><path d="M21,10H13v1a1,1,0,0,1-2,0V10H3a1,1,0,0,0-1,1v2H22V11A1,1,0,0,0,21,10Z"/><path class="cls-1" d="M12,12a1,1,0,0,1-1-1V3a1,1,0,0,1,2,0v8A1,1,0,0,1,12,12Z"/><path class="cls-1" d="M18.11,21H5.89a1.14,1.14,0,0,1-1.11-.86L3,13H21l-1.78,7.14A1.14,1.14,0,0,1,18.11,21ZM13,18V15a1,1,0,0,0-2,0v3a1,1,0,0,0,2,0Zm4,0V15a1,1,0,0,0-2,0v3a1,1,0,0,0,2,0ZM9,18V15a1,1,0,0,0-2,0v3a1,1,0,0,0,2,0Z"/></g></g></g></svg>