<svg xmlns="http://www.w3.org/2000/svg" viewBox="0 0 24 24"><defs><style>.cls-1{opacity:0.3;}</style></defs><g id="Computer_and_Electronics" data-name="Computer and Electronics"><g id="elc001-010"><g id="elc008"><path class="cls-1" d="M22,14v4a2,2,0,0,1-2,2,1,1,0,0,1-2,0H6a1,1,0,0,1-2,0,2,2,0,0,1-2-2V14a2,2,0,0,1,2-2H20A2,2,0,0,1,22,14ZM6,15a1,1,0,1,0,1,1A1,1,0,0,0,6,15Zm4,0a1,1,0,1,0,1,1A1,1,0,0,0,10,15Zm4,0a1,1,0,1,0,1,1A1,1,0,0,0,14,15Z"/><path d="M18,2h0a1,1,0,0,1,1,1v9a0,0,0,0,1,0,0H17a0,0,0,0,1,0,0V3a1,1,0,0,1,1-1Z"/></g></g></g></svg>