<svg xmlns="http://www.w3.org/2000/svg" viewBox="0 0 24 24"><defs><style>.cls-1{opacity:0.3;}</style></defs><g id="Computer_and_Electronics" data-name="Computer and Electronics"><g id="elc001-010"><g id="elc005"><rect class="cls-1" x="6" y="5" width="12" height="14" rx="2"/><path d="M9.55,2h4.9a1.24,1.24,0,0,1,1.22,1L16,5H8l.33-2A1.24,1.24,0,0,1,9.55,2ZM8.33,21a1.24,1.24,0,0,0,1.22,1h4.9a1.24,1.24,0,0,0,1.22-1L16,19H8Zm11-10.73a4.4,4.4,0,0,0,0-2.49,1,1,0,0,0-1-.75H18v4h.3A1,1,0,0,0,19.28,10.24Z"/></g></g></g></svg>