<svg xmlns="http://www.w3.org/2000/svg" viewBox="0 0 24 24"><defs><style>.cls-1{opacity:0.3;}</style></defs><g id="Computer_and_Electronics" data-name="Computer and Electronics"><g id="elc001-010"><g id="elc006"><path class="cls-1" d="M12,22a.84.84,0,0,1-.38-.08A1,1,0,0,1,11,21V12.41L6.79,8.21A1,1,0,1,1,8.21,6.79l9,9a1,1,0,0,1,0,1.42l-4.5,4.5A1,1,0,0,1,12,22Zm1-7.59v4.18l2.09-2.09Z"/><path d="M7.5,17.5a1,1,0,0,1-.71-.29,1,1,0,0,1,0-1.42L11,11.59V3a1,1,0,0,1,.62-.92,1,1,0,0,1,1.09.21l4.5,4.5a1,1,0,0,1,0,1.42l-9,9A1,1,0,0,1,7.5,17.5ZM13,5.41V9.59L15.09,7.5Z"/></g></g></g></svg>