<svg xmlns="http://www.w3.org/2000/svg" viewBox="0 0 24 24"><defs><style>.cls-1{opacity:0.3;}</style></defs><g id="Computer_and_Electronics" data-name="Computer and Electronics"><g id="elc001-010"><g id="elc009"><path d="M13,9V8a1,1,0,0,1,1-1h1a3,3,0,0,0,3-3V3a1,1,0,0,0-2,0V4a1,1,0,0,1-1,1H14a3,3,0,0,0-3,3V9Z"/><path class="cls-1" d="M21,22H3a1,1,0,0,1-1-1V10A1,1,0,0,1,3,9H21a1,1,0,0,1,1,1V21A1,1,0,0,1,21,22ZM5,12a1,1,0,1,0,1,1A1,1,0,0,0,5,12Zm3,0a1,1,0,1,0,1,1A1,1,0,0,0,8,12Zm3,0a1,1,0,1,0,1,1A1,1,0,0,0,11,12Zm3,0a1,1,0,1,0,1,1A1,1,0,0,0,14,12ZM9,15a1,1,0,1,0,1,1A1,1,0,0,0,9,15Zm3,0a1,1,0,1,0,1,1A1,1,0,0,0,12,15Zm3,0a1,1,0,1,0,1,1A1,1,0,0,0,15,15Zm4,3a1,1,0,1,0,1,1A1,1,0,0,0,19,18ZM7,19H7a1,1,0,0,0-1-1H5a1,1,0,0,0-1,1H4a1,1,0,0,0,1,1H6A1,1,0,0,0,7,19Zm0-3H7a1,1,0,0,0-1-1H5a1,1,0,0,0-1,1H4a1,1,0,0,0,1,1H6A1,1,0,0,0,7,16Zm10-2h2a1,1,0,0,0,1-1h0a1,1,0,0,0-1-1H17a1,1,0,0,0-1,1h0A1,1,0,0,0,17,14Zm1,3h1a1,1,0,0,0,1-1h0a1,1,0,0,0-1-1H18a1,1,0,0,0-1,1h0A1,1,0,0,0,18,17Zm-1,2h0a1,1,0,0,0-1-1H9a1,1,0,0,0-1,1H8a1,1,0,0,0,1,1h7A1,1,0,0,0,17,19Z"/></g></g></g></svg>