<svg xmlns="http://www.w3.org/2000/svg" viewBox="0 0 24 24"><defs><style>.cls-1{opacity:0.3;}</style></defs><g id="Finance"><g id="fin001-010"><g id="fin010"><rect class="cls-1" x="11" y="2" width="2" height="20" rx="1"/><path d="M17.26,14.71a4,4,0,0,1-.63,2.2,4.23,4.23,0,0,1-1.85,1.54,7,7,0,0,1-2.9.55,6.45,6.45,0,0,1-3.3-.76,4.34,4.34,0,0,1-1.5-1.45A3.28,3.28,0,0,1,6.5,15a1.21,1.21,0,0,1,1.23-1.21,1,1,0,0,1,.73.28,2.27,2.27,0,0,1,.52.82A5.42,5.42,0,0,0,9.53,16a2.33,2.33,0,0,0,.85.72,3.22,3.22,0,0,0,1.43.28,3.23,3.23,0,0,0,2-.57A1.7,1.7,0,0,0,14.55,15a1.46,1.46,0,0,0-.41-1.09,2.56,2.56,0,0,0-1.06-.64,17.69,17.69,0,0,0-1.74-.48A12.5,12.5,0,0,1,8.9,12a3.9,3.9,0,0,1-1.56-1.25,3.21,3.21,0,0,1-.58-2,3.35,3.35,0,0,1,.61-2A3.83,3.83,0,0,1,9.13,5.47,7.27,7.27,0,0,1,11.85,5,6.55,6.55,0,0,1,14,5.31a4.62,4.62,0,0,1,1.51.82,3.33,3.33,0,0,1,.88,1.08,2.39,2.39,0,0,1,.28,1.1,1.31,1.31,0,0,1-.35.88,1.11,1.11,0,0,1-.86.39,1,1,0,0,1-.72-.24,3,3,0,0,1-.53-.77,3.39,3.39,0,0,0-.88-1.19A2.59,2.59,0,0,0,11.66,7,2.86,2.86,0,0,0,10,7.41,1.39,1.39,0,0,0,9.3,8.54a1.12,1.12,0,0,0,.22.7,1.83,1.83,0,0,0,.61.51,4.34,4.34,0,0,0,.78.33c.27.08.71.2,1.32.35s1.45.38,2.07.59a6.47,6.47,0,0,1,1.58.79,3.14,3.14,0,0,1,1,1.16A3.7,3.7,0,0,1,17.26,14.71Z"/></g></g></g></svg>