<svg xmlns="http://www.w3.org/2000/svg" viewBox="0 0 24 24"><defs><style>.cls-1{opacity:0.3;}</style></defs><g id="Finance"><g id="fin001-010"><g id="fin005"><path d="M6,21a1,1,0,0,1-2,0Zm12,0a1,1,0,0,0,2,0Z"/><path class="cls-1" d="M21,21H3a1,1,0,0,1-1-1V4A1,1,0,0,1,3,3H21a1,1,0,0,1,1,1V20A1,1,0,0,1,21,21ZM12,11H10.72a1.91,1.91,0,0,0-.72-.72V9A1,1,0,0,0,8,9v1.28a1.91,1.91,0,0,0-.72.72H6a1,1,0,0,0,0,2H7.28a1.91,1.91,0,0,0,.72.72V15a1,1,0,0,0,2,0V13.72a1.91,1.91,0,0,0,.72-.72H12a1,1,0,0,0,0-2Z"/><path d="M18.5,12A1.5,1.5,0,1,0,16,13.11V14a1,1,0,0,0,2,0v-.89A1.5,1.5,0,0,0,18.5,12Z"/></g></g></g></svg>