<svg xmlns="http://www.w3.org/2000/svg" viewBox="0 0 24 24"><defs><style>.cls-1{opacity:0.3;}</style></defs><g id="Finance"><g id="fin001-010"><g id="fin001"><path d="M20,20V19a1,1,0,0,0-1-1H5a1,1,0,0,0-1,1v1H3a1,1,0,0,0-1,1v1H22V21a1,1,0,0,0-1-1Z"/><path class="cls-1" d="M22,7V8a1,1,0,0,1-1,1H18a1,1,0,0,1,0,2v5a1,1,0,0,1,1,1v1H15V17a1,1,0,0,1,1-1V11a1,1,0,0,1,0-2H13a1,1,0,0,1,0,2v5a1,1,0,0,1,1,1v1H10V17a1,1,0,0,1,1-1V11a1,1,0,0,1,0-2H8a1,1,0,0,1,0,2v5a1,1,0,0,1,1,1v1H5V17a1,1,0,0,1,1-1V11A1,1,0,0,1,6,9H3A1,1,0,0,1,2,8V7l9-4.48a2.27,2.27,0,0,1,2.06,0ZM12,4a1.5,1.5,0,1,0,1.5,1.5A1.5,1.5,0,0,0,12,4Z"/></g></g></g></svg>