<svg xmlns="http://www.w3.org/2000/svg" viewBox="0 0 24 24"><defs><style>.cls-1{opacity:0.3;}</style></defs><g id="Finance"><g id="fin001-010"><g id="fin009"><path class="cls-1" d="M15.78,11.35H6a1,1,0,0,1,0-2h9.83a1,1,0,1,1,0,2Zm0,2.3a1,1,0,0,0-1-1H6a1,1,0,0,0,0,2h8.79A1,1,0,0,0,15.74,13.65Z"/><path d="M18.77,15.44A1,1,0,0,1,19,16a1.89,1.89,0,0,1-.74,1.46,5.26,5.26,0,0,1-1.78,1.2,6.33,6.33,0,0,1-2.52.46,9.38,9.38,0,0,1-2-.2,5.79,5.79,0,0,1-1.62-.65,5.33,5.33,0,0,1-1.34-1.15,6.26,6.26,0,0,1-.93-1.46A7.33,7.33,0,0,1,7.54,14,9.32,9.32,0,0,1,7.35,12a8.62,8.62,0,0,1,.48-3A6.42,6.42,0,0,1,9.22,6.78a6,6,0,0,1,2.12-1.42,6.73,6.73,0,0,1,2.58-.49,6.58,6.58,0,0,1,3,.66c.71.37,1.59,1,1.66,1.85a1.33,1.33,0,0,1-.52,1.1.89.89,0,0,1-.31.19,1,1,0,0,1-.8-.09c-.47-.24-.75-.69-1.18-1a3.12,3.12,0,0,0-1.82-.51A3.27,3.27,0,0,0,11.2,8.4a5.91,5.91,0,0,0-1,3.71,6.91,6.91,0,0,0,.45,2.68,3.45,3.45,0,0,0,1.28,1.6,3.54,3.54,0,0,0,1.94.52,3.42,3.42,0,0,0,2-.6c.56-.4,1-1.24,1.72-1.32A1.4,1.4,0,0,1,18.77,15.44Z"/></g></g></g></svg>