<svg xmlns="http://www.w3.org/2000/svg" viewBox="0 0 24 24"><defs><style>.cls-1{opacity:0.3;}</style></defs><g id="Finance"><g id="fin001-010"><g id="fin003"><path class="cls-1" d="M20,18H4a1,1,0,0,1-1-1V7A1,1,0,0,1,4,6H20a1,1,0,0,1,1,1V17A1,1,0,0,1,20,18ZM12,8c-1.66,0-3,1.79-3,4s1.34,4,3,4,3-1.79,3-4S13.66,8,12,8Z"/><path d="M18,6h2a1,1,0,0,1,1,1V9A3,3,0,0,1,18,6ZM6,6H4A1,1,0,0,0,3,7V9A3,3,0,0,0,6,6ZM21,17V15a3,3,0,0,0-3,3h2A1,1,0,0,0,21,17ZM3,15v2a1,1,0,0,0,1,1H6A3,3,0,0,0,3,15Z"/></g></g></g></svg>