<svg xmlns="http://www.w3.org/2000/svg" viewBox="0 0 24 24"><defs><style>.cls-1{opacity:0.3;}</style></defs><g id="Finance"><g id="fin001-010"><g id="fin004"><circle class="cls-1" cx="18" cy="16" r="4"/><path d="M18,18a1,1,0,0,1-1-1V15a1,1,0,0,1,2,0v2A1,1,0,0,1,18,18Z"/><path d="M14.45,17.8a1,1,0,0,1-.95,1.26,1,1,0,0,1-.87-.5l0-.06a7.11,7.11,0,0,1-1.6.42V19a1,1,0,0,1-2,0v-.08a7.11,7.11,0,0,1-1.6-.42l0,.06a1,1,0,1,1-1.74-1l0-.06A8.09,8.09,0,0,1,4.5,16.33l-.06,0a1,1,0,0,1-1-1.74l.06,0A7.11,7.11,0,0,1,3.08,13H3a1,1,0,0,1,0-2h.08A7.11,7.11,0,0,1,3.5,9.4l-.06,0a1,1,0,0,1,1-1.74l.06,0A8.09,8.09,0,0,1,5.67,6.5l0-.06a1,1,0,0,1,1.74-1l0,.06A7.11,7.11,0,0,1,9,5.08V5a1,1,0,0,1,2,0v.08a7.11,7.11,0,0,1,1.6.42l0-.06a1,1,0,0,1,1.74,1l0,.06A8.09,8.09,0,0,1,15.5,7.67l.06,0a1,1,0,1,1,1,1.74l-.06,0a7.11,7.11,0,0,1,.42,1.6H17a1,1,0,0,1,1,1,4,4,0,0,0-4,4A3.9,3.9,0,0,0,14.45,17.8ZM11.76,8.1H8.84a.92.92,0,0,0-.68.21A1.23,1.23,0,0,0,7.87,9L7.4,11.65c0,.23-.06.35-.06.37a.6.6,0,0,0,.21.45.68.68,0,0,0,.48.19,1.13,1.13,0,0,0,.64-.29,5.23,5.23,0,0,1,.58-.4,1.45,1.45,0,0,1,.68-.12,1.33,1.33,0,0,1,.71.19,1.31,1.31,0,0,1,.5.56,2.23,2.23,0,0,1,0,1.78,1.42,1.42,0,0,1-.49.61,1.27,1.27,0,0,1-.75.22,1.4,1.4,0,0,1-.84-.27,1.85,1.85,0,0,1-.59-.77.75.75,0,0,0-.69-.53.55.55,0,0,0-.45.19.59.59,0,0,0-.18.41,1.76,1.76,0,0,0,.25.82,2.17,2.17,0,0,0,.88.84,3.13,3.13,0,0,0,1.6.36,3.06,3.06,0,0,0,1.56-.38,2.69,2.69,0,0,0,1-1.05,3,3,0,0,0,.35-1.45,2.75,2.75,0,0,0-.19-1,2.79,2.79,0,0,0-.55-.83,2.52,2.52,0,0,0-1.8-.75,3.11,3.11,0,0,0-1.45.42l.32-1.79h2.62a1,1,0,0,0,.62-.17.59.59,0,0,0,.21-.47c0-.44-.29-.65-.86-.65Z"/></g></g></g></svg>