<svg xmlns="http://www.w3.org/2000/svg" viewBox="0 0 24 24"><defs><style>.cls-1{opacity:0.3;}</style></defs><g id="Layout"><g id="lay001-010"><g id="lay009"><g class="cls-1"><path d="M21,15H12a1,1,0,0,1-1-1V11a1,1,0,0,1,1-1h9a1,1,0,0,1,1,1v3A1,1,0,0,1,21,15Zm1,6V18a1,1,0,0,0-1-1H12a1,1,0,0,0-1,1v3a1,1,0,0,0,1,1h9A1,1,0,0,0,22,21Z"/></g><path d="M21,8H4A1,1,0,0,1,3,7V4A1,1,0,0,1,4,3H21a1,1,0,0,1,1,1V7A1,1,0,0,1,21,8ZM8,10H4a1,1,0,0,0-1,1V21a1,1,0,0,0,1,1H8a1,1,0,0,0,1-1V11A1,1,0,0,0,8,10Z"/></g></g></g></svg>