<svg xmlns="http://www.w3.org/2000/svg" viewBox="0 0 24 24"><defs><style>.cls-1{opacity:0.3;}</style></defs><g id="Layout"><g id="lay001-010"><g id="lay002"><rect x="3" y="3" width="5" height="5" rx="1"/><g class="cls-1"><path d="M14,8H11a1,1,0,0,1-1-1V4a1,1,0,0,1,1-1h3a1,1,0,0,1,1,1V7A1,1,0,0,1,14,8Zm8-1V4a1,1,0,0,0-1-1H18a1,1,0,0,0-1,1V7a1,1,0,0,0,1,1h3A1,1,0,0,0,22,7ZM8,14V11a1,1,0,0,0-1-1H4a1,1,0,0,0-1,1v3a1,1,0,0,0,1,1H7A1,1,0,0,0,8,14Zm7,0V11a1,1,0,0,0-1-1H11a1,1,0,0,0-1,1v3a1,1,0,0,0,1,1h3A1,1,0,0,0,15,14Zm7,0V11a1,1,0,0,0-1-1H18a1,1,0,0,0-1,1v3a1,1,0,0,0,1,1h3A1,1,0,0,0,22,14ZM8,21V18a1,1,0,0,0-1-1H4a1,1,0,0,0-1,1v3a1,1,0,0,0,1,1H7A1,1,0,0,0,8,21Zm7,0V18a1,1,0,0,0-1-1H11a1,1,0,0,0-1,1v3a1,1,0,0,0,1,1h3A1,1,0,0,0,15,21Zm7,0V18a1,1,0,0,0-1-1H18a1,1,0,0,0-1,1v3a1,1,0,0,0,1,1h3A1,1,0,0,0,22,21Z"/></g></g></g></g></svg>