<svg xmlns="http://www.w3.org/2000/svg" viewBox="0 0 24 24"><defs><style>.cls-1{opacity:0.3;}</style></defs><g id="Layout"><g id="lay001-010"><g id="lay007"><g class="cls-1"><path d="M15,11V21a1,1,0,0,1-1,1H11a1,1,0,0,1-1-1V11a1,1,0,0,1,1-1h3A1,1,0,0,1,15,11Zm6-1H18a1,1,0,0,0-1,1V21a1,1,0,0,0,1,1h3a1,1,0,0,0,1-1V11A1,1,0,0,0,21,10Z"/></g><path d="M8,11V21a1,1,0,0,1-1,1H4a1,1,0,0,1-1-1V11a1,1,0,0,1,1-1H7A1,1,0,0,1,8,11ZM22,7V4a1,1,0,0,0-1-1H4A1,1,0,0,0,3,4V7A1,1,0,0,0,4,8H21A1,1,0,0,0,22,7Z"/></g></g></g></svg>