<svg xmlns="http://www.w3.org/2000/svg" viewBox="0 0 24 24"><defs><style>.cls-1{opacity:0.3;}</style></defs><g id="Map_and_Navigation" data-name="Map and Navigation"><g id="map001-010"><g id="map006"><path d="M17.5,7.88l-2.67,7-1.42-1.42h0a2,2,0,0,0-2.82-2.82h0L9.17,9.17l7-2.67A1.07,1.07,0,0,1,17.5,7.88Zm-4.79,3.41a1,1,0,1,0,0,1.42A1,1,0,0,0,12.71,11.29Z"/><path class="cls-1" d="M22,12A10,10,0,1,1,12,2,10,10,0,0,1,22,12ZM16.12,6.5l-7,2.67-2.67,7A1.07,1.07,0,0,0,7.88,17.5l7-2.67L17.5,7.88A1.07,1.07,0,0,0,16.12,6.5Z"/></g></g></g></svg>