<svg xmlns="http://www.w3.org/2000/svg" viewBox="0 0 24 24"><defs><style>.cls-1{opacity:0.3;}</style></defs><g id="Map_and_Navigation" data-name="Map and Navigation"><g id="map001-010"><g id="map008"><path class="cls-1" d="M18,15.33,13.1,20.77a1.47,1.47,0,0,1-2.2,0L6,15.33a7.94,7.94,0,0,1-2-6.39A8,8,0,0,1,20,10,7.94,7.94,0,0,1,18,15.33ZM13,10a1,1,0,0,0-1-1h0a1,1,0,0,0-1,1v3h2Z"/><path d="M12.62,5.46a1.05,1.05,0,0,0-1.24,0L8,8v4a1,1,0,0,0,1,1h2V10a1,1,0,0,1,2,0v3h2a1,1,0,0,0,1-1V8Z"/></g></g></g></svg>