<svg xmlns="http://www.w3.org/2000/svg" viewBox="0 0 24 24"><defs><style>.cls-1{opacity:0.3;}</style></defs><g id="Map_and_Navigation" data-name="Map and Navigation"><g id="map001-010"><g id="map003"><path d="M8,20a2,2,0,0,1,0-4H9.5a3.5,3.5,0,0,0,0-7H7.75l-1.5,1.68a1,1,0,0,1-.47.28A1.7,1.7,0,0,0,6,11H9.5a1.5,1.5,0,0,1,0,3H8a4,4,0,0,0,0,8h7V20Z"/><path class="cls-1" d="M8.48,8.18l-2.23,2.5a1,1,0,0,1-1.5,0L2.52,8.18a4,4,0,1,1,7-2.67A4,4,0,0,1,8.48,8.18Z"/><circle cx="5.5" cy="5.51" r="1.5"/><path class="cls-1" d="M16,12h0a1,1,0,0,1,1,1v9a0,0,0,0,1,0,0H15a0,0,0,0,1,0,0V13A1,1,0,0,1,16,12Z"/><path d="M21,18H15V13h6a.94.94,0,0,1,.74,1.53l-.78,1,.78,1A.94.94,0,0,1,21,18Z"/></g></g></g></svg>