<svg xmlns="http://www.w3.org/2000/svg" viewBox="0 0 24 24"><defs><style>.cls-1{opacity:0.3;}</style></defs><g id="Map_and_Navigation" data-name="Map and Navigation"><g id="map001-010"><g id="map004"><path class="cls-1" d="M18.36,5.64A9,9,0,0,1,5.64,18.36Z"/><path d="M12,2A10,10,0,1,0,22,12,10,10,0,0,0,12,2Zm7.93,9H13V9a9.9,9.9,0,0,0,5.14-2.07A7.93,7.93,0,0,1,19.93,11ZM11,19.93A7.86,7.86,0,0,1,7.36,18.5,7.9,7.9,0,0,1,11,17.07Zm-5.14-13A9.9,9.9,0,0,0,11,9V11H4.07A7.93,7.93,0,0,1,5.86,6.88ZM7.35,5.5A7.94,7.94,0,0,1,11,4.07V6.93A7.94,7.94,0,0,1,7.35,5.5ZM13,17.07a7.94,7.94,0,0,1,3.65,1.43A7.94,7.94,0,0,1,13,19.93Zm0-13a8,8,0,0,1,3.63,1.42A7.84,7.84,0,0,1,13,6.93ZM4.07,13H11v2.05a9.9,9.9,0,0,0-5.14,2.07A7.93,7.93,0,0,1,4.07,13Zm14.07,4.12A10,10,0,0,0,13,15.05V13h6.93A7.9,7.9,0,0,1,18.14,17.12Z"/></g></g></g></svg>