<svg xmlns="http://www.w3.org/2000/svg" viewBox="0 0 24 24"><defs><style>.cls-1{opacity:0.3;}</style></defs><g id="Map_and_Navigation" data-name="Map and Navigation"><g id="map001-010"><g id="map010"><path d="M10.61,16.16,7.84,13.39a1,1,0,0,1,0-1.39l6.93-6.94a1,1,0,0,1,1.39,0l2.78,2.78a1,1,0,0,1,0,1.39L12,16.16A1,1,0,0,1,10.61,16.16Zm-5.89,1L2.49,20.32a.85.85,0,0,0,1.19,1.19L6.8,19.28Z"/><path class="cls-1" d="M7.84,12,2.29,6.45a1,1,0,0,1,0-1.39L5.06,2.29a1,1,0,0,1,1.39,0L12,7.84Zm11.1,9.71,2.77-2.77a1,1,0,0,0,0-1.39L16.16,12,12,16.16l5.55,5.55A1,1,0,0,0,18.94,21.71Zm-9.79-.08a.94.94,0,0,0,1.5-.22,5.77,5.77,0,0,0-1.43-6.63,5.77,5.77,0,0,0-6.63-1.43.94.94,0,0,0-.22,1.5Zm10-14.8a.74.74,0,0,0,.29-1.23L18.4,4.53a.74.74,0,0,0-1.23.29l-.31.94,1.38,1.38Z"/></g></g></g></svg>