<svg xmlns="http://www.w3.org/2000/svg" viewBox="0 0 24 24"><defs><style>.cls-1{opacity:0.3;}</style></defs><g id="Map_and_Navigation" data-name="Map and Navigation"><g id="map001-010"><g id="map002"><path d="M8.67,4.19,4,6.29V18.91l4.67-2.1V19L3.11,21.5A.78.78,0,0,1,2,20.79V6a1.47,1.47,0,0,1,.87-1.34L8.67,2Z"/><path d="M15.33,19.81,20,17.71V5.09l-4.67,2.1V5l5.56-2.5A.78.78,0,0,1,22,3.21V18.05a1.47,1.47,0,0,1-.87,1.34L15.33,22Z"/><polygon class="cls-1" points="15.33 7.19 20 5.09 20 17.71 15.33 19.81 15.33 7.19"/><path class="cls-1" d="M8.67,4.19V2l6.66,3V7.19Zm0,12.62V19l6.66,3V19.81Z"/><polygon class="cls-1" points="8.67 16.81 4 18.91 4 6.29 8.67 4.19 8.67 16.81"/></g></g></g></svg>