<svg xmlns="http://www.w3.org/2000/svg" viewBox="0 0 24 24"><defs><style>.cls-1{opacity:0.3;}</style></defs><g id="Map_and_Navigation" data-name="Map and Navigation"><g id="map001-010"><g id="map005"><path d="M6,21a1,1,0,0,0,1,1H17a1,1,0,0,0,1-1V20H6Z"/><path d="M11,2h2a0,0,0,0,1,0,0V3a1,1,0,0,1-1,1h0a1,1,0,0,1-1-1V2A0,0,0,0,1,11,2Z"/><path class="cls-1" d="M18,3V20H6V3A1,1,0,0,1,7,2H17A1,1,0,0,1,18,3Zm-2,8a4,4,0,0,0-4.94-3.89,4,4,0,0,0-2,6.56l2.23,2.51a1,1,0,0,0,1.5,0L15,13.67A4,4,0,0,0,16,11Z"/><circle cx="12" cy="11" r="1.5"/></g></g></g></svg>