<svg xmlns="http://www.w3.org/2000/svg" viewBox="0 0 24 24"><defs><style>.cls-1{opacity:0.3;}</style></defs><g id="Medicine_and_Health" data-name="Medicine and Health"><g id="med001-010"><g id="med010"><g class="cls-1"><path d="M7,21.81A12.18,12.18,0,0,1,2.2,17a1.53,1.53,0,0,1,.24-1.84L15.12,2.44A1.51,1.51,0,0,1,17,2.23,13.68,13.68,0,0,1,21.79,7a1.53,1.53,0,0,1-.23,1.85L8.84,21.56A1.53,1.53,0,0,1,7,21.81Z"/></g><path d="M15.93,11.62a1,1,0,1,1,0-1.43A1,1,0,0,1,15.93,11.62ZM13.79,8.05a1,1,0,1,0,0,1.43A1,1,0,0,0,13.79,8.05Zm0,4.28a1,1,0,1,0,0,1.43A1,1,0,0,0,13.79,12.33Zm-2.14-2.14a1,1,0,1,0,0,1.43A1,1,0,0,0,11.65,10.19Zm0,4.28a1,1,0,1,0,0,1.43A1,1,0,0,0,11.65,14.47ZM9.51,12.33a1,1,0,1,0,0,1.43A1,1,0,0,0,9.51,12.33Z"/></g></g></g></svg>