<svg xmlns="http://www.w3.org/2000/svg" viewBox="0 0 24 24"><defs><style>.cls-1{opacity:0.3;}</style></defs><g id="Medicine_and_Health" data-name="Medicine and Health"><g id="med001-010"><g id="med003"><g class="cls-1"><path d="M19.07,19.07A10,10,0,0,1,4.26,5.67L5.69,7.1a8,8,0,0,0,.65,10.56,1,1,0,0,0,1.42,0,1,1,0,0,0,0-1.42,6,6,0,0,1-.64-7.7l9.12,9.12a1,1,0,0,0,1.42,0,1,1,0,0,0,0-1.42l-12-12a10,10,0,0,1,13.4,14.81ZM17.66,7.76a1,1,0,0,0,0-1.42,7.94,7.94,0,0,0-7.58-2.11,1,1,0,1,0,.48,1.94,6,6,0,0,1,5.68,1.59,1,1,0,0,0,1.42,0Z"/></g></g></g></g></svg>