<svg xmlns="http://www.w3.org/2000/svg" viewBox="0 0 24 24"><defs><style>.cls-1{opacity:0.3;}</style></defs><g id="Medicine_and_Health" data-name="Medicine and Health"><g id="med001-010"><g id="med006"><g class="cls-1"><path d="M21.38,8.28,17,12.66a9.5,9.5,0,0,1-2.09,1.58L10.84,16.5a9.8,9.8,0,0,0-2.1,1.58L5.43,21.4a2,2,0,0,1-2.84,0h0a2,2,0,0,1,0-2.84l3.32-3.32a9.74,9.74,0,0,0,1.58-2.09L9.75,9.08A9.26,9.26,0,0,1,11.33,7L15.72,2.6a2,2,0,0,1,2.47-.35A10.17,10.17,0,0,1,21.72,5.8,2,2,0,0,1,21.38,8.28Zm-6.74,3.9,2.85-2.84a1,1,0,0,0,0-1.42L16.06,6.5a1,1,0,0,0-1.41,0L11.81,9.34a1,1,0,0,0,0,1.42l1.42,1.42A1,1,0,0,0,14.64,12.18Z"/></g><path d="M7.55,19.27,5.43,21.4a2,2,0,0,1-2.84-2.84l2.13-2.13ZM21.72,5.8a10.17,10.17,0,0,0-3.53-3.55,2,2,0,0,0-2.47.35L15.36,3,21,8.63l.35-.35A2,2,0,0,0,21.72,5.8Z"/></g></g></g></svg>