<svg xmlns="http://www.w3.org/2000/svg" viewBox="0 0 24 24"><defs><style>.cls-1{opacity:0.3;}</style></defs><g id="Medicine_and_Health" data-name="Medicine and Health"><g id="med001-010"><g id="med004"><g class="cls-1"><path d="M11,3a1,1,0,0,1-1,1V9H5A1,1,0,0,0,5,7H4V4A1,1,0,0,1,4,2h6A1,1,0,0,1,11,3Zm9-1H14a1,1,0,0,0,0,2V7h1a1,1,0,0,1,0,2H14v3h1a1,1,0,0,1,0,2h5V4a1,1,0,0,0,0-2Z"/></g><path d="M10,9V19a3,3,0,0,1-6,0H5a1,1,0,0,0,0-2H4V14H5a1,1,0,0,0,0-2H4V9Zm4,5v3h1a1,1,0,0,1,0,2H14a3,3,0,0,0,6,0V14Z"/></g></g></g></svg>