<svg xmlns="http://www.w3.org/2000/svg" viewBox="0 0 24 24"><defs><style>.cls-1{opacity:0.3;}</style></defs><g id="Medicine_and_Health" data-name="Medicine and Health"><g id="med001-010"><g id="med005"><g class="cls-1"><path d="M17.65,13H11a1,1,0,0,0-2,0H6.35L9,8.41V4H9A1,1,0,0,1,9,2h6a1,1,0,0,1,0,2V8.41ZM13,9a1,1,0,1,0,1,1A1,1,0,0,0,13,9Z"/></g><path d="M18.75,22H5.25a2.37,2.37,0,0,1-2-3.55L6.35,13H9a1,1,0,0,0,2,0h6.65l3.15,5.45A2.37,2.37,0,0,1,18.75,22ZM14,15a2,2,0,1,0,2,2A2,2,0,0,0,14,15Z"/></g></g></g></svg>