<svg xmlns="http://www.w3.org/2000/svg" viewBox="0 0 24 24"><defs><style>.cls-1{opacity:0.3;}</style></defs><g id="Medicine_and_Health" data-name="Medicine and Health"><g id="med001-010"><g id="med002"><g class="cls-1"><path d="M20.28,3.72a5.85,5.85,0,0,0-8.28,0L7.86,7.86,9.27,9.27l4.14-4.14A3.83,3.83,0,0,1,16.14,4a1,1,0,0,1,0,2,1.85,1.85,0,0,0-1.31.54l-4.14,4.15,5.45,5.45L20.28,12A5.85,5.85,0,0,0,20.28,3.72Z"/></g><path d="M10.69,10.69l5.45,5.45L12,20.28A5.85,5.85,0,0,1,3.72,12L7.86,7.86,9.27,9.27l-.3.3A1,1,0,0,0,9,11a1,1,0,0,0,1.42,0ZM7.33,14.05l.57-.57a1,1,0,1,0-1.42-1.42l-.57.57a1,1,0,0,0,0,1.42,1,1,0,0,0,1.42,0Z"/></g></g></g></svg>