<svg xmlns="http://www.w3.org/2000/svg" viewBox="0 0 24 24"><defs><style>.cls-1{opacity:0.3;}</style></defs><g id="Medicine_and_Health" data-name="Medicine and Health"><g id="med001-010"><g id="med009"><path d="M15.28,3.32h0a3.91,3.91,0,0,1,5.4,0,3.83,3.83,0,0,1,0,5.41h0s0,0,0,0L19.27,7.3a1.82,1.82,0,0,0,0-2.57,1.85,1.85,0,0,0-2.57,0L15.32,3.34ZM8.69,20.66,7.31,19.27h0A1.82,1.82,0,0,1,4.73,16.7h0L3.35,15.31l0,0h0a3.82,3.82,0,0,0,5.4,5.41h0Z"/><g class="cls-1"><path d="M13.87,3.17a1.18,1.18,0,0,1,1.45.17l5.34,5.34a1.18,1.18,0,0,1,.16,1.45,33.92,33.92,0,0,1-10.69,10.7,1.17,1.17,0,0,1-1.44-.17L3.35,15.31a1.17,1.17,0,0,1-.18-1.44C3.74,13,4.35,12.09,5,11.25A2.4,2.4,0,0,0,5.36,9,2.82,2.82,0,0,1,9,5.36,2.4,2.4,0,0,0,11.26,5C12.1,4.35,13,3.74,13.87,3.17ZM8.06,16l8-8a1,1,0,0,0-1.41-1.41l-8,8a1,1,0,0,0,0,1.41,1,1,0,0,0,.71.29A1,1,0,0,0,8.06,16Zm2.46,2.68a37.08,37.08,0,0,0,8.2-8.2A1,1,0,0,0,17.1,9.34,35.69,35.69,0,0,1,9.34,17.1a1,1,0,1,0,1.18,1.61Zm-1.9-8.38c.06-1.14.56-1.64,1.73-1.71a1,1,0,0,0-.13-2,3.55,3.55,0,0,0-3.6,3.61,1,1,0,0,0,1,1h0A1,1,0,0,0,8.62,10.33Z"/></g></g></g></g></svg>