<svg xmlns="http://www.w3.org/2000/svg" viewBox="0 0 24 24"><defs><style>.cls-1{opacity:0.3;}</style></defs><g id="Medicine_and_Health" data-name="Medicine and Health"><g id="med001-010"><g id="med008"><g class="cls-1"><path d="M17.21,9a1,1,0,0,1,.36-1.37l1-.58a1,1,0,0,1,1.75-.94l1,1.66a1,1,0,0,1-1.72,1l-1,.57a1,1,0,0,1-.5.14A1,1,0,0,1,17.21,9Zm3.68,5.81a1,1,0,0,0-1.32.32l-1-.57a1,1,0,0,0-1,1.73l1,.57a1,1,0,0,0,1.74,1l1-1.66A1,1,0,0,0,20.89,14.85ZM5.45,14.67l-.87.5a1,1,0,1,0-1.73,1l1,1.73a1,1,0,0,0,.87.5,1,1,0,0,0,.49-.13,1,1,0,0,0,.37-1.37l.87-.5a1,1,0,0,0-1-1.73Zm1-7.07-.87-.5a1,1,0,1,0-1.73-1l-1,1.73a1,1,0,0,0,.86,1.5,1,1,0,0,0,.87-.5l.87.5a1,1,0,0,0,.5.13A1,1,0,0,0,6.81,9,1,1,0,0,0,6.45,7.6Zm6.62,12.47v-1a1,1,0,0,0-2,0v1a1,1,0,0,0,0,2h2a1,1,0,0,0,0-2Zm-2-16.15V5.07a1,1,0,0,0,2,0V3.93a1,1,0,0,0,0-2H11.13a1,1,0,0,0-.06,2Z"/></g><path d="M15.11,17.26a1,1,0,0,1,1.24.22A7,7,0,0,0,18.92,13a1,1,0,0,1,0-2,7,7,0,0,0-2.55-4.48,1,1,0,0,1-.84.46A.87.87,0,0,1,15,6.86a1,1,0,0,1-.38-1.33,6.95,6.95,0,0,0-5.2,0v0a1,1,0,0,1-.36,1.36.93.93,0,0,1-.5.14,1,1,0,0,1-.87-.5l0,0A7,7,0,0,0,5.08,11a1,1,0,0,1,0,2,6.94,6.94,0,0,0,2.66,4.56,1,1,0,0,1,1.7,1A7,7,0,0,0,12,19a6.91,6.91,0,0,0,2.69-.54A1,1,0,0,1,15.11,17.26ZM7,12a5,5,0,1,1,5,5A5,5,0,0,1,7,12Z"/><g class="cls-1"><path d="M18.34,18.85A1,1,0,0,1,18,20.22l-.86.5h0l-.86.5a1,1,0,0,1-.5.13,1,1,0,0,1-.87-.5,1,1,0,0,1,.37-1.36l-.5-.87a1,1,0,0,1,1.73-1l.5.87A1,1,0,0,1,18.34,18.85ZM8.9,4.51a1,1,0,0,0-1-1.72l-1.66,1a1,1,0,0,0,.5,1.87,1,1,0,0,0,.45-.12l.57,1a1,1,0,0,0,.87.5.93.93,0,0,0,.5-.14A1,1,0,0,0,9.47,5.5ZM9,17.26a1,1,0,0,0-1.37.36l-.5.87h0a1,1,0,1,0-1,1.73l1.73,1a1,1,0,0,0,1.37-.37,1,1,0,0,0-.37-1.36l.5-.87A1,1,0,0,0,9,17.26Zm6-10.4a.87.87,0,0,0,.49.14,1,1,0,0,0,.87-.5l.57-1a1,1,0,0,0,.48.12A1,1,0,0,0,18,3.77l-1.66-1a1,1,0,0,0-1,1.69l-.58,1A1,1,0,0,0,15,6.86ZM6,12a1,1,0,0,0-1-1H4a1,1,0,0,0-2,0v2a1,1,0,0,0,2,0H5A1,1,0,0,0,6,12Zm15.14-1.94a1,1,0,0,0-1,.94H19a1,1,0,0,0,0,2h1.14a1,1,0,0,0,2,0V11.06A1,1,0,0,0,21.14,10.06Zm-7,4.06a3,3,0,1,0-4.24,0,1,1,0,0,0,1.41-1.41,1,1,0,1,1,1.42,0,1,1,0,0,0,0,1.41,1,1,0,0,0,1.41,0Z"/></g></g></g></g></svg>