<svg xmlns="http://www.w3.org/2000/svg" viewBox="0 0 24 24"><defs><style>.cls-1{opacity:0.3;}</style></defs><g id="Medicine_and_Health" data-name="Medicine and Health"><g id="med001-010"><g id="med001"><g class="cls-1"><path d="M12,4.57h0a5.87,5.87,0,0,0-8.28,0h0a5.86,5.86,0,0,0,0,8.29l7.57,7.58a1,1,0,0,0,1.42,0l7.57-7.58a5.86,5.86,0,0,0,0-8.29h0a5.87,5.87,0,0,0-8.28,0Z"/></g><path d="M14,17h-.12a1,1,0,0,1-.86-.77l-1.14-5.16L11,14.27a1,1,0,0,1-.81.72,1,1,0,0,1-1-.44L7.66,12.29l-1.21.6A1,1,0,0,1,6,13H3a1,1,0,0,1,0-2H5.76l1.79-.89a1,1,0,0,1,1.28.34l.8,1.2L11,6.73A1,1,0,0,1,12,6a1,1,0,0,1,1,.78L14.37,13l.74-1.48A1,1,0,0,1,16,11h5a1,1,0,0,1,0,2H16.62l-1.73,3.45A1,1,0,0,1,14,17Z"/></g></g></g></svg>