<svg xmlns="http://www.w3.org/2000/svg" viewBox="0 0 24 24"><defs><style>.cls-1{opacity:0.3;}</style></defs><g id="Social_Media" data-name="Social Media"><g id="soc001-010"><g id="soc006"><g class="cls-1"><path d="M19,4.75A4.33,4.33,0,0,0,11.85,6c-.79,1.77.06,3.91-.62,5.72a11,11,0,0,1-6.32,6.61,9.48,9.48,0,0,1-1.83.33.53.53,0,0,0-.15,1,12.34,12.34,0,0,0,4.88,1A12.29,12.29,0,0,0,20.17,8.24c0-.19,0-.38,0-.56a9,9,0,0,0,1.72-1.89.74.74,0,0,0-.55-1.16A8.23,8.23,0,0,0,19,4.75Z"/></g><path d="M11.5,8.71A12.19,12.19,0,0,1,3.31,4.92a.68.68,0,0,0-1.12.26A4.41,4.41,0,0,0,3.89,10a3.77,3.77,0,0,1-1.16-.2.49.49,0,0,0-.63.56,4.3,4.3,0,0,0,3.32,3.43,4.79,4.79,0,0,1-1.1.15.52.52,0,0,0-.41.8,4.19,4.19,0,0,0,3.63,2.15,6.57,6.57,0,0,0,3.73-.68,5.25,5.25,0,0,0,2.64-4.37C13.87,10.39,13.09,8.79,11.5,8.71Z"/></g></g></g></svg>