<svg xmlns="http://www.w3.org/2000/svg" viewBox="0 0 24 24"><defs><style>.cls-1{opacity:0.3;}</style></defs><g id="Social_Media" data-name="Social Media"><g id="soc001-010"><g id="soc009"><g class="cls-1"><path d="M21.35,11.93A9.35,9.35,0,1,1,12,2.56a9.37,9.37,0,0,1,9.35,9.37Z"/></g><path d="M12,2A10,10,0,1,0,22,12,10,10,0,0,0,12,2Zm8,9.54a16.69,16.69,0,0,0-5.25.13c-.22-.59-.47-1.16-.73-1.74a16.37,16.37,0,0,0,4.19-3A8,8,0,0,1,20,11.54Zm-3.23-6a14.9,14.9,0,0,1-3.61,2.57,39.11,39.11,0,0,0-2.41-4A7.59,7.59,0,0,1,12,4,7.92,7.92,0,0,1,16.75,5.58Zm-8-.87A37.39,37.39,0,0,1,11.3,8.94a17.16,17.16,0,0,1-7,.91A8,8,0,0,1,8.72,4.71ZM4,12c0-.06,0-.12,0-.17.54,0,1.09.07,1.62.07a19,19,0,0,0,6.54-1.17c.21.48.42,1,.62,1.44a15.82,15.82,0,0,0-7,4.85A8,8,0,0,1,4,12Zm3.23,6.41A13.76,13.76,0,0,1,13.47,14a35,35,0,0,1,1.3,5.46,7.94,7.94,0,0,1-7.54-1.09Zm9.4.1a36.52,36.52,0,0,0-1.22-5,15,15,0,0,1,4.44,0A8,8,0,0,1,16.63,18.51Z"/></g></g></g></svg>