<svg xmlns="http://www.w3.org/2000/svg" viewBox="0 0 24 24"><defs><style>.cls-1{opacity:0.3;}</style></defs><g id="Social_Media" data-name="Social Media"><g id="soc001-010"><g id="soc002"><path d="M4,8.62A1.32,1.32,0,0,0,2.66,10v5.36a1.34,1.34,0,1,0,2.67,0V10A1.33,1.33,0,0,0,4,8.62Zm16,0A1.33,1.33,0,0,0,18.67,10v5.36a1.34,1.34,0,1,0,2.67,0V10A1.32,1.32,0,0,0,20,8.62Z"/><path d="M8,18.06v2.6a1.33,1.33,0,1,0,2.66,0v-2.6Z"/><g class="cls-1"><path d="M16,18.06a1.34,1.34,0,0,0,1.34-1.34v-8H6.66v8A1.34,1.34,0,0,0,8,18.06Z"/></g><path d="M13.33,18.06v2.6a1.34,1.34,0,1,0,2.67,0v-2.6Z"/><path d="M15.33,4.54,16.52,3.1a.67.67,0,1,0-1-.86l-1.3,1.58A5.35,5.35,0,0,0,12,3.34a5.19,5.19,0,0,0-2.22.5L8.52,2.25a.67.67,0,0,0-.94-.1.68.68,0,0,0-.11.94L8.65,4.56a5.3,5.3,0,0,0-2,4.13H17.34a5.31,5.31,0,0,0-2-4.15Zm-5,2.81a1,1,0,1,1,1-1,1,1,0,0,1-1,1Zm3.32,0a1,1,0,1,1,1-1,1,1,0,0,1-1,1Z"/></g></g></g></svg>