<svg xmlns="http://www.w3.org/2000/svg" viewBox="0 0 24 24"><defs><style>.cls-1{opacity:0.3;}</style></defs><g id="Social_Media" data-name="Social Media"><g id="soc001-010"><g id="soc010"><path d="M11.18,7a3.13,3.13,0,0,1,.56,1.86,2.7,2.7,0,0,1-.57,1.8,2.88,2.88,0,0,1-.94.7,2.83,2.83,0,0,1,1.43,1.08,3.21,3.21,0,0,1,.48,1.79,3.63,3.63,0,0,1-.55,1.95,3.52,3.52,0,0,1-.88,1,3.38,3.38,0,0,1-1.39.61A8.73,8.73,0,0,1,7.57,18H3a1,1,0,0,1-1-1V6.73a1,1,0,0,1,1-1H8A3.84,3.84,0,0,1,11.18,7Zm-6.72.82v2.69h3a2.57,2.57,0,0,0,1.31-.3,1.15,1.15,0,0,0,.5-1.07,1.09,1.09,0,0,0-.66-1.13,4.68,4.68,0,0,0-1.47-.19Zm0,4.72v3.26h3a2.86,2.86,0,0,0,1.25-.22,1.54,1.54,0,0,0,.81-1.53,1.31,1.31,0,0,0-.79-1.31,3.08,3.08,0,0,0-1.23-.2ZM19.61,9.1a3.7,3.7,0,0,1,1.58,1.34,4.34,4.34,0,0,1,.73,1.87c0,.21,0,.46.07.77a1,1,0,0,1-1,1H15.34a2.14,2.14,0,0,0,1,1.91,2.39,2.39,0,0,0,1.31.34,2.34,2.34,0,0,0,1.55-.6,1.57,1.57,0,0,1,1.16-.43h.57a.64.64,0,0,1,.54,1,4.89,4.89,0,0,1-3.88,2,5,5,0,0,1-3.22-1.11,4.37,4.37,0,0,1-1.4-3.62,4.88,4.88,0,0,1,1.26-3.61,4.46,4.46,0,0,1,3.27-1.25,5.29,5.29,0,0,1,2.15.42Zm-3.57,2a2.5,2.5,0,0,0-.64,1.4h4.12a2,2,0,0,0-.64-1.43,2.12,2.12,0,0,0-1.42-.48,1.9,1.9,0,0,0-1.42.51Z"/><g class="cls-1"><rect x="14.78" y="6.3" width="5.3" height="1.52" rx="0.76"/></g></g></g></g></svg>