<svg xmlns="http://www.w3.org/2000/svg" viewBox="0 0 24 24"><defs><style>.cls-1{opacity:0.3;}</style></defs><g id="Social_Media" data-name="Social Media"><g id="soc001-010"><g id="soc008"><g class="cls-1"><path d="M5.88,20.19l0,0A6.08,6.08,0,0,1,8.5,9.1a3.84,3.84,0,0,1,.52,0,1,1,0,0,1,1,.8h0a4,4,0,0,0-.53,0A6.05,6.05,0,0,0,5.88,20.19ZM18.4,6.69a4.7,4.7,0,0,0,1.43.59A1.08,1.08,0,0,0,19,6.51a4.48,4.48,0,0,1-1.48-.58A4.59,4.59,0,0,0,18.4,6.69ZM8.93,18.4a2.79,2.79,0,0,0,4-2.47V3.8a1,1,0,0,1,1-1h1.3l.1,0A1.13,1.13,0,0,0,14.3,2H13a1,1,0,0,0-1,1V15.13a2.78,2.78,0,0,1-2.78,2.76A2.7,2.7,0,0,1,8,17.6,2.73,2.73,0,0,0,8.93,18.4ZM17.44,5.89l.07,0a4.65,4.65,0,0,1-1.15-2.19,1.11,1.11,0,0,0-1-.92s0,.07,0,.12A4.58,4.58,0,0,0,17.44,5.89Zm-7.38,5.47a1,1,0,0,1-1,1,2.82,2.82,0,0,0-2.67,2.77A2.78,2.78,0,0,0,8,17.6H8a2.76,2.76,0,0,1-.58-1.68,2.83,2.83,0,0,1,2.67-2.77,1,1,0,0,0,.95-1V10.87a1,1,0,0,0-1-1,.71.71,0,0,1,0,.2Zm9.89-4-.12,0a.88.88,0,0,1,.06.29v1.3a1,1,0,0,1-1.07.94,7.69,7.69,0,0,1-3.51-1.39v6.49a6.23,6.23,0,0,1-5.56,6.27,6,6,0,0,1-3.87-1,5.34,5.34,0,0,0,.93.78,6,6,0,0,0,3.9,1,6.23,6.23,0,0,0,5.56-6.27V9.22a7.69,7.69,0,0,0,3.51,1.39,1,1,0,0,0,1.07-.94V8.37A1.08,1.08,0,0,0,20,7.31Z"/></g><path d="M15.31,14.91V8.42a7.69,7.69,0,0,0,3.51,1.39,1,1,0,0,0,1.07-.94V7.57a.88.88,0,0,0-.06-.29,4.7,4.7,0,0,1-1.43-.59,4.59,4.59,0,0,1-.89-.76l-.07,0a4.58,4.58,0,0,1-2-2.95s0-.08,0-.12l-.1,0H14a1,1,0,0,0-1,1V15.93a2.79,2.79,0,0,1-4,2.47A2.73,2.73,0,0,1,8,17.6H8a2.78,2.78,0,0,1-1.53-2.48,2.82,2.82,0,0,1,2.67-2.77,1,1,0,0,0,1-1V10.07a.71.71,0,0,0,0-.2h0a4,4,0,0,0-.53,0A6.05,6.05,0,0,0,5.88,20.19a6,6,0,0,0,3.87,1A6.23,6.23,0,0,0,15.31,14.91Z"/></g></g></g></svg>