<svg xmlns="http://www.w3.org/2000/svg" viewBox="0 0 24 24"><defs><style>.cls-1{opacity:0.3;}</style></defs><g id="Social_Media" data-name="Social Media"><g id="soc001-010"><g id="soc005"><g class="cls-1"><path d="M22,8.25v7.46A6.3,6.3,0,0,1,15.71,22H8.22A6.25,6.25,0,0,1,2,15.71V8.25A6.21,6.21,0,0,1,8.22,2h7.49A6.27,6.27,0,0,1,22,8.25ZM12,7.38A4.6,4.6,0,1,0,16.59,12,4.61,4.61,0,0,0,12,7.38Zm5.88-2.26a1,1,0,1,0,1,1A1,1,0,0,0,17.85,5.12Z"/></g><path d="M12,17.57A5.6,5.6,0,1,1,17.58,12,5.61,5.61,0,0,1,12,17.57Zm0-9.19A3.6,3.6,0,1,0,15.58,12,3.61,3.61,0,0,0,12,8.38Z"/></g></g></g></svg>