<svg xmlns="http://www.w3.org/2000/svg" viewBox="0 0 24 24"><defs><style>.cls-1{opacity:0.3;}</style></defs><g id="Social_Media" data-name="Social Media"><g id="soc001-010"><g id="soc001"><path d="M14.77,5.25a4.85,4.85,0,0,0,1-2.23.74.74,0,0,0-1-.8,4.87,4.87,0,0,0-2,1.42,4.5,4.5,0,0,0-1,2.33.72.72,0,0,0,.93.73,4.14,4.14,0,0,0,2.15-1.45Z"/><g class="cls-1"><path d="M18.23,10.2a1,1,0,0,0-.1-1.51,4.5,4.5,0,0,0-2.43-1c-1.34-.1-2.44.79-3.73.79s-2.1-.8-3.55-.8a4.84,4.84,0,0,0-3.88,2.35c-1.34,2.09-1.11,6,1.07,9.37C6.39,20.64,7.43,22,8.79,22s1.55-.78,3.2-.79,1.95.8,3.16.79c1.36,0,2.46-1.51,3.24-2.7a13.17,13.17,0,0,0,.81-1.41,1,1,0,0,0-.37-1.24A4.14,4.14,0,0,1,18.23,10.2Z"/></g></g></g></g></svg>