<svg xmlns="http://www.w3.org/2000/svg" viewBox="0 0 24 24"><defs><style>.cls-1{opacity:0.3;}</style></defs><g id="Technologies"><g id="teh001-010"><g id="teh006"><path d="M5,11.28V11A2,2,0,0,1,7,9H17a2,2,0,0,1,2,2v.28A2,2,0,0,0,18,11H6A2,2,0,0,0,5,11.28ZM4,13H3a1,1,0,0,0-1,1v4a1,1,0,0,0,1,1H4Zm18,5V14a1,1,0,0,0-1-1H20v6h1A1,1,0,0,0,22,18Z"/><path class="cls-1" d="M18,21H6a2,2,0,0,1-2-2V13a2,2,0,0,1,2-2H18a2,2,0,0,1,2,2v6A2,2,0,0,1,18,21ZM14,3a1,1,0,0,0-1-1H11a1,1,0,0,0-1,1V9h4ZM6,12a1,1,0,1,0,1,1A1,1,0,0,0,6,12Zm12,0a1,1,0,1,0,1,1A1,1,0,0,0,18,12ZM6,18a1,1,0,1,0,1,1A1,1,0,0,0,6,18Zm12,0a1,1,0,1,0,1,1A1,1,0,0,0,18,18Z"/></g></g></g></svg>