<svg xmlns="http://www.w3.org/2000/svg" viewBox="0 0 24 24"><defs><style>.cls-1{opacity:0.3;}</style></defs><g id="Technologies"><g id="teh001-010"><g id="teh003"><path class="cls-1" d="M20.53,15.54c1.39-1.12,1.24-2.73,1.22-4.32a7.49,7.49,0,0,0-2-4.6A10.75,10.75,0,0,0,16,3.75,13.47,13.47,0,0,0,11.7,3,10.83,10.83,0,0,0,4.2,5.35C2.49,6.72,1.43,9.12,2.89,11.08a4.24,4.24,0,0,0,2,1.26,4.44,4.44,0,0,0,2.31.21,3,3,0,0,0,.42,2.64,3.05,3.05,0,0,0,2.39,1,1.92,1.92,0,0,0,.71-.15,3.73,3.73,0,0,0,.57-.34,5.45,5.45,0,0,1,3.34-.33,36.25,36.25,0,0,0,4,.69,2.78,2.78,0,0,0,.91,0A2.62,2.62,0,0,0,20.53,15.54Z"/><path d="M19.21,16.11a3.87,3.87,0,0,1-.46,1.4c-.32.61-1,.8-1.45,1.24-.64.59-.5,1.63-.47,2.41a1,1,0,0,1-.09.53.76.76,0,0,1-1,.21,2,2,0,0,1-.72-.81c-.27-.49-.49-1-.79-1.48a8.49,8.49,0,0,0-2.65-2.07,2.69,2.69,0,0,1-1-1.42l.11,0a3.73,3.73,0,0,0,.57-.34,5.45,5.45,0,0,1,3.34-.33,36.25,36.25,0,0,0,4,.69A3,3,0,0,0,19.21,16.11ZM19,10.28V3a1,1,0,0,0-2,0v7.28A2,2,0,0,0,16,12a2,2,0,0,0,4,0A2,2,0,0,0,19,10.28ZM14,2a1,1,0,0,0-1,1V8.59l-.49.48A2.09,2.09,0,0,0,12,9a2,2,0,1,0,2,2,2.09,2.09,0,0,0-.07-.51l.78-.78A1,1,0,0,0,15,9V3A1,1,0,0,0,14,2ZM10,2A1,1,0,0,0,9,3V4.59L7.51,6.07A2.09,2.09,0,0,0,7,6,2,2,0,1,0,9,8a2.09,2.09,0,0,0-.07-.51l1.78-1.78A1,1,0,0,0,11,5V3A1,1,0,0,0,10,2Z"/></g></g></g></svg>