<svg xmlns="http://www.w3.org/2000/svg" viewBox="0 0 24 24"><g id="Technologies"><g id="teh001-010"><g id="teh007"><path d="M13,2.81,22,10V21a1,1,0,0,1-1,1H3a1,1,0,0,1-1-1V10l9-7.19A1.62,1.62,0,0,1,13,2.81Zm5.62,9.64a1,1,0,0,0-.23-1.4,11,11,0,0,0-12.8,0,1,1,0,1,0,1.17,1.63,9,9,0,0,1,10.46,0,1,1,0,0,0,.58.18A1,1,0,0,0,18.63,12.45ZM14,19a1,1,0,0,0-.23-1.4,3,3,0,0,0-3.5,0,1,1,0,1,0,1.17,1.63,1,1,0,0,1,1.16,0,1,1,0,0,0,.58.18A1,1,0,0,0,14,19ZM16.3,15.7a1,1,0,0,0-.23-1.39,7.1,7.1,0,0,0-8.14,0,1,1,0,1,0,1.16,1.62,5.08,5.08,0,0,1,5.82,0,1,1,0,0,0,.58.19A1,1,0,0,0,16.3,15.7Z"/></g></g></g></svg>