<svg xmlns="http://www.w3.org/2000/svg" viewBox="0 0 24 24"><defs><style>.cls-1{opacity:0.3;}</style></defs><g id="Technologies"><g id="teh001-010"><g id="teh008"><path class="cls-1" d="M11,6.5A4.5,4.5,0,1,1,6.5,2,4.49,4.49,0,0,1,11,6.5ZM17.5,2A4.5,4.5,0,1,0,22,6.5,4.49,4.49,0,0,0,17.5,2ZM6.5,13A4.5,4.5,0,1,0,11,17.5,4.49,4.49,0,0,0,6.5,13Zm11,0A4.5,4.5,0,1,0,22,17.5,4.49,4.49,0,0,0,17.5,13Z"/><path d="M17.5,16h-.08l-.69-.69a3.9,3.9,0,0,1-1.13-2.19,8.55,8.55,0,0,1,0-2.26,3.9,3.9,0,0,1,1.13-2.19L17.42,8h.08A1.5,1.5,0,1,0,16,6.5s0,0,0,.08l-.69.69A3.9,3.9,0,0,1,13.13,8.4a8.55,8.55,0,0,1-2.26,0A3.9,3.9,0,0,1,8.68,7.27L8,6.58s0,0,0-.08A1.5,1.5,0,1,0,6.5,8h.08l.69.69A3.9,3.9,0,0,1,8.4,10.87a8.55,8.55,0,0,1,0,2.26,3.9,3.9,0,0,1-1.13,2.19L6.58,16H6.5A1.5,1.5,0,1,0,8,17.5s0-.05,0-.08l.69-.69a3.9,3.9,0,0,1,2.19-1.13,8.55,8.55,0,0,1,2.26,0,3.9,3.9,0,0,1,2.19,1.13l.69.69s0,0,0,.08A1.5,1.5,0,1,0,17.5,16Z"/></g></g></g></svg>