<svg xmlns="http://www.w3.org/2000/svg" viewBox="0 0 24 24"><defs><style>.cls-1{opacity:0.3;}</style></defs><g id="Technologies"><g id="teh001-010"><g id="teh002"><path class="cls-1" d="M3,6A1,1,0,0,1,2,5V3A1,1,0,0,1,3,2H5A1,1,0,0,1,5,4H4V5A1,1,0,0,1,3,6ZM22,5V3a1,1,0,0,0-1-1H19a1,1,0,0,0,0,2h1V5a1,1,0,0,0,2,0ZM6,21a1,1,0,0,0-1-1H4V19a1,1,0,0,0-2,0v2a1,1,0,0,0,1,1H5A1,1,0,0,0,6,21Zm16,0V19a1,1,0,0,0-2,0v1H19a1,1,0,0,0,0,2h2A1,1,0,0,0,22,21ZM16,11V9A4,4,0,0,0,8,9v2a1.5,1.5,0,0,0,0,3v1a4,4,0,0,0,8,0V14a1.5,1.5,0,0,0,0-3Zm-2.59,4a.5.5,0,0,1,.49.63,2,2,0,0,1-3.77.07.51.51,0,0,1,.47-.7Z"/><path d="M9.22,12.91a.81.81,0,0,1-.15-.31.84.84,0,0,1,.6-1,.83.83,0,0,1,1,.61.79.79,0,0,1,0,.34Zm5.54,0a.85.85,0,0,0,.15-.3.83.83,0,1,0-1.61-.41.79.79,0,0,0,0,.34ZM16,7.31a3.22,3.22,0,0,0,.65-1,5.17,5.17,0,0,1-1.3-.08,2.46,2.46,0,0,1-1-.47A4,4,0,0,0,12.13,5,4.18,4.18,0,0,0,8,9.22v2.32A5.64,5.64,0,0,0,9.53,9.12a15.39,15.39,0,0,0,4.9-.7A7.16,7.16,0,0,0,16,11.54V9a3.92,3.92,0,0,0-.29-1.46Z"/></g></g></g></svg>