<svg xmlns="http://www.w3.org/2000/svg" viewBox="0 0 24 24"><defs><style>.cls-1{opacity:0.3;}</style></defs><g id="Technologies"><g id="teh001-010"><g id="teh004"><path class="cls-1" d="M21,11H3a1,1,0,0,0,0,2H6v2a6,6,0,0,0,12,0V13h3a1,1,0,0,0,0-2Z"/><path d="M11.62,22.17A1,1,0,0,1,11,22a1,1,0,0,1-.21-1.4,10.82,10.82,0,0,0,1.88-4,1,1,0,1,1,1.94.47,13,13,0,0,1-2.21,4.73A1,1,0,0,1,11.62,22.17ZM8.73,20A8.94,8.94,0,0,0,11,14V9a1,1,0,0,1,2,0v4.32a1,1,0,0,0,2,0V9A3,3,0,0,0,9,9v5a7,7,0,0,1-1.76,4.64,1,1,0,0,0,.08,1.42,1,1,0,0,0,.67.25A1,1,0,0,0,8.73,20ZM6,17a1,1,0,0,0,1-1V9a5,5,0,0,1,.32-1.75,1,1,0,0,0-1.88-.7A7,7,0,0,0,5,9v7.1A1,1,0,0,0,6,17ZM9,5a4.93,4.93,0,0,1,1.66-.81,1,1,0,0,0-.53-1.93A6.93,6.93,0,0,0,7.81,3.39a1,1,0,0,0-.2,1.4,1,1,0,0,0,.8.4A1,1,0,0,0,9,5Zm9.17,14.23A17.06,17.06,0,0,0,19,14V9a7,7,0,0,0-4.72-6.62,1,1,0,0,0-.65,1.89A5,5,0,0,1,17,9v5a14.91,14.91,0,0,1-.72,4.61,1,1,0,0,0,.64,1.26,1.12,1.12,0,0,0,.31.05A1,1,0,0,0,18.18,19.22Z"/></g></g></g></svg>