<svg xmlns="http://www.w3.org/2000/svg" viewBox="0 0 24 24"><defs><style>.cls-1{opacity:0.3;}</style></defs><g id="Technologies"><g id="teh001-010"><g id="teh005"><path class="cls-1" d="M20,4v6a1,1,0,0,1-1,1H17a1,1,0,0,1-1-1V4h0a2,2,0,0,1,4,0ZM9.72,18.87a2,2,0,0,0,1.15-2.59l-5-13A2,2,0,0,0,2.13,4.72l5,13a2,2,0,0,0,2.59,1.15ZM19,18H17v2h2Z"/><path d="M18,6H4A2,2,0,0,1,4,2H18a2,2,0,0,1,0,4ZM4,3A1,1,0,1,0,5,4,1,1,0,0,0,4,3ZM18,3a1,1,0,1,0,1,1A1,1,0,0,0,18,3ZM12,17v5H6V17a3,3,0,0,1,6,0ZM9,15.5A1.5,1.5,0,1,0,10.5,17,1.5,1.5,0,0,0,9,15.5Zm6-.5h2V13H16V8l-2,2v4A1,1,0,0,0,15,15Zm4,0h2a1,1,0,0,0,1-1V10L20,8v5H19Zm2,5H15v2h6Z"/></g></g></g></svg>