<svg xmlns="http://www.w3.org/2000/svg" viewBox="0 0 24 24"><g id="Text_and_Typography" data-name="Text and Typography"><g id="txt001-010"><g id="txt005"><path d="M7,22a3,3,0,0,1-2.24-.76A3.12,3.12,0,0,1,4.06,19V5a3.12,3.12,0,0,1,.73-2.25A3.07,3.07,0,0,1,7,2h6.06a14.23,14.23,0,0,1,2.42.18A5.37,5.37,0,0,1,18.82,4,5.07,5.07,0,0,1,20,7.35a4.73,4.73,0,0,1-2,4A5,5,0,0,1,20.9,16,5.82,5.82,0,0,1,20,19.19a5.44,5.44,0,0,1-2.45,2.1,8.49,8.49,0,0,1-2.14.56,21.14,21.14,0,0,1-2.68.15Zm5.56-4.16c2.82,0,3.18-1.13,3.18-2.11a1.58,1.58,0,0,0-.69-1.49,5,5,0,0,0-2.62-.54H9.16v4.14ZM12,9.67a6.48,6.48,0,0,0,2-.23,1.46,1.46,0,0,0,.82-.71A1.7,1.7,0,0,0,15,7.85c0-.89-.35-1.16-.62-1.29a7.3,7.3,0,0,0-2.79-.4H9.16V9.67Z"/></g></g></g></svg>