<svg xmlns="http://www.w3.org/2000/svg" viewBox="0 0 24 24"><defs><style>.cls-1{opacity:0.3;}</style></defs><g id="Text_and_Typography" data-name="Text and Typography"><g id="txt001-010"><g id="txt009"><path class="cls-1" d="M17,11H11a1,1,0,0,1-1-1V9a1,1,0,0,1,1-1h6a1,1,0,0,1,1,1v1A1,1,0,0,1,17,11Zm5-6V4a1,1,0,0,0-1-1H11a1,1,0,0,0-1,1V5a1,1,0,0,0,1,1H21A1,1,0,0,0,22,5Zm0,11V15a1,1,0,0,0-1-1H11a1,1,0,0,0-1,1v1a1,1,0,0,0,1,1H21A1,1,0,0,0,22,16Zm-4,5V20a1,1,0,0,0-1-1H11a1,1,0,0,0-1,1v1a1,1,0,0,0,1,1h6A1,1,0,0,0,18,21Z"/><path d="M8,6A3,3,0,1,1,5,3,3,3,0,0,1,8,6ZM5,5A1,1,0,1,0,6,6,1,1,0,0,0,5,5ZM8,17a3,3,0,1,1-3-3A3,3,0,0,1,8,17ZM5,16a1,1,0,1,0,1,1A1,1,0,0,0,5,16Z"/></g></g></g></svg>