<svg xmlns="http://www.w3.org/2000/svg" viewBox="0 0 24 24"><defs><style>.cls-1{opacity:0.3;}</style></defs><g id="Text_and_Typography" data-name="Text and Typography"><g id="txt001-010"><g id="txt001"><path d="M13,11H3a1,1,0,0,1-1-1V9A1,1,0,0,1,3,8H13a1,1,0,0,1,1,1v1A1,1,0,0,1,13,11Zm9-6V4a1,1,0,0,0-1-1H3A1,1,0,0,0,2,4V5A1,1,0,0,0,3,6H21A1,1,0,0,0,22,5Z"/><path class="cls-1" d="M21,16H3a1,1,0,0,1-1-1V14a1,1,0,0,1,1-1H21a1,1,0,0,1,1,1v1A1,1,0,0,1,21,16Zm-7,4V19a1,1,0,0,0-1-1H3a1,1,0,0,0-1,1v1a1,1,0,0,0,1,1H13A1,1,0,0,0,14,20Z"/></g></g></g></svg>