<svg xmlns="http://www.w3.org/2000/svg" viewBox="0 0 24 24"><defs><style>.cls-1{opacity:0.3;}.cls-2{fill:none;stroke:#000;stroke-linecap:round;stroke-linejoin:round;stroke-width:3px;}</style></defs><g id="Text_and_Typography" data-name="Text and Typography"><g id="txt001-010"><g id="txt008"><path class="cls-1" d="M19.68,15.86a5.72,5.72,0,0,1-.9,3.16,6,6,0,0,1-2.64,2.19A9.88,9.88,0,0,1,12,22a9.33,9.33,0,0,1-4.73-1.08,6.26,6.26,0,0,1-2.14-2.08,4.58,4.58,0,0,1-.65-1.4C4.07,15.68,6.43,14.86,7.6,16A9.25,9.25,0,0,1,8.65,17.7a3.23,3.23,0,0,0,1.21,1,4.43,4.43,0,0,0,2,.4,4.63,4.63,0,0,0,2.83-.81,2.42,2.42,0,0,0,1.09-2,2.17,2.17,0,0,0-.59-1.57,3.77,3.77,0,0,0-1.52-.91c-.62-.21-1.44-.44-2.48-.68A17.64,17.64,0,0,1,7.74,12a5.59,5.59,0,0,1-2.23-1.78,4.6,4.6,0,0,1-.82-2.8,4.82,4.82,0,0,1,.87-2.84,5.51,5.51,0,0,1,2.51-1.9A10.23,10.23,0,0,1,12,2,9.69,9.69,0,0,1,15,2.44a6.54,6.54,0,0,1,2.16,1.18c.88.75,1.78,1.89,1.21,3.1a1.9,1.9,0,0,1-1.36,1,1.6,1.6,0,0,1-1.31-.3,2.1,2.1,0,0,1-.37-.42,7.39,7.39,0,0,0-1.3-1.65,3.68,3.68,0,0,0-2.37-.62,4.15,4.15,0,0,0-2.45.67,1.93,1.93,0,0,0-.93,1.6,1.67,1.67,0,0,0,.32,1,2.62,2.62,0,0,0,.87.72,6.4,6.4,0,0,0,1.12.48c.38.11,1,.28,1.87.5a27.61,27.61,0,0,1,3,.84,9.09,9.09,0,0,1,2.25,1.12,4.57,4.57,0,0,1,1.45,1.67A5.31,5.31,0,0,1,19.68,15.86Z"/><line class="cls-2" x1="3.5" y1="12" x2="20.5" y2="12"/></g></g></g></svg>