<svg xmlns="http://www.w3.org/2000/svg" viewBox="0 0 24 24"><defs><style>.cls-1{opacity:0.3;}</style></defs><g id="Text_and_Typography" data-name="Text and Typography"><g id="txt001-010"><g id="txt003"><path d="M10,10V9a1,1,0,0,1,1-1H21a1,1,0,0,1,1,1v1a1,1,0,0,1-1,1H11A1,1,0,0,1,10,10ZM3,6H21a1,1,0,0,0,1-1V4a1,1,0,0,0-1-1H3A1,1,0,0,0,2,4V5A1,1,0,0,0,3,6Z"/><path class="cls-1" d="M2,15V14a1,1,0,0,1,1-1H21a1,1,0,0,1,1,1v1a1,1,0,0,1-1,1H3A1,1,0,0,1,2,15Zm9,6H21a1,1,0,0,0,1-1V19a1,1,0,0,0-1-1H11a1,1,0,0,0-1,1v1A1,1,0,0,0,11,21Z"/></g></g></g></svg>