<svg xmlns="http://www.w3.org/2000/svg" viewBox="0 0 24 24"><g id="Text_and_Typography" data-name="Text and Typography"><g id="txt001-010"><g id="txt007"><path d="M6.33,22a1.5,1.5,0,1,1,0-3h11a1.5,1.5,0,1,1,0,3ZM12,17.23a10.27,10.27,0,0,1-2.89-.36A4.81,4.81,0,0,1,7.1,15.7a4.69,4.69,0,0,1-1.17-2,10.22,10.22,0,0,1-.35-2.83V4.09a2.18,2.18,0,0,1,.47-1.52A1.63,1.63,0,0,1,7.32,2a1.65,1.65,0,0,1,1.29.54,2.18,2.18,0,0,1,.48,1.52V11a6.16,6.16,0,0,0,.24,1.87,2,2,0,0,0,.81,1.05,3.06,3.06,0,0,0,1.69.39,2.54,2.54,0,0,0,2.1-.76,4.09,4.09,0,0,0,.62-2.49v-7A2.2,2.2,0,0,1,15,2.57,1.63,1.63,0,0,1,16.29,2a1.7,1.7,0,0,1,1.29.53,2.19,2.19,0,0,1,.48,1.53v6.76a10.4,10.4,0,0,1-.33,2.84,4.5,4.5,0,0,1-1.31,2.09,4.88,4.88,0,0,1-1.91,1.11A8,8,0,0,1,12,17.23Z"/></g></g></g></svg>