<svg xmlns="http://www.w3.org/2000/svg" viewBox="0 0 24 24"><defs><style>.cls-1{opacity:0.3;}</style></defs><g id="Text_and_Typography" data-name="Text and Typography"><g id="txt001-010"><g id="txt010"><path class="cls-1" d="M17,11H11a1,1,0,0,1-1-1V9a1,1,0,0,1,1-1h6a1,1,0,0,1,1,1v1A1,1,0,0,1,17,11Zm5-6V4a1,1,0,0,0-1-1H11a1,1,0,0,0-1,1V5a1,1,0,0,0,1,1H21A1,1,0,0,0,22,5Zm0,11V15a1,1,0,0,0-1-1H11a1,1,0,0,0-1,1v1a1,1,0,0,0,1,1H21A1,1,0,0,0,22,16Zm-4,5V20a1,1,0,0,0-1-1H11a1,1,0,0,0-1,1v1a1,1,0,0,0,1,1h6A1,1,0,0,0,18,21Z"/><path d="M5.47,11a1,1,0,0,1-.77-.33,1.25,1.25,0,0,1-.29-.87V5.94c-.79.54-1.13.62-1.35.62a.86.86,0,0,1-.65-.28.91.91,0,0,1-.27-.65A.8.8,0,0,1,2.45,5a3.61,3.61,0,0,1,.64-.36A3.8,3.8,0,0,0,4,4a3.65,3.65,0,0,0,.59-.65L5,2.87a.8.8,0,0,1,.6-.21A.89.89,0,0,1,6.3,3a1.3,1.3,0,0,1,.24.81V9.61C6.54,10.86,5.79,11,5.47,11ZM7,22a1,1,0,0,0,.77-.29A.94.94,0,0,0,8,21a.89.89,0,0,0-.35-.73,1.26,1.26,0,0,0-.83-.25H5c.18-.17.42-.38.72-.62.51-.42.88-.73,1.09-.93a3.74,3.74,0,0,0,.71-.89,2.56,2.56,0,0,0,.37-1.33,2.34,2.34,0,0,0-.18-.91,2.64,2.64,0,0,0-.49-.78,2.37,2.37,0,0,0-.75-.53A3.64,3.64,0,0,0,5,13.79,3.47,3.47,0,0,0,3.73,14a2.79,2.79,0,0,0-.91.58,2.38,2.38,0,0,0-.55.81,2.22,2.22,0,0,0-.19.88,1,1,0,0,0,.28.72,1,1,0,0,0,.68.28A.91.91,0,0,0,3.77,17a2,2,0,0,0,.33-.64c.06-.17.11-.28.13-.33A.83.83,0,0,1,5,15.57a.87.87,0,0,1,.4.09.78.78,0,0,1,.28.26.84.84,0,0,1,.1.39,1.14,1.14,0,0,1-.11.45,2,2,0,0,1-.36.51,3.36,3.36,0,0,1-.62.53,10.61,10.61,0,0,0-.82.69c-.37.34-.78.74-1.23,1.22a1.94,1.94,0,0,0-.37.57,1.53,1.53,0,0,0-.17.64,1.05,1.05,0,0,0,.32.76,1.2,1.2,0,0,0,.86.32Z"/></g></g></g></svg>